<?xml version="1.0" standalone="no"?>
<!DOCTYPE svg PUBLIC "-//W3C//DTD SVG 1.1//EN" "http://www.w3.org/Graphics/SVG/1.1/DTD/svg11.dtd" >
<svg xmlns="http://www.w3.org/2000/svg">
<metadata></metadata>
<defs>
<font id="malaga_otmed_italic" horiz-adv-x="1114" >
<font-face units-per-em="2048" ascent="1638" descent="-410" />
<missing-glyph horiz-adv-x="532" />
<glyph unicode="&#xfb01;" horiz-adv-x="1318" d="M-137 -311l35 178q58 -8 96 -8q46 0 76 10q21 6 30 47q8 35 21 140.5t26 185.5l95 596l-39 10q-42 10 -60.5 20t-27.5 25l18 104h137l6 37q35 202 156.5 331.5t290.5 129.5q74 0 125 -33l-33 -178q-66 8 -123 8q-75 0 -108 -10q-17 -6 -25 -35q-20 -66 -43 -250h459 l237 21l-155 -821q93 0 178 16l12 -29q-62 -113 -132 -158.5t-152 -45.5q-73 0 -115 24.5t-70 75.5l142 756h-422l-111 -691q-35 -223 -144.5 -356t-260.5 -133q-75 0 -119 33zM969 1307q0 71 47.5 112t122.5 41q62 0 96.5 -33.5t34.5 -91.5q0 -67 -47 -110t-121 -43 q-65 0 -99 34.5t-34 90.5z" />
<glyph unicode="&#xfb02;" horiz-adv-x="1316" d="M-137 -311l35 178q58 -8 96 -8q46 0 76 10q21 6 30 47q8 35 21 140.5t26 185.5l95 596l-39 10q-42 10 -60.5 20t-27.5 25l18 104h137l6 37q34 199 172 326t353 127q108 0 246 -27l253 35l-243 -1298q93 0 178 16l12 -29q-62 -113 -132 -158.5t-152 -45.5q-74 0 -116 24 t-69 76l223 1186q-129 22 -280 22q-83 0 -121 -10q-19 -5 -31 -39q-31 -82 -53 -242h229q0 -100 -28 -161h-219l-111 -691q-35 -223 -144.5 -356t-260.5 -133q-75 0 -119 33z" />
<glyph horiz-adv-x="2048" />
<glyph horiz-adv-x="2048" />
<glyph unicode="&#xd;" horiz-adv-x="2048" />
<glyph unicode=" "  horiz-adv-x="532" />
<glyph unicode="&#x09;" horiz-adv-x="532" />
<glyph unicode="&#xa0;" horiz-adv-x="532" />
<glyph unicode="!" horiz-adv-x="630" d="M96 111q0 81 50 130.5t130 49.5q61 0 98.5 -37t37.5 -96q0 -79 -49 -128.5t-130 -49.5q-64 0 -100.5 37t-36.5 94zM219 438l86 959q127 20 326 20l-260 -979h-152z" />
<glyph unicode="&#x22;" horiz-adv-x="663" d="M152 954l24 521h279l-164 -521q-27 -8 -70 -8q-45 0 -69 8zM500 954l22 521h279l-164 -521q-27 -8 -70 -8q-46 0 -67 8z" />
<glyph unicode="#" d="M14 365q6 44 28.5 110.5t43.5 104.5l211 20l61 168l-221 -25q6 46 29.5 111t46.5 102l221 25l154 426q67 0 123 -18l-144 -394l221 23l142 389q65 0 121 -18l-129 -357l223 23q-6 -42 -30 -109t-48 -104l-221 -23l-62 -166l234 25q-6 -42 -30 -109t-46 -106l-231 -25 l-164 -448q-69 0 -121 18l152 416l-222 -23l-149 -411q-71 0 -123 18l137 379zM432 614l219 25l60 166l-219 -23z" />
<glyph unicode="$" d="M100 -145l103 262q-53 9 -90 24l30 285q46 27 119 27h23q24 -142 32 -181q84 -24 187 -24q80 0 110 10q23 6 50.5 45t27.5 90q0 47 -25.5 84.5t-66 64t-89.5 51.5t-98.5 55t-90 67t-66 94.5t-25.5 130.5q0 128 101 230.5t268 129.5l98 259q57 0 93 -25l-89 -223h11 q44 0 114 -8l99 256q56 0 92 -25l-94 -244q40 -6 88 -18l-27 -283q-50 -26 -119 -26h-22l-33 172q-78 16 -145 16q-76 0 -109 -10q-18 -5 -47 -45.5t-29 -94.5q0 -43 25.5 -77.5t66 -60t90 -50t98.5 -55.5t89.5 -69.5t66 -97.5t25.5 -134q0 -143 -113 -248.5t-311 -118.5 l-98 -260q-53 0 -92 25l92 233q-62 3 -125 12l-102 -270q-54 0 -93 25z" />
<glyph unicode="%" horiz-adv-x="1548" d="M127 991q0 184 102.5 305t272.5 121q138 0 213.5 -80.5t75.5 -216.5q0 -188 -105 -307t-270 -119q-138 0 -213.5 80t-75.5 217zM236 6l1011 1411q31 0 60.5 -12t44.5 -31l-1012 -1411q-64 0 -104 43zM322 965q0 -74 29 -111t83 -37q38 0 62 8q16 4 38.5 43.5t42 116 t19.5 162.5q0 73 -29.5 110t-83.5 37q-40 0 -61 -8q-17 -4 -39.5 -43.5t-41.5 -115.5t-19 -162zM815 276q0 184 103 305t272 121q138 0 213.5 -80t75.5 -216q0 -188 -105 -307t-270 -119q-138 0 -213.5 79.5t-75.5 216.5zM1010 250q0 -74 29 -111t83 -37q38 0 62 9 q17 4 39.5 43.5t41.5 115.5t19 162q0 73 -29.5 110.5t-83.5 37.5q-37 0 -61 -9q-17 -4 -39.5 -43.5t-41.5 -115.5t-19 -162z" />
<glyph unicode="&#x26;" horiz-adv-x="1437" d="M43 311q0 129 81.5 247t270.5 241q-30 62 -30 164q0 120 52.5 223t153 167t228.5 64q147 0 232 -71t85 -183q0 -77 -43 -133.5t-112 -77.5q-67 6 -102.5 35t-35.5 72q0 46 34 77.5t101 37.5v8q0 42 -42.5 68t-114.5 26q-41 0 -68 -8q-13 -3 -34.5 -28t-42.5 -80.5 t-21 -121.5q0 -86 40 -178t159 -260l135 -188q80 92 166 225l-138 22l2 13q11 72 56 121h403l-45 -134l-76 -22q-155 -221 -278 -352l186 -260q-28 -24 -80 -41t-94 -19q-94 87 -178 174q-210 -159 -430 -159q-195 0 -307.5 89t-112.5 242zM317 369q0 -97 60 -159.5 t164 -62.5q126 0 247 99q-207 229 -325 409q-146 -131 -146 -286z" />
<glyph unicode="'" horiz-adv-x="317" d="M152 954l24 521h279l-164 -521q-27 -8 -70 -8q-45 0 -69 8z" />
<glyph unicode="(" horiz-adv-x="587" d="M55 262q0 153 22.5 307t74 306t126 271.5t188 200t251.5 95.5q28 -61 28 -125q-105 -15 -192 -129.5t-140.5 -285.5t-82.5 -369t-29 -394q0 -109 23 -179t59.5 -103t95.5 -52q-14 -73 -49 -120q-185 26 -280 173.5t-95 403.5z" />
<glyph unicode=")" horiz-adv-x="587" d="M-145 -193q105 16 192 130.5t140.5 285.5t82.5 369t29 393q0 110 -23 180.5t-59.5 103.5t-95.5 52q13 69 47 121q186 -26 281.5 -173.5t95.5 -404.5q0 -153 -22.5 -307t-74 -306t-126 -271t-188 -199.5t-251.5 -95.5q-28 61 -28 122z" />
<glyph unicode="*" horiz-adv-x="798" d="M121 1122q11 57 39 117.5t63 97.5l223 -129q-2 181 -4 271q50 16 117 16q65 0 111 -16l-97 -271l261 131q38 -59 38 -161q0 -40 -4 -56l-274 -35l160 -196q-32 -41 -90.5 -77t-110.5 -48l-76 244l-158 -246q-46 15 -94.5 55t-68.5 80l231 188z" />
<glyph unicode="+" d="M127 389v217h319v359h222v-359h319v-217h-319v-358h-222v358h-319z" />
<glyph unicode="," horiz-adv-x="475" d="M-139 -311l241 358l-88 53q5 93 50 149t129 56q67 0 109 -46t42 -130q0 -31 -10 -76l-373 -424q-30 1 -57.5 18t-42.5 42z" />
<glyph unicode="-" horiz-adv-x="571" d="M45 403l39 222h438l-39 -222h-438z" />
<glyph unicode="." horiz-adv-x="475" d="M12 121q0 87 52 139.5t137 52.5q63 0 101 -39t38 -102q0 -87 -51 -139.5t-137 -52.5q-66 0 -103 39.5t-37 101.5z" />
<glyph unicode="/" horiz-adv-x="745" d="M-94 -49l794 1554q46 0 96.5 -17.5t73.5 -41.5l-794 -1555q-45 0 -96.5 17.5t-73.5 42.5z" />
<glyph unicode="0" horiz-adv-x="1208" d="M88 449q0 139 41 263t116 217.5t187.5 148.5t247.5 55q201 0 320.5 -130.5t119.5 -338.5q0 -139 -41.5 -263.5t-116.5 -218t-187.5 -148t-246.5 -54.5q-201 0 -320.5 130.5t-119.5 338.5zM303 471q0 -133 70.5 -203.5t187.5 -70.5q84 0 146 16q21 5 51.5 33t64.5 77 t58 133.5t24 184.5q0 134 -72 204t-186 70q-85 0 -147 -16q-15 -4 -37.5 -21t-51 -53t-52 -83t-40 -118.5t-16.5 -152.5z" />
<glyph unicode="1" horiz-adv-x="761" d="M-59 0l43 135l211 23l141 780l-88 23q-70 19 -88 59l18 92h467l-170 -954l197 -23l-6 -24q-13 -71 -50 -111h-675z" />
<glyph unicode="2" horiz-adv-x="1024" d="M-16 141q257 161 389.5 264.5t177.5 171.5t45 144q0 90 -58 144.5t-151 54.5q-117 0 -190 -70l-60 59q128 224 381 224q161 0 270 -92.5t109 -245.5q0 -146 -101.5 -259.5t-361.5 -261.5v-16h426q-1 -145 -33 -211.5t-100 -66.5q-53 0 -158 10l-426 47l-84 -53 q-29 22 -50.5 67t-24.5 90z" />
<glyph unicode="3" horiz-adv-x="1009" d="M-57 -158q298 35 436.5 108t138.5 195q0 98 -60 143.5t-184 45.5h-143l31 168h143q303 0 303 225q0 88 -57 142.5t-154 54.5q-66 0 -112.5 -18.5t-89.5 -57.5l-60 61q67 113 161 168.5t226 55.5q174 0 279.5 -99t105.5 -252q0 -135 -78.5 -225.5t-203.5 -116.5v-16 q88 -30 140 -101t52 -173q0 -214 -226.5 -331.5t-629.5 -123.5q-18 50 -18 147z" />
<glyph unicode="4" horiz-adv-x="1036" d="M-31 20l43 250l582 863q57 0 115 -13t90 -33l-584 -864h371l73 414h263l-72 -401h131l-6 -39q-19 -112 -60 -177h-102l-55 -305h-281l55 305h-563z" />
<glyph unicode="5" horiz-adv-x="1009" d="M-37 -158q287 27 429.5 99.5t142.5 197.5q0 115 -100.5 176.5t-301.5 85.5l154 711h708q0 -148 -48 -207t-138 -59q-95 0 -369 35l-100 -295q233 -35 365.5 -140t132.5 -274q0 -121 -64 -213t-180 -149t-270 -85.5t-342 -29.5q-19 62 -19 147z" />
<glyph unicode="6" horiz-adv-x="1038" d="M68 414q0 308 235 561t707 442q23 -20 44 -59t29 -74q-282 -148 -427 -268t-224 -273h12q82 68 205 68q135 0 227.5 -92t92.5 -254q0 -146 -68 -258t-177 -169.5t-237 -57.5q-189 0 -304 119.5t-115 314.5zM338 350q0 -213 170 -213q42 0 78 8q16 5 40.5 39.5t47 106.5 t22.5 155q0 98 -44.5 150.5t-121.5 52.5q-93 0 -147 -57q-20 -46 -32.5 -116.5t-12.5 -125.5z" />
<glyph unicode="7" horiz-adv-x="1015" d="M25 -270l735 1151q-441 -35 -539 -35q-125 0 -125 119q0 56 37 147h891l-43 -242l-745 -1179q-129 0 -211 39z" />
<glyph unicode="8" horiz-adv-x="1028" d="M43 270q0 98 47 175.5t150 142.5l125 78q-195 135 -195 319q0 116 60.5 214.5t170.5 158t246 59.5q184 0 286.5 -83t102.5 -212q0 -90 -48 -161t-150 -136l-115 -71q203 -142 203 -351q0 -184 -138.5 -303.5t-351.5 -119.5q-186 0 -289.5 82t-103.5 208zM283 291 q0 -73 50 -113.5t130 -40.5q51 0 110 15q30 9 59.5 61.5t29.5 126.5q0 79 -41.5 133t-145.5 121q-112 -83 -152 -150t-40 -153zM434 1059q0 -71 44.5 -124t133.5 -110q103 71 144 132t41 137q0 79 -51 122.5t-132 43.5q-44 0 -94 -15q-27 -8 -56.5 -58t-29.5 -128z" />
<glyph unicode="9" horiz-adv-x="1038" d="M-45 -172q281 147 426.5 267t226.5 274h-14q-82 -70 -205 -70q-133 0 -225 93t-92 255q0 110 39.5 202.5t105.5 154t152.5 95.5t181.5 34q190 0 305 -119.5t115 -315.5q0 -308 -234.5 -561.5t-707.5 -441.5q-23 20 -45 59t-29 74zM342 664q0 -97 45 -149t123 -52 q91 0 145 57q21 45 33 115t12 127q0 213 -170 213q-41 0 -77 -8q-16 -4 -40.5 -38.5t-47.5 -107.5t-23 -157z" />
<glyph unicode=":" horiz-adv-x="528" d="M20 121q0 87 52 139.5t137 52.5q63 0 101 -39t38 -102q0 -87 -51 -139.5t-137 -52.5q-66 0 -103 39.5t-37 101.5zM133 823q0 87 52 140t137 53q63 0 101 -39.5t38 -102.5q0 -87 -51.5 -139.5t-137.5 -52.5q-66 0 -102.5 39.5t-36.5 101.5z" />
<glyph unicode=";" horiz-adv-x="528" d="M-129 -311l242 358l-88 53q5 93 49.5 149t128.5 56q67 0 109 -46t42 -130q0 -31 -10 -76l-373 -424q-30 1 -57.5 18t-42.5 42zM133 823q0 87 52 140t137 53q63 0 101 -39.5t38 -102.5q0 -87 -51.5 -139.5t-137.5 -52.5q-66 0 -102.5 39.5t-36.5 101.5z" />
<glyph unicode="&#x3c;" d="M125 502l553 463h311l-553 -463l551 -471h-311z" />
<glyph unicode="=" d="M131 178v217h850v-217h-850zM131 602v217h850v-217h-850z" />
<glyph unicode="&#x3e;" d="M125 31l553 463l-551 471h309l551 -471l-553 -463h-309z" />
<glyph unicode="?" horiz-adv-x="921" d="M158 111q0 81 50 130.5t130 49.5q61 0 98 -36.5t37 -96.5q0 -79 -48.5 -128.5t-129.5 -49.5q-64 0 -100.5 37t-36.5 94zM190 641q18 65 60 104q180 30 280.5 105.5t100.5 187.5q0 81 -47 133t-135 52q-116 0 -197 -78l-57 53q66 109 161.5 164t231.5 55 q155 0 249.5 -89.5t94.5 -231.5q0 -160 -119 -267t-342 -145l-65 -246h-105z" />
<glyph unicode="@" horiz-adv-x="1816" d="M63 227q0 237 87.5 444.5t231.5 348.5t332.5 222t389.5 81q187 0 333.5 -72.5t231 -213t84.5 -328.5q0 -151 -46.5 -285t-123 -225.5t-176 -145t-203.5 -53.5q-91 0 -156.5 27t-113.5 90h-16q-70 -64 -126 -90.5t-112 -26.5q-104 0 -163.5 70t-59.5 194q0 137 46.5 263 t118 211.5t158 136.5t166.5 51q152 0 219 -117l92 115q34 0 75 -9.5t67 -25.5l-271 -688q23 -37 95 -37q89 0 172 71.5t135.5 197t52.5 269.5q0 213 -130.5 331t-358.5 118q-178 0 -338 -75t-272.5 -199.5t-178 -292t-65.5 -348.5q0 -225 127.5 -346t334.5 -121 q140 0 265 59l-43 -158q-113 -69 -262 -69q-127 0 -237 43t-190 122t-126 198t-46 263zM692 295q0 -61 24.5 -95t69.5 -34q54 0 127 47l201 512q-98 37 -174 37q-49 0 -107.5 -72t-99.5 -183.5t-41 -211.5z" />
<glyph unicode="A" horiz-adv-x="1255" d="M-137 0l41 139l82 23l684 1235l225 20l225 -1255l123 -23l-4 -24q-15 -79 -51 -115h-551l43 139l151 23l-59 348l-403 -25l-168 -323l184 -23l-4 -24q-15 -79 -51 -115h-467zM446 637h306l-68 424h-18z" />
<glyph unicode="B" horiz-adv-x="1269" d="M-25 0l43 139l138 23l192 1073l-168 22l4 25q14 77 49 115h558q204 0 313.5 -88t109.5 -254q0 -133 -80 -222t-202 -110v-18q99 -30 163 -105.5t64 -191.5q0 -187 -147 -297.5t-420 -110.5h-617zM438 162l180 -17q107 6 178.5 80t71.5 191q0 109 -62.5 164t-178.5 55 h-105zM547 768l225 14q71 27 115.5 98t44.5 162q0 97 -51.5 149t-149.5 52h-100z" />
<glyph unicode="C" horiz-adv-x="1271" d="M92 588q0 175 54.5 326.5t153 263t246.5 175.5t326 64q79 0 183 -13.5t184 -35.5l-41 -395q-50 -33 -131 -33h-20l-46 270q-106 29 -217 29q-65 0 -112 -8q-23 -4 -56 -34t-71 -88t-70.5 -133t-54 -181.5t-21.5 -219.5q0 -206 88.5 -309.5t247.5 -103.5q94 0 154 22 l84 252h20q83 0 131 -30l-24 -328q-80 -46 -191 -72t-217 -26q-281 0 -440.5 166.5t-159.5 441.5z" />
<glyph unicode="D" horiz-adv-x="1456" d="M-25 0l43 139l138 23l192 1073l-168 22l4 25q14 78 49 115h570q136 0 246 -35t191 -105t125 -181.5t44 -258.5q0 -236 -108 -423.5t-294 -290.5t-415 -103h-617zM442 170l217 -18q69 7 135 44.5t121 102.5t97.5 148.5t66 189t23.5 217.5q0 105 -26.5 181t-74.5 119 t-107.5 63t-133.5 20h-127z" />
<glyph unicode="E" horiz-adv-x="1249" d="M-25 0l43 139l138 23l192 1073l-168 22l4 25q14 78 49 115h723l261 20l-35 -393q-57 -31 -133 -31h-19l-51 242h-346l-80 -449h430q0 -92 -31 -174l-174 15h-254l-84 -475l408 20l90 242h23q76 0 129 -33l-33 -381h-1082z" />
<glyph unicode="F" horiz-adv-x="1169" d="M-25 0l43 139l138 23l192 1073l-168 22l4 25q14 78 49 115h721l260 20l-34 -401q-58 -33 -131 -33h-21l-51 252h-344l-86 -479h463q0 -100 -29 -174l-176 14h-285l-78 -434l185 -23l-6 -24q-19 -81 -50 -115h-596z" />
<glyph unicode="G" horiz-adv-x="1392" d="M92 588q0 178 56.5 330.5t158.5 263t252.5 173t329.5 62.5q220 0 418 -49l-39 -381q-58 -33 -131 -33h-19l-45 256q-127 29 -242 29q-94 0 -151 -8q-19 -3 -51.5 -29.5t-72.5 -82.5t-75 -129.5t-58.5 -182.5t-23.5 -229q0 -202 91 -309t260 -107q71 0 124 16l58 332 l-174 22l4 25q13 72 51 113h520l-43 -138l-82 -22l-92 -510l-33 -20l-135 49q-112 -49 -246 -49q-278 0 -444 165.5t-166 442.5z" />
<glyph unicode="H" horiz-adv-x="1542" d="M-25 0l43 139l138 23l192 1073l-168 22l4 25q14 78 49 115h580l-43 -140l-137 -22l-78 -442h518l80 442l-164 22l4 25q14 78 49 115h580l-43 -140l-141 -22l-191 -1073l168 -23l-4 -24q-15 -79 -51 -115h-576l41 139l136 23l83 463h-520l-82 -463l166 -23l-6 -24 q-19 -83 -51 -115h-576z" />
<glyph unicode="I" horiz-adv-x="737" d="M-25 0l43 139l138 23l192 1073l-168 22l4 25q14 78 49 115h584l-43 -140l-141 -22l-191 -1073l168 -23l-4 -24q-14 -78 -49 -115h-582z" />
<glyph unicode="J" horiz-adv-x="722" d="M-78 -391l205 371l223 1255l-170 22l6 25q19 81 50 115h583l-43 -140l-141 -22l-195 -1092q-19 -102 -53 -169.5t-108 -151.5l-242 -273q-34 0 -64.5 17t-50.5 43z" />
<glyph unicode="K" horiz-adv-x="1347" d="M-25 0l43 139l138 23l192 1073l-168 22l4 25q14 78 49 115h574l-43 -140l-131 -22l-101 -561h19l555 561l-158 22l4 25q14 78 49 115h519l-43 -140l-111 -22l-436 -401l325 -785q-32 -32 -92 -56t-106 -24l-369 647l-199 -184l-47 -270l154 -23l-4 -24q-14 -77 -49 -115 h-568z" />
<glyph unicode="L" horiz-adv-x="1120" d="M-25 0l43 139l138 23l192 1073l-168 22l4 25q14 78 49 115h594l-43 -140l-151 -22l-193 -1081l351 20l90 264h20q34 0 73.5 -9.5t59.5 -22.5l-35 -406h-1024z" />
<glyph unicode="M" horiz-adv-x="1863" d="M-57 0l41 139l139 23l250 1073l-172 22l6 25q19 83 49 115h463l196 -977l539 977h473l-41 -140l-141 -22l-154 -1073l168 -23l-4 -24q-15 -79 -51 -115h-567l43 139l145 23l131 860h-16l-588 -1022l-125 -20l-199 1042h-16l-193 -860l177 -23l-7 -24q-19 -83 -49 -115 h-497z" />
<glyph unicode="N" horiz-adv-x="1517" d="M-25 0l43 139l134 23l208 1073l-170 22l7 25q19 83 49 115h422l419 -932h17l133 770l-195 22l7 25q19 83 49 115h522l-43 -140l-137 -22l-236 -1235l-160 -20l-520 1050h-16l-152 -868l193 -23l-2 -20q-6 -68 -53 -119h-519z" />
<glyph unicode="O" horiz-adv-x="1449" d="M92 578q0 187 59 346t160.5 266t237 167t287.5 60q126 0 229 -37.5t179 -110.5t117.5 -188t41.5 -262q0 -187 -59 -346t-160.5 -266t-237 -167t-287.5 -60q-126 0 -229 37.5t-179 110.5t-117.5 188t-41.5 262zM399 541q0 -196 85.5 -292.5t222.5 -96.5q50 0 100 8 q18 4 49 29t73.5 81.5t79 132.5t62 196t25.5 257q0 197 -86 293t-224 96q-44 0 -98 -8q-17 -4 -48 -29t-73.5 -81.5t-79.5 -132.5t-62.5 -196t-25.5 -257z" />
<glyph unicode="P" horiz-adv-x="1208" d="M-25 0l43 139l138 23l192 1073l-168 22l4 25q14 78 49 115h545q219 0 333 -94.5t114 -270.5q0 -202 -138 -323t-391 -144l-186 -16l-68 -387l172 -23l-4 -24q-14 -78 -49 -115h-586zM539 700l225 15q75 31 123.5 118.5t48.5 198.5q0 98 -48.5 154.5t-144.5 56.5h-108z " />
<glyph unicode="Q" horiz-adv-x="1400" d="M92 -2q0 95 31 166q29 23 80.5 37t105.5 14q111 0 252 -57q230 75 359 259t129 439q0 195 -88 293t-242 98q-32 0 -60 -4q-16 -2 -45.5 -24.5t-66 -68t-68.5 -104t-54 -142.5t-22 -173q0 -101 47 -153t119 -52q94 0 158 76q13 -16 25 -55.5t12 -69.5 q-46 -66 -122.5 -101.5t-166.5 -35.5q-155 0 -252.5 100t-97.5 289q0 142 56.5 271t149 219.5t215 144t251.5 53.5q249 0 403 -152t154 -419q0 -264 -163 -466.5t-439 -297.5v-10l444 -215q-14 -44 -40.5 -82.5t-53.5 -53.5l-645 244q-83 -14 -176 -14q-58 0 -113 13t-76 34 z" />
<glyph unicode="R" horiz-adv-x="1265" d="M-25 0l43 139l138 23l192 1073l-168 22l4 25q14 78 49 115h549q219 0 330 -96.5t111 -264.5q0 -137 -74 -244t-207 -149l252 -594q-33 -33 -93 -56.5t-106 -23.5l-352 606l-131 -18l-72 -395l156 -23l-6 -24q-18 -82 -49 -115h-566zM539 709l237 12q71 26 114.5 112.5 t43.5 198.5q0 104 -53 157.5t-142 53.5h-106z" />
<glyph unicode="S" horiz-adv-x="1087" d="M59 55l35 332q54 31 129 31h23l45 -228q75 -43 188 -43q67 0 133 17q28 8 54 57.5t26 106.5q0 55 -28.5 101.5t-74.5 82t-101.5 70t-111 72.5t-101.5 82t-74.5 107.5t-28.5 139.5t34.5 150.5t99.5 139t173 104.5t240 40q191 0 332 -43l-35 -340q-58 -33 -131 -33h-21 l-45 224q-77 24 -172 24q-57 0 -108 -14q-28 -6 -55 -57.5t-27 -106.5q0 -50 28.5 -93t74.5 -77t101 -68t110 -73.5t101 -86t74.5 -113.5t28.5 -148q0 -84 -36.5 -161.5t-103 -138t-168.5 -96.5t-223 -36q-222 0 -385 75z" />
<glyph unicode="T" horiz-adv-x="1210" d="M115 1055l51 342h864l285 20l-62 -362q-54 -31 -133 -31h-18l-31 221l-211 -6l-192 -1077l170 -23l-4 -24q-13 -73 -52 -115h-581l43 139l139 23l190 1065l-217 -4l-92 -199h-20q-79 0 -129 31z" />
<glyph unicode="U" horiz-adv-x="1445" d="M164 365q0 45 6 94l139 776l-137 22l4 25q15 79 51 115h559l-41 -140l-151 -22l-141 -797q-7 -47 -7 -76q0 -98 66.5 -142t202.5 -44q143 0 221 58.5t102 193.5l144 807l-187 22l6 25q19 81 50 115h477l-43 -140l-109 -22l-139 -786q-83 -469 -573 -469 q-243 0 -371.5 102.5t-128.5 282.5z" />
<glyph unicode="V" horiz-adv-x="1300" d="M100 1257l6 25q19 81 50 115h549l-43 -140l-144 -22l137 -864h17l440 864l-172 22l6 25q19 83 49 115h465l-43 -140l-86 -22l-676 -1235l-211 -20l-223 1255z" />
<glyph unicode="W" horiz-adv-x="2068" d="M119 1257l4 25q14 75 51 115h549l-41 -140l-152 -22l93 -866h18l408 866l-168 22l6 25q19 80 51 115h586l-43 -140l-133 -22l106 -866h16l394 866l-183 22l5 25q12 73 51 115h469l-43 -140l-86 -22l-619 -1233l-221 -22l-123 966h-18l-463 -944l-223 -22l-170 1255z" />
<glyph unicode="X" horiz-adv-x="1314" d="M-94 0l43 139l102 23l473 540l-274 533l-123 22l6 25q19 83 49 115h574l-43 -140l-133 -22l184 -393l313 393l-168 22l4 25q14 76 50 115h469l-41 -140l-86 -22l-459 -522l287 -551l120 -23l-4 -24q-14 -78 -49 -115h-586l43 139l146 23l-195 409l-332 -409l173 -23 l-5 -24q-15 -79 -51 -115h-487z" />
<glyph unicode="Y" horiz-adv-x="1120" d="M70 1257l6 25q18 82 49 115h551l-41 -140l-143 -22l141 -498h18l322 498l-172 22l6 25q19 83 49 115h447l-43 -140l-76 -22l-479 -668l-72 -405l168 -23l-4 -24q-14 -77 -52 -115h-579l43 139l137 23l74 405l-236 668z" />
<glyph unicode="Z" horiz-adv-x="1314" d="M16 0l21 119l864 1116h-440l-101 -274h-22q-84 0 -127 30l47 426l285 -20h760l-19 -119l-915 -1126l530 22l102 287h21q81 0 131 -31l-45 -430h-1092z" />
<glyph unicode="[" horiz-adv-x="677" d="M2 -291l299 1708h467l-49 -153l-193 -11l-243 -1380l211 -10l-50 -154h-442z" />
<glyph unicode="\" horiz-adv-x="745" d="M160 1456q31 23 82.5 35t97.5 12l281 -1562q-31 -24 -83.5 -35.5t-97.5 -11.5z" />
<glyph unicode="]" horiz-adv-x="677" d="M-94 -291l49 154l192 10l244 1380l-213 11l49 153h445l-299 -1708h-467z" />
<glyph unicode="^" horiz-adv-x="1017" d="M43 496l481 747h219l218 -747q-17 -12 -53.5 -20.5t-65.5 -8.5l-256 514l-422 -514q-31 0 -67.5 8.5t-53.5 20.5z" />
<glyph unicode="_" horiz-adv-x="1024" d="M-111 -109h1024v-221h-1024v221z" />
<glyph unicode="`" horiz-adv-x="1024" d="M342 1495h305l25 -354q-60 -29 -117 -29z" />
<glyph unicode="a" horiz-adv-x="1128" d="M63 340q0 154 40 284t106 215t149 132t170 47q130 0 224 -119l59 105q40 4 68 4q78 0 139 -21l-152 -790q106 0 178 16l13 -29q-59 -106 -128.5 -155t-156.5 -49q-133 0 -141 151h-13q-78 -86 -141.5 -118.5t-128.5 -32.5q-128 0 -206.5 97.5t-78.5 262.5zM336 346 q0 -94 35 -138t96 -44q76 0 156 80l104 557q-44 13 -105.5 24t-93.5 11q-28 0 -60.5 -36.5t-62 -98.5t-49.5 -156.5t-20 -198.5z" />
<glyph unicode="b" horiz-adv-x="1110" d="M92 25q30 173 221 1259l-37 27q-42 31 -65 84l12 65l383 35l-104 -596h10q65 62 123 90.5t123 28.5q127 0 208 -93t81 -270q0 -149 -38 -277t-101.5 -213t-147 -133t-174.5 -48q-80 0 -135.5 20.5t-108.5 73.5q-35 -50 -63 -86q-132 0 -187 33zM377 197q124 -37 201 -37 q45 5 91.5 75.5t76.5 182.5t30 227q0 100 -35.5 141t-101.5 41q-36 0 -80.5 -20.5t-85.5 -61.5z" />
<glyph unicode="c" horiz-adv-x="849" d="M63 362q0 182 70 332.5t191 237t266 86.5q129 0 229 -35q-1 -47 -14.5 -107.5t-30.5 -103.5q-46 0 -140.5 24.5t-121.5 24.5q-19 0 -47.5 -30.5t-58 -82t-50 -135t-20.5 -174.5q0 -217 180 -217q27 0 68.5 16t150.5 74l29 -71q-96 -118 -180.5 -169.5t-184.5 -51.5 q-157 0 -246.5 97.5t-89.5 284.5z" />
<glyph unicode="d" horiz-adv-x="1138" d="M63 340q0 154 40 284t105 215t148 132t170 47q66 0 120.5 -24.5t109.5 -88.5l67 381l-35 27q-55 44 -67 84l12 65l383 33l-235 -1298q108 0 180 16l12 -29q-61 -106 -130 -155t-155 -49q-133 0 -147 151h-10q-78 -88 -144.5 -119.5t-136.5 -31.5q-132 0 -209.5 99 t-77.5 261zM336 346q0 -95 34 -138.5t101 -43.5q85 0 162 80l102 557q-132 35 -207 35q-28 0 -60.5 -36.5t-62 -98t-49.5 -156.5t-20 -199z" />
<glyph unicode="e" horiz-adv-x="976" d="M63 367q0 179 66.5 328.5t183 236t256.5 86.5q166 0 254 -85.5t88 -240.5q0 -50 -18 -121l-553 -88q-6 -48 -6 -92q0 -106 55.5 -160.5t157.5 -54.5q28 0 78.5 18t181.5 82l29 -69q-190 -227 -398 -227q-170 0 -272.5 98.5t-102.5 288.5zM352 596l322 72q4 20 4 59 q0 73 -38.5 112.5t-109.5 39.5q-34 0 -50 -7t-31 -28q-67 -79 -97 -248z" />
<glyph unicode="f" horiz-adv-x="739" d="M-137 -311l35 178q58 -8 96 -8q46 0 76 10q21 6 30 47q8 35 21 140.5t26 185.5l95 596l-39 10q-42 10 -60.5 20t-27.5 25l18 104h137l6 37q33 201 155 331t292 130q81 0 139 -33l-33 -178q-74 8 -137 8q-75 0 -108 -10q-17 -6 -25 -35q-20 -66 -43 -250h236 q0 -98 -29 -161h-225l-111 -691q-35 -223 -144.5 -356t-260.5 -133q-75 0 -119 33z" />
<glyph unicode="g" horiz-adv-x="1005" d="M-57 -266q0 68 53.5 122.5t220.5 143.5v10q-59 50 -59 109q0 56 38 102.5t140 97.5q-104 27 -162.5 99.5t-58.5 185.5q0 188 119 301t303 113q83 0 157 -21h320l-21 -114q-48 -41 -141 -41l-2 -13q37 -53 37 -135q0 -176 -117.5 -285.5t-296.5 -109.5q-23 0 -39 2 q-61 -50 -61 -86q0 -22 16 -41l207 -24q158 -20 229.5 -76.5t71.5 -165.5q0 -103 -75 -185t-208.5 -128t-300.5 -46q-187 0 -278.5 48t-91.5 137zM168 -203q0 -88 248 -88q140 0 243 45q21 28 21 62q0 43 -34 66t-130 40l-207 33q-83 -58 -112 -92t-29 -66zM360 586 q0 -150 127 -150q33 0 45 4q11 4 28 23t36 52.5t32 91.5t13 126q0 75 -32.5 112.5t-92.5 37.5q-24 0 -45 -6q-12 -3 -29 -22t-36 -52.5t-32.5 -91.5t-13.5 -125z" />
<glyph unicode="h" horiz-adv-x="1208" d="M88 4l225 1282l-34 27q-56 45 -68 84l12 65l383 33l-108 -625h10q95 81 163.5 114.5t145.5 33.5q108 0 175 -55t67 -156q0 -35 -8 -66l-105 -544q98 0 180 16l13 -29q-111 -204 -285 -204q-71 0 -114 23.5t-72 72.5l133 694q-44 35 -115 35q-94 0 -213 -68l-129 -729 q-50 -18 -129 -18q-78 0 -127 14z" />
<glyph unicode="i" horiz-adv-x="643" d="M102 80l140 729l-35 27q-55 41 -68 84l13 65l385 33l-154 -821q94 0 176 16l12 -29q-62 -113 -132 -158.5t-152 -45.5q-73 0 -115 24.5t-70 75.5zM293 1307q0 70 48 111.5t122 41.5q62 0 96.5 -33.5t34.5 -91.5q0 -67 -47 -110t-121 -43q-65 0 -99 34.5t-34 90.5z" />
<glyph unicode="j" horiz-adv-x="604" d="M-96 -401l190 381l146 829l-35 27q-56 45 -68 84l10 65l388 33l-156 -873q-22 -122 -50.5 -190.5t-97.5 -147.5l-233 -258q-62 7 -94 50zM291 1307q0 71 47.5 112t122.5 41q62 0 96.5 -33.5t34.5 -91.5q0 -67 -47 -110t-123 -43q-64 0 -97.5 34.5t-33.5 90.5z" />
<glyph unicode="k" horiz-adv-x="1093" d="M88 4l225 1282l-34 27q-56 45 -68 84l12 65l383 33l-180 -1020h10q196 134 263 191t89 104q-48 78 -65 180v37q64 31 139 31q85 0 129.5 -41t44.5 -113q0 -82 -60 -151.5t-231 -171.5l109 -344q76 0 154 16l12 -29q-98 -204 -244 -204q-49 0 -81.5 16t-59.5 51l-107 363 l-125 -72l-59 -330q-50 -18 -129 -18q-75 0 -127 14z" />
<glyph unicode="l" horiz-adv-x="632" d="M94 80l228 1206l-35 27q-56 45 -68 84l12 65l385 33l-243 -1298q96 0 178 16l12 -29q-111 -204 -284 -204q-74 0 -116 24t-69 76z" />
<glyph unicode="m" horiz-adv-x="1746" d="M98 4l140 805l-33 27q-56 45 -68 84l13 65l362 33l-25 -160h13q105 93 170.5 126.5t148.5 33.5q90 0 148 -42.5t73 -123.5q109 97 175.5 131.5t148.5 34.5q104 0 168.5 -54.5t64.5 -156.5q0 -36 -6 -66l-104 -544q96 0 178 16l12 -29q-110 -204 -284 -204 q-70 0 -113 23.5t-72 72.5l131 694q-40 35 -106 35q-85 0 -197 -68l-129 -729q-53 -18 -131 -18q-75 0 -127 14l137 766q-40 35 -104 35q-90 0 -199 -68l-129 -729q-53 -18 -131 -18q-73 0 -125 14z" />
<glyph unicode="n" horiz-adv-x="1210" d="M98 4l140 805l-33 27q-56 45 -68 84l13 65l362 33l-25 -160h13q103 90 171.5 125t149.5 35q108 0 174 -55t66 -156q0 -29 -6 -66l-105 -544q96 0 178 16l13 -29q-108 -204 -283 -204q-71 0 -114 23.5t-72 72.5l131 694q-40 35 -113 35q-92 0 -207 -68l-129 -729 q-55 -18 -131 -18q-79 0 -125 14z" />
<glyph unicode="o" horiz-adv-x="1054" d="M63 410q0 171 64.5 309t186 218.5t278.5 80.5q193 0 296 -111t103 -315q0 -176 -65.5 -315t-186.5 -218t-276 -79q-195 0 -297.5 113.5t-102.5 316.5zM336 369q0 -121 43 -173.5t125 -52.5q32 0 59 9q16 5 40.5 38.5t51 90.5t45.5 150.5t19 199.5q0 119 -43 171t-125 52 q-35 0 -59 -8q-15 -5 -39.5 -38.5t-51.5 -89.5t-46 -149.5t-19 -199.5z" />
<glyph unicode="p" horiz-adv-x="1120" d="M23 -426l215 1235l-33 27q-52 42 -68 84l13 65l362 33l-23 -139h13q72 75 133.5 107t130.5 32q128 0 209.5 -93t81.5 -270q0 -151 -39 -279.5t-103 -214t-147 -133.5t-172 -48q-131 0 -234 90l-83 -494q-65 -18 -132 -18q-65 0 -124 16zM387 197q117 -37 201 -37 q45 0 91.5 71t76.5 185.5t30 228.5q0 101 -36 141.5t-105 40.5q-77 0 -162 -79z" />
<glyph unicode="q" horiz-adv-x="1097" d="M63 340q0 151 39 280.5t104 215.5t148 134t172 48q139 0 232 -119l59 105q36 4 66 4q80 0 141 -21l-250 -1411q-58 -18 -129 -18q-65 0 -127 16l92 528h-12q-67 -70 -123 -96t-125 -26q-134 0 -210.5 100t-76.5 260zM336 346q0 -94 33 -139t102 -45q85 0 164 82l98 557 q-120 35 -205 35q-28 0 -60.5 -36.5t-62 -98t-49.5 -156.5t-20 -199z" />
<glyph unicode="r" horiz-adv-x="796" d="M98 4l140 805l-33 27q-56 45 -68 84l13 65l362 33l-27 -180h11q104 114 151.5 147t100.5 33q42 0 67 -14l-18 -238q-127 -48 -320 -68l-123 -690q-53 -18 -131 -18q-79 0 -125 14z" />
<glyph unicode="s" horiz-adv-x="823" d="M47 27q0 39 11 99t26 101q124 -65 276 -65q24 0 48 4q13 2 25.5 26.5t12.5 57.5q0 31 -17.5 58t-46 49.5t-62.5 45.5t-68.5 50.5t-63 58.5t-46 76t-17.5 98q0 84 49 159t145.5 124t219.5 49q118 0 223 -31q0 -104 -39 -201q-49 21 -121.5 35.5t-128.5 14.5q-22 0 -37 -5 q-16 -5 -30.5 -30.5t-14.5 -57.5q0 -30 18 -56.5t46 -48.5t62.5 -44.5t69 -50.5t62.5 -60t46 -78.5t18 -101.5q0 -140 -113 -231.5t-283 -91.5q-160 0 -270 47z" />
<glyph unicode="t" horiz-adv-x="741" d="M131 188q0 34 6 68l101 578l-97 38l6 37q55 89 161.5 164t226.5 105h20l-31 -181h238q0 -99 -29 -161h-237l-101 -568q-4 -20 -4 -28q0 -56 84 -56q58 0 156 43l28 -71q-76 -88 -149 -132t-156 -44q-108 0 -165.5 54.5t-57.5 153.5z" />
<glyph unicode="u" horiz-adv-x="1200" d="M127 190q0 45 14 113l99 506l-35 27q-55 41 -68 84l13 65l385 33l-150 -791q43 -34 113 -34q83 0 200 63l129 733q58 19 134 19q69 0 124 -15l-141 -798q102 0 178 18l13 -29q-108 -204 -283 -204q-141 0 -156 149h-10q-105 -85 -173 -117t-146 -32q-108 0 -174 54 t-66 156z" />
<glyph unicode="v" horiz-adv-x="1019" d="M29 807q56 113 117 162t139 49q59 0 92 -27.5t53 -83.5l88 -614h12l252 512l-120 92l2 8q12 54 45 92h333v-75l-510 -922l-208 -20l-156 827q-42 0 -127 -29z" />
<glyph unicode="w" horiz-adv-x="1572" d="M49 807q56 114 115 162.5t137 48.5q60 0 92.5 -27t52.5 -84l62 -604h14l254 553l-12 121q97 31 254 31l76 -705h14l229 502l-120 92l2 8q14 56 47 92h323v-75l-487 -922l-195 -20l-80 641h-14l-307 -621l-195 -20l-123 827q-42 0 -127 -29z" />
<glyph unicode="x" horiz-adv-x="1060" d="M-4 0v76l389 413l-156 318q-51 0 -139 -29l-12 29q62 117 113 164t126 47q60 0 95.5 -24t64.5 -87l131 -289l160 195l-104 84l2 8q12 54 47 92h340v-75l-379 -410l160 -322q45 0 137 29l12 -29q-62 -117 -112.5 -163.5t-125.5 -46.5q-61 0 -97.5 27.5t-61.5 82.5 l-135 293l-170 -199l104 -84l-2 -8q-12 -54 -47 -92h-340z" />
<glyph unicode="y" horiz-adv-x="1032" d="M37 807q56 114 116.5 162.5t139.5 48.5q58 0 90.5 -27.5t52.5 -83.5l84 -674h12l261 572l-121 92l2 8q12 54 45 92h332v-75l-588 -1133l-49 -240q-62 0 -127 13t-107 37v49q13 51 51.5 114t169.5 238h-90l-135 807q-42 0 -127 -29z" />
<glyph unicode="z" horiz-adv-x="907" d="M-6 80l588 692h-449q0 121 39 246l182 -21h559v-98l-555 -627l433 -94q0 -45 -10 -105t-23 -93l-596 67l-66 -67q-32 12 -61 40.5t-41 59.5z" />
<glyph unicode="{" horiz-adv-x="667" d="M-4 -68q0 48 27.5 102.5t66.5 102t78 92.5t66.5 86.5t27.5 71.5q0 54 -42.5 75t-147.5 21l28 160q119 0 173.5 27t54.5 84q0 39 -29 103.5t-58.5 135.5t-29.5 127q0 155 130 236.5t374 81.5q0 -84 -37 -150l-189 -20q-32 -40 -32 -97q0 -61 54 -195.5t54 -199.5 q0 -86 -65 -138.5t-183 -66.5l-2 -16q185 -33 185 -178q0 -42 -27.5 -92.5t-67 -98t-78.5 -94.5t-66.5 -96t-27.5 -88q0 -32 7 -49l206 -21q-11 -87 -49 -149q-189 0 -295 63.5t-106 179.5z" />
<glyph unicode="|" horiz-adv-x="563" d="M162 -451v1946q52 14 121 14q65 0 120 -14v-1946q-55 -14 -120 -14q-69 0 -121 14z" />
<glyph unicode="}" horiz-adv-x="667" d="M-47 -311q0 87 35 149l188 21q33 42 33 96q0 61 -54.5 195.5t-54.5 199.5q0 86 65 138.5t183 66.5l2 16q-182 32 -182 179q0 42 27.5 92.5t66.5 98t78 94.5t66.5 96t27.5 88q0 29 -8 49l-207 20q11 89 49 150q189 0 295.5 -64t106.5 -180q0 -48 -27.5 -102.5t-67 -102 t-78.5 -92.5t-66.5 -86.5t-27.5 -71.5q0 -54 43 -75t148 -21l-29 -160q-119 0 -172 -26.5t-53 -83.5q0 -32 18 -79.5t39.5 -90.5t39.5 -98t18 -99q0 -155 -129 -236t-373 -81z" />
<glyph unicode="~" horiz-adv-x="1017" d="M39 373q63 107 107.5 171.5t82.5 98.5t67 44.5t69 10.5q43 0 111 -28t130 -56t92 -28q36 0 69.5 25t121.5 124l88 -47q-82 -139 -139.5 -210t-96 -92t-88.5 -21q-43 0 -112 28t-132.5 56t-93.5 28q-35 0 -72 -29t-120 -122z" />
<glyph unicode="&#xa1;" horiz-adv-x="630" d="M-12 -420l260 979h151l-86 -958q-133 -21 -325 -21zM207 840q0 79 48.5 128.5t129.5 49.5q64 0 100.5 -37t36.5 -94q0 -81 -50 -130.5t-130 -49.5q-61 0 -98 37t-37 96z" />
<glyph unicode="&#xa2;" d="M139 397q0 129 45.5 240t123.5 188.5t186.5 121.5t230.5 44h18l142 365q54 0 90 -31l-135 -342q87 -11 131 -22q-8 -114 -39 -199q-69 16 -169 29.5t-161 13.5q-22 0 -54 -26t-64.5 -71.5t-55 -119.5t-22.5 -158q0 -117 62.5 -176t174.5 -59q62 0 124.5 21.5t109.5 57.5 l10 -90q-121 -178 -365 -178q-37 0 -55 2l-137 -358q-60 0 -88 31l135 350q-110 39 -174 135t-64 231z" />
<glyph unicode="&#xa3;" d="M10 106q90 73 258 115q72 69 72 215q0 37 -2 66h-264q0 57 20 98h232l-25 158h-180q0 54 18 98h148q-4 62 -4 94q1 130 49.5 234t149.5 168.5t241 64.5q145 0 231 -66.5t86 -176.5q0 -85 -53 -143t-129 -66q-46 11 -72 37.5t-26 64.5q0 53 34 86.5t101 36.5 q-2 36 -52.5 66t-131.5 30q-51 0 -84 -10q-7 -2 -16.5 -11t-21 -29.5t-21.5 -48.5t-16.5 -73t-6.5 -98q0 -74 12 -160h311q0 -59 -20 -98h-277l23 -158h227q0 -59 -20 -98h-201v-8q0 -89 -33.5 -148.5t-124.5 -114.5l-2 -10l303 -24l68 170h23q30 0 64.5 -8t49.5 -19 l-43 -360l-672 59l-196 -59q-27 49 -27 126z" />
<glyph unicode="&#xa4;" horiz-adv-x="1112" d="M51 143l142 146q-76 109 -76 262q0 155 76 270l-142 146q52 84 129 127l150 -154q99 55 227 55q123 0 227 -55l150 154q77 -43 129 -127l-143 -146q77 -113 77 -262q0 -155 -75 -270l141 -146q-52 -84 -129 -127l-150 154q-94 -55 -229 -55q-131 0 -225 55l-150 -154 q-77 43 -129 127zM338 555q0 -130 60.5 -187t158.5 -57q102 0 160.5 59.5t58.5 184.5q0 57 -13 101t-33.5 70.5t-50 43t-59 23t-63.5 6.5q-44 0 -80.5 -11.5t-69 -37.5t-51 -76t-18.5 -119z" />
<glyph unicode="&#xa5;" d="M115 356q0 58 20 99h258l23 116l-15 41h-239q0 56 18 99h191l-170 524l-86 22l4 25q13 71 51 115h506l-43 -140l-135 -22l129 -492h12l315 492l-143 22l4 25q15 79 51 115h406l-43 -140l-80 -22l-367 -524h193q0 -55 -21 -99h-239l-29 -41l-20 -116h262q0 -55 -21 -99 h-260l-33 -194l162 -23l-4 -24q-15 -79 -51 -115h-569l41 139l149 23l35 194h-262z" />
<glyph unicode="&#xa6;" horiz-adv-x="563" d="M162 356q56 15 121 15q61 0 120 -15v-807q-55 -14 -120 -14q-69 0 -121 14v807zM162 688v807q52 14 121 14q65 0 120 -14v-807q-55 -14 -120 -14q-69 0 -121 14z" />
<glyph unicode="&#xa7;" horiz-adv-x="1118" d="M57 -96q0 84 55.5 139.5t133.5 65.5q44 -11 69 -37t25 -64q0 -53 -36.5 -85.5t-100.5 -35.5q3 -36 50 -68t122 -32q56 0 98 10q22 4 54 54.5t32 117.5q0 113 -89 196t-341 206q14 90 51 159l260 226q-63 61 -92 125.5t-29 148.5q0 76 30 146t83 123.5t133 85.5t174 32 q144 0 229 -69t85 -179q0 -84 -54.5 -139t-132.5 -65q-44 11 -69 37t-25 63q0 53 36 85.5t101 35.5q-3 36 -50 68t-122 32q-60 0 -98 -10q-23 -7 -54.5 -56t-31.5 -116q0 -113 89 -196t341 -206q-15 -82 -51 -159l-260 -226q63 -61 92 -125.5t29 -148.5q0 -76 -30 -146 t-83 -123.5t-133 -85.5t-174 -32q-146 0 -231 69t-85 179zM362 520q124 -65 220 -133l168 166q-116 59 -220 133z" />
<glyph unicode="&#xa8;" horiz-adv-x="1024" d="M195 1251q0 66 40.5 108t106.5 42q53 0 82 -33t29 -90q0 -65 -40.5 -107.5t-105.5 -42.5q-55 0 -83.5 34t-28.5 89zM571 1251q0 66 41.5 108t106.5 42q53 0 81.5 -33t28.5 -90q0 -66 -39.5 -108t-105.5 -42q-55 0 -84 34t-29 89z" />
<glyph unicode="&#xa9;" horiz-adv-x="1529" d="M80 594q0 179 61 332t167 259.5t254.5 167t318.5 60.5q187 0 329 -81t215.5 -219.5t73.5 -311.5q0 -239 -104.5 -427t-287 -291t-411.5 -103q-186 0 -327.5 81t-215 220t-73.5 313zM197 596q0 -144 58 -258.5t173.5 -183t269.5 -68.5q308 0 496 195.5t188 517.5 q0 144 -58.5 258t-174.5 182t-270 68q-307 0 -494.5 -194t-187.5 -517zM459 643q0 176 114.5 294t311.5 118q101 0 196 -25l-24 -205q-32 -16 -80 -16h-14l-21 133q-34 12 -108 12q-40 0 -54 -2q-42 -6 -90.5 -96.5t-48.5 -216.5q0 -94 43 -143.5t125 -49.5q38 0 80 11 l41 121h14q51 0 78 -17l-12 -170q-90 -49 -222 -49q-148 0 -238.5 83t-90.5 218z" />
<glyph unicode="&#xaa;" horiz-adv-x="753" d="M98 932q0 108 28.5 199.5t76 151t106.5 93t121 33.5q91 0 156 -82l45 78q98 0 153 -19l-106 -559q57 0 123 17l10 -27q-45 -73 -93 -107t-108 -34q-101 0 -112 100h-11q-53 -58 -96 -79t-88 -21q-90 0 -147.5 69t-57.5 187zM301 938q0 -119 88 -119q54 0 109 53l71 373 q-70 25 -131 25q-28 0 -59 -38.5t-54.5 -117.5t-23.5 -176z" />
<glyph unicode="&#xab;" horiz-adv-x="870" d="M23 489l6 35l366 377l121 -14l-215 -383l80 -383l-119 -17zM406 489l4 35l368 377l121 -14l-217 -383l84 -383l-121 -17z" />
<glyph unicode="&#xac;" horiz-adv-x="1024" d="M61 582v229h902v-612h-234v383h-668z" />
<glyph unicode="&#xad;" horiz-adv-x="571" d="M45 403l39 222h438l-39 -222h-438z" />
<glyph unicode="&#xae;" horiz-adv-x="825" d="M147 1006q0 182 113 296.5t289 114.5q141 0 226 -84.5t85 -222.5q0 -182 -113.5 -298t-289.5 -116q-142 0 -226 86.5t-84 223.5zM215 1006q0 -106 65 -176t179 -70q149 0 240.5 95.5t91.5 252.5q0 107 -64.5 176.5t-179.5 69.5q-149 0 -240.5 -95.5t-91.5 -252.5z M324 879l12 45l33 4l45 258l-37 4l2 10q4 22 14 35h156q55 0 84 -25.5t29 -68.5q0 -35 -18.5 -62t-53.5 -37l57 -147q-21 -21 -59 -21l-86 144l-33 -4l-14 -86l39 -4l-2 -11q-3 -18 -15 -34h-153zM479 1061l58 4q38 19 38 70t-49 51h-26z" />
<glyph unicode="&#xaf;" horiz-adv-x="1024" d="M248 1163l35 201h493l-35 -201h-493z" />
<glyph unicode="&#xb0;" horiz-adv-x="749" d="M135 1085q0 150 96.5 241t251.5 91q125 0 203 -72.5t78 -197.5q0 -151 -96.5 -242.5t-251.5 -91.5q-125 0 -203 73t-78 199zM305 1085q0 -62 35.5 -97.5t93.5 -35.5q75 0 117.5 50t42.5 145q0 62 -35.5 97.5t-93.5 35.5q-74 0 -117 -51t-43 -144z" />
<glyph unicode="&#xb1;" d="M137 0v203h838v-203h-838zM137 598v215h309v313h222v-313h307v-215h-307v-313h-222v313h-309z" />
<glyph unicode="&#xb2;" horiz-adv-x="813" d="M104 946l31 176q275 169 365 256t90 189q0 68 -40 107.5t-110 39.5q-88 0 -147 -59l-39 49q102 164 287 164q138 0 216.5 -71t78.5 -189q0 -128 -101 -229.5t-350 -229.5v-14q210 20 309 20q44 0 66 -21.5t22 -58.5q0 -57 -37 -129h-641z" />
<glyph unicode="&#xb3;" horiz-adv-x="813" d="M156 1049q228 31 312.5 68t84.5 110q0 57 -39.5 83.5t-128.5 26.5h-104l24 131h105q100 0 148 30t48 97q0 58 -35.5 89.5t-101.5 31.5q-94 0 -152 -61l-41 49q51 80 121.5 122t177.5 42q130 0 201.5 -64t71.5 -170q0 -82 -50 -137.5t-132 -73.5v-12q129 -51 129 -184 q0 -138 -155.5 -216t-465.5 -85q-18 47 -18 123z" />
<glyph unicode="&#xb4;" horiz-adv-x="1024" d="M272 1141l148 354h328l-357 -381q-63 0 -119 27z" />
<glyph unicode="&#xb6;" horiz-adv-x="1118" d="M80 -119q0 88 58 146.5t141 66.5q98 -20 98 -104q0 -50 -42.5 -82.5t-105.5 -34.5q2 -34 44 -58t106 -24q78 0 125 33q24 14 52.5 82t49.5 186l82 473l-162 10q-167 9 -257.5 98t-90.5 236q0 228 158 358t420 130h446l-43 -133l-143 -23l-189 -1073q-24 -137 -69 -237 t-106.5 -159.5t-133 -87.5t-156.5 -28q-127 0 -204.5 62t-77.5 163z" />
<glyph unicode="&#xb7;" horiz-adv-x="475" d="M76 473q0 88 51.5 140.5t136.5 52.5q63 0 101 -39.5t38 -102.5q0 -87 -51 -139.5t-137 -52.5q-66 0 -102.5 39.5t-36.5 101.5z" />
<glyph unicode="&#xb8;" horiz-adv-x="1024" d="M324 -354q92 8 136 27t44 55q0 55 -113 79l6 35l109 92h74l-23 -47q127 -55 127 -151q0 -86 -90.5 -136.5t-255.5 -50.5q-14 38 -14 97z" />
<glyph unicode="&#xb9;" horiz-adv-x="813" d="M147 946l35 119l217 14l111 623l-94 16q-60 9 -74 33l16 96h398l-135 -768l184 -14l-4 -16q-16 -72 -39 -103h-615z" />
<glyph unicode="&#xba;" horiz-adv-x="792" d="M129 981q0 183 110.5 306.5t282.5 123.5q137 0 221 -80.5t84 -220.5q0 -190 -112.5 -312t-280.5 -122q-144 0 -224.5 83.5t-80.5 221.5zM332 954q0 -155 131 -155q25 0 43 6q12 4 30 26.5t38.5 61t34.5 103.5t14 139q0 153 -131 153q-31 0 -43 -6q-11 -5 -29 -27 t-38.5 -60.5t-35 -102.5t-14.5 -138z" />
<glyph unicode="&#xbb;" horiz-adv-x="870" d="M-29 121l217 383l-82 383l119 16l240 -385l-4 -35l-369 -377zM354 121l215 383l-80 383l119 16l240 -385l-6 -35l-367 -377z" />
<glyph unicode="&#xbc;" horiz-adv-x="1994" d="M76 496l35 118l217 15l110 622l-94 17q-61 9 -74 32l17 97h397l-135 -768l184 -15l-4 -16q-16 -70 -39 -102h-614zM492 -86l854 1581q42 -2 89.5 -20.5t71.5 -44.5l-854 -1582q-40 2 -88.5 20.5t-72.5 45.5zM1167 176l35 195l389 551q37 0 87 -9t75 -22l-395 -555h239 l48 258h213l-43 -252h90l-4 -25q-13 -87 -50 -141h-67l-31 -176h-223l31 176h-394z" />
<glyph unicode="&#xbd;" horiz-adv-x="1994" d="M76 496l35 118l217 15l110 622l-94 17q-61 9 -74 32l17 97h397l-135 -768l184 -15l-4 -16q-16 -70 -39 -102h-614zM492 -86l854 1581q42 -2 89.5 -20.5t71.5 -44.5l-854 -1582q-40 2 -88.5 20.5t-72.5 45.5zM1151 0l31 176q275 169 364.5 256t89.5 189q0 68 -39.5 107.5 t-109.5 39.5q-89 0 -148 -59l-39 49q102 164 287 164q138 0 216.5 -71t78.5 -189q0 -129 -101 -230t-349 -229v-15q220 21 309 21q44 0 66 -21.5t22 -58.5q0 -57 -37 -129h-641z" />
<glyph unicode="&#xbe;" horiz-adv-x="1994" d="M84 598q228 31 312.5 68t84.5 110q0 57 -39.5 84t-128.5 27h-104l24 131h105q100 0 148.5 30.5t48.5 96.5q0 58 -36 89.5t-102 31.5q-92 0 -151 -62l-41 49q51 80 121.5 122t177.5 42q130 0 201 -63.5t71 -169.5q0 -82 -50 -137.5t-132 -73.5v-12q129 -51 129 -185 q0 -138 -155.5 -216t-465.5 -85q-18 47 -18 123zM492 -86l854 1581q42 -2 89.5 -20.5t71.5 -44.5l-854 -1582q-40 2 -88.5 20.5t-72.5 45.5zM1167 176l35 195l389 551q37 0 87 -9t75 -22l-395 -555h239l48 258h213l-43 -252h90l-4 -25q-13 -87 -50 -141h-67l-31 -176h-223 l31 176h-394z" />
<glyph unicode="&#xbf;" horiz-adv-x="921" d="M-23 -98q0 160 118.5 266.5t342.5 144.5l66 246h104l111 -203q-18 -65 -60 -104q-180 -30 -280 -105.5t-100 -187.5q0 -81 47 -132.5t135 -51.5q115 0 196 78l58 -54q-66 -109 -161.5 -164t-231.5 -55q-155 0 -250 90t-95 232zM436 840q0 79 48.5 128.5t129.5 49.5 q64 0 101 -37t37 -94q0 -81 -50.5 -130.5t-130.5 -49.5q-61 0 -98 36.5t-37 96.5z" />
<glyph unicode="&#xc0;" horiz-adv-x="1255" d="M-137 0l41 139l82 23l684 1235l225 20l225 -1255l123 -23l-4 -24q-15 -79 -51 -115h-551l43 139l151 23l-59 348l-403 -25l-168 -323l184 -23l-4 -24q-15 -79 -51 -115h-467zM446 637h306l-68 424h-18zM475 1720h299l76 -237q-59 -33 -127 -37z" />
<glyph unicode="&#xc1;" horiz-adv-x="1255" d="M-137 0l41 139l82 23l684 1235l225 20l225 -1255l123 -23l-4 -24q-15 -79 -51 -115h-551l43 139l151 23l-59 348l-403 -25l-168 -323l184 -23l-4 -24q-15 -79 -51 -115h-467zM446 637h306l-68 424h-18zM707 1485l151 235h316l-345 -274q-79 4 -122 39z" />
<glyph unicode="&#xc2;" horiz-adv-x="1255" d="M-137 0l41 139l82 23l684 1235l225 20l225 -1255l123 -23l-4 -24q-15 -79 -51 -115h-551l43 139l151 23l-59 348l-403 -25l-168 -323l184 -23l-4 -24q-15 -79 -51 -115h-467zM446 637h306l-68 424h-18zM502 1491l239 231h185l159 -233q-40 -40 -84 -43l-194 123 l-225 -123q-22 3 -45.5 15t-34.5 30z" />
<glyph unicode="&#xc3;" horiz-adv-x="1255" d="M-137 0l41 139l82 23l684 1235l225 20l225 -1255l123 -23l-4 -24q-15 -79 -51 -115h-551l43 139l151 23l-59 348l-403 -25l-168 -323l184 -23l-4 -24q-15 -79 -51 -115h-467zM428 1483q64 109 105.5 161.5t71.5 68.5t73 16q42 0 140.5 -45.5t121.5 -45.5q28 0 51 18.5 t88 92.5l72 -43q-90 -152 -141 -201t-109 -49q-43 0 -143 45t-123 45q-28 0 -51 -18.5t-84 -89.5zM446 637h306l-68 424h-18z" />
<glyph unicode="&#xc4;" horiz-adv-x="1255" d="M-137 0l41 139l82 23l684 1235l225 20l225 -1255l123 -23l-4 -24q-15 -79 -51 -115h-551l43 139l151 23l-59 348l-403 -25l-168 -323l184 -23l-4 -24q-15 -79 -51 -115h-467zM446 637h306l-68 424h-18zM496 1559q0 58 37.5 93.5t97.5 35.5q46 0 73 -29t27 -74 q0 -56 -37 -92.5t-98 -36.5q-47 0 -73.5 29.5t-26.5 73.5zM856 1559q0 58 37.5 93.5t97.5 35.5q46 0 72.5 -29t26.5 -74q0 -56 -36.5 -92.5t-97.5 -36.5q-49 0 -74.5 29.5t-25.5 73.5z" />
<glyph unicode="&#xc5;" horiz-adv-x="1255" d="M-137 0l41 139l82 23l676 1218q-103 39 -103 148q0 95 74.5 151t193.5 56q101 0 156 -43.5t55 -120.5q0 -67 -36.5 -115t-100.5 -72l219 -1222l123 -23l-4 -24q-15 -79 -51 -115h-551l43 139l151 23l-59 348l-403 -25l-168 -323l184 -23l-4 -24q-15 -79 -51 -115h-467z M446 637h306l-68 424h-18zM692 1536q0 -36 26 -54t66 -18q121 0 121 101q0 34 -25.5 52.5t-66.5 18.5q-121 0 -121 -100z" />
<glyph unicode="&#xc6;" horiz-adv-x="1880" d="M-137 0l41 139l121 23l561 1073l-158 22l2 21q15 80 51 119h1106l260 20l-35 -393q-54 -31 -131 -31h-20l-51 242h-346l-80 -449h430q0 -103 -31 -174l-174 15h-252l-86 -475l408 20l92 242h20q76 0 129 -33l-32 -381h-1078l43 139l140 23l81 465h-397l-233 -465l170 -23 l-4 -24q-14 -77 -52 -115h-495zM557 786h346l80 449h-201z" />
<glyph unicode="&#xc7;" horiz-adv-x="1271" d="M92 588q0 175 54.5 326.5t153 263t246.5 175.5t326 64q79 0 183 -13.5t184 -35.5l-41 -395q-50 -33 -131 -33h-20l-46 270q-106 29 -217 29q-65 0 -112 -8q-23 -4 -56 -34t-71 -88t-70.5 -133t-54 -181.5t-21.5 -219.5q0 -206 88.5 -309.5t247.5 -103.5q94 0 154 22 l84 252h20q83 0 131 -30l-24 -328q-80 -46 -191 -72t-217 -26q-281 0 -440.5 166.5t-159.5 441.5zM428 -354q92 8 136 27t44 55q0 55 -112 79l6 35l108 92h74l-22 -47q126 -55 126 -151q0 -86 -90.5 -136.5t-255.5 -50.5q-14 38 -14 97z" />
<glyph unicode="&#xc8;" horiz-adv-x="1249" d="M-25 0l43 139l138 23l192 1073l-168 22l4 25q14 78 49 115h723l261 20l-35 -393q-57 -31 -133 -31h-19l-51 242h-346l-80 -449h430q0 -92 -31 -174l-174 15h-254l-84 -475l408 20l90 242h23q76 0 129 -33l-33 -381h-1082zM453 1720h299l75 -237q-59 -33 -127 -37z" />
<glyph unicode="&#xc9;" horiz-adv-x="1249" d="M-25 0l43 139l138 23l192 1073l-168 22l4 25q14 78 49 115h723l261 20l-35 -393q-57 -31 -133 -31h-19l-51 242h-346l-80 -449h430q0 -92 -31 -174l-174 15h-254l-84 -475l408 20l90 242h23q76 0 129 -33l-33 -381h-1082zM598 1485l152 235h315l-344 -274q-80 4 -123 39z " />
<glyph unicode="&#xca;" horiz-adv-x="1249" d="M-25 0l43 139l138 23l192 1073l-168 22l4 25q14 78 49 115h723l261 20l-35 -393q-57 -31 -133 -31h-19l-51 242h-346l-80 -449h430q0 -92 -31 -174l-174 15h-254l-84 -475l408 20l90 242h23q76 0 129 -33l-33 -381h-1082zM442 1491l240 231h184l160 -233q-40 -40 -84 -43 l-194 123l-226 -123q-22 3 -45.5 15t-34.5 30z" />
<glyph unicode="&#xcb;" horiz-adv-x="1249" d="M-25 0l43 139l138 23l192 1073l-168 22l4 25q14 78 49 115h723l261 20l-35 -393q-57 -31 -133 -31h-19l-51 242h-346l-80 -449h430q0 -92 -31 -174l-174 15h-254l-84 -475l408 20l90 242h23q76 0 129 -33l-33 -381h-1082zM430 1559q0 58 37.5 93.5t97.5 35.5 q46 0 73.5 -29t27.5 -74q0 -56 -37.5 -92.5t-98.5 -36.5q-47 0 -73.5 29.5t-26.5 73.5zM791 1559q0 58 37.5 93.5t97.5 35.5q46 0 72 -28.5t26 -74.5q0 -57 -36 -93t-97 -36q-49 0 -74.5 29.5t-25.5 73.5z" />
<glyph unicode="&#xcc;" horiz-adv-x="737" d="M-25 0l43 139l138 23l192 1073l-168 22l4 25q14 78 49 115h584l-43 -140l-141 -22l-191 -1073l168 -23l-4 -24q-14 -78 -49 -115h-582zM256 1720h299l76 -237q-59 -33 -127 -37z" />
<glyph unicode="&#xcd;" horiz-adv-x="737" d="M-25 0l43 139l138 23l192 1073l-168 22l4 25q14 78 49 115h584l-43 -140l-141 -22l-191 -1073l168 -23l-4 -24q-14 -78 -49 -115h-582zM408 1485l151 235h315l-344 -274q-79 4 -122 39z" />
<glyph unicode="&#xce;" horiz-adv-x="737" d="M-25 0l43 139l138 23l192 1073l-168 22l4 25q14 78 49 115h584l-43 -140l-141 -22l-191 -1073l168 -23l-4 -24q-14 -78 -49 -115h-582zM242 1491l239 231h185l159 -233q-40 -40 -84 -43l-194 123l-225 -123q-22 3 -45.5 15t-34.5 30z" />
<glyph unicode="&#xcf;" horiz-adv-x="737" d="M-25 0l43 139l138 23l192 1073l-168 22l4 25q14 78 49 115h584l-43 -140l-141 -22l-191 -1073l168 -23l-4 -24q-14 -78 -49 -115h-582zM264 1559q0 58 34.5 93.5t88.5 35.5q42 0 67 -29t25 -74q0 -56 -34 -92.5t-89 -36.5q-43 0 -67.5 30t-24.5 73zM592 1559 q0 58 33.5 93.5t89.5 35.5q42 0 65 -28.5t23 -74.5q0 -56 -33 -92.5t-88 -36.5q-44 0 -67 29.5t-23 73.5z" />
<glyph unicode="&#xd0;" horiz-adv-x="1458" d="M-25 0l43 139l138 23l82 461h-117q0 85 31 170h116l80 442l-168 22l4 25q14 78 49 115h570q136 0 246 -35t191 -105t125 -181.5t44 -258.5q0 -236 -108 -423.5t-294 -290.5t-415 -103h-617zM442 170l217 -18q69 7 135 44.5t121 102.5t97.5 148.5t66 189t23.5 217.5 q0 105 -26.5 181t-74.5 119t-107.5 63t-133.5 20h-127l-80 -444h154q0 -91 -33 -170h-152z" />
<glyph unicode="&#xd1;" horiz-adv-x="1517" d="M-25 0l43 139l134 23l208 1073l-170 22l7 25q19 83 49 115h422l419 -932h17l133 770l-195 22l7 25q19 83 49 115h522l-43 -140l-137 -22l-236 -1235l-160 -20l-520 1050h-16l-152 -868l193 -23l-2 -20q-6 -68 -53 -119h-519zM563 1483q64 109 105.5 161.5t71.5 68.5 t73 16q42 0 140.5 -45.5t121.5 -45.5q28 0 51 18.5t88 92.5l72 -43q-90 -152 -141 -201t-109 -49q-43 0 -143 45t-123 45q-28 0 -51 -18.5t-84 -89.5z" />
<glyph unicode="&#xd2;" horiz-adv-x="1449" d="M92 578q0 187 59 346t160.5 266t237 167t287.5 60q126 0 229 -37.5t179 -110.5t117.5 -188t41.5 -262q0 -187 -59 -346t-160.5 -266t-237 -167t-287.5 -60q-126 0 -229 37.5t-179 110.5t-117.5 188t-41.5 262zM399 541q0 -196 85.5 -292.5t222.5 -96.5q50 0 100 8 q18 4 49 29t73.5 81.5t79 132.5t62 196t25.5 257q0 197 -86 293t-224 96q-44 0 -98 -8q-17 -4 -48 -29t-73.5 -81.5t-79.5 -132.5t-62.5 -196t-25.5 -257zM555 1720h299l76 -237q-59 -33 -127 -37z" />
<glyph unicode="&#xd3;" horiz-adv-x="1449" d="M92 578q0 187 59 346t160.5 266t237 167t287.5 60q126 0 229 -37.5t179 -110.5t117.5 -188t41.5 -262q0 -187 -59 -346t-160.5 -266t-237 -167t-287.5 -60q-126 0 -229 37.5t-179 110.5t-117.5 188t-41.5 262zM399 541q0 -196 85.5 -292.5t222.5 -96.5q50 0 100 8 q18 4 49 29t73.5 81.5t79 132.5t62 196t25.5 257q0 197 -86 293t-224 96q-44 0 -98 -8q-17 -4 -48 -29t-73.5 -81.5t-79.5 -132.5t-62.5 -196t-25.5 -257zM752 1485l151 235h316l-345 -274q-79 4 -122 39z" />
<glyph unicode="&#xd4;" horiz-adv-x="1449" d="M92 578q0 187 59 346t160.5 266t237 167t287.5 60q126 0 229 -37.5t179 -110.5t117.5 -188t41.5 -262q0 -187 -59 -346t-160.5 -266t-237 -167t-287.5 -60q-126 0 -229 37.5t-179 110.5t-117.5 188t-41.5 262zM399 541q0 -196 85.5 -292.5t222.5 -96.5q50 0 100 8 q18 4 49 29t73.5 81.5t79 132.5t62 196t25.5 257q0 197 -86 293t-224 96q-44 0 -98 -8q-17 -4 -48 -29t-73.5 -81.5t-79.5 -132.5t-62.5 -196t-25.5 -257zM555 1491l240 231h184l160 -233q-40 -40 -84 -43l-195 123l-225 -123q-22 3 -45.5 15t-34.5 30z" />
<glyph unicode="&#xd5;" horiz-adv-x="1449" d="M92 578q0 187 59 346t160.5 266t237 167t287.5 60q126 0 229 -37.5t179 -110.5t117.5 -188t41.5 -262q0 -187 -59 -346t-160.5 -266t-237 -167t-287.5 -60q-126 0 -229 37.5t-179 110.5t-117.5 188t-41.5 262zM399 541q0 -196 85.5 -292.5t222.5 -96.5q50 0 100 8 q18 4 49 29t73.5 81.5t79 132.5t62 196t25.5 257q0 197 -86 293t-224 96q-44 0 -98 -8q-17 -4 -48 -29t-73.5 -81.5t-79.5 -132.5t-62.5 -196t-25.5 -257zM492 1483q65 110 105.5 162t70.5 68t73 16q42 0 141 -45.5t122 -45.5q28 0 51 18.5t88 92.5l71 -43 q-91 -153 -141 -201.5t-108 -48.5q-43 0 -143.5 45t-123.5 45q-28 0 -51 -18.5t-84 -89.5z" />
<glyph unicode="&#xd6;" horiz-adv-x="1449" d="M92 578q0 187 59 346t160.5 266t237 167t287.5 60q126 0 229 -37.5t179 -110.5t117.5 -188t41.5 -262q0 -187 -59 -346t-160.5 -266t-237 -167t-287.5 -60q-126 0 -229 37.5t-179 110.5t-117.5 188t-41.5 262zM399 541q0 -196 85.5 -292.5t222.5 -96.5q50 0 100 8 q18 4 49 29t73.5 81.5t79 132.5t62 196t25.5 257q0 197 -86 293t-224 96q-44 0 -98 -8q-17 -4 -48 -29t-73.5 -81.5t-79.5 -132.5t-62.5 -196t-25.5 -257zM553 1559q0 58 37.5 93.5t97.5 35.5q46 0 73 -29t27 -74q0 -56 -37 -92.5t-98 -36.5q-47 0 -73.5 29.5t-26.5 73.5z M913 1559q0 58 38 93.5t98 35.5q46 0 72 -28.5t26 -74.5q0 -57 -36.5 -93t-96.5 -36q-49 0 -75 29.5t-26 73.5z" />
<glyph unicode="&#xd7;" d="M162 240l266 266l-266 266l151 152l267 -267l268 267l151 -152l-266 -266l266 -266l-151 -154l-268 268l-267 -268z" />
<glyph unicode="&#xd8;" horiz-adv-x="1449" d="M68 -102l180 233q-156 156 -156 447q0 187 59 346t160.5 266t237 167t287.5 60q197 0 342 -94l174 223q23 -2 45.5 -15.5t29.5 -31.5l-182 -233q158 -155 158 -447q0 -187 -59 -346t-160.5 -266t-237 -167t-287.5 -60q-205 0 -342 94l-174 -224q-22 2 -45 16t-30 32z M399 541q0 -105 25 -185l602 772q-83 117 -240 117q-44 0 -98 -8q-17 -4 -48 -29t-73.5 -81.5t-79.5 -132.5t-62.5 -196t-25.5 -257zM469 268q78 -116 238 -116q50 0 100 8q18 4 49 29t73.5 81.5t79 132.5t62 196t25.5 257q0 96 -27 182z" />
<glyph unicode="&#xd9;" horiz-adv-x="1445" d="M164 365q0 45 6 94l139 776l-137 22l4 25q15 79 51 115h559l-41 -140l-151 -22l-141 -797q-7 -47 -7 -76q0 -98 66.5 -142t202.5 -44q143 0 221 58.5t102 193.5l144 807l-187 22l6 25q19 81 50 115h477l-43 -140l-109 -22l-139 -786q-83 -469 -573 -469 q-243 0 -371.5 102.5t-128.5 282.5zM610 1720h299l76 -237q-59 -33 -127 -37z" />
<glyph unicode="&#xda;" horiz-adv-x="1445" d="M164 365q0 45 6 94l139 776l-137 22l4 25q15 79 51 115h559l-41 -140l-151 -22l-141 -797q-7 -47 -7 -76q0 -98 66.5 -142t202.5 -44q143 0 221 58.5t102 193.5l144 807l-187 22l6 25q19 81 50 115h477l-43 -140l-109 -22l-139 -786q-83 -469 -573 -469 q-243 0 -371.5 102.5t-128.5 282.5zM799 1485l151 235h316l-344 -274q-80 4 -123 39z" />
<glyph unicode="&#xdb;" horiz-adv-x="1445" d="M164 365q0 45 6 94l139 776l-137 22l4 25q15 79 51 115h559l-41 -140l-151 -22l-141 -797q-7 -47 -7 -76q0 -98 66.5 -142t202.5 -44q143 0 221 58.5t102 193.5l144 807l-187 22l6 25q19 81 50 115h477l-43 -140l-109 -22l-139 -786q-83 -469 -573 -469 q-243 0 -371.5 102.5t-128.5 282.5zM618 1491l240 231h184l160 -233q-40 -40 -84 -43l-194 123l-226 -123q-22 3 -45.5 15t-34.5 30z" />
<glyph unicode="&#xdc;" horiz-adv-x="1445" d="M164 365q0 45 6 94l139 776l-137 22l4 25q15 79 51 115h559l-41 -140l-151 -22l-141 -797q-7 -47 -7 -76q0 -98 66.5 -142t202.5 -44q143 0 221 58.5t102 193.5l144 807l-187 22l6 25q19 81 50 115h477l-43 -140l-109 -22l-139 -786q-83 -469 -573 -469 q-243 0 -371.5 102.5t-128.5 282.5zM604 1559q0 58 37.5 93.5t97.5 35.5q46 0 73.5 -29t27.5 -74q0 -56 -37 -92.5t-98 -36.5q-47 0 -74 29.5t-27 73.5zM965 1559q0 58 37.5 93.5t97.5 35.5q46 0 72 -28.5t26 -74.5q0 -57 -36 -93t-97 -36q-49 0 -74.5 29.5t-25.5 73.5z" />
<glyph unicode="&#xdd;" horiz-adv-x="1120" d="M70 1257l6 25q18 82 49 115h551l-41 -140l-143 -22l141 -498h18l322 498l-172 22l6 25q19 83 49 115h447l-43 -140l-76 -22l-479 -668l-72 -405l168 -23l-4 -24q-14 -77 -52 -115h-579l43 139l137 23l74 405l-236 668zM645 1485l152 235h315l-344 -274q-80 4 -123 39z " />
<glyph unicode="&#xde;" horiz-adv-x="1208" d="M-25 0l43 139l140 23l190 1073l-168 22l4 25q14 77 52 115h426l-48 -269h111q219 0 331.5 -94t112.5 -270q0 -201 -135.5 -320t-390.5 -145l-180 -18l-51 -281h-437zM492 434l219 12q74 31 123 119.5t49 198.5q0 99 -48 155t-145 56h-102z" />
<glyph unicode="&#xdf;" horiz-adv-x="1148" d="M29 -303l202 1151q-31 14 -55 42.5t-31 63.5l115 60l2 12q37 213 179.5 341t346.5 128q161 0 254 -67t93 -183q0 -56 -19.5 -103t-53.5 -82.5t-69 -64.5t-78.5 -64.5t-70.5 -66.5q-15 -44 -15 -73q0 -47 21.5 -97.5t52.5 -97t62.5 -95.5t53 -108.5t21.5 -118.5 q0 -129 -106.5 -211.5t-255.5 -82.5q-126 0 -219 40q0 42 11 100t28 95q109 -53 252 -53q10 0 23 26.5t13 57.5q0 36 -20 76t-48.5 78.5t-57 80.5t-48.5 97t-20 112q0 53 23 103.5t58 88.5t75.5 78t75.5 72.5t58 71.5t23 76q0 120 -176 120q-80 0 -145 -26q-21 -12 -35 -68 q-9 -39 -27.5 -153.5t-27.5 -167.5l-215 -1219q-36 -8 -86 -8q-96 0 -164 39z" />
<glyph unicode="&#xe0;" horiz-adv-x="1128" d="M63 340q0 154 40 284t106 215t149 132t170 47q130 0 224 -119l59 105q40 4 68 4q78 0 139 -21l-152 -790q106 0 178 16l13 -29q-59 -106 -128.5 -155t-156.5 -49q-133 0 -141 151h-13q-78 -86 -141.5 -118.5t-128.5 -32.5q-128 0 -206.5 97.5t-78.5 262.5zM336 346 q0 -94 35 -138t96 -44q76 0 156 80l104 557q-44 13 -105.5 24t-93.5 11q-28 0 -60.5 -36.5t-62 -98.5t-49.5 -156.5t-20 -198.5zM367 1495h305l24 -354q-60 -29 -116 -29z" />
<glyph unicode="&#xe1;" horiz-adv-x="1128" d="M63 340q0 154 40 284t106 215t149 132t170 47q130 0 224 -119l59 105q40 4 68 4q78 0 139 -21l-152 -790q106 0 178 16l13 -29q-59 -106 -128.5 -155t-156.5 -49q-133 0 -141 151h-13q-78 -86 -141.5 -118.5t-128.5 -32.5q-128 0 -206.5 97.5t-78.5 262.5zM336 346 q0 -94 35 -138t96 -44q76 0 156 80l104 557q-44 13 -105.5 24t-93.5 11q-28 0 -60.5 -36.5t-62 -98.5t-49.5 -156.5t-20 -198.5zM528 1141l148 354h328l-357 -381q-63 0 -119 27z" />
<glyph unicode="&#xe2;" horiz-adv-x="1128" d="M63 340q0 154 40 284t106 215t149 132t170 47q130 0 224 -119l59 105q40 4 68 4q78 0 139 -21l-152 -790q106 0 178 16l13 -29q-59 -106 -128.5 -155t-156.5 -49q-133 0 -141 151h-13q-78 -86 -141.5 -118.5t-128.5 -32.5q-128 0 -206.5 97.5t-78.5 262.5zM332 1155 l272 340h184l152 -340q-44 -35 -96 -35l-182 187l-234 -187q-52 0 -96 35zM336 346q0 -94 35 -138t96 -44q76 0 156 80l104 557q-44 13 -105.5 24t-93.5 11q-28 0 -60.5 -36.5t-62 -98.5t-49.5 -156.5t-20 -198.5z" />
<glyph unicode="&#xe3;" horiz-adv-x="1128" d="M63 340q0 154 40 284t106 215t149 132t170 47q130 0 224 -119l59 105q40 4 68 4q78 0 139 -21l-152 -790q106 0 178 16l13 -29q-59 -106 -128.5 -155t-156.5 -49q-133 0 -141 151h-13q-78 -86 -141.5 -118.5t-128.5 -32.5q-128 0 -206.5 97.5t-78.5 262.5zM285 1155 q60 110 103 166t75.5 73t79.5 17q40 0 137 -46t123 -46q27 0 50.5 19.5t86.5 93.5l80 -43q-90 -154 -142 -206.5t-114 -52.5q-43 0 -141 46.5t-121 46.5q-29 0 -54 -19.5t-86 -91.5zM336 346q0 -94 35 -138t96 -44q76 0 156 80l104 557q-44 13 -105.5 24t-93.5 11 q-28 0 -60.5 -36.5t-62 -98.5t-49.5 -156.5t-20 -198.5z" />
<glyph unicode="&#xe4;" horiz-adv-x="1128" d="M63 340q0 154 40 284t106 215t149 132t170 47q130 0 224 -119l59 105q40 4 68 4q78 0 139 -21l-152 -790q106 0 178 16l13 -29q-59 -106 -128.5 -155t-156.5 -49q-133 0 -141 151h-13q-78 -86 -141.5 -118.5t-128.5 -32.5q-128 0 -206.5 97.5t-78.5 262.5zM336 346 q0 -94 35 -138t96 -44q76 0 156 80l104 557q-44 13 -105.5 24t-93.5 11q-28 0 -60.5 -36.5t-62 -98.5t-49.5 -156.5t-20 -198.5zM340 1251q0 66 40.5 108t106.5 42q53 0 82 -33t29 -90q0 -65 -40 -107.5t-105 -42.5q-55 0 -84 34t-29 89zM717 1251q0 66 41 108t106 42 q53 0 82 -33t29 -90q0 -66 -40 -108t-106 -42q-55 0 -83.5 34t-28.5 89z" />
<glyph unicode="&#xe5;" horiz-adv-x="1128" d="M63 340q0 154 40 284t106 215t149 132t170 47q130 0 224 -119l59 105q40 4 68 4q78 0 139 -21l-152 -790q106 0 178 16l13 -29q-59 -106 -128.5 -155t-156.5 -49q-133 0 -141 151h-13q-78 -86 -141.5 -118.5t-128.5 -32.5q-128 0 -206.5 97.5t-78.5 262.5zM336 346 q0 -94 35 -138t96 -44q76 0 156 80l104 557q-44 13 -105.5 24t-93.5 11q-28 0 -60.5 -36.5t-62 -98.5t-49.5 -156.5t-20 -198.5zM416 1294q0 101 71.5 161.5t188.5 60.5q96 0 148.5 -48.5t52.5 -132.5q0 -102 -72.5 -161.5t-188.5 -59.5q-94 0 -147 47.5t-53 132.5z M541 1303q0 -40 24.5 -63t65.5 -23q56 0 88.5 28t32.5 82q0 40 -24 63t-66 23q-56 0 -88.5 -28t-32.5 -82z" />
<glyph unicode="&#xe6;" horiz-adv-x="1460" d="M18 211q0 123 81 195.5t249 103.5l234 43q13 58 38.5 123.5t51.5 101.5l-8 13q-33 -8 -184 -20.5t-171 -12.5q-66 0 -94.5 25t-28.5 79q0 68 45 135h560q25 -32 30 -63q109 84 236 84q163 0 250.5 -85.5t87.5 -240.5q0 -46 -19 -117l-555 -102q-4 -36 -4 -82 q0 -106 56 -160.5t157 -54.5q28 0 78.5 18t181.5 82l29 -69q-101 -121 -197.5 -174t-199.5 -53q-193 0 -285 118q-138 -73 -211 -95.5t-150 -22.5q-122 0 -190 58.5t-68 172.5zM274 252q0 -54 30.5 -84.5t90.5 -30.5q73 0 193 43q-31 76 -31 170q0 20 4 78l-242 -47 q-45 -57 -45 -129zM836 596l321 61q4 23 4 70q0 73 -38 112.5t-109 39.5q-34 0 -50.5 -7t-31.5 -28q-69 -82 -96 -248z" />
<glyph unicode="&#xe7;" horiz-adv-x="849" d="M63 362q0 182 70 332.5t191 237t266 86.5q129 0 229 -35q-1 -47 -14.5 -107.5t-30.5 -103.5q-46 0 -140.5 24.5t-121.5 24.5q-19 0 -47.5 -30.5t-58 -82t-50 -135t-20.5 -174.5q0 -217 180 -217q27 0 68.5 16t150.5 74l29 -71q-96 -118 -180.5 -169.5t-184.5 -51.5 q-157 0 -246.5 97.5t-89.5 284.5zM143 -354q92 8 136.5 27t44.5 55q0 55 -113 79l6 35l109 92h73l-22 -47q127 -55 127 -151q0 -86 -90.5 -136.5t-255.5 -50.5q-15 41 -15 97z" />
<glyph unicode="&#xe8;" horiz-adv-x="976" d="M63 367q0 179 66.5 328.5t183 236t256.5 86.5q166 0 254 -85.5t88 -240.5q0 -50 -18 -121l-553 -88q-6 -48 -6 -92q0 -106 55.5 -160.5t157.5 -54.5q28 0 78.5 18t181.5 82l29 -69q-190 -227 -398 -227q-170 0 -272.5 98.5t-102.5 288.5zM315 1495h306l24 -354 q-60 -29 -117 -29zM352 596l322 72q4 20 4 59q0 73 -38.5 112.5t-109.5 39.5q-34 0 -50 -7t-31 -28q-67 -79 -97 -248z" />
<glyph unicode="&#xe9;" horiz-adv-x="976" d="M63 367q0 179 66.5 328.5t183 236t256.5 86.5q166 0 254 -85.5t88 -240.5q0 -50 -18 -121l-553 -88q-6 -48 -6 -92q0 -106 55.5 -160.5t157.5 -54.5q28 0 78.5 18t181.5 82l29 -69q-190 -227 -398 -227q-170 0 -272.5 98.5t-102.5 288.5zM352 596l322 72q4 20 4 59 q0 73 -38.5 112.5t-109.5 39.5q-34 0 -50 -7t-31 -28q-67 -79 -97 -248zM492 1141l147 354h328l-357 -381q-62 0 -118 27z" />
<glyph unicode="&#xea;" horiz-adv-x="976" d="M63 367q0 179 66.5 328.5t183 236t256.5 86.5q166 0 254 -85.5t88 -240.5q0 -50 -18 -121l-553 -88q-6 -48 -6 -92q0 -106 55.5 -160.5t157.5 -54.5q28 0 78.5 18t181.5 82l29 -69q-190 -227 -398 -227q-170 0 -272.5 98.5t-102.5 288.5zM270 1155l273 340h184l152 -340 q-44 -35 -97 -35l-182 187l-233 -187q-53 0 -97 35zM352 596l322 72q4 20 4 59q0 73 -38.5 112.5t-109.5 39.5q-34 0 -50 -7t-31 -28q-67 -79 -97 -248z" />
<glyph unicode="&#xeb;" horiz-adv-x="976" d="M63 367q0 179 66.5 328.5t183 236t256.5 86.5q166 0 254 -85.5t88 -240.5q0 -50 -18 -121l-553 -88q-6 -48 -6 -92q0 -106 55.5 -160.5t157.5 -54.5q28 0 78.5 18t181.5 82l29 -69q-190 -227 -398 -227q-170 0 -272.5 98.5t-102.5 288.5zM274 1251q0 66 41 108t107 42 q53 0 81.5 -33t28.5 -90q0 -65 -40 -107.5t-105 -42.5q-55 0 -84 34t-29 89zM352 596l322 72q4 20 4 59q0 73 -38.5 112.5t-109.5 39.5q-34 0 -50 -7t-31 -28q-67 -79 -97 -248zM651 1251q0 66 41.5 108t106.5 42q53 0 81.5 -33t28.5 -90q0 -66 -39.5 -108t-105.5 -42 q-55 0 -84 34t-29 89z" />
<glyph unicode="&#xec;" horiz-adv-x="643" d="M102 80l140 729l-35 27q-55 41 -68 84l13 65l385 33l-154 -821q94 0 176 16l12 -29q-62 -113 -132 -158.5t-152 -45.5q-73 0 -115 24.5t-70 75.5zM170 1495h305l25 -354q-60 -29 -117 -29z" />
<glyph unicode="&#xed;" horiz-adv-x="643" d="M102 80l140 729l-35 27q-55 41 -68 84l13 65l385 33l-154 -821q94 0 176 16l12 -29q-62 -113 -132 -158.5t-152 -45.5q-73 0 -115 24.5t-70 75.5zM303 1141l148 354h327l-356 -381q-63 0 -119 27z" />
<glyph unicode="&#xee;" horiz-adv-x="643" d="M102 80l140 729l-35 27q-55 41 -68 84l13 65l385 33l-154 -821q94 0 176 16l12 -29q-62 -113 -132 -158.5t-152 -45.5q-73 0 -115 24.5t-70 75.5zM117 1157l243 338h166l136 -338q-38 -35 -87 -35l-163 187l-209 -187q-48 0 -86 35z" />
<glyph unicode="&#xef;" horiz-adv-x="643" d="M102 80l140 729l-35 27q-55 41 -68 84l13 65l385 33l-154 -821q94 0 176 16l12 -29q-62 -113 -132 -158.5t-152 -45.5q-73 0 -115 24.5t-70 75.5zM145 1251q0 67 36 108.5t95 41.5q46 0 71.5 -33t25.5 -90q0 -66 -35 -108t-94 -42q-49 0 -74 34t-25 89zM451 1251 q0 66 36.5 108t94.5 42q47 0 72.5 -33.5t25.5 -89.5q0 -66 -35 -108t-94 -42q-49 0 -74.5 34t-25.5 89z" />
<glyph unicode="&#xf0;" horiz-adv-x="1067" d="M63 395q0 176 68.5 318t194 223.5t284.5 81.5h60q-33 81 -99 186l-180 -106q-43 26 -61 86l182 106q-51 69 -94 119l133 86q90 -63 133 -102l172 102q46 -27 62 -86l-156 -92q242 -263 242 -627q0 -203 -68 -365t-191.5 -253.5t-279.5 -91.5q-188 0 -295 114t-107 301z M336 358q0 -98 37 -155.5t116 -57.5q29 0 60 7q32 7 73 73t75 197t34 283q0 65 -12 129q-101 16 -172 16q-29 0 -64.5 -35.5t-68.5 -96t-55.5 -157t-22.5 -203.5z" />
<glyph unicode="&#xf1;" horiz-adv-x="1210" d="M98 4l140 805l-33 27q-56 45 -68 84l13 65l362 33l-25 -160h13q103 90 171.5 125t149.5 35q108 0 174 -55t66 -156q0 -29 -6 -66l-105 -544q96 0 178 16l13 -29q-108 -204 -283 -204q-71 0 -114 23.5t-72 72.5l131 694q-40 35 -113 35q-92 0 -207 -68l-129 -729 q-55 -18 -131 -18q-79 0 -125 14zM338 1155q60 110 103 166t75.5 73t79.5 17q40 0 137 -46t123 -46q27 0 50.5 19.5t86.5 93.5l80 -43q-90 -154 -142 -206.5t-114 -52.5q-43 0 -141 46.5t-121 46.5q-29 0 -53 -19.5t-86 -91.5z" />
<glyph unicode="&#xf2;" horiz-adv-x="1054" d="M63 410q0 171 64.5 309t186 218.5t278.5 80.5q193 0 296 -111t103 -315q0 -176 -65.5 -315t-186.5 -218t-276 -79q-195 0 -297.5 113.5t-102.5 316.5zM336 369q0 -121 43 -173.5t125 -52.5q32 0 59 9q16 5 40.5 38.5t51 90.5t45.5 150.5t19 199.5q0 119 -43 171t-125 52 q-35 0 -59 -8q-15 -5 -39.5 -38.5t-51.5 -89.5t-46 -149.5t-19 -199.5zM348 1495h305l25 -354q-60 -29 -117 -29z" />
<glyph unicode="&#xf3;" horiz-adv-x="1054" d="M63 410q0 171 64.5 309t186 218.5t278.5 80.5q193 0 296 -111t103 -315q0 -176 -65.5 -315t-186.5 -218t-276 -79q-195 0 -297.5 113.5t-102.5 316.5zM336 369q0 -121 43 -173.5t125 -52.5q32 0 59 9q16 5 40.5 38.5t51 90.5t45.5 150.5t19 199.5q0 119 -43 171t-125 52 q-35 0 -59 -8q-15 -5 -39.5 -38.5t-51.5 -89.5t-46 -149.5t-19 -199.5zM510 1141l147 354h328l-356 -381q-63 0 -119 27z" />
<glyph unicode="&#xf4;" horiz-adv-x="1054" d="M63 410q0 171 64.5 309t186 218.5t278.5 80.5q193 0 296 -111t103 -315q0 -176 -65.5 -315t-186.5 -218t-276 -79q-195 0 -297.5 113.5t-102.5 316.5zM295 1155l272 340h185l151 -340q-44 -35 -96 -35l-182 187l-234 -187q-52 0 -96 35zM336 369q0 -121 43 -173.5 t125 -52.5q32 0 59 9q16 5 40.5 38.5t51 90.5t45.5 150.5t19 199.5q0 119 -43 171t-125 52q-35 0 -59 -8q-15 -5 -39.5 -38.5t-51.5 -89.5t-46 -149.5t-19 -199.5z" />
<glyph unicode="&#xf5;" horiz-adv-x="1054" d="M63 410q0 171 64.5 309t186 218.5t278.5 80.5q193 0 296 -111t103 -315q0 -176 -65.5 -315t-186.5 -218t-276 -79q-195 0 -297.5 113.5t-102.5 316.5zM250 1155q60 110 103 166t75.5 73t79.5 17q40 0 137 -46t123 -46q27 0 50.5 19.5t86.5 93.5l80 -43 q-90 -154 -142 -206.5t-114 -52.5q-43 0 -141 46.5t-121 46.5q-29 0 -53 -19.5t-86 -91.5zM336 369q0 -121 43 -173.5t125 -52.5q32 0 59 9q16 5 40.5 38.5t51 90.5t45.5 150.5t19 199.5q0 119 -43 171t-125 52q-35 0 -59 -8q-15 -5 -39.5 -38.5t-51.5 -89.5t-46 -149.5 t-19 -199.5z" />
<glyph unicode="&#xf6;" horiz-adv-x="1054" d="M63 410q0 171 64.5 309t186 218.5t278.5 80.5q193 0 296 -111t103 -315q0 -176 -65.5 -315t-186.5 -218t-276 -79q-195 0 -297.5 113.5t-102.5 316.5zM293 1251q0 66 40.5 108t106.5 42q53 0 82 -33t29 -90q0 -65 -40 -107.5t-105 -42.5q-55 0 -84 34t-29 89zM336 369 q0 -121 43 -173.5t125 -52.5q32 0 59 9q16 5 40.5 38.5t51 90.5t45.5 150.5t19 199.5q0 119 -43 171t-125 52q-35 0 -59 -8q-15 -5 -39.5 -38.5t-51.5 -89.5t-46 -149.5t-19 -199.5zM670 1251q0 66 41 108t106 42q53 0 82 -33t29 -90q0 -66 -40 -108t-106 -42 q-55 0 -83.5 34t-28.5 89z" />
<glyph unicode="&#xf7;" d="M129 422v153h854v-153h-854zM408 133q0 72 39 114t108 42t109.5 -42t40.5 -114q0 -69 -39.5 -111t-110.5 -42t-109 41.5t-38 111.5zM408 862q0 72 39 114t108 42t109.5 -42t40.5 -114q0 -69 -39.5 -111t-110.5 -42t-109 41.5t-38 111.5z" />
<glyph unicode="&#xf8;" horiz-adv-x="1067" d="M-43 -141l199 245q-93 113 -93 306q0 171 64.5 309t186 218.5t278.5 80.5q149 0 250 -72l192 238q19 -2 38 -15t26 -30l-199 -246q92 -112 92 -301q0 -176 -65.5 -315t-186.5 -218t-276 -79q-153 0 -250 69l-193 -235q-18 2 -37 15t-26 30zM336 369q0 -29 2 -43l358 442 q-41 86 -145 86q-35 0 -59 -8q-15 -5 -39.5 -38.5t-51.5 -89.5t-46 -149.5t-19 -199.5zM358 229q37 -86 146 -86q32 0 59 9q16 5 40.5 38.5t51 90.5t45.5 150.5t19 199.5q0 27 -2 39z" />
<glyph unicode="&#xf9;" horiz-adv-x="1200" d="M127 190q0 45 14 113l99 506l-35 27q-55 41 -68 84l13 65l385 33l-150 -791q43 -34 113 -34q83 0 200 63l129 733q58 19 134 19q69 0 124 -15l-141 -798q102 0 178 18l13 -29q-108 -204 -283 -204q-141 0 -156 149h-10q-105 -85 -173 -117t-146 -32q-108 0 -174 54 t-66 156zM432 1495h305l25 -354q-60 -29 -117 -29z" />
<glyph unicode="&#xfa;" horiz-adv-x="1200" d="M127 190q0 45 14 113l99 506l-35 27q-55 41 -68 84l13 65l385 33l-150 -791q43 -34 113 -34q83 0 200 63l129 733q58 19 134 19q69 0 124 -15l-141 -798q102 0 178 18l13 -29q-108 -204 -283 -204q-141 0 -156 149h-10q-105 -85 -173 -117t-146 -32q-108 0 -174 54 t-66 156zM610 1141l148 354h327l-356 -381q-63 0 -119 27z" />
<glyph unicode="&#xfb;" horiz-adv-x="1200" d="M127 190q0 45 14 113l99 506l-35 27q-55 41 -68 84l13 65l385 33l-150 -791q43 -34 113 -34q83 0 200 63l129 733q58 19 134 19q69 0 124 -15l-141 -798q102 0 178 18l13 -29q-108 -204 -283 -204q-141 0 -156 149h-10q-105 -85 -173 -117t-146 -32q-108 0 -174 54 t-66 156zM385 1155l272 340h185l151 -340q-44 -35 -96 -35l-182 187l-234 -187q-52 0 -96 35z" />
<glyph unicode="&#xfc;" horiz-adv-x="1200" d="M127 190q0 45 14 113l99 506l-35 27q-55 41 -68 84l13 65l385 33l-150 -791q43 -34 113 -34q83 0 200 63l129 733q58 19 134 19q69 0 124 -15l-141 -798q102 0 178 18l13 -29q-108 -204 -283 -204q-141 0 -156 149h-10q-105 -85 -173 -117t-146 -32q-108 0 -174 54 t-66 156zM397 1251q0 66 41 108t107 42q53 0 81.5 -33t28.5 -90q0 -65 -40 -107.5t-105 -42.5q-55 0 -84 34t-29 89zM774 1251q0 66 41.5 108t106.5 42q53 0 81.5 -33t28.5 -90q0 -66 -39.5 -108t-105.5 -42q-55 0 -84 34t-29 89z" />
<glyph unicode="&#xfd;" horiz-adv-x="1032" d="M37 807q56 114 116.5 162.5t139.5 48.5q58 0 90.5 -27.5t52.5 -83.5l84 -674h12l261 572l-121 92l2 8q12 54 45 92h332v-75l-588 -1133l-49 -240q-62 0 -127 13t-107 37v49q13 51 51.5 114t169.5 238h-90l-135 807q-42 0 -127 -29zM508 1141l147 354h328l-356 -381 q-63 0 -119 27z" />
<glyph unicode="&#xfe;" horiz-adv-x="1112" d="M12 -426l301 1712l-34 27q-56 42 -68 84l12 65l383 33l-108 -600h14q66 67 121 95t123 28q128 0 210.5 -93t82.5 -270q0 -151 -39 -280t-104 -214t-148 -133t-172 -48q-131 0 -234 90l-84 -494q-59 -18 -131 -18q-63 0 -125 16zM379 197q117 -37 199 -37q45 0 91.5 71 t76.5 185.5t30 228.5q0 101 -35.5 141.5t-103.5 40.5q-80 0 -162 -79z" />
<glyph unicode="&#xff;" horiz-adv-x="1032" d="M37 807q56 114 116.5 162.5t139.5 48.5q58 0 90.5 -27.5t52.5 -83.5l84 -674h12l261 572l-121 92l2 8q12 54 45 92h332v-75l-588 -1133l-49 -240q-62 0 -127 13t-107 37v49q13 51 51.5 114t169.5 238h-90l-135 807q-42 0 -127 -29zM303 1251q0 66 41 108t107 42 q53 0 81.5 -33t28.5 -90q0 -65 -40 -107.5t-105 -42.5q-55 0 -84 34t-29 89zM680 1251q0 66 41 108t106 42q53 0 82 -33t29 -90q0 -66 -39.5 -108t-105.5 -42q-55 0 -84 34t-29 89z" />
<glyph unicode="&#x152;" horiz-adv-x="2037" d="M92 575q0 193 59 354t158 266.5t228 163.5t270 58q122 0 221 -44t150 -120l26 144h541l260 20l-37 -393q-54 -31 -131 -31h-18l-52 242h-346l-80 -449h431q0 -92 -31 -174l-174 15h-254l-84 -475l407 20l90 242h23q32 0 69.5 -9.5t59.5 -23.5l-33 -381h-889l19 104 q-64 -61 -154 -92.5t-188 -31.5q-257 0 -399 157t-142 438zM399 541q0 -191 78 -290t207 -99q72 0 121 16q39 13 83.5 72.5t85 153t67 230.5t26.5 285q0 169 -80.5 252.5t-210.5 83.5q-40 0 -94 -8q-20 -4 -52.5 -31.5t-73 -86t-75.5 -136t-58.5 -194.5t-23.5 -248z" />
<glyph unicode="&#x153;" horiz-adv-x="1613" d="M63 410q0 171 61.5 309t177.5 218.5t265 80.5q216 0 316 -160q141 160 323 160q165 0 253.5 -85.5t88.5 -240.5q0 -50 -18 -121l-555 -88q-6 -48 -6 -92q0 -106 56 -160.5t157 -54.5q29 0 78.5 18t181.5 82l28 -69q-187 -227 -395 -227q-198 0 -293 141 q-132 -141 -323 -141q-196 0 -296 115.5t-100 314.5zM336 371q0 -121 43 -173.5t125 -52.5q32 0 59 9q16 5 40.5 38.5t52 89.5t46.5 149t19 198q0 119 -44 171t-126 52q-35 0 -59 -8q-15 -5 -39.5 -38t-51.5 -89.5t-46 -149t-19 -196.5zM987 596l324 72q2 20 2 59 q0 73 -38.5 112.5t-109.5 39.5q-34 0 -49.5 -6.5t-32.5 -28.5q-67 -82 -96 -248z" />
<glyph unicode="&#x178;" horiz-adv-x="1120" d="M70 1257l6 25q18 82 49 115h551l-41 -140l-143 -22l141 -498h18l322 498l-172 22l6 25q19 83 49 115h447l-43 -140l-76 -22l-479 -668l-72 -405l168 -23l-4 -24q-14 -77 -52 -115h-579l43 139l137 23l74 405l-236 668zM432 1559q0 58 37.5 93.5t97.5 35.5q46 0 73.5 -29 t27.5 -74q0 -56 -37.5 -92.5t-98.5 -36.5q-47 0 -73.5 29.5t-26.5 73.5zM793 1559q0 58 37.5 93.5t97.5 35.5q46 0 72 -28.5t26 -74.5q0 -57 -36 -93t-97 -36q-49 0 -74.5 29.5t-25.5 73.5z" />
<glyph unicode="&#x2c6;" horiz-adv-x="1024" d="M205 1155l272 340h185l151 -340q-44 -35 -96 -35l-182 187l-234 -187q-52 0 -96 35z" />
<glyph unicode="&#x2dc;" horiz-adv-x="1024" d="M139 1155q60 110 103 166t75.5 73t79.5 17q40 0 137 -46t123 -46q27 0 51.5 20t86.5 93l79 -43q-90 -154 -142 -206.5t-114 -52.5q-43 0 -141 46.5t-121 46.5q-29 0 -53 -19.5t-86 -91.5z" />
<glyph unicode="&#x2000;" horiz-adv-x="934" />
<glyph unicode="&#x2001;" horiz-adv-x="1868" />
<glyph unicode="&#x2002;" horiz-adv-x="934" />
<glyph unicode="&#x2003;" horiz-adv-x="1868" />
<glyph unicode="&#x2004;" horiz-adv-x="622" />
<glyph unicode="&#x2005;" horiz-adv-x="467" />
<glyph unicode="&#x2006;" horiz-adv-x="311" />
<glyph unicode="&#x2007;" horiz-adv-x="311" />
<glyph unicode="&#x2008;" horiz-adv-x="233" />
<glyph unicode="&#x2009;" horiz-adv-x="373" />
<glyph unicode="&#x200a;" horiz-adv-x="103" />
<glyph unicode="&#x2010;" horiz-adv-x="571" d="M45 403l39 222h438l-39 -222h-438z" />
<glyph unicode="&#x2011;" horiz-adv-x="571" d="M45 403l39 222h438l-39 -222h-438z" />
<glyph unicode="&#x2012;" horiz-adv-x="571" d="M45 403l39 222h438l-39 -222h-438z" />
<glyph unicode="&#x2013;" horiz-adv-x="1024" d="M47 403l39 222h889l-39 -222h-889z" />
<glyph unicode="&#x2014;" horiz-adv-x="2048" d="M47 403l39 222h1913l-39 -222h-1913z" />
<glyph unicode="&#x2018;" horiz-adv-x="446" d="M133 1092q0 34 8 67l336 340q72 -10 92 -63l-192 -260l78 -50q0 -91 -43.5 -148.5t-124.5 -57.5q-67 0 -110.5 44.5t-43.5 127.5z" />
<glyph unicode="&#x2019;" horiz-adv-x="446" d="M84 981l192 258l-77 49q0 91 43.5 149t124.5 58q66 0 109.5 -44.5t43.5 -127.5q0 -35 -8 -68l-336 -340q-72 10 -92 66z" />
<glyph unicode="&#x201a;" horiz-adv-x="446" d="M-55 41l192 260l-78 49q0 91 43.5 149t124.5 58q67 0 110.5 -44.5t43.5 -127.5q0 -35 -8 -68l-336 -340q-71 10 -92 64z" />
<glyph unicode="&#x201c;" horiz-adv-x="825" d="M133 1092q0 34 8 67l336 340q72 -10 92 -63l-192 -260l78 -50q0 -91 -43.5 -148.5t-124.5 -57.5q-67 0 -110.5 44.5t-43.5 127.5zM512 1092q0 34 8 67l336 340q72 -10 92 -63l-192 -260l78 -50q0 -91 -43.5 -148.5t-124.5 -57.5q-67 0 -110.5 44.5t-43.5 127.5z" />
<glyph unicode="&#x201d;" horiz-adv-x="825" d="M84 981l192 258l-77 49q0 91 43.5 149t124.5 58q66 0 109.5 -44.5t43.5 -127.5q0 -35 -8 -68l-336 -340q-72 10 -92 66zM463 981l192 258l-77 49q0 91 43 149t124 58q67 0 110.5 -44.5t43.5 -127.5q0 -35 -8 -68l-336 -340q-72 10 -92 66z" />
<glyph unicode="&#x201e;" horiz-adv-x="825" d="M-55 41l192 260l-78 49q0 91 43.5 149t124.5 58q67 0 110.5 -44.5t43.5 -127.5q0 -35 -8 -68l-336 -340q-71 10 -92 64zM324 41l190 260l-78 49q2 91 45.5 149t124.5 58q67 0 110.5 -44.5t43.5 -127.5q0 -35 -8 -68l-336 -340q-71 10 -92 64z" />
<glyph unicode="&#x2022;" horiz-adv-x="737" d="M76 459q0 158 90 255t235 97q126 0 194.5 -70t68.5 -198q0 -157 -89.5 -253.5t-234.5 -96.5q-127 0 -195.5 70.5t-68.5 195.5z" />
<glyph unicode="&#x2026;" horiz-adv-x="1431" d="M12 121q0 87 52 139.5t137 52.5q63 0 101 -39t38 -102q0 -87 -51 -139.5t-137 -52.5q-66 0 -103 39.5t-37 101.5zM489 121q0 87 52 139.5t137 52.5q63 0 101 -39t38 -102q0 -87 -51 -139.5t-137 -52.5q-66 0 -103 39.5t-37 101.5zM969 121q0 87 51.5 139.5t136.5 52.5 q63 0 101 -39t38 -102q0 -87 -51 -139.5t-137 -52.5q-66 0 -102.5 39.5t-36.5 101.5z" />
<glyph unicode="&#x202f;" horiz-adv-x="373" />
<glyph unicode="&#x2039;" horiz-adv-x="487" d="M23 489l6 35l366 377l121 -14l-215 -383l80 -383l-119 -17z" />
<glyph unicode="&#x203a;" horiz-adv-x="487" d="M-29 121l217 383l-82 383l119 16l240 -385l-4 -35l-369 -377z" />
<glyph unicode="&#x205f;" horiz-adv-x="467" />
<glyph unicode="&#x20ac;" d="M66 506q0 57 20 98h107q6 90 28 187h-106q0 54 18 98h115q78 239 243 383.5t390 144.5q161 0 284 -35q0 -40 -9.5 -97t-22.5 -91q-55 17 -160 30t-172 13q-55 0 -76.5 -7t-38.5 -24q-99 -96 -162 -317h408q0 -55 -21 -98h-411q-19 -91 -25 -187h408q0 -52 -19 -98h-395 v-47q0 -291 240 -291q87 0 163.5 34.5t128.5 94.5q0 -124 -18 -205q-120 -112 -328 -112q-230 0 -348.5 135.5t-118.5 378.5v12h-122z" />
<glyph unicode="&#x2122;" horiz-adv-x="1794" d="M152 1210l28 187h469l158 10l-47 -197q-37 -16 -84 -16h-14l-13 109l-84 -5l-90 -503l78 -11l-2 -16q-7 -45 -31 -72h-321l24 88l72 11l88 497l-88 -4l-47 -94h-21q-49 0 -75 16zM731 696l25 88l71 11l119 501l-76 13l2 16q6 46 29 72h260l92 -449l254 449h277l-25 -88 l-76 -13l-69 -501l76 -11l-2 -16q-7 -45 -31 -72h-311l24 88l78 11l57 385h-10l-285 -484l-71 -10l-101 494h-10l-88 -385l82 -11l-2 -16q-7 -45 -31 -72h-258z" />
<glyph unicode="&#xe000;" horiz-adv-x="1013" d="M0 0v1014h1014v-1014h-1014z" />
</font>
</defs>
</svg>
