<?xml version="1.0" standalone="no"?>
<!DOCTYPE svg PUBLIC "-//W3C//DTD SVG 1.1//EN" "http://www.w3.org/Graphics/SVG/1.1/DTD/svg11.dtd" >
<svg xmlns="http://www.w3.org/2000/svg">
<metadata></metadata>
<defs>
<font id="malaga_ot_regbold_italic" horiz-adv-x="1024" >
<font-face units-per-em="2048" ascent="1638" descent="-410" />
<missing-glyph horiz-adv-x="532" />
<glyph unicode="&#xfb01;" horiz-adv-x="1341" d="M-129 -309l45 229q41 -8 90 -8q45 0 78 10q20 6 20 37q0 222 23 369l70 469l-35 12q-36 13 -52.5 23t-23.5 26l25 139h122l5 23q17 98 57 182.5t99 150.5t141.5 104t177.5 38q86 0 139 -35l-43 -229q-54 8 -119 8q-74 0 -119 -10q-20 -5 -20 -29v-203h469l252 21 l-144 -768q69 0 148 14l14 -33q-98 -251 -319 -251q-85 0 -132.5 26.5t-76.5 83.5l133 705h-360l-97 -609q-39 -242 -155.5 -386t-280.5 -144q-72 0 -131 35zM954 1300q0 80 58.5 129.5t146.5 49.5q80 0 122 -40.5t42 -111.5q0 -76 -55.5 -126t-145.5 -50q-82 0 -125 40.5 t-43 108.5z" />
<glyph unicode="&#xfb02;" horiz-adv-x="1341" d="M-129 -309l45 229q41 -8 90 -8q45 0 78 10q20 6 20 37q0 222 23 369l70 469l-35 12q-36 13 -52.5 23t-23.5 26l25 139h122l5 23q16 96 59.5 180t111.5 149.5t166.5 103.5t215.5 38q106 0 247 -29l324 33l-236 -1245q71 0 150 14l14 -33q-98 -251 -319 -251q-85 0 -132 26 t-77 84l213 1131q-120 18 -254 18q-88 0 -133 -10q-10 -3 -14 -10t-7 -27q-9 -80 -16 -195h201q0 -127 -35 -202h-182l-97 -609q-39 -242 -155.5 -386t-280.5 -144q-72 0 -131 35z" />
<glyph horiz-adv-x="2048" />
<glyph horiz-adv-x="2048" />
<glyph unicode="&#xd;" horiz-adv-x="2048" />
<glyph unicode=" "  horiz-adv-x="532" />
<glyph unicode="&#x09;" horiz-adv-x="532" />
<glyph unicode="&#xa0;" horiz-adv-x="532" />
<glyph unicode="!" horiz-adv-x="657" d="M82 127q0 95 59.5 153t153.5 58q71 0 114.5 -42.5t43.5 -109.5q0 -92 -57.5 -149t-153.5 -57q-76 0 -118 41t-42 106zM205 461l65 936q143 20 416 20l-274 -956h-207z" />
<glyph unicode="&#x22;" horiz-adv-x="782" d="M158 954l10 521h346l-174 -521q-36 -10 -94 -10q-57 0 -88 10zM553 954l10 521h346l-174 -521q-36 -10 -94 -10q-57 0 -88 10z" />
<glyph unicode="#" horiz-adv-x="1140" d="M8 313q6 54 33.5 137.5t52.5 129.5l205 22l55 150l-207 -21q8 59 35.5 140.5t55.5 125.5l211 25l139 385q85 0 139 -21l-129 -350l207 23l127 348q81 0 139 -21l-115 -311l205 21q-6 -55 -34 -139t-56 -128l-209 -24l-55 -150l213 23q-7 -55 -36.5 -139t-55.5 -127 l-215 -25l-144 -397q-87 0 -139 20l131 363l-205 -25l-131 -358q-81 0 -139 20l117 324zM451 618l204 21l54 152l-205 -23z" />
<glyph unicode="$" horiz-adv-x="1140" d="M100 141l37 295q67 31 160 31h27l34 -168q63 -18 142 -18q68 0 98 10q18 6 37.5 35.5t19.5 70.5q0 39 -24.5 71t-64 56t-87.5 47.5t-96 54t-87.5 67.5t-64 95t-24.5 130q0 140 106 246t283 136l100 259q63 0 105 -27l-86 -221h8q53 0 117 -6l98 254q62 0 104 -27 l-94 -242q45 -7 96 -18l-30 -295q-67 -31 -160 -31h-29l-34 158q-54 16 -113 16t-86 -10q-14 -5 -34.5 -36.5t-20.5 -72.5q0 -36 25 -65.5t64.5 -52t87.5 -46.5t96 -55t87.5 -69t64.5 -98t25 -134q0 -156 -113 -263.5t-325 -125.5l-103 -262q-58 0 -104 27l90 233 q-66 0 -123 8l-104 -268q-59 0 -105 27l101 258q-69 14 -101 26z" />
<glyph unicode="%" horiz-adv-x="1546" d="M102 995q0 185 105 303.5t280 118.5q144 0 221.5 -82t77.5 -219q0 -189 -107.5 -305.5t-277.5 -116.5q-142 0 -220.5 81.5t-78.5 219.5zM238 14l989 1403q72 0 116 -47l-991 -1403q-73 0 -114 47zM328 971q0 -129 92 -129q32 0 53 8q26 7 56 97t30 194q0 129 -90 129 q-32 0 -53 -8q-28 -7 -58 -97t-30 -194zM805 281q0 185 104.5 303t280.5 118q144 0 221.5 -82t77.5 -219q0 -189 -107.5 -305t-277.5 -116q-142 0 -220.5 81.5t-78.5 219.5zM1030 256q0 -129 92 -129q33 0 54 8q26 7 57 97t31 194q0 129 -93 129q-32 0 -53 -8 q-28 -7 -58 -97t-30 -194z" />
<glyph unicode="&#x26;" horiz-adv-x="1476" d="M16 324q0 129 79 245t267 232q-24 57 -24 147q0 71 19 138.5t58.5 127.5t95 105t134.5 71.5t172 26.5q158 0 252 -80.5t94 -201.5q0 -87 -46 -149.5t-120 -86.5q-86 3 -128 36t-42 87q0 51 36 86t110 41v8q0 43 -42 67.5t-108 24.5q-39 0 -63 -8q-5 -1 -14 -10t-21 -28 t-22.5 -43t-17.5 -59t-7 -73q0 -87 38.5 -175.5t147.5 -238.5l125 -172q64 73 131 179l-112 22l2 14q19 97 63 146h414l-51 -160l-70 -22q-149 -205 -264 -328l182 -254q-37 -29 -105.5 -52t-121.5 -26l-170 154q-197 -135 -412 -135q-210 0 -334.5 91t-124.5 253zM354 385 q0 -92 55.5 -152.5t153.5 -60.5q104 0 195 68q-192 195 -312 368q-92 -103 -92 -223z" />
<glyph unicode="'" horiz-adv-x="389" d="M158 954l10 521h346l-174 -521q-36 -10 -94 -10q-57 0 -88 10z" />
<glyph unicode="(" horiz-adv-x="610" d="M41 264q0 135 17 267.5t51.5 263t92 243t132 201.5t177.5 145t224 68q35 -75 35 -152q-85 -13 -157 -94t-120.5 -202.5t-83 -273.5t-50 -305.5t-15.5 -301.5q0 -79 11.5 -134.5t35.5 -88.5t51.5 -51t67.5 -31q-19 -83 -64 -144q-201 23 -303 174.5t-102 415.5z" />
<glyph unicode=")" horiz-adv-x="610" d="M-145 -174q85 13 157.5 94t121 202.5t83 273.5t50.5 306.5t16 301.5q0 79 -11.5 134.5t-35.5 88.5t-51.5 51t-67.5 31q20 89 63 143q200 -23 303 -175t103 -415q0 -135 -17.5 -267.5t-52 -263t-92 -243t-132.5 -201.5t-178 -145t-223 -68q-36 67 -36 152z" />
<glyph unicode="*" horiz-adv-x="792" d="M117 1100q12 69 46 141.5t77 118.5l190 -125q-8 158 -12 238q54 22 139 22t133 -22l-94 -238l229 125q45 -78 45 -184q0 -30 -8 -76l-241 -23l151 -170q-40 -49 -109 -92t-133 -61l-61 225l-131 -225q-56 17 -112 65t-81 99l207 157z" />
<glyph unicode="+" horiz-adv-x="1193" d="M162 354v285h291v326h286v-326h293v-285h-293v-323h-286v323h-291z" />
<glyph unicode="," horiz-adv-x="487" d="M-125 -305l211 342l-88 45q6 112 57.5 177t147.5 65q78 0 128 -53.5t50 -149.5q0 -32 -10 -80l-381 -416q-74 6 -115 70z" />
<glyph unicode="-" horiz-adv-x="628" d="M49 381l51 283h478l-52 -283h-477z" />
<glyph unicode="." horiz-adv-x="487" d="M2 141q0 103 60.5 165.5t156.5 62.5q72 0 117 -45.5t45 -118.5q0 -99 -60 -162t-157 -63q-77 0 -119.5 45t-42.5 116z" />
<glyph unicode="/" horiz-adv-x="770" d="M-109 -45l795 1554q56 0 117 -20t88 -47l-795 -1555q-56 0 -116.5 20t-88.5 48z" />
<glyph unicode="0" horiz-adv-x="1216" d="M74 461q0 138 43 260t120.5 213.5t193.5 145t255 53.5q209 0 332 -135t123 -347q0 -138 -43 -260.5t-121 -213.5t-194 -144t-255 -53q-208 0 -331 135t-123 346zM348 496q0 -112 63.5 -173t168.5 -61q70 0 135 19q17 5 40 27t50 61t45 104.5t18 142.5q0 114 -65 174 t-168 60q-71 0 -133 -19q-17 -5 -41 -27t-50.5 -61t-44.5 -104.5t-18 -142.5z" />
<glyph unicode="1" horiz-adv-x="778" d="M-78 0l47 166l193 22l129 719l-78 19q-68 17 -86 59l27 127h538l-164 -924l183 -22l-6 -29q-15 -83 -60 -137h-723z" />
<glyph unicode="2" horiz-adv-x="1021" d="M-37 182q244 147 365.5 236.5t162.5 148t41 127.5q0 77 -52 125.5t-136 48.5q-106 0 -172 -63l-70 86q141 242 418 242q175 0 287.5 -94t112.5 -248q0 -132 -86.5 -230.5t-301.5 -210.5v-16h357q-3 -354 -158 -354q-65 0 -170 12l-409 45l-89 -53q-39 28 -65.5 83 t-34.5 115z" />
<glyph unicode="3" horiz-adv-x="997" d="M-80 -119q283 41 407 104t124 165q0 84 -51.5 122.5t-161.5 38.5h-152l39 209h154q260 0 260 187q0 77 -48.5 121t-134.5 44q-111 0 -186 -69l-68 88q72 122 173.5 182t248.5 60q181 0 291.5 -99t110.5 -252q0 -129 -79 -217t-202 -114v-21q86 -32 136 -101.5t50 -170.5 q0 -213 -230.5 -335t-657.5 -128q-23 68 -23 186z" />
<glyph unicode="4" horiz-adv-x="1050" d="M-29 10l60 330l518 793q176 0 264 -46l-539 -825h287l64 367h331l-61 -344h111l-11 -58q-27 -154 -67 -217h-82l-53 -295h-367l53 295h-508z" />
<glyph unicode="5" horiz-adv-x="993" d="M-68 -119q268 29 396.5 93.5t128.5 166.5q0 96 -91 146t-272 71l150 754h751q0 -98 -15.5 -165.5t-45.5 -104.5t-66.5 -52.5t-85.5 -15.5q-87 0 -352 35l-84 -225q241 -37 370.5 -140.5t129.5 -269.5q0 -121 -64.5 -212.5t-184 -148.5t-280 -86.5t-362.5 -31.5 q-23 68 -23 186z" />
<glyph unicode="6" horiz-adv-x="1054" d="M57 430q0 322 246.5 579t710.5 408q27 -31 50 -82t32 -100q-267 -124 -402 -229t-200 -230h16q71 53 172 53q129 0 221 -92.5t92 -255.5q0 -156 -69 -271.5t-179.5 -172.5t-244.5 -57q-201 0 -323 121.5t-122 328.5zM387 348q0 -168 127 -168q36 0 59 6q12 2 31 35.5 t37 101t18 142.5q0 81 -33.5 122.5t-93.5 41.5q-55 0 -96 -33q-21 -42 -35 -117.5t-14 -130.5z" />
<glyph unicode="7" horiz-adv-x="1005" d="M-2 -252l702 1063q-336 -37 -485 -37q-69 0 -105 39t-36 113q0 78 43 186h919l-53 -309l-727 -1114q-154 0 -258 59z" />
<glyph unicode="8" horiz-adv-x="1030" d="M16 274q0 188 187 306l110 69q-174 131 -174 318q0 191 144.5 320.5t367.5 129.5q199 0 303.5 -84t104.5 -211q0 -91 -45.5 -159t-145.5 -134l-102 -67q180 -132 180 -340q0 -192 -140 -317t-378 -125q-199 0 -305.5 82.5t-106.5 211.5zM322 309q0 -63 38 -96t103 -33 q53 0 84 10q21 7 42 49.5t21 104.5q0 68 -32 111.5t-117 99.5q-75 -59 -107 -118t-32 -128zM475 1053q0 -62 34 -106t109 -91q72 51 105 103t33 118q0 67 -40 103.5t-104 36.5q-32 0 -69 -11q-23 -6 -45.5 -46.5t-22.5 -106.5z" />
<glyph unicode="9" horiz-adv-x="1054" d="M-41 -123q267 124 402 229t198 228h-14q-76 -51 -174 -51q-128 0 -220 92.5t-92 255.5q0 117 39.5 213.5t107.5 159t157.5 96t189.5 33.5q200 0 322 -122t122 -329q0 -322 -246.5 -579t-709.5 -408q-27 31 -50 82t-32 100zM395 647q0 -81 33 -122.5t92 -41.5q57 0 98 33 q21 42 35.5 118t14.5 130q0 168 -127 168q-37 0 -60 -6q-12 -2 -31 -35.5t-37 -101t-18 -142.5z" />
<glyph unicode=":" horiz-adv-x="544" d="M4 141q0 103 60.5 165.5t156.5 62.5q72 0 117 -45.5t45 -118.5q0 -99 -60 -162t-157 -63q-77 0 -119.5 45t-42.5 116zM113 791q0 103 60.5 165t156.5 62q72 0 117 -45.5t45 -118.5q0 -99 -60 -162t-158 -63q-77 0 -119 45t-42 117z" />
<glyph unicode=";" horiz-adv-x="544" d="M-123 -305l211 342l-88 45q6 112 57.5 177t147.5 65q78 0 128 -53.5t50 -149.5q0 -32 -10 -80l-381 -416q-74 6 -115 70zM113 791q0 103 60.5 165t156.5 62q72 0 117 -45.5t45 -118.5q0 -99 -60 -162t-158 -63q-77 0 -119 45t-42 117z" />
<glyph unicode="&#x3c;" horiz-adv-x="1193" d="M135 502l524 463h402l-526 -463l524 -471h-402z" />
<glyph unicode="=" horiz-adv-x="1193" d="M172 129v285h850v-285h-850zM172 584v284h850v-284h-850z" />
<glyph unicode="&#x3e;" horiz-adv-x="1193" d="M135 31l524 463l-522 471h400l524 -471l-526 -463h-400z" />
<glyph unicode="?" horiz-adv-x="952" d="M145 129q0 95 58.5 152t152.5 57q72 0 116 -42t44 -110q0 -91 -58 -148.5t-155 -57.5q-75 0 -116.5 41.5t-41.5 107.5zM168 1174q149 243 434 243q171 0 268 -91t97 -239q0 -159 -116 -263.5t-337 -133.5l-76 -231h-135l-133 194q8 27 28.5 62t43.5 57q160 17 250 80 t90 160q0 70 -42 116t-120 46q-105 0 -178 -70z" />
<glyph unicode="@" horiz-adv-x="1798" d="M47 246q0 194 57 366.5t156.5 300.5t230 221.5t282 141t308.5 47.5q195 0 346 -73t237.5 -217t86.5 -339q0 -152 -47 -284t-125.5 -220.5t-180 -139t-210.5 -50.5q-189 0 -275 115h-20q-126 -115 -240 -115q-104 0 -164.5 72t-60.5 196q0 138 46.5 263.5t119 210 t160.5 134.5t172 50q73 0 129.5 -29.5t83.5 -77.5l106 103q37 0 82.5 -10.5t71.5 -28.5l-254 -652q22 -28 80 -28q121 0 219 137.5t98 341.5q0 205 -120 318.5t-345 113.5q-166 0 -317 -67t-260 -181.5t-173.5 -273t-64.5 -334.5q0 -113 32.5 -200t91.5 -141.5t139 -82 t177 -27.5q134 0 267 58l-49 -191q-110 -73 -271 -73q-264 0 -433 175.5t-169 469.5zM715 299q0 -47 18.5 -73.5t50.5 -26.5q47 0 93 30l182 473q-73 25 -129 25q-37 0 -87.5 -67t-89 -170t-38.5 -191z" />
<glyph unicode="A" horiz-adv-x="1327" d="M-131 0l45 170l76 23l661 1204l342 20l209 -1224l98 -23l-6 -29q-17 -93 -57 -141h-600l43 170l149 23l-47 301l-387 -25l-139 -276l162 -23l-4 -29q-17 -92 -60 -141h-485zM487 653h271l-56 387h-18z" />
<glyph unicode="B" horiz-adv-x="1300" d="M-37 0l43 170l123 23l180 1011l-141 23l6 28q22 100 59 142h592q214 0 327.5 -84.5t113.5 -255.5q0 -132 -80.5 -220.5t-200.5 -111.5v-18q99 -32 160 -105.5t61 -189.5q0 -191 -151.5 -301.5t-448.5 -110.5h-643zM494 195l157 -13q76 13 132.5 83.5t56.5 172.5 q0 89 -48 133.5t-135 44.5h-88zM600 784l184 15q52 27 87.5 95t35.5 148q0 81 -39.5 122.5t-113.5 41.5h-78z" />
<glyph unicode="C" horiz-adv-x="1273" d="M76 596q0 241 96.5 427t275.5 290t412 104q88 0 197.5 -15t195.5 -40l-41 -404q-65 -36 -172 -36h-24l-47 252q-86 28 -191 28q-48 0 -73 -4q-18 -3 -46.5 -29t-62 -80t-62 -124t-48 -172t-19.5 -213q0 -192 72.5 -285.5t205.5 -93.5q62 0 113 14l80 246h29 q110 0 170 -37l-25 -346q-73 -47 -189 -72.5t-218 -25.5q-294 0 -461.5 166.5t-167.5 449.5z" />
<glyph unicode="D" horiz-adv-x="1464" d="M-37 0l43 170l123 23l180 1011l-141 23l6 28q22 100 59 142h576q142 0 255.5 -35t196.5 -105t128 -181.5t45 -258.5q0 -179 -61.5 -330.5t-172 -258.5t-270 -167.5t-348.5 -60.5h-619zM500 203l194 -13q63 12 125.5 69.5t111.5 145.5t80 211t31 254q0 174 -74 251 t-198 77h-92z" />
<glyph unicode="E" horiz-adv-x="1255" d="M-37 0l43 170l123 23l180 1011l-141 23l6 28q22 100 59 142h725l281 20l-35 -399q-70 -39 -174 -39h-24l-50 221h-278l-72 -401h418q0 -119 -35 -207l-180 16h-238l-73 -424l331 25l84 219h29q46 0 94.5 -10t75.5 -27l-31 -391h-1118z" />
<glyph unicode="F" horiz-adv-x="1179" d="M-37 0l43 170l123 23l180 1011l-141 23l6 28q22 100 59 142h723l281 20l-37 -405q-67 -37 -172 -37h-24l-50 225h-276l-76 -428h434q0 -122 -35 -207l-180 17h-254l-69 -389l155 -23l-6 -29q-22 -99 -59 -141h-625z" />
<glyph unicode="G" horiz-adv-x="1390" d="M76 596q0 241 98 427t281.5 290t425.5 104q230 0 440 -55l-37 -385q-67 -37 -174 -37h-25l-47 234q-100 28 -215 28q-77 0 -108 -4q-17 -2 -46 -27t-64 -77t-66 -121.5t-51.5 -173.5t-20.5 -219q0 -185 73 -282t212 -97q33 0 73 8l52 293l-134 22l7 29q20 96 59 141h549 l-45 -170l-86 -22l-90 -502l-41 -20l-144 47q-111 -47 -252 -47q-179 0 -319.5 72t-222.5 213t-82 331z" />
<glyph unicode="H" horiz-adv-x="1554" d="M-37 0l43 170l123 23l180 1011l-141 23l6 28q22 100 59 142h607l-45 -170l-117 -23l-70 -393h430l70 393l-133 23l4 28q13 87 61 142h605l-43 -170l-125 -23l-181 -1011l142 -23l-6 -29q-21 -96 -58 -141h-606l45 170l115 23l73 411h-430l-73 -411l135 -23l-6 -29 q-20 -93 -60 -141h-604z" />
<glyph unicode="I" horiz-adv-x="755" d="M-37 0l43 170l123 23l180 1011l-141 23l6 28q22 100 59 142h613l-43 -170l-125 -23l-180 -1011l141 -23l-6 -29q-21 -96 -58 -141h-612z" />
<glyph unicode="J" horiz-adv-x="743" d="M-94 -373l190 355l217 1222l-141 23l4 28q13 89 60 142h614l-45 -170l-123 -23l-188 -1061q-19 -102 -58 -173t-119 -148l-278 -273q-41 0 -77.5 22t-55.5 56z" />
<glyph unicode="K" horiz-adv-x="1384" d="M-37 0l43 170l123 23l180 1011l-141 23l6 28q22 100 59 142h603l-43 -170l-115 -23l-86 -487h16l482 487l-138 23l6 28q21 99 60 142h526l-45 -170l-100 -23l-406 -360l305 -770q-40 -43 -121 -75t-143 -34l-348 606l-145 -133l-43 -245l129 -23l-6 -29q-20 -95 -58 -141 h-600z" />
<glyph unicode="L" horiz-adv-x="1140" d="M-37 0l43 170l123 23l180 1011l-141 23l6 28q22 100 59 142h621l-43 -170l-133 -23l-180 -1014l278 23l86 242h27q48 0 99.5 -10t76.5 -27l-35 -418h-1067z" />
<glyph unicode="M" horiz-adv-x="1892" d="M-66 0l46 170l122 23l236 1011l-148 23l5 28q13 90 59 142h522l180 -860l471 860h537l-43 -170l-125 -23l-141 -1011l143 -23l-6 -29q-22 -99 -59 -141h-594l43 170l133 23l115 753h-19l-539 -946l-163 -20l-185 966h-18l-168 -753l151 -23l-4 -29q-13 -89 -59 -141h-492 z" />
<glyph unicode="N" horiz-adv-x="1519" d="M-37 0l43 170l121 23l199 1011l-142 23l4 28q13 89 60 142h454l390 -822h18l109 629l-162 23l4 28q13 90 59 142h508l-43 -170l-119 -23l-231 -1204l-213 -20l-496 962h-18l-131 -749l162 -23l-7 -27q-22 -98 -59 -143h-510z" />
<glyph unicode="O" horiz-adv-x="1454" d="M76 592q0 183 59.5 339t162 261.5t242 165t296.5 59.5q269 0 428 -158.5t159 -453.5q0 -184 -59.5 -340t-162 -261.5t-241 -164.5t-294.5 -59q-271 0 -430.5 157.5t-159.5 454.5zM467 518q0 -166 67 -242.5t175 -76.5q50 0 86 8q12 3 32.5 23.5t48 56.5t54.5 94t50 128 t37.5 167t14.5 203q0 166 -66.5 242.5t-174.5 76.5q-50 0 -86 -8q-15 -4 -42 -30.5t-61.5 -83.5t-64 -131.5t-50 -187.5t-20.5 -239z" />
<glyph unicode="P" horiz-adv-x="1255" d="M-37 0l43 170l123 23l180 1011l-141 23l6 28q22 100 59 142h572q473 0 473 -379q0 -208 -145.5 -330.5t-413.5 -142.5l-162 -13l-59 -339l149 -23l-6 -29q-21 -98 -57 -141h-621zM592 715l178 10q63 27 106.5 111t43.5 190q0 86 -38.5 133t-113.5 47h-88z" />
<glyph unicode="Q" horiz-adv-x="1429" d="M61 -25q0 133 41 220q28 22 88 36.5t115 14.5q123 0 264 -58q214 70 328.5 243t114.5 415q0 176 -76 265t-213 89q-41 0 -57 -4q-20 -3 -52.5 -37.5t-67 -90t-59 -143t-24.5 -180.5q0 -90 36.5 -134t98.5 -44q82 0 137 64q11 -22 22.5 -71t12.5 -91q-46 -65 -122.5 -99 t-164.5 -34q-170 0 -271 101.5t-101 291.5q0 145 57 274t153 219t225 142.5t269 52.5q267 0 425.5 -158.5t158.5 -422.5q0 -258 -153 -454t-433 -294v-10l434 -205q-17 -58 -49 -107t-65 -69l-691 246q-88 -15 -178 -15q-60 0 -121 13t-82 34z" />
<glyph unicode="R" horiz-adv-x="1308" d="M-37 0l43 170l123 23l180 1011l-141 23l6 28q22 100 59 142h588q233 0 351 -95.5t118 -271.5q0 -138 -71.5 -243.5t-194.5 -143.5l223 -569q-41 -44 -122 -75.5t-144 -33.5l-326 582l-98 -12l-61 -342l129 -23l-7 -29q-20 -97 -59 -141h-596zM590 715l190 12 q63 23 102.5 107t39.5 192q0 180 -156 180h-90z" />
<glyph unicode="S" horiz-adv-x="1110" d="M39 51l33 342q70 39 170 39h26l54 -209q59 -35 159 -35q67 0 119 15q20 7 38.5 43.5t18.5 83.5q0 49 -28 91t-73 74.5t-99.5 65t-109 69.5t-99.5 80.5t-73 107t-28 140.5q0 89 39.5 171t111.5 146.5t184.5 103t248.5 38.5q209 0 367 -49l-33 -338q-64 -37 -170 -37h-27 l-53 193q-61 22 -145 22q-62 0 -103 -12q-18 -5 -36.5 -44t-18.5 -79q0 -43 28 -81t73 -69t99.5 -63t109 -71.5t99.5 -85.5t73 -113.5t28 -147.5q0 -204 -157 -333t-416 -129q-232 0 -410 71z" />
<glyph unicode="T" horiz-adv-x="1267" d="M127 1034l43 363h887l309 20l-55 -383q-64 -37 -172 -37h-27l-37 215l-145 -4l-180 -1015l141 -23l-6 -29q-21 -96 -58 -141h-612l43 170l123 23l178 995l-153 -4l-82 -187h-27q-48 0 -96.5 10t-73.5 27z" />
<glyph unicode="U" horiz-adv-x="1439" d="M135 375q0 59 8 108l129 721l-114 23l6 28q22 99 57 142h592l-43 -170l-129 -23l-135 -760q-8 -33 -8 -65q0 -160 235 -160q124 0 192.5 47.5t88.5 155.5l139 782l-149 23l4 28q13 90 59 142h471l-43 -170l-100 -23l-131 -739q-41 -238 -183.5 -361.5t-408.5 -123.5 q-271 0 -404 102.5t-133 292.5z" />
<glyph unicode="V" horiz-adv-x="1353" d="M104 1227l7 28q22 99 57 142h596l-43 -170l-131 -23l110 -780h17l389 780l-141 23l6 28q22 99 57 142h479l-43 -170l-86 -23l-653 -1204l-315 -20l-209 1224z" />
<glyph unicode="W" horiz-adv-x="2115" d="M121 1227l6 28q22 99 57 142h582l-43 -170l-129 -23l68 -788h18l352 788l-133 23l6 28q21 98 58 142h616l-43 -170l-119 -23l76 -788h16l346 788l-143 23l6 28q19 95 60 142h471l-43 -170l-86 -23l-598 -1202l-320 -22l-92 870h-16l-396 -848l-317 -22l-162 1224z" />
<glyph unicode="X" horiz-adv-x="1384" d="M-80 0l43 170l92 23l451 509l-262 502l-101 23l7 28q22 103 57 142h616l-43 -170l-114 -23l159 -344l256 344l-135 23l6 28q22 99 58 142h479l-45 -170l-86 -23l-426 -502l272 -509l101 -23l-5 -29q-13 -89 -59 -141h-627l43 170l125 23l-170 352l-278 -352l139 -23 l-6 -29q-21 -98 -57 -141h-490z" />
<glyph unicode="Y" horiz-adv-x="1202" d="M88 1227l6 28q19 95 58 142h598l-45 -170l-132 -23l117 -450h17l280 450l-141 23l6 28q22 100 59 142h455l-43 -170l-80 -23l-459 -651l-65 -360l143 -23l-6 -29q-20 -94 -59 -141h-613l45 170l123 23l64 360l-230 651z" />
<glyph unicode="Z" horiz-adv-x="1308" d="M-4 0l27 166l796 1034h-344l-96 -258h-27q-112 0 -170 39l49 436l304 -20h784l-29 -166l-854 -1047l430 25l90 258h29q46 0 94 -11t76 -28l-37 -428h-1122z" />
<glyph unicode="[" horiz-adv-x="700" d="M-8 -291l299 1708h522l-51 -186l-184 -10l-234 -1315l201 -10l-49 -187h-504z" />
<glyph unicode="\" horiz-adv-x="770" d="M150 1448q38 28 101 42.5t114 14.5l270 -1556q-34 -29 -99 -43.5t-116 -14.5z" />
<glyph unicode="]" horiz-adv-x="700" d="M-119 -291l51 187l185 10l231 1315l-201 10l50 186h503l-297 -1708h-522z" />
<glyph unicode="^" horiz-adv-x="1009" d="M29 498l454 745h279l196 -745q-20 -13 -63.5 -22t-81.5 -9l-244 467l-397 -467q-41 0 -83.5 9t-59.5 22z" />
<glyph unicode="_" d="M-119 -98h1024v-283h-1024v283z" />
<glyph unicode="`" d="M313 1495h385q-4 -235 -4 -354q-79 -35 -155 -35z" />
<glyph unicode="a" horiz-adv-x="1150" d="M47 352q0 155 40 283.5t106 210.5t148.5 127t170.5 45q130 0 223 -107l64 93q35 6 88 6q114 0 188 -23l-141 -737q75 0 147 14l15 -33q-46 -119 -126.5 -185t-191.5 -66q-138 0 -162 141h-10q-73 -82 -135 -111.5t-131 -29.5q-128 0 -210.5 99t-82.5 273zM389 346 q0 -145 105 -145q58 0 110 45l98 530q-90 25 -157 25q-20 0 -46 -34.5t-51 -92t-42 -146t-17 -182.5z" />
<glyph unicode="b" horiz-adv-x="1130" d="M57 39l217 1216l-34 27q-48 35 -64 82q2 13 8 44.5t9 47.5q75 7 227.5 19.5t230.5 19.5q-49 -293 -102 -582h12q58 55 112.5 80t117.5 25q131 0 211.5 -98.5t80.5 -276.5q0 -149 -37 -274.5t-99.5 -208.5t-144.5 -129.5t-173 -46.5q-163 0 -254 84l-76 -78 q-62 0 -130 12.5t-112 36.5zM426 223q89 -28 154 -28q31 0 69 65.5t65 171.5t27 207q0 83 -26.5 115t-79.5 32q-62 0 -119 -51z" />
<glyph unicode="c" horiz-adv-x="839" d="M47 383q0 179 68.5 324t192 228t278.5 83q129 0 239 -35q0 -109 -47 -252q-52 0 -137.5 19.5t-108.5 19.5q-15 0 -38 -23t-47 -64t-41 -108.5t-17 -144.5q0 -102 41.5 -153.5t118.5 -51.5q24 0 56.5 12.5t131.5 61.5l29 -104q-90 -114 -179 -164.5t-190 -50.5 q-161 0 -255.5 104.5t-94.5 298.5z" />
<glyph unicode="d" horiz-adv-x="1163" d="M47 352q0 155 39.5 283.5t105.5 210.5t148 127t170 45q64 0 117.5 -20t111.5 -74l62 333l-33 27q-48 38 -66 82l17 92l461 37l-230 -1245q76 0 148 14l14 -33q-47 -119 -127.5 -185t-191.5 -66q-138 0 -166 141h-13q-74 -82 -137 -111.5t-135 -29.5q-134 0 -214.5 101.5 t-80.5 270.5zM389 346q0 -79 27 -112t80 -33q66 0 116 45l99 530q-106 25 -166 25q-20 0 -46 -34.5t-51 -91.5t-42 -145.5t-17 -183.5z" />
<glyph unicode="e" horiz-adv-x="999" d="M47 383q0 181 68.5 326.5t190.5 227t274 81.5q180 0 276 -93t96 -259q0 -48 -16 -123l-545 -82q-4 -16 -4 -55q0 -92 53.5 -141.5t151.5 -49.5q25 0 71 16t183 78l28 -104q-192 -225 -421 -225q-184 0 -295 105t-111 298zM401 596l252 59q2 20 2 64q0 69 -27 102t-85 33 q-31 0 -43 -5.5t-25 -25.5q-57 -75 -74 -227z" />
<glyph unicode="f" horiz-adv-x="739" d="M-129 -309l45 229q41 -8 90 -8q45 0 78 10q20 6 20 37q0 222 23 369l70 469l-35 12q-36 13 -52.5 23t-23.5 26l25 139h122l5 23q17 98 57 182.5t99 150.5t141.5 104t177.5 38q97 0 159 -35l-43 -229q-52 8 -139 8q-74 0 -119 -10q-20 -5 -20 -29v-203h213 q0 -127 -35 -202h-194l-97 -609q-39 -242 -155.5 -386t-280.5 -144q-72 0 -131 35z" />
<glyph unicode="g" horiz-adv-x="1005" d="M-90 -268q0 66 53 119.5t207 134.5v14q-59 53 -59 115t42.5 108.5t157.5 93.5q-114 29 -174.5 104t-60.5 185q0 190 127.5 301t324.5 111q108 0 181 -21h327l-24 -157q-48 -45 -123 -45v-13q24 -43 24 -108q0 -175 -124.5 -277t-309.5 -102q-27 0 -47 2q-45 -36 -45 -68 q0 -15 10 -28l205 -21q160 -15 236.5 -78t76.5 -180q0 -165 -173 -269t-449 -104q-383 0 -383 183zM184 -188q0 -37 49 -54.5t164 -17.5q126 0 217 31q15 19 15 45q0 32 -26.5 52t-98.5 30l-221 28q-58 -39 -78.5 -63t-20.5 -51zM387 582q0 -119 94 -119q27 0 39 4 q14 5 33 34.5t36 92.5t17 137q0 119 -90 119q-25 0 -41 -4q-14 -3 -34 -33.5t-37 -93.5t-17 -137z" />
<glyph unicode="h" horiz-adv-x="1214" d="M51 6l221 1251l-32 27q-48 38 -66 82l19 92l458 37l-106 -610h12q89 74 150.5 103.5t136.5 29.5q118 0 187 -57.5t69 -165.5q0 -30 -8 -70l-91 -475q73 0 148 14l14 -33q-50 -133 -134 -192t-183 -59q-86 0 -133.5 26t-77.5 84l123 641q-39 27 -90 27q-74 0 -154 -45 l-125 -703q-73 -20 -170 -20q-96 0 -168 16z" />
<glyph unicode="i" horiz-adv-x="651" d="M70 90l131 690l-33 27q-50 41 -66 82l19 92l461 37l-146 -768q69 0 148 14l14 -33q-52 -133 -135 -192t-182 -59q-86 0 -133.5 26t-77.5 84zM262 1300q0 80 58.5 129.5t146.5 49.5q80 0 123 -41t43 -111q0 -77 -57.5 -126.5t-147.5 -49.5q-81 0 -123.5 40.5t-42.5 108.5z " />
<glyph unicode="j" horiz-adv-x="622" d="M-113 -389l172 369l142 800l-33 27q-53 42 -66 82l17 92l463 37l-156 -873q-23 -123 -55.5 -193.5t-108.5 -146.5l-260 -256q-77 7 -115 62zM262 1300q0 80 58 129.5t145 49.5q80 0 123 -41t43 -111q0 -77 -56.5 -126.5t-146.5 -49.5q-82 0 -124 40t-42 109z" />
<glyph unicode="k" horiz-adv-x="1116" d="M51 6l221 1251l-32 27q-48 38 -66 82l19 92l458 37l-178 -1008h12q146 103 204.5 155t82.5 97q-47 96 -61 199v43q72 37 168 37q206 0 206 -162q0 -76 -55 -145t-213 -164l94 -297q65 0 133 14l15 -33q-41 -123 -116 -187t-157 -64q-56 0 -90 16t-63 51l-98 332 q-9 -4 -46 -28.5t-45 -28.5l-55 -312q-70 -20 -168 -20q-92 0 -170 16z" />
<glyph unicode="l" horiz-adv-x="641" d="M61 90l220 1167l-33 27q-48 38 -66 82l19 92l461 37l-236 -1245q74 0 149 14l15 -33q-34 -91 -88.5 -149t-110.5 -80t-121 -22q-85 0 -132 26t-77 84z" />
<glyph unicode="m" horiz-adv-x="1757" d="M63 6l136 774l-33 27q-50 41 -66 82l21 92l430 37l-23 -150h13q102 89 165 119.5t146 30.5q181 0 229 -152q105 90 169 121t145 31q112 0 179.5 -58.5t67.5 -164.5q0 -30 -8 -70l-90 -475q69 0 148 14l14 -33q-49 -132 -133 -191.5t-184 -59.5q-86 0 -133.5 26t-75.5 84 l120 641q-34 27 -83 27q-61 0 -140 -45l-125 -703q-80 -22 -170 -22q-87 0 -168 18l134 725q-30 27 -82 27q-67 0 -140 -45l-125 -703q-73 -20 -170 -20q-90 0 -168 16z" />
<glyph unicode="n" horiz-adv-x="1220" d="M63 6l136 774l-33 27q-50 41 -66 82l21 92l430 37l-23 -150h13q99 86 164.5 118t142.5 32q118 0 187 -57.5t69 -165.5q0 -40 -6 -70l-92 -475q72 0 147 14l14 -33q-49 -133 -133.5 -192t-183.5 -59q-84 0 -131.5 26t-77.5 84l121 641q-34 27 -88 27q-71 0 -148 -45 l-125 -703q-76 -20 -172 -20q-97 0 -166 16z" />
<glyph unicode="o" horiz-adv-x="1079" d="M47 420q0 263 152.5 430.5t400.5 167.5q204 0 318 -118t114 -322q0 -265 -152.5 -431.5t-400.5 -166.5q-204 0 -318 119t-114 321zM389 362q0 -178 127 -178q28 0 49 6q18 6 46 60.5t53.5 162t25.5 224.5q0 93 -32 134.5t-95 41.5q-28 0 -49 -6q-18 -6 -46 -60.5 t-53.5 -161.5t-25.5 -223z" />
<glyph unicode="p" horiz-adv-x="1142" d="M-10 -424l209 1204l-31 27q-51 46 -66 82l19 92l432 37l-21 -131h13q120 131 252 131t215.5 -97t83.5 -276q0 -150 -38.5 -277.5t-102 -211t-145 -130t-169.5 -46.5q-133 0 -233 73l-82 -471q-73 -22 -170 -22q-88 0 -166 16zM438 223q86 -26 152 -26q32 0 69.5 61.5 t65 167.5t27.5 215q0 83 -26.5 114t-80.5 31q-63 0 -117 -51z" />
<glyph unicode="q" horiz-adv-x="1130" d="M47 352q0 153 39 281t104 211t148 128.5t172 45.5q68 0 123.5 -23.5t109.5 -83.5l62 93q37 6 90 6q114 0 188 -23l-247 -1405q-67 -22 -170 -22q-90 0 -168 16l90 512h-13q-61 -61 -111.5 -84.5t-121.5 -23.5q-136 0 -215.5 104.5t-79.5 267.5zM389 346 q0 -80 25.5 -115.5t79.5 -35.5q68 0 122 51l93 530q-95 25 -164 25q-20 0 -46 -34.5t-51 -91.5t-42 -145.5t-17 -183.5z" />
<glyph unicode="r" horiz-adv-x="833" d="M63 6l136 774l-33 27q-50 41 -66 82l21 92l430 37l-27 -189h11q94 121 140 155t107 34q40 0 72 -14l-37 -320q-128 -33 -305 -47l-111 -627q-73 -20 -172 -20q-94 0 -166 16z" />
<glyph unicode="s" horiz-adv-x="817" d="M23 29q4 138 40 239q114 -63 250 -63q21 0 41 4q9 2 18 21.5t9 43.5q0 31 -29.5 60t-71.5 57t-84.5 62t-72 89t-29.5 124q0 67 30.5 130t85.5 112.5t140 79.5t187 30q133 0 241 -31q-3 -118 -43 -239q-46 20 -111.5 32.5t-113.5 12.5q-17 0 -37 -5q-11 -3 -20 -23t-9 -44 q0 -23 21.5 -47t53 -43.5t69 -49t69 -61.5t53 -83.5t21.5 -112.5q0 -151 -119 -247.5t-307 -96.5q-167 0 -282 49z" />
<glyph unicode="t" horiz-adv-x="747" d="M100 211q0 37 9 78l88 506l-88 41l8 45q63 103 189.5 187.5t273.5 119.5h24l-35 -191h207q0 -136 -35 -202h-206l-89 -494q-4 -20 -4 -25q0 -43 62 -43t147 31l29 -98q-153 -186 -336 -186q-118 0 -181 61t-63 170z" />
<glyph unicode="u" horiz-adv-x="1210" d="M94 201q0 25 8 75l95 504l-33 27q-50 41 -66 82l21 92l461 37l-144 -754q34 -24 88 -24q62 0 144 43l125 704q75 21 176 21q87 0 161 -15l-131 -743q88 0 148 14l14 -33q-50 -133 -134 -192t-183 -59q-78 0 -120.5 35t-57.5 108h-11q-100 -82 -166 -112.5t-143 -30.5 q-116 0 -184 57t-68 164z" />
<glyph unicode="v" horiz-adv-x="1019" d="M12 770q91 248 297 248q75 0 115.5 -34.5t60.5 -102.5l60 -527h14l197 422l-105 98l2 11q13 67 52 112h366v-77l-500 -920l-284 -20l-142 778q-42 0 -120 -21z" />
<glyph unicode="w" horiz-adv-x="1562" d="M31 770q96 248 291 248q76 0 116 -33.5t60 -103.5l41 -510h14l203 450l-15 150q123 37 322 37l49 -637h14l183 405l-103 98l2 11q13 65 52 112h350v-77l-482 -920l-260 -20l-57 561h-16l-258 -541l-258 -20l-115 778q-43 0 -121 -21z" />
<glyph unicode="x" horiz-adv-x="1056" d="M-35 0v78l371 411l-141 269q-60 0 -127 -21l-15 33q50 128 115 188t160 60q70 0 113 -30t81 -107l115 -242l117 141l-92 94l2 11q13 68 49 112h374v-77l-368 -408l143 -272q59 0 127 20l15 -33q-54 -130 -116 -188.5t-153 -58.5q-76 0 -121.5 35.5t-78.5 101.5l-119 243 l-119 -143l92 -94l-2 -10q-13 -67 -51 -113h-371z" />
<glyph unicode="y" horiz-adv-x="1042" d="M25 770q96 248 299 248q73 0 114.5 -34.5t61.5 -102.5l49 -596h14l211 491l-104 98l2 11q13 65 51 112h362v-77l-571 -1125l-31 -246q-192 0 -313 50v49q15 52 54 116.5t165 235.5h-113l-116 758q-45 0 -123 -21z" />
<glyph unicode="z" horiz-adv-x="907" d="M-23 88l541 614h-414q3 168 52 316l200 -21h574v-114l-508 -553l391 -101q0 -51 -12 -130t-25 -119l-618 63l-60 -63q-35 13 -71 43.5t-50 64.5z" />
<glyph unicode="{" horiz-adv-x="679" d="M-16 -53q0 59 36 126.5t78.5 116.5t78.5 101.5t36 85.5q0 52 -35.5 72t-124.5 20l35 190q195 0 195 105q0 38 -23.5 93.5t-47.5 119.5t-24 121q0 165 139.5 252.5t409.5 87.5q0 -97 -39 -183l-168 -20q-28 -36 -28 -82q0 -51 44 -175.5t44 -189.5q0 -87 -64.5 -142.5 t-191.5 -74.5v-18q99 -18 141.5 -63.5t42.5 -118.5q0 -41 -24 -89.5t-58.5 -92.5t-68.5 -87t-58 -87.5t-24 -80.5q0 -19 6 -43l188 -20q-4 -45 -21 -97t-36 -85q-207 0 -322.5 65t-115.5 193z" />
<glyph unicode="|" horiz-adv-x="614" d="M152 -451v1946q78 16 155 16q78 0 156 -16v-1946q-78 -16 -156 -16q-73 0 -155 16z" />
<glyph unicode="}" horiz-adv-x="679" d="M-61 -311q0 98 38 182l170 20q27 39 27 82q0 51 -44 175.5t-44 189.5q0 87 64.5 142.5t191.5 74.5v18q-98 18 -141 64t-43 119q0 41 24 89.5t58 92t68.5 86.5t58.5 87.5t24 80.5q0 19 -6 43l-188 20q4 45 21 97.5t36 85.5q207 0 322.5 -65t115.5 -193q0 -59 -36 -126.5 t-78.5 -116.5t-78.5 -101.5t-36 -85.5q0 -52 36 -72.5t124 -20.5l-35 -190q-195 0 -195 -105q0 -38 23.5 -93.5t47 -119t23.5 -120.5q0 -165 -139 -252.5t-409 -87.5z" />
<glyph unicode="~" horiz-adv-x="1009" d="M27 367q78 150 136 229t100.5 104t96.5 25q45 0 110 -27.5t126 -55.5t96 -28q37 0 67.5 24.5t106.5 115.5l113 -56q-60 -115 -106 -186.5t-85 -109.5t-70 -51t-71 -13q-56 0 -175.5 55.5t-156.5 55.5q-38 0 -72 -27.5t-104 -112.5z" />
<glyph unicode="&#xa1;" horiz-adv-x="657" d="M-51 -420l274 957h207l-65 -936q-150 -21 -416 -21zM182 811q0 92 57.5 149.5t153.5 57.5q76 0 118 -41.5t42 -106.5q0 -95 -59.5 -153t-153.5 -58q-71 0 -114.5 42.5t-43.5 109.5z" />
<glyph unicode="&#xa2;" horiz-adv-x="1140" d="M139 399q0 176 78 311.5t214 208t306 72.5h13l139 365q63 0 104 -33l-133 -340q68 -6 123 -20q-6 -123 -47 -250q-60 13 -153 24t-146 11q-17 0 -42.5 -21t-51.5 -58t-44 -98.5t-18 -130.5q0 -95 53 -144.5t148 -49.5q117 0 207 63l8 -131q-57 -80 -153 -126t-218 -46 h-39l-135 -356q-63 0 -104 33l133 346q-112 39 -177 136.5t-65 233.5z" />
<glyph unicode="&#xa3;" horiz-adv-x="1140" d="M12 137q75 69 250 113q66 61 66 190q0 22 -4 58h-252q0 71 20 118h215q-7 41 -28 144h-160q0 74 22 119h119q-4 27 -4 82q2 199 127 327.5t350 128.5q156 0 246 -69t90 -177q0 -92 -59 -150t-146 -67q-116 23 -116 117q0 56 35.5 89t99.5 36q0 26 -45.5 49t-112.5 23 q-50 0 -74 -8q-12 -4 -25.5 -24.5t-25.5 -71t-12 -117.5q0 -73 18 -168h293q0 -67 -25 -119h-245l22 -144h199q0 -64 -23 -118h-170q-5 -71 -42.5 -126t-125.5 -112l-2 -10l261 -12l57 147h31q40 0 84 -10.5t67 -22.5l-41 -372l-721 53l-186 -53q-27 62 -27 157z" />
<glyph unicode="&#xa4;" horiz-adv-x="1136" d="M57 158l138 141q-74 104 -74 252q0 150 74 260l-138 141q53 95 146 150l149 -156q91 49 217 49q119 0 217 -49l150 156q90 -53 147 -150l-139 -141q74 -107 74 -252q0 -151 -72 -260l137 -141q-57 -97 -147 -150l-150 154q-96 -47 -217 -47q-130 0 -217 47l-149 -154 q-93 55 -146 150zM393 557q0 -113 46.5 -158t131.5 -45q86 0 131.5 46.5t45.5 154.5q0 60 -14.5 101.5t-41.5 62.5t-55.5 29t-65.5 8q-82 0 -130 -43t-48 -156z" />
<glyph unicode="&#xa5;" horiz-adv-x="1140" d="M88 342q0 65 23 119h249l17 94l-17 49h-223q0 70 21 119h164l-154 481l-70 23l4 28q16 90 60 142h545l-45 -170l-115 -23l100 -448h17l270 448l-115 23l6 28q13 87 58 142h405l-45 -170l-74 -23l-325 -481h168q0 -71 -25 -119h-225l-33 -49l-16 -94h250q0 -68 -23 -119 h-248l-26 -149l139 -23l-6 -29q-17 -92 -60 -141h-600l45 170l129 23l27 149h-252z" />
<glyph unicode="&#xa6;" horiz-adv-x="614" d="M152 356q87 17 155 17q73 0 156 -17v-807q-78 -16 -156 -16q-73 0 -155 16v807zM152 688v807q82 16 155 16q78 0 156 -16v-807q-78 -16 -156 -16q-73 0 -155 16z" />
<glyph unicode="&#xa7;" horiz-adv-x="1112" d="M31 -96q0 89 60.5 147t146.5 66q116 -20 116 -115q0 -54 -37.5 -87.5t-99.5 -35.5q3 -27 45 -50.5t107 -23.5q41 0 82 9q19 7 44 51t25 106q0 68 -36 118.5t-126.5 103t-259.5 118.5q22 139 66 232l233 190q-62 60 -89 124.5t-27 152.5q0 77 30 149t85 130t143.5 93 t195.5 35q156 0 245 -69.5t89 -178.5q0 -89 -60.5 -147t-146.5 -66q-55 9 -86 38t-31 77q0 54 37.5 88t100.5 35q-3 27 -45 50.5t-107 23.5q-46 0 -82 -8q-19 -7 -45 -52t-26 -106q0 -68 36 -118.5t127 -103t260 -118.5q-27 -144 -65 -232l-236 -190q63 -60 91 -125t28 -152 q0 -77 -30 -149t-85 -130t-143.5 -93t-195.5 -35q-156 0 -245 69.5t-89 178.5zM373 526q107 -44 213 -106l141 127q-107 44 -213 106z" />
<glyph unicode="&#xa8;" d="M156 1266q0 77 48.5 125.5t121.5 48.5q63 0 97 -40.5t34 -109.5q0 -76 -45.5 -125t-120.5 -49q-64 0 -99.5 41.5t-35.5 108.5zM567 1266q0 77 47.5 125.5t120.5 48.5q63 0 98 -40.5t35 -109.5q0 -76 -46 -125t-122 -49q-64 0 -98.5 41.5t-34.5 108.5z" />
<glyph unicode="&#xa9;" horiz-adv-x="1519" d="M68 598q0 238 108 425t292 287.5t411 100.5q141 0 258 -47.5t195 -131t120.5 -196.5t42.5 -243q0 -144 -40 -271.5t-114 -225.5t-174 -169.5t-223.5 -109t-259.5 -37.5q-188 0 -329.5 82t-214 221t-72.5 315zM197 598q0 -139 55 -251.5t167 -181.5t265 -69q201 0 355 84 t241 242.5t88 370.5q0 104 -32.5 194.5t-93.5 158.5t-154.5 107t-208.5 39q-201 0 -355 -83t-240.5 -241t-86.5 -370zM442 645q0 182 118.5 296t318.5 114q105 0 200 -25l-24 -207q-35 -18 -99 -18h-14l-20 127q-40 12 -95 12q-25 0 -41 -4q-35 -8 -76.5 -91.5t-41.5 -207.5 q0 -178 139 -178q39 0 55 4l43 119h17q61 0 96 -21l-14 -176q-37 -21 -99.5 -34t-122.5 -13q-155 0 -247.5 81.5t-92.5 221.5z" />
<glyph unicode="&#xaa;" horiz-adv-x="788" d="M98 938q0 215 101 343t233 128q95 0 152 -74l47 70q143 0 207 -19l-101 -520q58 0 101 13l10 -27q-34 -83 -90 -129.5t-133 -46.5q-102 0 -125 94h-13q-46 -55 -87 -74.5t-89 -19.5q-92 0 -152.5 70.5t-60.5 191.5zM360 942q0 -92 62 -92q41 0 74 33l65 342 q-49 18 -92 18q-15 0 -33.5 -21t-35.5 -58t-28.5 -96t-11.5 -126z" />
<glyph unicode="&#xab;" horiz-adv-x="946" d="M14 479l9 51l366 373l178 -18l-209 -377l74 -387l-172 -17zM432 479l8 51l367 373l176 -18l-207 -377l76 -387l-172 -17z" />
<glyph unicode="&#xac;" d="M66 520v301h892v-633h-299v332h-593z" />
<glyph unicode="&#xad;" horiz-adv-x="628" d="M49 381l51 283h478l-52 -283h-477z" />
<glyph unicode="&#xae;" horiz-adv-x="821" d="M131 1008q0 182 117 295.5t293 113.5q141 0 226 -86.5t85 -224.5q0 -182 -116.5 -296t-291.5 -114q-143 0 -228 88t-85 224zM203 1010q0 -106 64 -176t177 -70q151 0 243.5 92.5t92.5 249.5q0 105 -63.5 174.5t-175.5 69.5q-151 0 -244.5 -92.5t-93.5 -247.5zM303 879 l14 51l29 6l43 242l-33 6l2 8q8 28 17 43h170q121 0 121 -96q0 -32 -17.5 -57t-50.5 -35l45 -152q-33 -23 -78 -23l-76 140l-24 -4l-12 -72l30 -6l-2 -8q-9 -31 -16 -43h-162zM475 1063l45 2q16 6 27.5 25.5t11.5 44.5q0 43 -41 43h-22z" />
<glyph unicode="&#xaf;" d="M236 1149l43 242h509l-43 -242h-509z" />
<glyph unicode="&#xb0;" horiz-adv-x="751" d="M111 1073q0 157 104 250.5t270 93.5q136 0 218.5 -75t82.5 -209q0 -157 -103 -251t-269 -94q-136 0 -219.5 75.5t-83.5 209.5zM319 1073q0 -57 31.5 -89t85.5 -32q66 0 104 46t38 135q0 58 -31 89t-84 31q-68 0 -106 -45.5t-38 -134.5z" />
<glyph unicode="&#xb1;" horiz-adv-x="1193" d="M182 0v256h828v-256h-828zM182 594v280h271v267h286v-267h271v-280h-271v-266h-286v266h-271z" />
<glyph unicode="&#xb2;" horiz-adv-x="845" d="M104 946l35 217q138 79 215.5 129t128.5 94.5t67.5 79.5t16.5 80q0 62 -37 96.5t-102 34.5q-83 0 -135 -49l-45 70q112 170 317 170q154 0 236 -72t82 -190q0 -121 -93 -212t-315 -188v-14q226 16 260 16q51 0 77 -25.5t26 -70.5q0 -64 -47 -166h-687z" />
<glyph unicode="&#xb3;" horiz-adv-x="845" d="M162 1079q223 32 298 61t75 91q0 47 -34 68.5t-112 21.5h-115l27 162h115q87 0 128.5 23t41.5 77q0 98 -119 98q-86 0 -145 -53l-43 70q57 83 134.5 126.5t196.5 43.5q139 0 214 -62.5t75 -169.5q0 -82 -50.5 -136.5t-135.5 -72.5v-16q131 -49 131 -186 q0 -141 -157.5 -215.5t-506.5 -83.5q-18 59 -18 153z" />
<glyph unicode="&#xb4;" d="M244 1141l121 354h403l-369 -387q-85 0 -155 33z" />
<glyph unicode="&#xb6;" horiz-adv-x="1112" d="M43 -111q0 96 62 157.5t151 70.5q119 -19 119 -115q0 -56 -40.5 -87t-101.5 -34q5 -28 43 -47.5t97 -19.5q66 0 114 28q24 14 50.5 77t46.5 177l75 441l-153 10q-167 10 -256.5 100.5t-89.5 241.5q0 237 153 372.5t424 135.5h465l-47 -160l-121 -23l-180 -1024 q-95 -534 -504 -534q-140 0 -223.5 64.5t-83.5 168.5z" />
<glyph unicode="&#xb7;" horiz-adv-x="487" d="M59 467q0 103 60.5 165t156.5 62q72 0 117 -45.5t45 -118.5q0 -99 -60 -162t-157 -63q-77 0 -119.5 45t-42.5 117z" />
<glyph unicode="&#xb8;" d="M309 -334q168 10 168 74q0 26 -23 43.5t-81 30.5l8 36l98 84h94l-18 -36q133 -52 133 -154q0 -93 -95 -143t-269 -52q-15 55 -15 117z" />
<glyph unicode="&#xb9;" horiz-adv-x="845" d="M156 946l37 139l198 15l103 581l-80 15q-61 12 -74 35l20 116h441l-131 -747l168 -15l-4 -14q-17 -90 -50 -125h-628z" />
<glyph unicode="&#xba;" horiz-adv-x="808" d="M115 989q0 184 114.5 303t296.5 119q148 0 237 -85t89 -226q0 -190 -118 -307t-294 -117q-153 0 -239 88.5t-86 224.5zM375 952q0 -123 92 -123q17 0 35 7q13 3 33.5 39.5t38.5 108.5t18 153q0 120 -92 120q-23 0 -35 -6q-14 -3 -34.5 -40t-38 -108.5t-17.5 -150.5z" />
<glyph unicode="&#xbb;" horiz-adv-x="946" d="M-39 123l207 377l-76 387l172 16l248 -375l-8 -51l-367 -373zM377 123l209 377l-74 387l170 16l248 -375l-8 -51l-367 -373z" />
<glyph unicode="&#xbc;" horiz-adv-x="2062" d="M84 496l37 139l198 14l103 582l-80 14q-61 12 -74 35l21 117h440l-131 -748l168 -14l-4 -14q-18 -91 -49 -125h-629zM514 -70l842 1565q51 -5 106.5 -28t83.5 -54l-841 -1565q-45 3 -103.5 27t-87.5 55zM1206 166l43 250l350 506q51 0 112.5 -9t94.5 -22l-362 -526h192 l39 223h262l-36 -209h81l-6 -37q-19 -120 -55 -176h-57l-29 -166h-283l29 166h-375z" />
<glyph unicode="&#xbd;" horiz-adv-x="2062" d="M84 496l37 139l198 14l103 582l-80 14q-61 12 -74 35l21 117h440l-131 -748l168 -14l-4 -14q-18 -91 -49 -125h-629zM514 -70l842 1565q51 -5 106.5 -28t83.5 -54l-841 -1565q-45 3 -103.5 27t-87.5 55zM1180 0l34 217q138 79 215.5 129t128.5 94.5t67.5 79.5t16.5 80 q0 62 -37 96.5t-102 34.5q-83 0 -135 -49l-45 70q112 170 317 170q153 0 235.5 -72.5t82.5 -190.5q0 -121 -93 -211.5t-315 -187.5v-14q226 16 260 16q51 0 77 -25.5t26 -70.5q0 -64 -47 -166h-686z" />
<glyph unicode="&#xbe;" horiz-adv-x="2062" d="M90 629q223 32 298 61t75 90q0 47 -34 68.5t-112 21.5h-114l26 162h115q87 0 128.5 23.5t41.5 77.5q0 98 -119 98q-86 0 -145 -53l-43 69q57 83 135 126.5t197 43.5q140 0 214 -62t74 -169q0 -82 -50.5 -136.5t-135.5 -72.5v-16q131 -49 131 -187q0 -141 -157 -215.5 t-506 -83.5q-19 62 -19 154zM514 -70l842 1565q51 -5 106.5 -28t83.5 -54l-841 -1565q-45 3 -103.5 27t-87.5 55zM1206 166l43 250l350 506q51 0 112.5 -9t94.5 -22l-362 -526h192l39 223h262l-36 -209h81l-6 -37q-19 -120 -55 -176h-57l-29 -166h-283l29 166h-375z" />
<glyph unicode="&#xbf;" horiz-adv-x="952" d="M-35 -90q0 159 116 263.5t337 133.5l76 232h135l133 -195q-8 -27 -28.5 -62t-43.5 -57q-160 -17 -250 -79.5t-90 -159.5q0 -70 42 -116t120 -46q105 0 178 70l74 -70q-149 -244 -434 -244q-171 0 -268 91t-97 239zM416 811q0 91 58 149t155 58q75 0 116 -42t41 -108 q0 -95 -58.5 -152t-152.5 -57q-72 0 -115.5 42t-43.5 110z" />
<glyph unicode="&#xc0;" horiz-adv-x="1327" d="M-131 0l45 170l76 23l661 1204l342 20l209 -1224l98 -23l-6 -29q-17 -93 -57 -141h-600l43 170l149 23l-47 301l-387 -25l-139 -276l162 -23l-4 -29q-17 -92 -60 -141h-485zM487 653h271l-56 387h-18zM502 1720h370l41 -235q-82 -39 -172 -39z" />
<glyph unicode="&#xc1;" horiz-adv-x="1327" d="M-131 0l45 170l76 23l661 1204l342 20l209 -1224l98 -23l-6 -29q-17 -93 -57 -141h-600l43 170l149 23l-47 301l-387 -25l-139 -276l162 -23l-4 -29q-17 -92 -60 -141h-485zM487 653h271l-56 387h-18zM713 1485l123 235h385l-334 -274q-100 0 -174 39z" />
<glyph unicode="&#xc2;" horiz-adv-x="1327" d="M-131 0l45 170l76 23l661 1204l342 20l209 -1224l98 -23l-6 -29q-17 -93 -57 -141h-600l43 170l149 23l-47 301l-387 -25l-139 -276l162 -23l-4 -29q-17 -92 -60 -141h-485zM487 653h271l-56 387h-18zM524 1495l211 227h258l131 -227q-39 -43 -98 -49l-190 115l-213 -115 q-25 2 -53.5 15.5t-45.5 33.5z" />
<glyph unicode="&#xc3;" horiz-adv-x="1327" d="M-131 0l45 170l76 23l661 1204l342 20l209 -1224l98 -23l-6 -29q-17 -93 -57 -141h-600l43 170l149 23l-47 301l-387 -25l-139 -276l162 -23l-4 -29q-17 -92 -60 -141h-485zM453 1497q62 110 105.5 164t74 69t74.5 15q40 0 138 -41t124 -41q25 0 46 17t77 81l90 -59 q-92 -157 -142.5 -204.5t-113.5 -47.5q-40 0 -139.5 42t-120.5 42q-27 0 -48.5 -16.5t-76.5 -77.5zM487 653h271l-56 387h-18z" />
<glyph unicode="&#xc4;" horiz-adv-x="1327" d="M-131 0l45 170l76 23l661 1204l342 20l209 -1224l98 -23l-6 -29q-17 -93 -57 -141h-600l43 170l149 23l-47 301l-387 -25l-139 -276l162 -23l-4 -29q-17 -92 -60 -141h-485zM487 653h271l-56 387h-18zM504 1575q0 63 45 102t113 39q59 0 88.5 -32t29.5 -89 q0 -62 -41.5 -101.5t-109.5 -39.5q-60 0 -92.5 33.5t-32.5 87.5zM887 1575q0 63 44 102t111 39q59 0 90 -32t31 -89q0 -62 -42.5 -101.5t-110.5 -39.5q-58 0 -90.5 33.5t-32.5 87.5z" />
<glyph unicode="&#xc5;" horiz-adv-x="1327" d="M-131 0l45 170l76 23l655 1191q-78 44 -78 144q0 96 81 154.5t208 58.5q115 0 174.5 -47.5t59.5 -132.5q0 -104 -95 -164l207 -1204l98 -23l-6 -29q-17 -93 -57 -141h-600l43 170l149 23l-47 301l-387 -25l-139 -276l162 -23l-4 -29q-17 -92 -60 -141h-485zM487 653h271 l-56 387h-18zM733 1534q0 -31 23.5 -48.5t60.5 -17.5q109 0 109 86q0 31 -23.5 48.5t-60.5 17.5q-109 0 -109 -86z" />
<glyph unicode="&#xc6;" horiz-adv-x="1902" d="M-131 0l45 170l104 23l531 1011l-137 23l6 26q22 99 59 144h1129l280 20l-35 -391q-70 -39 -174 -39h-24l-49 213h-279l-72 -401h418q0 -119 -35 -207l-178 16h-239l-74 -424l330 25l86 217h28q47 0 95.5 -11t74.5 -28l-30 -387h-1111l44 170l122 23l76 415h-366 l-207 -415l153 -23l-4 -29q-13 -89 -59 -141h-508zM588 799h305l72 401h-177z" />
<glyph unicode="&#xc7;" horiz-adv-x="1273" d="M76 596q0 241 96.5 427t275.5 290t412 104q88 0 197.5 -15t195.5 -40l-41 -404q-65 -36 -172 -36h-24l-47 252q-86 28 -191 28q-48 0 -73 -4q-18 -3 -46.5 -29t-62 -80t-62 -124t-48 -172t-19.5 -213q0 -192 72.5 -285.5t205.5 -93.5q62 0 113 14l80 246h29 q110 0 170 -37l-25 -346q-73 -47 -189 -72.5t-218 -25.5q-294 0 -461.5 166.5t-167.5 449.5zM428 -334q168 10 168 74q0 26 -23 43.5t-81 30.5l8 36l98 84h94l-18 -36q133 -52 133 -154q0 -93 -95 -143t-270 -52q-14 52 -14 117z" />
<glyph unicode="&#xc8;" horiz-adv-x="1255" d="M-37 0l43 170l123 23l180 1011l-141 23l6 28q22 100 59 142h725l281 20l-35 -399q-70 -39 -174 -39h-24l-50 221h-278l-72 -401h418q0 -119 -35 -207l-180 16h-238l-73 -424l331 25l84 219h29q46 0 94.5 -10t75.5 -27l-31 -391h-1118zM418 1720h370l41 -235 q-82 -39 -172 -39z" />
<glyph unicode="&#xc9;" horiz-adv-x="1255" d="M-37 0l43 170l123 23l180 1011l-141 23l6 28q22 100 59 142h725l281 20l-35 -399q-70 -39 -174 -39h-24l-50 221h-278l-72 -401h418q0 -119 -35 -207l-180 16h-238l-73 -424l331 25l84 219h29q46 0 94.5 -10t75.5 -27l-31 -391h-1118zM561 1485l123 235h385l-334 -274 q-100 0 -174 39z" />
<glyph unicode="&#xca;" horiz-adv-x="1255" d="M-37 0l43 170l123 23l180 1011l-141 23l6 28q22 100 59 142h725l281 20l-35 -399q-70 -39 -174 -39h-24l-50 221h-278l-72 -401h418q0 -119 -35 -207l-180 16h-238l-73 -424l331 25l84 219h29q46 0 94.5 -10t75.5 -27l-31 -391h-1118zM424 1495l211 227h258l131 -227 q-39 -43 -98 -49l-191 115l-213 -115q-59 4 -98 49z" />
<glyph unicode="&#xcb;" horiz-adv-x="1255" d="M-37 0l43 170l123 23l180 1011l-141 23l6 28q22 100 59 142h725l281 20l-35 -399q-70 -39 -174 -39h-24l-50 221h-278l-72 -401h418q0 -119 -35 -207l-180 16h-238l-73 -424l331 25l84 219h29q46 0 94.5 -10t75.5 -27l-31 -391h-1118zM397 1575q0 63 45 102t113 39 q59 0 89 -32t30 -89q0 -62 -42 -101.5t-110 -39.5q-60 0 -92.5 33.5t-32.5 87.5zM780 1575q0 63 44.5 102t111.5 39q59 0 90 -32t31 -89q0 -62 -42.5 -101.5t-111.5 -39.5q-58 0 -90.5 33.5t-32.5 87.5z" />
<glyph unicode="&#xcc;" horiz-adv-x="755" d="M-37 0l43 170l123 23l180 1011l-141 23l6 28q22 100 59 142h613l-43 -170l-125 -23l-180 -1011l141 -23l-6 -29q-21 -96 -58 -141h-612zM240 1720h370l41 -235q-82 -39 -172 -39z" />
<glyph unicode="&#xcd;" horiz-adv-x="755" d="M-37 0l43 170l123 23l180 1011l-141 23l6 28q22 100 59 142h613l-43 -170l-125 -23l-180 -1011l141 -23l-6 -29q-21 -96 -58 -141h-612zM371 1485l123 235h385l-334 -274q-100 0 -174 39z" />
<glyph unicode="&#xce;" horiz-adv-x="755" d="M-37 0l43 170l123 23l180 1011l-141 23l6 28q22 100 59 142h613l-43 -170l-125 -23l-180 -1011l141 -23l-6 -29q-21 -96 -58 -141h-612zM233 1495l211 227h258l132 -227q-39 -43 -99 -49l-190 115l-213 -115q-25 2 -53.5 15.5t-45.5 33.5z" />
<glyph unicode="&#xcf;" horiz-adv-x="755" d="M-37 0l43 170l123 23l180 1011l-141 23l6 28q22 100 59 142h613l-43 -170l-125 -23l-180 -1011l141 -23l-6 -29q-21 -96 -58 -141h-612zM244 1575q0 63 41 102t102 39q53 0 81 -32t28 -89q0 -62 -38.5 -101.5t-101.5 -39.5q-54 0 -83 33.5t-29 87.5zM592 1575 q0 63 40 102t101 39q53 0 81 -32t28 -89q0 -62 -38.5 -101.5t-101.5 -39.5q-53 0 -81.5 33.5t-28.5 87.5z" />
<glyph unicode="&#xd0;" horiz-adv-x="1464" d="M-37 0l43 170l123 23l74 419h-109q0 108 35 191h109l71 401l-141 23l6 28q17 95 59 142h576q142 0 255.5 -35t196.5 -105t128 -181.5t45 -258.5q0 -179 -61.5 -330.5t-172 -258.5t-270 -167.5t-348.5 -60.5h-619zM500 203l194 -13q63 12 125.5 69.5t111.5 145.5t80 211 t31 254q0 174 -74 251t-198 77h-92l-72 -395h127q0 -104 -37 -191h-123z" />
<glyph unicode="&#xd1;" horiz-adv-x="1519" d="M-37 0l43 170l121 23l199 1011l-142 23l4 28q13 89 60 142h454l390 -822h18l109 629l-162 23l4 28q13 90 59 142h508l-43 -170l-119 -23l-231 -1204l-213 -20l-496 962h-18l-131 -749l162 -23l-7 -27q-22 -98 -59 -143h-510zM580 1497q62 110 105.5 164t74 69t74.5 15 q40 0 138 -41t124 -41q25 0 46 17t77 81l90 -59q-92 -157 -142.5 -204.5t-113.5 -47.5q-40 0 -139.5 42t-120.5 42q-27 0 -48.5 -16.5t-76.5 -77.5z" />
<glyph unicode="&#xd2;" horiz-adv-x="1454" d="M76 592q0 183 59.5 339t162 261.5t242 165t296.5 59.5q269 0 428 -158.5t159 -453.5q0 -184 -59.5 -340t-162 -261.5t-241 -164.5t-294.5 -59q-271 0 -430.5 157.5t-159.5 454.5zM467 518q0 -166 67 -242.5t175 -76.5q50 0 86 8q12 3 32.5 23.5t48 56.5t54.5 94t50 128 t37.5 167t14.5 203q0 166 -66.5 242.5t-174.5 76.5q-50 0 -86 -8q-15 -4 -42 -30.5t-61.5 -83.5t-64 -131.5t-50 -187.5t-20.5 -239zM532 1720h371l41 -235q-82 -39 -172 -39z" />
<glyph unicode="&#xd3;" horiz-adv-x="1454" d="M76 592q0 183 59.5 339t162 261.5t242 165t296.5 59.5q269 0 428 -158.5t159 -453.5q0 -184 -59.5 -340t-162 -261.5t-241 -164.5t-294.5 -59q-271 0 -430.5 157.5t-159.5 454.5zM467 518q0 -166 67 -242.5t175 -76.5q50 0 86 8q12 3 32.5 23.5t48 56.5t54.5 94t50 128 t37.5 167t14.5 203q0 166 -66.5 242.5t-174.5 76.5q-50 0 -86 -8q-15 -4 -42 -30.5t-61.5 -83.5t-64 -131.5t-50 -187.5t-20.5 -239zM727 1485l123 235h385l-334 -274q-100 0 -174 39z" />
<glyph unicode="&#xd4;" horiz-adv-x="1454" d="M76 592q0 183 59.5 339t162 261.5t242 165t296.5 59.5q269 0 428 -158.5t159 -453.5q0 -184 -59.5 -340t-162 -261.5t-241 -164.5t-294.5 -59q-271 0 -430.5 157.5t-159.5 454.5zM467 518q0 -166 67 -242.5t175 -76.5q50 0 86 8q12 3 32.5 23.5t48 56.5t54.5 94t50 128 t37.5 167t14.5 203q0 166 -66.5 242.5t-174.5 76.5q-50 0 -86 -8q-15 -4 -42 -30.5t-61.5 -83.5t-64 -131.5t-50 -187.5t-20.5 -239zM537 1495l211 227h258l131 -227q-39 -43 -99 -49l-190 115l-213 -115q-59 4 -98 49z" />
<glyph unicode="&#xd5;" horiz-adv-x="1454" d="M76 592q0 183 59.5 339t162 261.5t242 165t296.5 59.5q269 0 428 -158.5t159 -453.5q0 -184 -59.5 -340t-162 -261.5t-241 -164.5t-294.5 -59q-271 0 -430.5 157.5t-159.5 454.5zM467 518q0 -166 67 -242.5t175 -76.5q50 0 86 8q12 3 32.5 23.5t48 56.5t54.5 94t50 128 t37.5 167t14.5 203q0 166 -66.5 242.5t-174.5 76.5q-50 0 -86 -8q-15 -4 -42 -30.5t-61.5 -83.5t-64 -131.5t-50 -187.5t-20.5 -239zM500 1497q62 110 105.5 164t74 69t74.5 15q40 0 138 -41t124 -41q25 0 46 17t77 81l90 -59q-92 -157 -142.5 -204.5t-113.5 -47.5 q-40 0 -139.5 42t-120.5 42q-27 0 -48.5 -16.5t-76.5 -77.5z" />
<glyph unicode="&#xd6;" horiz-adv-x="1454" d="M76 592q0 183 59.5 339t162 261.5t242 165t296.5 59.5q269 0 428 -158.5t159 -453.5q0 -184 -59.5 -340t-162 -261.5t-241 -164.5t-294.5 -59q-271 0 -430.5 157.5t-159.5 454.5zM467 518q0 -166 67 -242.5t175 -76.5q50 0 86 8q12 3 32.5 23.5t48 56.5t54.5 94t50 128 t37.5 167t14.5 203q0 166 -66.5 242.5t-174.5 76.5q-50 0 -86 -8q-15 -4 -42 -30.5t-61.5 -83.5t-64 -131.5t-50 -187.5t-20.5 -239zM524 1575q0 63 45 102t113 39q59 0 89 -32t30 -89q0 -62 -42 -101.5t-110 -39.5q-60 0 -92.5 33.5t-32.5 87.5zM907 1575q0 63 44.5 102 t111.5 39q59 0 90 -32t31 -89q0 -62 -42.5 -101.5t-111.5 -39.5q-58 0 -90.5 33.5t-32.5 87.5z" />
<glyph unicode="&#xd7;" horiz-adv-x="1193" d="M160 264l239 240l-239 244l196 196l242 -242l240 242l198 -196l-241 -244l241 -240l-198 -198l-240 241l-242 -241z" />
<glyph unicode="&#xd8;" horiz-adv-x="1454" d="M78 -100l182 231q-164 161 -164 461q0 183 59.5 339t162 261.5t242 165t296.5 59.5q203 0 348 -94l176 223q26 -3 49.5 -17.5t30.5 -33.5l-182 -229q166 -163 166 -461q0 -184 -60 -340t-162.5 -261.5t-241 -164.5t-294.5 -59q-207 0 -352 92l-176 -224q-26 3 -50 18 t-30 34zM487 518q0 -45 7 -92l518 655q-63 117 -201 117q-50 0 -86 -8q-15 -4 -42 -30.5t-61.5 -83.5t-64 -131.5t-50 -187.5t-20.5 -239zM526 315q62 -116 203 -116q50 0 86 8q15 4 41.5 30.5t61 83.5t64.5 131.5t50.5 187.5t20.5 239q0 31 -9 92z" />
<glyph unicode="&#xd9;" horiz-adv-x="1439" d="M135 375q0 59 8 108l129 721l-114 23l6 28q22 99 57 142h592l-43 -170l-129 -23l-135 -760q-8 -33 -8 -65q0 -160 235 -160q124 0 192.5 47.5t88.5 155.5l139 782l-149 23l4 28q13 90 59 142h471l-43 -170l-100 -23l-131 -739q-41 -238 -183.5 -361.5t-408.5 -123.5 q-271 0 -404 102.5t-133 292.5zM592 1720h371l41 -235q-82 -39 -173 -39z" />
<glyph unicode="&#xda;" horiz-adv-x="1439" d="M135 375q0 59 8 108l129 721l-114 23l6 28q22 99 57 142h592l-43 -170l-129 -23l-135 -760q-8 -33 -8 -65q0 -160 235 -160q124 0 192.5 47.5t88.5 155.5l139 782l-149 23l4 28q13 90 59 142h471l-43 -170l-100 -23l-131 -739q-41 -238 -183.5 -361.5t-408.5 -123.5 q-271 0 -404 102.5t-133 292.5zM764 1485l123 235h385l-334 -274q-100 0 -174 39z" />
<glyph unicode="&#xdb;" horiz-adv-x="1439" d="M135 375q0 59 8 108l129 721l-114 23l6 28q22 99 57 142h592l-43 -170l-129 -23l-135 -760q-8 -33 -8 -65q0 -160 235 -160q124 0 192.5 47.5t88.5 155.5l139 782l-149 23l4 28q13 90 59 142h471l-43 -170l-100 -23l-131 -739q-41 -238 -183.5 -361.5t-408.5 -123.5 q-271 0 -404 102.5t-133 292.5zM598 1495l211 227h258l131 -227q-39 -43 -98 -49l-191 115l-213 -115q-59 4 -98 49z" />
<glyph unicode="&#xdc;" horiz-adv-x="1439" d="M135 375q0 59 8 108l129 721l-114 23l6 28q22 99 57 142h592l-43 -170l-129 -23l-135 -760q-8 -33 -8 -65q0 -160 235 -160q124 0 192.5 47.5t88.5 155.5l139 782l-149 23l4 28q13 90 59 142h471l-43 -170l-100 -23l-131 -739q-41 -238 -183.5 -361.5t-408.5 -123.5 q-271 0 -404 102.5t-133 292.5zM571 1575q0 63 45 102t113 39q59 0 89 -32t30 -89q0 -62 -42 -101.5t-110 -39.5q-60 0 -92.5 33.5t-32.5 87.5zM954 1575q0 63 44.5 102t111.5 39q59 0 90 -32t31 -89q0 -62 -42.5 -101.5t-111.5 -39.5q-58 0 -90.5 33.5t-32.5 87.5z" />
<glyph unicode="&#xdd;" horiz-adv-x="1202" d="M88 1227l6 28q19 95 58 142h598l-45 -170l-132 -23l117 -450h17l280 450l-141 23l6 28q22 100 59 142h455l-43 -170l-80 -23l-459 -651l-65 -360l143 -23l-6 -29q-20 -94 -59 -141h-613l45 170l123 23l64 360l-230 651zM664 1485l122 235h385l-333 -274q-100 0 -174 39z " />
<glyph unicode="&#xde;" horiz-adv-x="1255" d="M-37 0l43 170l123 23l180 1011l-141 23l6 28q22 99 57 142h480l-47 -262h79q476 0 476 -379q0 -207 -144.5 -327.5t-415.5 -145.5l-149 -13l-51 -270h-496zM543 453l166 10q63 27 107 111t44 190q0 86 -38 133t-113 47h-78z" />
<glyph unicode="&#xdf;" horiz-adv-x="1157" d="M-8 -295l196 1124q-34 14 -58 44.5t-30 70.5l119 72l2 10q17 97 61.5 180t114.5 148.5t172 103t224 37.5q186 0 286.5 -73t100.5 -193q0 -54 -18.5 -99t-50.5 -80t-65 -62.5t-72 -61t-61 -62.5q-10 -38 -10 -61q0 -52 26.5 -120t58.5 -124t58.5 -130.5t26.5 -139.5 q0 -138 -110.5 -223.5t-272.5 -85.5q-126 0 -221 36q0 51 12.5 118.5t30.5 113.5q82 -43 203 -43q8 0 17 21.5t9 47.5q0 33 -23.5 79.5t-51 87.5t-51 102.5t-23.5 120.5q0 52 22.5 102t55.5 87.5t72.5 76t72.5 69t55.5 66t22.5 68.5q0 55 -40 83.5t-136 28.5q-81 0 -139 -20 q-11 -4 -16.5 -16t-8.5 -50q-1 -13 -5 -89t-9.5 -135.5t-14.5 -113.5l-207 -1153q-62 -10 -114 -10q-127 0 -211 47z" />
<glyph unicode="&#xe0;" horiz-adv-x="1150" d="M47 352q0 155 40 283.5t106 210.5t148.5 127t170.5 45q130 0 223 -107l64 93q35 6 88 6q114 0 188 -23l-141 -737q75 0 147 14l15 -33q-46 -119 -126.5 -185t-191.5 -66q-138 0 -162 141h-10q-73 -82 -135 -111.5t-131 -29.5q-128 0 -210.5 99t-82.5 273zM344 1495h385 q-4 -235 -4 -354q-79 -35 -156 -35zM389 346q0 -145 105 -145q58 0 110 45l98 530q-90 25 -157 25q-20 0 -46 -34.5t-51 -92t-42 -146t-17 -182.5z" />
<glyph unicode="&#xe1;" horiz-adv-x="1150" d="M47 352q0 155 40 283.5t106 210.5t148.5 127t170.5 45q130 0 223 -107l64 93q35 6 88 6q114 0 188 -23l-141 -737q75 0 147 14l15 -33q-46 -119 -126.5 -185t-191.5 -66q-138 0 -162 141h-10q-73 -82 -135 -111.5t-131 -29.5q-128 0 -210.5 99t-82.5 273zM389 346 q0 -145 105 -145q58 0 110 45l98 530q-90 25 -157 25q-20 0 -46 -34.5t-51 -92t-42 -146t-17 -182.5zM508 1141l121 354h403l-368 -387q-86 0 -156 33z" />
<glyph unicode="&#xe2;" horiz-adv-x="1150" d="M47 352q0 155 40 283.5t106 210.5t148.5 127t170.5 45q130 0 223 -107l64 93q35 6 88 6q114 0 188 -23l-141 -737q75 0 147 14l15 -33q-46 -119 -126.5 -185t-191.5 -66q-138 0 -162 141h-10q-73 -82 -135 -111.5t-131 -29.5q-128 0 -210.5 99t-82.5 273zM326 1165 l252 330h272l127 -330q-51 -45 -117 -45l-182 180l-232 -180q-58 0 -120 45zM389 346q0 -145 105 -145q58 0 110 45l98 530q-90 25 -157 25q-20 0 -46 -34.5t-51 -92t-42 -146t-17 -182.5z" />
<glyph unicode="&#xe3;" horiz-adv-x="1150" d="M47 352q0 155 40 283.5t106 210.5t148.5 127t170.5 45q130 0 223 -107l64 93q35 6 88 6q114 0 188 -23l-141 -737q75 0 147 14l15 -33q-46 -119 -126.5 -185t-191.5 -66q-138 0 -162 141h-10q-73 -82 -135 -111.5t-131 -29.5q-128 0 -210.5 99t-82.5 273zM289 1159 q63 114 107.5 172t78 77t78.5 19q40 0 137 -42t123 -42q27 0 49.5 18.5t77.5 80.5l98 -56q-94 -162 -147.5 -215t-118.5 -53q-40 0 -138.5 43t-121.5 43q-27 0 -49.5 -18t-75.5 -82zM389 346q0 -145 105 -145q58 0 110 45l98 530q-90 25 -157 25q-20 0 -46 -34.5t-51 -92 t-42 -146t-17 -182.5z" />
<glyph unicode="&#xe4;" horiz-adv-x="1150" d="M47 352q0 155 40 283.5t106 210.5t148.5 127t170.5 45q130 0 223 -107l64 93q35 6 88 6q114 0 188 -23l-141 -737q75 0 147 14l15 -33q-46 -119 -126.5 -185t-191.5 -66q-138 0 -162 141h-10q-73 -82 -135 -111.5t-131 -29.5q-128 0 -210.5 99t-82.5 273zM322 1266 q0 77 48.5 125.5t121.5 48.5q63 0 97 -40.5t34 -109.5q0 -76 -45.5 -125t-120.5 -49q-64 0 -99.5 41.5t-35.5 108.5zM389 346q0 -145 105 -145q58 0 110 45l98 530q-90 25 -157 25q-20 0 -46 -34.5t-51 -92t-42 -146t-17 -182.5zM733 1266q0 77 47.5 125.5t120.5 48.5 q63 0 98 -40.5t35 -109.5q0 -76 -46 -125t-122 -49q-64 0 -98.5 41.5t-34.5 108.5z" />
<glyph unicode="&#xe5;" horiz-adv-x="1150" d="M47 352q0 155 40 283.5t106 210.5t148.5 127t170.5 45q130 0 223 -107l64 93q35 6 88 6q114 0 188 -23l-141 -737q75 0 147 14l15 -33q-46 -119 -126.5 -185t-191.5 -66q-138 0 -162 141h-10q-73 -82 -135 -111.5t-131 -29.5q-128 0 -210.5 99t-82.5 273zM389 346 q0 -145 105 -145q58 0 110 45l98 530q-90 25 -157 25q-20 0 -46 -34.5t-51 -92t-42 -146t-17 -182.5zM412 1296q0 99 72.5 159.5t193.5 60.5q106 0 160.5 -50t54.5 -139q0 -99 -74.5 -159t-193.5 -60q-104 0 -158.5 48.5t-54.5 139.5zM559 1300q0 -32 21.5 -51.5t58.5 -19.5 q102 0 102 94q0 32 -20 52t-57 20q-105 0 -105 -95z" />
<glyph unicode="&#xe6;" horiz-adv-x="1486" d="M8 217q0 128 79.5 198.5t252.5 98.5l227 37q8 35 26 92.5t30 75.5l-9 8q-69 -13 -176.5 -25t-136.5 -12q-137 0 -137 131q0 88 55 176h590q25 -29 31 -55q99 76 235 76q175 0 270 -93t95 -259q0 -41 -17 -121l-544 -88q-5 -20 -5 -51q0 -92 53.5 -141.5t151.5 -49.5 q25 0 71 16t183 78l29 -104q-190 -225 -422 -225q-206 0 -309 124q-132 -77 -203.5 -100.5t-159.5 -23.5q-122 0 -191 60.5t-69 176.5zM322 260q0 -45 25 -70.5t73 -25.5q61 0 151 33q-28 66 -28 153q0 35 2 58l-187 -35q-36 -49 -36 -113zM887 600l254 43q2 27 2 76 q0 69 -27.5 102t-85.5 33q-31 0 -42 -5.5t-25 -25.5q-55 -72 -76 -223z" />
<glyph unicode="&#xe7;" horiz-adv-x="839" d="M47 383q0 179 68.5 324t192 228t278.5 83q129 0 239 -35q0 -109 -47 -252q-52 0 -137.5 19.5t-108.5 19.5q-15 0 -38 -23t-47 -64t-41 -108.5t-17 -144.5q0 -102 41.5 -153.5t118.5 -51.5q24 0 56.5 12.5t131.5 61.5l29 -104q-90 -114 -179 -164.5t-190 -50.5 q-161 0 -255.5 104.5t-94.5 298.5zM150 -334q167 10 167 74q0 26 -23 43.5t-81 30.5l8 36l98 84h95l-19 -36q133 -52 133 -154q0 -93 -95 -143t-269 -52q-14 52 -14 117z" />
<glyph unicode="&#xe8;" horiz-adv-x="999" d="M47 383q0 181 68.5 326.5t190.5 227t274 81.5q180 0 276 -93t96 -259q0 -48 -16 -123l-545 -82q-4 -16 -4 -55q0 -92 53.5 -141.5t151.5 -49.5q25 0 71 16t183 78l28 -104q-192 -225 -421 -225q-184 0 -295 105t-111 298zM293 1495h385q-4 -235 -4 -354q-79 -35 -156 -35 zM401 596l252 59q2 20 2 64q0 69 -27 102t-85 33q-31 0 -43 -5.5t-25 -25.5q-57 -75 -74 -227z" />
<glyph unicode="&#xe9;" horiz-adv-x="999" d="M47 383q0 181 68.5 326.5t190.5 227t274 81.5q180 0 276 -93t96 -259q0 -48 -16 -123l-545 -82q-4 -16 -4 -55q0 -92 53.5 -141.5t151.5 -49.5q25 0 71 16t183 78l28 -104q-192 -225 -421 -225q-184 0 -295 105t-111 298zM401 596l252 59q2 20 2 64q0 69 -27 102t-85 33 q-31 0 -43 -5.5t-25 -25.5q-57 -75 -74 -227zM469 1141l121 354h403l-368 -387q-86 0 -156 33z" />
<glyph unicode="&#xea;" horiz-adv-x="999" d="M47 383q0 181 68.5 326.5t190.5 227t274 81.5q180 0 276 -93t96 -259q0 -48 -16 -123l-545 -82q-4 -16 -4 -55q0 -92 53.5 -141.5t151.5 -49.5q25 0 71 16t183 78l28 -104q-192 -225 -421 -225q-184 0 -295 105t-111 298zM254 1165l252 330h272l127 -330 q-51 -45 -117 -45l-182 180l-231 -180q-59 0 -121 45zM401 596l252 59q2 20 2 64q0 69 -27 102t-85 33q-31 0 -43 -5.5t-25 -25.5q-57 -75 -74 -227z" />
<glyph unicode="&#xeb;" horiz-adv-x="999" d="M47 383q0 181 68.5 326.5t190.5 227t274 81.5q180 0 276 -93t96 -259q0 -48 -16 -123l-545 -82q-4 -16 -4 -55q0 -92 53.5 -141.5t151.5 -49.5q25 0 71 16t183 78l28 -104q-192 -225 -421 -225q-184 0 -295 105t-111 298zM242 1266q0 77 48.5 125.5t121.5 48.5 q63 0 97 -40.5t34 -109.5q0 -76 -45.5 -125t-120.5 -49q-64 0 -99.5 41.5t-35.5 108.5zM401 596l252 59q2 20 2 64q0 69 -27 102t-85 33q-31 0 -43 -5.5t-25 -25.5q-57 -75 -74 -227zM653 1266q0 77 47.5 125.5t120.5 48.5q63 0 98 -40.5t35 -109.5q0 -76 -46 -125t-122 -49 q-64 0 -98.5 41.5t-34.5 108.5z" />
<glyph unicode="&#xec;" horiz-adv-x="651" d="M70 90l131 690l-33 27q-50 41 -66 82l19 92l461 37l-146 -768q69 0 148 14l14 -33q-52 -133 -135 -192t-182 -59q-86 0 -133.5 26t-77.5 84zM145 1495h385q-4 -235 -4 -354q-79 -35 -155 -35z" />
<glyph unicode="&#xed;" horiz-adv-x="651" d="M70 90l131 690l-33 27q-50 41 -66 82l19 92l461 37l-146 -768q69 0 148 14l14 -33q-52 -133 -135 -192t-182 -59q-86 0 -133.5 26t-77.5 84zM270 1141l121 354h404l-369 -387q-86 0 -156 33z" />
<glyph unicode="&#xee;" horiz-adv-x="651" d="M70 90l131 690l-33 27q-50 41 -66 82l19 92l461 37l-146 -768q69 0 148 14l14 -33q-52 -133 -135 -192t-182 -59q-86 0 -133.5 26t-77.5 84zM104 1167l226 328h245l113 -328q-45 -45 -104 -45l-164 181l-207 -181q-54 0 -109 45z" />
<glyph unicode="&#xef;" horiz-adv-x="651" d="M70 90l131 690l-33 27q-50 41 -66 82l19 92l461 37l-146 -768q69 0 148 14l14 -33q-52 -133 -135 -192t-182 -59q-86 0 -133.5 26t-77.5 84zM119 1266q0 77 42 125.5t107 48.5q57 0 88 -40.5t31 -109.5q0 -76 -41 -125t-106 -49q-59 0 -90 41.5t-31 108.5zM449 1266 q0 78 42.5 126t108.5 48q57 0 88 -40.5t31 -109.5q0 -76 -41.5 -125t-108.5 -49q-58 0 -89 41.5t-31 108.5z" />
<glyph unicode="&#xf0;" horiz-adv-x="1081" d="M47 414q0 169 66.5 307t186.5 217.5t269 79.5h54q-27 75 -78 162l-164 -95q-48 36 -62 99l164 92q-35 50 -75 102l188 117q57 -40 113 -90l159 92q45 -34 62 -98l-135 -78q239 -263 239 -647q0 -203 -67.5 -359.5t-196 -245.5t-299.5 -89q-200 0 -312 119.5t-112 314.5z M389 360q0 -170 117 -170q22 0 47 7q18 3 40.5 39t44 96t36 155t14.5 201q0 37 -8 107q-72 14 -133 14q-20 0 -47 -33.5t-52 -90t-42 -144t-17 -181.5z" />
<glyph unicode="&#xf1;" horiz-adv-x="1220" d="M63 6l136 774l-33 27q-50 41 -66 82l21 92l430 37l-23 -150h13q99 86 164.5 118t142.5 32q118 0 187 -57.5t69 -165.5q0 -40 -6 -70l-92 -475q72 0 147 14l14 -33q-49 -133 -133.5 -192t-183.5 -59q-84 0 -131.5 26t-77.5 84l121 641q-34 27 -88 27q-71 0 -148 -45 l-125 -703q-76 -20 -172 -20q-97 0 -166 16zM328 1159q63 114 107.5 172t78 77t78.5 19q40 0 137 -42t123 -42q27 0 49.5 18.5t77.5 80.5l98 -56q-94 -162 -147.5 -215t-118.5 -53q-40 0 -138.5 43t-121.5 43q-27 0 -49.5 -18t-75.5 -82z" />
<glyph unicode="&#xf2;" horiz-adv-x="1079" d="M47 420q0 263 152.5 430.5t400.5 167.5q204 0 318 -118t114 -322q0 -265 -152.5 -431.5t-400.5 -166.5q-204 0 -318 119t-114 321zM324 1495h385q-4 -235 -4 -354q-79 -35 -156 -35zM389 362q0 -178 127 -178q28 0 49 6q18 6 46 60.5t53.5 162t25.5 224.5q0 93 -32 134.5 t-95 41.5q-28 0 -49 -6q-18 -6 -46 -60.5t-53.5 -161.5t-25.5 -223z" />
<glyph unicode="&#xf3;" horiz-adv-x="1079" d="M47 420q0 263 152.5 430.5t400.5 167.5q204 0 318 -118t114 -322q0 -265 -152.5 -431.5t-400.5 -166.5q-204 0 -318 119t-114 321zM389 362q0 -178 127 -178q28 0 49 6q18 6 46 60.5t53.5 162t25.5 224.5q0 93 -32 134.5t-95 41.5q-28 0 -49 -6q-18 -6 -46 -60.5 t-53.5 -161.5t-25.5 -223zM498 1141l120 354h404l-369 -387q-85 0 -155 33z" />
<glyph unicode="&#xf4;" horiz-adv-x="1079" d="M47 420q0 263 152.5 430.5t400.5 167.5q204 0 318 -118t114 -322q0 -265 -152.5 -431.5t-400.5 -166.5q-204 0 -318 119t-114 321zM289 1165l252 330h272l127 -330q-51 -45 -117 -45l-182 180l-231 -180q-59 0 -121 45zM389 362q0 -178 127 -178q28 0 49 6q18 6 46 60.5 t53.5 162t25.5 224.5q0 93 -32 134.5t-95 41.5q-28 0 -49 -6q-18 -6 -46 -60.5t-53.5 -161.5t-25.5 -223z" />
<glyph unicode="&#xf5;" horiz-adv-x="1079" d="M47 420q0 263 152.5 430.5t400.5 167.5q204 0 318 -118t114 -322q0 -265 -152.5 -431.5t-400.5 -166.5q-204 0 -318 119t-114 321zM246 1159q63 114 107.5 172t78 77t78.5 19q40 0 137 -42t123 -42q27 0 49.5 18.5t77.5 80.5l98 -56q-94 -162 -147.5 -215t-118.5 -53 q-40 0 -138.5 43t-121.5 43q-27 0 -49.5 -18t-75.5 -82zM389 362q0 -178 127 -178q28 0 49 6q18 6 46 60.5t53.5 162t25.5 224.5q0 93 -32 134.5t-95 41.5q-28 0 -49 -6q-18 -6 -46 -60.5t-53.5 -161.5t-25.5 -223z" />
<glyph unicode="&#xf6;" horiz-adv-x="1079" d="M47 420q0 263 152.5 430.5t400.5 167.5q204 0 318 -118t114 -322q0 -265 -152.5 -431.5t-400.5 -166.5q-204 0 -318 119t-114 321zM266 1266q0 77 48.5 125.5t121.5 48.5q63 0 97 -40.5t34 -109.5q0 -76 -45.5 -125t-120.5 -49q-64 0 -99.5 41.5t-35.5 108.5zM389 362 q0 -178 127 -178q28 0 49 6q18 6 46 60.5t53.5 162t25.5 224.5q0 93 -32 134.5t-95 41.5q-28 0 -49 -6q-18 -6 -46 -60.5t-53.5 -161.5t-25.5 -223zM678 1266q0 77 47.5 125.5t120.5 48.5q63 0 98 -40.5t35 -109.5q0 -76 -46 -125t-122 -49q-64 0 -98.5 41.5t-34.5 108.5z " />
<glyph unicode="&#xf7;" horiz-adv-x="1177" d="M158 418v160h860v-160h-860zM424 147q0 79 43.5 124.5t120.5 45.5q74 0 118 -45.5t44 -124.5q0 -76 -43 -121.5t-119 -45.5q-80 0 -122 45t-42 122zM424 848q0 79 43.5 124.5t120.5 45.5q74 0 118 -45.5t44 -124.5q0 -76 -43 -122t-119 -46q-80 0 -122 45.5t-42 122.5z " />
<glyph unicode="&#xf8;" horiz-adv-x="1087" d="M-35 -141l195 239q-115 115 -115 322q0 263 152.5 430.5t400.5 167.5q146 0 254 -68l190 234q19 -2 40 -15t28 -30l-195 -240q115 -115 115 -321q0 -265 -152.5 -431.5t-400.5 -166.5q-150 0 -256 67l-188 -233q-19 2 -40 15t-28 30zM387 377l289 356q-28 80 -115 80 q-28 0 -49 -6q-12 -4 -32 -38t-40.5 -87.5t-36 -136t-16.5 -168.5zM399 264q25 -80 115 -80q28 0 49 6q17 6 44.5 58.5t53 156t27.5 216.5z" />
<glyph unicode="&#xf9;" horiz-adv-x="1210" d="M94 201q0 25 8 75l95 504l-33 27q-50 41 -66 82l21 92l461 37l-144 -754q34 -24 88 -24q62 0 144 43l125 704q75 21 176 21q87 0 161 -15l-131 -743q88 0 148 14l14 -33q-50 -133 -134 -192t-183 -59q-78 0 -120.5 35t-57.5 108h-11q-100 -82 -166 -112.5t-143 -30.5 q-116 0 -184 57t-68 164zM397 1495h385q-4 -235 -4 -354q-79 -35 -155 -35z" />
<glyph unicode="&#xfa;" horiz-adv-x="1210" d="M94 201q0 25 8 75l95 504l-33 27q-50 41 -66 82l21 92l461 37l-144 -754q34 -24 88 -24q62 0 144 43l125 704q75 21 176 21q87 0 161 -15l-131 -743q88 0 148 14l14 -33q-50 -133 -134 -192t-183 -59q-78 0 -120.5 35t-57.5 108h-11q-100 -82 -166 -112.5t-143 -30.5 q-116 0 -184 57t-68 164zM586 1141l121 354h403l-369 -387q-85 0 -155 33z" />
<glyph unicode="&#xfb;" horiz-adv-x="1210" d="M94 201q0 25 8 75l95 504l-33 27q-50 41 -66 82l21 92l461 37l-144 -754q34 -24 88 -24q62 0 144 43l125 704q75 21 176 21q87 0 161 -15l-131 -743q88 0 148 14l14 -33q-50 -133 -134 -192t-183 -59q-78 0 -120.5 35t-57.5 108h-11q-100 -82 -166 -112.5t-143 -30.5 q-116 0 -184 57t-68 164zM362 1165l252 330h273l127 -330q-51 -45 -117 -45l-182 180l-232 -180q-59 0 -121 45z" />
<glyph unicode="&#xfc;" horiz-adv-x="1210" d="M94 201q0 25 8 75l95 504l-33 27q-50 41 -66 82l21 92l461 37l-144 -754q34 -24 88 -24q62 0 144 43l125 704q75 21 176 21q87 0 161 -15l-131 -743q88 0 148 14l14 -33q-50 -133 -134 -192t-183 -59q-78 0 -120.5 35t-57.5 108h-11q-100 -82 -166 -112.5t-143 -30.5 q-116 0 -184 57t-68 164zM358 1266q0 77 48.5 125.5t121.5 48.5q63 0 97 -40.5t34 -109.5q0 -76 -45 -125t-120 -49q-64 0 -100 41.5t-36 108.5zM770 1266q0 77 47.5 125.5t120.5 48.5q63 0 98 -40.5t35 -109.5q0 -76 -46 -125t-122 -49q-64 0 -98.5 41.5t-34.5 108.5z" />
<glyph unicode="&#xfd;" horiz-adv-x="1042" d="M25 770q96 248 299 248q73 0 114.5 -34.5t61.5 -102.5l49 -596h14l211 491l-104 98l2 11q13 65 51 112h362v-77l-571 -1125l-31 -246q-192 0 -313 50v49q15 52 54 116.5t165 235.5h-113l-116 758q-45 0 -123 -21zM496 1141l120 354h404l-369 -387q-85 0 -155 33z" />
<glyph unicode="&#xfe;" horiz-adv-x="1122" d="M-31 -424l295 1681l-35 27q-49 38 -63 82l16 92l461 37l-106 -586h12q57 60 108.5 84.5t118.5 24.5q131 0 215 -97t84 -276q0 -150 -38.5 -277.5t-102.5 -211t-146 -130t-170 -46.5q-128 0 -231 73l-80 -471q-73 -22 -174 -22q-86 0 -164 16zM418 223q86 -26 151 -26 q32 0 69.5 62t65 167.5t27.5 214.5q0 83 -26 114t-80 31q-63 0 -117 -51z" />
<glyph unicode="&#xff;" horiz-adv-x="1042" d="M25 770q96 248 299 248q73 0 114.5 -34.5t61.5 -102.5l49 -596h14l211 491l-104 98l2 11q13 65 51 112h362v-77l-571 -1125l-31 -246q-192 0 -313 50v49q15 52 54 116.5t165 235.5h-113l-116 758q-45 0 -123 -21zM268 1266q0 77 48.5 125.5t121.5 48.5q63 0 97 -40.5 t34 -109.5q0 -76 -45.5 -125t-120.5 -49q-64 0 -99.5 41.5t-35.5 108.5zM680 1266q0 77 47.5 125.5t120.5 48.5q63 0 98 -40.5t35 -109.5q0 -76 -46 -125t-122 -49q-64 0 -98.5 41.5t-34.5 108.5z" />
<glyph unicode="&#x152;" horiz-adv-x="2039" d="M76 592q0 186 59.5 343t160 261.5t234 162.5t281.5 58q107 0 200 -32.5t146 -90.5l21 103h565l280 20l-34 -391q-70 -39 -172 -39h-27l-49 213h-279l-71 -401h417q0 -121 -34 -207l-179 16h-239l-74 -424l332 25l84 217h28q46 0 94 -11t76 -28l-30 -387h-936l10 68 q-120 -88 -285 -88q-271 0 -425 160t-154 452zM467 518q0 -163 63.5 -242t167.5 -79q51 0 97 14q22 6 50 39t58.5 95t56 141.5t42 190t16.5 228.5q0 152 -65 223.5t-169 71.5q-50 0 -84 -10q-17 -4 -44 -32t-60 -85t-61.5 -132.5t-48 -187t-19.5 -235.5z" />
<glyph unicode="&#x153;" horiz-adv-x="1624" d="M47 420q0 263 142 430.5t372 167.5q213 0 313 -137q140 137 330 137q179 0 276 -93t97 -259q0 -48 -16 -123l-545 -82q-4 -16 -4 -55q0 -92 53 -141.5t149 -49.5q27 0 73 16t183 78l29 -104q-190 -225 -422 -225q-192 0 -289 118q-127 -118 -315 -118q-108 0 -190.5 33.5 t-133.5 93.5t-76.5 138.5t-25.5 174.5zM389 367q0 -177 127 -177q24 0 49 7q18 6 46 59t53.5 158t25.5 219q0 92 -32.5 133t-94.5 41q-28 0 -49 -6q-18 -6 -46 -58.5t-53.5 -157t-25.5 -218.5zM1024 596l254 59q2 20 2 64q0 70 -27 102.5t-86 32.5q-30 0 -42 -5.5t-25 -25.5 q-56 -73 -76 -227z" />
<glyph unicode="&#x178;" horiz-adv-x="1202" d="M88 1227l6 28q19 95 58 142h598l-45 -170l-132 -23l117 -450h17l280 450l-141 23l6 28q22 100 59 142h455l-43 -170l-80 -23l-459 -651l-65 -360l143 -23l-6 -29q-20 -94 -59 -141h-613l45 170l123 23l64 360l-230 651zM453 1575q0 63 45 102t112 39q59 0 89 -32t30 -89 q0 -62 -41.5 -101.5t-109.5 -39.5q-60 0 -92.5 33.5t-32.5 87.5zM836 1575q0 63 44 102t111 39q59 0 90 -32t31 -89q0 -62 -42.5 -101.5t-111.5 -39.5q-58 0 -90 33.5t-32 87.5z" />
<glyph unicode="&#x2c6;" d="M178 1165l252 330h272l127 -330q-51 -45 -116 -45l-183 180l-231 -180q-59 0 -121 45z" />
<glyph unicode="&#x2dc;" d="M129 1159q63 114 107.5 172t78 77t78.5 19q40 0 137 -42t123 -42q27 0 49.5 18.5t77.5 80.5l99 -56q-94 -162 -147.5 -215t-119.5 -53q-40 0 -138.5 43t-121.5 43q-27 0 -49.5 -18t-75.5 -82z" />
<glyph unicode="&#x2000;" horiz-adv-x="934" />
<glyph unicode="&#x2001;" horiz-adv-x="1868" />
<glyph unicode="&#x2002;" horiz-adv-x="934" />
<glyph unicode="&#x2003;" horiz-adv-x="1868" />
<glyph unicode="&#x2004;" horiz-adv-x="622" />
<glyph unicode="&#x2005;" horiz-adv-x="467" />
<glyph unicode="&#x2006;" horiz-adv-x="311" />
<glyph unicode="&#x2007;" horiz-adv-x="311" />
<glyph unicode="&#x2008;" horiz-adv-x="233" />
<glyph unicode="&#x2009;" horiz-adv-x="373" />
<glyph unicode="&#x200a;" horiz-adv-x="103" />
<glyph unicode="&#x2010;" horiz-adv-x="628" d="M49 381l51 283h478l-52 -283h-477z" />
<glyph unicode="&#x2011;" horiz-adv-x="628" d="M49 381l51 283h478l-52 -283h-477z" />
<glyph unicode="&#x2012;" horiz-adv-x="628" d="M49 381l51 283h478l-52 -283h-477z" />
<glyph unicode="&#x2013;" d="M41 381l51 283h889l-51 -283h-889z" />
<glyph unicode="&#x2014;" horiz-adv-x="2048" d="M37 381l51 283h1921l-51 -283h-1921z" />
<glyph unicode="&#x2018;" horiz-adv-x="483" d="M121 1090q0 42 8 81l358 334q86 -13 113 -80l-182 -243l76 -52q0 -106 -53 -169.5t-148 -63.5q-74 0 -123 50.5t-49 142.5z" />
<glyph unicode="&#x2019;" horiz-adv-x="483" d="M80 965l182 243l-76 54q2 107 54 170t147 63q74 0 124 -51t50 -144q0 -42 -10 -81l-358 -332q-84 13 -113 78z" />
<glyph unicode="&#x201a;" horiz-adv-x="483" d="M-55 53l182 244l-76 51q2 107 54 170.5t147 63.5q75 0 124.5 -50.5t49.5 -142.5q0 -46 -10 -82l-359 -334q-82 12 -112 80z" />
<glyph unicode="&#x201c;" horiz-adv-x="909" d="M121 1090q0 42 8 81l358 334q86 -13 113 -80l-182 -243l76 -52q0 -106 -53 -169.5t-148 -63.5q-74 0 -123 50.5t-49 142.5zM547 1090q0 42 8 81l358 334q86 -13 113 -80l-182 -243l76 -52q0 -106 -53 -169.5t-148 -63.5q-74 0 -123 50.5t-49 142.5z" />
<glyph unicode="&#x201d;" horiz-adv-x="909" d="M80 965l182 243l-76 54q2 107 54 170t147 63q74 0 124 -51t50 -144q0 -42 -10 -81l-358 -332q-84 13 -113 78zM506 965l182 243l-76 54q2 107 54 170t147 63q74 0 124 -51t50 -144q0 -42 -10 -81l-359 -332q-83 13 -112 78z" />
<glyph unicode="&#x201e;" horiz-adv-x="909" d="M-55 53l182 244l-76 51q2 107 54 170.5t147 63.5q75 0 124.5 -50.5t49.5 -142.5q0 -46 -10 -82l-359 -334q-82 12 -112 80zM373 53l182 244l-76 51q2 107 54 170.5t147 63.5q74 0 124 -51t50 -142q0 -34 -10 -82l-359 -334q-82 12 -112 80z" />
<glyph unicode="&#x2022;" horiz-adv-x="716" d="M57 457q0 162 93 262t241 100q130 0 200.5 -73.5t70.5 -204.5q0 -161 -93 -261t-241 -100q-129 0 -200 73.5t-71 203.5z" />
<glyph unicode="&#x2026;" horiz-adv-x="1464" d="M2 141q0 103 60.5 165.5t156.5 62.5q72 0 117 -45.5t45 -118.5q0 -99 -60 -162t-157 -63q-77 0 -119.5 45t-42.5 116zM489 141q0 103 61 165.5t157 62.5q72 0 116.5 -45.5t44.5 -118.5q0 -99 -60 -162t-157 -63q-77 0 -119.5 45t-42.5 116zM979 141q0 103 60.5 165.5 t156.5 62.5q72 0 117 -45.5t45 -118.5q0 -99 -60 -162t-157 -63q-77 0 -119.5 45t-42.5 116z" />
<glyph unicode="&#x202f;" horiz-adv-x="373" />
<glyph unicode="&#x2039;" horiz-adv-x="526" d="M14 479l9 51l366 373l178 -18l-209 -377l74 -387l-172 -17z" />
<glyph unicode="&#x203a;" horiz-adv-x="526" d="M-39 123l207 377l-76 387l172 16l248 -375l-8 -51l-367 -373z" />
<glyph unicode="&#x205f;" horiz-adv-x="467" />
<glyph unicode="&#x20ac;" horiz-adv-x="1140" d="M68 496q0 66 22 118h92q5 68 23 168h-90q0 74 22 119h99q78 237 245 376.5t404 139.5q168 0 297 -37q0 -49 -12 -118.5t-27 -112.5q-60 18 -165 31.5t-165 13.5q-42 0 -58.5 -5.5t-29.5 -21.5q-74 -81 -129 -266h360q0 -70 -22 -119h-367q-17 -88 -22 -168h364 q0 -69 -22 -118h-348v-33q0 -126 53 -189t164 -63q77 0 149.5 30.5t126.5 82.5q0 -134 -18 -232q-133 -112 -344 -112q-239 0 -364 135t-128 381h-110z" />
<glyph unicode="&#x2122;" horiz-adv-x="1822" d="M106 1198l29 199h496l172 10l-47 -209q-41 -20 -103 -20h-16l-16 104l-62 -2l-82 -469l72 -10l-2 -17q-8 -55 -33 -88h-354l26 105l66 10l82 461l-64 -4l-45 -90h-26q-64 0 -93 20zM717 696l26 105l66 12l113 467l-70 12l2 17q8 56 33 88h295l84 -404l229 404h315 l-26 -105l-74 -12l-61 -467l71 -12l-2 -17q-8 -58 -35 -88h-342l25 105l78 12l47 340h-10l-264 -457l-93 -10l-96 467h-10l-82 -340l80 -12l-2 -17q-7 -52 -35 -88h-262z" />
<glyph unicode="&#xe000;" horiz-adv-x="1013" d="M0 0v1014h1014v-1014h-1014z" />
</font>
</defs>
</svg>
