<?xml version="1.0" standalone="no"?>
<!DOCTYPE svg PUBLIC "-//W3C//DTD SVG 1.1//EN" "http://www.w3.org/Graphics/SVG/1.1/DTD/svg11.dtd" >
<svg xmlns="http://www.w3.org/2000/svg">
<metadata></metadata>
<defs>
<font id="malaga_otreg" horiz-adv-x="1024" >
<font-face units-per-em="2048" ascent="1638" descent="-410" />
<missing-glyph horiz-adv-x="532" />
<glyph unicode="&#xfb01;" horiz-adv-x="1298" d="M70 0l20 96l156 23v755l-41 9q-84 17 -109 45v69h150v45q0 132 54 237t139.5 160.5t183.5 55.5q69 0 116 -29l-20 -127q-79 9 -133 9q-62 0 -105 -9q-9 -2 -16 -14q-37 -67 -37 -328h520l142 21v-899l174 -23v-8q0 -54 -27 -88h-498l21 96l147 23v758h-479v-758l182 -23 v-8q0 -56 -26 -88h-514zM885 1329q0 54 29.5 84.5t82.5 30.5q51 0 82 -31t31 -84q0 -51 -30 -83t-83 -32q-55 0 -83.5 31.5t-28.5 83.5z" />
<glyph unicode="&#xfb02;" horiz-adv-x="1282" d="M70 0l20 96l156 23v755l-41 9q-84 17 -109 45v69h150v9q0 222 138 349.5t386 127.5q85 0 160 -10l143 22v-1376l174 -23v-8q0 -56 -26 -88h-490l21 96l139 23v1206q-90 8 -182 8q-101 0 -174 -8q-23 -3 -39 -25q-68 -88 -68 -303h240q8 -27 8 -59q0 -30 -8 -61h-240v-758 l178 -23v-8q0 -56 -26 -88h-510z" />
<glyph horiz-adv-x="2048" />
<glyph horiz-adv-x="2048" />
<glyph unicode="&#xd;" horiz-adv-x="2048" />
<glyph unicode=" "  horiz-adv-x="532" />
<glyph unicode="&#x09;" horiz-adv-x="532" />
<glyph unicode="&#xa0;" horiz-adv-x="532" />
<glyph unicode="!" horiz-adv-x="667" d="M205 111q0 61 34.5 96t94.5 35q59 0 94 -35t35 -96q0 -58 -34.5 -94.5t-94.5 -36.5q-63 0 -96 36t-33 95zM219 1397q87 20 230 20l-68 -1001h-94z" />
<glyph unicode="&#x22;" horiz-adv-x="544" d="M18 1475h211l-59 -521q-24 -8 -47 -8q-19 0 -47 8zM315 1475h211l-59 -521q-24 -8 -47 -8q-19 0 -47 8z" />
<glyph unicode="#" horiz-adv-x="1085" d="M41 420q0 33 10.5 81t22.5 77l213 22l35 182l-232 -24q0 33 10.5 80.5t22.5 76.5l227 25l84 457q27 6 55 6q32 0 56 -6l-82 -445l231 25l78 420q27 6 55 6q32 0 56 -6l-76 -408l235 25q0 -28 -10 -77.5t-22 -80.5l-232 -25l-33 -182l248 27q0 -28 -10 -77.5t-22 -80.5 l-244 -26l-90 -492q-24 -6 -56 -6q-31 0 -55 6l88 479l-231 -24l-84 -455q-24 -6 -56 -6q-31 0 -55 6l80 442zM401 612l232 25l33 182l-232 -24z" />
<glyph unicode="$" horiz-adv-x="1085" d="M170 965q0 111 81.5 204.5t215.5 126.5l53 256q16 4 29 4q32 0 49 -14l-49 -233q14 2 41 2q42 0 92 -6l51 247q16 4 29 4q32 0 49 -14l-51 -248q67 -12 98 -20v-270q-33 -23 -74 -23h-14l-49 182q-89 19 -193 19q-66 0 -108 -11q-23 -6 -52.5 -47t-29.5 -94 q0 -57 32 -100.5t82.5 -72.5t112 -55.5t123.5 -57.5t112.5 -69.5t82.5 -100t32 -140.5q0 -126 -100 -224t-252 -118l-53 -256q-16 -4 -29 -4q-32 0 -49 14l49 242q-57 0 -129 10l-55 -262q-16 -4 -29 -4q-32 0 -49 14l55 267q-58 12 -100 30v275q36 22 74 22h14l51 -194 q127 -29 248 -29q77 0 107 10q24 8 52 50t28 98q0 58 -32 104.5t-83 77.5t-112.5 59.5t-123 59.5t-112.5 67.5t-83 93t-32 128.5z" />
<glyph unicode="%" horiz-adv-x="1550" d="M72 1057q0 158 86 259t227 101q140 0 224.5 -99t84.5 -261q0 -164 -87 -263.5t-224 -99.5q-141 0 -226 99.5t-85 263.5zM236 1055q0 -136 37.5 -200t117.5 -64q39 0 66 8q13 4 28 26.5t30 84t15 147.5q0 136 -37.5 200t-117.5 64q-39 0 -66 -8q-13 -4 -28 -26.5t-30 -84 t-15 -147.5zM326 0l784 1417q64 0 109 -28l-785 -1418q-61 0 -108 29zM856 342q0 158 86 259t227 101q140 0 225 -99t85 -261q0 -164 -87.5 -263t-224.5 -99q-141 0 -226 99t-85 263zM1020 340q0 -136 38 -200t118 -64q38 0 65 8q7 2 15.5 11t19 29t19 47.5t14.5 72.5t6 98 q0 136 -38 200t-118 64q-38 0 -65 -8q-7 -2 -15.5 -11t-19 -29t-19 -47.5t-14.5 -72.5t-6 -98z" />
<glyph unicode="&#x26;" horiz-adv-x="1425" d="M61 303q0 119 73 221.5t235 225.5q-88 137 -88 268q0 180 104.5 289.5t284.5 109.5q134 0 210 -59t76 -170q0 -47 -20 -94t-47 -84t-79.5 -84t-91.5 -77t-108 -81q92 -126 322 -385q93 130 162 268l-162 23v14q0 60 26 92h406l-21 -106l-90 -23q-115 -223 -237 -362 q127 -140 248 -269q-14 -18 -55 -34.5t-66 -18.5l-232 211q-103 -97 -215.5 -147.5t-220.5 -50.5q-203 0 -308.5 90.5t-105.5 232.5zM276 336q0 -103 57.5 -164t170.5 -61q174 0 321 147q-213 194 -379 385q-170 -138 -170 -307zM475 1090q0 -123 70 -224 q137 96 207.5 168.5t70.5 145.5q0 118 -184 118q-57 0 -94 -12q-23 -7 -46.5 -62.5t-23.5 -133.5z" />
<glyph unicode="'" horiz-adv-x="247" d="M18 1475h211l-59 -521q-24 -8 -47 -8q-19 0 -47 8z" />
<glyph unicode="(" horiz-adv-x="563" d="M102 563q0 391 118 617t337 252q20 -44 27 -97q-96 -19 -156 -94.5t-93.5 -242t-33.5 -435.5t33.5 -435.5t93.5 -242t156 -94.5q-7 -51 -27 -96q-219 26 -337 251.5t-118 616.5z" />
<glyph unicode=")" horiz-adv-x="563" d="M-20 -209q96 19 156 94.5t93 242t33 435.5t-33 435.5t-93 242t-156 94.5q8 56 26 97q219 -26 337 -252t118 -617t-118 -616.5t-337 -251.5q-18 42 -26 96z" />
<glyph unicode="*" horiz-adv-x="825" d="M41 1147q0 36 17 88.5t38 79.5l271 -133l-41 301q34 12 88 12q56 0 86 -12l-41 -299l272 133q21 -27 37 -77.5t16 -88.5l-297 -53l211 -219q-20 -29 -64.5 -61.5t-76.5 -41.5l-143 266l-142 -268q-34 11 -78 43.5t-63 61.5l207 215z" />
<glyph unicode="+" horiz-adv-x="1085" d="M117 424v147h348v394h153v-394h349v-147h-349v-393h-153v393h-348z" />
<glyph unicode="," horiz-adv-x="460" d="M10 -328l209 387l-102 62q0 164 125 164q67 0 109 -55t42 -164l-301 -435q-60 3 -82 41z" />
<glyph unicode="-" horiz-adv-x="512" d="M57 420v158h398v-158h-398z" />
<glyph unicode="." horiz-adv-x="460" d="M96 119q0 65 36 102t99 37q62 0 99 -37.5t37 -101.5q0 -63 -36.5 -101t-99.5 -38q-66 0 -100.5 38t-34.5 101z" />
<glyph unicode="/" horiz-adv-x="720" d="M20 -55l543 1554q38 0 75.5 -13t61.5 -34l-542 -1554q-35 0 -74 12.5t-64 34.5z" />
<glyph unicode="0" horiz-adv-x="1175" d="M100 559q0 253 137.5 413.5t350.5 160.5q219 0 353 -150t134 -424q0 -263 -139.5 -421t-347.5 -158q-106 0 -194 36t-154 106.5t-103 182t-37 254.5zM262 555q0 -215 85.5 -318.5t240.5 -103.5q92 0 168 25q25 8 50 33t50 70t41 122.5t16 175.5q0 214 -85 317t-240 103 q-92 0 -168 -25q-58 -20 -108 -117.5t-50 -281.5z" />
<glyph unicode="1" horiz-adv-x="677" d="M33 0l20 102l203 23v844l-82 26q-47 14 -67.5 27t-30.5 31v59h375v-987l198 -23v-14q0 -56 -26 -88h-590z" />
<glyph unicode="2" d="M109 0v150q154 97 255 175t160.5 147.5t83 129.5t23.5 129q0 112 -71 178t-183 66q-117 0 -199 -92l-51 32q43 104 129.5 161t204.5 57q102 0 188 -41t141.5 -126.5t55.5 -199.5q0 -100 -42 -185t-158 -188t-318 -223v-12q290 35 475 35q64 0 89.5 -26t25.5 -75 q0 -44 -21 -92h-788z" />
<glyph unicode="3" horiz-adv-x="976" d="M74 -197q301 24 434 100t133 210q0 124 -86 184.5t-233 60.5h-134v123h134q292 0 292 246q0 119 -69.5 183.5t-190.5 64.5q-128 0 -209 -94l-59 30q46 105 132.5 163.5t211.5 58.5q174 0 284.5 -101.5t110.5 -269.5q0 -112 -59 -196t-160 -120v-16q108 -28 179 -109 t71 -206q0 -132 -97.5 -225t-267.5 -140.5t-405 -54.5q-12 40 -12 108z" />
<glyph unicode="4" d="M33 31v168l448 934q32 0 77.5 -14t66.5 -32l-439 -903h463v459h195v-459h147v-12q0 -86 -30 -141h-117v-316h-195v316h-616z" />
<glyph unicode="5" horiz-adv-x="985" d="M96 -197q276 14 428 93.5t152 226.5q0 120 -83.5 176.5t-248.5 56.5q-78 0 -176 -16v772h715q0 -116 -26.5 -155t-96.5 -39q-141 0 -447 36l-16 -438q62 8 119 8q219 0 347 -103t128 -278q0 -212 -204.5 -327t-577.5 -121q-13 43 -13 108z" />
<glyph unicode="6" horiz-adv-x="1052" d="M92 465q0 101 24 198t80.5 200t143.5 196.5t220 186.5t302 171q15 -11 34.5 -36.5t25.5 -43.5q-265 -170 -394 -308t-180 -306h12q87 84 224 84q160 0 267 -104t107 -293q0 -128 -62 -227.5t-161 -151t-215 -51.5q-191 0 -309.5 132t-118.5 353zM307 395q0 -139 59 -218 t166 -79q72 0 117 19q33 13 67 83.5t34 192.5q0 140 -65.5 211.5t-174.5 71.5q-53 0 -102 -20.5t-82 -51.5q-19 -89 -19 -209z" />
<glyph unicode="7" horiz-adv-x="974" d="M25 1012q0 50 12 100h893v-172l-584 -1245q-98 0 -156 18l588 1241q-496 -36 -639 -36q-62 0 -88 22t-26 72z" />
<glyph unicode="8" horiz-adv-x="1015" d="M100 279q0 96 33.5 169.5t126.5 139.5l123 88q-133 73 -203.5 163t-70.5 216q0 149 119 255.5t286 106.5q168 0 279.5 -86t111.5 -231q0 -142 -149 -256l-121 -92q64 -37 112 -76t87.5 -88.5t60 -112t20.5 -135.5q0 -103 -58 -186t-153 -128.5t-204 -45.5 q-175 0 -287.5 83t-112.5 216zM274 291q0 -96 63.5 -144.5t168.5 -48.5q80 0 151 25q23 8 49.5 54t26.5 112q0 109 -62.5 183.5t-201.5 152.5q-119 -105 -157 -173t-38 -161zM291 1104q0 -97 63.5 -162.5t194.5 -138.5q112 89 148 147.5t36 136.5q0 105 -62.5 158t-162.5 53 q-75 0 -131 -20q-30 -10 -58 -60t-28 -114z" />
<glyph unicode="9" horiz-adv-x="1052" d="M92 702q0 96 36 178t97 137t140 85.5t165 30.5q191 0 309.5 -132.5t118.5 -353.5q0 -101 -24 -198t-80.5 -200t-143.5 -196.5t-220 -186.5t-302 -171q-15 11 -34 36.5t-25 43.5q264 170 393 308t180 306h-12q-87 -84 -223 -84q-160 0 -267.5 104t-107.5 293zM301 719 q0 -140 65.5 -211.5t174.5 -71.5q53 0 102 20.5t82 51.5q18 85 18 209q0 139 -59 218t-166 79q-72 0 -117 -19q-33 -13 -66.5 -83.5t-33.5 -192.5z" />
<glyph unicode=":" horiz-adv-x="512" d="M121 119q0 65 36 102t99 37q62 0 98.5 -37.5t36.5 -101.5q0 -63 -36 -101t-99 -38q-66 0 -100.5 38t-34.5 101zM121 879q0 65 36 102t99 37q62 0 98.5 -37.5t36.5 -101.5q0 -63 -36 -101.5t-99 -38.5q-66 0 -100.5 38t-34.5 102z" />
<glyph unicode=";" horiz-adv-x="512" d="M14 -328l209 387l-102 62q0 164 125 164q67 0 109 -55t42 -164l-301 -435q-60 3 -82 41zM121 879q0 65 36 102t99 37q62 0 98.5 -37.5t36.5 -101.5q0 -63 -36 -101.5t-99 -38.5q-66 0 -100.5 38t-34.5 102z" />
<glyph unicode="&#x3c;" horiz-adv-x="1085" d="M143 502l582 463h217l-582 -463l580 -471h-217z" />
<glyph unicode="=" horiz-adv-x="1085" d="M117 227v148h850v-148h-850zM117 623v147h850v-147h-850z" />
<glyph unicode="&#x3e;" horiz-adv-x="1085" d="M143 31l582 463l-580 471h217l580 -471l-582 -463h-217z" />
<glyph unicode="?" horiz-adv-x="960" d="M133 1208q87 209 328 209q153 0 259.5 -92.5t106.5 -255.5q0 -144 -104 -246t-291 -143l-10 -264h-72l-123 211q0 56 31 92q182 48 273.5 123.5t91.5 197.5q0 105 -66.5 168.5t-173.5 63.5q-122 0 -209 -84zM252 111q0 61 34.5 96t94.5 35q59 0 94 -35t35 -96 q0 -58 -34.5 -94.5t-94.5 -36.5q-63 0 -96 36t-33 95z" />
<glyph unicode="@" horiz-adv-x="1773" d="M92 311q0 164 36 308.5t99.5 254t148.5 196t185 141.5t207 83.5t217 28.5q201 0 358.5 -81.5t247.5 -237.5t90 -363q0 -145 -37.5 -267.5t-100.5 -203t-144.5 -125.5t-171.5 -45q-181 0 -232 133h-12q-72 -76 -131.5 -104.5t-118.5 -28.5q-113 0 -182.5 78.5t-69.5 228.5 q0 140 38 259.5t98.5 196.5t134.5 120t149 43q65 0 117.5 -33t85.5 -92l55 119q10 2 31 2q55 0 96 -23l-158 -729q15 -21 49 -33t74 -12q52 0 104.5 33t97.5 94t73 161.5t28 221.5q0 169 -76 296.5t-205.5 193t-293.5 65.5q-109 0 -214 -31t-203.5 -100.5t-172.5 -169.5 t-119 -250t-45 -330q0 -145 44.5 -257t124 -180t181.5 -102t224 -34q72 0 143.5 15t112.5 38l-19 -125q-108 -63 -260 -63q-143 0 -265.5 44.5t-216.5 130t-148 223t-54 312.5zM659 324q0 -193 148 -193q37 0 74.5 17t97.5 63l113 545q-124 43 -222 43q-50 0 -99.5 -71.5 t-80.5 -182.5t-31 -221z" />
<glyph unicode="A" horiz-adv-x="1187" d="M-61 0l20 106l98 23l484 1268l110 20l471 -1288l127 -23v-14q0 -60 -26 -92h-514l20 106l176 23l-141 395l-418 -20l-131 -375l186 -23v-14q0 -60 -26 -92h-436zM387 623h342l-164 460h-16z" />
<glyph unicode="B" horiz-adv-x="1257" d="M72 0l20 106l168 23v1139l-188 22v15q0 59 26 92h537q222 0 339.5 -99t117.5 -264q0 -112 -64 -189.5t-178 -113.5v-16q137 -29 221 -116t84 -220q0 -175 -138.5 -277t-350.5 -102h-594zM465 129l205 -23q123 9 192.5 82.5t69.5 188.5q0 276 -350 276h-117v-524zM465 752 l266 14q69 34 109.5 104.5t40.5 159.5q0 121 -69.5 186.5t-203.5 65.5h-143v-530z" />
<glyph unicode="C" horiz-adv-x="1312" d="M102 688q0 149 46 279.5t134 231.5t227.5 159.5t313.5 58.5q189 0 346 -41v-391q-35 -24 -90 -24h-14l-66 292q-113 25 -245 25q-124 0 -201 -18q-26 -6 -61.5 -46.5t-72 -109t-62 -179.5t-25.5 -237q0 -276 127 -420.5t350 -144.5q122 0 192 24l68 267h14q55 0 91 -25 v-297q-141 -112 -383 -112q-150 0 -277 49t-218 139t-142.5 223.5t-51.5 296.5z" />
<glyph unicode="D" horiz-adv-x="1458" d="M72 0l20 106l168 23v1139l-188 22v15q0 59 26 92h580q142 0 263.5 -43t215 -127t146.5 -219.5t53 -309.5q0 -128 -38.5 -241.5t-103 -195.5t-149 -142t-178 -89.5t-187.5 -29.5h-628zM465 135l237 -22q67 10 127 34.5t115 71.5t95 111t63.5 158.5t23.5 209.5 q0 127 -25 227t-68 165t-104 107.5t-129 60.5t-147 18h-188v-1141z" />
<glyph unicode="E" horiz-adv-x="1232" d="M72 0l20 106l168 23v1139l-188 22v15q0 59 26 92h736l237 20v-385q-35 -24 -90 -24h-14l-66 262h-436v-498h444q6 -27 6 -70q0 -39 -6 -69l-172 12h-272v-528l463 18l67 262h15q56 0 90 -24v-373h-1028z" />
<glyph unicode="F" horiz-adv-x="1142" d="M72 0l20 106l168 23v1139l-188 22v15q0 59 26 92h736l237 20v-399q-36 -25 -90 -25h-14l-66 277h-436v-531h493q7 -32 7 -69q0 -35 -7 -70l-172 12h-321v-483l213 -23v-14q0 -58 -27 -92h-579z" />
<glyph unicode="G" horiz-adv-x="1429" d="M102 688q0 118 27.5 224t86.5 199t145.5 160.5t211.5 106.5t277 39q183 0 367 -45v-377q-35 -24 -91 -24h-14l-65 274q-125 33 -285 33q-141 0 -207 -16q-19 -5 -45.5 -29t-58 -72.5t-57.5 -112.5t-44 -159t-18 -201q0 -283 132 -424t361 -141q99 0 189 22v371l-221 23 v14q0 59 26 92h496l-21 -106l-75 -23v-516l-25 -20l-156 51q-121 -51 -262 -51q-143 0 -267 50t-214 140.5t-141.5 224t-51.5 293.5z" />
<glyph unicode="H" horiz-adv-x="1542" d="M72 0l20 106l168 23v1139l-188 22v15q0 59 26 92h545l-20 -107l-158 -22v-496h612v496l-178 22v15q0 58 27 92h544l-20 -107l-168 -22v-1139l188 -23v-14q0 -60 -26 -92h-545l21 106l157 23v516h-612v-516l178 -23v-14q0 -58 -27 -92h-544z" />
<glyph unicode="I" horiz-adv-x="724" d="M72 0l20 106l168 23v1139l-188 22v15q0 59 26 92h555l-20 -107l-168 -22v-1139l188 -23v-14q0 -60 -26 -92h-555z" />
<glyph unicode="J" horiz-adv-x="702" d="M66 1290v15q0 59 26 92h551l-20 -107l-158 -22v-1125q0 -100 -21 -166t-73 -153l-166 -275q-53 0 -92 31l147 400v1288z" />
<glyph unicode="K" horiz-adv-x="1341" d="M72 0l20 106l168 23v1139l-188 22v15q0 59 26 92h545l-20 -107l-158 -22v-641h16l539 641l-176 22v15q0 59 26 92h496l-20 -107l-134 -22l-399 -439l492 -804q-23 -22 -58 -36.5t-69 -15.5l-523 684l-190 -208v-320l176 -23v-14q0 -58 -27 -92h-542z" />
<glyph unicode="L" horiz-adv-x="1150" d="M72 0l20 106l168 23v1139l-188 22v15q0 59 26 92h572l-21 -107l-184 -22v-1151l426 18l67 301h15q55 0 90 -24v-412h-991z" />
<glyph unicode="M" horiz-adv-x="1863" d="M35 0l20 106l170 23l64 1139l-189 22v15q0 58 27 92h389l414 -1098l424 1098h424l-21 -107l-170 -22q23 -761 33 -1139l188 -23v-14q0 -60 -26 -92h-549l20 106l170 23l-20 973h-17l-450 -1102l-82 -20l-420 1122h-16l-41 -973l198 -23v-14q0 -60 -26 -92h-514z" />
<glyph unicode="N" horiz-adv-x="1499" d="M72 0l20 106l168 23q10 761 16 1139l-188 22v15q0 58 27 92h372l635 -1026h17v897l-232 22v15q0 58 27 92h526l-20 -107l-146 -22l-16 -1268l-100 -20l-746 1122h-16v-973l219 -23v-14q0 -58 -27 -92h-536z" />
<glyph unicode="O" horiz-adv-x="1472" d="M102 698q0 162 50 298t135.5 227.5t201 142.5t244.5 51q134 0 250.5 -50t202.5 -140.5t135 -227t49 -301.5q0 -164 -51 -301t-138 -227t-201 -140t-241 -50q-134 0 -250.5 49.5t-202.5 140.5t-135 227t-49 301zM332 698q0 -155 29.5 -269.5t84.5 -183.5t128.5 -102.5 t166.5 -33.5q180 0 290 151t110 438q0 157 -31.5 273.5t-88.5 184.5t-129 100t-161 32q-180 0 -289.5 -148.5t-109.5 -441.5z" />
<glyph unicode="P" horiz-adv-x="1171" d="M72 0l20 106l168 23v1139l-188 22v15q0 59 26 92h523q222 0 345.5 -113t123.5 -283q0 -163 -105 -271t-315 -136l-205 -27v-438l203 -23v-14q0 -58 -27 -92h-569zM465 688l270 17q66 40 104 121.5t38 174.5q0 126 -68.5 203.5t-198.5 77.5h-145v-594z" />
<glyph unicode="Q" horiz-adv-x="1472" d="M102 698q0 162 50 298t135.5 227.5t201 142.5t244.5 51q133 0 249.5 -50t202.5 -140.5t135.5 -227t49.5 -301.5q0 -257 -119 -433t-305 -245v-12l324 -321q-21 -24 -57.5 -41.5t-69.5 -22.5l-465 363q-120 10 -224 62.5t-182.5 141t-124 219.5t-45.5 289zM332 698 q0 -155 29.5 -269.5t84.5 -183.5t128.5 -102.5t166.5 -33.5q180 0 290 151t110 438q0 157 -31.5 273.5t-88.5 184.5t-129 100t-161 32q-180 0 -289.5 -148.5t-109.5 -441.5z" />
<glyph unicode="R" horiz-adv-x="1243" d="M72 0l20 106l168 23v1139l-188 22v15q0 59 26 92h523q113 0 203 -31t145.5 -84t84.5 -120.5t29 -143.5q0 -119 -61.5 -213.5t-179.5 -147.5l399 -632q-52 -48 -127 -52l-500 637l-149 -24v-457l176 -23v-14q0 -58 -27 -92h-542zM465 705l262 10q67 39 107 121t40 176 q0 123 -68 196.5t-194 73.5h-147v-577z" />
<glyph unicode="S" horiz-adv-x="1083" d="M133 1010q0 79 33 152t93 130t154 91t208 34q170 0 294 -39v-342q-35 -24 -90 -24h-14l-59 250q-93 22 -224 22q-78 0 -125 -12q-30 -8 -58 -61.5t-28 -118.5q0 -69 35 -122t91.5 -88t124 -67t135.5 -69t124.5 -83t91.5 -119.5t35 -168.5q0 -160 -133.5 -277.5 t-339.5 -117.5q-102 0 -181.5 18t-164.5 59v322q35 24 90 24h15l59 -239q99 -51 244 -51q95 0 141 12q24 6 55 57.5t31 120.5q0 58 -22 105.5t-58.5 81t-84.5 62.5t-100.5 54t-105.5 51t-101 59t-84.5 72.5t-58.5 96t-22 125.5z" />
<glyph unicode="T" horiz-adv-x="1179" d="M37 1085v312h864l262 20l-45 -332q-34 -24 -90 -24h-8l-39 217l-289 -6v-1143l189 -23v-14q0 -58 -27 -92h-555l20 106l168 23v1137l-280 -6l-66 -199h-14q-55 0 -90 24z" />
<glyph unicode="U" horiz-adv-x="1501" d="M88 1290v15q0 58 27 92h530l-20 -107l-181 -22v-836q0 -164 78.5 -231.5t257.5 -67.5q167 0 249.5 69t82.5 230v836l-213 22v15q0 58 27 92h481l-21 -107l-124 -22v-836q0 -214 -140 -333t-377 -119q-238 0 -371.5 124.5t-133.5 327.5v836z" />
<glyph unicode="V" horiz-adv-x="1249" d="M-2 1290v15q0 58 27 92h491l-20 -107l-183 -22l340 -955h17l334 955l-193 22v15q0 58 27 92h422l-21 -107l-76 -22l-483 -1268l-115 -20l-473 1288z" />
<glyph unicode="W" horiz-adv-x="2029" d="M2 1290v15q0 58 27 92h522l-21 -107l-182 -22l279 -942h16l295 942l-172 22v15q0 58 27 92h536l-20 -107l-142 -22l299 -942h17l272 942l-192 22v15q0 59 26 92h453l-21 -107l-106 -22l-416 -1268l-127 -20l-344 1064h-16l-353 -1044l-127 -20l-405 1288z" />
<glyph unicode="X" horiz-adv-x="1314" d="M14 0l21 106l106 23l410 565l-401 574l-125 22v15q0 59 26 92h549l-20 -107l-179 -22l283 -445l299 445l-186 22v15q0 59 26 92h467l-20 -107l-107 -22l-401 -541l414 -598l124 -23v-14q0 -60 -26 -92h-549l20 106l179 23l-293 469l-309 -469l186 -23v-14q0 -58 -27 -92 h-467z" />
<glyph unicode="Y" horiz-adv-x="1099" d="M-6 1290v15q0 59 26 92h490l-21 -107l-172 -22l265 -545h16l270 545l-182 22v15q0 58 27 92h407l-20 -107l-76 -22l-373 -684v-455l189 -23v-14q0 -58 -27 -92h-555l21 106l167 23v451l-358 688z" />
<glyph unicode="Z" horiz-adv-x="1302" d="M109 0v70l765 1200h-552l-58 -291h-14q-54 0 -90 25v413l237 -20h758v-70l-801 -1210l647 22l68 316h14q55 0 91 -25v-430h-1065z" />
<glyph unicode="[" horiz-adv-x="655" d="M164 -291v1708h409l-28 -119l-199 -10v-1450l227 -10l-28 -119h-381z" />
<glyph unicode="\" horiz-adv-x="720" d="M20 1452q24 21 62 34t76 13l542 -1554q-25 -22 -63.5 -34.5t-73.5 -12.5z" />
<glyph unicode="]" horiz-adv-x="655" d="M82 -291l29 119l198 10v1450l-227 10l29 119h381v-1708h-410z" />
<glyph unicode="^" d="M57 492l375 751h158l375 -751q-12 -10 -44.5 -16.5t-52.5 -6.5l-366 559l-352 -559q-55 0 -93 23z" />
<glyph unicode="_" d="M0 -121h1024v-158h-1024v158z" />
<glyph unicode="`" d="M332 1495h237l115 -354q-35 -21 -78 -21z" />
<glyph unicode="a" horiz-adv-x="1007" d="M78 229q0 114 68 176.5t206 83.5l275 39v332q-246 -35 -348 -35q-69 0 -97 18.5t-28 67.5q0 47 24 86h539q88 -84 88 -249l-8 -611q38 -28 100 -28q31 0 55 6v-33q-36 -102 -145 -102q-62 0 -101.5 24.5t-66.5 77.5q-97 -59 -156.5 -80.5t-126.5 -21.5q-126 0 -202 62.5 t-76 186.5zM266 254q0 -69 39 -108.5t123 -39.5q68 0 199 31v307l-320 -79q-41 -48 -41 -111z" />
<glyph unicode="b" horiz-adv-x="1169" d="M86 1378v49l309 68v-610h8q62 75 127 104t144 29q177 0 290 -129t113 -350q0 -152 -67.5 -280t-188.5 -203.5t-268 -75.5q-164 0 -340 63v1262l-39 16q-46 20 -62.5 30.5t-25.5 26.5zM395 137q132 -33 260 -33q29 0 66.5 29.5t73 81t60 133.5t24.5 174q0 161 -74 250.5 t-207 89.5q-114 0 -203 -63v-662z" />
<glyph unicode="c" horiz-adv-x="960" d="M92 485q0 246 139.5 389.5t362.5 143.5q50 0 125.5 -11.5t122.5 -25.5q0 -71 -19 -164q-75 22 -183 37.5t-183 15.5q-35 0 -73 -49.5t-64.5 -135.5t-26.5 -179q0 -184 86.5 -277.5t236.5 -93.5q69 0 133.5 23.5t108.5 66.5l21 -51q-76 -194 -330 -194q-125 0 -228.5 61 t-166 177.5t-62.5 266.5z" />
<glyph unicode="d" horiz-adv-x="1165" d="M92 459q0 152 68 280t189 203.5t267 75.5q83 0 158 -14v301l-39 16q-46 20 -62.5 30.5t-25.5 26.5v49l309 68v-1376l174 -23v-8q0 -56 -26 -88l-326 -20l17 149h-9q-66 -83 -135 -116t-149 -33q-184 0 -297 132.5t-113 346.5zM291 475q0 -161 73.5 -250.5t206.5 -89.5 q112 0 203 64v665q-142 29 -262 29q-24 0 -59.5 -26t-72.5 -74t-63 -132.5t-26 -185.5z" />
<glyph unicode="e" d="M92 485q0 226 132.5 379.5t320.5 153.5q171 0 275 -98.5t104 -280.5q0 -33 -9 -98h-626q0 -406 348 -406q157 0 254 90l20 -51q-91 -194 -344 -194q-204 0 -339.5 140t-135.5 365zM293 627l463 18v14q0 116 -65.5 179t-180.5 63q-44 0 -80 -8q-31 -8 -78.5 -86.5 t-58.5 -179.5z" />
<glyph unicode="f" horiz-adv-x="724" d="M70 0l20 96l156 23v755l-41 9q-84 17 -109 45v69h150v45q0 132 54 237t139.5 160.5t183.5 55.5q32 0 72.5 -8t60.5 -21l-21 -127q-79 9 -149 9q-62 0 -105 -9q-9 -2 -16 -14q-37 -67 -37 -328h274q9 -30 9 -61q0 -24 -9 -59h-274v-758l203 -23v-8q0 -54 -27 -88h-534z " />
<glyph unicode="g" horiz-adv-x="1009" d="M70 -262q0 52 34 99.5t140 125.5v8q-65 20 -94 63.5t-29 94.5q0 65 44.5 125.5t125.5 99.5q-79 42 -126.5 117.5t-47.5 177.5q0 169 105.5 269t269.5 100q72 0 141 -21h319v-71q-51 -37 -157 -37v-12q77 -80 77 -220q0 -153 -100 -252.5t-272 -99.5q-75 0 -140 21 q-41 -23 -65.5 -59t-24.5 -72q0 -40 31 -68h328q167 0 248 -56t81 -171q0 -86 -74.5 -168t-195.5 -132.5t-248 -50.5q-189 0 -279.5 49.5t-90.5 139.5zM244 -209q0 -110 262 -110q80 0 168 24t135 57q16 29 16 66q0 57 -48.5 85t-176.5 32l-289 10q-43 -73 -55 -104.5 t-12 -59.5zM305 666q0 -127 54 -190.5t151 -63.5q34 0 76 10q37 9 67.5 70.5t30.5 166.5q0 127 -54 189.5t-151 62.5q-34 0 -76 -10q-37 -9 -67.5 -69.5t-30.5 -165.5z" />
<glyph unicode="h" horiz-adv-x="1232" d="M53 0l21 96l155 23v1186l-39 16q-46 20 -62.5 30.5t-25.5 26.5v49l310 68v-612h8q83 75 153.5 105t157.5 30q139 0 218 -67t79 -193v-639l158 -23v-8q0 -54 -27 -88h-477l20 96l144 23v667q-36 36 -88.5 55t-106.5 19q-123 0 -239 -69v-672l155 -23v-8q0 -56 -26 -88 h-488z" />
<glyph unicode="i" horiz-adv-x="636" d="M70 0l20 96l156 23v708l-39 17q-46 20 -62.5 30.5t-25.5 26.5v49l309 68v-899l174 -23v-8q0 -54 -27 -88h-505zM221 1329q0 54 30 84.5t83 30.5q51 0 81.5 -30.5t30.5 -84.5q0 -51 -29.5 -83t-82.5 -32q-55 0 -84 31.5t-29 83.5z" />
<glyph unicode="j" horiz-adv-x="581" d="M78 901v49l309 68v-875q0 -105 -15 -166.5t-63 -154.5l-139 -273q-48 0 -82 21l117 407v850l-39 17q-46 20 -62.5 30.5t-25.5 26.5zM180 1329q0 54 30 84.5t83 30.5q51 0 82 -31t31 -84q0 -51 -30 -83t-83 -32q-55 0 -84 31.5t-29 83.5z" />
<glyph unicode="k" horiz-adv-x="1112" d="M53 0l21 96l155 23v1186l-39 16q-46 20 -62.5 30.5t-25.5 26.5v49l310 68v-1034h8l360 418l-153 22v8q0 55 26 88h443l-21 -96l-114 -22l-267 -275l371 -584q-50 -47 -121 -47l-387 492l-145 -152v-194l155 -23v-8q0 -56 -26 -88h-488z" />
<glyph unicode="l" horiz-adv-x="620" d="M53 0l21 96l155 23v1186l-39 16q-46 20 -62.5 30.5t-25.5 26.5v49l310 68v-1376l174 -23v-8q0 -54 -27 -88h-506z" />
<glyph unicode="m" horiz-adv-x="1820" d="M70 0l20 96l156 23v708l-39 17q-46 20 -62.5 30.5t-25.5 26.5v49l282 68l19 -141h8q87 79 155 110t152 31q203 0 262 -150q92 85 165 117.5t159 32.5q130 0 212.5 -63.5t82.5 -196.5v-639l160 -23v-8q0 -54 -27 -88h-473l20 96l138 23v667q-35 35 -85.5 54.5t-103.5 19.5 q-119 0 -225 -69v-672l149 -23v-8q0 -56 -26 -88h-463l20 96l138 23v667q-68 74 -183 74q-109 0 -227 -69v-672l150 -23v-8q0 -54 -27 -88h-481z" />
<glyph unicode="n" horiz-adv-x="1249" d="M70 0l20 96l156 23v708l-39 17q-46 20 -62.5 30.5t-25.5 26.5v49l282 68l19 -141h8q85 79 158.5 110t161.5 31q143 0 219.5 -68.5t76.5 -191.5v-639l158 -23v-8q0 -56 -26 -88h-478l21 96l143 23v667q-74 74 -194 74q-127 0 -240 -69v-672l156 -23v-8q0 -54 -27 -88h-487 z" />
<glyph unicode="o" horiz-adv-x="1175" d="M92 500q0 147 65.5 266t179 185.5t251.5 66.5q102 0 192 -35t157.5 -99.5t106.5 -163.5t39 -220q0 -116 -41 -214.5t-109 -165t-158 -103.5t-187 -37q-217 0 -356.5 143.5t-139.5 376.5zM293 498q0 -191 80.5 -294.5t224.5 -103.5q130 0 207.5 110t77.5 290 q0 201 -84 299t-221 98q-133 0 -209 -112t-76 -287z" />
<glyph unicode="p" horiz-adv-x="1185" d="M74 -430l20 96l135 23v1138l-39 17q-46 20 -62.5 30.5t-25.5 26.5v49l283 68l18 -141h9q65 79 131 110t147 31q180 0 292 -129.5t112 -349.5q0 -154 -68.5 -282t-189 -202.5t-267.5 -74.5q-71 0 -157 18v-309l184 -23v-8q0 -54 -27 -88h-495zM412 137q126 -33 260 -33 q28 0 65.5 29t73 80t60 133.5t24.5 175.5q0 161 -74 250.5t-207 89.5q-113 0 -202 -63v-662z" />
<glyph unicode="q" horiz-adv-x="1159" d="M92 459q0 152 68 280t189 203.5t267 75.5q109 0 201 -27l115 84l24 -4v-1382l158 -23v-8q0 -54 -27 -88h-495l20 96l162 23v422h-10q-62 -76 -125.5 -103.5t-136.5 -27.5q-181 0 -295.5 130.5t-114.5 348.5zM291 475q0 -161 73.5 -250.5t206.5 -89.5q112 0 203 64v665 q-134 29 -262 29q-18 0 -44 -15t-57.5 -48.5t-58 -80t-44 -119t-17.5 -155.5z" />
<glyph unicode="r" horiz-adv-x="776" d="M70 0l20 96l156 23v708l-39 17q-46 20 -62.5 30.5t-25.5 26.5v49l282 68l19 -152h8q98 91 147 121.5t93 30.5q38 0 63 -14l14 -160q-44 -17 -103.5 -26t-213.5 -23v-676l197 -23v-8q0 -54 -27 -88h-528z" />
<glyph unicode="s" horiz-adv-x="862" d="M123 719q0 121 104.5 210t270.5 89q128 0 221 -49v-226q-28 -22 -78 -22h-14l-41 143q-66 31 -164 31q-42 0 -70 -4q-18 -4 -37.5 -37t-19.5 -82q0 -43 25.5 -77t66 -57t89.5 -44.5t98.5 -48t90 -59t66 -85.5t25.5 -120q0 -114 -107 -207.5t-254 -93.5q-157 0 -270 59 v213q28 22 78 22h14l41 -135q73 -37 172 -37q34 0 90 9q18 4 43 39t25 77q0 47 -25.5 83.5t-66.5 61t-90.5 47.5t-99.5 49t-91 57.5t-66.5 81t-25.5 112.5z" />
<glyph unicode="t" horiz-adv-x="741" d="M92 909v29q31 70 114 138.5t165 88.5h16v-168h291q8 -27 8 -61q0 -28 -8 -59h-291v-652q0 -92 129 -92q39 0 84.5 13t75.5 38l20 -51q-29 -72 -93.5 -112.5t-147.5 -40.5q-123 0 -186.5 61t-63.5 176v660z" />
<glyph unicode="u" horiz-adv-x="1206" d="M78 901v49l309 68v-807q74 -74 195 -74q113 0 233 68v674l-199 22v8q0 54 27 88h383l-29 -141v-737l174 -23v-8q0 -56 -26 -88l-326 -20l17 145h-9q-158 -145 -325 -145q-136 0 -216.5 66.5t-80.5 193.5v587l-39 17q-46 20 -62.5 30.5t-25.5 26.5z" />
<glyph unicode="v" horiz-adv-x="1028" d="M-10 901v8q0 55 26 88h443l-21 -96l-141 -22l242 -660h8l241 660l-165 22v8q0 55 26 88h398l-21 -96l-82 -22l-358 -879l-135 -20l-359 899z" />
<glyph unicode="w" horiz-adv-x="1648" d="M16 901v8q0 54 27 88h424l-21 -96l-131 -22l209 -660h8l222 660l-146 22v8q0 54 27 88h455l-21 -96l-121 -22l223 -660h9l206 660l-155 22v8q0 55 26 88h383l-20 -96l-82 -22l-321 -879l-132 -20l-254 720h-8l-256 -700l-131 -20l-319 899z" />
<glyph unicode="x" horiz-adv-x="1091" d="M37 0l20 96l82 23l307 370l-307 390l-100 22v8q0 54 27 88h442l-21 -96l-125 -22l205 -279l205 279l-156 22v8q0 54 27 88h401l-20 -96l-82 -22l-297 -355l318 -405l102 -23v-8q0 -54 -27 -88h-442l20 96l121 23l-211 297l-217 -297l154 -23v-8q0 -54 -27 -88h-399z" />
<glyph unicode="y" horiz-adv-x="1046" d="M8 901v8q0 54 27 88h440l-20 -96l-140 -22l228 -695h8l256 695l-166 22v8q0 54 27 88h397l-21 -96l-81 -22l-482 -1194l140 -39v-8q0 -55 -27 -89q-87 0 -232.5 13t-234.5 32l31 101l178 6l145 301l-57 8l-313 869z" />
<glyph unicode="z" horiz-adv-x="950" d="M88 0v57l530 791h-370l-41 -189h-12q-48 0 -78 23v315h739v-57l-565 -790h438l39 188h12q48 0 78 -23v-315h-770z" />
<glyph unicode="{" horiz-adv-x="655" d="M104 498v131q125 0 181.5 23.5t56.5 82.5q0 33 -34 88.5t-74.5 107.5t-74.5 120.5t-34 124.5q0 130 118 196t308 66q0 -62 -27 -117l-205 -21q-22 -39 -22 -88q0 -43 23 -93.5t56 -96.5t66.5 -92t56.5 -94t23 -88q0 -72 -63.5 -119t-159.5 -60v-12q99 -13 161 -57 t62 -121q0 -40 -23 -88t-56 -94t-66.5 -92t-56.5 -96.5t-23 -94.5q0 -43 20 -88l232 -21q0 -65 -23 -116q-190 0 -295.5 71.5t-105.5 190.5q0 56 34 124.5t74.5 120.5t74.5 107t34 88q0 60 -56.5 83.5t-181.5 23.5z" />
<glyph unicode="|" horiz-adv-x="512" d="M172 -451v1946q38 12 84 12t84 -12v-1946q-38 -12 -84 -12t-84 12z" />
<glyph unicode="}" horiz-adv-x="655" d="M104 -311q0 61 27 116l205 21q22 39 22 88q0 43 -23 93.5t-56 97t-66.5 92.5t-56.5 94t-23 88q0 72 63.5 118.5t159.5 59.5v12q-99 13 -161 57.5t-62 121.5q0 40 23 88t56 93.5t66.5 91.5t56.5 96.5t23 94.5q0 43 -20 88l-232 21q0 66 23 117q190 0 295.5 -71.5 t105.5 -190.5q0 -56 -34 -124.5t-74.5 -121t-74.5 -107.5t-34 -88q0 -59 56.5 -82.5t181.5 -23.5v-131q-125 0 -181.5 -23.5t-56.5 -83.5q0 -33 34 -88.5t74.5 -107.5t74.5 -120t34 -124q0 -130 -118 -196t-308 -66z" />
<glyph unicode="~" d="M78 375q66 132 108.5 194t75 81.5t82.5 19.5q54 0 195.5 -57.5t167.5 -57.5q24 0 39.5 7.5t48.5 43t90 111.5l63 -31q-65 -127 -109 -190.5t-76.5 -83t-76.5 -19.5q-56 0 -198 57.5t-171 57.5q-36 0 -69 -30.5t-109 -133.5z" />
<glyph unicode="&#xa1;" horiz-adv-x="667" d="M205 887q0 58 34.5 94.5t94.5 36.5q63 0 96 -36t33 -95q0 -61 -34.5 -96t-94.5 -35q-59 0 -94 35t-35 96zM219 -420l68 1002h94l68 -981q-92 -21 -230 -21z" />
<glyph unicode="&#xa2;" horiz-adv-x="1085" d="M154 485q0 233 137.5 369.5t355.5 136.5h8l76 365q16 4 31 4q34 0 51 -14l-76 -361q73 -8 156 -29q0 -56 -19 -145q-75 21 -186.5 37t-185.5 16q-11 0 -30.5 -13.5t-42.5 -43.5t-43.5 -70t-34 -101t-13.5 -130q0 -185 88.5 -275t243.5 -90q65 0 129 27t112 70l19 -48 q-76 -184 -326 -184q-26 0 -72 4l-73 -358q-16 -4 -31 -4q-34 0 -51 14l78 369q-135 46 -218 166t-83 288z" />
<glyph unicode="&#xa3;" horiz-adv-x="1085" d="M104 547q0 21 9 39h252q-8 28 -27 85.5t-27 86.5h-198q-9 18 -9 39t9 39h178q-29 106 -29 184q0 73 25.5 142.5t72.5 127t122 92.5t167 35q135 0 214 -67t79 -185q0 -76 -44 -131t-103 -61q-44 10 -68.5 39.5t-24.5 66.5q0 46 33 75.5t99 29.5q-14 51 -71 83.5t-145 32.5 q-53 0 -98 -10q-24 -4 -51 -61t-27 -133q0 -93 47 -260h320q10 -20 10 -39t-10 -39h-299q32 -103 49 -172h250q10 -20 10 -39t-10 -39h-231q14 -72 14 -111q0 -56 -27 -109t-80 -87v-11l346 -36l58 194h14q20 0 45 -6t35 -14l-27 -348l-596 67l-208 -67q-11 14 -20 42.5 t-9 51.5q90 75 246 116q45 54 45 140q0 58 -29 178h-272q-9 18 -9 39z" />
<glyph unicode="&#xa4;" horiz-adv-x="1085" d="M47 131l146 150q-80 110 -80 270q0 162 80 278l-146 150q42 69 109 108l149 -155q101 63 240 63q131 0 237 -61l150 153q66 -38 108 -108l-147 -150q82 -116 82 -270q0 -165 -80 -278l145 -150q-42 -70 -108 -108l-150 153q-98 -61 -239 -61q-140 0 -238 61l-149 -153 q-67 39 -109 108zM281 555q0 -78 22 -135.5t60 -89.5t83.5 -47t98.5 -15q117 0 189.5 71.5t72.5 215.5q0 80 -23.5 139t-63 89.5t-83 44.5t-92.5 14q-51 0 -95.5 -14.5t-83.5 -45.5t-62 -89.5t-23 -137.5z" />
<glyph unicode="&#xa5;" horiz-adv-x="1085" d="M4 1290v15q0 58 27 92h469l-21 -107l-151 -22l247 -537h11l270 537l-176 22v15q0 58 27 92h397l-21 -107l-84 -22l-303 -568h226q10 -20 10 -38q0 -19 -10 -39h-267l-18 -37v-135h285q10 -20 10 -39t-10 -39h-285v-244l188 -23v-14q0 -60 -26 -92h-539l21 106l168 23v244 h-285q-8 16 -8 39t8 39h285v135l-19 37h-266q-8 16 -8 39q0 22 8 38h227l-285 568z" />
<glyph unicode="&#xa6;" horiz-adv-x="512" d="M172 356q41 13 84 13t84 -13v-807q-38 -12 -84 -12t-84 12v807zM172 688v807q38 12 84 12t84 -12v-807q-38 -12 -84 -12t-84 12z" />
<glyph unicode="&#xa7;" horiz-adv-x="983" d="M104 426q0 37 19 92l250 248q-86 72 -119 142t-33 159q0 138 102 244t250 106q124 0 207.5 -61.5t83.5 -165.5q0 -75 -44 -127.5t-103 -58.5q-40 10 -63 37.5t-23 62.5q0 46 32 75t97 29q-15 41 -75 69t-136 28q-37 0 -86 -11q-8 -2 -20.5 -16t-25.5 -36.5t-22.5 -58.5 t-9.5 -75q0 -119 107.5 -219.5t386.5 -241.5q0 -37 -19 -92l-250 -248q87 -73 119.5 -142t32.5 -159q0 -138 -102 -244t-250 -106q-124 0 -207.5 61.5t-83.5 165.5q0 75 44 128t103 59q40 -10 63 -38t23 -63q0 -46 -32 -75t-97 -29q15 -41 75 -68.5t136 -27.5q41 0 86 10 q8 2 20.5 16t25.5 36.5t22.5 58.5t9.5 75q0 119 -107.5 219.5t-386.5 241.5zM291 518q157 -90 246 -153l155 190q-153 85 -246 152z" />
<glyph unicode="&#xa8;" d="M236 1251q0 51 27.5 80t76.5 29q48 0 77 -29.5t29 -79.5q0 -47 -28 -77.5t-78 -30.5q-51 0 -77.5 30t-26.5 78zM578 1251q0 51 28 80t78 29q48 0 76 -29t28 -80q0 -48 -27.5 -78t-76.5 -30q-52 0 -79 30t-27 78z" />
<glyph unicode="&#xa9;" horiz-adv-x="1540" d="M82 698q0 319 192 519t498 200q201 0 357 -89.5t242.5 -253.5t86.5 -376q0 -209 -87.5 -373t-244.5 -254.5t-358 -90.5q-307 0 -496.5 197.5t-189.5 520.5zM184 696q0 -286 156 -454t428 -168t430 169t158 455t-156 455.5t-428 169.5q-273 0 -430.5 -169.5t-157.5 -457.5 zM455 698q0 67 23.5 129t68 113.5t119 83t168.5 31.5q80 0 174 -21v-207q-18 -12 -58 -12h-12l-33 143q-60 13 -114 13q-49 0 -93 -6q-34 -5 -70 -84t-36 -183q0 -131 59.5 -199.5t167.5 -68.5q53 0 96 12l33 148h13q39 0 57 -12v-181q-86 -55 -213 -55q-154 0 -252 97 t-98 259z" />
<glyph unicode="&#xaa;" horiz-adv-x="716" d="M63 856q0 164 207 191l203 28v217q-193 -24 -260 -24q-52 0 -72 13t-20 48q0 42 16 68h406q65 -60 65 -176l-6 -426q42 -19 115 -19v-28q-26 -72 -107 -72q-88 0 -125 72q-76 -42 -120 -57t-93 -15q-93 0 -151 46t-58 134zM205 874q0 -102 121 -102q48 0 147 23v215 l-237 -58q-31 -31 -31 -78z" />
<glyph unicode="&#xab;" horiz-adv-x="794" d="M41 494v18l301 387l66 -12l-160 -383l160 -385l-66 -13zM387 494v18l301 387l66 -12l-160 -383l160 -385l-66 -13z" />
<glyph unicode="&#xac;" d="M59 645v158h906v-594h-166v436h-740z" />
<glyph unicode="&#xad;" horiz-adv-x="512" d="M57 420v158h398v-158h-398z" />
<glyph unicode="&#xae;" horiz-adv-x="831" d="M61 1057q0 160 99.5 260t257.5 100q157 0 254.5 -99.5t97.5 -260.5q0 -160 -99 -260.5t-257 -100.5q-157 0 -255 99.5t-98 261.5zM125 1055q0 -139 76 -219t213 -80q139 0 216 80.5t77 220.5q0 141 -76 221t-213 80q-139 0 -216 -80.5t-77 -222.5zM272 879l4 36l39 5v274 l-41 4v8q0 17 9 29h139q59 0 91 -26.5t32 -71.5q0 -67 -62 -93l99 -151q-19 -19 -43 -19l-123 152l-37 -6v-100l43 -5v-8q0 -16 -8 -28h-142zM379 1063l70 4q30 20 30 66q0 61 -65 61h-35v-131z" />
<glyph unicode="&#xaf;" d="M272 1180v157h480v-157h-480z" />
<glyph unicode="&#xb0;" horiz-adv-x="749" d="M92 1128q0 128 77.5 208.5t209.5 80.5q128 0 203 -79t75 -210t-79.5 -209.5t-206.5 -78.5q-126 0 -202.5 77.5t-76.5 210.5zM219 1126q0 -89 43.5 -132.5t112.5 -43.5q72 0 113.5 44.5t41.5 133.5q0 90 -42 134.5t-113 44.5q-73 0 -114.5 -45.5t-41.5 -135.5z" />
<glyph unicode="&#xb1;" horiz-adv-x="1085" d="M117 0v147h850v-147h-850zM117 604v148h348v360h153v-360h349v-148h-349v-362h-153v362h-348z" />
<glyph unicode="&#xb2;" horiz-adv-x="778" d="M86 946v133q161 115 247.5 198t118 147.5t31.5 140.5q0 89 -48.5 137.5t-141.5 48.5q-89 0 -148 -70l-41 25q33 75 94.5 118.5t151.5 43.5q132 0 217.5 -74.5t85.5 -206.5q0 -121 -89 -231.5t-326 -268.5v-10q284 25 374 25q45 0 62.5 -18t17.5 -54q0 -46 -12 -84h-594z " />
<glyph unicode="&#xb3;" horiz-adv-x="778" d="M111 1016q211 25 301 71t90 130q0 75 -52 105t-165 30h-95v104h95q200 0 200 150q0 69 -48 107t-124 38q-104 0 -161 -63l-39 24q31 73 96 114.5t153 41.5q128 0 208.5 -66.5t80.5 -175.5q0 -73 -39.5 -129t-101.5 -78v-10q162 -42 162 -203q0 -127 -148 -198t-397 -82 q-16 37 -16 90z" />
<glyph unicode="&#xb4;" d="M340 1141l115 354h237l-274 -375q-43 0 -78 21z" />
<glyph unicode="&#xb6;" d="M86 977q0 191 135.5 305.5t360.5 114.5h426l-21 -107l-162 -22v-1180q0 -216 -95 -324t-263 -108q-117 0 -195.5 61.5t-78.5 165.5q0 75 44 128t103 59q40 -10 63 -38t23 -63q0 -46 -32 -75t-97 -29q10 -39 51 -65.5t107 -26.5q101 0 156 66.5t55 217.5v537l-174 10 q-194 11 -300 106.5t-106 266.5z" />
<glyph unicode="&#xb7;" horiz-adv-x="460" d="M96 496q0 65 36 102t99 37q62 0 99 -37.5t37 -101.5q0 -63 -36.5 -101.5t-99.5 -38.5q-66 0 -100.5 38t-34.5 102z" />
<glyph unicode="&#xb8;" d="M348 -377q180 17 180 90q0 38 -32 53t-109 15v31l98 122h54l-17 -63q154 -13 154 -145q0 -80 -79.5 -128.5t-229.5 -48.5q-19 29 -19 74z" />
<glyph unicode="&#xb9;" horiz-adv-x="778" d="M88 946l14 96l236 15v667l-111 17q-66 9 -80 33v73h355v-790l200 -15v-10q0 -16 -5 -45.5t-11 -40.5h-598z" />
<glyph unicode="&#xba;" horiz-adv-x="778" d="M41 1044q0 161 101.5 264t246.5 103q149 0 248.5 -96t99.5 -271q0 -170 -102.5 -269t-245.5 -99q-153 0 -250.5 98t-97.5 270zM197 1042q0 -135 51 -204.5t149 -69.5q89 0 138 74t49 202q0 275 -201 275q-92 0 -139 -75t-47 -202z" />
<glyph unicode="&#xbb;" horiz-adv-x="794" d="M41 121l160 383l-160 385l65 12l302 -387v-18l-302 -387zM387 121l160 383l-160 385l66 12l301 -387v-18l-301 -387z" />
<glyph unicode="&#xbc;" horiz-adv-x="1925" d="M88 496l14 96l236 14v668l-111 16q-66 9 -80 33v74h355v-791l200 -14v-10q0 -16 -5 -45.5t-11 -40.5h-598zM604 -104l588 1599q75 0 129 -47l-588 -1600q-75 0 -129 48zM1196 186v140l332 596q23 0 59 -9.5t53 -21.5l-327 -586h295v297h164v-297h102v-8q0 -76 -25 -111 h-77v-186h-164v186h-412z" />
<glyph unicode="&#xbd;" horiz-adv-x="1925" d="M88 496l14 96l236 14v668l-111 16q-66 9 -80 33v74h355v-791l200 -14v-10q0 -16 -5 -45.5t-11 -40.5h-598zM604 -104l588 1599q75 0 129 -47l-588 -1600q-75 0 -129 48zM1233 0v133q161 115 247.5 198t118 147t31.5 140q0 89 -48.5 138t-141.5 49q-89 0 -148 -70l-41 25 q33 75 94.5 118.5t151.5 43.5q132 0 217.5 -74.5t85.5 -206.5q0 -121 -89 -231.5t-327 -268.5v-10q284 25 375 25q45 0 62.5 -18t17.5 -54q0 -46 -12 -84h-594z" />
<glyph unicode="&#xbe;" horiz-adv-x="1925" d="M111 565q211 25 301 71t90 130q0 75 -52 105t-165 30h-95v105h95q200 0 200 149q0 69 -48 107t-124 38q-104 0 -161 -63l-39 25q31 73 96 114t153 41q129 0 209 -66t80 -175q0 -73 -39.5 -129t-101.5 -78v-11q162 -42 162 -202q0 -127 -148.5 -198.5t-396.5 -82.5 q-16 37 -16 90zM604 -104l588 1599q75 0 129 -47l-588 -1600q-75 0 -129 48zM1196 186v140l332 596q23 0 59 -9.5t53 -21.5l-327 -586h295v297h164v-297h102v-8q0 -76 -25 -111h-77v-186h-164v186h-412z" />
<glyph unicode="&#xbf;" horiz-adv-x="960" d="M133 -72q0 144 104 246t291 143l11 265h71l123 -211q0 -56 -31 -92q-182 -48 -273 -123.5t-91 -198.5q0 -105 66.5 -168t173.5 -63q121 0 208 84l41 -21q-87 -209 -327 -209q-73 0 -139 23t-117 65.5t-81 109.5t-30 150zM451 887q0 58 34.5 94.5t94.5 36.5q63 0 96 -36 t33 -95q0 -61 -34.5 -96t-94.5 -35q-59 0 -94 35t-35 96z" />
<glyph unicode="&#xc0;" horiz-adv-x="1187" d="M-61 0l20 106l98 23l484 1268l110 20l471 -1288l127 -23v-14q0 -60 -26 -92h-514l20 106l176 23l-141 395l-418 -20l-131 -375l186 -23v-14q0 -60 -26 -92h-436zM248 1720h233l148 -239q-28 -31 -76 -35zM387 623h342l-164 460h-16z" />
<glyph unicode="&#xc1;" horiz-adv-x="1187" d="M-61 0l20 106l98 23l484 1268l110 20l471 -1288l127 -23v-14q0 -60 -26 -92h-514l20 106l176 23l-141 395l-418 -20l-131 -375l186 -23v-14q0 -60 -26 -92h-436zM387 623h342l-164 460h-16zM557 1481l148 239h233l-305 -274q-48 4 -76 35z" />
<glyph unicode="&#xc2;" horiz-adv-x="1187" d="M-61 0l20 106l98 23l484 1268l110 20l471 -1288l127 -23v-14q0 -60 -26 -92h-514l20 106l176 23l-141 395l-418 -20l-131 -375l186 -23v-14q0 -60 -26 -92h-436zM311 1485l230 235h108l230 -235q-9 -13 -30 -25.5t-38 -13.5l-225 131l-211 -131q-38 7 -64 39zM387 623 h342l-164 460h-16z" />
<glyph unicode="&#xc3;" horiz-adv-x="1187" d="M-61 0l20 106l98 23l484 1268l110 20l471 -1288l127 -23v-14q0 -60 -26 -92h-514l20 106l176 23l-141 395l-418 -20l-131 -375l186 -23v-14q0 -60 -26 -92h-436zM258 1464q47 109 77.5 160.5t57 68.5t68.5 17q46 0 156 -49t133 -49q30 0 51.5 20t79.5 107l53 -27 q-66 -151 -107.5 -201.5t-95.5 -50.5q-47 0 -158 49.5t-135 49.5q-31 0 -51 -19.5t-76 -101.5zM387 623h342l-164 460h-16z" />
<glyph unicode="&#xc4;" horiz-adv-x="1187" d="M-61 0l20 106l98 23l484 1268l110 20l471 -1288l127 -23v-14q0 -60 -26 -92h-514l20 106l176 23l-141 395l-418 -20l-131 -375l186 -23v-14q0 -60 -26 -92h-436zM336 1559q0 45 25.5 71.5t68.5 26.5t69.5 -26.5t26.5 -71.5q0 -43 -26 -71t-70 -28t-69 28t-25 71zM387 623 h342l-164 460h-16zM674 1559q0 46 26 72t70 26q43 0 68.5 -26.5t25.5 -71.5q0 -43 -25.5 -71t-68.5 -28q-47 0 -71.5 27.5t-24.5 71.5z" />
<glyph unicode="&#xc5;" horiz-adv-x="1187" d="M-61 0l20 106l98 23l480 1255q-71 12 -110.5 55.5t-39.5 114.5q0 85 56 131t159 46q100 0 154.5 -46t54.5 -131q0 -70 -39 -113t-110 -57l460 -1255l127 -23v-14q0 -60 -26 -92h-514l20 106l176 23l-141 395l-418 -20l-131 -375l186 -23v-14q0 -60 -26 -92h-436zM387 623 h342l-164 460h-16zM485 1554q0 -96 113 -96q115 0 115 98q0 97 -113 97q-115 0 -115 -99z" />
<glyph unicode="&#xc6;" horiz-adv-x="1835" d="M-61 0l20 106l135 23l393 1139l-188 22v15q0 58 27 92h1110l237 20v-385q-35 -24 -90 -24h-14l-66 262h-436v-498h444q7 -31 7 -70q0 -34 -7 -69l-172 12h-272v-528l463 18l67 262h15q56 0 90 -24v-373h-1028l20 106l168 23v516h-430l-170 -516l187 -23v-14 q0 -58 -27 -92h-483zM473 772h389v502h-223z" />
<glyph unicode="&#xc7;" horiz-adv-x="1312" d="M102 688q0 149 46 279.5t134 231.5t227.5 159.5t313.5 58.5q189 0 346 -41v-391q-35 -24 -90 -24h-14l-66 292q-113 25 -245 25q-124 0 -201 -18q-26 -6 -61.5 -46.5t-72 -109t-62 -179.5t-25.5 -237q0 -276 127 -420.5t350 -144.5q122 0 192 24l68 267h14q55 0 91 -25 v-297q-141 -112 -383 -112q-150 0 -277 49t-218 139t-142.5 223.5t-51.5 296.5zM573 -377q181 17 181 90q0 38 -32.5 53t-109.5 15v31l99 122h53l-16 -63q153 -12 153 -145q0 -80 -79.5 -128.5t-229.5 -48.5q-19 29 -19 74z" />
<glyph unicode="&#xc8;" horiz-adv-x="1232" d="M72 0l20 106l168 23v1139l-188 22v15q0 59 26 92h736l237 20v-385q-35 -24 -90 -24h-14l-66 262h-436v-498h444q6 -27 6 -70q0 -39 -6 -69l-172 12h-272v-528l463 18l67 262h15q56 0 90 -24v-373h-1028zM295 1720h233l148 -239q-28 -31 -76 -35z" />
<glyph unicode="&#xc9;" horiz-adv-x="1232" d="M72 0l20 106l168 23v1139l-188 22v15q0 59 26 92h736l237 20v-385q-35 -24 -90 -24h-14l-66 262h-436v-498h444q6 -27 6 -70q0 -39 -6 -69l-172 12h-272v-528l463 18l67 262h15q56 0 90 -24v-373h-1028zM514 1481l148 239h233l-305 -274q-48 4 -76 35z" />
<glyph unicode="&#xca;" horiz-adv-x="1232" d="M72 0l20 106l168 23v1139l-188 22v15q0 59 26 92h736l237 20v-385q-35 -24 -90 -24h-14l-66 262h-436v-498h444q6 -27 6 -70q0 -39 -6 -69l-172 12h-272v-528l463 18l67 262h15q56 0 90 -24v-373h-1028zM322 1485l229 235h108l230 -235q-9 -13 -30 -25.5t-38 -13.5 l-225 131l-211 -131q-37 6 -63 39z" />
<glyph unicode="&#xcb;" horiz-adv-x="1232" d="M72 0l20 106l168 23v1139l-188 22v15q0 59 26 92h736l237 20v-385q-35 -24 -90 -24h-14l-66 262h-436v-498h444q6 -27 6 -70q0 -39 -6 -69l-172 12h-272v-528l463 18l67 262h15q56 0 90 -24v-373h-1028zM340 1559q0 45 25.5 71.5t68.5 26.5t69.5 -26.5t26.5 -71.5 q0 -43 -26 -71t-70 -28t-69 28t-25 71zM678 1559q0 46 26 72t70 26q43 0 68.5 -26.5t25.5 -71.5q0 -43 -25.5 -71t-68.5 -28q-47 0 -71.5 27.5t-24.5 71.5z" />
<glyph unicode="&#xcc;" horiz-adv-x="724" d="M70 1720h233l148 -239q-28 -31 -76 -35zM72 0l20 106l168 23v1139l-188 22v15q0 59 26 92h555l-20 -107l-168 -22v-1139l188 -23v-14q0 -60 -26 -92h-555z" />
<glyph unicode="&#xcd;" horiz-adv-x="724" d="M72 0l20 106l168 23v1139l-188 22v15q0 59 26 92h555l-20 -107l-168 -22v-1139l188 -23v-14q0 -60 -26 -92h-555zM274 1481l148 239h233l-305 -274q-48 4 -76 35z" />
<glyph unicode="&#xce;" horiz-adv-x="724" d="M72 0l20 106l168 23v1139l-188 22v15q0 59 26 92h555l-20 -107l-168 -22v-1139l188 -23v-14q0 -60 -26 -92h-555zM82 1485l229 235h109l229 -235q-10 -13 -30.5 -25.5t-36.5 -13.5l-226 131l-211 -131q-37 6 -63 39z" />
<glyph unicode="&#xcf;" horiz-adv-x="724" d="M72 0l20 106l168 23v1139l-188 22v15q0 59 26 92h555l-20 -107l-168 -22v-1139l188 -23v-14q0 -60 -26 -92h-555zM125 1559q0 46 23 72t63 26q39 0 62.5 -26.5t23.5 -71.5q0 -43 -23 -71t-63 -28q-41 0 -63.5 28t-22.5 71zM430 1559q0 45 24 71.5t64 26.5t63 -26t23 -72 q0 -42 -23.5 -70.5t-62.5 -28.5q-42 0 -65 28t-23 71z" />
<glyph unicode="&#xd0;" horiz-adv-x="1458" d="M72 0l20 106l168 23v504h-127q-8 50 -8 74q0 23 8 73h127v488l-188 22v15q0 59 26 92h580q142 0 263.5 -43t215 -127t146.5 -219.5t53 -309.5q0 -128 -38.5 -241.5t-103 -195.5t-149 -142t-178 -89.5t-187.5 -29.5h-628zM465 135l237 -22q67 10 127 34.5t115 71.5t95 111 t63.5 158.5t23.5 209.5q0 127 -25 227t-68 165t-104 107.5t-129 60.5t-147 18h-188v-496h170q8 -33 8 -73q0 -41 -8 -74h-170v-498z" />
<glyph unicode="&#xd1;" horiz-adv-x="1499" d="M72 0l20 106l168 23q10 761 16 1139l-188 22v15q0 58 27 92h372l635 -1026h17v897l-232 22v15q0 58 27 92h526l-20 -107l-146 -22l-16 -1268l-100 -20l-746 1122h-16v-973l219 -23v-14q0 -58 -27 -92h-536zM449 1464q47 109 77.5 160.5t57 68.5t67.5 17q46 0 156 -49 t133 -49q30 0 51.5 20t79.5 107l53 -27q-66 -151 -107.5 -201.5t-94.5 -50.5q-47 0 -158 49.5t-135 49.5q-31 0 -51 -19.5t-76 -101.5z" />
<glyph unicode="&#xd2;" horiz-adv-x="1472" d="M102 698q0 162 50 298t135.5 227.5t201 142.5t244.5 51q134 0 250.5 -50t202.5 -140.5t135 -227t49 -301.5q0 -164 -51 -301t-138 -227t-201 -140t-241 -50q-134 0 -250.5 49.5t-202.5 140.5t-135 227t-49 301zM332 698q0 -155 29.5 -269.5t84.5 -183.5t128.5 -102.5 t166.5 -33.5q180 0 290 151t110 438q0 157 -31.5 273.5t-88.5 184.5t-129 100t-161 32q-180 0 -289.5 -148.5t-109.5 -441.5zM408 1720h233l147 -239q-28 -31 -75 -35z" />
<glyph unicode="&#xd3;" horiz-adv-x="1472" d="M102 698q0 162 50 298t135.5 227.5t201 142.5t244.5 51q134 0 250.5 -50t202.5 -140.5t135 -227t49 -301.5q0 -164 -51 -301t-138 -227t-201 -140t-241 -50q-134 0 -250.5 49.5t-202.5 140.5t-135 227t-49 301zM332 698q0 -155 29.5 -269.5t84.5 -183.5t128.5 -102.5 t166.5 -33.5q180 0 290 151t110 438q0 157 -31.5 273.5t-88.5 184.5t-129 100t-161 32q-180 0 -289.5 -148.5t-109.5 -441.5zM670 1481l147 239h234l-306 -274q-47 4 -75 35z" />
<glyph unicode="&#xd4;" horiz-adv-x="1472" d="M102 698q0 162 50 298t135.5 227.5t201 142.5t244.5 51q134 0 250.5 -50t202.5 -140.5t135 -227t49 -301.5q0 -164 -51 -301t-138 -227t-201 -140t-241 -50q-134 0 -250.5 49.5t-202.5 140.5t-135 227t-49 301zM332 698q0 -155 29.5 -269.5t84.5 -183.5t128.5 -102.5 t166.5 -33.5q180 0 290 151t110 438q0 157 -31.5 273.5t-88.5 184.5t-129 100t-161 32q-180 0 -289.5 -148.5t-109.5 -441.5zM451 1485l229 235h108l230 -235q-9 -13 -30 -25.5t-38 -13.5l-225 131l-211 -131q-37 6 -63 39z" />
<glyph unicode="&#xd5;" horiz-adv-x="1472" d="M102 698q0 162 50 298t135.5 227.5t201 142.5t244.5 51q134 0 250.5 -50t202.5 -140.5t135 -227t49 -301.5q0 -164 -51 -301t-138 -227t-201 -140t-241 -50q-134 0 -250.5 49.5t-202.5 140.5t-135 227t-49 301zM332 698q0 -155 29.5 -269.5t84.5 -183.5t128.5 -102.5 t166.5 -33.5q180 0 290 151t110 438q0 157 -31.5 273.5t-88.5 184.5t-129 100t-161 32q-180 0 -289.5 -148.5t-109.5 -441.5zM399 1464q47 109 77.5 160.5t57 68.5t68.5 17q46 0 156 -49t133 -49q30 0 51.5 20t79.5 107l53 -27q-66 -151 -107.5 -201.5t-95.5 -50.5 q-47 0 -157.5 49.5t-134.5 49.5q-31 0 -51 -19.5t-76 -101.5z" />
<glyph unicode="&#xd6;" horiz-adv-x="1472" d="M102 698q0 162 50 298t135.5 227.5t201 142.5t244.5 51q134 0 250.5 -50t202.5 -140.5t135 -227t49 -301.5q0 -164 -51 -301t-138 -227t-201 -140t-241 -50q-134 0 -250.5 49.5t-202.5 140.5t-135 227t-49 301zM332 698q0 -155 29.5 -269.5t84.5 -183.5t128.5 -102.5 t166.5 -33.5q180 0 290 151t110 438q0 157 -31.5 273.5t-88.5 184.5t-129 100t-161 32q-180 0 -289.5 -148.5t-109.5 -441.5zM467 1559q0 45 25.5 71.5t68.5 26.5t69.5 -26.5t26.5 -71.5q0 -43 -26 -71t-70 -28t-69 28t-25 71zM805 1559q0 46 26 72t70 26q43 0 68.5 -26.5 t25.5 -71.5q0 -43 -25.5 -71t-68.5 -28q-47 0 -71.5 27.5t-24.5 71.5z" />
<glyph unicode="&#xd7;" horiz-adv-x="1085" d="M145 213l293 293l-293 293l105 104l293 -293l293 293l104 -104l-293 -293l293 -293l-104 -104l-293 292l-293 -292z" />
<glyph unicode="&#xd8;" horiz-adv-x="1472" d="M102 698q0 162 50 298t135.5 227.5t201 142.5t244.5 51q175 0 322 -86l127 215q22 -2 46 -13.5t34 -27.5l-134 -225q114 -95 178 -244t64 -338q0 -164 -51 -301t-138 -227t-201 -140t-241 -50q-181 0 -323 86l-125 -216q-22 2 -46 13.5t-34 27.5l131 226 q-114 95 -177 243t-63 338zM332 698q0 -286 98 -432l549 934q-101 88 -248 88q-180 0 -289.5 -148.5t-109.5 -441.5zM492 195q99 -86 249 -86q180 0 290 151t110 438q0 279 -101 430z" />
<glyph unicode="&#xd9;" horiz-adv-x="1501" d="M88 1290v15q0 58 27 92h530l-20 -107l-181 -22v-836q0 -164 78.5 -231.5t257.5 -67.5q167 0 249.5 69t82.5 230v836l-213 22v15q0 58 27 92h481l-21 -107l-124 -22v-836q0 -214 -140 -333t-377 -119q-238 0 -371.5 124.5t-133.5 327.5v836zM449 1720h233l147 -239 q-28 -31 -75 -35z" />
<glyph unicode="&#xda;" horiz-adv-x="1501" d="M88 1290v15q0 58 27 92h530l-20 -107l-181 -22v-836q0 -164 78.5 -231.5t257.5 -67.5q167 0 249.5 69t82.5 230v836l-213 22v15q0 58 27 92h481l-21 -107l-124 -22v-836q0 -214 -140 -333t-377 -119q-238 0 -371.5 124.5t-133.5 327.5v836zM698 1481l148 239h233 l-305 -274q-48 4 -76 35z" />
<glyph unicode="&#xdb;" horiz-adv-x="1501" d="M88 1290v15q0 58 27 92h530l-20 -107l-181 -22v-836q0 -164 78.5 -231.5t257.5 -67.5q167 0 249.5 69t82.5 230v836l-213 22v15q0 58 27 92h481l-21 -107l-124 -22v-836q0 -214 -140 -333t-377 -119q-238 0 -371.5 124.5t-133.5 327.5v836zM487 1485l230 235h108 l230 -235q-9 -13 -30 -25.5t-38 -13.5l-225 131l-211 -131q-38 7 -64 39z" />
<glyph unicode="&#xdc;" horiz-adv-x="1501" d="M88 1290v15q0 58 27 92h530l-20 -107l-181 -22v-836q0 -164 78.5 -231.5t257.5 -67.5q167 0 249.5 69t82.5 230v836l-213 22v15q0 58 27 92h481l-21 -107l-124 -22v-836q0 -214 -140 -333t-377 -119q-238 0 -371.5 124.5t-133.5 327.5v836zM504 1559q0 45 25.5 71.5 t68.5 26.5t69.5 -26.5t26.5 -71.5q0 -43 -26 -71t-70 -28t-69 28t-25 71zM842 1559q0 46 26 72t70 26q43 0 68.5 -26.5t25.5 -71.5q0 -43 -25.5 -71t-68.5 -28q-47 0 -71.5 27.5t-24.5 71.5z" />
<glyph unicode="&#xdd;" horiz-adv-x="1099" d="M-6 1290v15q0 59 26 92h490l-21 -107l-172 -22l265 -545h16l270 545l-182 22v15q0 58 27 92h407l-20 -107l-76 -22l-373 -684v-455l189 -23v-14q0 -58 -27 -92h-555l21 106l167 23v451l-358 688zM526 1481l148 239h233l-305 -274q-48 4 -76 35z" />
<glyph unicode="&#xde;" horiz-adv-x="1171" d="M72 0l20 106l168 23v1139l-188 22v15q0 59 26 92h367v-275h156q113 0 203.5 -31.5t147.5 -85.5t87.5 -125t30.5 -153q0 -163 -105 -271.5t-315 -136.5l-205 -26v-293h-393zM465 414l270 16q66 40 104 122t38 175q0 126 -68.5 203.5t-198.5 77.5h-145v-594z" />
<glyph unicode="&#xdf;" horiz-adv-x="1114" d="M59 0l21 96l131 23v755q-67 25 -98 91l98 53v12q0 196 131.5 330.5t323.5 134.5q135 0 220 -68.5t85 -193.5q0 -55 -27.5 -109.5t-61 -91t-82 -87.5t-73.5 -85q-6 -24 -6 -47q0 -48 23.5 -94t59 -81t77 -77.5t77 -82t59 -95t23.5 -115.5q0 -113 -91 -200.5t-220 -87.5 q-66 0 -109.5 13t-97.5 46q0 25 9.5 68.5t19.5 64.5q128 -76 223 -76q19 0 47 4q15 2 33 35.5t18 81.5q0 49 -32 98t-78 92t-92.5 88t-78.5 103t-32 121q0 45 25.5 98t61.5 102t72 97t61.5 98.5t25.5 91.5q0 72 -48.5 112t-144.5 40q-80 0 -139 -17q-7 -2 -11 -4.5t-9 -10.5 t-11 -23q-49 -122 -49 -357v-946h-334z" />
<glyph unicode="&#xe0;" horiz-adv-x="1007" d="M78 229q0 114 68 176.5t206 83.5l275 39v332q-246 -35 -348 -35q-69 0 -97 18.5t-28 67.5q0 47 24 86h539q88 -84 88 -249l-8 -611q38 -28 100 -28q31 0 55 6v-33q-36 -102 -145 -102q-62 0 -101.5 24.5t-66.5 77.5q-97 -59 -156.5 -80.5t-126.5 -21.5q-126 0 -202 62.5 t-76 186.5zM166 1495h237l115 -354q-35 -21 -78 -21zM266 254q0 -69 39 -108.5t123 -39.5q68 0 199 31v307l-320 -79q-41 -48 -41 -111z" />
<glyph unicode="&#xe1;" horiz-adv-x="1007" d="M78 229q0 114 68 176.5t206 83.5l275 39v332q-246 -35 -348 -35q-69 0 -97 18.5t-28 67.5q0 47 24 86h539q88 -84 88 -249l-8 -611q38 -28 100 -28q31 0 55 6v-33q-36 -102 -145 -102q-62 0 -101.5 24.5t-66.5 77.5q-97 -59 -156.5 -80.5t-126.5 -21.5q-126 0 -202 62.5 t-76 186.5zM266 254q0 -69 39 -108.5t123 -39.5q68 0 199 31v307l-320 -79q-41 -48 -41 -111zM408 1141l114 354h238l-275 -375q-42 0 -77 21z" />
<glyph unicode="&#xe2;" horiz-adv-x="1007" d="M78 229q0 114 68 176.5t206 83.5l275 39v332q-246 -35 -348 -35q-69 0 -97 18.5t-28 67.5q0 47 24 86h539q88 -84 88 -249l-8 -611q38 -28 100 -28q31 0 55 6v-33q-36 -102 -145 -102q-62 0 -101.5 24.5t-66.5 77.5q-97 -59 -156.5 -80.5t-126.5 -21.5q-126 0 -202 62.5 t-76 186.5zM190 1143l234 352h96l234 -352q-30 -23 -76 -23l-215 193l-201 -193q-34 0 -72 23zM266 254q0 -69 39 -108.5t123 -39.5q68 0 199 31v307l-320 -79q-41 -48 -41 -111z" />
<glyph unicode="&#xe3;" horiz-adv-x="1007" d="M78 229q0 114 68 176.5t206 83.5l275 39v332q-246 -35 -348 -35q-69 0 -97 18.5t-28 67.5q0 47 24 86h539q88 -84 88 -249l-8 -611q38 -28 100 -28q31 0 55 6v-33q-36 -102 -145 -102q-62 0 -101.5 24.5t-66.5 77.5q-97 -59 -156.5 -80.5t-126.5 -21.5q-126 0 -202 62.5 t-76 186.5zM154 1147q47 109 77.5 160.5t57 68.5t67.5 17q46 0 156 -49.5t133 -49.5q30 0 51.5 20t79.5 107l53 -26q-66 -151 -107.5 -201.5t-94.5 -50.5q-47 0 -158 49t-135 49q-31 0 -51 -19.5t-76 -101.5zM266 254q0 -69 39 -108.5t123 -39.5q68 0 199 31v307l-320 -79 q-41 -48 -41 -111z" />
<glyph unicode="&#xe4;" horiz-adv-x="1007" d="M78 229q0 114 68 176.5t206 83.5l275 39v332q-246 -35 -348 -35q-69 0 -97 18.5t-28 67.5q0 47 24 86h539q88 -84 88 -249l-8 -611q38 -28 100 -28q31 0 55 6v-33q-36 -102 -145 -102q-62 0 -101.5 24.5t-66.5 77.5q-97 -59 -156.5 -80.5t-126.5 -21.5q-126 0 -202 62.5 t-76 186.5zM201 1251q0 51 27.5 80t76.5 29q48 0 77.5 -29.5t29.5 -79.5q0 -47 -28.5 -77.5t-78.5 -30.5q-51 0 -77.5 30t-26.5 78zM266 254q0 -69 39 -108.5t123 -39.5q68 0 199 31v307l-320 -79q-41 -48 -41 -111zM543 1251q0 51 28 80t78 29q48 0 76.5 -29t28.5 -80 q0 -47 -28 -77.5t-77 -30.5q-52 0 -79 30t-27 78z" />
<glyph unicode="&#xe5;" horiz-adv-x="1007" d="M78 229q0 114 68 176.5t206 83.5l275 39v332q-246 -35 -348 -35q-69 0 -97 18.5t-28 67.5q0 47 24 86h539q88 -84 88 -249l-8 -611q38 -28 100 -28q31 0 55 6v-33q-36 -102 -145 -102q-62 0 -101.5 24.5t-66.5 77.5q-97 -59 -156.5 -80.5t-126.5 -21.5q-126 0 -202 62.5 t-76 186.5zM258 1317q0 92 60 145.5t163 53.5q98 0 157.5 -52t59.5 -147q0 -92 -61 -144.5t-162 -52.5q-98 0 -157.5 52t-59.5 145zM266 254q0 -69 39 -108.5t123 -39.5q68 0 199 31v307l-320 -79q-41 -48 -41 -111zM356 1317q0 -113 121 -113q123 0 123 115q0 113 -121 113 q-123 0 -123 -115z" />
<glyph unicode="&#xe6;" horiz-adv-x="1527" d="M78 229q0 114 68 176.5t206 83.5l262 37v332q-238 -33 -335 -33q-69 0 -97 18.5t-28 67.5q0 47 24 86h527q41 -41 63 -96q117 117 281 117q171 0 274.5 -98.5t103.5 -280.5q0 -40 -8 -98h-626q0 -406 348 -406q157 0 254 90l20 -51q-92 -194 -344 -194q-93 0 -178.5 33 t-144.5 98q-136 -78 -226.5 -104.5t-165.5 -26.5q-126 0 -202 62.5t-76 186.5zM266 256q0 -150 162 -150q110 0 272 64q-81 116 -86 270l-307 -75q-41 -48 -41 -109zM797 627l463 18v14q0 116 -65.5 179t-180.5 63q-44 0 -80 -8q-31 -8 -78.5 -86.5t-58.5 -179.5z" />
<glyph unicode="&#xe7;" horiz-adv-x="960" d="M92 485q0 246 139.5 389.5t362.5 143.5q50 0 125.5 -11.5t122.5 -25.5q0 -71 -19 -164q-75 22 -183 37.5t-183 15.5q-35 0 -73 -49.5t-64.5 -135.5t-26.5 -179q0 -184 86.5 -277.5t236.5 -93.5q69 0 133.5 23.5t108.5 66.5l21 -51q-76 -194 -330 -194q-125 0 -228.5 61 t-166 177.5t-62.5 266.5zM362 -377q181 17 181 90q0 38 -32.5 53t-109.5 15v31l99 122h53l-16 -63q153 -12 153 -145q0 -80 -79.5 -128.5t-229.5 -48.5q-19 29 -19 74z" />
<glyph unicode="&#xe8;" d="M92 485q0 226 132.5 379.5t320.5 153.5q171 0 275 -98.5t104 -280.5q0 -33 -9 -98h-626q0 -406 348 -406q157 0 254 90l20 -51q-91 -194 -344 -194q-204 0 -339.5 140t-135.5 365zM231 1495h238l115 -354q-35 -21 -78 -21zM293 627l463 18v14q0 116 -65.5 179t-180.5 63 q-44 0 -80 -8q-31 -8 -78.5 -86.5t-58.5 -179.5z" />
<glyph unicode="&#xe9;" d="M92 485q0 226 132.5 379.5t320.5 153.5q171 0 275 -98.5t104 -280.5q0 -33 -9 -98h-626q0 -406 348 -406q157 0 254 90l20 -51q-91 -194 -344 -194q-204 0 -339.5 140t-135.5 365zM293 627l463 18v14q0 116 -65.5 179t-180.5 63q-44 0 -80 -8q-31 -8 -78.5 -86.5 t-58.5 -179.5zM496 1141l114 354h238l-275 -375q-42 0 -77 21z" />
<glyph unicode="&#xea;" d="M92 485q0 226 132.5 379.5t320.5 153.5q171 0 275 -98.5t104 -280.5q0 -33 -9 -98h-626q0 -406 348 -406q157 0 254 90l20 -51q-91 -194 -344 -194q-204 0 -339.5 140t-135.5 365zM256 1143l233 352h97l233 -352q-30 -23 -76 -23l-215 193l-200 -193q-34 0 -72 23z M293 627l463 18v14q0 116 -65.5 179t-180.5 63q-44 0 -80 -8q-31 -8 -78.5 -86.5t-58.5 -179.5z" />
<glyph unicode="&#xeb;" d="M92 485q0 226 132.5 379.5t320.5 153.5q171 0 275 -98.5t104 -280.5q0 -33 -9 -98h-626q0 -406 348 -406q157 0 254 90l20 -51q-91 -194 -344 -194q-204 0 -339.5 140t-135.5 365zM260 1251q0 51 28 80t77 29q48 0 77 -29.5t29 -79.5q0 -47 -28 -77.5t-78 -30.5 q-51 0 -78 30t-27 78zM293 627l463 18v14q0 116 -65.5 179t-180.5 63q-44 0 -80 -8q-31 -8 -78.5 -86.5t-58.5 -179.5zM602 1251q0 51 28.5 80t78.5 29q48 0 76 -29t28 -80q0 -48 -27.5 -78t-76.5 -30q-52 0 -79.5 30t-27.5 78z" />
<glyph unicode="&#xec;" horiz-adv-x="636" d="M35 1495h237l115 -354q-35 -21 -78 -21zM70 0l20 96l156 23v708l-39 17q-46 20 -62.5 30.5t-25.5 26.5v49l309 68v-899l174 -23v-8q0 -54 -27 -88h-505z" />
<glyph unicode="&#xed;" horiz-adv-x="636" d="M70 0l20 96l156 23v708l-39 17q-46 20 -62.5 30.5t-25.5 26.5v49l309 68v-899l174 -23v-8q0 -54 -27 -88h-505zM256 1141l115 354h237l-274 -375q-43 0 -78 21z" />
<glyph unicode="&#xee;" horiz-adv-x="636" d="M70 0l20 96l156 23v708l-39 17q-46 20 -62.5 30.5t-25.5 26.5v49l309 68v-899l174 -23v-8q0 -54 -27 -88h-505zM70 1145l209 350h86l208 -350q-26 -23 -67 -23l-193 191l-178 -191q-32 0 -65 23z" />
<glyph unicode="&#xef;" horiz-adv-x="636" d="M63 1251q0 51 28 80t77 29q48 0 77 -29.5t29 -79.5q0 -47 -28 -77.5t-78 -30.5q-51 0 -78 30t-27 78zM70 0l20 96l156 23v708l-39 17q-46 20 -62.5 30.5t-25.5 26.5v49l309 68v-899l174 -23v-8q0 -54 -27 -88h-505zM365 1251q0 51 28 80t78 29q48 0 76 -29t28 -80 q0 -48 -27.5 -78t-76.5 -30q-52 0 -79 30t-27 78z" />
<glyph unicode="&#xf0;" horiz-adv-x="1087" d="M92 459q0 154 64 280.5t185 202.5t275 76h54q-70 112 -156 209l-229 -140q-44 23 -64 76l223 137q-76 80 -133 132l62 63q103 -57 190 -123l203 123q43 -22 63 -76l-186 -114q352 -308 352 -744q0 -121 -28 -221t-74 -165.5t-105.5 -110.5t-120.5 -64.5t-122 -19.5 q-198 0 -325.5 129.5t-127.5 349.5zM291 475q0 -179 68 -277t186 -98q250 0 250 457q0 166 -56 315q-154 21 -227 21q-24 0 -59.5 -26t-72.5 -74t-63 -132.5t-26 -185.5z" />
<glyph unicode="&#xf1;" horiz-adv-x="1249" d="M70 0l20 96l156 23v708l-39 17q-46 20 -62.5 30.5t-25.5 26.5v49l282 68l19 -141h8q85 79 158.5 110t161.5 31q143 0 219.5 -68.5t76.5 -191.5v-639l158 -23v-8q0 -56 -26 -88h-478l21 96l143 23v667q-74 74 -194 74q-127 0 -240 -69v-672l156 -23v-8q0 -54 -27 -88h-487 zM309 1147q47 109 77.5 160.5t57 68.5t68.5 17q46 0 156 -49.5t133 -49.5q30 0 51.5 20t79.5 107l53 -26q-66 -151 -107.5 -201.5t-95.5 -50.5q-47 0 -158 49t-135 49q-31 0 -51 -19.5t-76 -101.5z" />
<glyph unicode="&#xf2;" horiz-adv-x="1175" d="M92 500q0 147 65.5 266t179 185.5t251.5 66.5q102 0 192 -35t157.5 -99.5t106.5 -163.5t39 -220q0 -116 -41 -214.5t-109 -165t-158 -103.5t-187 -37q-217 0 -356.5 143.5t-139.5 376.5zM281 1495h237l115 -354q-35 -21 -78 -21zM293 498q0 -191 80.5 -294.5 t224.5 -103.5q130 0 207.5 110t77.5 290q0 201 -84 299t-221 98q-133 0 -209 -112t-76 -287z" />
<glyph unicode="&#xf3;" horiz-adv-x="1175" d="M92 500q0 147 65.5 266t179 185.5t251.5 66.5q102 0 192 -35t157.5 -99.5t106.5 -163.5t39 -220q0 -116 -41 -214.5t-109 -165t-158 -103.5t-187 -37q-217 0 -356.5 143.5t-139.5 376.5zM293 498q0 -191 80.5 -294.5t224.5 -103.5q130 0 207.5 110t77.5 290 q0 201 -84 299t-221 98q-133 0 -209 -112t-76 -287zM547 1141l115 354h237l-274 -375q-43 0 -78 21z" />
<glyph unicode="&#xf4;" horiz-adv-x="1175" d="M92 500q0 147 65.5 266t179 185.5t251.5 66.5q102 0 192 -35t157.5 -99.5t106.5 -163.5t39 -220q0 -116 -41 -214.5t-109 -165t-158 -103.5t-187 -37q-217 0 -356.5 143.5t-139.5 376.5zM293 498q0 -191 80.5 -294.5t224.5 -103.5q130 0 207.5 110t77.5 290 q0 201 -84 299t-221 98q-133 0 -209 -112t-76 -287zM305 1143l234 352h96l233 -352q-30 -23 -75 -23l-215 193l-201 -193q-34 0 -72 23z" />
<glyph unicode="&#xf5;" horiz-adv-x="1175" d="M92 500q0 147 65.5 266t179 185.5t251.5 66.5q102 0 192 -35t157.5 -99.5t106.5 -163.5t39 -220q0 -116 -41 -214.5t-109 -165t-158 -103.5t-187 -37q-217 0 -356.5 143.5t-139.5 376.5zM250 1147q47 109 77.5 160.5t57 68.5t68.5 17q46 0 155.5 -49.5t132.5 -49.5 q30 0 51.5 20t79.5 107l54 -26q-66 -151 -107.5 -201.5t-95.5 -50.5q-47 0 -158 49t-135 49q-31 0 -51 -19.5t-76 -101.5zM293 498q0 -191 80.5 -294.5t224.5 -103.5q130 0 207.5 110t77.5 290q0 201 -84 299t-221 98q-133 0 -209 -112t-76 -287z" />
<glyph unicode="&#xf6;" horiz-adv-x="1175" d="M92 500q0 147 65.5 266t179 185.5t251.5 66.5q102 0 192 -35t157.5 -99.5t106.5 -163.5t39 -220q0 -116 -41 -214.5t-109 -165t-158 -103.5t-187 -37q-217 0 -356.5 143.5t-139.5 376.5zM293 498q0 -191 80.5 -294.5t224.5 -103.5q130 0 207.5 110t77.5 290 q0 201 -84 299t-221 98q-133 0 -209 -112t-76 -287zM311 1251q0 51 28 80t77 29q48 0 77 -29.5t29 -79.5q0 -47 -28 -77.5t-78 -30.5q-51 0 -78 30t-27 78zM653 1251q0 51 28.5 80t78.5 29q48 0 76 -29t28 -80q0 -48 -27.5 -78t-76.5 -30q-52 0 -79.5 30t-27.5 78z" />
<glyph unicode="&#xf7;" horiz-adv-x="1085" d="M117 424v147h850v-147h-850zM406 119q0 65 36 102t99 37q62 0 98.5 -37.5t36.5 -101.5q0 -63 -36 -101t-99 -38q-66 0 -100.5 38t-34.5 101zM406 879q0 65 36 102t99 37q62 0 98.5 -37.5t36.5 -101.5q0 -63 -36 -101.5t-99 -38.5q-66 0 -100.5 38t-34.5 102z" />
<glyph unicode="&#xf8;" horiz-adv-x="1175" d="M92 500q0 147 65.5 266t179 185.5t251.5 66.5q132 0 246 -62l145 228q21 -2 40.5 -13t29.5 -28l-148 -230q86 -68 134 -173.5t48 -239.5q0 -116 -41 -214.5t-109 -165t-158 -103.5t-187 -37q-139 0 -248 59l-143 -225q-21 2 -40.5 13t-29.5 28l147 229q-86 69 -134 175.5 t-48 240.5zM293 498q0 -173 67 -279l398 619q-73 59 -180 59q-133 0 -209 -112t-76 -287zM418 158q74 -58 180 -58q130 0 207.5 110t77.5 290q0 173 -70 276z" />
<glyph unicode="&#xf9;" horiz-adv-x="1206" d="M78 901v49l309 68v-807q74 -74 195 -74q113 0 233 68v674l-199 22v8q0 54 27 88h383l-29 -141v-737l174 -23v-8q0 -56 -26 -88l-326 -20l17 145h-9q-158 -145 -325 -145q-136 0 -216.5 66.5t-80.5 193.5v587l-39 17q-46 20 -62.5 30.5t-25.5 26.5zM311 1495h238l115 -354 q-35 -21 -78 -21z" />
<glyph unicode="&#xfa;" horiz-adv-x="1206" d="M78 901v49l309 68v-807q74 -74 195 -74q113 0 233 68v674l-199 22v8q0 54 27 88h383l-29 -141v-737l174 -23v-8q0 -56 -26 -88l-326 -20l17 145h-9q-158 -145 -325 -145q-136 0 -216.5 66.5t-80.5 193.5v587l-39 17q-46 20 -62.5 30.5t-25.5 26.5zM553 1141l115 354h237 l-274 -375q-43 0 -78 21z" />
<glyph unicode="&#xfb;" horiz-adv-x="1206" d="M78 901v49l309 68v-807q74 -74 195 -74q113 0 233 68v674l-199 22v8q0 54 27 88h383l-29 -141v-737l174 -23v-8q0 -56 -26 -88l-326 -20l17 145h-9q-158 -145 -325 -145q-136 0 -216.5 66.5t-80.5 193.5v587l-39 17q-46 20 -62.5 30.5t-25.5 26.5zM322 1143l233 352h96 l234 -352q-30 -23 -76 -23l-215 193l-201 -193q-33 0 -71 23z" />
<glyph unicode="&#xfc;" horiz-adv-x="1206" d="M78 901v49l309 68v-807q74 -74 195 -74q113 0 233 68v674l-199 22v8q0 54 27 88h383l-29 -141v-737l174 -23v-8q0 -56 -26 -88l-326 -20l17 145h-9q-158 -145 -325 -145q-136 0 -216.5 66.5t-80.5 193.5v587l-39 17q-46 20 -62.5 30.5t-25.5 26.5zM324 1251q0 51 27.5 80 t76.5 29q48 0 77.5 -29.5t29.5 -79.5q0 -47 -28.5 -77.5t-78.5 -30.5q-51 0 -77.5 30t-26.5 78zM666 1251q0 51 28 80t78 29q48 0 76.5 -29t28.5 -80q0 -47 -28 -77.5t-77 -30.5q-52 0 -79 30t-27 78z" />
<glyph unicode="&#xfd;" horiz-adv-x="1046" d="M8 901v8q0 54 27 88h440l-20 -96l-140 -22l228 -695h8l256 695l-166 22v8q0 54 27 88h397l-21 -96l-81 -22l-482 -1194l140 -39v-8q0 -55 -27 -89q-87 0 -232.5 13t-234.5 32l31 101l178 6l145 301l-57 8l-313 869zM524 1141l115 354h238l-275 -375q-43 0 -78 21z" />
<glyph unicode="&#xfe;" horiz-adv-x="1185" d="M74 -430l20 96l135 23v1616l-39 16q-46 20 -62.5 30.5t-25.5 26.5v49l310 68v-610h8q110 133 270 133q180 0 292 -129.5t112 -349.5q0 -154 -68.5 -282t-189 -202.5t-267.5 -74.5q-71 0 -157 18v-309l184 -23v-8q0 -54 -27 -88h-495zM412 137q126 -33 270 -33 q94 35 153.5 152t59.5 266q0 161 -74 250.5t-207 89.5q-113 0 -202 -63v-662z" />
<glyph unicode="&#xff;" horiz-adv-x="1046" d="M8 901v8q0 54 27 88h440l-20 -96l-140 -22l228 -695h8l256 695l-166 22v8q0 54 27 88h397l-21 -96l-81 -22l-482 -1194l140 -39v-8q0 -55 -27 -89q-87 0 -232.5 13t-234.5 32l31 101l178 6l145 301l-57 8l-313 869zM281 1251q0 51 27.5 80t76.5 29q48 0 77.5 -29.5 t29.5 -79.5q0 -47 -28.5 -77.5t-78.5 -30.5q-51 0 -77.5 30t-26.5 78zM623 1251q0 51 28 80t78 29q48 0 76.5 -29t28.5 -80q0 -47 -28 -77.5t-77 -30.5q-52 0 -79 30t-27 78z" />
<glyph unicode="&#x152;" horiz-adv-x="2068" d="M102 698q0 167 49 305t132.5 227.5t192.5 138t231 48.5q260 0 407 -182v162h555l238 20v-385q-35 -24 -90 -24h-15l-65 262h-437v-498h445q6 -27 6 -70q0 -39 -6 -69l-172 12h-273v-528l463 18l68 262h14q55 0 90 -24v-373h-821v180q-73 -96 -173.5 -148t-213.5 -52 q-285 0 -455 189.5t-170 528.5zM332 698q0 -209 49.5 -342t135 -190t210.5 -57q173 0 273 150t100 439q0 158 -28.5 274t-82.5 184t-123.5 100t-158.5 32q-175 0 -275 -149t-100 -441z" />
<glyph unicode="&#x153;" horiz-adv-x="1794" d="M92 500q0 224 138 371t348 147q125 0 224 -51.5t159 -149.5q63 94 155 147.5t199 53.5q171 0 275 -98.5t104 -280.5q0 -40 -8 -98h-627q0 -406 348 -406q157 0 254 90l20 -51q-91 -194 -344 -194q-122 0 -222 51.5t-163 146.5q-63 -95 -160 -146.5t-214 -51.5 q-215 0 -350.5 143t-135.5 377zM291 498q0 -191 77 -292.5t220 -101.5q129 0 202.5 107.5t73.5 288.5q0 201 -80 297t-217 96q-132 0 -204 -109.5t-72 -285.5zM1063 627l463 18v14q0 116 -65.5 179t-180.5 63q-44 0 -80 -8q-31 -8 -78.5 -86.5t-58.5 -179.5z" />
<glyph unicode="&#x178;" horiz-adv-x="1099" d="M-6 1290v15q0 59 26 92h490l-21 -107l-172 -22l265 -545h16l270 545l-182 22v15q0 58 27 92h407l-20 -107l-76 -22l-373 -684v-455l189 -23v-14q0 -58 -27 -92h-555l21 106l167 23v451l-358 688zM313 1559q0 45 26 71.5t69 26.5t69.5 -26.5t26.5 -71.5q0 -43 -26 -71 t-70 -28t-69.5 28t-25.5 71zM651 1559q0 45 26.5 71.5t70.5 26.5q43 0 68.5 -26.5t25.5 -71.5q0 -43 -25.5 -71t-68.5 -28q-47 0 -72 27.5t-25 71.5z" />
<glyph unicode="&#x2c6;" d="M229 1143l234 352h96l234 -352q-30 -23 -76 -23l-215 193l-201 -193q-34 0 -72 23z" />
<glyph unicode="&#x2dc;" d="M174 1147q47 109 77.5 160.5t57 68.5t68.5 17q46 0 156 -49.5t133 -49.5q30 0 51.5 20t79.5 107l53 -26q-66 -151 -107.5 -201.5t-95.5 -50.5q-47 0 -158 49t-135 49q-31 0 -51 -19.5t-76 -101.5z" />
<glyph unicode="&#x2000;" horiz-adv-x="934" />
<glyph unicode="&#x2001;" horiz-adv-x="1868" />
<glyph unicode="&#x2002;" horiz-adv-x="934" />
<glyph unicode="&#x2003;" horiz-adv-x="1868" />
<glyph unicode="&#x2004;" horiz-adv-x="622" />
<glyph unicode="&#x2005;" horiz-adv-x="467" />
<glyph unicode="&#x2006;" horiz-adv-x="311" />
<glyph unicode="&#x2007;" horiz-adv-x="311" />
<glyph unicode="&#x2008;" horiz-adv-x="233" />
<glyph unicode="&#x2009;" horiz-adv-x="373" />
<glyph unicode="&#x200a;" horiz-adv-x="103" />
<glyph unicode="&#x2010;" horiz-adv-x="512" d="M57 420v158h398v-158h-398z" />
<glyph unicode="&#x2011;" horiz-adv-x="512" d="M57 420v158h398v-158h-398z" />
<glyph unicode="&#x2012;" horiz-adv-x="512" d="M57 420v158h398v-158h-398z" />
<glyph unicode="&#x2013;" d="M68 420v158h888v-158h-888z" />
<glyph unicode="&#x2014;" horiz-adv-x="2048" d="M68 420v158h1912v-158h-1912z" />
<glyph unicode="&#x2018;" horiz-adv-x="409" d="M68 1145l254 350q57 -9 77 -51l-151 -277l88 -43q0 -79 -29.5 -129.5t-97.5 -50.5q-65 0 -103 50.5t-38 150.5z" />
<glyph unicode="&#x2019;" horiz-adv-x="409" d="M10 995l152 277l-88 43q0 79 29.5 129.5t97.5 50.5q65 0 103 -50.5t38 -150.5l-254 -350q-58 9 -78 51z" />
<glyph unicode="&#x201a;" horiz-adv-x="409" d="M10 31l152 276l-88 43q0 79 29.5 129.5t97.5 50.5q65 0 103 -50t38 -150l-254 -350q-58 9 -78 51z" />
<glyph unicode="&#x201c;" horiz-adv-x="737" d="M68 1145l254 350q57 -9 77 -51l-151 -277l88 -43q0 -79 -29.5 -129.5t-97.5 -50.5q-65 0 -103 50.5t-38 150.5zM395 1145l254 350q58 -9 78 -51l-152 -277l89 -43q0 -79 -29.5 -129.5t-97.5 -50.5q-65 0 -103.5 50.5t-38.5 150.5z" />
<glyph unicode="&#x201d;" horiz-adv-x="737" d="M10 995l152 277l-88 43q0 79 29.5 129.5t97.5 50.5q65 0 103 -50.5t38 -150.5l-254 -350q-58 9 -78 51zM338 995l151 277l-88 43q0 79 29.5 129.5t97.5 50.5q65 0 103.5 -50.5t38.5 -150.5l-254 -350q-58 9 -78 51z" />
<glyph unicode="&#x201e;" horiz-adv-x="737" d="M10 31l152 276l-88 43q0 79 29.5 129.5t97.5 50.5q65 0 103 -50t38 -150l-254 -350q-58 9 -78 51zM338 31l151 276l-88 43q0 79 29.5 129.5t97.5 50.5q66 0 104 -50.5t38 -149.5l-254 -350q-58 9 -78 51z" />
<glyph unicode="&#x2022;" horiz-adv-x="759" d="M92 504q0 137 77.5 217t211.5 80q131 0 209 -80.5t78 -216.5q0 -134 -76.5 -215.5t-210.5 -81.5q-141 0 -215 80.5t-74 216.5z" />
<glyph unicode="&#x2026;" horiz-adv-x="1345" d="M96 119q0 65 36 102t99 37q62 0 99 -37.5t37 -101.5q0 -63 -36.5 -101t-99.5 -38q-66 0 -100.5 38t-34.5 101zM539 119q0 65 36 102t99 37q62 0 98.5 -37.5t36.5 -101.5q0 -63 -36 -101t-99 -38q-66 0 -100.5 38t-34.5 101zM981 119q0 65 36 102t99 37q62 0 98.5 -37.5 t36.5 -101.5q0 -63 -36 -101t-99 -38q-66 0 -100.5 38t-34.5 101z" />
<glyph unicode="&#x202f;" horiz-adv-x="373" />
<glyph unicode="&#x2039;" horiz-adv-x="448" d="M41 494v18l301 387l66 -12l-160 -383l160 -385l-66 -13z" />
<glyph unicode="&#x203a;" horiz-adv-x="448" d="M41 121l160 383l-160 385l65 12l302 -387v-18l-302 -387z" />
<glyph unicode="&#x205f;" horiz-adv-x="467" />
<glyph unicode="&#x20ac;" horiz-adv-x="1085" d="M47 555q0 23 8 39h117q-2 33 -2 104q0 70 4 103h-119q-8 16 -8 39t8 39h127q40 259 188 398.5t355 139.5q155 0 274 -35q0 -79 -30 -147q-146 45 -355 45q-57 0 -78.5 -9t-46.5 -44q-32 -48 -63 -138t-47 -210h438q10 -20 10 -39t-10 -39h-446q-2 -33 -2 -103 q0 -71 2 -104h446q10 -20 10 -39t-10 -39h-440q23 -204 104 -299.5t228 -95.5q174 0 282 108q15 -76 15 -153q-108 -96 -304 -96q-237 0 -365.5 134.5t-158.5 401.5h-123q-8 16 -8 39z" />
<glyph unicode="&#x2122;" horiz-adv-x="1763" d="M102 1225v172h443l145 10l-22 -182q-24 -15 -64 -15h-8l-21 111l-116 -4v-541l84 -10v-10q0 -36 -17 -60h-286l8 70l76 10v535l-115 -4l-31 -97h-14q-38 0 -62 15zM748 696l8 70l75 10l31 541l-84 10v10q0 36 17 60h219l190 -494l193 494h233l-8 -70l-78 -10l19 -541 l84 -10v-10q0 -36 -17 -60h-276l8 70l78 10q-6 289 -10 432h-11l-215 -512l-49 -10l-197 522h-10l-20 -432l90 -10v-8q0 -38 -17 -62h-253z" />
<glyph unicode="&#xe000;" horiz-adv-x="993" d="M0 0v993h993v-993h-993z" />
</font>
</defs>
</svg>
