<?xml version="1.0" standalone="no"?>
<!DOCTYPE svg PUBLIC "-//W3C//DTD SVG 1.1//EN" "http://www.w3.org/Graphics/SVG/1.1/DTD/svg11.dtd" >
<svg xmlns="http://www.w3.org/2000/svg">
<metadata></metadata>
<defs>
<font id="malaga_otblack" horiz-adv-x="1167" >
<font-face units-per-em="2048" ascent="1638" descent="-410" />
<missing-glyph horiz-adv-x="532" />
<glyph unicode="&#xfb01;" horiz-adv-x="1394" d="M27 0l20 186l94 23v565l-37 12q-54 16 -71 50v161h108v11q0 25 5.5 60t20.5 82t37 93.5t58.5 92.5t81.5 81t109.5 56.5t138.5 21.5q108 0 184 -39l-22 -278q-52 8 -138 8t-129 -12q-8 -3 -8 -17q0 -20 24 -83.5t27 -76.5h351l395 31v-819l108 -23v-12q0 -107 -41 -174 h-589l20 186l86 23v563h-305v-563l104 -23v-12q0 -112 -41 -174h-591zM842 1307q0 88 60.5 138t160.5 50q101 0 159 -49.5t58 -138.5q0 -86 -56.5 -137.5t-160.5 -51.5q-103 0 -162 52t-59 137z" />
<glyph unicode="&#xfb02;" horiz-adv-x="1386" d="M27 0l20 186l94 23v565l-37 12q-54 16 -71 50v161h108v11q0 35 6.5 73.5t24.5 86t45 90.5t72 85t101.5 72.5t137.5 49t177 18.5q132 0 288 -29l275 41v-1286l98 -23v-12q0 -107 -41 -174h-571l20 186l78 23v967q-102 12 -188 12q-115 0 -177 -17q-8 -3 -8 -16 q0 -29 24 -88.5t27 -69.5h183q12 -58 12 -112q0 -52 -12 -113h-158v-563l104 -23v-12q0 -112 -41 -174h-591z" />
<glyph horiz-adv-x="2048" />
<glyph horiz-adv-x="2048" />
<glyph unicode="&#xd;" horiz-adv-x="2048" />
<glyph unicode=" "  horiz-adv-x="532" />
<glyph unicode="&#x09;" horiz-adv-x="532" />
<glyph unicode="&#xa0;" horiz-adv-x="532" />
<glyph unicode="!" horiz-adv-x="686" d="M90 1397q160 20 506 20l-123 -932h-262zM135 180q0 96 55.5 150.5t153.5 54.5q95 0 152 -55.5t57 -149.5q0 -90 -56 -145t-153 -55q-102 0 -155.5 54t-53.5 146z" />
<glyph unicode="&#x22;" horiz-adv-x="901" d="M25 1475h411l-94 -521q-55 -10 -113 -10q-57 0 -112 10zM465 1475h412l-95 -521q-52 -10 -112 -10q-58 0 -113 10z" />
<glyph unicode="#" d="M70 260q0 63 14.5 167.5t34.5 154.5l196 20l25 135l-195 -20q0 64 15.5 167.5t36.5 153.5l202 23l60 336q27 6 78 6t75 -6l-57 -320l195 21l55 299q27 6 78 6t75 -6l-51 -281l191 21q0 -57 -16 -166.5t-35 -155.5l-197 -22l-25 -134l195 21q0 -58 -15 -167t-34 -155 l-203 -22l-61 -336q-24 -6 -76 -6q-54 0 -78 6l55 319l-194 -22l-52 -297q-24 -6 -77 -6q-54 0 -78 6l51 281zM473 621l195 20l24 135l-194 -20z" />
<glyph unicode="$" d="M123 913q0 145 103 251t288 136l53 252q28 7 49 7q42 0 68 -17l-49 -231h14q46 0 96 -4l52 245q28 7 49 7q42 0 67 -17l-51 -248q51 -4 111 -18v-311q-75 -35 -217 -35h-33l-45 147q-24 8 -62 8q-44 0 -71 -10q-10 -5 -19.5 -27t-9.5 -47q0 -29 22.5 -52.5t60 -40.5 t84.5 -37t97 -40t97 -52t84.5 -70t60 -97t22.5 -131q0 -158 -119.5 -264t-322.5 -125l-51 -246q-24 -6 -49 -6q-42 0 -68 17l47 231q-53 0 -108 6l-51 -248q-24 -6 -50 -6q-42 0 -67 17l53 254q-58 9 -108 24v311q78 35 217 35h34l43 -155q39 -13 93 -13q53 0 79 11 q11 4 22 25t11 52q0 34 -29 61t-75.5 47.5t-102.5 42.5t-112 52t-102.5 69t-75.5 100.5t-29 139.5z" />
<glyph unicode="%" horiz-adv-x="1622" d="M59 1057q0 160 93.5 260t257.5 100t255 -98t91 -262q0 -166 -94 -264.5t-254 -98.5q-164 0 -256.5 98.5t-92.5 264.5zM322 1055q0 -100 22 -143.5t70 -43.5q25 0 43 6q9 2 17.5 18.5t15 59.5t6.5 105q0 100 -22.5 143t-70.5 43q-24 0 -45 -6q-8 -2 -15.5 -18.5t-14 -59 t-6.5 -104.5zM375 12l723 1405q32 0 76.5 -11.5t64.5 -29.5l-723 -1405q-32 0 -73.5 11t-67.5 30zM866 342q0 160 93 260t255 100q165 0 257 -98t92 -262q0 -166 -95.5 -264t-255.5 -98q-163 0 -254.5 98t-91.5 264zM1126 340q0 -100 22.5 -143t70.5 -43q24 0 45 6 q9 2 16.5 18.5t13.5 59t6 104.5q0 101 -21 143.5t-71 42.5q-22 0 -43 -6q-9 -2 -17.5 -18.5t-15 -59t-6.5 -104.5z" />
<glyph unicode="&#x26;" horiz-adv-x="1515" d="M27 336q0 111 66.5 206t225.5 189q-57 85 -57 207q0 222 142 350.5t358 128.5q155 0 246.5 -69.5t91.5 -198.5q0 -101 -77 -182.5t-239 -184.5q88 -128 242 -307q60 79 117 174l-127 23v12q0 106 41 174h438l-20 -186l-62 -23q-107 -203 -229 -348q88 -98 207 -223 q-49 -49 -117.5 -79.5t-132.5 -35.5l-183 133q-177 -116 -411 -116q-251 0 -385.5 90.5t-134.5 265.5zM459 373q0 -83 49.5 -130.5t134.5 -47.5q76 0 141 36q-176 139 -301 275q-24 -55 -24 -133zM678 1069q0 -71 20 -127q189 114 189 195q0 77 -107 77q-29 0 -57 -8 q-14 -4 -29.5 -43t-15.5 -94z" />
<glyph unicode="'" horiz-adv-x="458" d="M25 1475h411l-94 -521q-55 -10 -113 -10q-57 0 -112 10z" />
<glyph unicode="(" horiz-adv-x="634" d="M41 563q0 844 553 899q48 -80 61 -178q-41 -12 -66.5 -25t-55 -42t-46.5 -76.5t-32.5 -123t-22 -188.5t-6.5 -266t6.5 -266t22 -188.5t32.5 -123t46.5 -76.5t55 -42t66.5 -25q-13 -98 -61 -178q-553 55 -553 899z" />
<glyph unicode=")" horiz-adv-x="634" d="M-20 -158q41 12 66.5 25t55 42t46.5 76.5t32.5 123t22 188.5t6.5 266t-6.5 266t-22 188.5t-32.5 123t-46.5 76.5t-55 42t-66.5 25q13 98 61 178q553 -55 553 -899t-553 -899q-48 80 -61 178z" />
<glyph unicode="*" horiz-adv-x="786" d="M20 1073q0 84 26 167.5t71 141.5l174 -120l-55 206q68 27 157 27q91 0 158 -27l-57 -204l174 118q46 -59 72 -140t26 -167l-211 -8l168 -133q-41 -62 -114 -116.5t-142 -74.5l-74 203l-71 -203q-70 20 -144 74t-115 115l166 133z" />
<glyph unicode="+" d="M143 322v352h265v291h352v-291h264v-352h-264v-291h-352v291h-265z" />
<glyph unicode="," horiz-adv-x="501" d="M-12 -328l139 353l-92 36q0 281 207 281q99 0 161 -81t62 -232l-311 -398q-116 0 -166 41z" />
<glyph unicode="-" horiz-adv-x="686" d="M84 322v352h518v-352h-518z" />
<glyph unicode="." horiz-adv-x="501" d="M43 199q0 104 55.5 163.5t153.5 59.5q94 0 150.5 -60t56.5 -163q0 -99 -55 -159t-152 -60q-101 0 -155 59.5t-54 159.5z" />
<glyph unicode="/" horiz-adv-x="794" d="M10 -39l533 1555q48 0 128.5 -25.5t112.5 -54.5l-532 -1555q-48 0 -129 25.5t-113 54.5z" />
<glyph unicode="0" horiz-adv-x="1224" d="M59 557q0 251 157 413.5t407 162.5q163 0 286.5 -74.5t188.5 -204.5t65 -297q0 -252 -155.5 -414.5t-407.5 -162.5q-247 0 -394 160.5t-147 416.5zM391 555q0 -110 62 -167.5t163 -57.5q76 0 132 18q26 8 54.5 64t28.5 145q0 111 -61.5 168t-163.5 57q-76 0 -131 -18 q-26 -8 -55 -63t-29 -146z" />
<glyph unicode="1" horiz-adv-x="796" d="M12 0l17 197l176 22v658l-64 16q-73 18 -96 57v162h590v-893l153 -22v-27q0 -105 -43 -170h-733z" />
<glyph unicode="2" horiz-adv-x="1021" d="M51 0v291q166 82 256 142.5t126 113t36 117.5q0 74 -46 122t-124 48q-105 0 -164 -56l-76 84q57 128 168.5 199.5t268.5 71.5q184 0 296.5 -100t112.5 -267q0 -128 -71 -217.5t-252 -159.5v-20q175 20 245 20q73 0 108.5 -43.5t35.5 -134.5q0 -41 -10 -103.5t-25 -107.5 h-885z" />
<glyph unicode="3" horiz-adv-x="983" d="M33 -84q171 31 267.5 67t131.5 75.5t35 95.5q0 73 -45 104t-154 31h-157v252h163q96 0 142.5 32t46.5 105q0 72 -39.5 107.5t-124.5 35.5q-109 0 -170 -67l-88 90q137 289 455 289q190 0 308 -100t118 -257q0 -117 -57.5 -192t-168.5 -125v-21q242 -73 242 -299 q0 -207 -216 -313.5t-659 -130.5q-30 61 -30 221z" />
<glyph unicode="4" horiz-adv-x="1062" d="M45 0v410l326 723q207 0 319 -46l-352 -786h213v322h399v-289h92v-76q0 -67 -8 -143.5t-22 -114.5h-62v-285h-430v285h-475z" />
<glyph unicode="5" horiz-adv-x="978" d="M39 -84q240 43 335 90.5t95 124.5q0 66 -51 96.5t-160 30.5q-70 0 -145 -6v860h796q0 -164 -14 -249t-49 -121.5t-103 -36.5q-116 0 -340 32l-49 -196q45 2 97 2q230 0 358.5 -100t128.5 -283q0 -218 -226.5 -336t-639.5 -129q-33 72 -33 221z" />
<glyph unicode="6" horiz-adv-x="1069" d="M45 518q0 304 218.5 541.5t606.5 357.5q38 -37 70.5 -103.5t38.5 -115.5q-225 -112 -335 -206.5t-140 -194.5h16q70 49 164 49q66 0 125.5 -24t109 -71.5t78.5 -127.5t29 -183q0 -142 -66 -248t-175 -159t-244 -53q-227 0 -361.5 146.5t-134.5 391.5zM453 426 q0 -103 20 -153t66 -50q35 0 49 4q43 10 43 199q0 184 -96 184q-32 0 -60 -14q-8 -20 -15 -76t-7 -94z" />
<glyph unicode="7" horiz-adv-x="997" d="M14 866q0 112 23 246h940v-377l-533 -1040q-236 0 -338 26l533 1018q-286 -34 -457 -34q-168 0 -168 161z" />
<glyph unicode="8" horiz-adv-x="1048" d="M49 299q0 160 150 268l75 54q-225 157 -225 378q0 182 133 300t353 118q213 0 336.5 -90.5t123.5 -226.5q0 -85 -36 -145.5t-109 -112.5l-82 -58q133 -106 182 -192t49 -213q0 -166 -137 -282.5t-350 -116.5q-221 0 -342 90t-121 229zM410 365q0 -73 24 -108.5t78 -35.5 q42 0 66 8q13 3 22.5 33.5t9.5 83.5q0 61 -29.5 96t-115.5 80q-55 -61 -55 -157zM442 1047q0 -52 32.5 -89t105.5 -77q59 56 59 161q0 65 -27 98.5t-73 33.5q-29 0 -60 -7q-37 -8 -37 -120z" />
<glyph unicode="9" horiz-adv-x="1069" d="M43 672q0 107 38.5 195t104.5 145.5t154 89t188 31.5q227 0 361.5 -147t134.5 -392q0 -304 -218.5 -541.5t-606.5 -357.5q-38 37 -70.5 103.5t-38.5 115.5q225 112 335 206.5t140 194.5h-16q-70 -49 -164 -49q-66 0 -125.5 24t-109 71.5t-78.5 127.5t-29 183zM438 686 q0 -89 25 -136.5t72 -47.5q31 0 59 14q8 20 15 76t7 94q0 103 -20 153t-66 50q-35 0 -49 -4q-43 -10 -43 -199z" />
<glyph unicode=":" horiz-adv-x="573" d="M74 199q0 104 55.5 163.5t153.5 59.5q94 0 150 -59.5t56 -163.5q0 -99 -54.5 -159t-151.5 -60q-101 0 -155 59.5t-54 159.5zM74 795q0 104 55.5 163.5t153.5 59.5q94 0 150 -59.5t56 -163.5q0 -99 -55 -159.5t-151 -60.5q-101 0 -155 60t-54 160z" />
<glyph unicode=";" horiz-adv-x="573" d="M16 -328l140 353l-93 36q0 281 207 281q99 0 161.5 -81t62.5 -232l-312 -398q-116 0 -166 41zM74 795q0 104 55.5 163.5t153.5 59.5q94 0 150 -59.5t56 -163.5q0 -99 -55 -159.5t-151 -60.5q-101 0 -155 60t-54 160z" />
<glyph unicode="&#x3c;" d="M90 502l498 463h489l-497 -463l495 -471h-489z" />
<glyph unicode="=" d="M158 80v352h850v-352h-850zM158 565v353h850v-353h-850z" />
<glyph unicode="&#x3e;" d="M90 31l498 463l-496 471h490l495 -471l-497 -463h-490z" />
<glyph unicode="?" horiz-adv-x="985" d="M63 1147q123 270 453 270q198 0 312 -101t114 -261q0 -294 -381 -361l-47 -215h-168l-188 189q2 26 18.5 66t38.5 65q266 9 266 174q0 67 -40.5 107t-114.5 40q-99 0 -156 -57zM211 180q0 96 55.5 150.5t153.5 54.5q96 0 152.5 -55t56.5 -150q0 -91 -55.5 -145.5 t-153.5 -54.5q-102 0 -155.5 54t-53.5 146z" />
<glyph unicode="@" horiz-adv-x="1718" d="M39 311q0 196 52 363t141 285t207.5 201t251 123t272.5 40q321 0 518.5 -190t197.5 -500q0 -145 -40.5 -266.5t-108 -200.5t-153.5 -122.5t-179 -43.5q-192 0 -276 115h-25q-61 -66 -115 -90.5t-118 -24.5q-108 0 -185.5 83.5t-77.5 231.5q0 140 37.5 258.5t97.5 194 t133.5 117t147.5 41.5q83 0 128 -26.5t73 -72.5l131 93q24 4 41 4q57 0 113 -27l-136 -635q20 -20 68 -20q85 0 144 98.5t59 282.5q0 205 -135 327.5t-361 122.5q-294 0 -474.5 -200.5t-180.5 -536.5q0 -124 36.5 -218.5t102 -151.5t151 -85t189.5 -28q76 0 152 15t120 38 l-28 -219q-100 -86 -271 -86q-150 0 -277 47t-221.5 135t-148 224t-53.5 304zM737 326q0 -95 58 -95q26 0 53 15l90 432q-44 14 -88 14q-20 0 -46.5 -54.5t-46.5 -142.5t-20 -169z" />
<glyph unicode="A" horiz-adv-x="1425" d="M-39 0l16 201l78 22l434 1174l457 20l404 -1194l84 -22v-27q0 -112 -41 -174h-670l16 201l140 22l-80 256l-363 -28l-74 -228l148 -22v-27q0 -112 -41 -174h-508zM504 668h237l-106 352h-19z" />
<glyph unicode="B" horiz-adv-x="1329" d="M35 0l16 201l109 22v951l-121 22v27q0 112 41 174h627q270 0 396 -91t126 -280q0 -118 -62 -193.5t-161 -103.5v-20q121 -29 197.5 -108t76.5 -212q0 -192 -150 -290.5t-440 -98.5h-655zM606 227l139 -8q34 20 58 73.5t24 123.5q0 182 -135 182h-86v-371zM606 799l127 16 q28 27 46 74.5t18 101.5q0 178 -123 178h-68v-370z" />
<glyph unicode="C" horiz-adv-x="1265" d="M39 676q0 163 48 298t140 234t234.5 154t324.5 55q90 0 197.5 -12.5t181.5 -32.5v-426q-36 -21 -102 -33t-127 -12h-35l-47 242q-67 24 -152 24q-35 0 -49 -2q-9 -1 -23.5 -21t-31.5 -62t-32.5 -97.5t-25.5 -137t-10 -171.5q0 -231 63.5 -333.5t192.5 -102.5q63 0 99 8 l45 239h35q61 0 126.5 -12t100.5 -33v-364q-77 -43 -205 -70.5t-256 -27.5q-144 0 -269.5 46.5t-220 132.5t-148.5 219.5t-54 297.5z" />
<glyph unicode="D" horiz-adv-x="1464" d="M35 0l16 201l109 22v951l-121 22v27q0 112 41 174h643q328 0 515 -182.5t187 -499.5q0 -327 -200 -521t-559 -194h-631zM610 238l176 -9q68 57 107 168.5t39 317.5q0 106 -10.5 184.5t-29.5 127.5t-48 79t-61.5 41.5t-75.5 11.5h-97v-921z" />
<glyph unicode="E" horiz-adv-x="1243" d="M35 0l16 201l109 22v951l-121 22v27q0 112 41 174h758l305 20v-407q-36 -21 -102.5 -33t-127.5 -12h-34l-48 200h-221v-352h410q14 -55 14 -121q0 -64 -14 -121l-184 19h-226v-371l252 23l45 202h35q61 0 126.5 -12t100.5 -33v-399h-1134z" />
<glyph unicode="F" d="M35 0l16 201l109 22v951l-121 22v27q0 112 41 174h739l305 20v-407q-36 -21 -102 -33t-127 -12h-35l-49 200h-201v-374h410q14 -55 14 -121q0 -64 -14 -121l-184 18h-226v-344l129 -22v-27q0 -112 -41 -174h-663z" />
<glyph unicode="G" horiz-adv-x="1409" d="M39 690q0 341 208 534t566 193q229 0 442 -61v-398q-36 -21 -102 -33t-127 -12h-35l-49 215q-37 16 -109 27.5t-116 11.5q-38 0 -58 -2q-11 -1 -27 -20t-33.5 -59t-33 -93.5t-25.5 -133t-10 -169.5q0 -247 59.5 -352t172.5 -105q28 0 72 7v256l-95 22v27q0 112 41 174 h578l-17 -201l-84 -22v-496l-47 -20l-163 59q-142 -59 -310 -59q-322 0 -510 191.5t-188 518.5z" />
<glyph unicode="H" horiz-adv-x="1562" d="M35 0l16 201l109 22v951l-121 22v27q0 112 41 174h643l-16 -201l-97 -22v-343h342v343l-108 22v27q0 112 41 174h643l-17 -201l-108 -22v-951l121 -22v-27q0 -112 -41 -174h-643l16 201l96 22v361h-342v-361l109 -22v-27q0 -112 -41 -174h-643z" />
<glyph unicode="I" horiz-adv-x="770" d="M35 0l16 201l109 22v951l-121 22v27q0 112 41 174h655l-16 -201l-109 -22v-951l121 -22v-27q0 -112 -41 -174h-655z" />
<glyph unicode="J" horiz-adv-x="749" d="M31 1196v27q0 107 41 174h659l-16 -201l-109 -22v-1031q0 -100 -30 -174t-105 -149l-266 -271q-54 6 -99 29t-65 57l115 347v1192z" />
<glyph unicode="K" horiz-adv-x="1429" d="M35 0l16 201l109 22v951l-121 22v27q0 112 41 174h643l-16 -201l-97 -22v-426h19l348 426l-123 22v27q0 109 43 174h520l-16 -201l-82 -22l-289 -295l375 -781q-55 -54 -145 -91.5t-181 -45.5l-391 569l-78 -81v-226l97 -22v-27q0 -112 -41 -174h-631z" />
<glyph unicode="L" horiz-adv-x="1169" d="M35 0l16 201l109 22v951l-121 22v27q0 112 41 174h665l-16 -201l-119 -22v-955l213 23l45 231h35q61 0 127.5 -12t102.5 -33v-428h-1098z" />
<glyph unicode="M" horiz-adv-x="1912" d="M12 0l17 201l108 22l51 951l-122 22v27q0 113 40 174h584l287 -752l256 752h625l-17 -201l-108 -22q27 -635 41 -951l120 -22v-27q0 -112 -41 -174h-647l17 201l129 22l-29 645h-18l-318 -868l-207 -20l-329 888h-19l-31 -645l142 -22v-27q0 -106 -45 -174h-486z" />
<glyph unicode="N" horiz-adv-x="1521" d="M35 0l16 201l105 22q14 635 22 951l-121 22v27q0 112 41 174h508l469 -713h19v490l-136 22v27q0 112 41 174h494l-16 -201l-97 -22l-20 -1174l-285 -20l-608 874h-18v-631l133 -22v-27q0 -110 -41 -174h-506z" />
<glyph unicode="O" horiz-adv-x="1464" d="M39 698q0 218 93.5 383t251.5 250.5t355 85.5q142 0 267 -50t218 -140.5t147 -227.5t54 -301q0 -165 -54.5 -301t-149.5 -227t-222.5 -140.5t-273.5 -49.5q-142 0 -267 50t-218 141t-147 227.5t-54 299.5zM530 698q0 -116 10 -199t27 -132.5t45 -77t57 -36.5t70 -9 q48 0 80 16t60 62t41.5 139t13.5 237q0 118 -10.5 202t-27.5 132.5t-45.5 76t-57 36t-68.5 8.5q-37 0 -63.5 -8.5t-53 -36t-42.5 -76t-26 -132.5t-10 -202z" />
<glyph unicode="P" horiz-adv-x="1294" d="M35 0l16 201l109 22v951l-121 22v27q0 112 41 174h637q269 0 402.5 -98.5t133.5 -311.5q0 -194 -128 -315t-406 -148l-109 -10v-291l125 -22v-27q0 -112 -41 -174h-659zM610 727l131 8q27 32 43.5 94t16.5 142q0 104 -28.5 151t-88.5 47h-74v-442z" />
<glyph unicode="Q" horiz-adv-x="1464" d="M39 698q0 218 93.5 383t251.5 250.5t355 85.5q142 0 267 -50t218 -140.5t147 -227.5t54 -301q0 -216 -94.5 -381t-263.5 -254v-16l283 -289q-43 -54 -128 -95.5t-163 -45.5l-457 375q-117 19 -218 74.5t-178.5 143t-122 213.5t-44.5 275zM530 698q0 -116 10 -199 t27 -132.5t45 -77t57 -36.5t70 -9q48 0 80 16t60 62t41.5 139t13.5 237q0 118 -10.5 202t-27.5 132.5t-45.5 76t-57 36t-68.5 8.5q-37 0 -63.5 -8.5t-53 -36t-42.5 -76t-26 -132.5t-10 -202z" />
<glyph unicode="R" horiz-adv-x="1353" d="M35 0l16 201l109 22v951l-121 22v27q0 112 41 174h661q269 0 403 -98.5t134 -311.5q0 -108 -52.5 -195t-146.5 -126l262 -568q-59 -56 -147.5 -92.5t-177.5 -44.5l-363 557l-47 -4v-291l96 -22v-27q0 -112 -40 -174h-627zM606 723l137 8q38 31 60 92.5t22 139.5 q0 111 -27.5 158.5t-86.5 47.5h-105v-446z" />
<glyph unicode="S" horiz-adv-x="1138" d="M57 948q0 205 158.5 337t439.5 132q192 0 377 -45v-344q-36 -21 -102 -33t-127 -12h-35l-47 164q-42 22 -117 22q-61 0 -96 -14q-9 -4 -18 -22t-9 -43q0 -39 33 -72t85.5 -59.5t116 -54.5t127 -66.5t116 -87t85.5 -124t33 -169.5q0 -220 -158 -348.5t-419 -128.5 q-221 0 -422 69v352q36 21 102 33t127 12h35l47 -190q60 -29 139 -29q60 0 103 15q9 3 16.5 25t7.5 50q0 47 -33 85t-85.5 66t-116.5 56t-128 64t-116.5 81.5t-85.5 117t-33 161.5z" />
<glyph unicode="T" horiz-adv-x="1323" d="M47 1014v383h916l335 20l-45 -403q-79 -45 -204 -45h-35l-49 209l-78 -4v-951l121 -22v-27q0 -112 -41 -174h-656l17 201l108 22v928l-84 -6l-49 -176h-53q-127 0 -203 45z" />
<glyph unicode="U" horiz-adv-x="1460" d="M43 1196v27q0 112 41 174h633l-17 -201l-108 -22v-756q0 -82 53.5 -119t165.5 -37q219 0 219 156v756l-121 22v27q0 112 41 174h471l-16 -201l-84 -22v-693q0 -241 -149.5 -371t-440.5 -130t-440.5 130t-149.5 371v693z" />
<glyph unicode="V" horiz-adv-x="1452" d="M23 1196v27q0 112 40 174h664l-16 -201l-117 -22l209 -695h18l213 695l-112 22v27q0 113 41 174h469l-17 -201l-67 -22l-410 -1174l-424 -20l-410 1194z" />
<glyph unicode="W" horiz-adv-x="2224" d="M53 1196v27q0 112 41 174h635l-16 -201l-107 -22l172 -711h19l172 711l-111 22v27q0 112 41 174h662l-17 -201l-106 -22l166 -711h18l178 711l-110 22v27q0 112 41 174h450l-16 -201l-68 -22l-364 -1174l-418 -20l-195 774h-18l-189 -754l-417 -20l-361 1194z" />
<glyph unicode="X" horiz-adv-x="1454" d="M35 0l16 201l70 22l328 482l-310 469l-82 22v27q0 112 41 174h680l-16 -201l-90 -22l164 -289l151 289l-104 22v27q0 112 41 174h477l-17 -201l-67 -22l-311 -482l333 -469l82 -22v-27q0 -112 -41 -174h-690l17 201l98 22l-189 291l-167 -291l112 -22v-27 q0 -112 -41 -174h-485z" />
<glyph unicode="Y" horiz-adv-x="1314" d="M12 1196v27q0 110 41 174h649l-16 -201l-117 -22l162 -406h19l163 406l-112 22v27q0 112 41 174h454l-16 -201l-68 -22l-329 -633v-318l121 -22v-27q0 -112 -41 -174h-656l17 201l108 22v318l-338 633z" />
<glyph unicode="Z" horiz-adv-x="1294" d="M78 0v213l592 952h-256l-47 -241h-35q-61 0 -127.5 12t-102.5 33v448l306 -20h792v-213l-641 -965l340 23l45 231h35q61 0 127 -12t102 -33v-428h-1130z" />
<glyph unicode="[" horiz-adv-x="722" d="M131 -291v1708h586l-29 -219l-168 -10v-1249l197 -11l-29 -219h-557z" />
<glyph unicode="\" horiz-adv-x="794" d="M10 1436q32 29 113 54.5t129 25.5l532 -1555q-32 -29 -112.5 -54.5t-128.5 -25.5z" />
<glyph unicode="]" horiz-adv-x="722" d="M6 -291l29 219l168 11v1249l-197 10l29 219h557v-1708h-586z" />
<glyph unicode="^" horiz-adv-x="1003" d="M29 502l303 741h338l303 -741q-18 -15 -72.5 -26t-101.5 -11l-307 422l-293 -422q-50 0 -99 11t-71 26z" />
<glyph unicode="_" horiz-adv-x="1024" d="M0 -86h1024v-344h-1024v344z" />
<glyph unicode="`" horiz-adv-x="1024" d="M260 1495h453l49 -354q-90 -39 -174 -39z" />
<glyph unicode="a" horiz-adv-x="1058" d="M29 236q0 125 65.5 192t233.5 92l217 33v109q-194 -37 -275 -37q-102 0 -146 42t-44 136q0 87 39 194h710q70 -57 97.5 -132.5t27.5 -186.5l-12 -432q24 -17 55 -17q19 0 31 4v-59q-16 -95 -71 -144.5t-164 -49.5q-66 0 -116.5 20t-98.5 63q-152 -83 -265 -83 q-132 0 -208 66t-76 190zM410 283q0 -93 75 -93q33 0 60 9v200l-123 -32q-12 -40 -12 -84z" />
<glyph unicode="b" horiz-adv-x="1193" d="M12 1284v143l525 68v-559h14q79 82 211 82q174 0 283.5 -122t109.5 -355q0 -131 -43 -237.5t-119.5 -177t-181.5 -108.5t-229 -38q-144 0 -263.5 29.5t-197.5 78.5v1131l-35 12q-53 18 -74 53zM537 244q36 -8 86 -8q16 0 35.5 28t36 92.5t16.5 147.5q0 127 -27.5 178 t-81.5 51q-34 0 -65 -14v-475z" />
<glyph unicode="c" horiz-adv-x="862" d="M39 475q0 131 43 236t118.5 171t174.5 101t213 35t221 -21q0 -141 -23 -317q-123 20 -237 20q-12 0 -27 -19t-29 -68.5t-14 -116.5q0 -99 44.5 -154t127.5 -55q96 0 160 43l16 -174q-41 -82 -122 -129t-191 -47q-102 0 -187.5 31.5t-150 92.5t-101 156t-36.5 215z" />
<glyph unicode="d" horiz-adv-x="1189" d="M39 473q0 129 41.5 234t113 172t165.5 103t202 36q69 0 94 -6v207l-32 12q-56 17 -74 53v143l522 68v-1286l98 -23v-12q0 -112 -41 -174l-432 -20l13 126h-15q-57 -70 -113 -98t-139 -28t-155.5 32t-128 92t-87.5 155t-32 214zM481 494q0 -127 27.5 -178.5t81.5 -51.5 q31 0 65 15v475q-36 8 -86 8q-15 0 -34.5 -27.5t-36.5 -92.5t-17 -148z" />
<glyph unicode="e" horiz-adv-x="1038" d="M39 485q0 154 69 276.5t187 189.5t262 67q204 0 324 -106t120 -304q0 -69 -16 -155h-514q0 -73 64.5 -127t187.5 -54q151 0 242 66l14 -172q-123 -186 -420 -186q-227 0 -373.5 139.5t-146.5 365.5zM471 598l168 18v66q0 133 -102 133q-15 0 -27 -4q-9 -3 -17.5 -24.5 t-15 -71t-6.5 -117.5z" />
<glyph unicode="f" horiz-adv-x="772" d="M27 0l20 186l94 23v565l-37 12q-54 16 -71 50v161h108v11q0 25 6 60t21 82t37 93.5t59 92.5t82 81t109.5 56.5t138.5 21.5q108 0 184 -39l-22 -278q-52 8 -138 8t-129 -12q-8 -3 -8 -17q0 -20 24 -85t27 -75h211q11 -54 11 -112q0 -57 -11 -113h-186v-563l125 -23v-12 q0 -107 -41 -174h-614z" />
<glyph unicode="g" horiz-adv-x="1054" d="M4 -274q0 42 24 76.5t105 97.5v16q-102 69 -102 190q0 72 35.5 129t130.5 125q-74 41 -113 114t-39 169q0 164 116.5 269.5t307.5 105.5q113 0 195 -21h356v-221q-33 -26 -100 -26v-13q28 -44 28 -116q0 -150 -119.5 -247.5t-314.5 -97.5q-66 0 -149 19q-31 -17 -31 -41 q0 -14 8 -25h317q359 0 359 -290q0 -167 -171 -278.5t-456 -111.5q-205 0 -296 43.5t-91 133.5zM322 -170q0 -32 30 -45.5t127 -13.5q137 0 205 22q4 8 4 33q0 22 -26 33t-87 14l-241 10q-12 -18 -12 -53zM424 649q0 -85 19.5 -125.5t62.5 -40.5q19 0 31 4q30 10 30 156 q0 86 -19 127t-63 41q-18 0 -30 -4q-31 -12 -31 -158z" />
<glyph unicode="h" horiz-adv-x="1243" d="M16 0l21 186l94 23v1010l-35 12q-51 17 -73 53v143l524 68v-596h14q73 69 134.5 94t140.5 25q294 0 294 -309v-500l101 -23v-12q0 -109 -43 -174h-531l13 186l45 23v485q-38 17 -82 17q-36 0 -86 -13v-489l51 -23v-12q0 -109 -43 -174h-539z" />
<glyph unicode="i" horiz-adv-x="675" d="M27 0l20 186l94 23v543l-35 12q-51 17 -73 53v144l524 67v-819l109 -23v-12q0 -112 -41 -174h-598zM123 1303q0 88 61 140t162 52q99 0 157 -51.5t58 -140.5q0 -86 -56 -138.5t-159 -52.5q-104 0 -163.5 53t-59.5 138z" />
<glyph unicode="j" horiz-adv-x="634" d="M12 817v144l525 67v-881q0 -126 -24 -198t-93 -144l-246 -256q-95 0 -151 62l98 371v770l-35 12q-54 19 -74 53zM102 1303q0 88 61.5 140t162.5 52q99 0 157 -51.5t58 -140.5q0 -86 -56 -138.5t-159 -52.5q-104 0 -164 53t-60 138z" />
<glyph unicode="k" horiz-adv-x="1181" d="M16 0l21 186l94 23v1010l-35 12q-51 17 -73 53v143l524 68v-991h14l193 284l-113 23v12q0 112 41 174h489l-18 -186l-90 -23l-143 -184l221 -536q-44 -41 -122.5 -73t-144.5 -38l-274 311l-53 -53v-215h-531z" />
<glyph unicode="l" horiz-adv-x="665" d="M16 0l21 186l94 23v1010l-35 12q-51 17 -73 53v143l524 68v-1286l98 -23v-12q0 -109 -43 -174h-586z" />
<glyph unicode="m" horiz-adv-x="1800" d="M27 0l20 186l94 23v543l-35 12q-51 17 -73 53v144l483 67l27 -131h14q136 121 293 121q92 0 151 -28.5t91 -98.5q77 71 152 99t161 28q136 0 209.5 -77t73.5 -232v-500l98 -23v-12q0 -107 -41 -174h-526l14 186l39 23v485q-27 17 -74 17q-46 0 -76 -13v-489l45 -23v-12 q0 -112 -41 -174h-473l11 186l43 23v485q-27 17 -72 17q-52 0 -78 -13v-489l47 -23v-12q0 -109 -43 -174h-534z" />
<glyph unicode="n" horiz-adv-x="1257" d="M27 0l20 186l94 23v543l-35 12q-51 17 -73 53v144l483 67l27 -131h14q85 70 149 95.5t142 25.5q297 0 297 -309v-500l98 -23v-12q0 -109 -43 -174h-530l12 186l47 23v485q-41 17 -84 17q-34 0 -88 -13v-489l53 -23v-12q0 -109 -43 -174h-540z" />
<glyph unicode="o" horiz-adv-x="1157" d="M39 496q0 225 154 373.5t391 148.5q240 0 387 -139.5t147 -376.5q0 -225 -154 -373.5t-391 -148.5q-240 0 -387 139.5t-147 376.5zM481 500q0 -110 11.5 -170t33.5 -82.5t62 -22.5q36 0 53 18.5t26 77.5t9 179q0 158 -24 215t-83 57q-36 0 -53 -18.5t-26 -76.5t-9 -177z " />
<glyph unicode="p" horiz-adv-x="1200" d="M14 -430l17 184l96 23v975l-35 12q-56 18 -74 53v144l486 67l22 -106h15q93 96 231 96q77 0 144 -26t123 -80t89 -149.5t33 -221.5q0 -171 -72 -299.5t-194.5 -195t-276.5 -66.5q-31 0 -75 10v-211l119 -23v-12q0 -107 -41 -174h-607zM543 244q40 -8 88 -8 q15 0 34.5 27.5t36.5 92.5t17 148q0 127 -27.5 178t-81.5 51q-32 0 -67 -14v-475z" />
<glyph unicode="q" horiz-adv-x="1183" d="M39 473q0 130 42 235.5t114.5 172t165.5 102t198 35.5q115 0 182 -37l263 104l67 -18v-1288l96 -23v-12q0 -112 -41 -174h-604l21 184l112 23v276h-14q-47 -42 -92 -57.5t-107 -15.5q-178 0 -290.5 132t-112.5 361zM481 494q0 -127 27.5 -178.5t81.5 -51.5q31 0 65 15 v475q-36 8 -86 8q-15 0 -34.5 -27.5t-36.5 -92.5t-17 -148z" />
<glyph unicode="r" horiz-adv-x="880" d="M27 0l20 186l94 23v543l-35 12q-51 17 -73 53v144l483 67l27 -209h14q79 130 114.5 164.5t98.5 34.5q45 0 80 -14l14 -388q-163 -26 -307 -26v-381l125 -23v-12q0 -107 -41 -174h-614z" />
<glyph unicode="s" horiz-adv-x="892" d="M41 657q0 153 124 257t343 104q76 0 166 -11t143 -28v-258q-25 -13 -81 -22t-103 -9h-29l-14 101q-29 16 -82 16q-29 0 -45 -4q-8 -2 -14.5 -14t-6.5 -29q0 -21 23 -39t59.5 -34t81 -34t89 -44.5t81 -60.5t59.5 -88t23 -120q0 -164 -131.5 -262t-343.5 -98 q-165 0 -315 45v254q25 13 81 22t103 8h29l14 -102q39 -17 92 -17q31 0 51 5q19 5 19 45q0 25 -23 45t-59.5 36t-81 33.5t-89 42.5t-81 57.5t-59.5 84.5t-23 118z" />
<glyph unicode="t" horiz-adv-x="743" d="M14 805v49q62 113 192 212t283 134h29v-203h176q13 -63 13 -112q0 -46 -13 -113h-176v-461q0 -26 12.5 -34.5t47.5 -8.5q61 0 120 27l17 -137q-53 -86 -137.5 -132t-184.5 -46q-147 0 -220 75.5t-73 220.5v496z" />
<glyph unicode="u" horiz-adv-x="1261" d="M20 817v144l525 67v-725q31 -16 82 -16q36 0 86 12v489l-82 23v12q0 107 41 174h487l-31 -215v-573l101 -23v-12q0 -109 -43 -174l-443 -20l11 139h-15q-93 -77 -158 -108t-157 -31q-144 0 -219.5 76.5t-75.5 232.5v463l-35 12q-52 17 -74 53z" />
<glyph unicode="v" horiz-adv-x="1024" d="M-10 811v12q0 109 43 174h536l-12 -186l-59 -23l86 -358h14l92 358l-61 23v12q0 107 41 174h389l-19 -186l-57 -23l-283 -788l-364 -20l-285 808z" />
<glyph unicode="w" horiz-adv-x="1533" d="M-16 811v12q0 109 43 174h526l-12 -186l-58 -23l80 -329h15l86 329l-58 23v12q0 109 43 174h463l-20 -186l-54 -23l78 -329h14l87 329l-58 23v12q0 109 43 174h361l-19 -186l-55 -23l-270 -788l-332 -20l-119 456h-14l-109 -436l-330 -20l-270 808z" />
<glyph unicode="x" horiz-adv-x="1073" d="M0 0l20 186l56 23l182 274l-199 305l-59 23v12q0 109 43 174h561l-22 -186l-50 -23l93 -161l80 161l-50 23v12q0 109 43 174h375l-20 -186l-58 -23l-182 -276l201 -303l59 -23v-12q0 -107 -41 -174h-555l12 186l54 23l-92 162l-84 -162l47 -23v-12q0 -109 -43 -174h-371z " />
<glyph unicode="y" horiz-adv-x="1028" d="M-8 811v12q0 109 43 174h534l-12 -186l-61 -23l77 -382h15l102 382l-61 23v12q0 107 41 174h393l-19 -186l-57 -23l-381 -1030l76 -22v-12q0 -98 -49 -175q-275 0 -492 45l60 175l114 10l111 237l-119 13l-256 759z" />
<glyph unicode="z" horiz-adv-x="923" d="M20 0v147l429 500h-211l-17 -100h-28q-99 0 -156 31v419h862v-147l-448 -500h237l19 101h28q96 0 156 -31v-420h-871z" />
<glyph unicode="{" horiz-adv-x="692" d="M70 455v219q88 0 117.5 20t29.5 72q0 34 -20.5 76t-45 78t-45 92t-20.5 114q0 153 144.5 232.5t412.5 79.5q0 -109 -25 -215l-147 -21q-12 -24 -12 -61q0 -33 32.5 -97.5t65.5 -138.5t33 -129q0 -75 -55 -128t-170 -75v-22q117 -27 171 -77t54 -126q0 -55 -33 -128 t-65.5 -137t-32.5 -97q0 -38 12 -62l172 -20q0 -117 -25 -215q-157 0 -274 32t-187.5 103t-70.5 174q0 60 20.5 117.5t45 94.5t45 77.5t20.5 70.5q0 57 -29 77t-118 20z" />
<glyph unicode="|" horiz-adv-x="665" d="M141 -451v1946q95 18 191 18q98 0 192 -18v-1946q-94 -18 -192 -18q-96 0 -191 18z" />
<glyph unicode="}" horiz-adv-x="692" d="M49 -311q0 109 25 215l147 20q12 24 12 62q0 33 -32.5 97.5t-65.5 138t-33 128.5q0 75 55.5 127.5t170.5 75.5v22q-117 27 -171.5 77t-54.5 126q0 43 20.5 99t45 100t45 90.5t20.5 73.5q0 37 -12 61l-172 21q0 117 25 215q157 0 274 -32.5t187.5 -103.5t70.5 -174 q0 -60 -20.5 -117.5t-45 -94.5t-45 -77.5t-20.5 -70.5q0 -56 29.5 -76t118.5 -20v-219q-88 0 -118 -20.5t-30 -72.5q0 -34 20.5 -76t45 -78t45 -92t20.5 -114q0 -152 -144.5 -231.5t-412.5 -79.5z" />
<glyph unicode="~" horiz-adv-x="1003" d="M51 338q47 165 89 256t83.5 125.5t98.5 34.5t178.5 -54.5t167.5 -54.5q40 0 65.5 24t71.5 103l145 -45q-48 -167 -89.5 -257t-82.5 -124.5t-98 -34.5q-55 0 -179.5 54.5t-166.5 54.5q-37 0 -65 -26.5t-72 -100.5z" />
<glyph unicode="&#xa1;" horiz-adv-x="686" d="M90 -420l123 932h262l121 -911q-168 -21 -506 -21zM135 817q0 91 55.5 146t153.5 55q100 0 154.5 -54.5t54.5 -146.5q0 -95 -56 -150t-153 -55q-96 0 -152.5 55t-56.5 150z" />
<glyph unicode="&#xa2;" d="M168 469q0 239 141 377.5t371 144.5l76 365q24 6 55 6q54 0 78 -16l-76 -361q62 -5 133 -18q0 -105 -18 -303q-55 9 -143.5 17.5t-133.5 8.5q-6 0 -14.5 -6t-19 -20.5t-19 -35.5t-14.5 -55.5t-6 -76.5q0 -99 48.5 -149t137.5 -50q53 0 103.5 13t80.5 34l17 -172 q-45 -75 -138.5 -120.5t-197.5 -45.5h-15l-73 -358q-24 -6 -56 -6q-53 0 -77 16l75 367q-144 41 -229.5 156.5t-85.5 287.5z" />
<glyph unicode="&#xa3;" d="M96 563q0 43 8 70h193q-9 24 -29 69.5t-26 59.5h-138q-8 27 -8 69q0 43 8 70h89q-17 70 -17 119q0 79 32.5 150t92 126t153.5 88t208 33q190 0 292.5 -71.5t102.5 -184.5q0 -88 -52 -147t-133 -68q-73 10 -119 45t-46 96q0 50 29 79.5t87 29.5q-3 21 -40.5 37t-108.5 16 q-40 0 -72 -8q-37 -9 -37 -106q0 -71 70 -234h254q10 -30 10 -67q0 -34 -10 -72h-193q37 -103 43 -129h150q10 -30 10 -68q0 -33 -10 -71h-141q-9 -53 -41 -97.5t-105 -107.5v-10h213l39 124h37q50 0 107 -12t87 -26l-26 -385l-748 45l-170 -45q-28 82 -28 188 q61 76 209 113q43 51 43 118q0 35 -17 95h-244q-8 27 -8 69z" />
<glyph unicode="&#xa4;" horiz-adv-x="1163" d="M61 170l134 137q-70 103 -70 244q0 143 70 252l-134 137q62 109 166 168l148 -154q93 41 207 41q113 0 206 -43l150 156q104 -59 166 -168l-133 -137q69 -109 69 -244q0 -143 -69 -252l133 -137q-62 -109 -166 -168l-150 154q-93 -41 -206 -41q-121 0 -207 41l-148 -154 q-104 59 -166 168zM449 557q0 -94 33 -128t102 -34q70 0 101.5 35.5t31.5 124.5q0 96 -34 128t-99 32q-67 0 -101 -32t-34 -126z" />
<glyph unicode="&#xa5;" d="M2 1196v27q0 109 43 174h578l-19 -201l-80 -22l131 -406h21l139 406l-78 22v27q0 109 43 174h398l-19 -201l-63 -22l-207 -441h158q10 -30 10 -67q0 -34 -10 -72h-222l-24 -53v-76h246q10 -30 10 -68q0 -33 -10 -71h-246v-103l125 -22v-27q0 -109 -43 -174h-639l16 201 l107 22v103h-244q-8 27 -8 69q0 43 8 70h244v76l-27 53h-217q-8 27 -8 70q0 42 8 69h151l-208 441z" />
<glyph unicode="&#xa6;" horiz-adv-x="663" d="M141 356q100 19 191 19q92 0 192 -19v-807q-94 -18 -192 -18q-96 0 -191 18v807zM141 688v807q95 18 191 18q98 0 192 -18v-807q-94 -18 -192 -18q-96 0 -191 18z" />
<glyph unicode="&#xa7;" horiz-adv-x="1067" d="M106 -88q0 88 52 147t133 68q73 -10 119.5 -46t46.5 -97q0 -50 -29.5 -80.5t-87.5 -30.5q3 -19 44.5 -34t88.5 -15q41 0 62 6q11 4 25.5 42.5t14.5 78.5q0 64 -37.5 109.5t-140 92t-291.5 99.5q0 178 27 303l184 156q-170 134 -170 336q0 68 28 133t80 118.5t137 86 t190 32.5q180 0 279.5 -72t99.5 -184q0 -88 -52 -147t-133 -68q-73 10 -119.5 46.5t-46.5 97.5q0 50 29.5 80t87.5 30q-3 19 -44.5 34t-88.5 15q-41 0 -59 -6q-12 -3 -27.5 -41.5t-15.5 -79.5q0 -64 37.5 -109.5t140 -92t291.5 -99.5q0 -171 -25 -303l-188 -158 q172 -130 172 -333q0 -68 -28 -133t-80 -119t-137 -86.5t-190 -32.5q-180 0 -279.5 72t-99.5 184zM375 530q140 -42 221 -79l96 92q-127 35 -221 78z" />
<glyph unicode="&#xa8;" horiz-adv-x="1024" d="M119 1290q0 88 47.5 138.5t126.5 50.5t124.5 -50t45.5 -139q0 -86 -43.5 -137t-126.5 -51q-82 0 -128 51.5t-46 136.5zM561 1290q0 88 47.5 138.5t126.5 50.5t124.5 -50t45.5 -139q0 -86 -43.5 -137t-126.5 -51q-82 0 -128 51.5t-46 136.5z" />
<glyph unicode="&#xa9;" horiz-adv-x="1509" d="M41 698q0 210 90.5 374t253 254.5t371.5 90.5t371 -89.5t251.5 -253.5t89.5 -376q0 -209 -90.5 -373t-253 -254.5t-370.5 -90.5q-319 0 -516 197.5t-197 520.5zM180 696q0 -269 153.5 -427t420.5 -158q266 0 420.5 159.5t154.5 427.5q0 269 -153 428.5t-420 159.5 q-266 0 -421 -159.5t-155 -430.5zM428 686q0 176 110.5 272.5t276.5 96.5q105 0 199 -23v-211q-42 -22 -119 -22h-25l-16 100q-24 12 -55 12q-17 0 -27 -2q-9 -1 -22 -22.5t-26 -73.5t-13 -117q0 -104 34 -155.5t97 -51.5q9 0 24 3l19 131h24q75 0 119 -23v-211 q-92 -47 -225 -47q-162 0 -268.5 91t-106.5 253z" />
<glyph unicode="&#xaa;" horiz-adv-x="823" d="M37 858q0 88 49 135.5t174 65.5l162 22v78q-150 -26 -203 -26q-77 0 -110 30t-33 97q0 69 28 137h533q52 -41 73 -95t21 -131l-10 -307q20 -10 63 -10v-41q-13 -67 -54 -102t-122 -35q-99 0 -159 55q-108 -55 -199 -55q-99 0 -156 47t-57 135zM324 891q0 -66 55 -66 q28 0 43 6v142l-88 -23q-10 -30 -10 -59z" />
<glyph unicode="&#xab;" horiz-adv-x="1019" d="M14 471v68l310 366l229 -20l-135 -373l135 -389l-229 -21zM467 471v68l309 366l230 -20l-136 -373l136 -389l-230 -21z" />
<glyph unicode="&#xac;" horiz-adv-x="1024" d="M68 459v370h888v-651h-364v281h-524z" />
<glyph unicode="&#xad;" horiz-adv-x="686" d="M84 322v352h518v-352h-518z" />
<glyph unicode="&#xae;" horiz-adv-x="815" d="M51 1057q0 160 99.5 260t259.5 100q158 0 256 -99.5t98 -260.5q0 -160 -99.5 -260.5t-258.5 -100.5t-257 99.5t-98 261.5zM127 1055q0 -133 73.5 -210t205.5 -77q134 0 208 77t74 212t-73 212t-205 77q-134 0 -208.5 -77.5t-74.5 -213.5zM240 879l4 59l26 6v225l-30 7v8 q0 36 12 51h182q146 0 146 -107q0 -59 -45 -79l53 -140q-14 -14 -40 -23t-48 -9l-84 127h-17v-60l23 -6v-8q0 -34 -10 -51h-172zM399 1063l35 2q19 19 19 53q0 51 -33 51h-21v-106z" />
<glyph unicode="&#xaf;" horiz-adv-x="1024" d="M250 1133v284h524v-284h-524z" />
<glyph unicode="&#xb0;" horiz-adv-x="751" d="M20 1087q0 154 98.5 242t262.5 88q156 0 253 -87t97 -236q0 -156 -100.5 -243t-261.5 -87q-154 0 -251.5 89t-97.5 234zM266 1092q0 -138 109 -138q108 0 108 136q0 137 -106 137q-111 0 -111 -135z" />
<glyph unicode="&#xb1;" d="M176 0v311h815v-311h-815zM176 592v344h232v221h352v-221h231v-344h-231v-221h-352v221h-232z" />
<glyph unicode="&#xb2;" horiz-adv-x="880" d="M59 946v258q150 88 224 144t96 92t22 84q0 59 -38.5 88.5t-100.5 29.5q-81 0 -127 -40l-63 88q110 178 348 178q167 0 261.5 -77.5t94.5 -203.5q0 -58 -13 -99.5t-48.5 -80.5t-97 -72.5t-158.5 -68.5v-19q165 13 221 13q68 0 103.5 -34.5t35.5 -99.5q0 -38 -8 -93 t-18 -87h-734z" />
<glyph unicode="&#xb3;" horiz-adv-x="880" d="M88 1112q142 20 206.5 35t90 34.5t25.5 53.5q0 40 -31.5 56t-102.5 16h-124v188h124q64 0 95.5 16.5t31.5 57.5q0 78 -110 78q-83 0 -131 -45l-64 88q55 86 135 132t211 46q157 0 245.5 -65t88.5 -173q0 -154 -153 -198v-19q168 -38 168 -190q0 -94 -64.5 -156 t-215.5 -98.5t-394 -42.5q-11 29 -21 88t-10 98z" />
<glyph unicode="&#xb4;" horiz-adv-x="1024" d="M260 1141l47 354h455l-330 -393q-86 0 -172 39z" />
<glyph unicode="&#xb6;" horiz-adv-x="1103" d="M102 936q0 212 119.5 336.5t366.5 124.5h485l-18 -187l-97 -22v-973q0 -283 -123 -421t-341 -138q-164 0 -258.5 73.5t-94.5 192.5q0 84 50 145.5t135 71.5q81 -10 123.5 -47t42.5 -88q0 -53 -31.5 -81.5t-85.5 -33.5q27 -39 110 -39q172 0 172 252v406l-157 10 q-195 12 -296.5 116.5t-101.5 301.5z" />
<glyph unicode="&#xb7;" horiz-adv-x="501" d="M43 498q0 104 55.5 163.5t153.5 59.5q94 0 150.5 -60t56.5 -163q0 -99 -55 -159t-152 -60q-101 0 -155 59.5t-54 159.5z" />
<glyph unicode="&#xb8;" horiz-adv-x="1024" d="M322 -313q137 6 137 61q0 30 -23.5 43.5t-79.5 13.5v41l70 88h115l-9 -24q79 -6 123.5 -46.5t44.5 -113.5q0 -96 -93.5 -148.5t-264.5 -52.5q-20 59 -20 138z" />
<glyph unicode="&#xb9;" horiz-adv-x="880" d="M100 946l13 162l176 14v539l-68 12q-61 12 -80 37v137h484v-725l153 -14v-18q0 -35 -9.5 -80t-23.5 -64h-645z" />
<glyph unicode="&#xba;" horiz-adv-x="823" d="M23 1044q0 160 107 263.5t284 103.5q174 0 280.5 -96t106.5 -273q0 -163 -109 -264.5t-282 -101.5q-181 0 -284 98.5t-103 269.5zM352 1044q0 -107 13.5 -146.5t52.5 -39.5q28 0 40.5 38t12.5 148q0 106 -13.5 145.5t-51.5 39.5q-20 0 -31 -14t-17 -54.5t-6 -116.5z" />
<glyph unicode="&#xbb;" horiz-adv-x="1019" d="M14 123l136 373l-136 389l230 20l309 -368v-68l-309 -367zM467 123l135 373l-135 389l229 20l310 -368v-68l-310 -367z" />
<glyph unicode="&#xbc;" horiz-adv-x="2129" d="M100 496l13 161l176 15v538l-68 13q-61 12 -80 37v137h484v-725l153 -15v-18q0 -35 -9.5 -79.5t-23.5 -63.5h-645zM659 -72l568 1567q47 0 127 -25.5t114 -54.5l-565 -1567q-46 0 -130 26.5t-114 53.5zM1305 156v303l235 463q168 0 250 -31l-256 -496h156v185h311v-164 h72v-49q0 -47 -7 -117t-18 -94h-47v-156h-340v156h-356z" />
<glyph unicode="&#xbd;" horiz-adv-x="2129" d="M100 496l13 161l176 15v538l-68 13q-61 12 -80 37v137h484v-725l153 -15v-18q0 -35 -9.5 -79.5t-23.5 -63.5h-645zM659 -72l568 1567q47 0 127 -25.5t114 -54.5l-565 -1567q-46 0 -130 26.5t-114 53.5zM1309 0v258q150 88 224 144t96 92t22 84q0 59 -39 88.5t-101 29.5 q-80 0 -127 -41l-63 88q111 179 348 179q167 0 261.5 -77.5t94.5 -203.5q0 -58 -13 -99.5t-48.5 -81t-97 -73t-158.5 -68.5v-18q152 12 221 12q139 0 139 -133q0 -38 -8 -93t-18 -87h-733z" />
<glyph unicode="&#xbe;" horiz-adv-x="2129" d="M88 662q109 16 166.5 26.5t95.5 24.5t49 29.5t11 41.5q0 40 -31.5 56t-102.5 16h-124v188h124q64 0 95.5 16.5t31.5 57.5q0 78 -110 78q-83 0 -131 -45l-64 88q55 86 135 132t211 46q157 0 245.5 -64.5t88.5 -172.5q0 -155 -153 -199v-18q168 -38 168 -191 q0 -94 -64.5 -156t-215.5 -98.5t-394 -42.5q-11 28 -21 88t-10 99zM659 -72l568 1567q47 0 127 -25.5t114 -54.5l-565 -1567q-46 0 -130 26.5t-114 53.5zM1305 156v303l235 463q168 0 250 -31l-256 -496h156v185h311v-164h72v-49q0 -47 -7 -117t-18 -94h-47v-156h-340v156 h-356z" />
<glyph unicode="&#xbf;" horiz-adv-x="985" d="M45 -57q0 151 95.5 239t283.5 121l47 215h170l186 -188q-2 -26 -18.5 -66t-38.5 -65q-266 -9 -266 -174q0 -67 40.5 -107.5t114.5 -40.5q99 0 156 57l107 -84q-55 -124 -167 -197t-286 -73q-198 0 -311 101t-113 262zM356 817q0 91 56 146t153 55q102 0 155.5 -54.5 t53.5 -146.5q0 -96 -55.5 -150.5t-153.5 -54.5q-95 0 -152 55.5t-57 149.5z" />
<glyph unicode="&#xc0;" horiz-adv-x="1425" d="M-39 0l16 201l78 22l434 1174l457 20l404 -1194l84 -22v-27q0 -112 -41 -174h-670l16 201l140 22l-80 256l-363 -28l-74 -228l148 -22v-27q0 -112 -41 -174h-508zM377 1720h448l54 -233q-97 -41 -224 -41zM504 668h237l-106 352h-19z" />
<glyph unicode="&#xc1;" horiz-adv-x="1425" d="M-39 0l16 201l78 22l434 1174l457 20l404 -1194l84 -22v-27q0 -112 -41 -174h-670l16 201l140 22l-80 256l-363 -28l-74 -228l148 -22v-27q0 -112 -41 -174h-508zM504 668h237l-106 352h-19zM565 1487l51 233h451l-281 -274q-127 0 -221 41z" />
<glyph unicode="&#xc2;" horiz-adv-x="1425" d="M-39 0l16 201l78 22l434 1174l457 20l404 -1194l84 -22v-27q0 -112 -41 -174h-670l16 201l140 22l-80 256l-363 -28l-74 -228l148 -22v-27q0 -112 -41 -174h-508zM410 1499l143 225h332l143 -225q-50 -53 -115 -53l-204 106l-183 -106q-60 0 -116 53zM504 668h237 l-106 352h-19z" />
<glyph unicode="&#xc3;" horiz-adv-x="1425" d="M-39 0l16 201l78 22l434 1174l457 20l404 -1194l84 -22v-27q0 -112 -41 -174h-670l16 201l140 22l-80 256l-363 -28l-74 -228l148 -22v-27q0 -112 -41 -174h-508zM379 1501q34 85 59.5 135t51.5 75.5t48 32.5t56 7q38 0 139.5 -37t128.5 -37q24 0 44.5 17t56.5 65 l116 -61q-44 -110 -77.5 -165t-62.5 -71t-75 -16q-38 0 -142 38t-126 38q-24 0 -44 -16t-56 -66zM504 668h237l-106 352h-19z" />
<glyph unicode="&#xc4;" horiz-adv-x="1425" d="M-39 0l16 201l78 22l434 1174l457 20l404 -1194l84 -22v-27q0 -112 -41 -174h-670l16 201l140 22l-80 256l-363 -28l-74 -228l148 -22v-27q0 -112 -41 -174h-508zM356 1599q0 67 44 107.5t110 40.5t111 -40.5t45 -107.5q0 -65 -45 -107t-111 -42q-65 0 -109.5 42 t-44.5 107zM504 668h237l-106 352h-19zM760 1599q0 67 43.5 107.5t109.5 40.5t111 -40.5t45 -107.5q0 -65 -45 -107t-111 -42q-65 0 -109 42t-44 107z" />
<glyph unicode="&#xc5;" horiz-adv-x="1425" d="M-39 0l16 201l78 22l434 1172q-47 53 -47 131q0 100 71 159.5t208 59.5q132 0 204 -61t72 -158q0 -77 -45 -131l398 -1172l84 -22v-27q0 -112 -41 -174h-670l16 201l140 22l-80 256l-363 -28l-74 -228l148 -22v-27q0 -112 -41 -174h-508zM504 668h237l-106 352h-19z M643 1526q0 -31 19 -49.5t57 -18.5q78 0 78 70q0 67 -76 67q-78 0 -78 -69z" />
<glyph unicode="&#xc6;" horiz-adv-x="1896" d="M-39 0l16 201l89 22l333 951l-120 22v27q0 109 43 174h1169l305 20v-407q-36 -21 -102 -33t-127 -12h-35l-47 200h-221v-352h409q15 -58 15 -121q0 -60 -15 -121l-184 19h-225v-371l252 23l45 202h34q61 0 126.5 -12t101.5 -33v-399h-1121l17 201l106 22v367h-336 l-116 -367l145 -22v-27q0 -112 -41 -174h-516zM559 813h266v352h-153z" />
<glyph unicode="&#xc7;" horiz-adv-x="1265" d="M39 676q0 163 48 298t140 234t234.5 154t324.5 55q90 0 197.5 -12.5t181.5 -32.5v-426q-36 -21 -102 -33t-127 -12h-35l-47 242q-67 24 -152 24q-35 0 -49 -2q-9 -1 -23.5 -21t-31.5 -62t-32.5 -97.5t-25.5 -137t-10 -171.5q0 -231 63.5 -333.5t192.5 -102.5q63 0 99 8 l45 239h35q61 0 126.5 -12t100.5 -33v-364q-77 -43 -205 -70.5t-256 -27.5q-144 0 -269.5 46.5t-220 132.5t-148.5 219.5t-54 297.5zM545 -313q137 6 137 61q0 30 -23 43.5t-79 13.5v41l69 88h115l-8 -24q79 -6 123.5 -46.5t44.5 -113.5q0 -95 -94 -148t-265 -53 q-20 59 -20 138z" />
<glyph unicode="&#xc8;" horiz-adv-x="1243" d="M35 0l16 201l109 22v951l-121 22v27q0 112 41 174h758l305 20v-407q-36 -21 -102.5 -33t-127.5 -12h-34l-48 200h-221v-352h410q14 -55 14 -121q0 -64 -14 -121l-184 19h-226v-371l252 23l45 202h35q61 0 126.5 -12t100.5 -33v-399h-1134zM260 1720h449l53 -233 q-97 -41 -223 -41z" />
<glyph unicode="&#xc9;" horiz-adv-x="1243" d="M35 0l16 201l109 22v951l-121 22v27q0 112 41 174h758l305 20v-407q-36 -21 -102.5 -33t-127.5 -12h-34l-48 200h-221v-352h410q14 -55 14 -121q0 -64 -14 -121l-184 19h-226v-371l252 23l45 202h35q61 0 126.5 -12t100.5 -33v-399h-1134zM426 1487l51 233h451l-281 -274 q-127 0 -221 41z" />
<glyph unicode="&#xca;" horiz-adv-x="1243" d="M35 0l16 201l109 22v951l-121 22v27q0 112 41 174h758l305 20v-407q-36 -21 -102.5 -33t-127.5 -12h-34l-48 200h-221v-352h410q14 -55 14 -121q0 -64 -14 -121l-184 19h-226v-371l252 23l45 202h35q61 0 126.5 -12t100.5 -33v-399h-1134zM297 1499l143 225h332l143 -225 q-50 -53 -114 -53l-205 106l-182 -106q-61 0 -117 53z" />
<glyph unicode="&#xcb;" horiz-adv-x="1243" d="M35 0l16 201l109 22v951l-121 22v27q0 112 41 174h758l305 20v-407q-36 -21 -102.5 -33t-127.5 -12h-34l-48 200h-221v-352h410q14 -55 14 -121q0 -64 -14 -121l-184 19h-226v-371l252 23l45 202h35q61 0 126.5 -12t100.5 -33v-399h-1134zM246 1599q0 67 43.5 107.5 t109.5 40.5t111 -40.5t45 -107.5q0 -65 -45 -107t-111 -42q-65 0 -109 42t-44 107zM649 1599q0 67 44 107.5t110 40.5t110.5 -40.5t44.5 -107.5q0 -65 -45 -107t-110 -42t-109.5 42t-44.5 107z" />
<glyph unicode="&#xcc;" horiz-adv-x="770" d="M35 0l16 201l109 22v951l-121 22v27q0 112 41 174h655l-16 -201l-109 -22v-951l121 -22v-27q0 -112 -41 -174h-655zM45 1720h449l53 -233q-97 -41 -223 -41z" />
<glyph unicode="&#xcd;" horiz-adv-x="770" d="M35 0l16 201l109 22v951l-121 22v27q0 112 41 174h655l-16 -201l-109 -22v-951l121 -22v-27q0 -112 -41 -174h-655zM225 1487l51 233h451l-281 -274q-127 0 -221 41z" />
<glyph unicode="&#xce;" horiz-adv-x="770" d="M35 0l16 201l109 22v951l-121 22v27q0 112 41 174h655l-16 -201l-109 -22v-951l121 -22v-27q0 -112 -41 -174h-655zM76 1499l143 225h332l143 -225q-50 -53 -114 -53l-205 106l-182 -106q-61 0 -117 53z" />
<glyph unicode="&#xcf;" horiz-adv-x="770" d="M35 0l16 201l109 22v951l-121 22v27q0 112 41 174h655l-16 -201l-109 -22v-951l121 -22v-27q0 -112 -41 -174h-655zM59 1599q0 67 40 107.5t100 40.5q61 0 101 -40t40 -108q0 -65 -40 -107t-101 -42q-59 0 -99.5 42t-40.5 107zM426 1599q0 67 39.5 107.5t99.5 40.5 t101 -40.5t41 -107.5q0 -65 -41 -107t-101 -42q-59 0 -99 42t-40 107z" />
<glyph unicode="&#xd0;" horiz-adv-x="1464" d="M35 0l16 201l109 22v379h-86q-13 57 -13 107q0 46 13 106h86v359l-121 22v27q0 112 41 174h643q328 0 515 -182.5t187 -499.5q0 -327 -200 -521t-559 -194h-631zM610 238l176 -9q68 57 107 168.5t39 317.5q0 106 -10.5 184.5t-29.5 127.5t-48 79t-61.5 41.5t-75.5 11.5 h-97v-344h140q12 -53 12 -106q0 -51 -12 -107h-140v-364z" />
<glyph unicode="&#xd1;" horiz-adv-x="1521" d="M35 0l16 201l105 22q14 635 22 951l-121 22v27q0 112 41 174h508l469 -713h19v490l-136 22v27q0 112 41 174h494l-16 -201l-97 -22l-20 -1174l-285 -20l-608 874h-18v-631l133 -22v-27q0 -110 -41 -174h-506zM438 1501q34 85 59.5 135t51.5 75.5t48 32.5t56 7 q38 0 140 -37t129 -37q24 0 44 16.5t56 65.5l117 -61q-44 -110 -77.5 -165t-62.5 -71t-75 -16q-38 0 -142.5 38t-126.5 38q-24 0 -44 -16t-56 -66z" />
<glyph unicode="&#xd2;" horiz-adv-x="1464" d="M39 698q0 218 93.5 383t251.5 250.5t355 85.5q142 0 267 -50t218 -140.5t147 -227.5t54 -301q0 -165 -54.5 -301t-149.5 -227t-222.5 -140.5t-273.5 -49.5q-142 0 -267 50t-218 141t-147 227.5t-54 299.5zM377 1720h448l54 -233q-97 -41 -224 -41zM530 698 q0 -116 10 -199t27 -132.5t45 -77t57 -36.5t70 -9q48 0 80 16t60 62t41.5 139t13.5 237q0 118 -10.5 202t-27.5 132.5t-45.5 76t-57 36t-68.5 8.5q-37 0 -63.5 -8.5t-53 -36t-42.5 -76t-26 -132.5t-10 -202z" />
<glyph unicode="&#xd3;" horiz-adv-x="1464" d="M39 698q0 218 93.5 383t251.5 250.5t355 85.5q142 0 267 -50t218 -140.5t147 -227.5t54 -301q0 -165 -54.5 -301t-149.5 -227t-222.5 -140.5t-273.5 -49.5q-142 0 -267 50t-218 141t-147 227.5t-54 299.5zM530 698q0 -116 10 -199t27 -132.5t45 -77t57 -36.5t70 -9 q48 0 80 16t60 62t41.5 139t13.5 237q0 118 -10.5 202t-27.5 132.5t-45.5 76t-57 36t-68.5 8.5q-37 0 -63.5 -8.5t-53 -36t-42.5 -76t-26 -132.5t-10 -202zM588 1487l51 233h451l-281 -274q-127 0 -221 41z" />
<glyph unicode="&#xd4;" horiz-adv-x="1464" d="M39 698q0 218 93.5 383t251.5 250.5t355 85.5q142 0 267 -50t218 -140.5t147 -227.5t54 -301q0 -165 -54.5 -301t-149.5 -227t-222.5 -140.5t-273.5 -49.5q-142 0 -267 50t-218 141t-147 227.5t-54 299.5zM420 1499l143 225h332l143 -225q-50 -53 -114 -53l-205 106 l-182 -106q-61 0 -117 53zM530 698q0 -116 10 -199t27 -132.5t45 -77t57 -36.5t70 -9q48 0 80 16t60 62t41.5 139t13.5 237q0 118 -10.5 202t-27.5 132.5t-45.5 76t-57 36t-68.5 8.5q-37 0 -63.5 -8.5t-53 -36t-42.5 -76t-26 -132.5t-10 -202z" />
<glyph unicode="&#xd5;" horiz-adv-x="1464" d="M39 698q0 218 93.5 383t251.5 250.5t355 85.5q142 0 267 -50t218 -140.5t147 -227.5t54 -301q0 -165 -54.5 -301t-149.5 -227t-222.5 -140.5t-273.5 -49.5q-142 0 -267 50t-218 141t-147 227.5t-54 299.5zM399 1501q34 85 59.5 135t51.5 75.5t48 32.5t56 7q38 0 140 -37 t129 -37q24 0 44 16.5t56 65.5l117 -61q-44 -110 -77.5 -165t-62.5 -71t-75 -16q-38 0 -142.5 38t-126.5 38q-24 0 -44 -16t-56 -66zM530 698q0 -116 10 -199t27 -132.5t45 -77t57 -36.5t70 -9q48 0 80 16t60 62t41.5 139t13.5 237q0 118 -10.5 202t-27.5 132.5t-45.5 76 t-57 36t-68.5 8.5q-37 0 -63.5 -8.5t-53 -36t-42.5 -76t-26 -132.5t-10 -202z" />
<glyph unicode="&#xd6;" horiz-adv-x="1464" d="M39 698q0 218 93.5 383t251.5 250.5t355 85.5q142 0 267 -50t218 -140.5t147 -227.5t54 -301q0 -165 -54.5 -301t-149.5 -227t-222.5 -140.5t-273.5 -49.5q-142 0 -267 50t-218 141t-147 227.5t-54 299.5zM377 1599q0 67 43.5 107.5t109.5 40.5t111 -40.5t45 -107.5 q0 -65 -45 -107t-111 -42q-65 0 -109 42t-44 107zM530 698q0 -116 10 -199t27 -132.5t45 -77t57 -36.5t70 -9q48 0 80 16t60 62t41.5 139t13.5 237q0 118 -10.5 202t-27.5 132.5t-45.5 76t-57 36t-68.5 8.5q-37 0 -63.5 -8.5t-53 -36t-42.5 -76t-26 -132.5t-10 -202z M780 1599q0 67 44 107.5t110 40.5t111 -40.5t45 -107.5q0 -65 -45 -107t-111 -42q-65 0 -109.5 42t-44.5 107z" />
<glyph unicode="&#xd7;" d="M125 289l215 215l-215 217l242 244l217 -217l215 217l243 -244l-215 -217l215 -215l-243 -244l-215 217l-217 -217z" />
<glyph unicode="&#xd8;" horiz-adv-x="1447" d="M39 698q0 218 93.5 383t251.5 250.5t355 85.5q181 0 336 -82l133 211q28 -2 53.5 -15t38.5 -34l-137 -217q123 -95 192.5 -244t69.5 -338q0 -165 -54.5 -301t-149.5 -227t-222.5 -140.5t-273.5 -49.5q-187 0 -336 79l-133 -211q-30 1 -55.5 15.5t-36.5 34.5l139 219 q-125 95 -194.5 243t-69.5 338zM530 698q0 -130 11 -206l350 552q-26 64 -66 86.5t-100 22.5q-37 0 -63.5 -8.5t-53 -36t-42.5 -76t-26 -132.5t-10 -202zM573 350q26 -62 66 -84t100 -22q48 0 80 16t60 62t41.5 139t13.5 237q0 111 -10 203z" />
<glyph unicode="&#xd9;" horiz-adv-x="1460" d="M43 1196v27q0 112 41 174h633l-17 -201l-108 -22v-756q0 -82 53.5 -119t165.5 -37q219 0 219 156v756l-121 22v27q0 112 41 174h471l-16 -201l-84 -22v-693q0 -241 -149.5 -371t-440.5 -130t-440.5 130t-149.5 371v693zM451 1720h448l53 -233q-97 -41 -223 -41z" />
<glyph unicode="&#xda;" horiz-adv-x="1460" d="M43 1196v27q0 112 41 174h633l-17 -201l-108 -22v-756q0 -82 53.5 -119t165.5 -37q219 0 219 156v756l-121 22v27q0 112 41 174h471l-16 -201l-84 -22v-693q0 -241 -149.5 -371t-440.5 -130t-440.5 130t-149.5 371v693zM629 1487l51 233h450l-280 -274q-127 0 -221 41z " />
<glyph unicode="&#xdb;" horiz-adv-x="1460" d="M43 1196v27q0 112 41 174h633l-17 -201l-108 -22v-756q0 -82 53.5 -119t165.5 -37q219 0 219 156v756l-121 22v27q0 112 41 174h471l-16 -201l-84 -22v-693q0 -241 -149.5 -371t-440.5 -130t-440.5 130t-149.5 371v693zM449 1499l143 225h332l143 -225q-50 -53 -115 -53 l-204 106l-183 -106q-60 0 -116 53z" />
<glyph unicode="&#xdc;" horiz-adv-x="1460" d="M43 1196v27q0 112 41 174h633l-17 -201l-108 -22v-756q0 -82 53.5 -119t165.5 -37q219 0 219 156v756l-121 22v27q0 112 41 174h471l-16 -201l-84 -22v-693q0 -241 -149.5 -371t-440.5 -130t-440.5 130t-149.5 371v693zM381 1599q0 67 44 107.5t110 40.5t110.5 -40.5 t44.5 -107.5q0 -65 -45 -107t-110 -42t-109.5 42t-44.5 107zM784 1599q0 67 44 107.5t110 40.5t111 -40.5t45 -107.5q0 -65 -45 -107t-111 -42q-65 0 -109.5 42t-44.5 107z" />
<glyph unicode="&#xdd;" horiz-adv-x="1314" d="M12 1196v27q0 110 41 174h649l-16 -201l-117 -22l162 -406h19l163 406l-112 22v27q0 112 41 174h454l-16 -201l-68 -22l-329 -633v-318l121 -22v-27q0 -112 -41 -174h-656l17 201l108 22v318l-338 633zM561 1487l51 233h451l-281 -274q-127 0 -221 41z" />
<glyph unicode="&#xde;" horiz-adv-x="1269" d="M35 0l14 201l107 22v951l-119 22v27q0 112 41 174h528v-256h86q537 0 537 -410q0 -401 -535 -463l-88 -10v-258h-571zM606 471l111 8q78 68 78 236q0 198 -127 198h-62v-442z" />
<glyph unicode="&#xdf;" horiz-adv-x="1224" d="M29 0l20 186l94 23v602q-81 35 -108 125l108 82v10q0 57 19 118.5t63 124.5t107 112.5t159 80.5t211 31q223 0 339 -80t116 -231q0 -49 -24.5 -100t-53.5 -85t-67 -75t-51 -60q-3 -9 -3 -18q0 -41 24.5 -95t59.5 -108t70 -110t59.5 -116.5t24.5 -111.5q0 -96 -55 -171.5 t-143 -114.5t-191 -39q-64 0 -102 6t-99 26q0 114 21 228q63 -37 121 -37q16 0 26 2q7 2 14 15t7 30q0 30 -29 78.5t-63.5 95t-63.5 115t-29 133.5q0 48 22.5 99.5t55 95t64.5 84t54.5 80t22.5 69.5q0 48 -42 70t-152 22q-72 0 -131 -16q-10 -2 -10 -21q0 -28 31.5 -169 t31.5 -230v-756h-528z" />
<glyph unicode="&#xe0;" horiz-adv-x="1058" d="M29 236q0 125 65.5 192t233.5 92l217 33v109q-194 -37 -275 -37q-102 0 -146 42t-44 136q0 87 39 194h710q70 -57 97.5 -132.5t27.5 -186.5l-12 -432q24 -17 55 -17q19 0 31 4v-59q-16 -95 -71 -144.5t-164 -49.5q-66 0 -116.5 20t-98.5 63q-152 -83 -265 -83 q-132 0 -208 66t-76 190zM150 1495h452l49 -354q-90 -39 -174 -39zM410 283q0 -93 75 -93q33 0 60 9v200l-123 -32q-12 -40 -12 -84z" />
<glyph unicode="&#xe1;" horiz-adv-x="1058" d="M29 236q0 125 65.5 192t233.5 92l217 33v109q-194 -37 -275 -37q-102 0 -146 42t-44 136q0 87 39 194h710q70 -57 97.5 -132.5t27.5 -186.5l-12 -432q24 -17 55 -17q19 0 31 4v-59q-16 -95 -71 -144.5t-164 -49.5q-66 0 -116.5 20t-98.5 63q-152 -83 -265 -83 q-132 0 -208 66t-76 190zM381 1141l47 354h455l-330 -393q-86 0 -172 39zM410 283q0 -93 75 -93q33 0 60 9v200l-123 -32q-12 -40 -12 -84z" />
<glyph unicode="&#xe2;" horiz-adv-x="1058" d="M29 236q0 125 65.5 192t233.5 92l217 33v109q-194 -37 -275 -37q-102 0 -146 42t-44 136q0 87 39 194h710q70 -57 97.5 -132.5t27.5 -186.5l-12 -432q24 -17 55 -17q19 0 31 4v-59q-16 -95 -71 -144.5t-164 -49.5q-66 0 -116.5 20t-98.5 63q-152 -83 -265 -83 q-132 0 -208 66t-76 190zM184 1178l164 317h357l159 -317q-27 -27 -65 -42.5t-70 -15.5l-215 174l-192 -174q-67 0 -138 58zM410 283q0 -93 75 -93q33 0 60 9v200l-123 -32q-12 -40 -12 -84z" />
<glyph unicode="&#xe3;" horiz-adv-x="1058" d="M29 236q0 125 65.5 192t233.5 92l217 33v109q-194 -37 -275 -37q-102 0 -146 42t-44 136q0 87 39 194h710q70 -57 97.5 -132.5t27.5 -186.5l-12 -432q24 -17 55 -17q19 0 31 4v-59q-16 -95 -71 -144.5t-164 -49.5q-66 0 -116.5 20t-98.5 63q-152 -83 -265 -83 q-132 0 -208 66t-76 190zM164 1151q69 178 113 236.5t108 58.5q39 0 144 -39t133 -39q25 0 42.5 16t57.5 70l123 -65q-67 -172 -110.5 -227.5t-110.5 -55.5q-39 0 -146.5 39t-130.5 39q-24 0 -42.5 -16t-57.5 -70zM410 283q0 -93 75 -93q33 0 60 9v200l-123 -32 q-12 -40 -12 -84z" />
<glyph unicode="&#xe4;" horiz-adv-x="1058" d="M29 236q0 125 65.5 192t233.5 92l217 33v109q-194 -37 -275 -37q-102 0 -146 42t-44 136q0 87 39 194h710q70 -57 97.5 -132.5t27.5 -186.5l-12 -432q24 -17 55 -17q19 0 31 4v-59q-16 -95 -71 -144.5t-164 -49.5q-66 0 -116.5 20t-98.5 63q-152 -83 -265 -83 q-132 0 -208 66t-76 190zM115 1290q0 88 47.5 138.5t126.5 50.5t124.5 -50t45.5 -139q0 -86 -43.5 -137t-126.5 -51q-82 0 -128 51.5t-46 136.5zM410 283q0 -93 75 -93q33 0 60 9v200l-123 -32q-12 -40 -12 -84zM557 1290q0 88 47.5 138.5t126.5 50.5t124.5 -50t45.5 -139 q0 -86 -43.5 -137t-126.5 -51q-82 0 -128 51.5t-46 136.5z" />
<glyph unicode="&#xe5;" horiz-adv-x="1058" d="M29 236q0 125 65.5 192t233.5 92l217 33v109q-194 -37 -275 -37q-102 0 -146 42t-44 136q0 87 39 194h710q70 -57 97.5 -132.5t27.5 -186.5l-12 -432q24 -17 55 -17q19 0 31 4v-59q-16 -95 -71 -144.5t-164 -49.5q-66 0 -116.5 20t-98.5 63q-152 -83 -265 -83 q-132 0 -208 66t-76 190zM266 1309q0 101 62.5 154t187.5 53q122 0 186 -54.5t64 -152.5q0 -102 -65.5 -154.5t-188.5 -52.5q-116 0 -181 54t-65 153zM410 283q0 -93 75 -93q33 0 60 9v200l-123 -32q-12 -40 -12 -84zM442 1307q0 -66 72 -66q74 0 74 68q0 67 -72 67 q-74 0 -74 -69z" />
<glyph unicode="&#xe6;" horiz-adv-x="1515" d="M29 236q0 125 65.5 192t233.5 92l217 33v109q-194 -37 -275 -37q-102 0 -146 42t-44 136q0 87 39 194h620q26 -26 41 -47q114 68 256 68q203 0 323 -106t120 -304q0 -64 -17 -155h-514q0 -73 64.5 -127t187.5 -54q150 0 244 66l12 -172q-123 -186 -418 -186 q-219 0 -348 126q-107 -71 -192 -98.5t-185 -27.5q-132 0 -208 66t-76 190zM410 283q0 -93 75 -93q52 0 123 23q-47 80 -59 184l-127 -30q-12 -40 -12 -84zM948 598l168 18v66q0 133 -102 133q-15 0 -27 -4q-9 -3 -17.5 -24.5t-15 -71t-6.5 -117.5z" />
<glyph unicode="&#xe7;" horiz-adv-x="862" d="M39 475q0 131 43 236t118.5 171t174.5 101t213 35t221 -21q0 -141 -23 -317q-123 20 -237 20q-12 0 -27 -19t-29 -68.5t-14 -116.5q0 -99 44.5 -154t127.5 -55q96 0 160 43l16 -174q-41 -82 -122 -129t-191 -47q-102 0 -187.5 31.5t-150 92.5t-101 156t-36.5 215z M299 -313q137 6 137 61q0 30 -23 43.5t-79 13.5v41l69 88h115l-8 -24q79 -6 123.5 -46.5t44.5 -113.5q0 -95 -94 -148t-265 -53q-20 59 -20 138z" />
<glyph unicode="&#xe8;" horiz-adv-x="1038" d="M39 485q0 154 69 276.5t187 189.5t262 67q204 0 324 -106t120 -304q0 -69 -16 -155h-514q0 -73 64.5 -127t187.5 -54q151 0 242 66l14 -172q-123 -186 -420 -186q-227 0 -373.5 139.5t-146.5 365.5zM160 1495h452l50 -354q-90 -39 -175 -39zM471 598l168 18v66 q0 133 -102 133q-15 0 -27 -4q-9 -3 -17.5 -24.5t-15 -71t-6.5 -117.5z" />
<glyph unicode="&#xe9;" horiz-adv-x="1038" d="M39 485q0 154 69 276.5t187 189.5t262 67q204 0 324 -106t120 -304q0 -69 -16 -155h-514q0 -73 64.5 -127t187.5 -54q151 0 242 66l14 -172q-123 -186 -420 -186q-227 0 -373.5 139.5t-146.5 365.5zM444 1141l48 354h454l-330 -393q-86 0 -172 39zM471 598l168 18v66 q0 133 -102 133q-15 0 -27 -4q-9 -3 -17.5 -24.5t-15 -71t-6.5 -117.5z" />
<glyph unicode="&#xea;" horiz-adv-x="1038" d="M39 485q0 154 69 276.5t187 189.5t262 67q204 0 324 -106t120 -304q0 -69 -16 -155h-514q0 -73 64.5 -127t187.5 -54q151 0 242 66l14 -172q-123 -186 -420 -186q-227 0 -373.5 139.5t-146.5 365.5zM211 1178l164 317h356l160 -317q-27 -27 -65 -42.5t-70 -15.5l-215 174 l-193 -174q-66 0 -137 58zM471 598l168 18v66q0 133 -102 133q-15 0 -27 -4q-9 -3 -17.5 -24.5t-15 -71t-6.5 -117.5z" />
<glyph unicode="&#xeb;" horiz-adv-x="1038" d="M39 485q0 154 69 276.5t187 189.5t262 67q204 0 324 -106t120 -304q0 -69 -16 -155h-514q0 -73 64.5 -127t187.5 -54q151 0 242 66l14 -172q-123 -186 -420 -186q-227 0 -373.5 139.5t-146.5 365.5zM160 1290q0 88 47.5 138.5t126.5 50.5t124.5 -50t45.5 -139 q0 -86 -43.5 -137t-126.5 -51q-82 0 -128 51.5t-46 136.5zM471 598l168 18v66q0 133 -102 133q-15 0 -27 -4q-9 -3 -17.5 -24.5t-15 -71t-6.5 -117.5zM602 1290q0 88 47.5 138.5t126.5 50.5t124.5 -50t45.5 -139q0 -86 -43.5 -137t-126.5 -51q-82 0 -128 51.5t-46 136.5z " />
<glyph unicode="&#xec;" horiz-adv-x="675" d="M27 0l20 186l94 23v543l-35 12q-51 17 -73 53v144l524 67v-819l109 -23v-12q0 -112 -41 -174h-598zM27 1495h452l49 -354q-90 -39 -174 -39z" />
<glyph unicode="&#xed;" horiz-adv-x="675" d="M27 0l20 186l94 23v543l-35 12q-51 17 -73 53v144l524 67v-819l109 -23v-12q0 -112 -41 -174h-598zM176 1141l47 354h455l-330 -393q-86 0 -172 39z" />
<glyph unicode="&#xee;" horiz-adv-x="675" d="M27 0l20 186l94 23v543l-35 12q-51 17 -73 53v144l524 67v-819l109 -23v-12q0 -112 -41 -174h-598zM35 1180l147 315h318l143 -315q-24 -27 -58 -42.5t-63 -15.5l-192 174l-172 -174q-59 0 -123 58z" />
<glyph unicode="&#xef;" horiz-adv-x="675" d="M8 1290q0 88 42 138.5t112 50.5q71 0 111 -50t40 -139q0 -86 -39 -137t-112 -51q-72 0 -113 51.5t-41 136.5zM27 0l20 186l94 23v543l-35 12q-51 17 -73 53v144l524 67v-819l109 -23v-12q0 -112 -41 -174h-598zM365 1290q0 88 42 138.5t113 50.5q70 0 111 -50.5 t41 -138.5q0 -86 -39.5 -137t-112.5 -51q-72 0 -113.5 51.5t-41.5 136.5z" />
<glyph unicode="&#xf0;" horiz-adv-x="1138" d="M39 481q0 129 37.5 233.5t100.5 169.5t141.5 99.5t164.5 34.5h19q-69 105 -90 133l-152 -94q-53 29 -76 108l146 90l-76 93l219 147q74 -55 109 -84l137 86q25 -13 46 -43.5t30 -64.5l-105 -66q220 -193 315 -380.5t95 -418.5q0 -247 -148.5 -395.5t-386.5 -148.5 q-246 0 -386 130t-140 371zM481 494q0 -107 10 -166t28.5 -81t51.5 -22q31 0 47.5 18t26.5 81t10 186q0 154 -37 258q-28 4 -69 4q-20 0 -33.5 -17t-24 -81.5t-10.5 -179.5z" />
<glyph unicode="&#xf1;" horiz-adv-x="1257" d="M27 0l20 186l94 23v543l-35 12q-51 17 -73 53v144l483 67l27 -131h14q85 70 149 95.5t142 25.5q297 0 297 -309v-500l98 -23v-12q0 -109 -43 -174h-530l12 186l47 23v485q-41 17 -84 17q-34 0 -88 -13v-489l53 -23v-12q0 -109 -43 -174h-540zM287 1151q69 178 113 236.5 t108 58.5q39 0 143.5 -39t132.5 -39q25 0 43.5 16.5t57.5 69.5l123 -65q-67 -172 -111 -227.5t-111 -55.5q-39 0 -146 39t-130 39q-24 0 -42.5 -16t-57.5 -70z" />
<glyph unicode="&#xf2;" horiz-adv-x="1157" d="M39 496q0 225 154 373.5t391 148.5q240 0 387 -139.5t147 -376.5q0 -225 -154 -373.5t-391 -148.5q-240 0 -387 139.5t-147 376.5zM184 1495h453l49 -354q-90 -39 -174 -39zM481 500q0 -110 11.5 -170t33.5 -82.5t62 -22.5q36 0 53 18.5t26 77.5t9 179q0 158 -24 215 t-83 57q-36 0 -53 -18.5t-26 -76.5t-9 -177z" />
<glyph unicode="&#xf3;" horiz-adv-x="1157" d="M39 496q0 225 154 373.5t391 148.5q240 0 387 -139.5t147 -376.5q0 -225 -154 -373.5t-391 -148.5q-240 0 -387 139.5t-147 376.5zM481 500q0 -110 11.5 -170t33.5 -82.5t62 -22.5q36 0 53 18.5t26 77.5t9 179q0 158 -24 215t-83 57q-36 0 -53 -18.5t-26 -76.5t-9 -177z M483 1141l47 354h455l-330 -393q-86 0 -172 39z" />
<glyph unicode="&#xf4;" horiz-adv-x="1157" d="M39 496q0 225 154 373.5t391 148.5q240 0 387 -139.5t147 -376.5q0 -225 -154 -373.5t-391 -148.5q-240 0 -387 139.5t-147 376.5zM242 1178l164 317h356l160 -317q-27 -27 -65.5 -42.5t-70.5 -15.5l-215 174l-192 -174q-66 0 -137 58zM481 500q0 -110 11.5 -170 t33.5 -82.5t62 -22.5q36 0 53 18.5t26 77.5t9 179q0 158 -24 215t-83 57q-36 0 -53 -18.5t-26 -76.5t-9 -177z" />
<glyph unicode="&#xf5;" horiz-adv-x="1157" d="M39 496q0 225 154 373.5t391 148.5q240 0 387 -139.5t147 -376.5q0 -225 -154 -373.5t-391 -148.5q-240 0 -387 139.5t-147 376.5zM219 1151q69 178 113 236.5t108 58.5q39 0 144 -39t133 -39q25 0 42.5 16t57.5 70l123 -65q-67 -172 -110.5 -227.5t-110.5 -55.5 q-39 0 -146.5 39t-130.5 39q-24 0 -42.5 -16t-57.5 -70zM481 500q0 -110 11.5 -170t33.5 -82.5t62 -22.5q36 0 53 18.5t26 77.5t9 179q0 158 -24 215t-83 57q-36 0 -53 -18.5t-26 -76.5t-9 -177z" />
<glyph unicode="&#xf6;" horiz-adv-x="1157" d="M39 496q0 225 154 373.5t391 148.5q240 0 387 -139.5t147 -376.5q0 -225 -154 -373.5t-391 -148.5q-240 0 -387 139.5t-147 376.5zM186 1290q0 88 47.5 138.5t126.5 50.5t124.5 -50t45.5 -139q0 -86 -43.5 -137t-126.5 -51q-82 0 -128 51.5t-46 136.5zM481 500 q0 -110 11.5 -170t33.5 -82.5t62 -22.5q36 0 53 18.5t26 77.5t9 179q0 158 -24 215t-83 57q-36 0 -53 -18.5t-26 -76.5t-9 -177zM629 1290q0 88 47.5 138.5t126.5 50.5t124.5 -50t45.5 -139q0 -86 -43.5 -137t-126.5 -51q-82 0 -128 51.5t-46 136.5z" />
<glyph unicode="&#xf7;" d="M152 416v166h864v-166h-864zM408 162q0 88 46.5 137t129.5 49q80 0 128 -49.5t48 -136.5q0 -83 -47 -132.5t-129 -49.5q-86 0 -131 49t-45 133zM408 831q0 88 46.5 137.5t129.5 49.5q80 0 128 -50t48 -137q0 -83 -47 -132.5t-129 -49.5q-86 0 -131 49t-45 133z" />
<glyph unicode="&#xf8;" horiz-adv-x="1157" d="M39 496q0 225 154 373.5t391 148.5q130 0 239 -45l133 211q22 -2 45 -13.5t33 -27.5l-133 -211q103 -66 160 -176t57 -254q0 -225 -154 -373.5t-391 -148.5q-129 0 -241 45l-131 -211q-22 2 -45 13.5t-33 27.5l131 211q-103 65 -159 175.5t-56 254.5zM481 428l174 277 q-21 67 -86 67q-36 0 -53 -18.5t-26 -76.5t-9 -177v-72zM500 293q21 -68 88 -68q36 0 53 18.5t26 77.5t9 179q0 49 -2 69z" />
<glyph unicode="&#xf9;" horiz-adv-x="1261" d="M20 817v144l525 67v-725q31 -16 82 -16q36 0 86 12v489l-82 23v12q0 107 41 174h487l-31 -215v-573l101 -23v-12q0 -109 -43 -174l-443 -20l11 139h-15q-93 -77 -158 -108t-157 -31q-144 0 -219.5 76.5t-75.5 232.5v463l-35 12q-52 17 -74 53zM250 1495h452l50 -354 q-90 -39 -174 -39z" />
<glyph unicode="&#xfa;" horiz-adv-x="1261" d="M20 817v144l525 67v-725q31 -16 82 -16q36 0 86 12v489l-82 23v12q0 107 41 174h487l-31 -215v-573l101 -23v-12q0 -109 -43 -174l-443 -20l11 139h-15q-93 -77 -158 -108t-157 -31q-144 0 -219.5 76.5t-75.5 232.5v463l-35 12q-52 17 -74 53zM489 1141l48 354h454 l-329 -393q-87 0 -173 39z" />
<glyph unicode="&#xfb;" horiz-adv-x="1261" d="M20 817v144l525 67v-725q31 -16 82 -16q36 0 86 12v489l-82 23v12q0 107 41 174h487l-31 -215v-573l101 -23v-12q0 -109 -43 -174l-443 -20l11 139h-15q-93 -77 -158 -108t-157 -31q-144 0 -219.5 76.5t-75.5 232.5v463l-35 12q-52 17 -74 53zM289 1178l164 317h356 l160 -317q-27 -27 -65 -42.5t-70 -15.5l-216 174l-192 -174q-66 0 -137 58z" />
<glyph unicode="&#xfc;" horiz-adv-x="1261" d="M20 817v144l525 67v-725q31 -16 82 -16q36 0 86 12v489l-82 23v12q0 107 41 174h487l-31 -215v-573l101 -23v-12q0 -109 -43 -174l-443 -20l11 139h-15q-93 -77 -158 -108t-157 -31q-144 0 -219.5 76.5t-75.5 232.5v463l-35 12q-52 17 -74 53zM233 1290q0 88 48 138.5 t127 50.5t124.5 -50t45.5 -139q0 -86 -43.5 -137t-126.5 -51q-82 0 -128.5 51.5t-46.5 136.5zM676 1290q0 88 47.5 138.5t126.5 50.5t124.5 -50t45.5 -139q0 -86 -43.5 -137t-126.5 -51q-82 0 -128 51.5t-46 136.5z" />
<glyph unicode="&#xfd;" horiz-adv-x="1028" d="M-8 811v12q0 109 43 174h534l-12 -186l-61 -23l77 -382h15l102 382l-61 23v12q0 107 41 174h393l-19 -186l-57 -23l-381 -1030l76 -22v-12q0 -98 -49 -175q-275 0 -492 45l60 175l114 10l111 237l-119 13l-256 759zM453 1141l47 354h454l-329 -393q-86 0 -172 39z" />
<glyph unicode="&#xfe;" horiz-adv-x="1202" d="M18 -430l17 184l96 23v1442l-35 12q-55 18 -73 53v143l522 68v-557h14q88 80 213 80q77 0 144.5 -26t124 -80.5t89.5 -149.5t33 -221q0 -171 -71.5 -299.5t-194 -195t-276.5 -66.5q-32 0 -76 10v-211l119 -23v-12q0 -107 -41 -174h-605zM545 244q40 -8 88 -8 q15 0 34.5 27.5t36.5 92.5t17 148q0 127 -27.5 178t-81.5 51q-32 0 -67 -14v-475z" />
<glyph unicode="&#xff;" horiz-adv-x="1028" d="M-8 811v12q0 109 43 174h534l-12 -186l-61 -23l77 -382h15l102 382l-61 23v12q0 107 41 174h393l-19 -186l-57 -23l-381 -1030l76 -22v-12q0 -98 -49 -175q-275 0 -492 45l60 175l114 10l111 237l-119 13l-256 759zM168 1290q0 88 47.5 138.5t126.5 50.5t124.5 -50 t45.5 -139q0 -86 -43.5 -137t-126.5 -51q-82 0 -128 51.5t-46 136.5zM610 1290q0 88 47.5 138.5t126.5 50.5t124.5 -50t45.5 -139q0 -86 -43.5 -137t-126.5 -51q-82 0 -128 51.5t-46 136.5z" />
<glyph unicode="&#x152;" horiz-adv-x="2027" d="M39 698q0 170 52 307.5t142.5 227t211.5 137t262 47.5q189 0 317 -88v68h598l305 20v-407q-36 -21 -102 -33t-127 -12h-35l-47 200h-221v-352h409q15 -58 15 -121q0 -60 -15 -121l-184 19h-225v-371l252 23l45 202h34q61 0 126.5 -12t101.5 -33v-399h-930v68 q-131 -88 -332 -88q-135 0 -252.5 47t-207.5 135t-141.5 226t-51.5 310zM530 698q0 -140 12.5 -230.5t40.5 -139t63.5 -66.5t88.5 -18q49 0 79.5 16t56 63t36.5 138.5t11 236.5q0 139 -13 229.5t-40.5 139.5t-63 67.5t-88.5 18.5q-39 0 -65.5 -9.5t-50 -37.5t-37.5 -78 t-22 -132t-8 -198z" />
<glyph unicode="&#x153;" horiz-adv-x="1665" d="M39 500q0 225 144 371.5t378 146.5q207 0 334 -103q122 103 289 103q204 0 324 -106t120 -304q0 -69 -16 -155h-514q0 -74 64 -127.5t188 -53.5q150 0 241 66l15 -172q-123 -186 -420 -186q-178 0 -303 106q-131 -106 -332 -106q-237 0 -374.5 140t-137.5 380zM479 500 q0 -106 12 -165.5t34.5 -81.5t62.5 -22q35 0 52.5 18.5t26.5 76.5t9 174q0 105 -12 163.5t-34.5 80.5t-62.5 22q-35 0 -52.5 -18.5t-26.5 -75.5t-9 -172zM1098 598l168 18v66q0 133 -103 133q-14 0 -26 -4q-9 -3 -17.5 -24.5t-15 -71t-6.5 -117.5z" />
<glyph unicode="&#x178;" horiz-adv-x="1314" d="M12 1196v27q0 110 41 174h649l-16 -201l-117 -22l162 -406h19l163 406l-112 22v27q0 112 41 174h454l-16 -201l-68 -22l-329 -633v-318l121 -22v-27q0 -112 -41 -174h-656l17 201l108 22v318l-338 633zM328 1599q0 67 43.5 107.5t109.5 40.5t111 -40.5t45 -107.5 q0 -65 -45 -107t-111 -42q-65 0 -109 42t-44 107zM731 1599q0 67 44 107.5t110 40.5t110.5 -40.5t44.5 -107.5q0 -65 -45 -107t-110 -42t-109.5 42t-44.5 107z" />
<glyph unicode="&#x2c6;" horiz-adv-x="1024" d="M172 1178l164 317h356l160 -317q-27 -27 -65 -42.5t-70 -15.5l-215 174l-193 -174q-66 0 -137 58z" />
<glyph unicode="&#x2dc;" horiz-adv-x="1024" d="M152 1151q69 178 113 236.5t108 58.5q39 0 143.5 -39t132.5 -39q25 0 43.5 16.5t57.5 69.5l122 -65q-67 -172 -110.5 -227.5t-110.5 -55.5q-39 0 -146 39t-130 39q-24 0 -43 -16.5t-58 -69.5z" />
<glyph unicode="&#x2000;" horiz-adv-x="934" />
<glyph unicode="&#x2001;" horiz-adv-x="1868" />
<glyph unicode="&#x2002;" horiz-adv-x="934" />
<glyph unicode="&#x2003;" horiz-adv-x="1868" />
<glyph unicode="&#x2004;" horiz-adv-x="622" />
<glyph unicode="&#x2005;" horiz-adv-x="467" />
<glyph unicode="&#x2006;" horiz-adv-x="311" />
<glyph unicode="&#x2007;" horiz-adv-x="311" />
<glyph unicode="&#x2008;" horiz-adv-x="233" />
<glyph unicode="&#x2009;" horiz-adv-x="373" />
<glyph unicode="&#x200a;" horiz-adv-x="103" />
<glyph unicode="&#x2010;" horiz-adv-x="686" d="M84 322v352h518v-352h-518z" />
<glyph unicode="&#x2011;" horiz-adv-x="686" d="M84 322v352h518v-352h-518z" />
<glyph unicode="&#x2012;" horiz-adv-x="686" d="M84 322v352h518v-352h-518z" />
<glyph unicode="&#x2013;" horiz-adv-x="1024" d="M68 322v352h888v-352h-888z" />
<glyph unicode="&#x2014;" horiz-adv-x="2048" d="M68 322v352h1912v-352h-1912z" />
<glyph unicode="&#x2018;" horiz-adv-x="538" d="M51 1186l311 315q114 -6 168 -74l-139 -237l84 -57q0 -261 -199 -261q-100 0 -162.5 81.5t-62.5 232.5z" />
<glyph unicode="&#x2019;" horiz-adv-x="538" d="M8 940l139 238l-86 57q0 260 199 260q101 0 163 -80.5t62 -232.5l-311 -316q-112 6 -166 74z" />
<glyph unicode="&#x201a;" horiz-adv-x="538" d="M8 53l139 238l-86 57q0 260 199 260q101 0 163 -80.5t62 -232.5l-311 -315q-113 6 -166 73z" />
<glyph unicode="&#x201c;" horiz-adv-x="1015" d="M51 1186l311 315q114 -6 168 -74l-139 -237l84 -57q0 -261 -199 -261q-100 0 -162.5 81.5t-62.5 232.5zM528 1186l312 315q114 -6 168 -74l-140 -237l84 -57q0 -261 -198 -261q-100 0 -163 81.5t-63 232.5z" />
<glyph unicode="&#x201d;" horiz-adv-x="1015" d="M8 940l139 238l-86 57q0 260 199 260q101 0 163 -80.5t62 -232.5l-311 -316q-112 6 -166 74zM485 940l140 238l-86 57q0 260 198 260q101 0 163.5 -81t62.5 -232l-312 -316q-112 6 -166 74z" />
<glyph unicode="&#x201e;" horiz-adv-x="1015" d="M8 53l139 238l-86 57q0 260 199 260q101 0 163 -80.5t62 -232.5l-311 -315q-113 6 -166 73zM485 55l140 238l-84 57q0 260 198 260q99 0 161.5 -81t62.5 -232l-310 -315q-115 6 -168 73z" />
<glyph unicode="&#x2022;" horiz-adv-x="696" d="M39 496q0 155 81.5 242t227.5 87q142 0 225.5 -87.5t83.5 -241.5q0 -147 -82 -236.5t-227 -89.5q-150 0 -229.5 88.5t-79.5 237.5z" />
<glyph unicode="&#x2026;" horiz-adv-x="1501" d="M43 199q0 104 55.5 163.5t153.5 59.5q94 0 150.5 -60t56.5 -163q0 -99 -55 -159t-152 -60q-101 0 -155 59.5t-54 159.5zM543 199q0 104 55.5 163.5t153.5 59.5q94 0 150 -59.5t56 -163.5q0 -99 -54.5 -159t-151.5 -60q-101 0 -155 59.5t-54 159.5zM1042 199 q0 104 55.5 163.5t153.5 59.5q94 0 150.5 -60t56.5 -163q0 -99 -55 -159t-152 -60q-101 0 -155 59.5t-54 159.5z" />
<glyph unicode="&#x202f;" horiz-adv-x="373" />
<glyph unicode="&#x2039;" horiz-adv-x="567" d="M14 471v68l310 366l229 -20l-135 -373l135 -389l-229 -21z" />
<glyph unicode="&#x203a;" horiz-adv-x="567" d="M14 123l136 373l-136 389l230 20l309 -368v-68l-309 -367z" />
<glyph unicode="&#x205f;" horiz-adv-x="467" />
<glyph unicode="&#x20ac;" d="M39 547q0 42 8 69h98v60q0 59 2 90h-100q-8 27 -8 70q0 42 8 69h119q48 240 200.5 376t407.5 136q178 0 318 -45q0 -55 -12 -136t-29 -132q-68 18 -169.5 32.5t-160.5 14.5q-37 0 -51.5 -7.5t-22.5 -27.5q-31 -82 -43 -211h338q10 -30 10 -67q0 -34 -10 -72h-344 q-2 -25 -2 -74q0 -51 2 -76h344q10 -30 10 -67q0 -34 -10 -72h-334q17 -118 70.5 -171.5t155.5 -53.5q143 0 247 96q23 -109 23 -256q-141 -112 -387 -112q-233 0 -375 127t-182 370h-113q-8 27 -8 70z" />
<glyph unicode="&#x2122;" horiz-adv-x="1853" d="M41 1184v213h514l188 14l-24 -227q-51 -23 -115 -23h-20l-29 103l-35 -2v-433l68 -10v-14q0 -25 -7 -59.5t-16 -49.5h-385l10 123l62 10v422l-41 -4l-27 -86h-32q-70 0 -111 23zM760 696l10 123l61 10l29 435l-67 10v14q0 26 6.5 60.5t15.5 48.5h324l143 -359l141 359 h351l-11 -123l-61 -10l22 -435l68 -10v-14q0 -25 -7 -59.5t-16 -49.5h-364l10 123l62 10l-13 295h-10l-168 -428l-110 -10l-170 438h-11l-22 -295l67 -10v-14q0 -26 -6.5 -60.5t-15.5 -48.5h-258z" />
<glyph unicode="&#xe000;" horiz-adv-x="993" d="M0 0v993h993v-993h-993z" />
</font>
</defs>
</svg>
