<?xml version="1.0" standalone="no"?>
<!DOCTYPE svg PUBLIC "-//W3C//DTD SVG 1.1//EN" "http://www.w3.org/Graphics/SVG/1.1/DTD/svg11.dtd" >
<svg xmlns="http://www.w3.org/2000/svg">
<metadata></metadata>
<defs>
<font id="malaga_otblack_italic" horiz-adv-x="1167" >
<font-face units-per-em="2048" ascent="1638" descent="-410" />
<missing-glyph horiz-adv-x="532" />
<glyph unicode="&#xfb01;" horiz-adv-x="1370" d="M-121 -305l55 278q44 -8 86 -8q46 0 76 12q10 3 10 25q0 6 -8 77.5t-8 139.5q0 89 14 195l50 344l-33 12q-51 17 -64 53l31 174h109l2 11q17 96 57 180.5t101 154.5t150 111t195 41q92 0 156 -39l-53 -278q-50 8 -117 8q-80 0 -127 -12q-8 -3 -8 -21q0 -20 15.5 -79.5 t17.5 -76.5h479l268 21l-133 -713q55 0 117 10l16 -36q-41 -153 -138 -226t-214 -73q-98 0 -151 28.5t-85 93.5l125 654h-301l-82 -529q-40 -261 -163.5 -416t-300.5 -155q-79 0 -144 39zM940 1296q0 89 69.5 144t170.5 55q98 0 148 -46.5t50 -131.5q0 -86 -65.5 -142.5 t-169.5 -56.5q-99 0 -151 48t-52 130z" />
<glyph unicode="&#xfb02;" horiz-adv-x="1368" d="M-121 -305l55 278q44 -8 86 -8q46 0 76 12q10 3 10 25q0 6 -8 77.5t-8 139.5q0 89 14 195l50 344l-33 12q-51 17 -64 53l31 174h109l2 11q17 95 62 180t115 155t175 111t231 41q110 0 246 -31l393 31l-223 -1190q57 0 119 10l16 -36q-41 -153 -138 -226t-214 -73 q-98 0 -151 28.5t-85 93.5l203 1076q-136 14 -225 14q-95 0 -141 -12q-11 -3 -14 -9t-3 -24q0 -24 10 -80t11 -70h174q0 -148 -41 -241h-150l-82 -529q-40 -261 -163.5 -416t-300.5 -155q-79 0 -144 39z" />
<glyph horiz-adv-x="2048" />
<glyph horiz-adv-x="2048" />
<glyph unicode="&#xd;" horiz-adv-x="2048" />
<glyph unicode=" "  horiz-adv-x="532" />
<glyph unicode="&#x09;" horiz-adv-x="532" />
<glyph unicode="&#xa0;" horiz-adv-x="532" />
<glyph unicode="!" horiz-adv-x="686" d="M68 145q0 108 68.5 174t178.5 66q82 0 130.5 -47t48.5 -123q0 -103 -66 -169t-178 -66q-87 0 -134.5 46t-47.5 119zM193 485l43 912q163 20 507 20l-288 -932h-262z" />
<glyph unicode="&#x22;" horiz-adv-x="901" d="M162 954v521h411l-186 -521q-44 -10 -115 -10t-110 10zM604 954v521h412l-187 -521q-44 -10 -116 -10q-73 0 -109 10z" />
<glyph unicode="#" d="M18 260q7 67 39.5 167t63.5 155l196 20l52 135l-195 -20q9 71 41.5 168.5t65.5 152.5l200 23l125 346q93 0 156 -23l-113 -307l193 23l110 307q89 0 156 -23l-98 -268l188 21q-6 -66 -38.5 -167.5t-65.5 -154.5l-197 -22l-51 -134l194 21q-9 -69 -42.5 -170t-63.5 -152 l-201 -22l-125 -346q-94 0 -155 22l112 307l-192 -22l-111 -307q-92 0 -156 22l99 269zM487 621l191 20l47 135l-190 -20z" />
<glyph unicode="$" d="M90 139l39 307q81 35 203 35h33l36 -155q39 -13 93 -13q60 0 86 11q13 4 27 25.5t14 51.5q0 32 -24 58t-63 47t-85.5 43t-93.5 52t-86 67t-63 95t-24 130q0 151 114 262t298 143l100 261q70 0 119 -27l-86 -221h8q53 0 117 -6l98 254q70 0 119 -27l-94 -242 q62 -9 104 -20l-37 -305q-84 -35 -202 -35h-35l-33 145q-30 10 -80 10q-41 0 -65 -8q-11 -4 -23 -25t-12 -51q0 -28 24 -52.5t63 -45t85.5 -43t93 -53.5t85.5 -70t63 -99t24 -134q0 -167 -114.5 -277t-337.5 -133l-103 -264q-70 0 -119 27l90 233q-62 0 -124 6l-103 -266 q-70 0 -119 27l99 256q-72 14 -109 26z" />
<glyph unicode="%" horiz-adv-x="1544" d="M76 999q0 185 108.5 301.5t290.5 116.5q148 0 228.5 -84t80.5 -221q0 -189 -110.5 -303.5t-288.5 -114.5q-146 0 -227.5 84t-81.5 221zM240 20l966 1397q35 0 70.5 -13t56.5 -36l-968 -1397q-31 0 -66.5 12.5t-58.5 36.5zM336 975q0 -56 16.5 -81.5t53.5 -25.5q24 0 45 6 q25 6 49 91.5t24 171.5q0 56 -16 81t-53 25q-24 0 -45 -6q-27 -7 -50.5 -92t-23.5 -170zM793 285q0 185 108.5 301t290.5 116q148 0 228.5 -84t80.5 -221q0 -189 -110.5 -303t-288.5 -114q-146 0 -227.5 84t-81.5 221zM1053 260q0 -56 16 -81t53 -25q24 0 45 6 q25 6 49.5 91.5t24.5 170.5q0 56 -16.5 81t-53.5 25q-24 0 -45 -6q-27 -7 -50 -92t-23 -170z" />
<glyph unicode="&#x26;" horiz-adv-x="1515" d="M-10 336q0 130 77 244.5t263 222.5q-19 51 -19 133q0 88 30.5 170.5t91 153.5t164.5 114t237 43q171 0 273.5 -90.5t102.5 -220.5q0 -96 -48.5 -164.5t-127.5 -95.5q-103 0 -153 38t-50 101q0 57 37 95t117 44v9q0 43 -38.5 65.5t-98.5 22.5q-36 0 -60 -7q-7 -1 -22 -23 t-30 -70t-15 -103q0 -87 38 -173t136 -218l115 -152q46 49 98 131l-92 23l2 12q22 110 74 174h424l-56 -186l-65 -23q-139 -189 -252 -307l180 -246q-44 -35 -131 -63t-152 -31q-18 14 -52 41.5t-59.5 48.5t-45.5 39q-183 -108 -398 -108q-226 0 -360.5 91.5t-134.5 264.5z M391 401q0 -86 52 -145t145 -59q82 0 139 34q-79 72 -163 167.5t-134 162.5q-39 -80 -39 -160z" />
<glyph unicode="'" horiz-adv-x="458" d="M162 954v521h411l-186 -521q-44 -10 -115 -10t-110 10z" />
<glyph unicode="(" horiz-adv-x="634" d="M25 268q0 142 18.5 279t55 268t97 242.5t139 198.5t186 141t233.5 65q19 -38 31 -88.5t12 -89.5q-86 -14 -157 -98.5t-117 -208t-77.5 -278.5t-45 -304t-13.5 -289q0 -76 11 -127t34 -80t47 -43t62 -26q-25 -99 -80 -166q-216 22 -326 176.5t-110 427.5z" />
<glyph unicode=")" horiz-adv-x="634" d="M-145 -158q86 14 157 98.5t116.5 208t77 278.5t45 304t13.5 289q0 76 -10.5 127t-33.5 80t-47 43t-62 26q26 101 79 166q216 -22 326.5 -177t110.5 -427q0 -142 -18.5 -279t-55 -268t-97 -242.5t-139 -198.5t-186 -141t-233.5 -65q-19 38 -31 88.5t-12 89.5z" />
<glyph unicode="*" horiz-adv-x="786" d="M111 1075q18 88 56 169.5t91 137.5l158 -120q-17 136 -25 206q74 27 164 27q95 0 156 -27l-93 -204l197 116q51 -85 51 -206q0 -51 -10 -99l-209 -8l141 -143q-50 -60 -129 -110t-153 -71l-45 203l-105 -203q-66 20 -129 74.5t-92 116.5l182 131z" />
<glyph unicode="+" d="M143 322v352h265v291h352v-291h264v-352h-264v-291h-352v291h-265z" />
<glyph unicode="," horiz-adv-x="501" d="M-113 -301l181 326l-86 36q6 132 63 206.5t166 74.5q91 0 148 -59.5t57 -171.5q0 -46 -8 -82l-390 -406q-79 5 -131 76z" />
<glyph unicode="-" horiz-adv-x="686" d="M43 322l63 352h519l-64 -352h-518z" />
<glyph unicode="." horiz-adv-x="501" d="M-8 162q0 118 68.5 189t177.5 71q83 0 132.5 -50.5t49.5 -133.5q0 -114 -67 -186t-179 -72q-88 0 -135 50.5t-47 131.5z" />
<glyph unicode="/" horiz-adv-x="794" d="M-123 -39l797 1555q64 0 137 -24.5t102 -55.5l-796 -1555q-66 0 -138 24.5t-102 55.5z" />
<glyph unicode="0" horiz-adv-x="1224" d="M59 473q0 137 45 257.5t125.5 209.5t200 141t262.5 52q144 0 252 -65t163.5 -176.5t55.5 -252.5q0 -185 -76.5 -334t-222 -237t-334.5 -88q-215 0 -343 139t-128 354zM391 522q0 -91 56 -141.5t151 -50.5q62 0 123 18q34 11 72 74.5t38 167.5q0 95 -58 143.5t-148 48.5 q-65 0 -123 -18q-34 -11 -72.5 -74.5t-38.5 -167.5z" />
<glyph unicode="1" horiz-adv-x="796" d="M-96 0l49 197l176 22l117 658l-68 16q-66 15 -84 57l33 162h612l-159 -893l170 -22l-7 -33q-19 -106 -69 -164h-770z" />
<glyph unicode="2" horiz-adv-x="1021" d="M-57 223q176 100 275.5 162.5t158 113.5t75.5 86.5t17 82.5q0 64 -45.5 105.5t-122.5 41.5q-95 0 -156 -55l-75 112q148 261 450 261q190 0 306 -95t116 -250q0 -121 -70.5 -202t-240.5 -158v-20h287q-1 -220 -49 -324t-132 -104q-72 0 -186 12l-391 43l-92 -53 q-49 37 -81.5 101.5t-43.5 139.5z" />
<glyph unicode="3" horiz-adv-x="983" d="M-102 -82q268 47 376.5 100.5t108.5 135.5q0 72 -43 103.5t-139 31.5h-160l47 252h164q219 0 219 145q0 67 -40 102t-114 35q-103 0 -172 -63l-75 112q75 131 185 196t269 65q187 0 302.5 -99t115.5 -250q0 -126 -76.5 -211t-199.5 -114v-21q83 -34 131.5 -103.5 t48.5 -168.5q0 -210 -235 -337.5t-687 -133.5q-26 71 -26 223z" />
<glyph unicode="4" horiz-adv-x="1062" d="M-25 0l72 410l457 723q219 0 325 -46l-495 -786h201l57 322h399l-53 -289h92l-12 -76q-28 -173 -76 -258h-63l-52 -285h-450l51 285h-453z" />
<glyph unicode="5" horiz-adv-x="978" d="M-98 -82q479 63 479 225q0 40 -22 69.5t-66.5 49.5t-101 32.5t-136.5 22.5l146 795h796q0 -95 -12.5 -167t-33.5 -117t-52.5 -73t-66 -39t-76.5 -11q-115 0 -334 32l-68 -157q502 -81 502 -402q0 -122 -65 -213.5t-188 -149t-291 -87.5t-384 -33q-26 71 -26 223z" />
<glyph unicode="6" horiz-adv-x="1069" d="M45 446q0 334 259 595t712 376q31 -42 56 -105.5t34 -125.5q-254 -103 -378.5 -192t-170.5 -183h16q62 35 144 35q123 0 214 -91t91 -257q0 -165 -69.5 -284t-183 -176.5t-255.5 -57.5q-211 0 -340 124t-129 342zM434 344q0 -121 86 -121q23 0 39 4q8 2 22.5 34t28 93.5 t13.5 126.5q0 127 -86 127q-30 0 -50 -10q-21 -40 -37 -119.5t-16 -134.5z" />
<glyph unicode="7" horiz-adv-x="997" d="M-31 -236l674 975q-289 -34 -434 -34q-76 0 -117 47t-41 137t47 223h951l-66 -377l-707 -1050q-179 0 -307 79z" />
<glyph unicode="8" horiz-adv-x="1034" d="M-12 281q0 186 180 292l96 58q-155 126 -155 315q0 206 152 338.5t394 132.5q110 0 194.5 -24.5t133.5 -66.5t73.5 -94t24.5 -112q0 -91 -42 -158.5t-140 -130.5l-92 -59q162 -123 162 -332q0 -96 -35 -178.5t-102 -146t-173 -99.5t-239 -36q-213 0 -322.5 84t-109.5 217 zM358 330q0 -53 28 -81t75 -28q30 0 57 8q15 4 29 35.5t14 81.5q0 60 -24 92t-93 78q-39 -36 -62.5 -86t-23.5 -100zM516 1047q0 -53 24 -87t87 -73q88 67 88 174q0 55 -29.5 84t-77.5 29q-20 0 -43 -5q-18 -4 -33.5 -35.5t-15.5 -86.5z" />
<glyph unicode="9" horiz-adv-x="1069" d="M-37 -74q254 103 378.5 192t170.5 183h-16q-62 -35 -144 -35q-123 0 -214 91t-91 257q0 124 40 224t109.5 163.5t161 97.5t197.5 34q211 0 340 -124.5t129 -342.5q0 -334 -259 -595t-712 -376q-31 42 -56 105.5t-34 125.5zM446 631q0 -127 86 -127q30 0 50 10 q21 40 37 119.5t16 134.5q0 121 -86 121q-23 0 -39 -4q-8 -2 -22.5 -34t-28 -93.5t-13.5 -126.5z" />
<glyph unicode=":" horiz-adv-x="561" d="M-10 162q0 118 68.5 189t177.5 71q83 0 132.5 -50.5t49.5 -133.5q0 -114 -67 -186t-179 -72q-88 0 -135 50.5t-47 131.5zM92 758q0 118 68.5 189t177.5 71q83 0 132.5 -50.5t49.5 -133.5q0 -114 -67 -186.5t-179 -72.5q-88 0 -135 51t-47 132z" />
<glyph unicode=";" horiz-adv-x="561" d="M-119 -301l180 326l-86 36q6 132 63.5 206.5t166.5 74.5q91 0 148 -59.5t57 -171.5q0 -41 -9 -82l-389 -406q-79 5 -131 76zM92 758q0 118 68.5 189t177.5 71q83 0 132.5 -50.5t49.5 -133.5q0 -114 -67 -186.5t-179 -72.5q-88 0 -135 51t-47 132z" />
<glyph unicode="&#x3c;" d="M90 502l498 463h489l-497 -463l495 -471h-489z" />
<glyph unicode="=" d="M158 80v352h850v-352h-850zM158 565v353h850v-353h-850z" />
<glyph unicode="&#x3e;" d="M90 31l498 463l-496 471h490l495 -471l-497 -463h-490z" />
<glyph unicode="?" horiz-adv-x="985" d="M131 145q0 108 69 174t177 66q82 0 131 -47t49 -123q0 -103 -66 -169t-178 -66q-88 0 -135 46t-47 119zM141 1147q163 270 473 270q189 0 288 -93t99 -245q0 -160 -113.5 -262.5t-330.5 -122.5l-84 -215h-168l-155 189q8 28 31.5 67.5t49.5 63.5q141 3 221 52t80 132 q0 60 -37 100.5t-104 40.5q-97 0 -158 -61z" />
<glyph unicode="@" horiz-adv-x="1779" d="M31 264q0 165 40.5 313.5t112.5 263t169.5 207t212 152t240 91.5t253.5 32q203 0 357.5 -74t243.5 -220.5t89 -348.5q0 -154 -47.5 -283.5t-128 -215.5t-185 -133.5t-219.5 -47.5q-190 0 -278 115h-25q-118 -115 -239 -115q-105 0 -166.5 73t-61.5 197q0 113 30 217 t81 182.5t116 137t137 89t142 30.5q73 0 129 -29.5t78 -69.5l123 93q40 0 89 -12t77 -31l-240 -615q17 -20 64 -20q105 0 191.5 116t86.5 304q0 197 -109.5 306t-334.5 109q-102 0 -200 -26.5t-183.5 -75.5t-158 -120.5t-123.5 -158.5t-80 -193.5t-29 -221.5 q0 -221 112 -328t305 -107q131 0 267 56l-54 -221q-115 -80 -278 -80q-131 0 -243 46.5t-192 131.5t-125.5 210t-45.5 275zM739 301q0 -70 45 -70q26 0 56 15l166 432q-42 14 -86 14q-18 0 -48.5 -38.5t-60 -95t-51 -128t-21.5 -129.5z" />
<glyph unicode="A" horiz-adv-x="1396" d="M-123 0l45 201l72 22l639 1174l459 20l190 -1194l76 -22l-6 -33q-20 -112 -68 -168h-649l45 201l145 22l-34 256l-369 -28l-113 -228l144 -22l-7 -33q-21 -114 -67 -168h-502zM528 668h236l-43 350h-19z" />
<glyph unicode="B" horiz-adv-x="1331" d="M-49 0l45 201l106 22l170 951l-114 22l6 33q21 114 67 168h629q455 0 455 -336q0 -132 -80 -220.5t-199 -111.5v-20q217 -77 217 -295q0 -193 -154.5 -303.5t-475.5 -110.5h-672zM549 227l135 -8q47 20 86 87t39 155q0 68 -31.5 102.5t-89.5 34.5h-72zM653 801l142 14 q34 28 60 92.5t26 132.5q0 129 -105 129h-57z" />
<glyph unicode="C" horiz-adv-x="1273" d="M59 604q0 186 58.5 339t163 257t250 160.5t317.5 56.5q219 0 418 -61l-37 -410q-85 -45 -215 -45h-31l-47 236q-32 13 -81 21.5t-83 8.5q-19 0 -35 -2q-14 -2 -37.5 -25t-52 -72t-53.5 -114.5t-42 -163.5t-17 -208q0 -342 219 -342q35 0 73 6l78 241h35q58 0 118 -12.5 t93 -32.5l-25 -364q-72 -46 -192 -72t-217 -26q-308 0 -483 166.5t-175 457.5z" />
<glyph unicode="D" horiz-adv-x="1472" d="M-49 0l45 201l106 22l170 951l-114 22l6 33q21 114 67 168h582q149 0 266 -34.5t202.5 -104.5t131 -181.5t45.5 -259.5q0 -180 -60 -330.5t-172 -258.5t-279.5 -168t-375.5 -60h-620zM555 238l174 -9q87 33 170.5 226t83.5 432q0 272 -205 272h-57z" />
<glyph unicode="E" horiz-adv-x="1259" d="M-49 0l45 201l106 22l170 951l-114 22l6 33q21 113 67 168h732l301 20l-37 -407q-85 -45 -215 -45h-31l-47 200h-213l-62 -352h406q0 -144 -41 -242l-182 19h-224l-65 -371l258 25l78 200h35q58 0 118 -12.5t93 -32.5l-29 -399h-1155z" />
<glyph unicode="F" horiz-adv-x="1191" d="M-49 0l45 201l106 22l170 951l-114 22l6 33q21 114 67 168h727l302 20l-37 -407q-85 -45 -215 -45h-31l-47 200h-209l-66 -374h408q0 -143 -41 -242l-184 18h-224l-61 -344l127 -22l-6 -33q-20 -112 -68 -168h-655z" />
<glyph unicode="G" horiz-adv-x="1386" d="M59 604q0 372 220.5 592.5t592.5 220.5q229 0 461 -61l-35 -387q-82 -45 -217 -45h-28l-49 213q-35 12 -91 21t-96 9q-49 0 -67 -2q-16 -1 -41 -24t-55.5 -72t-57 -114.5t-44 -163.5t-17.5 -207q0 -344 219 -344q14 0 24 2l45 254l-92 22l6 33q21 110 70 168h575 l-47 -201l-88 -22l-90 -496l-47 -20l-152 45q-106 -45 -258 -45q-131 0 -246 40.5t-204 117t-140 197t-51 269.5z" />
<glyph unicode="H" horiz-adv-x="1566" d="M-49 0l45 201l106 22l170 951l-114 22l6 33q21 114 67 168h635l-47 -201l-96 -22l-61 -343h342l61 343l-102 22l4 33q20 111 69 168h633l-45 -201l-108 -22l-170 -951l114 -22l-6 -33q-20 -112 -68 -168h-632l45 201l96 22l66 361h-345l-63 -361l104 -22l-6 -33 q-20 -111 -69 -168h-631z" />
<glyph unicode="I" horiz-adv-x="774" d="M-49 0l45 201l106 22l170 951l-114 22l6 33q21 114 67 168h646l-46 -201l-108 -22l-170 -951l115 -22l-6 -33q-20 -112 -68 -168h-643z" />
<glyph unicode="J" horiz-adv-x="763" d="M-113 -354l179 336l210 1192l-114 22l6 33q16 107 68 168h645l-45 -201l-109 -22l-182 -1031q-18 -101 -60 -174.5t-129 -148.5l-313 -271q-48 0 -91 27.5t-65 69.5z" />
<glyph unicode="K" horiz-adv-x="1421" d="M-49 0l45 201l106 22l170 951l-114 22l6 33q16 109 67 168h635l-45 -201l-98 -22l-74 -414h19l407 414l-117 22l7 33q21 114 67 168h537l-47 -201l-90 -22l-373 -322l282 -754q-49 -54 -151 -94.5t-180 -42.5l-324 565l-94 -82l-39 -221l104 -22l-6 -33 q-19 -112 -67 -168h-633z" />
<glyph unicode="L" horiz-adv-x="1163" d="M-49 0l45 201l106 22l170 951l-114 22l6 33q21 114 67 168h652l-45 -201l-115 -22l-170 -947l211 25l78 221h32q61 0 126 -12.5t96 -32.5l-35 -428h-1110z" />
<glyph unicode="M" horiz-adv-x="1921" d="M-72 0l45 201l109 22l221 951l-125 22l6 33q20 112 68 168h579l166 -744l402 744h602l-45 -201l-109 -22l-127 -951l115 -22l-6 -33q-20 -112 -68 -168h-622l45 201l123 22l94 645h-19l-489 -868l-203 -20l-170 888h-18l-148 -645l131 -22l-6 -33q-21 -114 -67 -168h-484 z" />
<glyph unicode="N" horiz-adv-x="1523" d="M-49 0l45 201l104 22l191 951l-115 22l6 33q20 112 68 168h487l361 -713h18l84 490l-131 22l6 33q20 112 68 168h493l-45 -201l-98 -22l-227 -1174l-267 -20l-473 874h-18l-111 -631l129 -22l-6 -33q-20 -109 -67 -168h-502z" />
<glyph unicode="O" horiz-adv-x="1458" d="M59 606q0 180 59.5 332.5t163.5 257t247 163t307 58.5q283 0 445.5 -163t162.5 -463q0 -181 -60 -334.5t-164 -257t-245.5 -161.5t-302.5 -58q-285 0 -449 162.5t-164 463.5zM535 496q0 -136 49 -194t127 -58q39 0 73 10q13 4 34.5 31.5t47.5 84t49 129.5t38.5 179.5 t15.5 222.5q0 136 -49 194t-127 58q-38 0 -74 -10q-13 -4 -34 -31.5t-47.5 -84t-49 -129.5t-38 -179.5t-15.5 -222.5z" />
<glyph unicode="P" horiz-adv-x="1302" d="M-49 0l45 201l106 22l170 951l-114 22l6 33q21 114 67 168h600q249 0 375.5 -92.5t126.5 -300.5q0 -213 -153.5 -335.5t-438.5 -144.5l-137 -10l-51 -291l127 -22l-6 -33q-20 -112 -68 -168h-655zM643 727l133 8q52 24 88.5 103.5t36.5 181.5q0 149 -108 149h-70z" />
<glyph unicode="Q" horiz-adv-x="1458" d="M31 -47q0 72 13.5 148.5t35.5 123.5q28 22 97.5 38t125.5 16q131 0 277 -60q198 66 296.5 227t98.5 390q0 158 -64 238.5t-184 80.5q-41 0 -57 -4q-41 -6 -95.5 -125t-54.5 -266q0 -152 107 -152q69 0 114 51q13 -24 23 -83t10 -117q-45 -61 -121.5 -94t-163.5 -33 q-184 0 -287.5 103t-103.5 296q0 196 100 354t268 245t368 87q191 0 330.5 -78t209.5 -211.5t70 -304.5q0 -250 -143 -439.5t-429 -291.5v-10l428 -195q-22 -70 -60.5 -131t-76.5 -86l-735 248q-83 -14 -180 -14q-59 0 -128 14.5t-89 34.5z" />
<glyph unicode="R" horiz-adv-x="1351" d="M-49 0l45 201l106 22l170 951l-114 22l6 33q21 114 67 168h629q246 0 371 -94.5t125 -280.5q0 -138 -68.5 -242.5t-179.5 -136.5l192 -545q-51 -55 -152 -95t-179 -42l-301 557l-66 -6l-53 -289l104 -22l-6 -33q-23 -116 -67 -168h-629zM639 723l145 8q53 21 90 103 t37 186q0 82 -30 115.5t-86 33.5h-76z" />
<glyph unicode="S" horiz-adv-x="1132" d="M18 49l31 352q82 45 209 45h35l59 -190q50 -29 131 -29q61 0 105 15q12 3 23.5 28.5t11.5 59.5q0 44 -27.5 81.5t-72 67.5t-98 60t-107 66.5t-98 79.5t-72 106.5t-27.5 140.5q0 211 171.5 348t452.5 137q225 0 400 -53l-31 -336q-82 -45 -211 -45h-33l-61 164 q-46 22 -117 22q-60 0 -94 -12q-9 -3 -19 -30t-10 -54q0 -35 27.5 -67.5t71.5 -60t97.5 -57.5t107 -69t97.5 -85t71.5 -113.5t27.5 -147.5q0 -154 -79.5 -266.5t-218 -169.5t-320.5 -57q-246 0 -433 69z" />
<glyph unicode="T" horiz-adv-x="1325" d="M137 1014l37 383h911l332 20l-49 -403q-82 -45 -211 -45h-35l-43 211l-80 -4l-170 -953l115 -22l-6 -33q-19 -107 -68 -168h-643l45 201l107 22l166 926l-90 -4l-74 -176h-33q-58 0 -118.5 12.5t-92.5 32.5z" />
<glyph unicode="U" horiz-adv-x="1435" d="M106 385q0 66 11 125l119 664l-93 22l7 33q21 114 67 168h623l-45 -201l-109 -22l-129 -723q-6 -30 -6 -56q0 -66 52 -99.5t151 -33.5q207 0 235 156l135 756l-114 22l6 33q21 114 67 168h465l-45 -201l-88 -22l-123 -693q-43 -249 -186.5 -375t-427.5 -126 q-297 0 -434.5 102.5t-137.5 302.5z" />
<glyph unicode="V" horiz-adv-x="1406" d="M106 1196l7 33q21 114 67 168h643l-45 -201l-119 -22l84 -695h19l336 695l-109 22l6 33q20 112 68 168h491l-45 -201l-86 -22l-630 -1174l-416 -20l-197 1194z" />
<glyph unicode="W" horiz-adv-x="2162" d="M123 1196l6 33q20 112 68 168h612l-45 -201l-109 -22l45 -711h19l299 711l-103 22l7 33q21 114 67 168h647l-45 -201l-106 -22l45 -711h18l299 711l-102 22l6 33q20 112 68 168h473l-45 -201l-86 -22l-578 -1170l-414 -24l-61 774h-18l-324 -750l-416 -24l-153 1194z" />
<glyph unicode="X" horiz-adv-x="1454" d="M-68 0l45 201l82 22l428 482l-251 469l-78 22l6 33q21 114 67 168h660l-45 -201l-94 -22l137 -295l194 295l-100 22l6 33q22 114 68 168h487l-45 -201l-86 -22l-397 -482l262 -469l78 -22l-6 -33q-20 -112 -68 -168h-670l45 201l105 22l-148 295l-225 -295l109 -22 l-6 -33q-20 -112 -68 -168h-492z" />
<glyph unicode="Y" horiz-adv-x="1286" d="M106 1196l7 33q22 112 67 168h641l-45 -201l-119 -22l88 -406h19l235 406l-108 22l6 33q20 112 68 168h467l-46 -201l-81 -22l-441 -633l-57 -318l115 -22l-7 -33q-18 -108 -67 -168h-643l45 201l106 22l58 318l-228 633z" />
<glyph unicode="Z" horiz-adv-x="1300" d="M-25 0l35 213l727 952h-248l-92 -241h-32q-61 0 -119.5 12t-91.5 33l51 448l321 -20h807l-35 -213l-796 -965l332 25l79 229h35q58 0 118 -12.5t93 -32.5l-33 -428h-1151z" />
<glyph unicode="[" horiz-adv-x="722" d="M-18 -291l297 1708h577l-51 -219l-176 -10l-221 -1249l188 -11l-49 -219h-565z" />
<glyph unicode="\" horiz-adv-x="794" d="M141 1440q43 33 118 51t130 18l260 -1552q-39 -35 -114.5 -52.5t-133.5 -17.5z" />
<glyph unicode="]" horiz-adv-x="722" d="M-143 -291l51 219l176 11l221 1249l-188 10l49 219h565l-297 -1708h-577z" />
<glyph unicode="^" horiz-adv-x="1003" d="M12 502l432 741h338l172 -741q-22 -15 -73.5 -26t-98.5 -11l-231 422l-369 -422q-50 0 -100 11t-70 26z" />
<glyph unicode="_" horiz-adv-x="1024" d="M-125 -86h1024v-344h-1024v344z" />
<glyph unicode="`" horiz-adv-x="1024" d="M287 1495h463l-33 -354q-93 -39 -193 -39z" />
<glyph unicode="a" horiz-adv-x="1173" d="M31 362q0 158 40 285.5t106.5 207t148.5 121.5t170 42q132 0 225 -96l63 82q44 6 111 6q144 0 238 -23l-132 -682q77 0 117 10l17 -36q-31 -130 -124.5 -214.5t-228.5 -84.5q-142 0 -178 133h-12q-67 -78 -127.5 -105.5t-132.5 -27.5q-130 0 -215.5 100.5t-85.5 281.5z M444 346q0 -61 18 -85.5t58 -24.5q35 0 66 14l90 500q-54 16 -113 16q-18 0 -45 -52t-50.5 -154t-23.5 -214z" />
<glyph unicode="b" horiz-adv-x="1153" d="M25 53l211 1176l-33 26q-44 38 -62 80l23 119l534 41l-100 -567h12q98 90 213 90q136 0 217.5 -101.5t81.5 -283.5q0 -151 -36.5 -276t-99 -206.5t-145 -126t-175.5 -44.5q-154 0 -256 79l-91 -71q-70 0 -151 16.5t-143 48.5zM477 250q59 -19 105 -19q18 0 47 54.5 t53.5 153t24.5 196.5q0 64 -17.5 87t-56.5 23q-42 0 -72 -20z" />
<glyph unicode="c" horiz-adv-x="829" d="M31 403q0 270 151 442.5t400 172.5q136 0 252 -35q-3 -129 -54 -291q-57 0 -133.5 14.5t-93.5 14.5q-9 0 -22 -9.5t-28 -30.5t-28 -50t-22 -73t-9 -95q0 -195 140 -195q21 0 41.5 8t113.5 50l29 -138q-159 -208 -371 -208q-165 0 -265.5 110.5t-100.5 312.5z" />
<glyph unicode="d" horiz-adv-x="1187" d="M31 362q0 158 39.5 285.5t105.5 207t148 121.5t170 42q62 0 115 -16t114 -62l55 289l-30 26q-45 37 -64 80l23 119l534 41l-223 -1190q77 0 117 10l16 -36q-33 -130 -125 -214.5t-227 -84.5q-146 0 -189 133h-12q-69 -78 -130 -105.5t-136 -27.5q-133 0 -217 103.5 t-84 278.5zM444 346q0 -62 18 -86t58 -24t72 14l94 500q-66 16 -123 16q-18 0 -45 -52t-50.5 -154t-23.5 -214z" />
<glyph unicode="e" horiz-adv-x="1021" d="M31 401q0 276 154.5 446.5t402.5 170.5q195 0 299 -100.5t104 -280.5q0 -53 -12 -123l-537 -76v-20q0 -76 50.5 -121t142.5 -45q22 0 63.5 14.5t186.5 75.5l28 -137q-190 -225 -448 -225q-196 0 -315 111.5t-119 309.5zM449 594l182 51q2 20 2 68q0 66 -16 91t-62 25 q-26 0 -33.5 -3.5t-19.5 -22.5q-43 -67 -53 -209z" />
<glyph unicode="f" horiz-adv-x="743" d="M-121 -305l55 278q44 -8 86 -8q46 0 76 12q10 3 10 25q0 6 -8 77.5t-8 139.5q0 89 14 195l50 344l-33 12q-51 17 -64 53l31 174h109l2 11q17 96 57 180.5t101 154.5t150 111t195 41q109 0 179 -39l-54 -278q-55 8 -139 8q-80 0 -127 -12q-8 -3 -8 -21q0 -20 15.5 -79.5 t17.5 -76.5h192q0 -62 -11.5 -130.5t-29.5 -110.5h-168l-82 -529q-40 -261 -163.5 -416t-300.5 -155q-79 0 -144 39z" />
<glyph unicode="g" horiz-adv-x="1007" d="M-123 -272q0 68 51.5 120.5t194.5 124.5v17q-60 60 -60 119q0 67 49 116.5t175 91.5q-125 30 -186.5 107t-61.5 186q0 191 135 299.5t344 108.5q125 0 207 -21h336l-33 -200q-44 -47 -102 -47v-13q16 -29 16 -84q0 -118 -66.5 -202.5t-168.5 -123t-224 -38.5q-28 0 -53 2 q-31 -22 -31 -47q0 -9 4 -17l203 -16q165 -13 245.5 -82t80.5 -195q0 -171 -181 -278t-479 -107q-395 0 -395 179zM201 -172q0 -30 39.5 -43.5t138.5 -13.5q116 0 190 16q9 13 9 27q0 23 -18 37t-71 20l-235 25q-53 -30 -53 -68zM414 580q0 -91 61 -91q21 0 31 5 q19 7 42 77.5t23 157.5q0 88 -57 88q-19 0 -33 -4q-21 -5 -44 -75.5t-23 -157.5z" />
<glyph unicode="h" horiz-adv-x="1222" d="M16 8l217 1221l-32 26q-42 35 -62 80l23 119l534 41l-104 -596h12q82 67 139 93t127 26q126 0 198.5 -61t72.5 -173q0 -39 -8 -75l-78 -404q58 0 116 10l17 -36q-40 -153 -137 -226t-213 -73q-99 0 -151.5 28.5t-84.5 93.5l113 592q-31 17 -68 17q-42 0 -92 -23 l-121 -674q-81 -24 -211 -24q-127 0 -207 18z" />
<glyph unicode="i" horiz-adv-x="661" d="M37 102l125 650l-31 26q-44 36 -63 80l22 119l535 41l-133 -713q54 0 116 10l17 -36q-41 -153 -138.5 -226t-214.5 -73q-97 0 -150 28.5t-85 93.5zM231 1296q0 89 69.5 144t170.5 55q98 0 148.5 -46.5t50.5 -131.5q0 -87 -66.5 -143t-171.5 -56q-99 0 -150 48t-51 130z " />
<glyph unicode="j" horiz-adv-x="641" d="M-129 -379l156 361l135 770l-31 26q-44 36 -63 80l22 119l537 41l-156 -871q-22 -126 -58.5 -198t-117.5 -144l-291 -256q-91 11 -133 72zM231 1296q0 89 69.5 144t170.5 55q98 0 148.5 -46.5t50.5 -131.5q0 -87 -66.5 -143t-171.5 -56q-99 0 -150 48t-51 130z" />
<glyph unicode="k" horiz-adv-x="1138" d="M16 8l217 1221l-32 26q-42 35 -62 80l23 119l534 41l-176 -997h15q99 76 147.5 122t75.5 87q-49 110 -60 219v49q80 43 197 43q126 0 182 -43t56 -125q0 -35 -8.5 -64t-33 -65.5t-75 -77.5t-129.5 -88l84 -250q62 0 110 10l17 -36q-28 -136 -116.5 -217.5t-186.5 -81.5 q-62 0 -97.5 15.5t-66.5 51.5l-90 301l-56 -43l-51 -291q-79 -24 -209 -24q-121 0 -209 18z" />
<glyph unicode="l" horiz-adv-x="651" d="M29 102l213 1127l-33 26q-42 35 -62 80l23 119l535 41l-224 -1190q61 0 119 10l16 -36q-40 -153 -137 -226t-215 -73q-97 0 -150 28.5t-85 93.5z" />
<glyph unicode="m" horiz-adv-x="1767" d="M29 8l131 744l-31 26q-44 36 -63 80l24 119l500 41l-21 -139h13q100 83 161 111t144 28q170 0 235 -139q99 82 162 110.5t143 28.5q119 0 189 -62t70 -174q0 -28 -9 -73l-75 -404q54 0 116 10l17 -36q-39 -151 -137 -225t-216 -74q-99 0 -151 28.5t-82 93.5l113 592 q-27 17 -62 17q-34 0 -82 -23l-121 -674q-88 -26 -209 -26q-120 0 -208 20l129 686q-24 17 -60 17q-38 0 -82 -23l-121 -674q-81 -24 -208 -24q-120 0 -209 18z" />
<glyph unicode="n" horiz-adv-x="1228" d="M29 8l131 744l-31 26q-44 36 -63 80l24 119l500 41l-21 -139h13q97 79 159 109t136 30q126 0 198 -60.5t72 -173.5q0 -31 -8 -75l-78 -404q59 0 117 10l16 -36q-20 -79 -58 -138.5t-86 -93.5t-99.5 -50.5t-106.5 -16.5q-99 0 -151.5 28.5t-84.5 93.5l113 592 q-31 17 -66 17q-41 0 -88 -23l-121 -674q-81 -24 -210 -24q-128 0 -207 18z" />
<glyph unicode="o" horiz-adv-x="1103" d="M31 432q0 265 157.5 425.5t417.5 160.5q217 0 342 -124t125 -329q0 -265 -157.5 -425t-417.5 -160q-217 0 -342 123.5t-125 328.5zM444 356q0 -131 84 -131q21 0 37 4q15 4 37 62t39.5 157t17.5 195q0 129 -84 129q-20 0 -36 -4q-15 -4 -37 -61.5t-40 -156t-18 -194.5z " />
<glyph unicode="p" horiz-adv-x="1165" d="M-43 -420l203 1172l-29 26q-44 36 -63 80l22 119l502 41l-17 -123h13q106 123 239 123q135 0 221.5 -100.5t86.5 -284.5q0 -149 -37.5 -274t-100.5 -207t-143.5 -127t-167.5 -45q-135 0 -233 57l-80 -451q-91 -26 -211 -26q-103 0 -205 20zM489 250q59 -19 105 -19 q18 0 47 52.5t53.5 150.5t24.5 201q0 64 -18 87t-58 23q-42 0 -72 -20z" />
<glyph unicode="q" horiz-adv-x="1163" d="M31 362q0 156 39 283t104.5 207t147.5 123t172 43q67 0 122.5 -20t112.5 -76l66 82q44 6 110 6q144 0 238 -23l-248 -1401q-85 -26 -209 -26q-111 0 -209 20l88 492h-12q-54 -50 -100 -71t-121 -21q-139 0 -220 108.5t-81 273.5zM444 346q0 -66 17.5 -91.5t56.5 -25.5 q46 0 78 21l88 500q-62 16 -121 16q-18 0 -45 -52t-50.5 -154t-23.5 -214z" />
<glyph unicode="r" horiz-adv-x="868" d="M29 8l131 744l-31 26q-44 36 -63 80l24 119l500 41l-29 -199h12q45 68 75 106.5t58.5 59.5t51.5 27t59 6q41 0 76 -14l-55 -400q-124 -26 -291 -26l-101 -564q-81 -24 -208 -24q-126 0 -209 18z" />
<glyph unicode="s" horiz-adv-x="811" d="M-2 29q4 161 43 280q49 -30 111.5 -45.5t113.5 -15.5q23 0 35 4q5 2 9.5 18t4.5 31q0 21 -26 42.5t-63.5 45.5t-75 55t-63.5 83t-26 118q0 73 32 140t90.5 119t150.5 83t203 31q130 0 256 -29q-3 -133 -48 -280q-42 18 -100.5 29.5t-97.5 11.5q-22 0 -37 -5 q-5 -2 -9.5 -17t-4.5 -30q0 -13 19 -29t47 -32.5t61 -43.5t61 -58.5t47 -81t19 -107.5q0 -164 -124.5 -265t-330.5 -101q-175 0 -297 49z" />
<glyph unicode="t" horiz-adv-x="755" d="M70 233q0 48 8 89l78 434l-80 45l8 49q73 118 220.5 213.5t318.5 136.5h28l-37 -203h177q0 -166 -41 -241h-177l-77 -422q-2 -10 -2 -21q0 -30 41 -30q52 0 137 18l28 -125q-157 -196 -368 -196q-127 0 -194.5 66.5t-67.5 186.5z" />
<glyph unicode="u" horiz-adv-x="1222" d="M61 213q0 24 9 76l86 463l-31 26q-45 37 -64 80l25 119l539 41l-138 -715q29 -16 66 -16q35 0 86 22l121 678q89 23 217 23q115 0 201 -17l-123 -688q58 0 116 10l17 -36q-20 -79 -58 -138.5t-86 -93.5t-99.5 -50.5t-106.5 -16.5q-86 0 -132 33.5t-69 105.5h-12 q-97 -79 -160 -109t-137 -30q-126 0 -196.5 60t-70.5 173z" />
<glyph unicode="v" horiz-adv-x="1019" d="M-6 735q39 137 131 210t211 73q166 0 207 -164l28 -438h17l141 332l-86 104l2 12q14 81 55 133h400v-82l-490 -915l-360 -20l-127 729q-58 0 -115 -11z" />
<glyph unicode="w" horiz-adv-x="1550" d="M10 735q41 137 128 210t204 73q93 0 140 -40.5t67 -123.5l20 -416h17l149 350l-16 177q147 43 389 43l22 -570h17l133 310l-86 104l2 12q14 79 57 133h377v-82l-475 -915l-326 -20l-36 479h-17l-209 -459l-321 -20l-107 729q-57 0 -114 -11z" />
<glyph unicode="x" horiz-adv-x="1054" d="M-68 0v82l357 405l-129 222q-62 0 -115 -11l-16 37q82 283 307 283q82 0 133.5 -35.5t97.5 -128.5l101 -195l73 89l-84 104l2 12q14 81 56 133h407v-82l-360 -405l131 -221q63 0 115 10l16 -37q-46 -141 -118 -211.5t-183 -70.5q-89 0 -144 43.5t-94 119.5l-102 195 l-72 -88l84 -105l-2 -12q-14 -79 -57 -133h-404z" />
<glyph unicode="y" horiz-adv-x="1054" d="M12 735q41 140 132.5 211.5t211.5 71.5q164 0 205 -164l17 -518h16l160 412l-86 104l2 12q14 78 55 133h395v-82l-555 -1112l-10 -254q-103 0 -211.5 14t-181.5 38v49q13 49 52 113.5t165 236.5h-135l-103 709q-57 0 -114 -11z" />
<glyph unicode="z" horiz-adv-x="909" d="M-39 98l492 537h-377q3 205 63 383l217 -21h592v-133l-461 -479l349 -104q0 -61 -13.5 -158.5t-29.5 -142.5l-639 57l-56 -57q-38 13 -78.5 46t-58.5 72z" />
<glyph unicode="{" horiz-adv-x="692" d="M-31 -41q0 59 31 124t67.5 110.5t67.5 95t31 80.5q0 49 -29 67.5t-102 18.5l39 219q164 0 164 100q0 37 -18 83.5t-36 102t-18 113.5q0 179 149 272t445 93q0 -119 -41 -215l-150 -21q-22 -25 -22 -69q0 -41 33.5 -153.5t33.5 -176.5q0 -192 -262 -230v-22 q104 -20 144.5 -66.5t40.5 -119.5q0 -40 -20.5 -85.5t-49.5 -86.5t-58.5 -80.5t-50 -79.5t-20.5 -72q0 -25 4 -37l170 -20q-4 -53 -23 -114.5t-40 -100.5q-229 0 -354.5 66t-125.5 204z" />
<glyph unicode="|" horiz-adv-x="665" d="M141 -451v1946q95 18 191 18q98 0 192 -18v-1946q-94 -18 -192 -18q-96 0 -191 18z" />
<glyph unicode="}" horiz-adv-x="692" d="M-74 -311q0 119 41 215l150 20q22 25 22 70q0 41 -33.5 153.5t-33.5 176.5q0 191 262 229v22q-104 20 -144 66.5t-40 120.5q0 40 20.5 85.5t49.5 86t58 80t49.5 79.5t20.5 72q0 25 -4 37l-170 21q4 53 23 114.5t41 100.5q229 0 354 -66.5t125 -204.5q0 -59 -31 -123.5 t-67.5 -110.5t-67.5 -95t-31 -80q0 -49 29 -67.5t102 -18.5l-39 -219q-163 0 -163 -101q0 -37 17.5 -83.5t35.5 -102t18 -113.5q0 -179 -148.5 -271.5t-445.5 -92.5z" />
<glyph unicode="~" horiz-adv-x="1003" d="M16 358q73 162 133 250.5t106 117t103 28.5q47 0 108 -27t119.5 -54.5t98.5 -27.5q39 0 68.5 23.5t91.5 103.5l137 -65q-57 -124 -102.5 -202.5t-86 -121t-75 -57.5t-78.5 -15q-55 0 -169.5 54.5t-156.5 54.5q-37 0 -68 -26t-91 -101z" />
<glyph unicode="&#xa1;" horiz-adv-x="686" d="M-90 -420l289 932h262l-43 -911q-171 -21 -508 -21zM160 782q0 104 65.5 170t177.5 66q87 0 135 -46.5t48 -119.5q0 -108 -69 -174t-179 -66q-82 0 -130 47t-48 123z" />
<glyph unicode="&#xa2;" d="M139 399q0 179 78.5 313.5t215.5 205.5t312 73l140 365q35 0 72.5 -10t58.5 -27l-129 -336q63 -6 112 -16q-13 -161 -57 -303q-52 9 -137.5 17.5t-130.5 8.5q-13 0 -31.5 -16.5t-38 -44.5t-33.5 -75.5t-14 -100.5q0 -74 44 -115t120 -41q104 0 182 47l8 -172 q-60 -77 -160 -121.5t-216 -44.5h-11l-135 -358q-35 0 -72.5 10t-58.5 27l131 344q-117 39 -183.5 136t-66.5 234z" />
<glyph unicode="&#xa3;" d="M14 168q66 69 242 113q59 49 59 161q0 27 -2 52h-243q0 84 24 139h197l-31 129h-141q0 84 24 139h93q-5 30 -5 72q2 196 136.5 320t377.5 124q169 0 262 -69.5t93 -178.5q0 -97 -65 -156t-161 -67q-139 20 -139 129q0 58 38 91.5t99 33.5q0 19 -38.5 34t-92.5 15 q-39 0 -63 -6q-17 -3 -32 -48.5t-15 -115.5q0 -65 26 -178h275q0 -77 -27 -139h-217q26 -121 27 -129h168q0 -77 -27 -139h-143q-12 -55 -52.5 -102.5t-123.5 -102.5v-10h215l51 124h35q51 0 106.5 -12t83.5 -26l-39 -385l-770 45l-176 -45q-29 76 -29 188z" />
<glyph unicode="&#xa4;" horiz-adv-x="1163" d="M61 170l134 137q-70 103 -70 244q0 143 70 252l-134 137q62 109 166 168l148 -154q93 41 207 41q113 0 206 -43l150 156q104 -59 166 -168l-133 -137q69 -109 69 -244q0 -143 -69 -252l133 -137q-62 -109 -166 -168l-150 154q-93 -41 -206 -41q-121 0 -207 41l-148 -154 q-104 59 -166 168zM449 557q0 -94 33 -128t102 -34q70 0 101.5 35.5t31.5 124.5q0 96 -34 128t-99 32q-67 0 -101 -32t-34 -126z" />
<glyph unicode="&#xa5;" d="M59 326q0 81 25 139h240l12 76l-19 53h-208q0 84 24 139h141l-139 441l-57 22l6 33q19 105 68 168h585l-47 -201l-96 -22l72 -406h20l223 406l-84 22l6 33q16 107 68 168h406l-48 -201l-67 -22l-293 -441h150q0 -77 -27 -139h-215l-35 -53l-12 -76h239q0 -79 -26 -139 h-238l-18 -103l116 -22l-6 -33q-20 -111 -69 -168h-629l45 201l109 22l18 103h-240z" />
<glyph unicode="&#xa6;" horiz-adv-x="663" d="M141 356q100 19 191 19q92 0 192 -19v-807q-94 -18 -192 -18q-96 0 -191 18v807zM141 688v807q95 18 191 18q98 0 192 -18v-807q-94 -18 -192 -18q-96 0 -191 18z" />
<glyph unicode="&#xa7;" horiz-adv-x="1103" d="M4 -96q0 95 65 155t160 68q140 -20 140 -129q0 -57 -39 -91t-99 -34q5 -20 40 -34.5t89 -14.5q44 0 68 8q8 3 20 19t23.5 50.5t11.5 73.5q0 57 -33.5 99t-125 86t-258.5 92q35 192 81 303l209 156q-62 59 -88 123.5t-26 154.5q0 79 30 153t87.5 136.5t154 100.5t217.5 38 q166 0 259 -70t93 -178q0 -95 -65 -155t-160 -68q-139 20 -139 129q0 58 38 91.5t99 33.5q-5 20 -40 34.5t-89 14.5q-44 0 -68 -8q-8 -3 -20 -19t-23.5 -50.5t-11.5 -73.5q0 -57 33.5 -99t125.5 -85.5t259 -92.5q-31 -173 -82 -303l-209 -156q62 -59 88.5 -123.5 t26.5 -154.5q0 -79 -30 -153t-88 -136.5t-154.5 -100.5t-217.5 -38q-166 0 -259 70t-93 178zM383 530q144 -45 207 -77l115 90q-123 35 -207 78z" />
<glyph unicode="&#xa8;" horiz-adv-x="1024" d="M119 1282q0 87 55 142t135 55q75 0 114.5 -47t39.5 -132q0 -86 -51.5 -142t-135.5 -56q-76 0 -116.5 49t-40.5 131zM561 1282q0 87 55.5 142t135.5 55q75 0 114 -47t39 -132q0 -86 -51 -142t-135 -56q-76 0 -117 49t-41 131z" />
<glyph unicode="&#xa9;" horiz-adv-x="1509" d="M53 604q0 178 65 329.5t176 254.5t261.5 161t318.5 58q189 0 331 -83t215 -224t73 -318q0 -143 -41.5 -270t-117 -223.5t-178 -166.5t-226.5 -106t-260 -36q-188 0 -329.5 82.5t-214.5 223t-73 318.5zM197 602q0 -100 30.5 -188.5t88 -157t148.5 -108t204 -39.5 q199 0 353 79t242.5 233t88.5 363q0 102 -30.5 190.5t-89 156t-150 106.5t-205.5 39q-199 0 -352 -78.5t-240.5 -232.5t-87.5 -363zM426 647q0 190 121.5 299t326.5 109q110 0 205 -25l-24 -209q-46 -22 -119 -22h-14l-21 121q-30 12 -78 12q-18 0 -28 -2q-8 -1 -19.5 -13 t-26 -37t-26.5 -57.5t-20.5 -80.5t-8.5 -101q0 -88 26.5 -126t82.5 -38q21 0 33 2l43 115h18q72 0 117 -25l-15 -180q-39 -21 -102.5 -34t-120.5 -13q-161 0 -255.5 80.5t-94.5 224.5z" />
<glyph unicode="&#xaa;" horiz-adv-x="823" d="M100 946q0 112 28.5 202.5t76 146.5t106 86t121.5 30q98 0 152 -65l47 61q169 0 260 -21l-92 -481q53 0 73 8l13 -26q-23 -93 -87.5 -152t-158.5 -59q-100 0 -139 86h-11q-41 -50 -81 -68t-91 -18q-92 0 -154.5 71.5t-62.5 198.5zM418 946q0 -36 8.5 -50.5t30.5 -14.5 t39 10l57 313q-26 13 -53 13q-8 0 -18 -11.5t-21.5 -35t-21 -54.5t-15.5 -76t-6 -94z" />
<glyph unicode="&#xab;" horiz-adv-x="1019" d="M6 471l12 68l363 366l235 -20l-198 -373l65 -389l-223 -21zM459 471l12 68l363 366l235 -20l-199 -373l66 -389l-223 -21z" />
<glyph unicode="&#xac;" horiz-adv-x="1024" d="M68 459v370h888v-651h-364v281h-524z" />
<glyph unicode="&#xad;" horiz-adv-x="686" d="M43 322l63 352h519l-64 -352h-518z" />
<glyph unicode="&#xae;" horiz-adv-x="815" d="M117 1012q0 181 119.5 293t295.5 112q143 0 228.5 -89t85.5 -226q0 -180 -120.5 -293t-295.5 -113q-143 0 -228 89.5t-85 226.5zM193 1012q0 -104 62.5 -174t174.5 -70q151 0 244.5 89.5t93.5 244.5q0 105 -62.5 174.5t-173.5 69.5q-151 0 -245 -89.5t-94 -244.5z M283 879l14 59l27 6l38 225l-28 7l2 10q8 33 18 49h187q127 0 127 -96q0 -69 -64 -90l33 -154q-41 -23 -94 -23l-66 132h-16l-10 -60l20 -6l-2 -10q-8 -33 -18 -49h-168zM473 1063l33 2q14 6 24.5 25.5t10.5 44.5q0 34 -31 34h-18z" />
<glyph unicode="&#xaf;" horiz-adv-x="1024" d="M225 1133l51 284h525l-51 -284h-525z" />
<glyph unicode="&#xb0;" horiz-adv-x="751" d="M86 1061q0 164 111 260t290 96q147 0 235.5 -77t88.5 -220q0 -164 -111 -260t-290 -96q-147 0 -235.5 77t-88.5 220zM336 1061q0 -52 26.5 -79.5t73.5 -27.5q125 0 125 166q0 52 -26.5 79.5t-73.5 27.5q-125 0 -125 -166z" />
<glyph unicode="&#xb1;" d="M176 0v311h815v-311h-815zM176 592v344h232v221h352v-221h231v-344h-231v-221h-352v221h-232z" />
<glyph unicode="&#xb2;" horiz-adv-x="880" d="M102 946l43 258q174 93 255 144.5t113 90t32 85.5q0 58 -34.5 88t-94.5 30q-71 0 -125 -40l-47 88q120 178 346 178q169 0 254.5 -74.5t85.5 -191.5q0 -114 -84.5 -193t-278.5 -143v-19q165 13 209 13q56 0 85.5 -29t29.5 -84q0 -75 -57 -201h-732z" />
<glyph unicode="&#xb3;" horiz-adv-x="880" d="M168 1112q218 30 282 52t64 71q0 39 -27.5 55.5t-95.5 16.5h-125l33 188h125q71 0 106 16.5t35 57.5t-24.5 59.5t-75.5 18.5q-80 0 -137 -45l-47 88q62 87 147.5 132.5t216.5 45.5q148 0 226.5 -61.5t78.5 -170.5q0 -81 -52.5 -134.5t-137.5 -69.5l-2 -19 q135 -49 135 -190q0 -95 -65 -157t-222 -98t-418 -42q-20 67 -20 186z" />
<glyph unicode="&#xb4;" horiz-adv-x="1024" d="M215 1141l96 354h477l-380 -393q-102 0 -193 39z" />
<glyph unicode="&#xb6;" horiz-adv-x="1103" d="M6 -100q0 102 65.5 165t161.5 74q142 -19 142 -123q0 -61 -39 -91.5t-96 -35.5q5 -19 39.5 -35t87.5 -16q56 0 104 25q50 27 88 239l72 406l-146 10q-168 12 -256 103t-88 247q0 246 149 387.5t427 141.5h485l-51 -187l-98 -22l-172 -973q-100 -559 -541 -559 q-154 0 -244 67.5t-90 176.5z" />
<glyph unicode="&#xb7;" horiz-adv-x="501" d="M43 461q0 118 68.5 189t177.5 71q83 0 132.5 -50.5t49.5 -133.5q0 -114 -67 -186t-179 -72q-88 0 -135 50.5t-47 131.5z" />
<glyph unicode="&#xb8;" horiz-adv-x="1024" d="M295 -313q154 7 154 65q0 25 -21 40.5t-74 25.5l8 41l91 75h112l-14 -24q141 -55 141 -160q0 -98 -99 -148.5t-282 -52.5q-16 60 -16 138z" />
<glyph unicode="&#xb9;" horiz-adv-x="880" d="M164 946l41 162l178 14l94 539l-65 12q-58 12 -74 37l24 137h484l-127 -725l151 -14l-4 -18q-26 -110 -57 -144h-645z" />
<glyph unicode="&#xba;" horiz-adv-x="823" d="M100 997q0 185 119.5 299.5t310.5 114.5q158 0 252.5 -90t94.5 -231q0 -191 -121.5 -302.5t-306.5 -111.5q-164 0 -256.5 93.5t-92.5 227.5zM418 950q0 -47 12.5 -67.5t40.5 -20.5q15 0 27 4q10 3 24.5 41t25.5 102t11 128q0 46 -12 67t-41 21q-19 0 -27 -4 q-17 -5 -39 -91.5t-22 -179.5z" />
<glyph unicode="&#xbb;" horiz-adv-x="1019" d="M-49 123l199 373l-66 389l223 20l254 -368l-12 -68l-363 -367zM403 123l199 373l-65 389l223 20l254 -368l-13 -68l-362 -367z" />
<glyph unicode="&#xbc;" horiz-adv-x="2129" d="M92 496l41 161l178 15l95 538l-66 13q-58 12 -74 37l25 137h483l-127 -725l152 -15l-4 -18q-25 -107 -58 -143h-645zM539 -53l829 1548q57 -6 122 -34t99 -64l-829 -1549q-52 5 -120.5 34.5t-100.5 64.5zM1247 156l53 303l310 463q163 0 254 -31l-334 -496h145l33 185 h311l-28 -164h71l-8 -49q-26 -154 -63 -211h-47l-27 -156h-340l27 156h-357z" />
<glyph unicode="&#xbd;" horiz-adv-x="2129" d="M92 496l41 161l178 15l95 538l-66 13q-58 12 -74 37l25 137h483l-127 -725l152 -15l-4 -18q-25 -107 -58 -143h-645zM539 -53l829 1548q57 -6 122 -34t99 -64l-829 -1549q-52 5 -120.5 34.5t-100.5 64.5zM1208 0l43 258q174 93 255 144.5t113 90t32 85.5q0 58 -34.5 88 t-94.5 30q-70 0 -125 -41l-47 88q120 179 346 179q169 0 254.5 -74.5t85.5 -192.5q0 -114 -84.5 -193t-278.5 -143v-18q152 12 209 12q115 0 115 -112q0 -72 -58 -201h-731z" />
<glyph unicode="&#xbe;" horiz-adv-x="2129" d="M96 662q219 31 282.5 52t63.5 70q0 39 -27.5 55.5t-95.5 16.5h-124l32 188h125q71 0 106.5 16.5t35.5 57.5t-24.5 59.5t-76.5 18.5q-80 0 -137 -45l-47 88q62 87 147.5 132.5t216.5 45.5q149 0 227.5 -61t78.5 -170q0 -81 -53 -135t-138 -70l-2 -18q135 -49 135 -191 q0 -95 -64.5 -156.5t-221.5 -98t-418 -42.5q-21 71 -21 187zM539 -53l829 1548q57 -6 122 -34t99 -64l-829 -1549q-52 5 -120.5 34.5t-100.5 64.5zM1247 156l53 303l310 463q163 0 254 -31l-334 -496h145l33 185h311l-28 -164h71l-8 -49q-26 -154 -63 -211h-47l-27 -156 h-340l27 156h-357z" />
<glyph unicode="&#xbf;" horiz-adv-x="985" d="M-47 -82q0 160 113.5 262.5t330.5 122.5l84 215h168l156 -188q-8 -27 -32 -66.5t-50 -64.5q-141 -3 -221 -52.5t-80 -132.5q0 -60 37 -100.5t104 -40.5q97 0 158 61l92 -84q-163 -270 -473 -270q-189 0 -288 93t-99 245zM397 782q0 103 66 169.5t178 66.5q88 0 135 -46 t47 -120q0 -108 -68.5 -174t-176.5 -66q-82 0 -131.5 47t-49.5 123z" />
<glyph unicode="&#xc0;" horiz-adv-x="1396" d="M-123 0l45 201l72 22l639 1174l459 20l190 -1194l76 -22l-6 -33q-20 -112 -68 -168h-649l45 201l145 22l-34 256l-369 -28l-113 -228l144 -22l-7 -33q-21 -114 -67 -168h-502zM514 1720h442l11 -233q-102 -41 -222 -41zM528 668h236l-43 350h-19z" />
<glyph unicode="&#xc1;" horiz-adv-x="1396" d="M-123 0l45 201l72 22l639 1174l459 20l190 -1194l76 -22l-6 -33q-20 -112 -68 -168h-649l45 201l145 22l-34 256l-369 -28l-113 -228l144 -22l-7 -33q-21 -114 -67 -168h-502zM528 668h236l-43 350h-19zM725 1487l94 233h457l-326 -274q-138 0 -225 41z" />
<glyph unicode="&#xc2;" horiz-adv-x="1396" d="M-123 0l45 201l72 22l639 1174l459 20l190 -1194l76 -22l-6 -33q-20 -112 -68 -168h-649l45 201l145 22l-34 256l-369 -28l-113 -228l144 -22l-7 -33q-21 -114 -67 -168h-502zM528 668h236l-43 350h-19zM555 1499l182 225h334l103 -225q-50 -47 -115 -53l-187 106 l-200 -106q-30 2 -64 16.5t-53 36.5z" />
<glyph unicode="&#xc3;" horiz-adv-x="1396" d="M-123 0l45 201l72 22l639 1174l459 20l190 -1194l76 -22l-6 -33q-20 -112 -68 -168h-649l45 201l145 22l-34 256l-369 -28l-113 -228l144 -22l-7 -33q-21 -114 -67 -168h-502zM483 1511q47 84 82 135t65.5 76.5t54.5 33t58 7.5q37 0 134 -36.5t124 -36.5q23 0 43 15.5 t66 66.5l107 -72q-62 -110 -106 -165.5t-76.5 -72t-78.5 -16.5q-37 0 -136 38t-120 38q-25 0 -45 -15.5t-65 -66.5zM528 668h236l-43 350h-19z" />
<glyph unicode="&#xc4;" horiz-adv-x="1396" d="M-123 0l45 201l72 22l639 1174l459 20l190 -1194l76 -22l-6 -33q-20 -112 -68 -168h-649l45 201l145 22l-34 256l-369 -28l-113 -228l144 -22l-7 -33q-21 -114 -67 -168h-502zM512 1591q0 69 51 112.5t125 43.5q71 0 106 -36.5t35 -104.5q0 -67 -48 -111.5t-124 -44.5 q-70 0 -107.5 38t-37.5 103zM528 668h236l-43 350h-19zM918 1591q0 69 51 112.5t125 43.5q71 0 106 -36.5t35 -104.5q0 -67 -48 -111.5t-124 -44.5q-70 0 -107.5 38t-37.5 103z" />
<glyph unicode="&#xc5;" horiz-adv-x="1396" d="M-123 0l45 201l72 22l639 1172q-51 48 -51 131q0 97 87 158t222 61q128 0 193 -51t65 -144q0 -76 -57 -133l190 -1194l76 -22l-6 -33q-20 -112 -68 -168h-649l45 201l145 22l-34 256l-369 -28l-113 -228l144 -22l-7 -33q-21 -114 -67 -168h-502zM528 668h236l-43 350h-19 zM780 1532q0 -27 21 -42t53 -15q96 0 96 71q0 26 -20.5 42t-52.5 16q-97 0 -97 -72z" />
<glyph unicode="&#xc6;" horiz-adv-x="1923" d="M-123 0l45 201l88 22l502 951l-115 22l6 33q20 108 68 168h1155l301 20l-37 -407q-85 -45 -215 -45h-30l-48 200h-213l-61 -352h406q0 -144 -41 -242l-183 19h-223l-65 -371l258 25l77 200h35q58 0 118 -12.5t93 -32.5l-29 -399h-1142l45 201l106 22l66 367h-336 l-180 -367l141 -22l-6 -33q-20 -112 -68 -168h-518zM618 813h265l63 352h-153z" />
<glyph unicode="&#xc7;" horiz-adv-x="1273" d="M59 604q0 186 58.5 339t163 257t250 160.5t317.5 56.5q219 0 418 -61l-37 -410q-85 -45 -215 -45h-31l-47 236q-32 13 -81 21.5t-83 8.5q-19 0 -35 -2q-14 -2 -37.5 -25t-52 -72t-53.5 -114.5t-42 -163.5t-17 -208q0 -342 219 -342q35 0 73 6l78 241h35q58 0 118 -12.5 t93 -32.5l-25 -364q-72 -46 -192 -72t-217 -26q-308 0 -483 166.5t-175 457.5zM426 -313q154 7 154 65q0 25 -21 40.5t-74 25.5l9 41l90 75h112l-14 -24q141 -55 141 -160q0 -98 -99 -148.5t-282 -52.5q-16 60 -16 138z" />
<glyph unicode="&#xc8;" horiz-adv-x="1259" d="M-49 0l45 201l106 22l170 951l-114 22l6 33q21 113 67 168h732l301 20l-37 -407q-85 -45 -215 -45h-31l-47 200h-213l-62 -352h406q0 -144 -41 -242l-182 19h-224l-65 -371l258 25l78 200h35q58 0 118 -12.5t93 -32.5l-29 -399h-1155zM383 1720h442l11 -233 q-102 -41 -222 -41z" />
<glyph unicode="&#xc9;" horiz-adv-x="1259" d="M-49 0l45 201l106 22l170 951l-114 22l6 33q21 113 67 168h732l301 20l-37 -407q-85 -45 -215 -45h-31l-47 200h-213l-62 -352h406q0 -144 -41 -242l-182 19h-224l-65 -371l258 25l78 200h35q58 0 118 -12.5t93 -32.5l-29 -399h-1155zM524 1487l94 233h457l-325 -274 q-139 0 -226 41z" />
<glyph unicode="&#xca;" horiz-adv-x="1259" d="M-49 0l45 201l106 22l170 951l-114 22l6 33q21 113 67 168h732l301 20l-37 -407q-85 -45 -215 -45h-31l-47 200h-213l-62 -352h406q0 -144 -41 -242l-182 19h-224l-65 -371l258 25l78 200h35q58 0 118 -12.5t93 -32.5l-29 -399h-1155zM418 1499l182 225h334l102 -225 q-51 -47 -114 -53l-187 106l-200 -106q-30 2 -64 16.5t-53 36.5z" />
<glyph unicode="&#xcb;" horiz-adv-x="1259" d="M-49 0l45 201l106 22l170 951l-114 22l6 33q21 113 67 168h732l301 20l-37 -407q-85 -45 -215 -45h-31l-47 200h-213l-62 -352h406q0 -144 -41 -242l-182 19h-224l-65 -371l258 25l78 200h35q58 0 118 -12.5t93 -32.5l-29 -399h-1155zM367 1591q0 69 51 112.5t125 43.5 q71 0 106 -36.5t35 -104.5q0 -67 -48 -111.5t-124 -44.5q-70 0 -107.5 38t-37.5 103zM772 1591q0 69 51 112.5t125 43.5q71 0 106.5 -37t35.5 -104t-48 -111.5t-124 -44.5q-70 0 -108 38t-38 103z" />
<glyph unicode="&#xcc;" horiz-adv-x="774" d="M-49 0l45 201l106 22l170 951l-114 22l6 33q21 114 67 168h646l-46 -201l-108 -22l-170 -951l115 -22l-6 -33q-20 -112 -68 -168h-643zM231 1720h443l10 -233q-102 -41 -221 -41z" />
<glyph unicode="&#xcd;" horiz-adv-x="774" d="M-49 0l45 201l106 22l170 951l-114 22l6 33q21 114 67 168h646l-46 -201l-108 -22l-170 -951l115 -22l-6 -33q-20 -112 -68 -168h-643zM371 1487l94 233h457l-326 -274q-138 0 -225 41z" />
<glyph unicode="&#xce;" horiz-adv-x="774" d="M-49 0l45 201l106 22l170 951l-114 22l6 33q21 114 67 168h646l-46 -201l-108 -22l-170 -951l115 -22l-6 -33q-20 -112 -68 -168h-643zM242 1499l182 225h334l102 -225q-50 -47 -115 -53l-186 106l-201 -106q-29 2 -63 16.5t-53 36.5z" />
<glyph unicode="&#xcf;" horiz-adv-x="774" d="M-49 0l45 201l106 22l170 951l-114 22l6 33q21 114 67 168h646l-46 -201l-108 -22l-170 -951l115 -22l-6 -33q-20 -112 -68 -168h-643zM233 1591q0 69 46 112.5t114 43.5q129 0 129 -141q0 -67 -43.5 -111.5t-113.5 -44.5q-63 0 -97.5 38.5t-34.5 102.5zM602 1591 q0 69 46 112.5t114 43.5q63 0 95 -37t32 -104t-43.5 -111.5t-112.5 -44.5q-64 0 -97.5 38t-33.5 103z" />
<glyph unicode="&#xd0;" horiz-adv-x="1472" d="M-49 0l45 201l106 22l68 379h-100q0 120 41 213h96l65 359l-114 22l6 33q21 114 67 168h582q149 0 266 -34.5t202.5 -104.5t131 -181.5t45.5 -259.5q0 -180 -60 -330.5t-172 -258.5t-279.5 -168t-375.5 -60h-620zM555 238l174 -9q87 33 170.5 226t83.5 432 q0 272 -205 272h-57l-64 -344h107q0 -120 -41 -213h-102z" />
<glyph unicode="&#xd1;" horiz-adv-x="1523" d="M-49 0l45 201l104 22l191 951l-115 22l6 33q20 112 68 168h487l361 -713h18l84 490l-131 22l6 33q20 112 68 168h493l-45 -201l-98 -22l-227 -1174l-267 -20l-473 874h-18l-111 -631l129 -22l-6 -33q-20 -109 -67 -168h-502zM592 1511q47 84 82 135t65.5 76.5t54.5 33 t58 7.5q37 0 134 -36.5t124 -36.5q23 0 43 15.5t66 66.5l106 -72q-62 -110 -105.5 -165.5t-76 -72t-78.5 -16.5q-37 0 -136 38t-120 38q-25 0 -46 -15.5t-65 -66.5z" />
<glyph unicode="&#xd2;" horiz-adv-x="1458" d="M59 606q0 180 59.5 332.5t163.5 257t247 163t307 58.5q283 0 445.5 -163t162.5 -463q0 -181 -60 -334.5t-164 -257t-245.5 -161.5t-302.5 -58q-285 0 -449 162.5t-164 463.5zM510 1720h442l11 -233q-102 -41 -222 -41zM535 496q0 -136 49 -194t127 -58q39 0 73 10 q13 4 34.5 31.5t47.5 84t49 129.5t38.5 179.5t15.5 222.5q0 136 -49 194t-127 58q-38 0 -74 -10q-13 -4 -34 -31.5t-47.5 -84t-49 -129.5t-38 -179.5t-15.5 -222.5z" />
<glyph unicode="&#xd3;" horiz-adv-x="1458" d="M59 606q0 180 59.5 332.5t163.5 257t247 163t307 58.5q283 0 445.5 -163t162.5 -463q0 -181 -60 -334.5t-164 -257t-245.5 -161.5t-302.5 -58q-285 0 -449 162.5t-164 463.5zM535 496q0 -136 49 -194t127 -58q39 0 73 10q13 4 34.5 31.5t47.5 84t49 129.5t38.5 179.5 t15.5 222.5q0 136 -49 194t-127 58q-38 0 -74 -10q-13 -4 -34 -31.5t-47.5 -84t-49 -129.5t-38 -179.5t-15.5 -222.5zM705 1487l94 233h456l-325 -274q-138 0 -225 41z" />
<glyph unicode="&#xd4;" horiz-adv-x="1458" d="M59 606q0 180 59.5 332.5t163.5 257t247 163t307 58.5q283 0 445.5 -163t162.5 -463q0 -181 -60 -334.5t-164 -257t-245.5 -161.5t-302.5 -58q-285 0 -449 162.5t-164 463.5zM518 1499l182 225h334l103 -225q-50 -47 -115 -53l-186 106l-201 -106q-30 2 -64 16.5 t-53 36.5zM535 496q0 -136 49 -194t127 -58q39 0 73 10q13 4 34.5 31.5t47.5 84t49 129.5t38.5 179.5t15.5 222.5q0 136 -49 194t-127 58q-38 0 -74 -10q-13 -4 -34 -31.5t-47.5 -84t-49 -129.5t-38 -179.5t-15.5 -222.5z" />
<glyph unicode="&#xd5;" horiz-adv-x="1458" d="M59 606q0 180 59.5 332.5t163.5 257t247 163t307 58.5q283 0 445.5 -163t162.5 -463q0 -181 -60 -334.5t-164 -257t-245.5 -161.5t-302.5 -58q-285 0 -449 162.5t-164 463.5zM483 1511q47 84 82 135t65.5 76.5t54.5 33t58 7.5q37 0 134 -36.5t124 -36.5q23 0 43 15.5 t66 66.5l107 -72q-62 -110 -106 -165.5t-76.5 -72t-78.5 -16.5q-37 0 -136 38t-120 38q-25 0 -45 -15.5t-65 -66.5zM535 496q0 -136 49 -194t127 -58q39 0 73 10q13 4 34.5 31.5t47.5 84t49 129.5t38.5 179.5t15.5 222.5q0 136 -49 194t-127 58q-38 0 -74 -10 q-13 -4 -34 -31.5t-47.5 -84t-49 -129.5t-38 -179.5t-15.5 -222.5z" />
<glyph unicode="&#xd6;" horiz-adv-x="1458" d="M59 606q0 180 59.5 332.5t163.5 257t247 163t307 58.5q283 0 445.5 -163t162.5 -463q0 -181 -60 -334.5t-164 -257t-245.5 -161.5t-302.5 -58q-285 0 -449 162.5t-164 463.5zM498 1591q0 69 51 112.5t125 43.5q71 0 106 -36.5t35 -104.5q0 -67 -48 -111.5t-124 -44.5 q-70 0 -107.5 38t-37.5 103zM535 496q0 -136 49 -194t127 -58q39 0 73 10q13 4 34.5 31.5t47.5 84t49 129.5t38.5 179.5t15.5 222.5q0 136 -49 194t-127 58q-38 0 -74 -10q-13 -4 -34 -31.5t-47.5 -84t-49 -129.5t-38 -179.5t-15.5 -222.5zM903 1591q0 69 51 112.5t125 43.5 q71 0 106.5 -37t35.5 -104t-48 -111.5t-124 -44.5q-70 0 -108 38t-38 103z" />
<glyph unicode="&#xd7;" d="M125 289l215 215l-215 217l242 244l217 -217l215 217l243 -244l-215 -217l215 -215l-243 -244l-215 217l-217 -217z" />
<glyph unicode="&#xd8;" horiz-adv-x="1458" d="M47 -96l184 229q-172 164 -172 473q0 180 59.5 332.5t163.5 257t247 163t307 58.5q208 0 356 -94l180 223q27 -3 51 -18.5t31 -36.5l-184 -227q174 -166 174 -473q0 -181 -60 -334.5t-164 -257t-245.5 -161.5t-302.5 -58q-215 0 -363 92l-180 -224q-27 3 -51.5 19 t-30.5 37zM535 508l417 518q-38 127 -159 127q-38 0 -74 -10q-13 -4 -34 -31.5t-47 -82.5t-48.5 -126.5t-38 -176t-16.5 -218.5zM549 369q39 -125 162 -125q39 0 73 10q13 4 34 31.5t47 82.5t48.5 126.5t38.5 176t17 218.5z" />
<glyph unicode="&#xd9;" horiz-adv-x="1435" d="M106 385q0 66 11 125l119 664l-93 22l7 33q21 114 67 168h623l-45 -201l-109 -22l-129 -723q-6 -30 -6 -56q0 -66 52 -99.5t151 -33.5q207 0 235 156l135 756l-114 22l6 33q21 114 67 168h465l-45 -201l-88 -22l-123 -693q-43 -249 -186.5 -375t-427.5 -126 q-297 0 -434.5 102.5t-137.5 302.5zM578 1720h442l10 -233q-102 -41 -221 -41z" />
<glyph unicode="&#xda;" horiz-adv-x="1435" d="M106 385q0 66 11 125l119 664l-93 22l7 33q21 114 67 168h623l-45 -201l-109 -22l-129 -723q-6 -30 -6 -56q0 -66 52 -99.5t151 -33.5q207 0 235 156l135 756l-114 22l6 33q21 114 67 168h465l-45 -201l-88 -22l-123 -693q-43 -249 -186.5 -375t-427.5 -126 q-297 0 -434.5 102.5t-137.5 302.5zM735 1487l94 233h457l-325 -274q-139 0 -226 41z" />
<glyph unicode="&#xdb;" horiz-adv-x="1435" d="M106 385q0 66 11 125l119 664l-93 22l7 33q21 114 67 168h623l-45 -201l-109 -22l-129 -723q-6 -30 -6 -56q0 -66 52 -99.5t151 -33.5q207 0 235 156l135 756l-114 22l6 33q21 114 67 168h465l-45 -201l-88 -22l-123 -693q-43 -249 -186.5 -375t-427.5 -126 q-297 0 -434.5 102.5t-137.5 302.5zM584 1499l182 225h334l102 -225q-50 -47 -115 -53l-186 106l-201 -106q-29 2 -63 16.5t-53 36.5z" />
<glyph unicode="&#xdc;" horiz-adv-x="1435" d="M106 385q0 66 11 125l119 664l-93 22l7 33q21 114 67 168h623l-45 -201l-109 -22l-129 -723q-6 -30 -6 -56q0 -66 52 -99.5t151 -33.5q207 0 235 156l135 756l-114 22l6 33q21 114 67 168h465l-45 -201l-88 -22l-123 -693q-43 -249 -186.5 -375t-427.5 -126 q-297 0 -434.5 102.5t-137.5 302.5zM545 1591q0 69 51 112.5t125 43.5q71 0 106 -36.5t35 -104.5q0 -67 -48 -111.5t-124 -44.5q-70 0 -107.5 38t-37.5 103zM950 1591q0 69 51 112.5t125 43.5q71 0 106.5 -37t35.5 -104t-48 -111.5t-124 -44.5q-70 0 -108 38t-38 103z" />
<glyph unicode="&#xdd;" horiz-adv-x="1286" d="M106 1196l7 33q22 112 67 168h641l-45 -201l-119 -22l88 -406h19l235 406l-108 22l6 33q20 112 68 168h467l-46 -201l-81 -22l-441 -633l-57 -318l115 -22l-7 -33q-18 -108 -67 -168h-643l45 201l106 22l58 318l-228 633zM688 1487l94 233h457l-326 -274q-138 0 -225 41z " />
<glyph unicode="&#xde;" horiz-adv-x="1302" d="M-49 0l45 201l106 22l170 951l-114 22l6 33q16 109 67 168h531l-47 -256h51q248 0 375 -92.5t127 -300.5q0 -213 -151.5 -334t-438.5 -146l-119 -10l-51 -258h-557zM596 471l115 8q52 25 90.5 104.5t38.5 180.5q0 149 -111 149h-53z" />
<glyph unicode="&#xdf;" horiz-adv-x="1163" d="M-49 -289l194 1100q-34 16 -58 48.5t-30 76.5l123 82l2 10q12 68 39.5 132t77 126t115.5 107.5t162 73.5t210 28q215 0 328 -76t113 -205q0 -62 -29 -117t-65 -87.5t-82.5 -74.5t-67.5 -71q-6 -24 -6 -51q0 -59 32.5 -150.5t65.5 -188.5t33 -169q0 -147 -115.5 -236 t-290.5 -89q-124 0 -221 32q0 61 13 137.5t34 131.5q55 -33 152 -33q6 0 12 17t6 38q0 28 -16.5 68t-36.5 76t-36.5 88t-16.5 100q0 52 21.5 101.5t54 86t70 73.5t70 65.5t54 61.5t21.5 62q0 51 -39 79t-139 28q-74 0 -136 -16q-14 -3 -14 -62q0 -27 3 -103t3 -110 q0 -86 -10 -145l-193 -1088q-78 -10 -143 -10q-153 0 -264 53z" />
<glyph unicode="&#xe0;" horiz-adv-x="1173" d="M31 362q0 158 40 285.5t106.5 207t148.5 121.5t170 42q132 0 225 -96l63 82q44 6 111 6q144 0 238 -23l-132 -682q77 0 117 10l17 -36q-31 -130 -124.5 -214.5t-228.5 -84.5q-142 0 -178 133h-12q-67 -78 -127.5 -105.5t-132.5 -27.5q-130 0 -215.5 100.5t-85.5 281.5z M326 1495h462l-32 -354q-93 -39 -193 -39zM444 346q0 -61 18 -85.5t58 -24.5q35 0 66 14l90 500q-54 16 -113 16q-18 0 -45 -52t-50.5 -154t-23.5 -214z" />
<glyph unicode="&#xe1;" horiz-adv-x="1173" d="M31 362q0 158 40 285.5t106.5 207t148.5 121.5t170 42q132 0 225 -96l63 82q44 6 111 6q144 0 238 -23l-132 -682q77 0 117 10l17 -36q-31 -130 -124.5 -214.5t-228.5 -84.5q-142 0 -178 133h-12q-67 -78 -127.5 -105.5t-132.5 -27.5q-130 0 -215.5 100.5t-85.5 281.5z M444 346q0 -61 18 -85.5t58 -24.5q35 0 66 14l90 500q-54 16 -113 16q-18 0 -45 -52t-50.5 -154t-23.5 -214zM487 1141l97 354h477l-381 -393q-102 0 -193 39z" />
<glyph unicode="&#xe2;" horiz-adv-x="1173" d="M31 362q0 158 40 285.5t106.5 207t148.5 121.5t170 42q132 0 225 -96l63 82q44 6 111 6q144 0 238 -23l-132 -682q77 0 117 10l17 -36q-31 -130 -124.5 -214.5t-228.5 -84.5q-142 0 -178 133h-12q-67 -78 -127.5 -105.5t-132.5 -27.5q-130 0 -215.5 100.5t-85.5 281.5z M319 1178l232 317h358l107 -317q-64 -58 -137 -58l-187 174l-229 -174q-29 0 -70 16t-74 42zM444 346q0 -61 18 -85.5t58 -24.5q35 0 66 14l90 500q-54 16 -113 16q-18 0 -45 -52t-50.5 -154t-23.5 -214z" />
<glyph unicode="&#xe3;" horiz-adv-x="1173" d="M31 362q0 158 40 285.5t106.5 207t148.5 121.5t170 42q132 0 225 -96l63 82q44 6 111 6q144 0 238 -23l-132 -682q77 0 117 10l17 -36q-31 -130 -124.5 -214.5t-228.5 -84.5q-142 0 -178 133h-12q-67 -78 -127.5 -105.5t-132.5 -27.5q-130 0 -215.5 100.5t-85.5 281.5z M291 1165q68 119 113 179t80.5 81t80.5 21q38 0 135 -39t125 -39q25 0 46.5 17t66.5 69l119 -68q-96 -169 -151.5 -224.5t-123.5 -55.5q-38 0 -137 39t-121 39q-26 0 -46.5 -16t-67.5 -70zM444 346q0 -61 18 -85.5t58 -24.5q35 0 66 14l90 500q-54 16 -113 16q-18 0 -45 -52 t-50.5 -154t-23.5 -214z" />
<glyph unicode="&#xe4;" horiz-adv-x="1173" d="M31 362q0 158 40 285.5t106.5 207t148.5 121.5t170 42q132 0 225 -96l63 82q44 6 111 6q144 0 238 -23l-132 -682q77 0 117 10l17 -36q-31 -130 -124.5 -214.5t-228.5 -84.5q-142 0 -178 133h-12q-67 -78 -127.5 -105.5t-132.5 -27.5q-130 0 -215.5 100.5t-85.5 281.5z M305 1282q0 87 55.5 142t135.5 55q75 0 114 -47t39 -132q0 -86 -51 -142t-135 -56q-76 0 -117 49t-41 131zM444 346q0 -61 18 -85.5t58 -24.5q35 0 66 14l90 500q-54 16 -113 16q-18 0 -45 -52t-50.5 -154t-23.5 -214zM748 1282q0 87 55 142t135 55q75 0 114.5 -47 t39.5 -132q0 -86 -51.5 -142t-135.5 -56q-76 0 -116.5 49t-40.5 131z" />
<glyph unicode="&#xe5;" horiz-adv-x="1173" d="M31 362q0 158 40 285.5t106.5 207t148.5 121.5t170 42q132 0 225 -96l63 82q44 6 111 6q144 0 238 -23l-132 -682q77 0 117 10l17 -36q-31 -130 -124.5 -214.5t-228.5 -84.5q-142 0 -178 133h-12q-67 -78 -127.5 -105.5t-132.5 -27.5q-130 0 -215.5 100.5t-85.5 281.5z M406 1296q0 97 74.5 158.5t199.5 61.5q227 0 227 -195q0 -98 -76.5 -158.5t-199.5 -60.5q-225 0 -225 194zM444 346q0 -61 18 -85.5t58 -24.5q35 0 66 14l90 500q-54 16 -113 16q-18 0 -45 -52t-50.5 -154t-23.5 -214zM580 1300q0 -26 17 -42.5t48 -16.5q86 0 86 76 q0 26 -16.5 42.5t-48.5 16.5q-86 0 -86 -76z" />
<glyph unicode="&#xe6;" horiz-adv-x="1513" d="M-4 221q0 134 79 204t257 95l221 31l20 108l-10 7q-189 -41 -270 -41q-77 0 -114.5 41.5t-37.5 113.5q0 106 66 217h620q25 -25 31 -47q95 68 234 68q189 0 290 -100.5t101 -280.5q0 -47 -13 -123l-536 -74v-22q0 -76 50 -121t142 -45q22 0 63.5 14.5t186.5 75.5l29 -137 q-190 -225 -449 -225q-216 0 -329 129q-127 -81 -197 -105t-168 -24q-123 0 -194.5 62t-71.5 179zM369 268q0 -36 20 -57t57 -21q40 0 111 23q-31 61 -31 139q0 17 2 33l-131 -18q-28 -45 -28 -99zM940 604l182 25q2 29 2 84q0 66 -15.5 91t-61.5 25q-26 0 -34 -3.5 t-20 -22.5q-40 -62 -53 -199z" />
<glyph unicode="&#xe7;" horiz-adv-x="829" d="M31 403q0 270 151 442.5t400 172.5q136 0 252 -35q-3 -129 -54 -291q-57 0 -133.5 14.5t-93.5 14.5q-9 0 -22 -9.5t-28 -30.5t-28 -50t-22 -73t-9 -95q0 -195 140 -195q21 0 41.5 8t113.5 50l29 -138q-159 -208 -371 -208q-165 0 -265.5 110.5t-100.5 312.5zM154 -313 q153 7 153 65q0 25 -20.5 40.5t-73.5 25.5l8 41l90 75h113l-14 -24q141 -55 141 -160q0 -98 -99 -148.5t-282 -52.5q-16 60 -16 138z" />
<glyph unicode="&#xe8;" horiz-adv-x="1021" d="M31 401q0 276 154.5 446.5t402.5 170.5q195 0 299 -100.5t104 -280.5q0 -53 -12 -123l-537 -76v-20q0 -76 50.5 -121t142.5 -45q22 0 63.5 14.5t186.5 75.5l28 -137q-190 -225 -448 -225q-196 0 -315 111.5t-119 309.5zM272 1495h463l-33 -354q-93 -39 -192 -39zM449 594 l182 51q2 20 2 68q0 66 -16 91t-62 25q-26 0 -33.5 -3.5t-19.5 -22.5q-43 -67 -53 -209z" />
<glyph unicode="&#xe9;" horiz-adv-x="1021" d="M31 401q0 276 154.5 446.5t402.5 170.5q195 0 299 -100.5t104 -280.5q0 -53 -12 -123l-537 -76v-20q0 -76 50.5 -121t142.5 -45q22 0 63.5 14.5t186.5 75.5l28 -137q-190 -225 -448 -225q-196 0 -315 111.5t-119 309.5zM449 594l182 51q2 20 2 68q0 66 -16 91t-62 25 q-26 0 -33.5 -3.5t-19.5 -22.5q-43 -67 -53 -209zM449 1141l96 354h477l-381 -393q-101 0 -192 39z" />
<glyph unicode="&#xea;" horiz-adv-x="1021" d="M31 401q0 276 154.5 446.5t402.5 170.5q195 0 299 -100.5t104 -280.5q0 -53 -12 -123l-537 -76v-20q0 -76 50.5 -121t142.5 -45q22 0 63.5 14.5t186.5 75.5l28 -137q-190 -225 -448 -225q-196 0 -315 111.5t-119 309.5zM240 1178l231 317h358l107 -317q-64 -58 -137 -58 l-187 174l-229 -174q-29 0 -69.5 16t-73.5 42zM449 594l182 51q2 20 2 68q0 66 -16 91t-62 25q-26 0 -33.5 -3.5t-19.5 -22.5q-43 -67 -53 -209z" />
<glyph unicode="&#xeb;" horiz-adv-x="1021" d="M31 401q0 276 154.5 446.5t402.5 170.5q195 0 299 -100.5t104 -280.5q0 -53 -12 -123l-537 -76v-20q0 -76 50.5 -121t142.5 -45q22 0 63.5 14.5t186.5 75.5l28 -137q-190 -225 -448 -225q-196 0 -315 111.5t-119 309.5zM213 1282q0 87 55 142t135 55q75 0 114.5 -47 t39.5 -132q0 -86 -51 -142t-135 -56q-76 0 -117 49t-41 131zM449 594l182 51q2 20 2 68q0 66 -16 91t-62 25q-26 0 -33.5 -3.5t-19.5 -22.5q-43 -67 -53 -209zM655 1282q0 87 55.5 142t135.5 55q75 0 114 -47t39 -132q0 -86 -51 -142t-135 -56q-76 0 -117 49t-41 131z" />
<glyph unicode="&#xec;" horiz-adv-x="661" d="M37 102l125 650l-31 26q-44 36 -63 80l22 119l535 41l-133 -713q54 0 116 10l17 -36q-41 -153 -138.5 -226t-214.5 -73q-97 0 -150 28.5t-85 93.5zM121 1495h463l-33 -354q-93 -39 -193 -39z" />
<glyph unicode="&#xed;" horiz-adv-x="661" d="M37 102l125 650l-31 26q-44 36 -63 80l22 119l535 41l-133 -713q54 0 116 10l17 -36q-41 -153 -138.5 -226t-214.5 -73q-97 0 -150 28.5t-85 93.5zM240 1141l96 354h477l-381 -393q-101 0 -192 39z" />
<glyph unicode="&#xee;" horiz-adv-x="661" d="M37 102l125 650l-31 26q-44 36 -63 80l22 119l535 41l-133 -713q54 0 116 10l17 -36q-41 -153 -138.5 -226t-214.5 -73q-97 0 -150 28.5t-85 93.5zM90 1180l209 315h322l94 -315q-55 -58 -123 -58l-166 174l-207 -174q-25 0 -62 16t-67 42z" />
<glyph unicode="&#xef;" horiz-adv-x="661" d="M37 102l125 650l-31 26q-44 36 -63 80l22 119l535 41l-133 -713q54 0 116 10l17 -36q-41 -153 -138.5 -226t-214.5 -73q-97 0 -150 28.5t-85 93.5zM92 1282q0 88 48.5 142.5t121.5 54.5q68 0 102.5 -47t34.5 -132t-46.5 -141.5t-119.5 -56.5q-69 0 -105 49t-36 131z M449 1282q0 88 48 142.5t121 54.5q68 0 103 -47t35 -132t-46.5 -141.5t-119.5 -56.5q-69 0 -105 49t-36 131z" />
<glyph unicode="&#xf0;" horiz-adv-x="1095" d="M31 432q0 163 65 297.5t179.5 211.5t254.5 77h45q-24 70 -57 135l-149 -82q-49 42 -60 109l146 80q-47 70 -60 88l246 147q7 -6 42.5 -34t53.5 -44l144 80q48 -39 59 -108l-113 -64q238 -271 238 -668q0 -201 -67.5 -352.5t-201.5 -238t-319 -86.5q-213 0 -329.5 124.5 t-116.5 327.5zM444 362q0 -68 16.5 -97t61.5 -29q15 0 35 4q16 3 35.5 52.5t36 152.5t16.5 227q0 28 -4 86q-45 10 -92 10q-18 0 -42 -52t-43.5 -150t-19.5 -204z" />
<glyph unicode="&#xf1;" horiz-adv-x="1228" d="M29 8l131 744l-31 26q-44 36 -63 80l24 119l500 41l-21 -139h13q97 79 159 109t136 30q126 0 198 -60.5t72 -173.5q0 -31 -8 -75l-78 -404q59 0 117 10l16 -36q-20 -79 -58 -138.5t-86 -93.5t-99.5 -50.5t-106.5 -16.5q-99 0 -151.5 28.5t-84.5 93.5l113 592 q-31 17 -66 17q-41 0 -88 -23l-121 -674q-81 -24 -210 -24q-128 0 -207 18zM315 1165q98 172 153 226.5t122 54.5q38 0 135 -39t125 -39q25 0 46.5 17t66.5 69l118 -68q-96 -170 -151.5 -225t-122.5 -55q-38 0 -137 39t-121 39q-26 0 -47 -16t-68 -70z" />
<glyph unicode="&#xf2;" horiz-adv-x="1103" d="M31 432q0 265 157.5 425.5t417.5 160.5q217 0 342 -124t125 -329q0 -265 -157.5 -425t-417.5 -160q-217 0 -342 123.5t-125 328.5zM303 1495h463l-33 -354q-93 -39 -192 -39zM444 356q0 -131 84 -131q21 0 37 4q15 4 37 62t39.5 157t17.5 195q0 129 -84 129q-20 0 -36 -4 q-15 -4 -37 -61.5t-40 -156t-18 -194.5z" />
<glyph unicode="&#xf3;" horiz-adv-x="1103" d="M31 432q0 265 157.5 425.5t417.5 160.5q217 0 342 -124t125 -329q0 -265 -157.5 -425t-417.5 -160q-217 0 -342 123.5t-125 328.5zM444 356q0 -131 84 -131q21 0 37 4q15 4 37 62t39.5 157t17.5 195q0 129 -84 129q-20 0 -36 -4q-15 -4 -37 -61.5t-40 -156t-18 -194.5z M485 1141l97 354h477l-381 -393q-102 0 -193 39z" />
<glyph unicode="&#xf4;" horiz-adv-x="1103" d="M31 432q0 265 157.5 425.5t417.5 160.5q217 0 342 -124t125 -329q0 -265 -157.5 -425t-417.5 -160q-217 0 -342 123.5t-125 328.5zM276 1178l232 317h358l107 -317q-64 -58 -137 -58l-187 174l-229 -174q-29 0 -70 16t-74 42zM444 356q0 -131 84 -131q21 0 37 4 q15 4 37 62t39.5 157t17.5 195q0 129 -84 129q-20 0 -36 -4q-15 -4 -37 -61.5t-40 -156t-18 -194.5z" />
<glyph unicode="&#xf5;" horiz-adv-x="1103" d="M31 432q0 265 157.5 425.5t417.5 160.5q217 0 342 -124t125 -329q0 -265 -157.5 -425t-417.5 -160q-217 0 -342 123.5t-125 328.5zM242 1165q68 119 113 179t80.5 81t80.5 21q38 0 135 -39t125 -39q25 0 46.5 17t66.5 69l119 -68q-96 -169 -151.5 -224.5t-123.5 -55.5 q-38 0 -137 39t-121 39q-26 0 -47 -16t-68 -70zM444 356q0 -131 84 -131q21 0 37 4q15 4 37 62t39.5 157t17.5 195q0 129 -84 129q-20 0 -36 -4q-15 -4 -37 -61.5t-40 -156t-18 -194.5z" />
<glyph unicode="&#xf6;" horiz-adv-x="1103" d="M31 432q0 265 157.5 425.5t417.5 160.5q217 0 342 -124t125 -329q0 -265 -157.5 -425t-417.5 -160q-217 0 -342 123.5t-125 328.5zM242 1282q0 87 55 142t135 55q75 0 114.5 -47t39.5 -132q0 -86 -51.5 -142t-135.5 -56q-76 0 -116.5 49t-40.5 131zM444 356 q0 -131 84 -131q21 0 37 4q15 4 37 62t39.5 157t17.5 195q0 129 -84 129q-20 0 -36 -4q-15 -4 -37 -61.5t-40 -156t-18 -194.5zM684 1282q0 87 55 142t135 55q75 0 114.5 -47t39.5 -132q0 -86 -51 -142t-135 -56q-76 0 -117 49t-41 131z" />
<glyph unicode="&#xf7;" d="M152 416v166h864v-166h-864zM408 162q0 88 46.5 137t129.5 49q80 0 128 -49.5t48 -136.5q0 -83 -47 -132.5t-129 -49.5q-86 0 -131 49t-45 133zM408 831q0 88 46.5 137.5t129.5 49.5q80 0 128 -50t48 -137q0 -83 -47 -132.5t-129 -49.5q-86 0 -131 49t-45 133z" />
<glyph unicode="&#xf8;" horiz-adv-x="1116" d="M-18 -139l186 231q-137 125 -137 340q0 265 157.5 425.5t417.5 160.5q151 0 260 -64l187 230q19 -2 40.5 -16t28.5 -31l-186 -232q137 -125 137 -340q0 -265 -157.5 -425t-417.5 -160q-155 0 -262 61l-185 -227q-19 2 -40.5 16t-28.5 31zM446 436l209 256q-15 80 -80 80 q-20 0 -36 -4q-21 -7 -52 -109t-41 -223zM449 303q14 -78 79 -78q21 0 37 4q21 5 51.5 107t38.5 223z" />
<glyph unicode="&#xf9;" horiz-adv-x="1222" d="M61 213q0 24 9 76l86 463l-31 26q-45 37 -64 80l25 119l539 41l-138 -715q29 -16 66 -16q35 0 86 22l121 678q89 23 217 23q115 0 201 -17l-123 -688q58 0 116 10l17 -36q-20 -79 -58 -138.5t-86 -93.5t-99.5 -50.5t-106.5 -16.5q-86 0 -132 33.5t-69 105.5h-12 q-97 -79 -160 -109t-137 -30q-126 0 -196.5 60t-70.5 173zM367 1495h462l-32 -354q-93 -39 -193 -39z" />
<glyph unicode="&#xfa;" horiz-adv-x="1222" d="M61 213q0 24 9 76l86 463l-31 26q-45 37 -64 80l25 119l539 41l-138 -715q29 -16 66 -16q35 0 86 22l121 678q89 23 217 23q115 0 201 -17l-123 -688q58 0 116 10l17 -36q-20 -79 -58 -138.5t-86 -93.5t-99.5 -50.5t-106.5 -16.5q-86 0 -132 33.5t-69 105.5h-12 q-97 -79 -160 -109t-137 -30q-126 0 -196.5 60t-70.5 173zM563 1141l96 354h478l-381 -393q-102 0 -193 39z" />
<glyph unicode="&#xfb;" horiz-adv-x="1222" d="M61 213q0 24 9 76l86 463l-31 26q-45 37 -64 80l25 119l539 41l-138 -715q29 -16 66 -16q35 0 86 22l121 678q89 23 217 23q115 0 201 -17l-123 -688q58 0 116 10l17 -36q-20 -79 -58 -138.5t-86 -93.5t-99.5 -50.5t-106.5 -16.5q-86 0 -132 33.5t-69 105.5h-12 q-97 -79 -160 -109t-137 -30q-126 0 -196.5 60t-70.5 173zM342 1178l231 317h359l106 -317q-64 -58 -137 -58l-186 174l-230 -174q-29 0 -69.5 16t-73.5 42z" />
<glyph unicode="&#xfc;" horiz-adv-x="1222" d="M61 213q0 24 9 76l86 463l-31 26q-45 37 -64 80l25 119l539 41l-138 -715q29 -16 66 -16q35 0 86 22l121 678q89 23 217 23q115 0 201 -17l-123 -688q58 0 116 10l17 -36q-20 -79 -58 -138.5t-86 -93.5t-99.5 -50.5t-106.5 -16.5q-86 0 -132 33.5t-69 105.5h-12 q-97 -79 -160 -109t-137 -30q-126 0 -196.5 60t-70.5 173zM322 1282q0 87 55 142t135 55q75 0 114.5 -47t39.5 -132q0 -86 -51.5 -142t-135.5 -56q-76 0 -116.5 49t-40.5 131zM764 1282q0 87 55 142t135 55q75 0 114.5 -47t39.5 -132q0 -86 -51 -142t-135 -56q-76 0 -117 49 t-41 131z" />
<glyph unicode="&#xfd;" horiz-adv-x="1054" d="M12 735q41 140 132.5 211.5t211.5 71.5q164 0 205 -164l17 -518h16l160 412l-86 104l2 12q14 78 55 133h395v-82l-555 -1112l-10 -254q-103 0 -211.5 14t-181.5 38v49q13 49 52 113.5t165 236.5h-135l-103 709q-57 0 -114 -11zM485 1141l97 354h477l-381 -393 q-102 0 -193 39z" />
<glyph unicode="&#xfe;" horiz-adv-x="1153" d="M-55 -420l288 1649l-32 26q-42 35 -62 80l23 119l534 41l-104 -571h12q49 51 97.5 72.5t113.5 21.5q135 0 221 -100.5t86 -284.5q0 -150 -37.5 -275t-101 -206.5t-144 -126.5t-167.5 -45q-136 0 -234 57l-76 -451q-95 -26 -212 -26q-103 0 -205 20zM477 250 q59 -19 105 -19q18 0 47 53t53.5 151t24.5 200q0 64 -18 87t-58 23q-43 0 -70 -20z" />
<glyph unicode="&#xff;" horiz-adv-x="1054" d="M12 735q41 140 132.5 211.5t211.5 71.5q164 0 205 -164l17 -518h16l160 412l-86 104l2 12q14 78 55 133h395v-82l-555 -1112l-10 -254q-103 0 -211.5 14t-181.5 38v49q13 49 52 113.5t165 236.5h-135l-103 709q-57 0 -114 -11zM236 1282q0 87 55 142t135 55 q75 0 114.5 -47t39.5 -132q0 -86 -51.5 -142t-135.5 -56q-76 0 -116.5 49t-40.5 131zM678 1282q0 87 55 142t135 55q75 0 114.5 -47t39.5 -132q0 -86 -51 -142t-135 -56q-76 0 -117 49t-41 131z" />
<glyph unicode="&#x152;" horiz-adv-x="2011" d="M59 606q0 180 56 332.5t154 257t233 163t291 58.5q99 0 190.5 -22.5t153.5 -61.5l12 64h565l301 20l-37 -407q-85 -45 -215 -45h-30l-47 200h-213l-62 -352h406q0 -144 -41 -242l-183 19h-223l-65 -371l258 25l77 200h35q58 0 118 -12.5t93 -32.5l-28 -399h-957l4 33 q-109 -53 -250 -53q-283 0 -439.5 161.5t-156.5 464.5zM535 496q0 -136 49 -194t127 -58q39 0 73 10q13 4 34.5 31.5t47.5 84t49 129.5t38.5 179.5t15.5 222.5q0 136 -49 194t-127 58q-38 0 -74 -10q-13 -4 -34 -31.5t-47.5 -84t-49 -129.5t-38 -179.5t-15.5 -222.5z" />
<glyph unicode="&#x153;" horiz-adv-x="1636" d="M31 432q0 264 143.5 425t370.5 161q211 0 323 -115q140 115 334 115t299 -100.5t105 -280.5q0 -47 -13 -123l-538 -76v-20q0 -76 50.5 -121t141.5 -45q23 0 64.5 14.5t187.5 75.5l29 -137q-190 -225 -449 -225q-179 0 -286 96q-125 -96 -306 -96q-218 0 -337 122.5 t-119 329.5zM444 356q0 -131 84 -131q21 0 37 4q15 4 37 62t39.5 157t17.5 195q0 129 -84 129q-20 0 -36 -4q-15 -4 -37 -61.5t-40 -156t-18 -194.5zM1061 594l184 51q2 20 2 68q0 67 -16 91.5t-64 24.5q-25 0 -32 -3.5t-19 -22.5q-43 -66 -55 -209z" />
<glyph unicode="&#x178;" horiz-adv-x="1286" d="M106 1196l7 33q22 112 67 168h641l-45 -201l-119 -22l88 -406h19l235 406l-108 22l6 33q20 112 68 168h467l-46 -201l-81 -22l-441 -633l-57 -318l115 -22l-7 -33q-18 -108 -67 -168h-643l45 201l106 22l58 318l-228 633zM481 1591q0 69 51 112.5t125 43.5 q71 0 106.5 -37t35.5 -104t-48 -111.5t-124 -44.5q-70 0 -108 38t-38 103zM887 1591q0 69 51 112.5t125 43.5q71 0 106 -36.5t35 -104.5q0 -67 -48 -111.5t-124 -44.5q-70 0 -107.5 38t-37.5 103z" />
<glyph unicode="&#x2c6;" horiz-adv-x="1024" d="M152 1178l231 317h358l107 -317q-64 -58 -137 -58l-187 174l-229 -174q-29 0 -69.5 16t-73.5 42z" />
<glyph unicode="&#x2dc;" horiz-adv-x="1024" d="M117 1165q68 119 113 179t80.5 81t80.5 21q38 0 135 -39t125 -39q25 0 46.5 17t66.5 69l119 -68q-96 -169 -151.5 -224.5t-123.5 -55.5q-38 0 -137 39t-121 39q-26 0 -46.5 -16t-67.5 -70z" />
<glyph unicode="&#x2000;" horiz-adv-x="934" />
<glyph unicode="&#x2001;" horiz-adv-x="1868" />
<glyph unicode="&#x2002;" horiz-adv-x="934" />
<glyph unicode="&#x2003;" horiz-adv-x="1868" />
<glyph unicode="&#x2004;" horiz-adv-x="622" />
<glyph unicode="&#x2005;" horiz-adv-x="467" />
<glyph unicode="&#x2006;" horiz-adv-x="311" />
<glyph unicode="&#x2007;" horiz-adv-x="311" />
<glyph unicode="&#x2008;" horiz-adv-x="233" />
<glyph unicode="&#x2009;" horiz-adv-x="373" />
<glyph unicode="&#x200a;" horiz-adv-x="103" />
<glyph unicode="&#x2010;" horiz-adv-x="686" d="M43 322l63 352h519l-64 -352h-518z" />
<glyph unicode="&#x2011;" horiz-adv-x="686" d="M43 322l63 352h519l-64 -352h-518z" />
<glyph unicode="&#x2012;" horiz-adv-x="686" d="M43 322l63 352h519l-64 -352h-518z" />
<glyph unicode="&#x2013;" horiz-adv-x="1024" d="M35 322l63 352h889l-63 -352h-889z" />
<glyph unicode="&#x2014;" horiz-adv-x="2048" d="M35 322l63 352h1913l-63 -352h-1913z" />
<glyph unicode="&#x2018;" horiz-adv-x="518" d="M106 1090q0 39 13 96l379 323q98 -13 135 -92l-174 -227l73 -57q-2 -122 -63 -191.5t-168 -69.5q-83 0 -139 58t-56 160z" />
<glyph unicode="&#x2019;" horiz-adv-x="518" d="M76 950l174 228l-74 57q2 122 63.5 191t168.5 69q83 0 138.5 -57.5t55.5 -159.5q0 -44 -12 -96l-379 -324q-98 13 -135 92z" />
<glyph unicode="&#x201a;" horiz-adv-x="518" d="M-55 63l174 228l-74 57q2 122 63 191t168 69q83 0 139 -57.5t56 -159.5q0 -43 -12 -96l-379 -324q-98 13 -135 92z" />
<glyph unicode="&#x201c;" horiz-adv-x="995" d="M106 1090q0 39 13 96l379 323q98 -13 135 -92l-174 -227l73 -57q-2 -122 -63 -191.5t-168 -69.5q-83 0 -139 58t-56 160zM584 1090q0 44 12 96l379 323q98 -13 135 -92l-174 -227l74 -57q-2 -122 -63.5 -191.5t-168.5 -69.5q-83 0 -138.5 58t-55.5 160z" />
<glyph unicode="&#x201d;" horiz-adv-x="995" d="M76 950l174 228l-74 57q2 122 63.5 191t168.5 69q83 0 138.5 -57.5t55.5 -159.5q0 -44 -12 -96l-379 -324q-98 13 -135 92zM553 950l174 228l-74 57q2 122 63.5 191t168.5 69q83 0 138.5 -57.5t55.5 -159.5q0 -44 -12 -96l-379 -324q-98 13 -135 92z" />
<glyph unicode="&#x201e;" horiz-adv-x="995" d="M-55 63l174 228l-74 57q2 122 63 191t168 69q83 0 139 -57.5t56 -159.5q0 -43 -12 -96l-379 -324q-98 13 -135 92zM422 63l174 228l-74 57q2 122 63.5 191t168.5 69q83 0 138.5 -57.5t55.5 -159.5q0 -43 -12 -96l-379 -324q-98 13 -135 92z" />
<glyph unicode="&#x2022;" horiz-adv-x="696" d="M39 453q0 167 94.5 269.5t247.5 102.5q133 0 204.5 -75t71.5 -209q0 -166 -95 -268.5t-247 -102.5q-132 0 -204 75t-72 208z" />
<glyph unicode="&#x2026;" horiz-adv-x="1480" d="M-8 162q0 118 68.5 189t177.5 71q83 0 132.5 -50.5t49.5 -133.5q0 -114 -67 -186t-179 -72q-88 0 -135 50.5t-47 131.5zM481 162q0 118 68.5 189t177.5 71q83 0 132.5 -50.5t49.5 -133.5q0 -114 -66.5 -186t-178.5 -72q-88 0 -135.5 50.5t-47.5 131.5zM971 162 q0 118 68.5 189t177.5 71q83 0 132.5 -50.5t49.5 -133.5q0 -114 -67 -186t-179 -72q-88 0 -135 50.5t-47 131.5z" />
<glyph unicode="&#x202f;" horiz-adv-x="373" />
<glyph unicode="&#x2039;" horiz-adv-x="567" d="M6 471l12 68l363 366l235 -20l-198 -373l65 -389l-223 -21z" />
<glyph unicode="&#x203a;" horiz-adv-x="567" d="M-49 123l199 373l-66 389l223 20l254 -368l-12 -68l-363 -367z" />
<glyph unicode="&#x205f;" horiz-adv-x="467" />
<glyph unicode="&#x20ac;" d="M63 485q0 82 25 140h82q6 75 18 149h-75q0 84 24 139h86q76 235 245 369.5t417 134.5q68 0 157.5 -10t151.5 -27q0 -59 -13.5 -141.5t-31.5 -132.5q-62 18 -169.5 32.5t-154.5 14.5q-28 0 -39.5 -4.5t-23.5 -20.5q-53 -69 -94 -215h313q0 -77 -27 -139h-319 q-16 -95 -21 -149h318q0 -78 -27 -140h-297v-20q0 -213 193 -213q67 0 136 26.5t124 71.5q0 -136 -17 -258q-147 -112 -364 -112q-242 0 -372.5 132.5t-139.5 372.5h-105z" />
<glyph unicode="&#x2122;" horiz-adv-x="1853" d="M61 1184l31 213h518l187 10l-47 -223q-54 -23 -119 -23h-21l-18 103l-37 -2l-76 -433l68 -10l-2 -20q-3 -25 -15 -56.5t-24 -46.5h-385l29 123l61 10l74 422l-39 -4l-43 -86h-33q-68 0 -109 23zM700 696l29 123l62 10l106 435l-66 10l3 20q8 63 36 103h332l76 -359 l203 359h356l-29 -123l-69 -10l-56 -435l68 -10l-2 -20q-3 -25 -15 -56.5t-24 -46.5h-375l27 123l76 10l39 295h-11l-243 -428l-113 -10l-92 438h-10l-74 -295l74 -10l-2 -20q-3 -25 -15 -56.5t-24 -46.5h-267z" />
<glyph unicode="&#xe000;" horiz-adv-x="1013" d="M0 0v1014h1014v-1014h-1014z" />
</font>
</defs>
</svg>
