<?xml version="1.0" standalone="no"?>
<!DOCTYPE svg PUBLIC "-//W3C//DTD SVG 1.1//EN" "http://www.w3.org/Graphics/SVG/1.1/DTD/svg11.dtd" >
<svg xmlns="http://www.w3.org/2000/svg">
<metadata></metadata>
<defs>
<font id="malaga_narrow_otreg" horiz-adv-x="798" >
<font-face units-per-em="2048" ascent="1638" descent="-410" />
<missing-glyph horiz-adv-x="368" />
<glyph unicode="&#xfb01;" horiz-adv-x="1001" d="M29 0l16 88l117 23v772l-31 8q-63 17 -82 45v61h113v45q0 107 28.5 196t75 143.5t101 84t110.5 29.5q63 0 105 -29l-17 -118q-54 8 -112 8q-49 0 -80 -8q-8 -3 -13 -15q-26 -63 -26 -336h405l115 21v-907l129 -23v-8q0 -50 -18 -80h-412l16 88l113 23v774h-348v-774 l133 -23v-8q0 -45 -21 -80h-417zM657 1329q0 54 29 84.5t80 30.5q50 0 79 -30.5t29 -84.5q0 -51 -28.5 -83t-79.5 -32q-53 0 -81 31.5t-28 83.5z" />
<glyph unicode="&#xfb02;" horiz-adv-x="1001" d="M29 0l16 88l117 23v772l-31 8q-63 17 -82 45v61h113v45q0 205 113 329t290 124q84 0 176 -18l113 18v-1384l129 -23v-8q0 -50 -18 -80h-412l16 88l113 23v1232q-93 11 -160 11q-68 0 -125 -13q-9 -3 -16 -14q-18 -32 -32.5 -115.5t-14.5 -214.5h188q6 -30 6 -55 q0 -22 -6 -57h-188v-774l133 -23v-8q0 -45 -21 -80h-417z" />
<glyph horiz-adv-x="2048" />
<glyph horiz-adv-x="2048" />
<glyph unicode="&#xd;" horiz-adv-x="2048" />
<glyph unicode=" "  horiz-adv-x="368" />
<glyph unicode="&#x09;" horiz-adv-x="368" />
<glyph unicode="&#xa0;" horiz-adv-x="368" />
<glyph unicode="!" horiz-adv-x="497" d="M139 111q0 61 29.5 96t79.5 35q51 0 80.5 -35t29.5 -96q0 -59 -28.5 -95t-79.5 -36q-53 0 -82 36t-29 95zM141 1397q67 20 215 20l-61 -1001h-94z" />
<glyph unicode="&#x22;" horiz-adv-x="509" d="M20 1475h199l-55 -521q-24 -8 -45 -8q-17 0 -45 8zM291 1475h198l-55 -521q-24 -8 -45 -8q-17 0 -45 8z" />
<glyph unicode="#" horiz-adv-x="860" d="M53 426q0 68 25 145l145 21l31 194l-164 -22q0 68 25 145l161 23l72 465q21 6 49 6q34 0 52 -6l-70 -451l162 23l65 428q21 6 49 6q34 0 52 -6l-64 -414l162 25q0 -61 -25 -146l-159 -22l-31 -197l178 27q0 -61 -25 -146l-176 -26l-75 -498q-18 -6 -50 -6q-33 0 -51 6 l74 483l-162 -22l-70 -461q-18 -6 -49 -6q-33 0 -51 6l68 446zM326 606l161 23l31 196l-162 -24z" />
<glyph unicode="$" horiz-adv-x="860" d="M139 965q0 109 58 199.5t163 125.5l50 262q12 4 28 4q29 0 43 -14l-45 -235q28 4 49 4q29 0 45 -2l45 243q12 4 29 4q29 0 43 -14l-47 -246q36 -8 78 -22v-270q-26 -23 -66 -23h-12l-37 190q-66 19 -143 19q-53 0 -74 -8q-15 -6 -36 -52t-21 -100q0 -57 24 -100.5 t62 -72.5t84 -55.5t92 -57.5t84 -69.5t62 -100t24 -140.5q0 -129 -70 -223t-196 -117l-47 -258q-12 -4 -29 -4q-29 0 -43 14l45 242q-30 0 -92 8l-47 -260q-12 -4 -29 -4q-29 0 -43 14l49 267q-43 12 -78 30v275q25 22 68 22h10l39 -202q96 -29 186 -29q52 0 72 8 q16 8 35.5 55t19.5 103q0 58 -24 104.5t-62 77.5t-84 59.5t-92 59.5t-84 67.5t-62 93t-24 128.5z" />
<glyph unicode="%" horiz-adv-x="1230" d="M51 1057q0 170 71 265t187 95q118 0 187 -93t69 -267q0 -176 -72 -269.5t-186 -93.5q-118 0 -187 94t-69 269zM203 1055q0 -152 25.5 -212.5t86.5 -60.5q26 0 47 9q10 4 21 28.5t21 88t10 149.5q0 151 -26 211.5t-87 60.5q-28 0 -47 -8q-10 -4 -20.5 -28.5t-20.5 -88 t-10 -149.5zM258 0l608 1417q26 0 57.5 -7.5t45.5 -20.5l-609 -1418q-24 0 -55 8t-47 21zM666 342q0 170 71 265t187 95q118 0 187 -93t69 -267q0 -176 -72 -269t-186 -93q-118 0 -187 93.5t-69 268.5zM817 340q0 -151 26 -211.5t87 -60.5q28 0 47 8q10 4 20.5 28.5t20.5 88 t10 149.5q0 151 -26 211.5t-87 60.5q-28 0 -47 -8q-10 -4 -20.5 -28.5t-20.5 -88t-10 -149.5z" />
<glyph unicode="&#x26;" horiz-adv-x="1138" d="M57 303q0 237 234 432q-76 146 -76 283q0 187 88.5 293t237.5 106q102 0 167.5 -62t65.5 -167q0 -91 -59 -188t-213 -234q94 -156 239 -383q52 98 117 276l-121 23v14q0 46 19 84h325l-16 -98l-68 -23q-87 -233 -184 -387l172 -252q-9 -17 -49.5 -34t-61.5 -19 q-104 120 -151 180q-145 -167 -324 -167q-154 0 -248 93t-94 230zM258 336q0 -115 46.5 -174.5t131.5 -59.5q112 0 215 134q-108 134 -297 393q-96 -122 -96 -293zM397 1090q0 -112 49 -220q109 101 154 170.5t45 139.5q0 127 -129 127q-41 0 -70 -13q-16 -7 -32.5 -66 t-16.5 -138z" />
<glyph unicode="'" horiz-adv-x="239" d="M20 1475h199l-55 -521q-24 -8 -45 -8q-17 0 -45 8z" />
<glyph unicode="(" horiz-adv-x="475" d="M74 563q0 423 93 633t298 236q21 -46 24 -93q-67 -14 -109.5 -59t-70 -138t-38.5 -231t-11 -348t11 -348t38.5 -231t70 -138t109.5 -59q-7 -52 -24 -92q-205 26 -298 237t-93 631z" />
<glyph unicode=")" horiz-adv-x="475" d="M-14 -213q67 14 109.5 59t70 138t38.5 231t11 348t-11 348t-38.5 231t-70 138t-109.5 59q7 54 24 93q205 -26 298 -237.5t93 -631.5q0 -423 -93 -632.5t-298 -235.5q-21 46 -24 92z" />
<glyph unicode="*" horiz-adv-x="618" d="M12 1149q0 37 15 84t39 80l204 -135l-43 305q24 12 82 12t82 -12l-43 -305l205 135q24 -32 38.5 -79.5t14.5 -84.5l-235 -49l192 -215q-14 -30 -53.5 -60.5t-83.5 -42.5l-117 265l-116 -265q-43 10 -83.5 41.5t-54.5 61.5l193 215z" />
<glyph unicode="+" d="M82 428v139h250v398h135v-398h250v-139h-250v-397h-135v397h-250z" />
<glyph unicode="," horiz-adv-x="368" d="M-12 -330l157 389l-77 62q0 77 27 120.5t79 43.5q54 0 90.5 -51.5t36.5 -167.5l-240 -435q-53 4 -73 39z" />
<glyph unicode="-" horiz-adv-x="382" d="M43 424v149h297v-149h-297z" />
<glyph unicode="." horiz-adv-x="368" d="M68 119q0 64 30.5 101.5t83.5 37.5q54 0 85.5 -37.5t31.5 -101.5q0 -62 -30.5 -100.5t-84.5 -38.5q-55 0 -85.5 38.5t-30.5 100.5z" />
<glyph unicode="/" horiz-adv-x="526" d="M0 -55l397 1554q32 0 71.5 -13.5t57.5 -33.5l-397 -1554q-34 0 -73 12.5t-56 34.5z" />
<glyph unicode="0" horiz-adv-x="831" d="M43 553q0 155 29 269.5t81.5 181t118 98t144.5 31.5q372 0 372 -574q0 -157 -29 -272t-81.5 -180.5t-117 -96t-144.5 -30.5q-373 0 -373 573zM201 553q0 -221 51.5 -322.5t163.5 -101.5q72 0 127 23q37 15 62.5 114.5t25.5 292.5q0 221 -51.5 322.5t-163.5 101.5 q-74 0 -127 -22q-37 -15 -62.5 -116t-25.5 -292z" />
<glyph unicode="1" horiz-adv-x="575" d="M45 0l16 96l148 21v866l-57 23q-36 14 -51 27t-23 32v47h315v-995l142 -21v-10q0 -56 -19 -86h-471z" />
<glyph unicode="2" horiz-adv-x="755" d="M63 0v145q221 181 310.5 317t89.5 275q0 112 -51.5 180t-139.5 68q-92 0 -151 -92l-55 29q37 106 102 158.5t176 52.5q133 0 227.5 -100t94.5 -267q0 -142 -97 -280.5t-327 -321.5v-12q282 36 372 36q93 0 93 -96q0 -49 -15 -92h-629z" />
<glyph unicode="3" horiz-adv-x="724" d="M31 922q76 211 282 211q142 0 236 -102t94 -269q0 -119 -54.5 -200t-139.5 -118v-16q92 -26 157.5 -107t65.5 -206q0 -131 -83.5 -226t-222.5 -142.5t-319 -51.5q-12 43 -12 100q225 24 328.5 104t103.5 214q0 126 -64.5 187.5t-181.5 61.5h-100v115h100q107 0 164 68 t57 196q0 119 -51.5 180.5t-144.5 61.5q-97 0 -158 -90z" />
<glyph unicode="4" horiz-adv-x="782" d="M33 31v205l362 897q25 0 65.5 -14.5t57.5 -31.5l-373 -911h328v467h184v-467h93v-12q0 -75 -25 -133h-68v-316h-184v316h-440z" />
<glyph unicode="5" horiz-adv-x="706" d="M41 -205q202 14 312 96.5t110 225.5q0 114 -65.5 175.5t-174.5 61.5q-63 0 -129 -16v774h549q0 -112 -21 -150t-73 -38q-66 0 -322 32l-22 -442q36 8 80 8q166 0 273.5 -103.5t107.5 -275.5q0 -210 -165 -326t-448 -122q-12 43 -12 100z" />
<glyph unicode="6" horiz-adv-x="792" d="M45 461q0 125 34 249.5t103.5 248.5t188 242t276.5 216q14 -11 31.5 -36t21.5 -42q-192 -166 -291 -309t-133 -297h11q66 74 172 74q55 0 105.5 -25.5t91 -73.5t65 -126t24.5 -176q0 -194 -99 -310t-253 -116q-158 0 -253 130t-95 351zM244 391q0 -161 39 -231t116 -70 q52 0 86 19q15 7 29 32t26.5 90.5t12.5 159.5q0 145 -46.5 220t-127.5 75q-75 0 -123 -65q-12 -79 -12 -230z" />
<glyph unicode="7" horiz-adv-x="733" d="M6 1026q0 36 8 86h697v-162l-449 -1255q-98 0 -143 18l452 1252q-356 -41 -473 -41q-92 0 -92 102z" />
<glyph unicode="8" horiz-adv-x="761" d="M53 279q0 180 140 311l86 80q-67 50 -112 100t-76.5 124t-31.5 161q0 155 91.5 258.5t234.5 103.5q142 0 228.5 -85t86.5 -232q0 -134 -131 -262l-84 -80q104 -81 164 -179.5t60 -238.5q0 -163 -93.5 -261.5t-240.5 -98.5q-146 0 -234 82.5t-88 216.5zM207 291 q0 -97 48 -149t124 -52q64 0 115 25q16 8 33.5 55.5t17.5 114.5q0 107 -48.5 181.5t-154.5 154.5q-86 -103 -110.5 -168.5t-24.5 -161.5zM223 1108q0 -87 45.5 -153.5t153.5 -147.5q71 74 99 138t28 142q0 106 -47.5 163t-120.5 57q-57 0 -100 -21q-22 -10 -40 -61t-18 -117 z" />
<glyph unicode="9" horiz-adv-x="792" d="M47 707q0 194 99 310t253 116q158 0 253.5 -130.5t95.5 -351.5q0 -125 -34 -249.5t-104 -248.5t-188.5 -242t-276.5 -216q-14 11 -31.5 36t-21.5 42q192 166 291 309t133 297h-10q-66 -74 -172 -74q-55 0 -105.5 25.5t-91.5 73.5t-65.5 126.5t-24.5 176.5zM240 721 q0 -145 46.5 -220t127.5 -75q74 0 123 66q12 79 12 229q0 161 -39.5 231t-116.5 70q-54 0 -86 -18q-15 -7 -29 -32t-26 -91t-12 -160z" />
<glyph unicode=":" horiz-adv-x="409" d="M88 119q0 64 31 101.5t84 37.5q54 0 85 -37t31 -102q0 -62 -30 -100.5t-84 -38.5q-55 0 -86 38.5t-31 100.5zM88 879q0 64 31 101.5t84 37.5q54 0 85 -37t31 -102q0 -62 -30 -101t-84 -39q-55 0 -86 39t-31 101z" />
<glyph unicode=";" horiz-adv-x="409" d="M6 -330l158 389l-78 62q0 76 27.5 120t79.5 44q54 0 90 -51.5t36 -167.5l-239 -435q-54 4 -74 39zM90 879q0 64 31 101.5t84 37.5q54 0 85.5 -37.5t31.5 -101.5q0 -62 -30.5 -101t-84.5 -39q-55 0 -86 39t-31 101z" />
<glyph unicode="&#x3c;" d="M100 498l420 467h178l-419 -461l419 -473h-182z" />
<glyph unicode="=" d="M82 231v140h635v-140h-635zM82 627v139h635v-139h-635z" />
<glyph unicode="&#x3e;" d="M100 31l420 461l-420 473h183l415 -467l-419 -467h-179z" />
<glyph unicode="?" horiz-adv-x="696" d="M78 1214q64 203 254 203q115 0 198.5 -91t83.5 -251q0 -139 -78.5 -237t-213.5 -154l-13 -268h-73l-89 211q0 50 23 88q252 94 252 325q0 114 -41.5 177t-120.5 63q-93 0 -143 -86zM162 111q0 61 29 96t79 35q51 0 81 -35t30 -96q0 -58 -29 -94.5t-80 -36.5 q-53 0 -81.5 36t-28.5 95z" />
<glyph unicode="@" horiz-adv-x="1376" d="M63 254q0 175 29 329t80.5 269t120 206t148 148.5t164 87t169.5 29.5t162 -19.5t146.5 -64t120.5 -109.5t80.5 -162.5t29.5 -217.5q0 -146 -22.5 -270.5t-60.5 -211t-88 -148.5t-105 -91t-111 -29q-51 0 -94 31t-68 92h-8q-54 -69 -97 -96t-100 -27q-88 0 -149.5 80 t-61.5 227q0 102 21.5 198.5t58.5 171t83.5 131.5t98.5 87.5t101 30.5q63 0 97.5 -31t65.5 -94l64 117q12 4 35 4q41 0 80 -23l-162 -743q17 -39 63 -39q40 0 81 43.5t76 121.5t57 201t22 267q0 228 -115.5 339t-306.5 111q-81 0 -162 -35t-157 -110.5t-134.5 -181 t-93.5 -259t-35 -333.5q0 -155 32 -266.5t89 -172.5t125.5 -88.5t153.5 -27.5q58 0 123.5 15.5t95.5 37.5l-14 -115q-37 -30 -97 -46.5t-121 -16.5q-80 0 -152.5 22t-138.5 72.5t-114 124.5t-76.5 185.5t-28.5 248.5zM514 324q0 -201 107 -201q56 0 129 78l118 563 q-98 43 -163 43q-24 0 -56.5 -40.5t-62.5 -105t-51 -156t-21 -181.5z" />
<glyph unicode="A" horiz-adv-x="952" d="M-41 0l16 98l68 23l379 1276l117 20l366 -1296l88 -23v-14q0 -54 -18 -84h-418l16 98l132 23l-105 405l-313 -20l-99 -385l140 -23v-14q0 -49 -21 -84h-348zM315 618h260l-122 465h-17z" />
<glyph unicode="B" horiz-adv-x="993" d="M53 0l17 98l125 23v1155l-142 22v15q0 49 21 84h458q168 0 262.5 -100t94.5 -263q0 -114 -52 -192.5t-139 -110.5v-16q102 -29 169 -120.5t67 -215.5q0 -174 -108.5 -276.5t-268.5 -102.5h-504zM387 121l150 -23q92 9 145 86t53 193q0 138 -67 209t-197 71h-84v-536z M387 750l197 14q51 34 81.5 105.5t30.5 160.5q0 122 -52 191t-152 69h-105v-540z" />
<glyph unicode="C" horiz-adv-x="991" d="M74 688q0 159 37.5 292.5t108 230.5t177 151.5t238.5 54.5q140 0 256 -41v-397q-14 -11 -40.5 -18t-45.5 -7h-12l-62 312q-68 20 -164 20q-89 0 -147 -18q-26 -8 -55.5 -74t-53.5 -203t-24 -303q0 -573 321 -573q71 0 127 18l62 289h12q20 0 47 -7t39 -18v-305 q-112 -112 -307 -112q-232 0 -373 190t-141 518z" />
<glyph unicode="D" horiz-adv-x="1122" d="M53 0l17 98l125 23v1155l-142 22v15q0 49 21 84h461q107 0 199 -43t163 -127t111.5 -219.5t40.5 -309.5q0 -159 -45 -294.5t-117 -221.5t-159.5 -134t-176.5 -48h-498zM387 127l166 -23q63 12 113 51t89 108.5t60 180t21 254.5q0 586 -320 586h-129v-1157z" />
<glyph unicode="E" horiz-adv-x="948" d="M53 0l17 98l125 23v1155l-142 22v15q0 49 21 84h551l194 20v-368q-14 -11 -40.5 -18t-45.5 -7h-12l-59 254h-275v-510h295q4 -36 4 -66q0 -25 -4 -65l-129 12h-166v-540l295 18l61 270h13q19 0 46.5 -6.5t39.5 -17.5v-373h-789z" />
<glyph unicode="F" horiz-adv-x="909" d="M53 0l17 104l125 23v1149l-142 22v15q0 49 21 84h575l195 20v-385q-30 -24 -86 -24h-13l-59 270h-299v-543h373q4 -36 4 -65q0 -26 -4 -66l-129 12h-244v-489l162 -23v-14q0 -55 -21 -90h-475z" />
<glyph unicode="G" horiz-adv-x="1089" d="M74 688q0 118 20.5 224t65 199t109.5 160.5t158.5 106.5t207.5 39q166 0 297 -41v-389q-30 -24 -86 -24h-12l-58 301q-80 22 -201 22q-97 0 -155 -18q-19 -6 -41 -47t-43 -111t-35 -182t-14 -240q0 -297 79.5 -435t247.5 -138q72 0 131 16v393l-145 23v14q0 49 21 84h389 l-15 -98l-57 -23v-524l-18 -20l-138 51q-91 -51 -194 -51q-237 0 -375.5 189t-138.5 519z" />
<glyph unicode="H" horiz-adv-x="1204" d="M53 0l17 98l125 23v1155l-142 22v15q0 49 21 84h454l-16 -99l-125 -22v-508h422v508l-141 22v15q0 51 20 84h455l-17 -99l-125 -22v-1155l142 -23v-14q0 -49 -21 -84h-454l16 98l125 23v526h-422v-526l141 -23v-14q0 -51 -20 -84h-455z" />
<glyph unicode="I" horiz-adv-x="589" d="M53 0l17 98l125 23v1155l-142 22v15q0 49 21 84h454l-16 -99l-125 -22v-1155l141 -23v-14q0 -51 -20 -84h-455z" />
<glyph unicode="J" horiz-adv-x="563" d="M49 1298v15q0 49 21 84h450l-16 -99l-117 -22v-1133q0 -101 -18.5 -168.5t-69.5 -158.5l-145 -267q-58 0 -86 31l127 400v1296z" />
<glyph unicode="K" horiz-adv-x="1089" d="M53 0l17 98l125 23v1155l-142 22v15q0 49 21 84h446l-16 -99l-117 -22v-621h16l392 621l-129 22v15q0 51 20 84h383l-16 -99l-99 -22l-288 -422l352 -829q-19 -22 -52.5 -37t-64.5 -15l-375 676l-139 -200v-328l133 -23v-14q0 -51 -20 -84h-447z" />
<glyph unicode="L" horiz-adv-x="903" d="M53 0l17 98l125 23v1155l-142 22v15q0 49 21 84h467l-17 -99l-137 -22v-1167l297 18l61 311h13q19 0 47.5 -6.5t40.5 -17.5v-414h-793z" />
<glyph unicode="M" horiz-adv-x="1468" d="M45 0l16 98l117 23l47 1155l-149 22v15q0 51 20 84h365l270 -1051l289 1051h383l-17 -99l-135 -22q21 -783 31 -1155l141 -23v-14q0 -51 -20 -84h-451l17 98l127 23l-17 983h-16l-305 -1104l-99 -20l-292 1124h-17l-33 -983l150 -23v-14q0 -49 -21 -84h-401z" />
<glyph unicode="N" horiz-adv-x="1196" d="M53 0l17 98l125 23q8 777 12 1155l-141 22v15q0 51 20 84h328l446 -979h17v858l-175 22v15q0 49 21 84h422l-17 -99l-108 -22l-12 -1276l-115 -20l-539 1122h-16v-981l164 -23v-14q0 -49 -21 -84h-428z" />
<glyph unicode="O" horiz-adv-x="1120" d="M74 698q0 169 39 307t106 227t153.5 137t184.5 48q104 0 192.5 -45.5t155 -133.5t104.5 -226.5t38 -313.5q0 -139 -26 -256.5t-71.5 -201.5t-107 -143.5t-132.5 -88t-147 -28.5q-104 0 -192 45.5t-155 133t-104.5 226t-37.5 313.5zM287 698q0 -314 69 -456t207 -142 q131 0 201 152t70 446q0 314 -69 456t-208 142q-131 0 -200.5 -152t-69.5 -446z" />
<glyph unicode="P" horiz-adv-x="968" d="M53 0l17 98l125 23v1155l-142 22v15q0 49 21 84h448q176 0 280.5 -110.5t104.5 -285.5q0 -168 -91.5 -274.5t-256.5 -132.5l-172 -27v-446l152 -23v-14q0 -52 -19 -84h-467zM387 686l203 16q54 44 86.5 120t32.5 179q0 131 -56.5 210t-156.5 79h-109v-604z" />
<glyph unicode="Q" horiz-adv-x="1120" d="M74 698q0 169 39 307t106 227t153.5 137t184.5 48q104 0 192.5 -45.5t155 -133.5t104.5 -226.5t38 -313.5q0 -125 -22 -232.5t-55.5 -180.5t-78 -130t-85.5 -88.5t-83 -48.5v-12l225 -319q-17 -24 -44.5 -41.5t-51.5 -22.5l-369 367q-83 14 -155 63t-130 133t-91 215.5 t-33 296.5zM287 698q0 -314 69 -456t207 -142q131 0 201 152t70 446q0 314 -69 456t-208 142q-131 0 -200.5 -152t-69.5 -446z" />
<glyph unicode="R" horiz-adv-x="1005" d="M53 0l17 98l125 23v1155l-142 22v15q0 49 21 84h446q171 0 272 -107.5t101 -271.5q0 -109 -50 -205t-145 -151l287 -637q-18 -22 -51 -36t-60 -16l-372 621l-115 -16v-457l133 -23v-14q0 -51 -20 -84h-447zM387 698l197 13q110 88 110 301q0 124 -53.5 201t-146.5 77 h-107v-592z" />
<glyph unicode="S" horiz-adv-x="813" d="M82 51v326q30 24 86 24h12l58 -251q31 -20 82.5 -34t95.5 -14q47 0 76 11q9 4 24 28t29 69t14 93q0 68 -26.5 123.5t-68.5 94.5t-93 75t-101.5 74.5t-92.5 83t-68.5 110t-26.5 146.5q0 175 107 291t290 116q45 0 108.5 -10.5t110.5 -28.5v-323q-14 -11 -40.5 -18 t-45.5 -7h-12l-57 240q-66 24 -148 24q-51 0 -78 -10q-23 -8 -43 -66.5t-20 -125.5q0 -63 26.5 -114.5t68.5 -88.5t92.5 -72t101.5 -75.5t93 -87.5t68.5 -119t26.5 -160q0 -168 -107.5 -281.5t-275.5 -113.5q-157 0 -266 71z" />
<glyph unicode="T" horiz-adv-x="958" d="M37 1085v312h696l209 20l-29 -332q-30 -24 -86 -24h-12l-41 225l-199 -6v-1159l142 -23v-14q0 -49 -21 -84h-454l16 98l125 23v1153l-188 -6l-60 -207h-12q-19 0 -46.5 6.5t-39.5 17.5z" />
<glyph unicode="U" horiz-adv-x="1142" d="M59 1298v15q0 49 21 84h430l-16 -99l-127 -22v-846q0 -166 53.5 -235.5t181.5 -69.5q125 0 180.5 70t55.5 235v846l-154 22v15q0 49 21 84h380l-16 -99l-92 -22v-844q0 -452 -404 -452q-192 0 -295.5 110.5t-103.5 341.5v844z" />
<glyph unicode="V" horiz-adv-x="931" d="M-57 1298v15q0 51 20 84h426l-16 -99l-137 -22l251 -946h17l248 946l-146 22v15q0 49 21 84h356l-16 -99l-70 -22l-381 -1276l-113 -20l-368 1296z" />
<glyph unicode="W" horiz-adv-x="1546" d="M-31 1298v15q0 49 21 84h426l-15 -99l-137 -22l201 -928h16l213 928l-129 22v15q0 49 21 84h438l-14 -99l-107 -22l215 -928h17l196 928l-143 22v15q0 54 18 84h367l-14 -99l-82 -22l-314 -1276l-125 -20l-258 1056h-16l-264 -1036l-123 -20l-307 1296z" />
<glyph unicode="X" horiz-adv-x="985" d="M-14 0l16 98l84 23l305 569l-299 586l-96 22v15q0 51 20 84h435l-17 -99l-125 -22l209 -447l219 447l-131 22v15q0 52 19 84h366l-14 -99l-84 -22l-299 -545l307 -610l98 -23v-14q0 -51 -20 -84h-436l16 98l125 23l-217 471l-225 -471l131 -23v-14q0 -49 -21 -84h-366z " />
<glyph unicode="Y" horiz-adv-x="860" d="M-29 1298v15q0 49 21 84h414l-17 -99l-119 -22l191 -528h16l195 528l-127 22v15q0 51 20 84h320l-17 -99l-53 -22l-289 -696v-459l142 -23v-14q0 -49 -21 -84h-454l16 98l125 23v459l-275 696z" />
<glyph unicode="Z" horiz-adv-x="997" d="M72 0v70l569 1208h-375l-59 -297h-12q-18 0 -46 7t-40 18v411l194 -20h578v-70l-596 -1218l450 18l62 338h12q18 0 46 -7t40 -18v-440h-823z" />
<glyph unicode="[" horiz-adv-x="600" d="M195 -291v1708h340l-23 -112l-147 -11v-1462l170 -10l-23 -113h-317z" />
<glyph unicode="\" horiz-adv-x="526" d="M0 1452q18 20 57.5 33.5t71.5 13.5l397 -1554q-17 -22 -56 -34.5t-73 -12.5z" />
<glyph unicode="]" horiz-adv-x="600" d="M66 -291l22 113l148 10v1462l-170 11l22 112h318v-1708h-340z" />
<glyph unicode="^" d="M39 492l287 751h147l287 -751q-12 -9 -39.5 -16t-52.5 -7l-275 559l-264 -559q-57 0 -90 23z" />
<glyph unicode="_" horiz-adv-x="768" d="M0 -129h768v-150h-768v150z" />
<glyph unicode="`" d="M254 1495h211l78 -354q-10 -8 -34.5 -14.5t-39.5 -6.5z" />
<glyph unicode="a" horiz-adv-x="774" d="M41 229q0 112 58 178.5t159 84.5l205 36v338q-183 -35 -268 -35q-52 0 -73.5 19t-21.5 68q0 35 19 79h444q68 -87 68 -249l-6 -619q26 -29 71 -29q24 0 39 6v-32q-26 -94 -123 -94q-95 0 -135 98q-72 -57 -118.5 -77.5t-98.5 -20.5q-95 0 -157 63t-62 186zM217 248 q0 -69 30.5 -108.5t86.5 -39.5q62 0 129 29v320l-215 -74q-31 -53 -31 -127z" />
<glyph unicode="b" horiz-adv-x="925" d="M51 1386v41l268 68v-592h13q86 115 213 115q136 0 226.5 -125t90.5 -354q0 -241 -121.5 -400t-294.5 -159q-75 0 -159.5 18.5t-139.5 44.5v1270l-28 16q-36 22 -48 32t-20 25zM319 129q97 -33 197 -33q21 0 48 31t51.5 83.5t41.5 136t17 175.5q0 164 -51.5 256t-149.5 92 q-88 0 -154 -63v-678z" />
<glyph unicode="c" horiz-adv-x="698" d="M63 485q0 258 109.5 395.5t280.5 137.5q81 0 178 -33q0 -66 -15 -158q-55 22 -136 37t-138 15q-38 0 -64 -112t-26 -261q0 -191 51.5 -285t159.5 -94q99 0 172 92l24 -45q-59 -194 -247 -194q-153 0 -251 138t-98 367z" />
<glyph unicode="d" horiz-adv-x="925" d="M63 459q0 242 115 400.5t285 158.5q89 0 143 -14v309l-28 16q-36 22 -48 32t-20 25v41l268 68v-1384l129 -23v-8q0 -50 -18 -80l-273 -20l13 133h-13q-98 -133 -235 -133q-139 0 -228.5 127.5t-89.5 351.5zM252 475q0 -164 51 -256t148 -92q89 0 155 63v682 q-114 29 -203 29q-14 0 -32.5 -14t-39.5 -47t-38.5 -80t-29 -122t-11.5 -163z" />
<glyph unicode="e" horiz-adv-x="774" d="M63 485q0 149 49.5 272t131.5 192t178 69q131 0 208 -93.5t77 -285.5q0 -47 -7 -98h-450q0 -414 242 -414q109 0 182 92l24 -45q-32 -96 -93 -145t-165 -49q-162 0 -269.5 140t-107.5 365zM252 621l295 18v20q0 122 -32.5 186t-106.5 64q-31 0 -58 -8q-22 -7 -56 -92.5 t-42 -187.5z" />
<glyph unicode="f" horiz-adv-x="577" d="M29 0l16 88l117 23v772l-31 8q-63 17 -82 45v61h113v45q0 107 28.5 196t75 143.5t101 84t110.5 29.5q63 0 105 -29l-17 -118q-54 8 -112 8q-49 0 -80 -8q-8 -3 -13 -15q-26 -63 -26 -336h207q6 -30 6 -55q0 -22 -6 -57h-207v-774l153 -23v-8q0 -47 -20 -80h-438z" />
<glyph unicode="g" horiz-adv-x="776" d="M33 -262q0 50 28 97.5t113 129.5v8q-100 47 -100 156q0 64 33.5 115t115.5 110q-145 85 -145 295q0 169 83.5 269t213.5 100q57 0 110 -21h246v-67q-37 -37 -117 -37v-12q62 -85 62 -224q0 -150 -82.5 -251t-212.5 -101q-50 0 -96 17q-32 -24 -52 -58.5t-20 -68.5 q0 -44 23 -74h247q258 0 258 -221q0 -136 -122.5 -243.5t-296.5 -107.5q-137 0 -213 51t-76 138zM186 -209q0 -54 47 -85.5t140 -31.5q71 0 136 23t99 59q13 29 13 68q0 58 -36.5 88.5t-127.5 34.5l-219 10q-52 -90 -52 -166zM252 666q0 -133 31 -198t100 -65q28 0 55 9 q26 8 45 73.5t19 173.5q0 133 -31 197t-100 64q-29 0 -56 -9q-26 -8 -44.5 -72.5t-18.5 -172.5z" />
<glyph unicode="h" horiz-adv-x="962" d="M23 0l16 88l117 23v1202l-29 16q-36 22 -48 32t-20 25v41l269 68v-606h12q101 129 238 129q110 0 173.5 -61t63.5 -179v-667l119 -23v-8q0 -45 -21 -80h-385l15 88l100 23v696q-43 61 -135 61q-101 0 -180 -65v-692l110 -23v-8q0 -47 -20 -80h-395z" />
<glyph unicode="i" horiz-adv-x="481" d="M29 0l16 88l117 23v725l-29 16q-36 21 -47.5 31.5t-19.5 25.5v41l268 68v-907l129 -23v-8q0 -48 -19 -80h-415zM137 1329q0 54 29 84.5t80 30.5q50 0 79 -30.5t29 -84.5q0 -51 -28.5 -83t-79.5 -32q-53 0 -81 31.5t-28 83.5z" />
<glyph unicode="j" horiz-adv-x="454" d="M47 -430l103 407v859l-29 16q-36 22 -48 32t-20 25v41l269 68v-875q0 -121 -9.5 -182t-48.5 -139l-141 -273q-52 0 -76 21zM125 1329q0 54 28.5 84.5t79.5 30.5q50 0 79.5 -30.5t29.5 -84.5q0 -51 -29 -83t-80 -32q-53 0 -80.5 31.5t-27.5 83.5z" />
<glyph unicode="k" horiz-adv-x="882" d="M23 0l16 88l117 23v1202l-29 16q-36 22 -48 32t-20 25v41l269 68v-1016h10l268 408l-117 22v9q0 44 21 79h350l-14 -88l-86 -22l-195 -260l262 -607q-16 -20 -49 -33.5t-59 -13.5l-285 480l-106 -140v-202l116 -23v-8q0 -47 -20 -80h-401z" />
<glyph unicode="l" horiz-adv-x="475" d="M23 0l16 88l117 23v1202l-29 16q-36 22 -48 32t-20 25v41l269 68v-1384l129 -23v-8q0 -48 -19 -80h-415z" />
<glyph unicode="m" horiz-adv-x="1411" d="M29 0l16 88l117 23v725l-29 16q-36 21 -47.5 31.5t-19.5 25.5v41l247 68l15 -135h12q62 76 117 105.5t123 29.5q74 0 127 -38t77 -103q67 80 123.5 110.5t128.5 30.5q104 0 166 -61t62 -179v-667l118 -23v-8q0 -47 -20 -80h-379l14 88l95 23v696q-43 61 -127 61 q-87 0 -166 -65v-692l110 -23v-8q0 -47 -20 -80h-371l14 88l95 23v696q-43 61 -127 61q-87 0 -166 -65v-692l110 -23v-8q0 -47 -20 -80h-395z" />
<glyph unicode="n" horiz-adv-x="968" d="M29 0l16 88l117 23v725l-29 16q-36 21 -47.5 31.5t-19.5 25.5v41l247 68l15 -135h12q107 135 244 135q110 0 173.5 -61t63.5 -179v-667l119 -23v-8q0 -47 -20 -80h-385l14 88l100 23v696q-43 61 -135 61q-101 0 -180 -65v-692l110 -23v-8q0 -47 -20 -80h-395z" />
<glyph unicode="o" horiz-adv-x="905" d="M63 500q0 234 107.5 376t282.5 142q178 0 283.5 -135.5t105.5 -382.5q0 -236 -107 -378t-282 -142q-179 0 -284.5 135.5t-105.5 384.5zM252 498q0 -406 209 -406q98 0 145 108t47 300q0 204 -51 304.5t-158 100.5q-98 0 -145 -107.5t-47 -299.5z" />
<glyph unicode="p" horiz-adv-x="925" d="M31 -430l16 88l103 23v1153l-29 16q-36 22 -48 32t-20 25v43l248 68l14 -125h13q49 70 101.5 97.5t115.5 27.5q136 0 226.5 -125t90.5 -354q0 -241 -121.5 -400t-294.5 -159q-60 0 -124 18v-317l137 -23v-8q0 -48 -19 -80h-409zM322 129q97 -33 194 -33q21 0 48 31 t51.5 83.5t41.5 136t17 175.5q0 164 -51.5 255t-149.5 91q-85 0 -151 -63v-676z" />
<glyph unicode="q" horiz-adv-x="917" d="M63 459q0 242 115 400.5t285 158.5q60 0 143 -27l152 84l18 -4v-1384l119 -23v-8q0 -51 -21 -86h-405l14 94l121 23v413h-12q-76 -120 -211 -120q-139 0 -228.5 127.5t-89.5 351.5zM252 475q0 -164 51 -256t148 -92q87 0 153 63v682q-114 29 -201 29q-14 0 -32.5 -14 t-39.5 -47t-38.5 -80t-29 -122t-11.5 -163z" />
<glyph unicode="r" horiz-adv-x="577" d="M29 0l16 88l117 23v725l-29 16q-36 21 -47.5 31.5t-19.5 25.5v41l247 68l15 -141h12q70 88 104 114.5t68 26.5q29 0 49 -14l10 -152q-34 -17 -78 -26.5t-159 -22.5v-692l147 -23v-8q0 -47 -20 -80h-432z" />
<glyph unicode="s" horiz-adv-x="659" d="M68 719q0 122 83 210.5t222 88.5q44 0 101 -13.5t89 -35.5v-226q-26 -22 -84 -22h-12l-27 151q-51 29 -125 29q-27 0 -47 -4q-14 -3 -27.5 -39t-13.5 -86q0 -39 20 -71.5t52.5 -56.5t71 -48t77.5 -52.5t71.5 -62t52.5 -85t20 -115.5q0 -128 -89.5 -214.5t-219.5 -86.5 q-52 0 -113.5 15.5t-99.5 43.5v213q28 22 84 22h10l26 -143q52 -35 144 -35q27 0 51 4q15 2 32 42.5t17 84.5q0 42 -20 77t-52.5 61t-71.5 50.5t-78 53t-71.5 61t-52.5 81.5t-20 108z" />
<glyph unicode="t" horiz-adv-x="563" d="M59 915v27q26 66 97 132t143 91h16v-168h220q6 -30 6 -55q0 -22 -6 -57h-220v-668q0 -92 99 -92q71 0 114 49l21 -41q-22 -72 -72 -112.5t-119 -40.5q-97 0 -156 62.5t-59 174.5v668z" />
<glyph unicode="u" horiz-adv-x="952" d="M47 909v41l268 68v-828q43 -61 136 -61q101 0 180 61v697l-148 22v9q0 47 19 79h323l-22 -133v-753l129 -23v-8q0 -48 -19 -80l-282 -20l12 139h-12q-113 -139 -250 -139q-111 0 -174.5 60.5t-63.5 178.5v617l-28 16q-36 22 -48 32t-20 25z" />
<glyph unicode="v" horiz-adv-x="770" d="M-33 909v9q0 47 19 79h372l-16 -88l-104 -22l170 -658h12l170 658l-125 22v9q0 49 18 79h320l-17 -88l-61 -22l-268 -887l-146 -20l-266 907z" />
<glyph unicode="w" horiz-adv-x="1286" d="M-10 909v9q0 49 18 79h354l-16 -88l-98 -22l151 -647h13l157 647l-108 22v9q0 49 18 79h395l-16 -88l-90 -22l160 -647h12l150 647l-117 22v9q0 49 18 79h307l-16 -88l-61 -22l-244 -887l-154 -20l-174 706h-12l-188 -686l-142 -20l-241 907z" />
<glyph unicode="x" horiz-adv-x="825" d="M6 0l17 88l61 23l225 378l-225 398l-76 22v9q0 44 21 79h364l-16 -88l-90 -22l149 -279l146 279l-117 22v9q0 49 18 79h320l-15 -88l-61 -22l-219 -363l233 -413l78 -23v-8q0 -47 -20 -80h-365l17 88l88 23l-154 297l-156 -297l115 -23v-8q0 -50 -18 -80h-320z" />
<glyph unicode="y" horiz-adv-x="782" d="M-29 909v9q0 47 19 79h368l-16 -88l-104 -22l170 -697h12l186 697l-125 22v9q0 47 19 79h319l-16 -88l-62 -22l-358 -1211l104 -38v-9q0 -47 -20 -80q-68 0 -188.5 13t-186.5 32l25 93l133 6l110 309l-79 8l-234 877z" />
<glyph unicode="z" horiz-adv-x="708" d="M45 0v57l424 793h-276l-31 -188h-15q-18 0 -44.5 6.5t-34.5 15.5v313h598v-57l-449 -793h328l28 189h15q16 0 43 -7t37 -16v-313h-623z" />
<glyph unicode="{" horiz-adv-x="481" d="M57 502v123q93 0 136 25t43 85q0 33 -25.5 88.5t-55.5 107.5t-55.5 120.5t-25.5 124.5q0 87 51.5 148t128.5 87.5t170 26.5q0 -58 -21 -113l-153 -20q-17 -43 -17 -93q0 -52 26.5 -118t57.5 -118.5t57.5 -116t26.5 -111.5q0 -74 -47 -120.5t-133 -58.5v-12 q88 -14 134 -56.5t46 -121.5q0 -48 -26.5 -111.5t-57.5 -116t-57.5 -118.5t-26.5 -119q0 -41 15 -92l174 -21q0 -62 -16 -112q-147 0 -239.5 72.5t-92.5 189.5q0 56 25.5 124.5t55.5 120.5t55.5 107t25.5 88q0 60 -43 85.5t-136 25.5z" />
<glyph unicode="|" horiz-adv-x="481" d="M164 -451v1946q27 12 78 12q48 0 75 -12v-1946q-27 -12 -75 -12q-51 0 -78 12z" />
<glyph unicode="}" horiz-adv-x="481" d="M57 -311q0 57 21 112l153 21q17 43 17 92q0 52 -26 118t-58 118.5t-58 116.5t-26 112q0 74 47 120t133 58v12q-88 14 -134 57t-46 122q0 48 26 111.5t58 115.5t58 118t26 119q0 42 -15 93l-174 20q0 60 17 113q147 0 239.5 -72.5t92.5 -189.5q0 -56 -25.5 -124.5 t-55.5 -121t-55.5 -107.5t-25.5 -88q0 -60 42.5 -85t135.5 -25v-123q-93 0 -135.5 -25.5t-42.5 -85.5q0 -33 25.5 -88.5t55.5 -107.5t55.5 -120t25.5 -124q0 -87 -51.5 -148t-129 -87.5t-170.5 -26.5z" />
<glyph unicode="~" d="M59 391q56 115 93 172.5t62 75.5t58 18q40 0 144.5 -45t124.5 -45q25 0 50 23.5t83 109.5l63 -30q-55 -112 -94 -171t-63 -76t-52 -17q-41 0 -146 45t-126 45q-27 0 -51.5 -24.5t-81.5 -111.5z" />
<glyph unicode="&#xa1;" horiz-adv-x="497" d="M139 887q0 58 29 94.5t80 36.5q53 0 81.5 -36t28.5 -95q0 -61 -29 -96t-79 -35q-51 0 -81 35t-30 96zM141 -420l62 1002h94l59 -981q-71 -21 -215 -21z" />
<glyph unicode="&#xa2;" horiz-adv-x="860" d="M131 485q0 232 110.5 369t276.5 137l70 365q12 4 26 4q36 0 54 -14l-70 -363q46 -7 102 -25q0 -72 -14 -137q-54 20 -140.5 35.5t-137.5 15.5q-9 0 -22 -14.5t-28 -45.5t-28.5 -72.5t-22 -103t-8.5 -130.5q0 -188 60 -280.5t173 -92.5q108 0 179 96l18 -39 q-59 -184 -244 -184q-24 0 -36 2l-66 -356q-12 -4 -27 -4q-36 0 -53 14l68 365q-109 42 -174.5 163t-65.5 295z" />
<glyph unicode="&#xa3;" horiz-adv-x="860" d="M94 68q70 76 180 114q35 53 35 148q0 53 -33 196h-176q-6 12 -6 39t6 39h158l-43 172h-115q-6 15 -6 39t6 39h99q-19 112 -19 166q0 74 20.5 143t60 126.5t105.5 92.5t148 35q106 0 176 -61.5t70 -165.5q0 -76 -40 -127.5t-87 -58.5q-46 7 -71 33.5t-25 66.5 q0 46 30.5 74.5t91.5 29.5q-9 47 -52.5 76t-110.5 29q-45 0 -72 -8q-11 -2 -26 -25t-27.5 -73t-12.5 -111q0 -84 33 -242h232q6 -18 6 -39t-6 -39h-213q8 -34 24 -93.5t21 -78.5h168q6 -18 6 -39t-6 -39h-152q16 -82 16 -137q0 -110 -96 -199v-10l240 -35l51 166h10 q16 0 40 -6t34 -14l-25 -311l-462 67l-158 -67q-9 12 -18 40t-9 48z" />
<glyph unicode="&#xa4;" d="M12 109l123 172q-61 109 -61 270q0 162 61 278l-123 172q30 55 97 86l112 -153q77 61 178 61t181 -61l112 153q66 -30 96 -86l-122 -172q61 -113 61 -270q0 -165 -61 -278l122 -172q-30 -56 -96 -86l-112 153q-73 -61 -181 -61q-105 0 -178 61l-112 -153q-67 31 -97 86z M219 555q0 -295 182 -295q181 0 181 295t-181 295q-182 0 -182 -295z" />
<glyph unicode="&#xa5;" horiz-adv-x="860" d="M-2 1298v15q0 51 20 84h371l-16 -99l-105 -22l176 -528h13l192 528l-125 22v15q0 49 21 84h319l-16 -99l-64 -22l-225 -576h148q6 -18 6 -38q0 -21 -6 -39h-179l-14 -37v-135h193q6 -18 6 -39t-6 -39h-193v-252l141 -23v-14q0 -51 -20 -84h-447l17 98l125 23v252h-193 q-6 18 -6 39t6 39h193v135l-15 37h-178q-6 18 -6 39q0 20 6 38h150l-213 576z" />
<glyph unicode="&#xa6;" horiz-adv-x="481" d="M164 356q29 13 78 13q46 0 75 -13v-807q-27 -12 -75 -12q-51 0 -78 12v807zM164 688v807q27 12 78 12q48 0 75 -12v-807q-27 -12 -75 -12q-51 0 -78 12z" />
<glyph unicode="&#xa7;" d="M86 -117q0 73 40 126.5t87 60.5q43 -8 69.5 -35t26.5 -66q0 -44 -33 -74t-90 -30q14 -46 60 -75.5t104 -29.5q42 0 72 9q9 2 24 24t28 65t13 91q0 62 -17 110.5t-62 101t-120.5 108t-195.5 126.5q0 39 17 101l190 260q-75 72 -110 146.5t-35 170.5q0 137 90 240.5 t223 103.5q106 0 176 -61.5t70 -165.5q0 -73 -40 -126t-87 -60q-44 8 -70.5 34.5t-26.5 65.5q0 44 33 74t90 30q-14 46 -59.5 75.5t-103.5 29.5q-45 0 -72 -8q-9 -2 -24 -24t-28.5 -65.5t-13.5 -91.5q0 -121 81 -214t315 -232q0 -38 -17 -100l-190 -261q75 -70 110 -145 t35 -172q0 -137 -90 -240.5t-223 -103.5q-106 0 -176 61.5t-70 165.5zM248 500q115 -71 182 -123l121 196q-115 71 -182 123z" />
<glyph unicode="&#xa8;" d="M168 1251q0 51 25 80t69 29t70 -29t26 -80q0 -47 -25.5 -77.5t-70.5 -30.5q-44 0 -69 30.5t-25 77.5zM438 1251q0 51 25 80t69 29q45 0 71 -29t26 -80q0 -47 -26 -77.5t-71 -30.5q-44 0 -69 30.5t-25 77.5z" />
<glyph unicode="&#xa9;" horiz-adv-x="1187" d="M78 698q0 341 141.5 530t376.5 189q233 0 373.5 -189t140.5 -530q0 -340 -142 -529t-376 -189q-233 0 -373.5 188.5t-140.5 529.5zM168 696q0 -288 111.5 -458t312.5 -170q135 0 232 78.5t146.5 220t49.5 331.5q0 289 -111.5 460t-312.5 171q-203 0 -315.5 -171 t-112.5 -462zM344 698q0 170 82 263.5t207 93.5q85 0 155 -21v-207q-21 -12 -53 -12h-10l-31 150q-41 12 -86 12q-32 0 -59 -6q-26 -5 -52 -86.5t-26 -186.5q0 -274 160 -274q41 0 71 12l31 154h10q36 0 54 -12v-181q-29 -24 -77 -39.5t-93 -15.5q-127 0 -205 93.5 t-78 262.5z" />
<glyph unicode="&#xaa;" horiz-adv-x="593" d="M35 854q0 159 162 188l161 31v223q-144 -24 -194 -24q-40 0 -58 13.5t-18 47.5q0 36 14 64h332q49 -60 49 -176l-6 -430q32 -19 80 -19v-27q-6 -30 -29 -49.5t-55 -19.5q-78 0 -104 69q-90 -69 -164 -69q-72 0 -121 46t-49 132zM166 874q0 -106 86 -106q39 0 106 23v219 l-170 -58q-22 -28 -22 -78z" />
<glyph unicode="&#xab;" horiz-adv-x="686" d="M41 494v18l238 387l61 -12l-104 -383l104 -385l-61 -13zM326 494v18l237 387l62 -12l-105 -383l105 -385l-62 -13z" />
<glyph unicode="&#xac;" d="M51 653v150h678v-594h-151v444h-527z" />
<glyph unicode="&#xad;" horiz-adv-x="382" d="M43 424v149h297v-149h-297z" />
<glyph unicode="&#xae;" horiz-adv-x="626" d="M41 1057q0 169 76 264.5t198 95.5q121 0 196 -95t75 -265q0 -169 -76.5 -265t-198.5 -96q-120 0 -195 95.5t-75 265.5zM98 1055q0 -140 56 -222.5t157 -82.5q104 0 160.5 82.5t56.5 224.5t-56 224.5t-157 82.5q-103 0 -160 -83t-57 -226zM201 879l2 30l28 4v287l-30 4v8 q0 11 6 23h110q46 0 73.5 -27t27.5 -71q0 -66 -49 -90l71 -154q-15 -19 -34 -19l-97 154l-22 -6v-109l30 -4v-8q0 -10 -6 -22h-110zM287 1057l51 6q22 22 22 70q0 30 -12.5 48.5t-36.5 18.5h-24v-143z" />
<glyph unicode="&#xaf;" d="M219 1184v149h359v-149h-359z" />
<glyph unicode="&#xb0;" horiz-adv-x="514" d="M41 1128q0 138 58.5 213.5t160.5 75.5q99 0 156 -73.5t57 -215.5q0 -138 -58.5 -213t-160.5 -75q-99 0 -156 73.5t-57 214.5zM150 1128q0 -184 108 -184q107 0 107 186q0 183 -109 183q-106 0 -106 -185z" />
<glyph unicode="&#xb1;" d="M80 0v139h637v-139h-637zM82 608v140h250v364h135v-364h250v-140h-250v-366h-135v366h-250z" />
<glyph unicode="&#xb2;" horiz-adv-x="696" d="M86 946v133q186 176 254 277.5t68 208.5q0 93 -40.5 139.5t-111.5 46.5q-86 0 -125 -63l-39 24q24 69 83.5 112.5t141.5 43.5q108 0 184.5 -71.5t76.5 -209.5q0 -116 -80.5 -226.5t-280.5 -273.5v-10q211 25 326 25q65 0 65 -76q0 -40 -8 -80h-514z" />
<glyph unicode="&#xb3;" horiz-adv-x="696" d="M86 1016q160 25 241 74t81 127q0 70 -42 102.5t-126 32.5h-82v104h82q155 0 155 150q0 70 -38.5 107.5t-106.5 37.5q-46 0 -73.5 -15.5t-49.5 -47.5l-39 24q56 156 229 156q107 0 175.5 -66.5t68.5 -175.5q0 -75 -37 -130t-92 -77v-10q60 -21 103 -71t43 -132 q0 -126 -132 -197.5t-346 -82.5q-14 28 -14 90z" />
<glyph unicode="&#xb4;" d="M254 1141l78 354h211l-215 -375q-15 0 -39.5 6.5t-34.5 14.5z" />
<glyph unicode="&#xb6;" horiz-adv-x="835" d="M63 977q0 195 97.5 307.5t275.5 112.5h352l-16 -99l-121 -22v-1180q0 -121 -24 -209t-67 -137t-93.5 -71.5t-110.5 -22.5q-99 0 -164 55t-65 166q0 80 33.5 130t83.5 56q50 -9 76 -37t26 -67q0 -49 -31 -74.5t-86 -25.5q12 -92 113 -92q36 0 63 13t49.5 45t34 92 t11.5 146v531l-131 10q-306 24 -306 373z" />
<glyph unicode="&#xb7;" horiz-adv-x="368" d="M68 500q0 64 30.5 101.5t83.5 37.5q54 0 85.5 -37.5t31.5 -101.5q0 -62 -30.5 -101t-84.5 -39q-55 0 -85.5 39t-30.5 101z" />
<glyph unicode="&#xb8;" d="M272 -381q69 9 99 32t30 62q0 76 -98 76v25l76 120h51l-18 -77q52 -8 83 -43.5t31 -94.5q0 -73 -62.5 -121.5t-174.5 -48.5q-17 31 -17 70z" />
<glyph unicode="&#xb9;" horiz-adv-x="696" d="M94 946l10 96l179 15v667l-84 17q-50 9 -60 33v73h307v-790l152 -15v-10q0 -46 -12 -86h-492z" />
<glyph unicode="&#xba;" horiz-adv-x="634" d="M43 1042q0 173 77.5 271t196.5 98q120 0 198.5 -95.5t78.5 -271.5q0 -173 -78 -270.5t-197 -97.5q-120 0 -198 95t-78 271zM188 1042q0 -146 33.5 -212t102.5 -66q67 0 96 68.5t29 211.5q0 147 -33.5 213t-102.5 66q-67 0 -96 -68.5t-29 -212.5z" />
<glyph unicode="&#xbb;" horiz-adv-x="686" d="M61 121l105 383l-105 385l62 12l237 -387v-18l-237 -387zM346 121l105 383l-105 385l62 12l237 -387v-18l-237 -387z" />
<glyph unicode="&#xbc;" horiz-adv-x="1761" d="M94 496l10 96l179 14v668l-84 16q-50 9 -60 33v74h307v-791l152 -14v-10q0 -46 -12 -86h-492zM602 -111l440 1606q32 0 66.5 -11t52.5 -30l-442 -1606q-76 0 -117 41zM1130 186v148l232 588q22 0 58.5 -10t47.5 -21l-235 -586h223v297h164v-297h76v-8q0 -65 -19 -111h-57 v-186h-164v186h-326z" />
<glyph unicode="&#xbd;" horiz-adv-x="1761" d="M94 496l10 96l179 14v668l-84 16q-50 9 -60 33v74h307v-791l152 -14v-10q0 -46 -12 -86h-492zM602 -111l440 1606q32 0 66.5 -11t52.5 -30l-442 -1606q-76 0 -117 41zM1151 0v133q186 176 254 277t68 208q0 93 -40.5 140t-111.5 47q-85 0 -125 -64l-39 25 q24 69 83.5 112.5t141.5 43.5q108 0 184 -71.5t76 -209.5q0 -116 -80 -227t-280 -273v-10q211 25 326 25q65 0 65 -76q0 -40 -8 -80h-514z" />
<glyph unicode="&#xbe;" horiz-adv-x="1761" d="M86 565q160 25 241 74t81 127q0 70 -42 102.5t-126 32.5h-82v105h82q155 0 155 149q0 70 -38.5 107.5t-106.5 37.5q-46 0 -73.5 -15.5t-49.5 -47.5l-39 25q56 155 229 155q107 0 175.5 -66t68.5 -175q0 -75 -37 -130t-92 -77v-11q60 -21 103 -70.5t43 -131.5 q0 -85 -64 -147.5t-169.5 -94.5t-244.5 -39q-14 28 -14 90zM602 -111l440 1606q32 0 66.5 -11t52.5 -30l-442 -1606q-76 0 -117 41zM1130 186v148l232 588q22 0 58.5 -10t47.5 -21l-235 -586h223v297h164v-297h76v-8q0 -65 -19 -111h-57v-186h-164v186h-326z" />
<glyph unicode="&#xbf;" horiz-adv-x="696" d="M82 -78q0 138 79 236.5t214 154.5l12 269h74l88 -211q0 -50 -23 -88q-252 -94 -252 -326q0 -114 41.5 -177t120.5 -63q94 0 144 86l34 -20q-64 -203 -249 -203q-115 0 -199 91t-84 251zM315 887q0 58 29 94.5t80 36.5q53 0 82 -36t29 -95q0 -61 -29.5 -96t-79.5 -35 q-51 0 -81 35t-30 96z" />
<glyph unicode="&#xc0;" horiz-adv-x="952" d="M-41 0l16 98l68 23l379 1276l117 20l366 -1296l88 -23v-14q0 -54 -18 -84h-418l16 98l132 23l-105 405l-313 -20l-99 -385l140 -23v-14q0 -49 -21 -84h-348zM205 1720h207l100 -239q-9 -12 -29 -22.5t-34 -12.5zM315 618h260l-122 465h-17z" />
<glyph unicode="&#xc1;" horiz-adv-x="952" d="M-41 0l16 98l68 23l379 1276l117 20l366 -1296l88 -23v-14q0 -54 -18 -84h-418l16 98l132 23l-105 405l-313 -20l-99 -385l140 -23v-14q0 -49 -21 -84h-348zM315 618h260l-122 465h-17zM444 1481l101 239h207l-244 -274q-14 2 -34.5 12.5t-29.5 22.5z" />
<glyph unicode="&#xc2;" horiz-adv-x="952" d="M-41 0l16 98l68 23l379 1276l117 20l366 -1296l88 -23v-14q0 -54 -18 -84h-418l16 98l132 23l-105 405l-313 -20l-99 -385l140 -23v-14q0 -49 -21 -84h-348zM258 1485l160 235h127l160 -235q-7 -12 -28 -24.5t-34 -14.5l-168 137l-160 -137q-13 3 -31 14.5t-26 24.5z M315 618h260l-122 465h-17z" />
<glyph unicode="&#xc3;" horiz-adv-x="952" d="M-41 0l16 98l68 23l379 1276l117 20l366 -1296l88 -23v-14q0 -54 -18 -84h-418l16 98l132 23l-105 405l-313 -20l-99 -385l140 -23v-14q0 -49 -21 -84h-348zM227 1481q61 141 91 180t75 39q29 0 102.5 -36t92.5 -36q24 0 40 15.5t56 82.5l55 -26q-42 -102 -68 -148 t-46 -59.5t-52 -13.5q-29 0 -102 35.5t-92 35.5q-23 0 -39.5 -16.5t-56.5 -79.5zM315 618h260l-122 465h-17z" />
<glyph unicode="&#xc4;" horiz-adv-x="952" d="M-41 0l16 98l68 23l379 1276l117 20l366 -1296l88 -23v-14q0 -54 -18 -84h-418l16 98l132 23l-105 405l-313 -20l-99 -385l140 -23v-14q0 -49 -21 -84h-348zM264 1559q0 45 24 71.5t64 26.5t65 -26.5t25 -71.5q0 -43 -24 -71t-66 -28q-41 0 -64.5 28t-23.5 71zM315 618 h260l-122 465h-17zM520 1559q0 45 24 71.5t64 26.5t65 -26.5t25 -71.5q0 -43 -24 -71t-66 -28q-41 0 -64.5 28t-23.5 71z" />
<glyph unicode="&#xc5;" horiz-adv-x="952" d="M-41 0l16 98l68 23l377 1270q-96 33 -96 163q0 84 43 130.5t120 46.5q75 0 117.5 -46.5t42.5 -130.5q0 -65 -27 -107.5t-75 -57.5l360 -1268l88 -23v-14q0 -54 -18 -84h-418l16 98l132 23l-105 405l-313 -20l-99 -385l140 -23v-14q0 -49 -21 -84h-348zM315 618h260 l-122 465h-17zM403 1554q0 -100 82 -100t82 102q0 101 -82 101t-82 -103z" />
<glyph unicode="&#xc6;" horiz-adv-x="1400" d="M-41 0l16 98l107 23l293 1155l-133 22v15q0 51 20 84h815l195 20v-368q-14 -11 -40.5 -18t-45.5 -7h-12l-60 254h-274v-510h295q4 -36 4 -66q0 -25 -4 -65l-129 12h-166v-540l295 18l61 270h12q19 0 46.5 -6.5t39.5 -17.5v-373h-788l16 98l125 23v528h-297l-125 -528 l127 -23v-14q0 -51 -20 -84h-373zM379 768h268v510h-149z" />
<glyph unicode="&#xc7;" horiz-adv-x="991" d="M74 688q0 159 37.5 292.5t108 230.5t177 151.5t238.5 54.5q140 0 256 -41v-397q-14 -11 -40.5 -18t-45.5 -7h-12l-62 312q-68 20 -164 20q-89 0 -147 -18q-26 -8 -55.5 -74t-53.5 -203t-24 -303q0 -573 321 -573q71 0 127 18l62 289h12q20 0 47 -7t39 -18v-305 q-112 -112 -307 -112q-232 0 -373 190t-141 518zM444 -381q69 9 99 32t30 62q0 76 -98 76v25l76 120h51l-18 -77q52 -8 83 -43.5t31 -94.5q0 -73 -62.5 -121.5t-174.5 -48.5q-17 31 -17 70z" />
<glyph unicode="&#xc8;" horiz-adv-x="948" d="M53 0l17 98l125 23v1155l-142 22v15q0 49 21 84h551l194 20v-368q-14 -11 -40.5 -18t-45.5 -7h-12l-59 254h-275v-510h295q4 -36 4 -66q0 -25 -4 -65l-129 12h-166v-540l295 18l61 270h13q19 0 46.5 -6.5t39.5 -17.5v-373h-789zM213 1720h207l100 -239q-9 -12 -29 -22.5 t-34 -12.5z" />
<glyph unicode="&#xc9;" horiz-adv-x="948" d="M53 0l17 98l125 23v1155l-142 22v15q0 49 21 84h551l194 20v-368q-14 -11 -40.5 -18t-45.5 -7h-12l-59 254h-275v-510h295q4 -36 4 -66q0 -25 -4 -65l-129 12h-166v-540l295 18l61 270h13q19 0 46.5 -6.5t39.5 -17.5v-373h-789zM385 1481l100 239h207l-243 -274 q-14 2 -34.5 12.5t-29.5 22.5z" />
<glyph unicode="&#xca;" horiz-adv-x="948" d="M53 0l17 98l125 23v1155l-142 22v15q0 49 21 84h551l194 20v-368q-14 -11 -40.5 -18t-45.5 -7h-12l-59 254h-275v-510h295q4 -36 4 -66q0 -25 -4 -65l-129 12h-166v-540l295 18l61 270h13q19 0 46.5 -6.5t39.5 -17.5v-373h-789zM236 1485l159 235h127l160 -235 q-7 -12 -28 -24.5t-33 -14.5l-168 137l-160 -137q-13 3 -31 14.5t-26 24.5z" />
<glyph unicode="&#xcb;" horiz-adv-x="948" d="M53 0l17 98l125 23v1155l-142 22v15q0 49 21 84h551l194 20v-368q-14 -11 -40.5 -18t-45.5 -7h-12l-59 254h-275v-510h295q4 -36 4 -66q0 -25 -4 -65l-129 12h-166v-540l295 18l61 270h13q19 0 46.5 -6.5t39.5 -17.5v-373h-789zM229 1559q0 45 24 71.5t64 26.5 t65.5 -26.5t25.5 -71.5q0 -43 -24.5 -71t-66.5 -28q-41 0 -64.5 28t-23.5 71zM485 1559q0 45 24 71.5t64 26.5t65.5 -26.5t25.5 -71.5q0 -43 -24.5 -71t-66.5 -28q-41 0 -64.5 28t-23.5 71z" />
<glyph unicode="&#xcc;" horiz-adv-x="589" d="M27 1720h206l101 -239q-9 -12 -29.5 -22.5t-34.5 -12.5zM53 0l17 98l125 23v1155l-142 22v15q0 49 21 84h454l-16 -99l-125 -22v-1155l141 -23v-14q0 -51 -20 -84h-455z" />
<glyph unicode="&#xcd;" horiz-adv-x="589" d="M53 0l17 98l125 23v1155l-142 22v15q0 49 21 84h454l-16 -99l-125 -22v-1155l141 -23v-14q0 -51 -20 -84h-455zM248 1481l100 239h207l-244 -274q-14 2 -34 12.5t-29 22.5z" />
<glyph unicode="&#xce;" horiz-adv-x="589" d="M53 0l17 98l125 23v1155l-142 22v15q0 49 21 84h454l-16 -99l-125 -22v-1155l141 -23v-14q0 -51 -20 -84h-455zM68 1485l159 235h127l160 -235q-7 -12 -28 -24.5t-33 -14.5l-168 137l-160 -137q-13 3 -31 14.5t-26 24.5z" />
<glyph unicode="&#xcf;" horiz-adv-x="589" d="M53 0l17 98l125 23v1155l-142 22v15q0 49 21 84h454l-16 -99l-125 -22v-1155l141 -23v-14q0 -51 -20 -84h-455zM74 1559q0 45 24 71.5t64 26.5t65 -26.5t25 -71.5q0 -43 -24 -71t-66 -28q-41 0 -64.5 28t-23.5 71zM330 1559q0 45 24 71.5t64 26.5t65 -26.5t25 -71.5 q0 -43 -24 -71t-66 -28q-41 0 -64.5 28t-23.5 71z" />
<glyph unicode="&#xd0;" horiz-adv-x="1122" d="M53 0l17 98l125 23v516h-78q-8 31 -8 70q0 36 8 69h78v500l-142 22v15q0 49 21 84h461q107 0 199 -43t163 -127t111.5 -219.5t40.5 -309.5q0 -159 -45 -294.5t-117 -221.5t-159.5 -134t-176.5 -48h-498zM387 127l166 -23q63 12 113 51t89 108.5t60 180t21 254.5 q0 586 -320 586h-129v-508h129q8 -33 8 -69q0 -37 -8 -70h-129v-510z" />
<glyph unicode="&#xd1;" horiz-adv-x="1196" d="M53 0l17 98l125 23q8 777 12 1155l-141 22v15q0 51 20 84h328l446 -979h17v858l-175 22v15q0 49 21 84h422l-17 -99l-108 -22l-12 -1276l-115 -20l-539 1122h-16v-981l164 -23v-14q0 -49 -21 -84h-428zM354 1481q61 141 91 180t75 39q29 0 102.5 -36t92.5 -36 q24 0 40 15.5t56 82.5l55 -26q-42 -102 -68 -148t-46 -59.5t-52 -13.5q-29 0 -102 35.5t-92 35.5q-23 0 -39.5 -16.5t-56.5 -79.5z" />
<glyph unicode="&#xd2;" horiz-adv-x="1120" d="M74 698q0 169 39 307t106 227t153.5 137t184.5 48q104 0 192.5 -45.5t155 -133.5t104.5 -226.5t38 -313.5q0 -139 -26 -256.5t-71.5 -201.5t-107 -143.5t-132.5 -88t-147 -28.5q-104 0 -192 45.5t-155 133t-104.5 226t-37.5 313.5zM287 698q0 -314 69 -456t207 -142 q131 0 201 152t70 446q0 314 -69 456t-208 142q-131 0 -200.5 -152t-69.5 -446zM293 1720h207l100 -239q-9 -12 -29 -22.5t-34 -12.5z" />
<glyph unicode="&#xd3;" horiz-adv-x="1120" d="M74 698q0 169 39 307t106 227t153.5 137t184.5 48q104 0 192.5 -45.5t155 -133.5t104.5 -226.5t38 -313.5q0 -139 -26 -256.5t-71.5 -201.5t-107 -143.5t-132.5 -88t-147 -28.5q-104 0 -192 45.5t-155 133t-104.5 226t-37.5 313.5zM287 698q0 -314 69 -456t207 -142 q131 0 201 152t70 446q0 314 -69 456t-208 142q-131 0 -200.5 -152t-69.5 -446zM518 1481l100 239h207l-243 -274q-14 2 -34.5 12.5t-29.5 22.5z" />
<glyph unicode="&#xd4;" horiz-adv-x="1120" d="M74 698q0 169 39 307t106 227t153.5 137t184.5 48q104 0 192.5 -45.5t155 -133.5t104.5 -226.5t38 -313.5q0 -139 -26 -256.5t-71.5 -201.5t-107 -143.5t-132.5 -88t-147 -28.5q-104 0 -192 45.5t-155 133t-104.5 226t-37.5 313.5zM287 698q0 -314 69 -456t207 -142 q131 0 201 152t70 446q0 314 -69 456t-208 142q-131 0 -200.5 -152t-69.5 -446zM338 1485l160 235h127l159 -235q-7 -12 -28 -24.5t-33 -14.5l-168 137l-160 -137q-13 3 -31 14.5t-26 24.5z" />
<glyph unicode="&#xd5;" horiz-adv-x="1120" d="M74 698q0 169 39 307t106 227t153.5 137t184.5 48q104 0 192.5 -45.5t155 -133.5t104.5 -226.5t38 -313.5q0 -139 -26 -256.5t-71.5 -201.5t-107 -143.5t-132.5 -88t-147 -28.5q-104 0 -192 45.5t-155 133t-104.5 226t-37.5 313.5zM287 698q0 -314 69 -456t207 -142 q131 0 201 152t70 446q0 314 -69 456t-208 142q-131 0 -200.5 -152t-69.5 -446zM307 1481q61 141 91 180t75 39q29 0 102.5 -36t92.5 -36q24 0 40 15.5t56 82.5l55 -26q-42 -102 -68 -148t-46 -59.5t-52 -13.5q-29 0 -102 35.5t-92 35.5q-23 0 -40.5 -17t-56.5 -79z" />
<glyph unicode="&#xd6;" horiz-adv-x="1120" d="M74 698q0 169 39 307t106 227t153.5 137t184.5 48q104 0 192.5 -45.5t155 -133.5t104.5 -226.5t38 -313.5q0 -139 -26 -256.5t-71.5 -201.5t-107 -143.5t-132.5 -88t-147 -28.5q-104 0 -192 45.5t-155 133t-104.5 226t-37.5 313.5zM287 698q0 -314 69 -456t207 -142 q131 0 201 152t70 446q0 314 -69 456t-208 142q-131 0 -200.5 -152t-69.5 -446zM342 1559q0 45 24 71.5t64 26.5t65 -26.5t25 -71.5q0 -43 -24 -71t-66 -28q-41 0 -64.5 28t-23.5 71zM598 1559q0 45 24 71.5t64 26.5t65 -26.5t25 -71.5q0 -43 -24 -71t-66 -28 q-41 0 -64.5 28t-23.5 71z" />
<glyph unicode="&#xd7;" d="M84 190l238 316l-238 315l102 82l213 -293l215 293l101 -82l-238 -315l238 -316l-105 -81l-213 292l-215 -292z" />
<glyph unicode="&#xd8;" horiz-adv-x="1120" d="M74 698q0 169 39 307t106 227t153.5 137t184.5 48q132 0 238 -71l86 200q21 0 43.5 -12t29.5 -29l-94 -217q187 -190 187 -590q0 -139 -26 -256.5t-71.5 -201.5t-107 -143.5t-132.5 -88t-147 -28.5q-131 0 -237 71l-86 -201q-21 0 -44 12t-30 29l92 215 q-184 191 -184 592zM287 698q0 -268 49 -411l397 919q-66 90 -176 90q-131 0 -200.5 -152t-69.5 -446zM385 188q65 -88 178 -88q131 0 201 152t70 446q0 270 -52 410z" />
<glyph unicode="&#xd9;" horiz-adv-x="1142" d="M59 1298v15q0 49 21 84h430l-16 -99l-127 -22v-846q0 -166 53.5 -235.5t181.5 -69.5q125 0 180.5 70t55.5 235v846l-154 22v15q0 49 21 84h380l-16 -99l-92 -22v-844q0 -452 -404 -452q-192 0 -295.5 110.5t-103.5 341.5v844zM352 1720h207l100 -239q-9 -12 -29 -22.5 t-34 -12.5z" />
<glyph unicode="&#xda;" horiz-adv-x="1142" d="M59 1298v15q0 49 21 84h430l-16 -99l-127 -22v-846q0 -166 53.5 -235.5t181.5 -69.5q125 0 180.5 70t55.5 235v846l-154 22v15q0 49 21 84h380l-16 -99l-92 -22v-844q0 -452 -404 -452q-192 0 -295.5 110.5t-103.5 341.5v844zM549 1481l100 239h207l-244 -274 q-14 2 -34 12.5t-29 22.5z" />
<glyph unicode="&#xdb;" horiz-adv-x="1142" d="M59 1298v15q0 49 21 84h430l-16 -99l-127 -22v-846q0 -166 53.5 -235.5t181.5 -69.5q125 0 180.5 70t55.5 235v846l-154 22v15q0 49 21 84h380l-16 -99l-92 -22v-844q0 -452 -404 -452q-192 0 -295.5 110.5t-103.5 341.5v844zM360 1485l160 235h127l160 -235 q-7 -12 -28 -24.5t-34 -14.5l-167 137l-160 -137q-38 10 -58 39z" />
<glyph unicode="&#xdc;" horiz-adv-x="1142" d="M59 1298v15q0 49 21 84h430l-16 -99l-127 -22v-846q0 -166 53.5 -235.5t181.5 -69.5q125 0 180.5 70t55.5 235v846l-154 22v15q0 49 21 84h380l-16 -99l-92 -22v-844q0 -452 -404 -452q-192 0 -295.5 110.5t-103.5 341.5v844zM371 1559q0 45 24 71.5t64 26.5t65 -26.5 t25 -71.5q0 -43 -24 -71t-66 -28q-41 0 -64.5 28t-23.5 71zM627 1559q0 45 24 71.5t64 26.5t65 -26.5t25 -71.5q0 -43 -24 -71t-66 -28q-41 0 -64.5 28t-23.5 71z" />
<glyph unicode="&#xdd;" horiz-adv-x="860" d="M-29 1298v15q0 49 21 84h414l-17 -99l-119 -22l191 -528h16l195 528l-127 22v15q0 51 20 84h320l-17 -99l-53 -22l-289 -696v-459l142 -23v-14q0 -49 -21 -84h-454l16 98l125 23v459l-275 696zM403 1481l101 239h207l-244 -274q-14 2 -34.5 12.5t-29.5 22.5z" />
<glyph unicode="&#xde;" horiz-adv-x="968" d="M53 0l17 98l125 23v1155l-142 22v15q0 49 21 84h313v-275h135q176 0 280.5 -110.5t104.5 -284.5q0 -168 -91.5 -275t-256.5 -133l-172 -26v-293h-334zM387 412l203 16q54 44 86.5 120.5t32.5 178.5q0 131 -56.5 210t-156.5 79h-109v-604z" />
<glyph unicode="&#xdf;" horiz-adv-x="884" d="M43 0l14 88l99 23v763q-56 27 -80 91l80 53v12q0 198 106.5 331.5t269.5 133.5q111 0 178.5 -66.5t67.5 -187.5q0 -55 -21 -110.5t-47 -93.5t-63.5 -90.5t-56.5 -86.5q-4 -32 -4 -47q0 -56 25 -112t60.5 -104t71.5 -97.5t61 -112.5t25 -129q0 -108 -73.5 -193t-177.5 -85 q-108 0 -168 51q0 26 6.5 65t15.5 60q34 -31 80 -49.5t80 -18.5q27 0 37 4q14 5 28.5 37t14.5 72q0 49 -24.5 100t-59.5 96t-70 92t-59.5 107t-24.5 123q0 47 29.5 113t65 123t65 130.5t29.5 133.5q0 71 -38.5 109t-111.5 38q-48 0 -86 -10q-11 -3 -20 -35 q-39 -143 -39 -375v-946h-285z" />
<glyph unicode="&#xe0;" horiz-adv-x="774" d="M41 229q0 112 58 178.5t159 84.5l205 36v338q-183 -35 -268 -35q-52 0 -73.5 19t-21.5 68q0 35 19 79h444q68 -87 68 -249l-6 -619q26 -29 71 -29q24 0 39 6v-32q-26 -94 -123 -94q-95 0 -135 98q-72 -57 -118.5 -77.5t-98.5 -20.5q-95 0 -157 63t-62 186zM127 1495h211 l78 -354q-10 -8 -34.5 -14.5t-39.5 -6.5zM217 248q0 -69 30.5 -108.5t86.5 -39.5q62 0 129 29v320l-215 -74q-31 -53 -31 -127z" />
<glyph unicode="&#xe1;" horiz-adv-x="774" d="M41 229q0 112 58 178.5t159 84.5l205 36v338q-183 -35 -268 -35q-52 0 -73.5 19t-21.5 68q0 35 19 79h444q68 -87 68 -249l-6 -619q26 -29 71 -29q24 0 39 6v-32q-26 -94 -123 -94q-95 0 -135 98q-72 -57 -118.5 -77.5t-98.5 -20.5q-95 0 -157 63t-62 186zM217 248 q0 -69 30.5 -108.5t86.5 -39.5q62 0 129 29v320l-215 -74q-31 -53 -31 -127zM313 1141l78 354h211l-215 -375q-15 0 -39.5 6.5t-34.5 14.5z" />
<glyph unicode="&#xe2;" horiz-adv-x="774" d="M41 229q0 112 58 178.5t159 84.5l205 36v338q-183 -35 -268 -35q-52 0 -73.5 19t-21.5 68q0 35 19 79h444q68 -87 68 -249l-6 -619q26 -29 71 -29q24 0 39 6v-32q-26 -94 -123 -94q-95 0 -135 98q-72 -57 -118.5 -77.5t-98.5 -20.5q-95 0 -157 63t-62 186zM150 1143 l153 352h127l154 -352q-10 -10 -34 -16.5t-40 -6.5l-150 193l-141 -193q-43 0 -69 23zM217 248q0 -69 30.5 -108.5t86.5 -39.5q62 0 129 29v320l-215 -74q-31 -53 -31 -127z" />
<glyph unicode="&#xe3;" horiz-adv-x="774" d="M41 229q0 112 58 178.5t159 84.5l205 36v338q-183 -35 -268 -35q-52 0 -73.5 19t-21.5 68q0 35 19 79h444q68 -87 68 -249l-6 -619q26 -29 71 -29q24 0 39 6v-32q-26 -94 -123 -94q-95 0 -135 98q-72 -57 -118.5 -77.5t-98.5 -20.5q-95 0 -157 63t-62 186zM111 1161 q62 138 93.5 177.5t71.5 39.5q28 0 102 -34.5t93 -34.5q20 0 38 17t60 81l56 -27q-61 -138 -94.5 -180.5t-71.5 -42.5q-32 0 -105.5 35t-91.5 35q-21 0 -37.5 -15.5t-58.5 -76.5zM217 248q0 -69 30.5 -108.5t86.5 -39.5q62 0 129 29v320l-215 -74q-31 -53 -31 -127z" />
<glyph unicode="&#xe4;" horiz-adv-x="774" d="M41 229q0 112 58 178.5t159 84.5l205 36v338q-183 -35 -268 -35q-52 0 -73.5 19t-21.5 68q0 35 19 79h444q68 -87 68 -249l-6 -619q26 -29 71 -29q24 0 39 6v-32q-26 -94 -123 -94q-95 0 -135 98q-72 -57 -118.5 -77.5t-98.5 -20.5q-95 0 -157 63t-62 186zM129 1251 q0 51 25 80t69 29t70 -29t26 -80q0 -47 -25.5 -77.5t-70.5 -30.5q-44 0 -69 30.5t-25 77.5zM217 248q0 -69 30.5 -108.5t86.5 -39.5q62 0 129 29v320l-215 -74q-31 -53 -31 -127zM399 1251q0 51 25.5 80t69.5 29t70 -29t26 -80q0 -47 -25.5 -77.5t-70.5 -30.5 q-44 0 -69.5 30.5t-25.5 77.5z" />
<glyph unicode="&#xe5;" horiz-adv-x="774" d="M41 229q0 112 58 178.5t159 84.5l205 36v338q-183 -35 -268 -35q-52 0 -73.5 19t-21.5 68q0 35 19 79h444q68 -87 68 -249l-6 -619q26 -29 71 -29q24 0 39 6v-32q-26 -94 -123 -94q-95 0 -135 98q-72 -57 -118.5 -77.5t-98.5 -20.5q-95 0 -157 63t-62 186zM197 1317 q0 91 48 145t126 54q75 0 122.5 -52.5t47.5 -146.5q0 -92 -48.5 -144.5t-125.5 -52.5q-75 0 -122.5 52t-47.5 145zM217 248q0 -69 30.5 -108.5t86.5 -39.5q62 0 129 29v320l-215 -74q-31 -53 -31 -127zM283 1317q0 -119 86 -119t86 121q0 119 -86 119t-86 -121z" />
<glyph unicode="&#xe6;" horiz-adv-x="1153" d="M41 229q0 112 58 178.5t159 84.5l205 36v338q-183 -35 -268 -35q-52 0 -73.5 19t-21.5 68q0 35 19 79h444q35 -48 49 -98q32 57 85 88t116 31q118 0 195 -94.5t77 -284.5q0 -55 -6 -98h-450q0 -206 58.5 -310t182.5 -104q111 0 183 92l24 -45q-33 -101 -96.5 -147.5 t-161.5 -46.5q-70 0 -138.5 33t-115.5 96q-95 -77 -161.5 -103t-143.5 -26q-95 0 -157 63t-62 186zM217 248q0 -69 30.5 -108.5t86.5 -39.5q85 0 192 70q-57 94 -63 279l-215 -74q-31 -53 -31 -127zM631 621l295 18v20q0 250 -140 250q-30 0 -57 -8q-22 -7 -56 -92.5 t-42 -187.5z" />
<glyph unicode="&#xe7;" horiz-adv-x="698" d="M63 485q0 258 109.5 395.5t280.5 137.5q81 0 178 -33q0 -66 -15 -158q-55 22 -136 37t-138 15q-38 0 -64 -112t-26 -261q0 -191 51.5 -285t159.5 -94q99 0 172 92l24 -45q-59 -194 -247 -194q-153 0 -251 138t-98 367zM266 -381q69 9 99 32t30 62q0 76 -98 76v25l76 120 h51l-18 -77q52 -8 83 -43.5t31 -94.5q0 -73 -62.5 -121.5t-174.5 -48.5q-17 31 -17 70z" />
<glyph unicode="&#xe8;" horiz-adv-x="774" d="M63 485q0 149 49.5 272t131.5 192t178 69q131 0 208 -93.5t77 -285.5q0 -47 -7 -98h-450q0 -414 242 -414q109 0 182 92l24 -45q-32 -96 -93 -145t-165 -49q-162 0 -269.5 140t-107.5 365zM176 1495h211l78 -354q-10 -8 -34.5 -14.5t-39.5 -6.5zM252 621l295 18v20 q0 122 -32.5 186t-106.5 64q-31 0 -58 -8q-22 -7 -56 -92.5t-42 -187.5z" />
<glyph unicode="&#xe9;" horiz-adv-x="774" d="M63 485q0 149 49.5 272t131.5 192t178 69q131 0 208 -93.5t77 -285.5q0 -47 -7 -98h-450q0 -414 242 -414q109 0 182 92l24 -45q-32 -96 -93 -145t-165 -49q-162 0 -269.5 140t-107.5 365zM252 621l295 18v20q0 122 -32.5 186t-106.5 64q-31 0 -58 -8q-22 -7 -56 -92.5 t-42 -187.5zM367 1141l77 354h211l-215 -375q-15 0 -39 6.5t-34 14.5z" />
<glyph unicode="&#xea;" horiz-adv-x="774" d="M63 485q0 149 49.5 272t131.5 192t178 69q131 0 208 -93.5t77 -285.5q0 -47 -7 -98h-450q0 -414 242 -414q109 0 182 92l24 -45q-32 -96 -93 -145t-165 -49q-162 0 -269.5 140t-107.5 365zM201 1143l153 352h127l154 -352q-10 -10 -34 -16.5t-40 -6.5l-149 193l-142 -193 q-43 0 -69 23zM252 621l295 18v20q0 122 -32.5 186t-106.5 64q-31 0 -58 -8q-22 -7 -56 -92.5t-42 -187.5z" />
<glyph unicode="&#xeb;" horiz-adv-x="774" d="M63 485q0 149 49.5 272t131.5 192t178 69q131 0 208 -93.5t77 -285.5q0 -47 -7 -98h-450q0 -414 242 -414q109 0 182 92l24 -45q-32 -96 -93 -145t-165 -49q-162 0 -269.5 140t-107.5 365zM190 1251q0 51 25.5 80t69.5 29t70 -29t26 -80q0 -47 -25.5 -77.5t-70.5 -30.5 q-44 0 -69.5 30.5t-25.5 77.5zM252 621l295 18v20q0 122 -32.5 186t-106.5 64q-31 0 -58 -8q-22 -7 -56 -92.5t-42 -187.5zM461 1251q0 51 25 80t69 29t70 -29t26 -80q0 -47 -25.5 -77.5t-70.5 -30.5q-44 0 -69 30.5t-25 77.5z" />
<glyph unicode="&#xec;" horiz-adv-x="481" d="M8 1495h211l78 -354q-10 -8 -34.5 -14.5t-39.5 -6.5zM29 0l16 88l117 23v725l-29 16q-36 21 -47.5 31.5t-19.5 25.5v41l268 68v-907l129 -23v-8q0 -48 -19 -80h-415z" />
<glyph unicode="&#xed;" horiz-adv-x="481" d="M29 0l16 88l117 23v725l-29 16q-36 21 -47.5 31.5t-19.5 25.5v41l268 68v-907l129 -23v-8q0 -48 -19 -80h-415zM193 1141l77 354h211l-215 -375q-15 0 -39 6.5t-34 14.5z" />
<glyph unicode="&#xee;" horiz-adv-x="481" d="M29 0l16 88l117 23v725l-29 16q-36 21 -47.5 31.5t-19.5 25.5v41l268 68v-907l129 -23v-8q0 -48 -19 -80h-415zM45 1145l137 350h113l137 -350q-8 -10 -29.5 -16.5t-35.5 -6.5l-134 191l-127 -191q-38 0 -61 23z" />
<glyph unicode="&#xef;" horiz-adv-x="481" d="M29 0l16 88l117 23v725l-29 16q-36 21 -47.5 31.5t-19.5 25.5v41l268 68v-907l129 -23v-8q0 -48 -19 -80h-415zM49 1251q0 51 22 80t62 29t63 -29t23 -80q0 -47 -23 -77.5t-63 -30.5t-62 30t-22 78zM262 1251q0 51 22 80t62 29q39 0 61.5 -29t22.5 -80q0 -47 -22.5 -77.5 t-61.5 -30.5q-40 0 -62 30t-22 78z" />
<glyph unicode="&#xf0;" horiz-adv-x="864" d="M63 459q0 153 52.5 280.5t147.5 203t212 75.5h47q-46 100 -119 211l-161 -121q-43 24 -58 76l166 123q-61 82 -96 125l65 63q89 -70 134 -115l153 115q44 -26 58 -76l-148 -108q141 -161 213 -353t72 -397q0 -122 -22.5 -221.5t-59.5 -165t-87 -110.5t-103 -64.5 t-109 -19.5q-74 0 -137.5 30t-113 88t-78 151t-28.5 210zM252 475q0 -194 40.5 -288.5t127.5 -94.5q192 0 192 465q0 193 -45 324q-113 20 -172 20q-14 0 -31.5 -16t-37.5 -51.5t-36.5 -84t-27 -120.5t-10.5 -154z" />
<glyph unicode="&#xf1;" horiz-adv-x="968" d="M29 0l16 88l117 23v725l-29 16q-36 21 -47.5 31.5t-19.5 25.5v41l247 68l15 -135h12q107 135 244 135q110 0 173.5 -61t63.5 -179v-667l119 -23v-8q0 -47 -20 -80h-385l14 88l100 23v696q-43 61 -135 61q-101 0 -180 -65v-692l110 -23v-8q0 -47 -20 -80h-395zM233 1161 q62 137 94 177t72 40q28 0 102 -34.5t93 -34.5q20 0 38 17t60 81l56 -27q-61 -138 -94.5 -180.5t-71.5 -42.5q-32 0 -105.5 35t-91.5 35q-21 0 -37.5 -15.5t-58.5 -76.5z" />
<glyph unicode="&#xf2;" horiz-adv-x="905" d="M63 500q0 234 107.5 376t282.5 142q178 0 283.5 -135.5t105.5 -382.5q0 -236 -107 -378t-282 -142q-179 0 -284.5 135.5t-105.5 384.5zM223 1495h211l78 -354q-10 -8 -34.5 -14.5t-39.5 -6.5zM252 498q0 -406 209 -406q98 0 145 108t47 300q0 204 -51 304.5t-158 100.5 q-98 0 -145 -107.5t-47 -299.5z" />
<glyph unicode="&#xf3;" horiz-adv-x="905" d="M63 500q0 234 107.5 376t282.5 142q178 0 283.5 -135.5t105.5 -382.5q0 -236 -107 -378t-282 -142q-179 0 -284.5 135.5t-105.5 384.5zM252 498q0 -406 209 -406q98 0 145 108t47 300q0 204 -51 304.5t-158 100.5q-98 0 -145 -107.5t-47 -299.5zM412 1141l77 354h211 l-215 -375q-15 0 -39 6.5t-34 14.5z" />
<glyph unicode="&#xf4;" horiz-adv-x="905" d="M63 500q0 234 107.5 376t282.5 142q178 0 283.5 -135.5t105.5 -382.5q0 -236 -107 -378t-282 -142q-179 0 -284.5 135.5t-105.5 384.5zM236 1143l153 352h127l154 -352q-10 -10 -34 -16.5t-40 -6.5l-150 193l-141 -193q-43 0 -69 23zM252 498q0 -406 209 -406 q98 0 145 108t47 300q0 204 -51 304.5t-158 100.5q-98 0 -145 -107.5t-47 -299.5z" />
<glyph unicode="&#xf5;" horiz-adv-x="905" d="M63 500q0 234 107.5 376t282.5 142q178 0 283.5 -135.5t105.5 -382.5q0 -236 -107 -378t-282 -142q-179 0 -284.5 135.5t-105.5 384.5zM195 1161q62 138 93.5 177.5t71.5 39.5q28 0 102 -34.5t93 -34.5q20 0 38 17t60 81l56 -27q-61 -138 -94.5 -180.5t-71.5 -42.5 q-32 0 -105.5 35t-91.5 35q-21 0 -37.5 -15.5t-58.5 -76.5zM252 498q0 -406 209 -406q98 0 145 108t47 300q0 204 -51 304.5t-158 100.5q-98 0 -145 -107.5t-47 -299.5z" />
<glyph unicode="&#xf6;" horiz-adv-x="905" d="M63 500q0 234 107.5 376t282.5 142q178 0 283.5 -135.5t105.5 -382.5q0 -236 -107 -378t-282 -142q-179 0 -284.5 135.5t-105.5 384.5zM221 1251q0 51 25 80t69 29q45 0 71 -29t26 -80q0 -47 -26 -77.5t-71 -30.5q-44 0 -69 30.5t-25 77.5zM252 498q0 -406 209 -406 q98 0 145 108t47 300q0 204 -51 304.5t-158 100.5q-98 0 -145 -107.5t-47 -299.5zM492 1251q0 51 25 80t69 29t70 -29t26 -80q0 -47 -25.5 -77.5t-70.5 -30.5q-44 0 -69 30.5t-25 77.5z" />
<glyph unicode="&#xf7;" d="M82 428v139h635v-139h-635zM299 119q0 64 27 101.5t73 37.5t74.5 -37.5t28.5 -101.5q0 -63 -27 -101t-76 -38t-74.5 37.5t-25.5 101.5zM299 879q0 64 27 101.5t73 37.5t74.5 -37.5t28.5 -101.5q0 -63 -27.5 -101.5t-75.5 -38.5q-49 0 -74.5 38t-25.5 102z" />
<glyph unicode="&#xf8;" horiz-adv-x="905" d="M63 500q0 234 107.5 376t282.5 142q101 0 180 -45l100 211q16 -2 35 -12.5t31 -24.5l-105 -219q148 -138 148 -428q0 -236 -107 -378t-282 -142q-101 0 -183 45l-98 -211q-16 2 -36 12t-30 24l103 220q-146 136 -146 430zM252 498q0 -172 33 -267l288 615q-50 59 -129 59 q-98 0 -145 -107.5t-47 -299.5zM330 150q49 -58 131 -58q98 0 145 108t47 300q0 172 -35 264z" />
<glyph unicode="&#xf9;" horiz-adv-x="952" d="M47 909v41l268 68v-828q43 -61 136 -61q101 0 180 61v697l-148 22v9q0 47 19 79h323l-22 -133v-753l129 -23v-8q0 -48 -19 -80l-282 -20l12 139h-12q-113 -139 -250 -139q-111 0 -174.5 60.5t-63.5 178.5v617l-28 16q-36 22 -48 32t-20 25zM242 1495h211l77 -354 q-10 -8 -34 -14.5t-39 -6.5z" />
<glyph unicode="&#xfa;" horiz-adv-x="952" d="M47 909v41l268 68v-828q43 -61 136 -61q101 0 180 61v697l-148 22v9q0 47 19 79h323l-22 -133v-753l129 -23v-8q0 -48 -19 -80l-282 -20l12 139h-12q-113 -139 -250 -139q-111 0 -174.5 60.5t-63.5 178.5v617l-28 16q-36 22 -48 32t-20 25zM438 1141l78 354h211 l-215 -375q-15 0 -39.5 6.5t-34.5 14.5z" />
<glyph unicode="&#xfb;" horiz-adv-x="952" d="M47 909v41l268 68v-828q43 -61 136 -61q101 0 180 61v697l-148 22v9q0 47 19 79h323l-22 -133v-753l129 -23v-8q0 -48 -19 -80l-282 -20l12 139h-12q-113 -139 -250 -139q-111 0 -174.5 60.5t-63.5 178.5v617l-28 16q-36 22 -48 32t-20 25zM256 1143l154 352h127 l153 -352q-10 -10 -34 -16.5t-40 -6.5l-149 193l-141 -193q-44 0 -70 23z" />
<glyph unicode="&#xfc;" horiz-adv-x="952" d="M47 909v41l268 68v-828q43 -61 136 -61q101 0 180 61v697l-148 22v9q0 47 19 79h323l-22 -133v-753l129 -23v-8q0 -48 -19 -80l-282 -20l12 139h-12q-113 -139 -250 -139q-111 0 -174.5 60.5t-63.5 178.5v617l-28 16q-36 22 -48 32t-20 25zM242 1251q0 51 25 80t69 29 t70 -29t26 -80q0 -47 -25.5 -77.5t-70.5 -30.5q-44 0 -69 30.5t-25 77.5zM512 1251q0 51 25 80t69 29t70 -29t26 -80q0 -47 -25.5 -77.5t-70.5 -30.5q-44 0 -69 30.5t-25 77.5z" />
<glyph unicode="&#xfd;" horiz-adv-x="782" d="M-29 909v9q0 47 19 79h368l-16 -88l-104 -22l170 -697h12l186 697l-125 22v9q0 47 19 79h319l-16 -88l-62 -22l-358 -1211l104 -38v-9q0 -47 -20 -80q-68 0 -188.5 13t-186.5 32l25 93l133 6l110 309l-79 8l-234 877zM393 1141l78 354h211l-215 -375q-15 0 -39.5 6.5 t-34.5 14.5z" />
<glyph unicode="&#xfe;" horiz-adv-x="923" d="M29 -430l16 88l102 23v1632l-28 16q-36 22 -48 32t-20 25v41l268 68v-586h13q45 61 95.5 85t115.5 24q136 0 226.5 -125t90.5 -354q0 -241 -121.5 -400t-294.5 -159q-60 0 -125 18v-317l138 -23v-8q0 -48 -19 -80h-409zM319 129q97 -33 195 -33q21 0 48 31t51.5 83.5 t41.5 136t17 175.5q0 164 -51.5 255t-149.5 91q-86 0 -152 -63v-676z" />
<glyph unicode="&#xff;" horiz-adv-x="782" d="M-29 909v9q0 47 19 79h368l-16 -88l-104 -22l170 -697h12l186 697l-125 22v9q0 47 19 79h319l-16 -88l-62 -22l-358 -1211l104 -38v-9q0 -47 -20 -80q-68 0 -188.5 13t-186.5 32l25 93l133 6l110 309l-79 8l-234 877zM174 1251q0 51 25 80t69 29q45 0 71 -29t26 -80 q0 -47 -26 -77.5t-71 -30.5q-44 0 -69 30.5t-25 77.5zM444 1251q0 51 25.5 80t69.5 29t70 -29t26 -80q0 -47 -25.5 -77.5t-70.5 -30.5q-44 0 -69.5 30.5t-25.5 77.5z" />
<glyph unicode="&#x152;" horiz-adv-x="1564" d="M74 698q0 176 36.5 315.5t99.5 226t144 132t174 45.5q110 0 186.5 -48t114.5 -134v162h412l195 20v-368q-14 -11 -40.5 -18t-45.5 -7h-13l-59 254h-274v-510h294q5 -45 5 -66q0 -15 -5 -65l-129 12h-165v-540l294 18l62 270h12q19 0 46.5 -6.5t39.5 -17.5v-373h-629v168 q-39 -91 -115 -139.5t-171 -48.5q-216 0 -342.5 184t-126.5 534zM287 698q0 -320 60 -459t196 -139q66 0 115 29.5t86 97t56 185t19 286.5t-20.5 288t-61 185.5t-91 95.5t-118.5 29q-127 0 -184 -146.5t-57 -451.5z" />
<glyph unicode="&#x153;" horiz-adv-x="1357" d="M63 500q0 235 105.5 376.5t280.5 141.5q190 0 284 -189q50 89 121 139t152 50q131 0 207.5 -93.5t76.5 -285.5q0 -55 -6 -98h-450q0 -211 60 -312.5t181 -101.5q109 0 182 92l25 -45q-32 -96 -93 -145t-165 -49q-93 0 -170 48t-127 136q-96 -184 -278 -184 q-178 0 -282 135.5t-104 384.5zM252 498q0 -205 49.5 -305.5t155.5 -100.5q188 0 188 408q0 205 -49.5 305t-155.5 100q-188 0 -188 -407zM836 621l294 18v20q0 122 -32.5 186t-106.5 64q-30 0 -57 -8q-22 -7 -56 -92.5t-42 -187.5z" />
<glyph unicode="&#x178;" horiz-adv-x="860" d="M-29 1298v15q0 49 21 84h414l-17 -99l-119 -22l191 -528h16l195 528l-127 22v15q0 51 20 84h320l-17 -99l-53 -22l-289 -696v-459l142 -23v-14q0 -49 -21 -84h-454l16 98l125 23v459l-275 696zM227 1559q0 45 24 71.5t64 26.5t65.5 -26.5t25.5 -71.5q0 -43 -24.5 -71 t-66.5 -28q-41 0 -64.5 28t-23.5 71zM483 1559q0 45 24 71.5t64 26.5t65.5 -26.5t25.5 -71.5q0 -43 -24.5 -71t-66.5 -28q-41 0 -64.5 28t-23.5 71z" />
<glyph unicode="&#x2c6;" d="M182 1143l154 352h127l153 -352q-10 -10 -33.5 -16.5t-39.5 -6.5l-150 193l-141 -193q-44 0 -70 23z" />
<glyph unicode="&#x2dc;" d="M141 1161q62 137 94 177t72 40q28 0 102 -34.5t93 -34.5q20 0 38 17t60 81l55 -27q-61 -138 -94.5 -180.5t-71.5 -42.5q-32 0 -105 35t-91 35q-21 0 -37.5 -15.5t-58.5 -76.5z" />
<glyph unicode="&#x2000;" horiz-adv-x="934" />
<glyph unicode="&#x2001;" horiz-adv-x="1868" />
<glyph unicode="&#x2002;" horiz-adv-x="934" />
<glyph unicode="&#x2003;" horiz-adv-x="1868" />
<glyph unicode="&#x2004;" horiz-adv-x="622" />
<glyph unicode="&#x2005;" horiz-adv-x="467" />
<glyph unicode="&#x2006;" horiz-adv-x="311" />
<glyph unicode="&#x2007;" horiz-adv-x="311" />
<glyph unicode="&#x2008;" horiz-adv-x="233" />
<glyph unicode="&#x2009;" horiz-adv-x="373" />
<glyph unicode="&#x200a;" horiz-adv-x="103" />
<glyph unicode="&#x2010;" horiz-adv-x="382" d="M43 424v149h297v-149h-297z" />
<glyph unicode="&#x2011;" horiz-adv-x="382" d="M43 424v149h297v-149h-297z" />
<glyph unicode="&#x2012;" horiz-adv-x="382" d="M43 424v149h297v-149h-297z" />
<glyph unicode="&#x2013;" horiz-adv-x="768" d="M51 424v149h666v-149h-666z" />
<glyph unicode="&#x2014;" horiz-adv-x="1536" d="M51 424v149h1434v-149h-1434z" />
<glyph unicode="&#x2018;" horiz-adv-x="346" d="M51 1149l197 346q48 0 67 -39l-110 -285l63 -43q0 -88 -22.5 -134t-75.5 -46q-55 0 -87 51t-32 150z" />
<glyph unicode="&#x2019;" horiz-adv-x="346" d="M31 987l110 285l-63 43q0 88 22.5 134t75.5 46q55 0 87 -51t32 -150l-197 -346q-48 0 -67 39z" />
<glyph unicode="&#x201a;" horiz-adv-x="346" d="M31 18l110 285l-63 43q0 88 22.5 134t75.5 46q55 0 87 -50.5t32 -149.5l-197 -346q-49 0 -67 38z" />
<glyph unicode="&#x201c;" horiz-adv-x="630" d="M51 1149l197 346q48 0 67 -39l-110 -285l63 -43q0 -88 -22.5 -134t-75.5 -46q-55 0 -87 51t-32 150zM336 1149l196 346q49 0 68 -39l-111 -285l64 -43q0 -88 -22.5 -134t-75.5 -46q-55 0 -87 51t-32 150z" />
<glyph unicode="&#x201d;" horiz-adv-x="630" d="M31 987l110 285l-63 43q0 88 22.5 134t75.5 46q55 0 87 -51t32 -150l-197 -346q-48 0 -67 39zM315 987l111 285l-64 43q0 180 99 180q55 0 87 -51t32 -150l-197 -346q-49 0 -68 39z" />
<glyph unicode="&#x201e;" horiz-adv-x="630" d="M31 18l110 285l-63 43q0 88 22.5 134t75.5 46q55 0 87 -50.5t32 -149.5l-197 -346q-49 0 -67 38zM315 18l111 285l-64 43q0 180 99 180q55 0 87 -50.5t32 -149.5l-197 -346q-50 0 -68 38z" />
<glyph unicode="&#x2022;" horiz-adv-x="618" d="M63 504q0 137 66 217t178 80q114 0 181 -80t67 -217q0 -131 -65 -214t-179 -83q-118 0 -183 82.5t-65 214.5z" />
<glyph unicode="&#x2026;" horiz-adv-x="1167" d="M68 119q0 64 30.5 101.5t83.5 37.5q54 0 85.5 -37.5t31.5 -101.5q0 -62 -30.5 -100.5t-84.5 -38.5q-55 0 -85.5 38.5t-30.5 100.5zM467 119q0 64 31 101.5t84 37.5q54 0 85 -37t31 -102q0 -62 -30 -100.5t-84 -38.5q-55 0 -86 38.5t-31 100.5zM866 119q0 64 31 101.5 t84 37.5q54 0 85.5 -37.5t31.5 -101.5q0 -62 -30.5 -100.5t-84.5 -38.5q-55 0 -86 38.5t-31 100.5z" />
<glyph unicode="&#x202f;" horiz-adv-x="373" />
<glyph unicode="&#x2039;" horiz-adv-x="401" d="M41 494v18l238 387l61 -12l-104 -383l104 -385l-61 -13z" />
<glyph unicode="&#x203a;" horiz-adv-x="401" d="M61 121l105 383l-105 385l62 12l237 -387v-18l-237 -387z" />
<glyph unicode="&#x205f;" horiz-adv-x="467" />
<glyph unicode="&#x20ac;" horiz-adv-x="860" d="M70 555q0 21 6 39h74q-3 50 -3 104t3 103h-74q-6 18 -6 39t6 39h80q30 271 141.5 404.5t280.5 133.5q118 0 204 -35q0 -77 -22 -141q-51 20 -127.5 32.5t-136.5 12.5q-43 0 -59.5 -9t-33.5 -44q-45 -98 -57 -354h301q6 -18 6 -39t-6 -39h-305q-2 -35 -2 -103 q0 -69 2 -104h305q6 -18 6 -39t-6 -39h-301q11 -211 61 -306t158 -95q129 0 211 102q12 -77 12 -141q-80 -96 -227 -96q-186 0 -284.5 133.5t-122.5 402.5h-78q-6 18 -6 39z" />
<glyph unicode="&#x2122;" horiz-adv-x="1312" d="M45 1225v172h350l121 10l-18 -182q-18 -15 -52 -15h-14l-14 117l-86 -4v-555l63 -10v-10q0 -32 -12 -52h-227l6 62l55 10v549l-84 -4l-20 -103h-19q-31 0 -49 15zM549 696l6 62l55 10l25 557l-64 10v11q0 28 13 51h182l141 -494l142 494h196l-6 -62l-61 -10l14 -557 l63 -10v-10q0 -31 -12 -52h-221l8 62l57 10q-6 305 -8 440h-10l-158 -512l-53 -10l-145 522h-11l-14 -440l68 -10v-10q0 -22 -13 -52h-194z" />
<glyph unicode="&#xe000;" horiz-adv-x="993" d="M0 0v993h993v-993h-993z" />
</font>
</defs>
</svg>
