<?xml version="1.0" standalone="no"?>
<!DOCTYPE svg PUBLIC "-//W3C//DTD SVG 1.1//EN" "http://www.w3.org/Graphics/SVG/1.1/DTD/svg11.dtd" >
<svg xmlns="http://www.w3.org/2000/svg">
<metadata></metadata>
<defs>
<font id="malaga_otreg_italic" horiz-adv-x="1024" >
<font-face units-per-em="2048" ascent="1638" descent="-410" />
<missing-glyph horiz-adv-x="532" />
<glyph unicode="&#xfb01;" horiz-adv-x="1290" d="M-145 -315l22 127q61 -9 103 -9q36 0 77 9q19 4 41 61q46 113 72 281l117 725l-41 8q-51 10 -71.5 18.5t-29.5 22.5l13 69h149l8 50q35 202 151 325t267 123q69 0 109 -29l-23 -127q-79 9 -125 9q-60 0 -100 -9q-14 -4 -33 -45q-46 -93 -80 -297h447l221 21l-166 -879 q112 0 209 23l10 -25q-71 -93 -128.5 -125t-121.5 -32q-60 0 -95.5 22t-61.5 66l151 809h-485l-125 -773q-34 -204 -136 -326t-239 -122q-66 0 -106 29zM983 1311q0 62 36 97.5t97 35.5q44 0 70 -27.5t26 -70.5q0 -58 -37 -95t-96 -37q-47 0 -71.5 27.5t-24.5 69.5z" />
<glyph unicode="&#xfb02;" horiz-adv-x="1290" d="M-145 -315l22 127q61 -9 103 -9q36 0 77 9q19 4 41 61q46 113 72 281l117 725l-41 8q-51 10 -71.5 18.5t-29.5 22.5l13 69h149l8 50q33 198 164.5 317t329.5 119q107 0 248 -25l182 37l-256 -1356q112 0 209 23l10 -25q-71 -93 -128.5 -125t-121.5 -32q-61 0 -95.5 21.5 t-61.5 66.5l233 1243q-133 26 -309 26q-73 0 -109 -8q-16 -4 -39 -43q-57 -94 -90 -289h256q0 -80 -22 -120h-254l-125 -773q-34 -204 -136 -326t-239 -122q-66 0 -106 29z" />
<glyph horiz-adv-x="2048" />
<glyph horiz-adv-x="2048" />
<glyph unicode="&#xd;" horiz-adv-x="2048" />
<glyph unicode=" "  horiz-adv-x="532" />
<glyph unicode="&#x09;" horiz-adv-x="532" />
<glyph unicode="&#xa0;" horiz-adv-x="532" />
<glyph unicode="!" horiz-adv-x="602" d="M113 94q0 67 40 108.5t105 41.5q51 0 82 -32t31 -83q0 -66 -40 -107.5t-106 -41.5q-52 0 -82 32.5t-30 81.5zM236 416l106 981q90 20 231 20l-243 -1001h-94z" />
<glyph unicode="&#x22;" horiz-adv-x="542" d="M147 954l35 521h211l-151 -521q-19 -8 -47 -8q-32 0 -48 8zM444 954l35 521h211l-151 -521q-19 -8 -47 -8q-32 0 -48 8z" />
<glyph unicode="#" horiz-adv-x="1085" d="M-8 420q4 31 22 79t35 79l217 22l68 182l-236 -24q4 32 23 80t37 77l231 25l170 467q59 0 105 -16l-160 -439l235 25l158 430q58 0 104 -16l-145 -402l240 25q-7 -30 -25.5 -79.5t-36.5 -78.5l-235 -25l-66 -182l254 27q-7 -31 -25 -80t-36 -78l-248 -26l-182 -502 q-59 0 -105 16l172 473l-235 -24l-170 -465q-58 0 -105 16l156 436zM383 612l235 25l66 182l-235 -24z" />
<glyph unicode="$" horiz-adv-x="1085" d="M100 -147l103 266q-47 10 -80 24l29 275q28 22 73 22h17l30 -194q120 -29 238 -29q93 0 123 10q26 6 61 54.5t35 109.5q0 55 -26 98t-68 72t-92.5 56t-100.5 57t-92 66.5t-68 94t-26 130.5q0 120 93 216.5t253 121.5l98 256q49 0 78 -23l-88 -225h10q57 0 115 -8l98 256 q49 0 78 -23l-94 -244q43 -7 80 -18l-23 -270q-31 -23 -73 -23h-17l-35 182q-89 19 -178 19q-85 0 -131 -11q-11 -3 -32 -21.5t-42.5 -60t-21.5 -88.5q0 -50 26 -89.5t68 -67t92 -54t100.5 -57t92.5 -68.5t68 -97t26 -134q0 -134 -111 -235t-297 -111l-98 -258q-49 0 -78 23 l93 237q-60 3 -123 12l-105 -272q-49 0 -78 23z" />
<glyph unicode="%" horiz-adv-x="1550" d="M154 987q0 183 99 306.5t261 123.5q135 0 207 -78t72 -215q0 -188 -102 -309t-259 -121q-134 0 -206 77.5t-72 215.5zM233 0l1035 1417q62 0 94 -41l-1034 -1417q-62 0 -95 41zM313 961q0 -85 36.5 -127.5t99.5 -42.5q45 0 69 8q12 3 30.5 28t38 66.5t33 110.5t13.5 147 q0 85 -36.5 127.5t-98.5 42.5q-46 0 -70 -8q-12 -3 -30.5 -27.5t-38 -66t-33 -110.5t-13.5 -148zM827 272q0 183 99.5 306.5t261.5 123.5q135 0 206.5 -77.5t71.5 -214.5q0 -189 -101.5 -309.5t-258.5 -120.5q-134 0 -206.5 77t-72.5 215zM987 246q0 -85 36.5 -127.5 t98.5 -42.5q46 0 70 8q12 3 30.5 28t38 66.5t33 110.5t13.5 147q0 85 -36.5 127.5t-99.5 42.5q-45 0 -69 -8q-12 -3 -30.5 -27.5t-38 -66t-33 -110.5t-13.5 -148z" />
<glyph unicode="&#x26;" horiz-adv-x="1398" d="M70 299q0 128 83.5 247t274.5 251q-35 75 -35 178q0 183 115 312.5t274 129.5q134 0 210.5 -60.5t76.5 -162.5q0 -68 -41.5 -123t-105.5 -72q-50 8 -76.5 32.5t-26.5 62.5q0 42 32 70.5t95 35.5v8q0 41 -45 69t-125 28q-36 0 -71 -9q-12 -3 -29.5 -19.5t-37 -45.5 t-33 -77.5t-13.5 -104.5q0 -83 41 -178t170 -283l143 -209q95 110 201 272l-158 23l2 14q12 61 43 92h393l-38 -106l-80 -23q-151 -237 -287 -381l182 -260q-19 -18 -53 -29.5t-64 -13.5q-32 31 -62.5 63.5t-67 72.5t-52.5 57q-212 -180 -452 -180q-180 0 -281.5 88.5 t-101.5 230.5zM279 352q0 -103 62.5 -166t174.5 -63q151 0 307 129q-211 245 -344 450q-200 -155 -200 -350z" />
<glyph unicode="'" horiz-adv-x="245" d="M147 954l35 521h211l-151 -521q-19 -8 -47 -8q-32 0 -48 8z" />
<glyph unicode="(" horiz-adv-x="563" d="M72 258q0 101 10.5 206.5t34 217t57.5 214t85.5 196t113.5 164.5t145 118t178 58q23 -48 23 -97q-105 -16 -194 -126t-146.5 -276.5t-90 -368t-32.5 -406.5q0 -169 47.5 -251.5t142.5 -113.5q-7 -58 -30 -98q-169 28 -256.5 172t-87.5 391z" />
<glyph unicode=")" horiz-adv-x="563" d="M-145 -209q105 16 193.5 126t146.5 276.5t90 368.5t32 407q0 115 -23.5 190.5t-63.5 114t-103 59.5q7 57 31 99q169 -28 256.5 -172.5t87.5 -391.5q0 -144 -20.5 -293t-69 -302t-118.5 -274t-178 -204.5t-239 -99.5q-22 46 -22 96z" />
<glyph unicode="*" horiz-adv-x="804" d="M127 1147q6 39 29 90t49 78l256 -135q6 203 8 303q35 12 92 12q56 0 86 -12l-96 -303l293 139q33 -57 33 -139q0 -18 -3 -33l-309 -49l172 -224q-23 -30 -71 -59.5t-88 -38.5l-93 266l-184 -268q-37 12 -78.5 46t-56.5 63l256 215z" />
<glyph unicode="+" horiz-adv-x="1085" d="M117 424v147h348v394h153v-394h349v-147h-349v-393h-153v393h-348z" />
<glyph unicode="," horiz-adv-x="460" d="M-152 -315l273 374l-90 62q5 72 43.5 118t109.5 46q53 0 88 -39t35 -107q0 -28 -10 -73l-365 -435q-25 2 -50 18t-34 36z" />
<glyph unicode="-" horiz-adv-x="512" d="M43 420l27 158h397l-27 -158h-397z" />
<glyph unicode="." horiz-adv-x="460" d="M23 100q0 71 43.5 114.5t113.5 43.5q54 0 86.5 -33.5t32.5 -87.5q0 -70 -43.5 -113.5t-114.5 -43.5q-55 0 -86.5 33.5t-31.5 86.5z" />
<glyph unicode="/" horiz-adv-x="720" d="M-80 -55l793 1554q38 0 76.5 -13.5t58.5 -33.5l-793 -1554q-34 0 -74.5 12.5t-60.5 34.5z" />
<glyph unicode="0" horiz-adv-x="1200" d="M102 436q0 140 39.5 265.5t111.5 222t181 153t240 56.5q194 0 309 -126t115 -331q0 -140 -39.5 -265.5t-111.5 -221.5t-181 -152.5t-240 -56.5q-195 0 -309.5 125.5t-114.5 330.5zM258 444q0 -154 78.5 -235.5t206.5 -81.5q95 0 157 16q18 5 45.5 26t62.5 65t64.5 101.5 t49.5 145.5t20 187q0 154 -78.5 235.5t-206.5 81.5q-95 0 -157 -16q-18 -5 -45.5 -26t-62.5 -65t-64.5 -101.5t-49.5 -145.5t-20 -187z" />
<glyph unicode="1" horiz-adv-x="743" d="M-41 0l41 102l229 23l152 846l-96 24q-77 22 -90 60l10 57h393l-176 -987l209 -23l-4 -20q-10 -51 -41 -82h-627z" />
<glyph unicode="2" d="M4 100q205 133 334 229t201 171t97.5 130.5t25.5 117.5q0 104 -65 165.5t-167 61.5q-127 0 -207 -80l-51 35q120 203 346 203q145 0 250.5 -92t105.5 -244q0 -157 -117.5 -287.5t-424.5 -314.5v-13h497q0 -105 -24 -153.5t-84 -48.5q-46 0 -141 10l-445 49l-80 -53 q-19 12 -35 47.5t-16 66.5z" />
<glyph unicode="3" d="M-35 -197q313 29 468 112.5t155 225.5q0 217 -277 217h-133l21 123h133q168 0 257 68t89 199q0 99 -66 163t-174 64q-74 0 -123.5 -19.5t-95.5 -62.5l-51 35q64 104 149.5 154.5t204.5 50.5q168 0 268.5 -99t100.5 -254q0 -138 -81.5 -231.5t-205.5 -116.5v-16 q91 -29 145 -100t54 -175q0 -110 -60 -194.5t-170.5 -138t-259.5 -82t-333 -31.5q-15 47 -15 108z" />
<glyph unicode="4" d="M-35 31l31 168l643 934q32 0 78 -14t65 -32l-628 -903h458l82 459h193l-82 -459h149l-2 -20q-8 -73 -51 -133h-123l-57 -316h-193l58 316h-621z" />
<glyph unicode="5" d="M-4 -197q616 45 616 334q0 134 -109 207t-331 100l158 668h663q0 -108 -39 -151t-118 -43q-88 0 -387 36l-117 -364q147 -21 256 -73t174 -141.5t65 -207.5q0 -120 -63.5 -212.5t-176 -148.5t-258 -84t-319.5 -28q-14 43 -14 108z" />
<glyph unicode="6" d="M80 397q0 294 223.5 544.5t704.5 475.5q18 -9 37.5 -35t27.5 -49q-295 -168 -452 -304t-254 -320h12q92 86 235 86q140 0 233 -93.5t93 -252.5q0 -103 -39 -192t-103.5 -149t-148.5 -94t-174 -34q-180 0 -287.5 116t-107.5 301zM289 354q0 -128 54 -194t159 -66 q57 0 98 10q14 3 35.5 26.5t44.5 62.5t39 102.5t16 134.5q0 115 -56 177.5t-153 62.5q-58 0 -110 -21.5t-86 -58.5q-41 -103 -41 -236z" />
<glyph unicode="7" d="M53 -287l766 1241q-459 -36 -592 -36q-106 0 -106 86q0 44 31 108h860l-31 -172l-768 -1245q-105 0 -160 18z" />
<glyph unicode="8" d="M72 264q0 101 47 180.5t157 149.5l140 90q-215 139 -215 322q0 78 34 153t91.5 132t140.5 91.5t176 34.5q168 0 268.5 -82t100.5 -211q0 -90 -51 -162.5t-156 -138.5l-125 -80q107 -73 165 -159.5t58 -198.5q0 -118 -64.5 -212t-168.5 -143.5t-226 -49.5q-170 0 -271 81 t-101 203zM244 270q0 -84 60.5 -130t160.5 -46q71 0 137 19q37 11 74 74.5t37 150.5t-50.5 153.5t-170.5 143.5q-104 -75 -158.5 -135t-72 -110t-17.5 -120zM391 1065q0 -81 55 -143.5t158 -128.5q136 93 186 162t50 155q0 91 -62.5 142t-159.5 51q-55 0 -120 -19 q-33 -11 -70 -69.5t-37 -149.5z" />
<glyph unicode="9" d="M-49 -221q295 168 452 304t254 320h-12q-92 -86 -235 -86q-140 0 -233 93.5t-93 253.5q0 103 39 192t103.5 149t148.5 94t174 34q179 0 287 -116.5t108 -301.5q0 -294 -223.5 -544.5t-704.5 -475.5q-18 9 -37.5 35t-27.5 49zM289 682q0 -115 56 -177.5t153 -62.5 q58 0 110 21.5t86 58.5q41 103 41 236q0 128 -54 194t-159 66q-57 0 -98 -10q-14 -3 -35.5 -26.5t-44.5 -62.5t-39 -102.5t-16 -134.5z" />
<glyph unicode=":" horiz-adv-x="512" d="M39 100q0 70 43.5 114t114.5 44q54 0 86 -33.5t32 -87.5q0 -71 -43.5 -114t-113.5 -43q-56 0 -87.5 33.5t-31.5 86.5zM156 860q0 71 43.5 114.5t113.5 43.5q54 0 86.5 -33.5t32.5 -87.5q0 -71 -44 -114.5t-114 -43.5q-55 0 -86.5 34t-31.5 87z" />
<glyph unicode=";" horiz-adv-x="512" d="M-131 -315l272 374l-90 62q5 72 44 118t110 46q53 0 88 -39t35 -107q0 -23 -11 -73l-364 -435q-25 2 -50 18t-34 36zM156 860q0 71 43.5 114.5t113.5 43.5q54 0 86.5 -33.5t32.5 -87.5q0 -71 -44 -114.5t-114 -43.5q-55 0 -86.5 34t-31.5 87z" />
<glyph unicode="&#x3c;" horiz-adv-x="1085" d="M143 502l582 463h217l-582 -463l580 -471h-217z" />
<glyph unicode="=" horiz-adv-x="1085" d="M117 227v148h850v-148h-850zM117 623v147h850v-147h-850z" />
<glyph unicode="&#x3e;" horiz-adv-x="1085" d="M143 31l582 463l-580 471h217l580 -471l-582 -463h-217z" />
<glyph unicode="?" horiz-adv-x="888" d="M172 94q0 67 40 108.5t105 41.5q51 0 82 -32t31 -83q0 -66 -39.5 -107.5t-105.5 -41.5q-52 0 -82.5 32.5t-30.5 81.5zM213 627q12 60 47 92q199 44 310.5 133t111.5 215q0 90 -53 147.5t-152 57.5q-69 0 -119.5 -21t-97.5 -63l-39 37q63 100 148 146t206 46 q138 0 230 -87.5t92 -225.5q0 -160 -121.5 -268t-347.5 -156l-57 -264h-72z" />
<glyph unicode="@" horiz-adv-x="1837" d="M82 207q0 234 86 443t229 355.5t334 232t395 85.5q179 0 321 -71t225 -209t83 -320q0 -149 -46 -285t-120.5 -231t-171 -151t-194.5 -56q-92 0 -155.5 26.5t-111.5 90.5h-12q-133 -117 -237 -117t-163 68.5t-59 193.5q0 135 47 261t118.5 212.5t156 138.5t160.5 52 q153 0 225 -125l76 125q75 0 129 -31l-285 -725q25 -45 111 -45q101 0 194 83.5t150 222.5t57 292q0 222 -141.5 344.5t-370.5 122.5q-129 0 -249.5 -38t-217.5 -105t-178 -159.5t-135.5 -200.5t-84.5 -229.5t-30 -244.5q0 -227 135 -355t350 -128q69 0 144 17.5t121 41.5 l-39 -125q-111 -63 -254 -63q-125 0 -233 41.5t-187.5 117.5t-125.5 191.5t-46 255.5zM668 293q0 -76 31 -119t87 -43q66 0 166 66l217 553q-123 49 -219 49q-62 0 -128.5 -77.5t-110 -197t-43.5 -231.5z" />
<glyph unicode="A" horiz-adv-x="1183" d="M-145 0l41 106l86 23l706 1268l107 20l243 -1288l146 -23l-4 -20q-11 -56 -41 -86h-500l41 106l156 23l-72 395l-422 -20l-197 -375l205 -23l-4 -20q-11 -56 -41 -86h-450zM403 623h342l-81 460h-17z" />
<glyph unicode="B" horiz-adv-x="1239" d="M-12 0l41 106l155 23l203 1139l-197 22l5 21q10 55 41 86h518q195 0 302 -91t107 -255q0 -133 -80.5 -222t-203.5 -110v-17q99 -27 166 -103.5t67 -192.5q0 -184 -145 -295t-392 -111h-587zM381 129l205 -23q138 2 225.5 79t87.5 208q0 129 -79.5 194.5t-225.5 65.5h-119 zM492 752l270 14q90 26 143 101t53 177q0 114 -64.5 176t-186.5 62h-121z" />
<glyph unicode="C" horiz-adv-x="1271" d="M109 580q0 170 52 320.5t148.5 266t245 183t330.5 67.5q69 0 169 -12t173 -31l-45 -389q-38 -24 -88 -24h-15l-45 286q-119 29 -243 29q-98 0 -152 -10q-27 -5 -65.5 -38.5t-81 -97t-79 -143.5t-60 -189.5t-23.5 -224.5q0 -222 105 -336t292 -114q118 0 195 29l86 258h14 q52 0 88 -25l-25 -307q-170 -98 -405 -98q-179 0 -309.5 78t-196 212.5t-65.5 309.5z" />
<glyph unicode="D" horiz-adv-x="1449" d="M-12 0l41 106l155 23l203 1139l-197 22l5 21q11 56 41 86h563q129 0 235 -35.5t184.5 -105t122 -181.5t43.5 -258q0 -176 -65 -330t-173 -259.5t-250 -166.5t-294 -61h-614zM385 135l240 -22q109 5 208 63t171.5 153t115.5 228t43 281q0 120 -32 207.5t-90 136.5 t-129 71.5t-160 22.5h-164z" />
<glyph unicode="E" horiz-adv-x="1245" d="M-12 0l41 106l155 23l203 1139l-197 22l5 21q11 56 41 86h716l240 20l-35 -385q-37 -24 -88 -24h-14l-54 262h-413l-90 -498h442q0 -73 -25 -137l-170 10h-268l-94 -528l483 18l99 262h14q54 0 88 -24l-35 -373h-1044z" />
<glyph unicode="F" horiz-adv-x="1157" d="M-12 0l41 106l155 23l203 1139l-197 22l5 21q11 56 41 86h716l240 20l-35 -399q-39 -25 -88 -25h-14l-54 277h-413l-96 -533h491q0 -73 -22 -137l-173 10h-317l-86 -481l213 -23l-4 -20q-11 -56 -41 -86h-565z" />
<glyph unicode="G" horiz-adv-x="1396" d="M109 580q0 175 56 328t156.5 266t249.5 178t326 65q220 0 397 -43l-41 -379q-41 -24 -88 -24h-14l-43 276q-129 29 -270 29q-124 0 -193 -10q-22 -3 -58 -32t-81 -89t-84 -138t-65.5 -193t-26.5 -241q0 -218 109 -334t309 -116q108 0 176 22l63 371l-217 23l4 20 q11 56 41 86h492l-41 -106l-78 -23l-92 -516l-27 -20l-127 51q-117 -51 -240 -51q-186 0 -321.5 78t-203.5 212.5t-68 309.5z" />
<glyph unicode="H" horiz-adv-x="1529" d="M-12 0l41 106l155 23l203 1139l-197 22l5 21q11 56 41 86h550l-41 -107l-157 -22l-88 -496h610l88 496l-197 22l5 21q11 56 41 86h550l-41 -107l-157 -22l-203 -1139l197 -23l-4 -20q-11 -56 -41 -86h-549l41 106l155 23l92 516h-610l-92 -516l197 -23l-4 -20 q-11 -56 -41 -86h-549z" />
<glyph unicode="I" horiz-adv-x="718" d="M-12 0l41 106l155 23l203 1139l-197 22l5 21q11 56 41 86h550l-41 -107l-157 -22l-203 -1139l197 -23l-4 -20q-11 -56 -41 -86h-549z" />
<glyph unicode="J" horiz-adv-x="700" d="M-59 -412l217 392l229 1288l-197 22l5 21q11 56 41 86h550l-41 -107l-157 -22l-201 -1125q-18 -101 -49 -166t-98 -153l-207 -275q-53 0 -92 39z" />
<glyph unicode="K" horiz-adv-x="1308" d="M-12 0l41 106l155 23l203 1139l-197 22l5 21q11 56 41 86h540l-41 -107l-147 -22l-115 -639h16l631 639l-178 22l4 21q11 56 41 86h506l-41 -107l-121 -22l-469 -443l350 -800q-23 -22 -61.5 -37t-69.5 -15l-393 689l-250 -236l-53 -297l180 -23l-4 -20q-11 -56 -41 -86 h-532z" />
<glyph unicode="L" horiz-adv-x="1097" d="M-12 0l41 106l155 23l203 1139l-197 22l5 21q11 56 41 86h563l-41 -107l-170 -22l-205 -1151l420 18l98 285h14q53 0 89 -25l-35 -395h-981z" />
<glyph unicode="M" horiz-adv-x="1832" d="M-51 0l41 106l155 23l265 1139l-197 22l4 21q11 56 41 86h404l210 -1098l611 1098h407l-41 -107l-157 -22l-168 -1139l196 -23l-4 -20q-11 -56 -41 -86h-538l41 106l155 23l152 973h-17l-637 -1102l-86 -20l-213 1122h-16l-213 -973l197 -23l-4 -20q-11 -56 -41 -86h-506 z" />
<glyph unicode="N" horiz-adv-x="1513" d="M-12 0l41 106l149 23l217 1139l-196 22l4 21q11 56 41 86h387l450 -1045h17l159 916l-227 22l4 21q11 56 41 86h537l-41 -107l-158 -22l-239 -1268l-105 -20l-545 1140h-16l-174 -991l227 -23l-2 -14q-3 -23 -15.5 -50t-27.5 -42h-528z" />
<glyph unicode="O" horiz-adv-x="1445" d="M109 563q0 191 59 353t159 270.5t232 169.5t277 61q119 0 217 -35.5t171.5 -105.5t114.5 -183t41 -259q0 -152 -38 -288t-106.5 -238t-159.5 -176.5t-199 -113t-224 -38.5q-119 0 -217 35.5t-171.5 105.5t-114.5 183t-41 259zM330 563q0 -228 104 -343.5t271 -115.5 q54 0 110 9q16 2 44.5 20.5t68 53t79.5 94t74.5 134.5t56 185t21.5 234q0 227 -103.5 342.5t-271.5 115.5q-60 0 -110 -8q-16 -2 -44.5 -20.5t-68 -53t-79.5 -94t-74.5 -134.5t-56 -185t-21.5 -234z" />
<glyph unicode="P" horiz-adv-x="1161" d="M-12 0l41 106l155 23l203 1139l-197 22l5 21q11 56 41 86h514q206 0 311.5 -94.5t105.5 -255.5q0 -195 -128.5 -315.5t-364.5 -143.5l-211 -21l-78 -438l197 -23l-4 -20q-11 -56 -41 -86h-549zM485 688l273 17q87 34 141.5 126t54.5 207q0 110 -59.5 177t-177.5 67h-127z " />
<glyph unicode="Q" horiz-adv-x="1372" d="M123 20q0 64 22 113q62 49 166 49q58 0 106.5 -10.5t133.5 -44.5q246 79 390 273.5t144 465.5q0 215 -98.5 321.5t-271.5 106.5q-44 0 -60 -4q-18 -2 -53 -26t-79.5 -73.5t-84 -114t-67 -160t-27.5 -199.5q0 -113 57 -173.5t140 -60.5q108 0 180 90q11 -12 24.5 -41.5 t14.5 -44.5q-49 -70 -125 -106.5t-166 -36.5q-142 0 -237 98.5t-95 284.5q0 140 55 269.5t144.5 220.5t205.5 145.5t234 54.5q111 0 206.5 -35t168.5 -103t114.5 -176t41.5 -245q0 -138 -47.5 -264t-131.5 -224.5t-195.5 -173t-242.5 -118.5v-10l451 -226 q-8 -29 -28.5 -56.5t-43.5 -37.5l-598 242q-89 -15 -172 -15q-128 0 -176 45z" />
<glyph unicode="R" horiz-adv-x="1220" d="M-12 0l41 106l155 23l203 1139l-197 22l5 21q11 56 41 86h507q206 0 309 -97t103 -256q0 -137 -76.5 -245t-222.5 -156l283 -618q-24 -23 -62.5 -37.5t-68.5 -14.5l-377 631l-166 -22l-80 -453l180 -23l-4 -20q-11 -56 -41 -86h-532zM487 700l285 17q81 29 126.5 117 t45.5 204t-63.5 180t-169.5 64h-121z" />
<glyph unicode="S" horiz-adv-x="1064" d="M82 57l37 322q37 24 88 24h14l39 -245q84 -52 217 -52q77 0 148 19q37 9 69.5 71t32.5 132q0 61 -29 112.5t-75.5 89.5t-103 74.5t-113 76t-103 83.5t-75.5 107t-29 139q0 48 17.5 101.5t57 108.5t96.5 98.5t144 71t191 27.5q172 0 296 -39l-36 -342q-37 -24 -88 -24h-15 l-37 252q-89 26 -202 26q-57 0 -115 -14q-36 -8 -73.5 -73t-37.5 -132q0 -58 29 -107t76 -86.5t103.5 -73.5t112.5 -76.5t103 -86.5t76 -113.5t29 -148.5q0 -68 -31.5 -137t-90 -128t-153.5 -96.5t-209 -37.5q-212 0 -360 77z" />
<glyph unicode="T" horiz-adv-x="1150" d="M104 1077l58 320h839l261 20l-68 -340q-38 -24 -94 -24h-8l-25 227l-279 -8l-202 -1143l196 -23l-4 -20q-11 -56 -41 -86h-549l41 106l156 23l203 1139l-281 -6l-102 -209h-15q-56 0 -86 24z" />
<glyph unicode="U" horiz-adv-x="1449" d="M186 1290l4 21q11 56 41 86h529l-41 -107l-172 -22l-148 -836q-8 -41 -8 -86q0 -115 73.5 -164t229.5 -49q165 0 252.5 68.5t116.5 230.5l147 836l-221 22l4 21q11 56 41 86h484l-41 -107l-121 -22l-148 -836q-39 -218 -179.5 -335t-371.5 -117q-216 0 -340 102.5 t-124 271.5q0 38 6 78l147 836z" />
<glyph unicode="V" horiz-adv-x="1245" d="M98 1290l4 21q11 56 41 86h500l-41 -107l-156 -22l164 -955h17l493 955l-205 22l5 21q11 56 41 86h450l-41 -107l-86 -22l-698 -1268l-107 -20l-235 1288z" />
<glyph unicode="W" horiz-adv-x="2021" d="M117 1290l4 21q11 56 41 86h518l-41 -107l-172 -22l117 -949h16l463 949l-197 22l4 21q11 56 41 86h553l-41 -107l-145 -22l137 -949h17l440 949l-223 22l4 21q11 56 41 86h467l-41 -107l-86 -22l-639 -1268l-123 -20l-156 1064h-16l-537 -1044l-123 -20l-178 1288z" />
<glyph unicode="X" horiz-adv-x="1243" d="M-106 0l40 106l113 23l496 571l-285 568l-145 22l4 21q11 56 41 86h528l-41 -107l-156 -22l209 -445l377 445l-205 22l4 21q11 56 41 86h459l-41 -107l-86 -22l-487 -545l297 -594l145 -23l-4 -20q-11 -56 -41 -86h-541l41 106l168 23l-219 471l-387 -471l205 -23l-4 -20 q-11 -56 -41 -86h-485z" />
<glyph unicode="Y" horiz-adv-x="1034" d="M51 1290l4 21q11 56 41 86h506l-41 -107l-155 -22l169 -545h17l369 545l-205 22l4 21q11 56 41 86h434l-41 -107l-74 -22l-497 -688l-80 -451l196 -23l-4 -20q-11 -56 -41 -86h-549l41 106l156 23l80 451l-238 688z" />
<glyph unicode="Z" horiz-adv-x="1323" d="M37 0l12 70l936 1200h-539l-106 -291h-14q-55 0 -86 25l45 413l266 -20h737l-12 -70l-975 -1210l631 20l115 318h14q52 0 88 -25l-49 -430h-1063z" />
<glyph unicode="[" horiz-adv-x="655" d="M12 -291l301 1708h410l-49 -119l-201 -10l-256 -1450l225 -10l-49 -119h-381z" />
<glyph unicode="\" horiz-adv-x="720" d="M168 1464q52 35 145 35l293 -1567q-50 -34 -145 -34z" />
<glyph unicode="]" horiz-adv-x="655" d="M-70 -291l50 119l200 10l256 1450l-225 10l49 119h381l-301 -1708h-410z" />
<glyph unicode="^" d="M59 492l506 751h158l242 -751q-14 -10 -43.5 -16.5t-49.5 -6.5l-268 559l-450 -559q-23 0 -52.5 6.5t-42.5 16.5z" />
<glyph unicode="_" d="M-104 -121h1024v-158h-1024v158z" />
<glyph unicode="`" d="M371 1495h225l55 -354q-40 -21 -78 -21z" />
<glyph unicode="a" horiz-adv-x="1103" d="M82 330q0 151 40 282t105 218.5t148 137.5t170 50q66 0 119 -30.5t102 -98.5l59 115q28 4 45 4q48 0 88 -21l-161 -848q114 0 211 23l10 -25q-71 -93 -128.5 -125t-121.5 -32q-125 0 -125 159h-10q-83 -90 -149 -124.5t-128 -34.5q-125 0 -199.5 95.5t-74.5 254.5z M279 346q0 -111 44 -165t115 -54q95 0 203 113l113 587q-55 18 -128.5 30.5t-115.5 12.5q-35 0 -75 -38.5t-75 -104.5t-58 -167t-23 -214z" />
<glyph unicode="b" horiz-adv-x="1091" d="M127 10l227 1305l-37 26q-55 40 -69 86l6 39l307 29l-108 -610h10q73 70 133.5 101.5t128.5 31.5q57 0 106 -19.5t90 -59.5t65 -109.5t24 -161.5q0 -150 -39.5 -280.5t-104.5 -218.5t-149.5 -138.5t-175.5 -50.5q-131 0 -232 110l-49 -96q-28 -4 -45 -4q-50 0 -88 20z M328 170q158 -47 247 -47q57 0 112.5 77t90.5 200.5t35 250.5q0 219 -168 219q-106 0 -215 -112z" />
<glyph unicode="c" horiz-adv-x="860" d="M82 342q0 183 70.5 339.5t188.5 246.5t253 90q121 0 217 -35q0 -36 -12 -86.5t-27 -83.5q-41 0 -143.5 29.5t-136.5 29.5q-23 0 -58 -37.5t-70 -100.5t-60 -162t-25 -205q0 -117 52.5 -173.5t149.5 -56.5q28 0 78.5 20t173.5 87l29 -37q-102 -121 -182.5 -174t-180.5 -53 q-153 0 -235 91.5t-82 270.5z" />
<glyph unicode="d" horiz-adv-x="1112" d="M82 330q0 151 40 282t105 218.5t148 137.5t170 50q68 0 121.5 -28.5t105.5 -100.5l74 426l-37 26q-57 41 -70 86l6 39l308 29l-242 -1356q114 0 211 23l10 -25q-71 -93 -128.5 -125t-121.5 -32q-125 0 -125 159h-10q-84 -92 -152 -125.5t-135 -33.5q-133 0 -205.5 97 t-72.5 253zM279 346q0 -219 167 -219q104 0 209 113l105 587q-148 43 -250 43q-34 0 -74 -38t-75 -103.5t-58.5 -167t-23.5 -215.5z" />
<glyph unicode="e" horiz-adv-x="952" d="M82 348q0 177 64 331.5t175 246.5t240 92q149 0 229 -78t80 -219q0 -55 -20 -119l-563 -94q-11 -74 -11 -129q0 -121 59.5 -181.5t166.5 -60.5q30 0 84 20t180 87l29 -37q-99 -118 -187 -172.5t-182 -54.5q-157 0 -250.5 91t-93.5 277zM303 598l393 80q4 20 4 55 q0 78 -50 124t-132 46q-39 0 -59 -8t-39 -31q-75 -90 -117 -266z" />
<glyph unicode="f" horiz-adv-x="731" d="M-145 -315l22 127q61 -9 103 -9q36 0 77 9q19 4 41 61q46 113 72 281l117 725l-41 8q-51 10 -71.5 18.5t-29.5 22.5l13 69h149l8 50q35 202 151 325t267 123q71 0 121 -29l-23 -127q-79 9 -137 9q-60 0 -100 -9q-14 -4 -33 -45q-46 -93 -80 -297h256q0 -80 -22 -120h-254 l-125 -773q-32 -203 -135 -325.5t-240 -122.5q-66 0 -106 29z" />
<glyph unicode="g" horiz-adv-x="1003" d="M-23 -262q0 46 20.5 80.5t82 80.5t184.5 113v8q-57 44 -57 105q0 51 32 95t121 99q-94 26 -150 96.5t-56 184.5q0 188 111 303t282 115q66 0 131 -21h311l-12 -71q-60 -37 -162 -37l-4 -12q47 -63 47 -160q0 -178 -107.5 -295t-281.5 -117q-21 0 -33 2q-76 -65 -76 -106 q0 -28 23 -54l209 -30q154 -22 221.5 -72t67.5 -149t-72.5 -178.5t-197 -124t-275.5 -44.5q-359 0 -359 189zM152 -219q0 -103 284 -103q149 0 269 60q28 35 28 80q0 52 -42 80t-161 51l-192 37q-111 -81 -148.5 -123.5t-37.5 -81.5zM334 588q0 -92 42.5 -136t117.5 -44 q29 0 53 6q13 3 32.5 21.5t43 54t39.5 100.5t16 145q0 92 -42.5 136t-117.5 44q-29 0 -53 -6q-13 -3 -32.5 -21.5t-43 -54t-39.5 -100.5t-16 -145z" />
<glyph unicode="h" horiz-adv-x="1200" d="M125 2l229 1313l-37 26q-55 40 -69 86l6 39l307 29l-112 -639h10q100 88 174.5 125t157.5 37q99 0 162 -52t63 -149q0 -29 -6 -59l-119 -619q114 0 211 23l10 -25q-71 -93 -128.5 -125t-121.5 -32q-107 0 -160 83l142 746q-46 43 -137 43q-124 0 -275 -90l-133 -758 q-41 -14 -88 -14q-45 0 -86 12z" />
<glyph unicode="i" horiz-adv-x="632" d="M137 68l146 770l-37 26q-57 41 -70 86l6 39l310 29l-166 -879q112 0 209 23l10 -25q-71 -93 -128.5 -125t-121.5 -32q-61 0 -97 22t-61 66zM326 1311q0 62 36 97.5t97 35.5q44 0 70 -27.5t26 -70.5q0 -58 -37 -95t-96 -37q-47 0 -71.5 27.5t-24.5 69.5z" />
<glyph unicode="j" horiz-adv-x="583" d="M-80 -412l209 389l150 861l-37 26q-57 41 -70 86l6 39l309 29l-155 -875q-22 -121 -45.5 -187.5t-87.5 -148.5l-203 -258q-50 3 -76 39zM322 1311q0 62 36 97.5t97 35.5q44 0 70 -27.5t26 -70.5q0 -58 -37 -95t-96 -37q-47 0 -71.5 27.5t-24.5 69.5z" />
<glyph unicode="k" horiz-adv-x="1069" d="M125 2l229 1313l-37 26q-55 40 -69 86l6 39l307 29l-182 -1030h8q249 166 323 227t93 111q-49 74 -68 160v30q52 25 111 25q63 0 102 -40.5t39 -107.5q0 -86 -65.5 -157.5t-247.5 -180.5l119 -393q81 0 178 23l10 -25q-66 -95 -112 -126t-101 -31q-82 0 -131 67l-115 395 q-113 -62 -162 -88l-61 -350q-43 -14 -88 -14t-86 12z" />
<glyph unicode="l" horiz-adv-x="622" d="M127 68l235 1247l-36 26q-57 41 -70 86l6 39l309 29l-256 -1356q112 0 209 23l11 -25q-71 -93 -128.5 -125t-121.5 -32q-61 0 -96 21.5t-62 66.5z" />
<glyph unicode="m" horiz-adv-x="1736" d="M133 2l146 836l-35 26q-58 44 -70 86l6 39l291 29l-25 -170h11q106 97 175 133.5t152 36.5q92 0 149 -45.5t64 -132.5q116 104 183.5 141t150.5 37q97 0 159 -51t62 -148q0 -26 -6 -61l-119 -619q114 0 211 23l11 -25q-71 -93 -128.5 -125t-121.5 -32q-107 0 -160 83 l141 746q-46 43 -131 43q-111 0 -256 -90l-133 -758q-43 -14 -90 -14q-44 0 -84 12l139 807q-46 43 -125 43q-115 0 -260 -90l-133 -758q-43 -14 -90 -14q-43 0 -84 12z" />
<glyph unicode="n" horiz-adv-x="1202" d="M133 2l146 836l-35 26q-58 44 -70 86l6 39l291 29l-25 -170h11q104 95 177.5 132.5t158.5 37.5q99 0 162 -52t63 -149q0 -29 -6 -59l-119 -619q114 0 211 23l10 -25q-71 -93 -128.5 -125t-121.5 -32q-106 0 -159 83l141 746q-46 43 -137 43q-124 0 -269 -90l-133 -758 q-46 -14 -90 -14q-47 0 -84 12z" />
<glyph unicode="o" horiz-adv-x="1030" d="M82 397q0 169 60.5 309.5t177 226t266.5 85.5q178 0 270 -105.5t92 -308.5q0 -175 -63 -317t-178.5 -224.5t-262.5 -82.5q-182 0 -272 108t-90 309zM279 375q0 -148 54.5 -211.5t158.5 -63.5q37 0 71 11q14 5 35 24t48.5 61.5t50.5 98t39 143t16 187.5q0 147 -54.5 209.5 t-158.5 62.5q-41 0 -72 -10q-14 -5 -34.5 -24t-48 -61.5t-50.5 -98t-39 -142t-16 -186.5z" />
<glyph unicode="p" horiz-adv-x="1099" d="M55 -430l224 1268l-35 26q-58 44 -70 86l6 39l291 29l-25 -148h11q83 82 145 115t131 33q126 0 205.5 -89t79.5 -261q0 -152 -40 -283t-105.5 -218.5t-150 -137t-173.5 -49.5q-129 0 -232 106l-88 -514q-43 -14 -88 -14t-86 12zM336 170q152 -47 248 -47q59 0 115 81 t89 203.5t33 243.5q0 120 -45.5 169.5t-128.5 49.5q-97 0 -209 -112z" />
<glyph unicode="q" horiz-adv-x="1064" d="M82 330q0 148 39 278.5t104 219t148.5 139.5t171.5 51q141 0 227 -129l55 115q28 4 45 4q51 0 91 -21l-250 -1415q-41 -14 -88 -14q-43 0 -86 12l96 549h-12q-77 -81 -138 -110t-125 -29q-131 0 -204.5 96t-73.5 254zM279 346q0 -219 167 -219q104 0 209 113l105 587 q-154 43 -250 43q-34 0 -74 -38t-75 -103.5t-58.5 -167t-23.5 -215.5z" />
<glyph unicode="r" horiz-adv-x="759" d="M133 2l146 836l-35 26q-58 44 -70 86l6 39l291 29l-25 -170h11q116 106 164.5 138t91.5 32q39 0 61 -14v-156q-116 -55 -334 -88l-133 -756q-43 -14 -92 -14q-47 0 -82 12z" />
<glyph unicode="s" horiz-adv-x="829" d="M72 27q0 27 10.5 77t23.5 80q136 -65 304 -65q37 0 53 4q18 4 34.5 31.5t16.5 68.5q0 38 -19.5 71.5t-51 59.5t-69.5 52.5t-76 56t-69.5 63t-51 80.5t-19.5 103q0 119 109 214t272 95q122 0 209 -33q0 -83 -35 -158q-51 23 -131.5 37.5t-147.5 14.5q-25 0 -37 -2 q-19 -3 -39 -36.5t-20 -74.5q0 -39 19.5 -72.5t51 -59.5t69.5 -51t76 -53.5t69.5 -61.5t51 -81t19.5 -106q0 -128 -107 -214.5t-259 -86.5t-256 47z" />
<glyph unicode="t" horiz-adv-x="733" d="M162 164q0 29 6 59l113 651l-107 35l6 31q46 75 130.5 138t178.5 87h17l-29 -168h271q0 -67 -23 -120h-270l-111 -641q-4 -24 -4 -33q0 -70 104 -70q29 0 62 10.5t104 44.5l27 -43q-73 -82 -136.5 -123.5t-133.5 -41.5q-99 0 -152 48.5t-53 135.5z" />
<glyph unicode="u" horiz-adv-x="1187" d="M162 180q0 30 6 60l115 598l-35 26q-58 44 -70 86l6 39l308 29l-158 -830q46 -43 137 -43q120 0 260 86l133 762q44 15 90 15q43 0 84 -13l-149 -856q114 0 211 23l10 -25q-71 -93 -128.5 -125t-121.5 -32q-62 0 -96.5 40t-34.5 117h-10q-109 -90 -180 -123.5t-152 -33.5 q-99 0 -162 51.5t-63 148.5z" />
<glyph unicode="v" horiz-adv-x="1019" d="M47 844q64 101 108.5 137.5t102.5 36.5q43 0 68 -19.5t45 -62.5l118 -707h13l307 607l-139 84l2 8q11 39 41 69h301v-71l-522 -926l-132 -20l-167 878q-34 0 -136 -39z" />
<glyph unicode="w" horiz-adv-x="1585" d="M70 844q64 101 108.5 137.5t102.5 36.5q43 0 68.5 -19.5t45.5 -62.5l82 -703h12l308 658l-9 92q74 25 185 25l102 -775h12l279 603l-137 84l2 8q9 37 41 69h295v-71l-492 -926l-129 -20l-100 725h-12l-359 -705l-129 -20l-131 878q-33 0 -135 -39z" />
<glyph unicode="x" horiz-adv-x="1062" d="M29 0v72l405 420l-170 366q-39 0 -149 -39l-11 25q71 106 110 140t95 34q47 0 73.5 -18.5t47.5 -63.5l148 -338l202 248l-112 74l2 8q11 39 41 69h307v-71l-389 -412l174 -375q46 0 149 39l11 -24q-71 -106 -110 -140t-95 -34q-48 0 -74.5 19t-46.5 62l-152 347 l-219 -256l113 -74l-2 -8q-11 -40 -41 -70h-307z" />
<glyph unicode="y" horiz-adv-x="1019" d="M49 844q64 101 108.5 137.5t102.5 36.5q43 0 68 -19.5t45 -62.5l116 -756h13l311 656l-139 84l2 8q11 39 41 69h297v-71l-602 -1145l-72 -232q-95 0 -152 48v49q15 53 53.5 116t170.5 238h-66l-151 858q-34 0 -136 -39z" />
<glyph unicode="z" horiz-adv-x="905" d="M10 70l639 772h-487q0 83 26 176l166 -21h541v-79l-604 -703l475 -88q0 -85 -25 -147l-575 73l-70 -73q-29 12 -53 37.5t-33 52.5z" />
<glyph unicode="{" horiz-adv-x="655" d="M10 -80q0 48 31 104.5t75 106.5t88.5 97t75.5 91.5t31 75.5q0 57 -49.5 80t-169.5 23l23 131q136 0 197 26t61 88q0 40 -34.5 114.5t-68.5 154t-34 133.5q0 141 119.5 217t334.5 76q0 -64 -33 -117l-208 -21q-39 -48 -39 -108q0 -46 20.5 -107t45 -110.5t45 -109 t20.5 -103.5q0 -82 -66.5 -131t-175.5 -62v-12q89 -13 134.5 -58t45.5 -116q0 -43 -31 -96t-75.5 -103.5t-88.5 -101.5t-75 -105t-31 -98q0 -29 8 -53l228 -21q-10 -65 -43 -116q-167 0 -264 63t-97 168z" />
<glyph unicode="|" horiz-adv-x="512" d="M172 -451v1946q35 12 84 12q46 0 84 -12v-1946q-38 -12 -84 -12t-84 12z" />
<glyph unicode="}" horiz-adv-x="655" d="M-35 -311q0 63 33 116l209 21q39 48 39 108q0 46 -20.5 107t-45 110.5t-45 109.5t-20.5 104q0 82 66 130.5t175 61.5v12q-89 13 -134.5 58t-45.5 116q0 43 31 96t75 103.5t88.5 101.5t75.5 105t31 98q0 29 -8 53l-227 21q10 66 43 117q167 0 263.5 -63.5t96.5 -168.5 q0 -48 -31 -104.5t-75.5 -106.5t-88.5 -97t-75 -91.5t-31 -75.5q0 -57 49 -79.5t170 -22.5l-22 -131q-136 0 -197 -26.5t-61 -88.5q0 -32 21.5 -86t47 -103.5t47 -109t21.5 -102.5q0 -141 -119.5 -217t-335.5 -76z" />
<glyph unicode="~" d="M49 381q67 99 111 156t80.5 87t62.5 38t64 8q54 0 184 -57.5t156 -57.5q34 0 69 26t137 136l62 -37q-87 -126 -142.5 -188.5t-90.5 -80.5t-80 -18q-56 0 -186 57.5t-159 57.5q-36 0 -75 -30.5t-133 -133.5z" />
<glyph unicode="&#xa1;" horiz-adv-x="602" d="M29 -420l243 1002h95l-107 -981q-95 -21 -231 -21zM231 868q0 66 40 108t106 42q52 0 82 -33t30 -82q0 -66 -39.5 -107.5t-105.5 -41.5q-51 0 -82 31.5t-31 82.5z" />
<glyph unicode="&#xa2;" horiz-adv-x="1085" d="M141 397q0 167 75.5 304t202.5 213.5t277 76.5q27 0 41 -2l142 367q48 0 77 -23l-137 -350q75 -8 137 -27q0 -29 -8 -73t-20 -72q-72 21 -181 37t-182 16q-27 0 -65.5 -31t-77 -85t-65.5 -142t-27 -188q0 -139 71.5 -208t202.5 -69q65 0 134 27t126 70l10 -48 q-111 -184 -358 -184q-27 0 -67 4l-140 -358q-51 0 -78 22l140 357q-107 40 -168.5 135.5t-61.5 230.5z" />
<glyph unicode="&#xa3;" horiz-adv-x="1085" d="M10 74q103 75 266 116q78 78 78 244q0 34 -4 74h-272q0 45 16 78h250l-20 172h-201q0 45 16 78h176q-4 35 -4 102q0 131 44 238t137 174t221 67q132 0 214.5 -66t82.5 -175q0 -80 -47 -137t-113 -66q-76 24 -76 90q0 112 133 123q-2 43 -59.5 82t-151.5 39q-51 0 -94 -15 q-8 -3 -18.5 -12.5t-25.5 -33t-27 -56t-20.5 -87t-8.5 -120.5q0 -71 6 -147h328q0 -45 -17 -78h-303q12 -121 16 -172h259q0 -45 -17 -78h-237q2 -20 2 -43q0 -94 -30 -155t-114 -109v-11l346 -36l74 194h19q53 0 73 -20l-45 -348l-620 67l-207 -67q-10 13 -17.5 41.5 t-7.5 52.5z" />
<glyph unicode="&#xa4;" horiz-adv-x="1085" d="M47 131l146 150q-80 110 -80 270q0 162 80 278l-146 150q42 69 109 108l149 -155q101 63 240 63q131 0 237 -61l150 153q66 -38 108 -108l-147 -150q82 -116 82 -270q0 -165 -80 -278l145 -150q-42 -70 -108 -108l-150 153q-98 -61 -239 -61q-140 0 -238 61l-149 -153 q-67 39 -109 108zM281 555q0 -78 22 -135.5t60 -89.5t83.5 -47t98.5 -15q117 0 189.5 71.5t72.5 215.5q0 80 -23.5 139t-63 89.5t-83 44.5t-92.5 14q-51 0 -95.5 -14.5t-83.5 -45.5t-62 -89.5t-23 -137.5z" />
<glyph unicode="&#xa5;" horiz-adv-x="1085" d="M135 1290l4 21q11 56 41 86h465l-41 -107l-153 -22l155 -537h10l363 537l-174 22l4 21q11 56 41 86h405l-41 -107l-86 -22l-401 -568h211q0 -46 -16 -77h-250l-27 -37l-24 -135h272q0 -47 -16 -78h-271l-43 -244l187 -23l-5 -20q-11 -57 -40 -86h-541l41 106l170 23 l43 244h-273q0 43 17 78h270l25 135l-13 37h-254q0 42 17 77h213l-184 568z" />
<glyph unicode="&#xa6;" horiz-adv-x="512" d="M172 356q41 13 84 13t84 -13v-807q-38 -12 -84 -12t-84 12v807zM172 688v807q38 12 84 12t84 -12v-807q-38 -12 -84 -12t-84 12z" />
<glyph unicode="&#xa7;" horiz-adv-x="1126" d="M86 -96q0 78 50 131t118 63q34 -10 53 -33.5t19 -52.5q0 -49 -36 -81.5t-102 -36.5q2 -42 55 -84.5t140 -42.5q69 0 113 12q27 7 64.5 60t37.5 126q0 66 -20 117.5t-74 106.5t-132 110t-210 133q6 37 35 86l286 262q-123 120 -123 271q0 154 110 260t273 106 q133 0 214 -68.5t81 -179.5q0 -78 -50 -131t-118 -63q-33 10 -52 33t-19 53q0 49 36 82t101 37q-2 42 -55 84.5t-140 42.5q-65 0 -112 -13q-27 -7 -65 -60t-38 -126q0 -126 90 -220t347 -247q-9 -43 -35 -86l-287 -262q62 -61 92.5 -125t30.5 -145q0 -155 -110 -261 t-273 -106q-133 0 -214 68.5t-81 179.5zM352 516q101 -62 226 -164l194 205q-101 63 -225 164z" />
<glyph unicode="&#xa8;" d="M233 1235q0 56 33.5 90.5t91.5 34.5q40 0 64 -25.5t24 -66.5q0 -56 -33 -90.5t-91 -34.5q-42 0 -65.5 26.5t-23.5 65.5zM578 1235q0 56 33 90.5t91 34.5q41 0 65 -26t24 -66q0 -56 -33.5 -90.5t-91.5 -34.5q-42 0 -65 26.5t-23 65.5z" />
<glyph unicode="&#xa9;" horiz-adv-x="1540" d="M94 588q0 180 59 334.5t162.5 263t251 170t318.5 61.5q186 0 327.5 -80.5t215 -217.5t73.5 -308q0 -241 -100.5 -430.5t-280.5 -295t-409 -105.5q-186 0 -327.5 80.5t-215.5 218t-74 309.5zM197 592q0 -226 140.5 -372t377.5 -146q205 0 360.5 92.5t239 258.5t84.5 382 q0 224 -141.5 370t-376.5 146q-309 0 -496.5 -201.5t-187.5 -529.5zM475 641q0 80 27 153t77.5 132t131 94t178.5 35q97 0 192 -25l-24 -203q-21 -12 -60 -12h-12l-22 139q-50 13 -125 13q-30 0 -66 -4q-29 -3 -65.5 -43.5t-65.5 -117t-29 -163.5q0 -96 53 -151.5t148 -55.5 q61 0 102 12l43 146h13q39 0 57 -12l-14 -187q-86 -49 -219 -49q-142 0 -231 84t-89 215z" />
<glyph unicode="&#xaa;" horiz-adv-x="761" d="M133 924q0 105 29.5 197.5t78 154t108.5 96.5t122 35q85 0 152 -90l45 86q78 0 106 -17l-115 -598q72 0 150 19l8 -25q-51 -61 -92 -83.5t-84 -22.5t-74.5 25.5t-31.5 78.5h-13q-104 -104 -184 -104q-90 0 -147.5 68.5t-57.5 179.5zM287 934q0 -146 108 -146q69 0 140 76 l79 404q-93 28 -168 28q-55 0 -107 -103t-52 -259z" />
<glyph unicode="&#xab;" horiz-adv-x="794" d="M31 498l2 18l370 383l62 -12l-225 -387l90 -381l-68 -13zM377 498l2 18l371 383l61 -12l-225 -387l90 -381l-68 -13z" />
<glyph unicode="&#xac;" d="M59 645v158h906v-594h-166v436h-740z" />
<glyph unicode="&#xad;" horiz-adv-x="512" d="M43 420l27 158h397l-27 -158h-397z" />
<glyph unicode="&#xae;" horiz-adv-x="831" d="M162 1001q0 184 109.5 300t285.5 116q139 0 224 -81.5t85 -221.5q0 -184 -109 -301t-286 -117q-143 0 -226 84t-83 221zM225 1004q0 -108 66.5 -178t181.5 -70q149 0 239.5 99t90.5 257q0 108 -66.5 177t-181.5 69q-149 0 -239.5 -98t-90.5 -256zM344 879l12 36l37 5 l47 274l-41 4l2 8q4 18 13 29h139q51 0 78.5 -25.5t27.5 -68.5q0 -36 -19 -63.5t-56 -37.5l69 -145q-14 -21 -43 -21l-96 152l-41 -8l-16 -98l49 -5l-2 -8q-3 -16 -12 -28h-148zM481 1061l70 4q43 17 43 70q0 27 -15 43t-44 16h-31z" />
<glyph unicode="&#xaf;" d="M258 1180l27 157h479l-27 -157h-479z" />
<glyph unicode="&#xb0;" horiz-adv-x="749" d="M162 1098q0 142 89 230.5t230 88.5q115 0 186.5 -70.5t71.5 -187.5q0 -142 -89 -230.5t-230 -88.5q-115 0 -186.5 70.5t-71.5 187.5zM289 1098q0 -68 40.5 -108t104.5 -40q81 0 129.5 55t48.5 154q0 68 -40.5 108t-104.5 40q-81 0 -129.5 -55t-48.5 -154z" />
<glyph unicode="&#xb1;" horiz-adv-x="1085" d="M117 0v147h850v-147h-850zM117 604v148h348v360h153v-360h349v-148h-349v-362h-153v362h-348z" />
<glyph unicode="&#xb2;" horiz-adv-x="778" d="M109 946l22 133q199 130 297.5 209t143 149t44.5 152q0 74 -42.5 118t-118.5 44q-98 0 -158 -70l-37 31q46 76 107.5 116t150.5 40q123 0 196.5 -68.5t73.5 -187.5q0 -136 -109 -248t-386 -277v-10q291 25 362 25q38 0 56 -18t18 -46q0 -40 -27 -92h-593z" />
<glyph unicode="&#xb3;" horiz-adv-x="778" d="M152 1016q235 31 329 76.5t94 130.5q0 64 -45.5 96.5t-144.5 32.5h-94l18 104h94q116 0 171 37.5t55 116.5q0 66 -41.5 103.5t-114.5 37.5q-100 0 -160 -70l-37 31q93 156 265 156q122 0 190 -65.5t68 -168.5q0 -84 -48.5 -140t-129.5 -75v-10q59 -24 93 -70t34 -110 q0 -134 -153.5 -215t-426.5 -88q-16 37 -16 90z" />
<glyph unicode="&#xb4;" d="M301 1141l174 354h250l-342 -375q-51 0 -82 21z" />
<glyph unicode="&#xb6;" horiz-adv-x="1126" d="M119 -129q0 82 53 138t129 61q76 -21 76 -95q0 -44 -43.5 -77t-110.5 -33q1 -43 47 -70.5t115 -27.5q85 0 137 36q23 16 55.5 90t53.5 193l88 508l-172 10q-165 9 -256.5 97.5t-91.5 230.5q0 219 161.5 342t415.5 123h426l-39 -107l-166 -22l-196 -1125 q-23 -132 -66 -228.5t-101 -151.5t-122.5 -81t-138.5 -26q-113 0 -183.5 59.5t-70.5 155.5z" />
<glyph unicode="&#xb7;" horiz-adv-x="460" d="M94 477q0 71 44 114.5t114 43.5q54 0 86.5 -33.5t32.5 -87.5q0 -70 -43.5 -114t-114.5 -44q-55 0 -87 34t-32 87z" />
<glyph unicode="&#xb8;" d="M338 -377q101 11 147.5 32.5t46.5 59.5q0 57 -122 88l6 31l119 100h53l-27 -59q119 -52 119 -145q0 -81 -86.5 -131t-243.5 -50q-12 27 -12 74z" />
<glyph unicode="&#xb9;" horiz-adv-x="778" d="M141 946l31 96l238 15l118 667l-108 17q-64 9 -74 33l12 73h355l-140 -790l199 -15l-2 -10q-9 -50 -31 -86h-598z" />
<glyph unicode="&#xba;" horiz-adv-x="761" d="M133 973q0 183 105.5 310.5t271.5 127.5q135 0 209 -76.5t74 -220.5q0 -184 -105 -311t-272 -127q-136 0 -209.5 76.5t-73.5 220.5zM287 963q0 -101 43 -148t116 -47q42 0 58 6q14 5 34 25t44 58.5t40.5 109t16.5 157.5q0 101 -43 148t-117 47q-41 0 -57 -6 q-14 -5 -34 -25t-44 -58.5t-40.5 -109t-16.5 -157.5z" />
<glyph unicode="&#xbb;" horiz-adv-x="794" d="M-16 121l225 387l-90 381l67 12l232 -391l-2 -18l-371 -383zM330 121l225 387l-90 381l67 12l232 -391l-2 -18l-371 -383z" />
<glyph unicode="&#xbc;" horiz-adv-x="1925" d="M70 496l30 96l238 14l119 668l-109 16q-64 9 -74 33l13 74h354l-139 -791l198 -14l-2 -10q-10 -52 -30 -86h-598zM469 -104l866 1599q34 0 72.5 -13.5t56.5 -33.5l-866 -1600q-34 0 -71 13t-58 35zM1126 186l25 140l432 596q23 0 61 -10t52 -21l-426 -586h289l53 297h164 l-54 -297h103l-2 -12q-12 -68 -43 -107h-78l-33 -186h-164l33 186h-412z" />
<glyph unicode="&#xbd;" horiz-adv-x="1925" d="M70 496l30 96l238 14l119 668l-109 16q-64 9 -74 33l13 74h354l-139 -791l198 -14l-2 -10q-10 -52 -30 -86h-598zM469 -104l866 1599q34 0 72.5 -13.5t56.5 -33.5l-866 -1600q-34 0 -71 13t-58 35zM1122 0l23 133q199 130 297.5 209t143 149t44.5 152q0 73 -42.5 117.5 t-119.5 44.5q-97 0 -157 -70l-37 31q46 76 107.5 116t150.5 40q123 0 196.5 -68.5t73.5 -187.5q0 -136 -109 -248t-386 -277v-10q291 25 362 25q38 0 56 -18t18 -46q0 -40 -27 -92h-594z" />
<glyph unicode="&#xbe;" horiz-adv-x="1925" d="M80 565q236 31 330 76.5t94 130.5q0 129 -191 129h-94l19 105h94q116 0 170.5 37t54.5 116q0 66 -41.5 103.5t-114.5 37.5q-100 0 -159 -69l-37 31q45 76 108 115.5t156 39.5q122 0 190 -65t68 -168q0 -84 -48.5 -140t-129.5 -75v-11q59 -24 93 -70t34 -110 q0 -134 -153.5 -215t-426.5 -88q-16 37 -16 90zM469 -104l866 1599q34 0 72.5 -13.5t56.5 -33.5l-866 -1600q-34 0 -71 13t-58 35zM1126 186l25 140l432 596q23 0 61 -10t52 -21l-426 -586h289l53 297h164l-54 -297h103l-2 -12q-12 -68 -43 -107h-78l-33 -186h-164l33 186 h-412z" />
<glyph unicode="&#xbf;" horiz-adv-x="888" d="M-10 -106q0 160 121 267.5t348 155.5l57 265h72l86 -211q-12 -60 -47 -92q-198 -44 -310 -133.5t-112 -215.5q0 -90 53 -147t152 -57q69 0 119.5 21t97.5 63l39 -37q-63 -100 -148.5 -146.5t-206.5 -46.5q-138 0 -229.5 88t-91.5 226zM457 868q0 67 40 108.5t105 41.5 q52 0 82.5 -33t30.5 -82q0 -66 -40 -107.5t-106 -41.5q-51 0 -81.5 31.5t-30.5 82.5z" />
<glyph unicode="&#xc0;" horiz-adv-x="1183" d="M-145 0l41 106l86 23l706 1268l107 20l243 -1288l146 -23l-4 -20q-11 -56 -41 -86h-500l41 106l156 23l-72 395l-422 -20l-197 -375l205 -23l-4 -20q-11 -56 -41 -86h-450zM403 623h342l-81 460h-17zM446 1720h226l108 -239q-35 -32 -78 -35z" />
<glyph unicode="&#xc1;" horiz-adv-x="1183" d="M-145 0l41 106l86 23l706 1268l107 20l243 -1288l146 -23l-4 -20q-11 -56 -41 -86h-500l41 106l156 23l-72 395l-422 -20l-197 -375l205 -23l-4 -20q-11 -56 -41 -86h-450zM403 623h342l-81 460h-17zM711 1483l182 237h242l-353 -274q-19 2 -40.5 13t-30.5 24z" />
<glyph unicode="&#xc2;" horiz-adv-x="1183" d="M-145 0l41 106l86 23l706 1268l107 20l243 -1288l146 -23l-4 -20q-11 -56 -41 -86h-500l41 106l156 23l-72 395l-422 -20l-197 -375l205 -23l-4 -20q-11 -56 -41 -86h-450zM403 623h342l-81 460h-17zM461 1487l268 233h109l188 -235q-11 -14 -30.5 -26t-34.5 -13 l-201 131l-238 -131q-17 3 -34.5 14.5t-26.5 26.5z" />
<glyph unicode="&#xc3;" horiz-adv-x="1183" d="M-145 0l41 106l86 23l706 1268l107 20l243 -1288l146 -23l-4 -20q-11 -56 -41 -86h-500l41 106l156 23l-72 395l-422 -20l-197 -375l205 -23l-4 -20q-11 -56 -41 -86h-450zM403 623h342l-81 460h-17zM403 1468q65 109 104.5 159.5t68.5 66.5t71 16q46 0 144.5 -49 t121.5 -49q30 0 56 20.5t98 106.5l55 -31q-93 -151 -142 -199.5t-103 -48.5q-47 0 -147 49.5t-124 49.5q-31 0 -54.5 -19.5t-94.5 -101.5z" />
<glyph unicode="&#xc4;" horiz-adv-x="1183" d="M-145 0l41 106l86 23l706 1268l107 20l243 -1288l146 -23l-4 -20q-11 -56 -41 -86h-500l41 106l156 23l-72 395l-422 -20l-197 -375l205 -23l-4 -20q-11 -56 -41 -86h-450zM403 623h342l-81 460h-17zM489 1542q0 52 31 83.5t84 31.5q35 0 56.5 -23.5t21.5 -58.5 q0 -52 -31 -83.5t-84 -31.5q-36 0 -57 24.5t-21 57.5zM825 1542q0 52 31 83.5t84 31.5q35 0 56.5 -23.5t21.5 -58.5q0 -52 -31 -83.5t-84 -31.5q-36 0 -57 24.5t-21 57.5z" />
<glyph unicode="&#xc5;" horiz-adv-x="1183" d="M-145 0l41 106l86 23l698 1255q-66 9 -101.5 47.5t-35.5 98.5q0 94 67 147.5t178 53.5q87 0 137 -40.5t50 -109.5q0 -79 -47 -129t-127 -66l237 -1257l146 -23l-4 -20q-11 -56 -41 -86h-500l41 106l156 23l-72 395l-422 -20l-197 -375l205 -23l-4 -20q-11 -56 -41 -86 h-450zM403 623h342l-81 460h-17zM641 1538q0 -40 28.5 -60t73.5 -20q134 0 134 115q0 39 -29 59.5t-74 20.5q-133 0 -133 -115z" />
<glyph unicode="&#xc6;" horiz-adv-x="1859" d="M-145 0l41 106l137 23l590 1139l-181 22l2 15q3 23 15.5 50t27.5 42h1080l239 20l-34 -385q-38 -24 -89 -24h-14l-53 262h-414l-90 -498h442q0 -76 -24 -137l-170 10h-268l-95 -528l484 18l98 262h14q54 0 88 -24l-34 -373h-1045l41 106l156 23l92 516h-428l-262 -516 l184 -23l-4 -20q-11 -56 -41 -86h-485zM526 772h387l88 498h-223z" />
<glyph unicode="&#xc7;" horiz-adv-x="1271" d="M109 580q0 170 52 320.5t148.5 266t245 183t330.5 67.5q69 0 169 -12t173 -31l-45 -389q-38 -24 -88 -24h-15l-45 286q-119 29 -243 29q-98 0 -152 -10q-27 -5 -65.5 -38.5t-81 -97t-79 -143.5t-60 -189.5t-23.5 -224.5q0 -222 105 -336t292 -114q118 0 195 29l86 258h14 q52 0 88 -25l-25 -307q-170 -98 -405 -98q-179 0 -309.5 78t-196 212.5t-65.5 309.5zM428 -377q101 11 148 32.5t47 59.5q0 57 -123 88l6 31l119 100h53l-27 -59q119 -52 119 -145q0 -81 -86.5 -131t-243.5 -50q-12 27 -12 74z" />
<glyph unicode="&#xc8;" horiz-adv-x="1245" d="M-12 0l41 106l155 23l203 1139l-197 22l5 21q11 56 41 86h716l240 20l-35 -385q-37 -24 -88 -24h-14l-54 262h-413l-90 -498h442q0 -73 -25 -137l-170 10h-268l-94 -528l483 18l99 262h14q54 0 88 -24l-35 -373h-1044zM467 1720h225l109 -239q-35 -32 -78 -35z" />
<glyph unicode="&#xc9;" horiz-adv-x="1245" d="M-12 0l41 106l155 23l203 1139l-197 22l5 21q11 56 41 86h716l240 20l-35 -385q-37 -24 -88 -24h-14l-54 262h-413l-90 -498h442q0 -73 -25 -137l-170 10h-268l-94 -528l483 18l99 262h14q54 0 88 -24l-35 -373h-1044zM653 1483l183 237h241l-352 -274q-19 2 -41 13 t-31 24z" />
<glyph unicode="&#xca;" horiz-adv-x="1245" d="M-12 0l41 106l155 23l203 1139l-197 22l5 21q11 56 41 86h716l240 20l-35 -385q-37 -24 -88 -24h-14l-54 262h-413l-90 -498h442q0 -73 -25 -137l-170 10h-268l-94 -528l483 18l99 262h14q54 0 88 -24l-35 -373h-1044zM436 1487l269 233h108l188 -235q-11 -14 -30.5 -26 t-34.5 -13l-201 131l-237 -131q-18 3 -35.5 14.5t-26.5 26.5z" />
<glyph unicode="&#xcb;" horiz-adv-x="1245" d="M-12 0l41 106l155 23l203 1139l-197 22l5 21q11 56 41 86h716l240 20l-35 -385q-37 -24 -88 -24h-14l-54 262h-413l-90 -498h442q0 -73 -25 -137l-170 10h-268l-94 -528l483 18l99 262h14q54 0 88 -24l-35 -373h-1044zM465 1542q0 52 31 83.5t84 31.5q34 0 55.5 -23.5 t21.5 -58.5q0 -52 -30.5 -83.5t-83.5 -31.5q-36 0 -57 24.5t-21 57.5zM801 1542q0 52 30.5 83.5t83.5 31.5q35 0 56.5 -23.5t21.5 -58.5q0 -52 -30.5 -83.5t-83.5 -31.5q-36 0 -57 24.5t-21 57.5z" />
<glyph unicode="&#xcc;" horiz-adv-x="718" d="M-12 0l41 106l155 23l203 1139l-197 22l5 21q11 56 41 86h550l-41 -107l-157 -22l-203 -1139l197 -23l-4 -20q-11 -56 -41 -86h-549zM254 1720h225l109 -239q-35 -32 -78 -35z" />
<glyph unicode="&#xcd;" horiz-adv-x="718" d="M-12 0l41 106l155 23l203 1139l-197 22l5 21q11 56 41 86h550l-41 -107l-157 -22l-203 -1139l197 -23l-4 -20q-11 -56 -41 -86h-549zM442 1483l183 237h241l-352 -274q-19 2 -41 13t-31 24z" />
<glyph unicode="&#xce;" horiz-adv-x="718" d="M-12 0l41 106l155 23l203 1139l-197 22l5 21q11 56 41 86h550l-41 -107l-157 -22l-203 -1139l197 -23l-4 -20q-11 -56 -41 -86h-549zM242 1487l268 233h108l189 -235q-11 -14 -31 -26t-35 -13l-200 131l-238 -131q-17 3 -34.5 14.5t-26.5 26.5z" />
<glyph unicode="&#xcf;" horiz-adv-x="718" d="M-12 0l41 106l155 23l203 1139l-197 22l5 21q11 56 41 86h550l-41 -107l-157 -22l-203 -1139l197 -23l-4 -20q-11 -56 -41 -86h-549zM289 1542q0 52 27.5 83.5t74.5 31.5q32 0 52 -24t20 -58q0 -52 -28 -83.5t-77 -31.5q-33 0 -51 24t-18 58zM592 1542q0 52 27.5 83.5 t76.5 31.5q30 0 50 -24t20 -58q0 -52 -27.5 -83.5t-76.5 -31.5q-32 0 -51 24.5t-19 57.5z" />
<glyph unicode="&#xd0;" horiz-adv-x="1449" d="M-12 0l41 106l155 23l90 504h-124q0 76 26 147h125l86 488l-197 22l5 21q11 56 41 86h563q129 0 235 -35.5t184.5 -105t122 -181.5t43.5 -258q0 -176 -65 -330t-173 -259.5t-250 -166.5t-294 -61h-614zM385 135l240 -22q109 5 208 63t171.5 153t115.5 228t43 281 q0 120 -32 207.5t-90 136.5t-129 71.5t-160 22.5h-164l-88 -496h178q0 -74 -27 -147h-178z" />
<glyph unicode="&#xd1;" horiz-adv-x="1513" d="M-12 0l41 106l149 23l217 1139l-196 22l4 21q11 56 41 86h387l450 -1045h17l159 916l-227 22l4 21q11 56 41 86h537l-41 -107l-158 -22l-239 -1268l-105 -20l-545 1140h-16l-174 -991l227 -23l-2 -14q-3 -23 -15.5 -50t-27.5 -42h-528zM580 1468q65 109 104.5 159.5 t68 66.5t70.5 16q46 0 145 -49t122 -49q30 0 55 20t98 107l55 -31q-93 -151 -142 -199.5t-103 -48.5q-47 0 -147 49.5t-124 49.5q-31 0 -54.5 -19.5t-94.5 -101.5z" />
<glyph unicode="&#xd2;" horiz-adv-x="1445" d="M109 563q0 191 59 353t159 270.5t232 169.5t277 61q119 0 217 -35.5t171.5 -105.5t114.5 -183t41 -259q0 -152 -38 -288t-106.5 -238t-159.5 -176.5t-199 -113t-224 -38.5q-119 0 -217 35.5t-171.5 105.5t-114.5 183t-41 259zM330 563q0 -228 104 -343.5t271 -115.5 q54 0 110 9q16 2 44.5 20.5t68 53t79.5 94t74.5 134.5t56 185t21.5 234q0 227 -103.5 342.5t-271.5 115.5q-60 0 -110 -8q-16 -2 -44.5 -20.5t-68 -53t-79.5 -94t-74.5 -134.5t-56 -185t-21.5 -234zM580 1720h225l108 -239q-35 -32 -77 -35z" />
<glyph unicode="&#xd3;" horiz-adv-x="1445" d="M109 563q0 191 59 353t159 270.5t232 169.5t277 61q119 0 217 -35.5t171.5 -105.5t114.5 -183t41 -259q0 -152 -38 -288t-106.5 -238t-159.5 -176.5t-199 -113t-224 -38.5q-119 0 -217 35.5t-171.5 105.5t-114.5 183t-41 259zM330 563q0 -228 104 -343.5t271 -115.5 q54 0 110 9q16 2 44.5 20.5t68 53t79.5 94t74.5 134.5t56 185t21.5 234q0 227 -103.5 342.5t-271.5 115.5q-60 0 -110 -8q-16 -2 -44.5 -20.5t-68 -53t-79.5 -94t-74.5 -134.5t-56 -185t-21.5 -234zM776 1483l182 237h242l-352 -274q-19 2 -41 13t-31 24z" />
<glyph unicode="&#xd4;" horiz-adv-x="1445" d="M109 563q0 191 59 353t159 270.5t232 169.5t277 61q119 0 217 -35.5t171.5 -105.5t114.5 -183t41 -259q0 -152 -38 -288t-106.5 -238t-159.5 -176.5t-199 -113t-224 -38.5q-119 0 -217 35.5t-171.5 105.5t-114.5 183t-41 259zM330 563q0 -228 104 -343.5t271 -115.5 q54 0 110 9q16 2 44.5 20.5t68 53t79.5 94t74.5 134.5t56 185t21.5 234q0 227 -103.5 342.5t-271.5 115.5q-60 0 -110 -8q-16 -2 -44.5 -20.5t-68 -53t-79.5 -94t-74.5 -134.5t-56 -185t-21.5 -234zM563 1487l268 233h109l188 -235q-11 -14 -30.5 -26t-34.5 -13l-201 131 l-237 -131q-18 3 -35.5 14.5t-26.5 26.5z" />
<glyph unicode="&#xd5;" horiz-adv-x="1445" d="M109 563q0 191 59 353t159 270.5t232 169.5t277 61q119 0 217 -35.5t171.5 -105.5t114.5 -183t41 -259q0 -152 -38 -288t-106.5 -238t-159.5 -176.5t-199 -113t-224 -38.5q-119 0 -217 35.5t-171.5 105.5t-114.5 183t-41 259zM330 563q0 -228 104 -343.5t271 -115.5 q54 0 110 9q16 2 44.5 20.5t68 53t79.5 94t74.5 134.5t56 185t21.5 234q0 227 -103.5 342.5t-271.5 115.5q-60 0 -110 -8q-16 -2 -44.5 -20.5t-68 -53t-79.5 -94t-74.5 -134.5t-56 -185t-21.5 -234zM496 1468q65 109 104.5 159.5t68 66.5t70.5 16q46 0 145 -49t122 -49 q30 0 55 20t98 107l55 -31q-93 -151 -142 -199.5t-103 -48.5q-47 0 -147 49.5t-124 49.5q-31 0 -54.5 -19.5t-94.5 -101.5z" />
<glyph unicode="&#xd6;" horiz-adv-x="1445" d="M109 563q0 191 59 353t159 270.5t232 169.5t277 61q119 0 217 -35.5t171.5 -105.5t114.5 -183t41 -259q0 -152 -38 -288t-106.5 -238t-159.5 -176.5t-199 -113t-224 -38.5q-119 0 -217 35.5t-171.5 105.5t-114.5 183t-41 259zM330 563q0 -228 104 -343.5t271 -115.5 q54 0 110 9q16 2 44.5 20.5t68 53t79.5 94t74.5 134.5t56 185t21.5 234q0 227 -103.5 342.5t-271.5 115.5q-60 0 -110 -8q-16 -2 -44.5 -20.5t-68 -53t-79.5 -94t-74.5 -134.5t-56 -185t-21.5 -234zM584 1542q0 52 30.5 83.5t83.5 31.5q35 0 56.5 -23.5t21.5 -58.5 q0 -52 -30.5 -83.5t-83.5 -31.5q-36 0 -57 24.5t-21 57.5zM920 1542q0 52 30.5 83.5t83.5 31.5q35 0 56.5 -23.5t21.5 -58.5q0 -52 -31 -83.5t-84 -31.5q-36 0 -56.5 24.5t-20.5 57.5z" />
<glyph unicode="&#xd7;" horiz-adv-x="1085" d="M145 213l293 293l-293 293l105 104l293 -293l293 293l104 -104l-293 -293l293 -293l-104 -104l-293 292l-293 -292z" />
<glyph unicode="&#xd8;" horiz-adv-x="1445" d="M76 -109l180 238q-147 153 -147 434q0 191 59 353t159 270.5t232 169.5t277 61q197 0 331 -94l170 223q22 -2 44.5 -13.5t29.5 -27.5l-180 -237q149 -155 149 -434q0 -152 -38 -288t-106.5 -238t-159.5 -176.5t-199 -113t-224 -38.5q-197 0 -334 94l-169 -224 q-22 2 -44.5 13.5t-29.5 27.5zM330 563q0 -162 53 -268l672 881q-99 116 -271 116q-60 0 -110 -8q-16 -2 -44.5 -20.5t-68 -53t-79.5 -94t-74.5 -134.5t-56 -185t-21.5 -234zM432 221q99 -117 273 -117q54 0 110 9q16 2 44.5 20.5t68 53t79.5 94t74.5 134.5t56 185t21.5 234 q0 158 -55 268z" />
<glyph unicode="&#xd9;" horiz-adv-x="1449" d="M186 1290l4 21q11 56 41 86h529l-41 -107l-172 -22l-148 -836q-8 -41 -8 -86q0 -115 73.5 -164t229.5 -49q165 0 252.5 68.5t116.5 230.5l147 836l-221 22l4 21q11 56 41 86h484l-41 -107l-121 -22l-148 -836q-39 -218 -179.5 -335t-371.5 -117q-216 0 -340 102.5 t-124 271.5q0 38 6 78l147 836zM627 1720h225l109 -239q-35 -32 -78 -35z" />
<glyph unicode="&#xda;" horiz-adv-x="1449" d="M186 1290l4 21q11 56 41 86h529l-41 -107l-172 -22l-148 -836q-8 -41 -8 -86q0 -115 73.5 -164t229.5 -49q165 0 252.5 68.5t116.5 230.5l147 836l-221 22l4 21q11 56 41 86h484l-41 -107l-121 -22l-148 -836q-39 -218 -179.5 -335t-371.5 -117q-216 0 -340 102.5 t-124 271.5q0 38 6 78l147 836zM809 1483l182 237h242l-352 -274q-19 2 -41 13t-31 24z" />
<glyph unicode="&#xdb;" horiz-adv-x="1449" d="M186 1290l4 21q11 56 41 86h529l-41 -107l-172 -22l-148 -836q-8 -41 -8 -86q0 -115 73.5 -164t229.5 -49q165 0 252.5 68.5t116.5 230.5l147 836l-221 22l4 21q11 56 41 86h484l-41 -107l-121 -22l-148 -836q-39 -218 -179.5 -335t-371.5 -117q-216 0 -340 102.5 t-124 271.5q0 38 6 78l147 836zM625 1487l268 233h108l189 -235q-11 -14 -31 -26t-35 -13l-200 131l-238 -131q-17 3 -34.5 14.5t-26.5 26.5z" />
<glyph unicode="&#xdc;" horiz-adv-x="1449" d="M186 1290l4 21q11 56 41 86h529l-41 -107l-172 -22l-148 -836q-8 -41 -8 -86q0 -115 73.5 -164t229.5 -49q165 0 252.5 68.5t116.5 230.5l147 836l-221 22l4 21q11 56 41 86h484l-41 -107l-121 -22l-148 -836q-39 -218 -179.5 -335t-371.5 -117q-216 0 -340 102.5 t-124 271.5q0 38 6 78l147 836zM637 1542q0 52 31 83.5t84 31.5q34 0 55.5 -23.5t21.5 -58.5q0 -52 -30.5 -83.5t-83.5 -31.5q-36 0 -57 24.5t-21 57.5zM973 1542q0 52 30.5 83.5t83.5 31.5q35 0 56.5 -23.5t21.5 -58.5q0 -52 -30.5 -83.5t-83.5 -31.5q-36 0 -57 24.5 t-21 57.5z" />
<glyph unicode="&#xdd;" horiz-adv-x="1034" d="M51 1290l4 21q11 56 41 86h506l-41 -107l-155 -22l169 -545h17l369 545l-205 22l4 21q11 56 41 86h434l-41 -107l-74 -22l-497 -688l-80 -451l196 -23l-4 -20q-11 -56 -41 -86h-549l41 106l156 23l80 451l-238 688zM625 1483l182 237h242l-353 -274q-19 2 -40.5 13 t-30.5 24z" />
<glyph unicode="&#xde;" horiz-adv-x="1161" d="M-12 0l41 106l155 23l203 1139l-197 22l5 21q11 56 41 86h374l-49 -275h141q206 0 311 -94.5t105 -255.5q0 -195 -128.5 -315.5t-364.5 -143.5l-211 -20l-54 -293h-372zM436 414l273 16q87 34 141.5 126.5t54.5 207.5q0 110 -58.5 177t-176.5 67h-129z" />
<glyph unicode="&#xdf;" horiz-adv-x="1138" d="M78 -313l194 1181q-29 12 -52 38.5t-32 58.5l109 47l2 12q19 115 67.5 206.5t115.5 148.5t144.5 86.5t159.5 29.5q133 0 216 -62t83 -169q0 -59 -20.5 -107.5t-57 -85.5t-74 -66.5t-86 -68t-79.5 -72.5q-18 -52 -18 -84q0 -50 26 -100t63.5 -94t75 -90.5t63.5 -108 t26 -127.5q0 -120 -103 -200t-239 -80q-126 0 -218 47q0 30 11 79t24 78q141 -65 303 -65q14 0 30.5 30.5t16.5 67.5q0 46 -25 93t-60.5 89.5t-70.5 88t-60 106t-25 125.5q0 53 24 104t60 89.5t78.5 80.5t78.5 76.5t60 77t24 82.5q0 61 -44.5 95t-131.5 34q-89 0 -149 -35 q-22 -13 -45 -70q-51 -120 -82 -301l-213 -1288q-30 -6 -58 -6q-56 0 -112 29z" />
<glyph unicode="&#xe0;" horiz-adv-x="1103" d="M82 330q0 151 40 282t105 218.5t148 137.5t170 50q66 0 119 -30.5t102 -98.5l59 115q28 4 45 4q48 0 88 -21l-161 -848q114 0 211 23l10 -25q-71 -93 -128.5 -125t-121.5 -32q-125 0 -125 159h-10q-83 -90 -149 -124.5t-128 -34.5q-125 0 -199.5 95.5t-74.5 254.5z M279 346q0 -111 44 -165t115 -54q95 0 203 113l113 587q-55 18 -128.5 30.5t-115.5 12.5q-35 0 -75 -38.5t-75 -104.5t-58 -167t-23 -214zM389 1495h225l56 -354q-40 -21 -78 -21z" />
<glyph unicode="&#xe1;" horiz-adv-x="1103" d="M82 330q0 151 40 282t105 218.5t148 137.5t170 50q66 0 119 -30.5t102 -98.5l59 115q28 4 45 4q48 0 88 -21l-161 -848q114 0 211 23l10 -25q-71 -93 -128.5 -125t-121.5 -32q-125 0 -125 159h-10q-83 -90 -149 -124.5t-128 -34.5q-125 0 -199.5 95.5t-74.5 254.5z M279 346q0 -111 44 -165t115 -54q95 0 203 113l113 587q-55 18 -128.5 30.5t-115.5 12.5q-35 0 -75 -38.5t-75 -104.5t-58 -167t-23 -214zM549 1141l174 354h250l-342 -375q-51 0 -82 21z" />
<glyph unicode="&#xe2;" horiz-adv-x="1103" d="M82 330q0 151 40 282t105 218.5t148 137.5t170 50q66 0 119 -30.5t102 -98.5l59 115q28 4 45 4q48 0 88 -21l-161 -848q114 0 211 23l10 -25q-71 -93 -128.5 -125t-121.5 -32q-125 0 -125 159h-10q-83 -90 -149 -124.5t-128 -34.5q-125 0 -199.5 95.5t-74.5 254.5z M279 346q0 -111 44 -165t115 -54q95 0 203 113l113 587q-55 18 -128.5 30.5t-115.5 12.5q-35 0 -75 -38.5t-75 -104.5t-58 -167t-23 -214zM338 1143l293 352h96l174 -352q-33 -23 -76 -23l-178 193l-235 -193q-41 0 -74 23z" />
<glyph unicode="&#xe3;" horiz-adv-x="1103" d="M82 330q0 151 40 282t105 218.5t148 137.5t170 50q66 0 119 -30.5t102 -98.5l59 115q28 4 45 4q48 0 88 -21l-161 -848q114 0 211 23l10 -25q-71 -93 -128.5 -125t-121.5 -32q-125 0 -125 159h-10q-83 -90 -149 -124.5t-128 -34.5q-125 0 -199.5 95.5t-74.5 254.5z M279 346q0 -111 44 -165t115 -54q95 0 203 113l113 587q-55 18 -128.5 30.5t-115.5 12.5q-35 0 -75 -38.5t-75 -104.5t-58 -167t-23 -214zM283 1149q42 81 74 129.5t61 74t53 33t59 7.5q43 0 140 -50.5t121 -50.5q30 0 55.5 21.5t95.5 105.5l59 -30q-88 -147 -137.5 -196.5 t-109.5 -49.5q-46 0 -143.5 50t-121.5 50q-32 0 -57.5 -21t-91.5 -104z" />
<glyph unicode="&#xe4;" horiz-adv-x="1103" d="M82 330q0 151 40 282t105 218.5t148 137.5t170 50q66 0 119 -30.5t102 -98.5l59 115q28 4 45 4q48 0 88 -21l-161 -848q114 0 211 23l10 -25q-71 -93 -128.5 -125t-121.5 -32q-125 0 -125 159h-10q-83 -90 -149 -124.5t-128 -34.5q-125 0 -199.5 95.5t-74.5 254.5z M279 346q0 -111 44 -165t115 -54q95 0 203 113l113 587q-55 18 -128.5 30.5t-115.5 12.5q-35 0 -75 -38.5t-75 -104.5t-58 -167t-23 -214zM360 1235q0 56 33.5 90.5t91.5 34.5q40 0 64 -25.5t24 -66.5q0 -56 -33 -90.5t-91 -34.5q-42 0 -65.5 26.5t-23.5 65.5zM705 1235 q0 56 33 90.5t91 34.5q41 0 65 -26t24 -66q0 -56 -33.5 -90.5t-91.5 -34.5q-42 0 -65 26.5t-23 65.5z" />
<glyph unicode="&#xe5;" horiz-adv-x="1103" d="M82 330q0 151 40 282t105 218.5t148 137.5t170 50q66 0 119 -30.5t102 -98.5l59 115q28 4 45 4q48 0 88 -21l-161 -848q114 0 211 23l10 -25q-71 -93 -128.5 -125t-121.5 -32q-125 0 -125 159h-10q-83 -90 -149 -124.5t-128 -34.5q-125 0 -199.5 95.5t-74.5 254.5z M279 346q0 -111 44 -165t115 -54q95 0 203 113l113 587q-55 18 -128.5 30.5t-115.5 12.5q-35 0 -75 -38.5t-75 -104.5t-58 -167t-23 -214zM424 1294q0 103 70 162.5t182 59.5q84 0 136 -47t52 -128q0 -103 -70 -162t-182 -59q-84 0 -136 46.5t-52 127.5zM522 1303 q0 -45 28.5 -72t76.5 -27q62 0 100.5 33.5t38.5 95.5q0 46 -28.5 72.5t-75.5 26.5q-63 0 -101.5 -33.5t-38.5 -95.5z" />
<glyph unicode="&#xe6;" horiz-adv-x="1431" d="M31 207q0 118 81.5 191t243.5 106l240 49q37 164 127 287l-6 14l-400 -29q-59 0 -83.5 18.5t-24.5 61.5q0 45 35 92h528q24 -35 31 -71q113 92 237 92q150 0 230 -78t80 -219q0 -47 -21 -115l-565 -117q-8 -54 -8 -110q0 -122 59 -182t166 -60q30 0 84 20t180 87l29 -37 q-99 -118 -187 -172.5t-182 -54.5q-181 0 -264 114q-142 -71 -216.5 -92.5t-141.5 -21.5q-122 0 -187 57t-65 170zM225 244q0 -63 36.5 -98t107.5 -35q92 0 233 53q-29 82 -29 184q0 42 7 103l-299 -64q-22 -22 -39 -62t-17 -81zM780 592l396 80q4 20 4 61q0 78 -50.5 124 t-132.5 46q-39 0 -59 -8t-39 -31q-76 -91 -119 -272z" />
<glyph unicode="&#xe7;" horiz-adv-x="860" d="M82 342q0 183 70.5 339.5t188.5 246.5t253 90q121 0 217 -35q0 -36 -12 -86.5t-27 -83.5q-41 0 -143.5 29.5t-136.5 29.5q-23 0 -58 -37.5t-70 -100.5t-60 -162t-25 -205q0 -117 52.5 -173.5t149.5 -56.5q28 0 78.5 20t173.5 87l29 -37q-102 -121 -182.5 -174t-180.5 -53 q-153 0 -235 91.5t-82 270.5zM150 -377q101 11 147.5 32.5t46.5 59.5q0 57 -123 88l6 31l119 100h53l-26 -59q119 -52 119 -145q0 -81 -86.5 -131t-243.5 -50q-12 27 -12 74z" />
<glyph unicode="&#xe8;" horiz-adv-x="952" d="M82 348q0 177 64 331.5t175 246.5t240 92q149 0 229 -78t80 -219q0 -55 -20 -119l-563 -94q-11 -74 -11 -129q0 -121 59.5 -181.5t166.5 -60.5q30 0 84 20t180 87l29 -37q-99 -118 -187 -172.5t-182 -54.5q-157 0 -250.5 91t-93.5 277zM303 598l393 80q4 20 4 55 q0 78 -50 124t-132 46q-39 0 -59 -8t-39 -31q-75 -90 -117 -266zM336 1495h225l55 -354q-40 -21 -77 -21z" />
<glyph unicode="&#xe9;" horiz-adv-x="952" d="M82 348q0 177 64 331.5t175 246.5t240 92q149 0 229 -78t80 -219q0 -55 -20 -119l-563 -94q-11 -74 -11 -129q0 -121 59.5 -181.5t166.5 -60.5q30 0 84 20t180 87l29 -37q-99 -118 -187 -172.5t-182 -54.5q-157 0 -250.5 91t-93.5 277zM303 598l393 80q4 20 4 55 q0 78 -50 124t-132 46q-39 0 -59 -8t-39 -31q-75 -90 -117 -266zM514 1141l174 354h250l-342 -375q-50 0 -82 21z" />
<glyph unicode="&#xea;" horiz-adv-x="952" d="M82 348q0 177 64 331.5t175 246.5t240 92q149 0 229 -78t80 -219q0 -55 -20 -119l-563 -94q-11 -74 -11 -129q0 -121 59.5 -181.5t166.5 -60.5q30 0 84 20t180 87l29 -37q-99 -118 -187 -172.5t-182 -54.5q-157 0 -250.5 91t-93.5 277zM287 1143l293 352h96l174 -352 q-33 -23 -76 -23l-178 193l-236 -193q-40 0 -73 23zM303 598l393 80q4 20 4 55q0 78 -50 124t-132 46q-39 0 -59 -8t-39 -31q-75 -90 -117 -266z" />
<glyph unicode="&#xeb;" horiz-adv-x="952" d="M82 348q0 177 64 331.5t175 246.5t240 92q149 0 229 -78t80 -219q0 -55 -20 -119l-563 -94q-11 -74 -11 -129q0 -121 59.5 -181.5t166.5 -60.5q30 0 84 20t180 87l29 -37q-99 -118 -187 -172.5t-182 -54.5q-157 0 -250.5 91t-93.5 277zM303 598l393 80q4 20 4 55 q0 78 -50 124t-132 46q-39 0 -59 -8t-39 -31q-75 -90 -117 -266zM307 1235q0 56 33.5 90.5t91.5 34.5q40 0 64 -25.5t24 -66.5q0 -56 -33.5 -90.5t-91.5 -34.5q-42 0 -65 26.5t-23 65.5zM651 1235q0 56 33.5 90.5t91.5 34.5q40 0 64 -25.5t24 -66.5q0 -56 -33.5 -90.5 t-91.5 -34.5q-42 0 -65 26.5t-23 65.5z" />
<glyph unicode="&#xec;" horiz-adv-x="632" d="M137 68l146 770l-37 26q-57 41 -70 86l6 39l310 29l-166 -879q112 0 209 23l10 -25q-71 -93 -128.5 -125t-121.5 -32q-61 0 -97 22t-61 66zM195 1495h225l55 -354q-40 -21 -78 -21z" />
<glyph unicode="&#xed;" horiz-adv-x="632" d="M137 68l146 770l-37 26q-57 41 -70 86l6 39l310 29l-166 -879q112 0 209 23l10 -25q-71 -93 -128.5 -125t-121.5 -32q-61 0 -97 22t-61 66zM336 1141l174 354h250l-342 -375q-50 0 -82 21z" />
<glyph unicode="&#xee;" horiz-adv-x="632" d="M127 1145l264 350h86l156 -350q-30 -23 -68 -23l-159 191l-211 -191q-38 0 -68 23zM137 68l146 770l-37 26q-57 41 -70 86l6 39l310 29l-166 -879q112 0 209 23l10 -25q-71 -93 -128.5 -125t-121.5 -32q-61 0 -97 22t-61 66z" />
<glyph unicode="&#xef;" horiz-adv-x="632" d="M137 68l146 770l-37 26q-57 41 -70 86l6 39l310 29l-166 -879q112 0 209 23l10 -25q-71 -93 -128.5 -125t-121.5 -32q-61 0 -97 22t-61 66zM172 1235q0 56 29.5 90.5t81.5 34.5q36 0 56.5 -25.5t20.5 -66.5q0 -57 -29 -91t-81 -34q-38 0 -58 26.5t-20 65.5zM451 1235 q0 56 30 90.5t82 34.5q36 0 57 -25.5t21 -66.5q0 -56 -29.5 -90.5t-81.5 -34.5q-38 0 -58.5 26.5t-20.5 65.5z" />
<glyph unicode="&#xf0;" horiz-adv-x="1052" d="M82 377q0 136 41 254.5t114.5 204t180.5 134t233 48.5h66q-45 103 -119 213l-195 -119q-43 22 -63 76l199 121q-55 72 -109 131l74 55q94 -60 155 -113l185 113q43 -22 63 -76l-176 -108q117 -126 178.5 -282t61.5 -322q0 -204 -68 -371.5t-185 -261.5t-259 -94 q-175 0 -276 108.5t-101 288.5zM279 356q0 -114 48.5 -185t145.5 -71q37 0 72 6q30 6 68 53.5t74.5 124.5t61.5 193.5t25 243.5q0 80 -14 151q-151 21 -215 21q-37 0 -81.5 -37t-86.5 -102.5t-70 -171t-28 -226.5z" />
<glyph unicode="&#xf1;" horiz-adv-x="1202" d="M133 2l146 836l-35 26q-58 44 -70 86l6 39l291 29l-25 -170h11q104 95 177.5 132.5t158.5 37.5q99 0 162 -52t63 -149q0 -29 -6 -59l-119 -619q114 0 211 23l10 -25q-71 -93 -128.5 -125t-121.5 -32q-106 0 -159 83l141 746q-46 43 -137 43q-124 0 -269 -90l-133 -758 q-46 -14 -90 -14q-47 0 -84 12zM350 1149q55 106 97 160t73.5 69t77.5 15q43 0 139.5 -50.5t120.5 -50.5q30 0 56.5 22t95.5 105l59 -30q-88 -146 -138 -196t-110 -50q-46 0 -143 50t-121 50q-32 0 -57.5 -21t-91.5 -104z" />
<glyph unicode="&#xf2;" horiz-adv-x="1030" d="M82 397q0 169 60.5 309.5t177 226t266.5 85.5q178 0 270 -105.5t92 -308.5q0 -175 -63 -317t-178.5 -224.5t-262.5 -82.5q-182 0 -272 108t-90 309zM279 375q0 -148 54.5 -211.5t158.5 -63.5q37 0 71 11q14 5 35 24t48.5 61.5t50.5 98t39 143t16 187.5q0 147 -54.5 209.5 t-158.5 62.5q-41 0 -72 -10q-14 -5 -34.5 -24t-48 -61.5t-50.5 -98t-39 -142t-16 -186.5zM373 1495h225l55 -354q-40 -21 -78 -21z" />
<glyph unicode="&#xf3;" horiz-adv-x="1030" d="M82 397q0 169 60.5 309.5t177 226t266.5 85.5q178 0 270 -105.5t92 -308.5q0 -175 -63 -317t-178.5 -224.5t-262.5 -82.5q-182 0 -272 108t-90 309zM279 375q0 -148 54.5 -211.5t158.5 -63.5q37 0 71 11q14 5 35 24t48.5 61.5t50.5 98t39 143t16 187.5q0 147 -54.5 209.5 t-158.5 62.5q-41 0 -72 -10q-14 -5 -34.5 -24t-48 -61.5t-50.5 -98t-39 -142t-16 -186.5zM524 1141l174 354h250l-342 -375q-50 0 -82 21z" />
<glyph unicode="&#xf4;" horiz-adv-x="1030" d="M82 397q0 169 60.5 309.5t177 226t266.5 85.5q178 0 270 -105.5t92 -308.5q0 -175 -63 -317t-178.5 -224.5t-262.5 -82.5q-182 0 -272 108t-90 309zM279 375q0 -148 54.5 -211.5t158.5 -63.5q37 0 71 11q14 5 35 24t48.5 61.5t50.5 98t39 143t16 187.5q0 147 -54.5 209.5 t-158.5 62.5q-41 0 -72 -10q-14 -5 -34.5 -24t-48 -61.5t-50.5 -98t-39 -142t-16 -186.5zM317 1143l293 352h97l174 -352q-33 -23 -76 -23l-178 193l-236 -193q-41 0 -74 23z" />
<glyph unicode="&#xf5;" horiz-adv-x="1030" d="M82 397q0 169 60.5 309.5t177 226t266.5 85.5q178 0 270 -105.5t92 -308.5q0 -175 -63 -317t-178.5 -224.5t-262.5 -82.5q-182 0 -272 108t-90 309zM264 1149q55 106 97 160t73.5 69t77.5 15q43 0 139.5 -50.5t120.5 -50.5q30 0 56.5 22t95.5 105l59 -30 q-88 -146 -138 -196t-110 -50q-46 0 -143 50t-121 50q-32 0 -57.5 -21t-91.5 -104zM279 375q0 -148 54.5 -211.5t158.5 -63.5q37 0 71 11q14 5 35 24t48.5 61.5t50.5 98t39 143t16 187.5q0 147 -54.5 209.5t-158.5 62.5q-41 0 -72 -10q-14 -5 -34.5 -24t-48 -61.5t-50.5 -98 t-39 -142t-16 -186.5z" />
<glyph unicode="&#xf6;" horiz-adv-x="1030" d="M82 397q0 169 60.5 309.5t177 226t266.5 85.5q178 0 270 -105.5t92 -308.5q0 -175 -63 -317t-178.5 -224.5t-262.5 -82.5q-182 0 -272 108t-90 309zM279 375q0 -148 54.5 -211.5t158.5 -63.5q37 0 71 11q14 5 35 24t48.5 61.5t50.5 98t39 143t16 187.5q0 147 -54.5 209.5 t-158.5 62.5q-41 0 -72 -10q-14 -5 -34.5 -24t-48 -61.5t-50.5 -98t-39 -142t-16 -186.5zM330 1235q0 56 33.5 90.5t91.5 34.5q40 0 64 -25.5t24 -66.5q0 -56 -33.5 -90.5t-91.5 -34.5q-42 0 -65 26.5t-23 65.5zM674 1235q0 56 33.5 90.5t91.5 34.5q40 0 64 -25.5t24 -66.5 q0 -56 -33.5 -90.5t-91.5 -34.5q-42 0 -65 26.5t-23 65.5z" />
<glyph unicode="&#xf7;" horiz-adv-x="1085" d="M117 424v147h850v-147h-850zM406 119q0 65 36 102t99 37q62 0 98.5 -37.5t36.5 -101.5q0 -63 -36 -101t-99 -38q-66 0 -100.5 38t-34.5 101zM406 879q0 65 36 102t99 37q62 0 98.5 -37.5t36.5 -101.5q0 -63 -36 -101.5t-99 -38.5q-66 0 -100.5 38t-34.5 102z" />
<glyph unicode="&#xf8;" horiz-adv-x="1030" d="M-57 -145l211 258q-72 103 -72 284q0 169 60.5 309.5t177 226t266.5 85.5q151 0 241 -78l199 244q48 -4 64 -41l-211 -260q69 -104 69 -279t-63 -317t-178.5 -224.5t-262.5 -82.5q-151 0 -241 75l-197 -241q-19 2 -37.5 13t-25.5 28zM279 375q0 -62 8 -101l430 529 q-51 94 -178 94q-41 0 -72 -10q-14 -5 -34.5 -24t-48 -61.5t-50.5 -98t-39 -142t-16 -186.5zM313 190q50 -90 179 -90q37 0 71 11q14 5 35 24t48.5 61.5t50.5 98t39 143t16 187.5q0 53 -9 94z" />
<glyph unicode="&#xf9;" horiz-adv-x="1187" d="M162 180q0 30 6 60l115 598l-35 26q-58 44 -70 86l6 39l308 29l-158 -830q46 -43 137 -43q120 0 260 86l133 762q44 15 90 15q43 0 84 -13l-149 -856q114 0 211 23l10 -25q-71 -93 -128.5 -125t-121.5 -32q-62 0 -96.5 40t-34.5 117h-10q-109 -90 -180 -123.5t-152 -33.5 q-99 0 -162 51.5t-63 148.5zM469 1495h225l56 -354q-40 -21 -78 -21z" />
<glyph unicode="&#xfa;" horiz-adv-x="1187" d="M162 180q0 30 6 60l115 598l-35 26q-58 44 -70 86l6 39l308 29l-158 -830q46 -43 137 -43q120 0 260 86l133 762q44 15 90 15q43 0 84 -13l-149 -856q114 0 211 23l10 -25q-71 -93 -128.5 -125t-121.5 -32q-62 0 -96.5 40t-34.5 117h-10q-109 -90 -180 -123.5t-152 -33.5 q-99 0 -162 51.5t-63 148.5zM635 1141l174 354h250l-342 -375q-51 0 -82 21z" />
<glyph unicode="&#xfb;" horiz-adv-x="1187" d="M162 180q0 30 6 60l115 598l-35 26q-58 44 -70 86l6 39l308 29l-158 -830q46 -43 137 -43q120 0 260 86l133 762q44 15 90 15q43 0 84 -13l-149 -856q114 0 211 23l10 -25q-71 -93 -128.5 -125t-121.5 -32q-62 0 -96.5 40t-34.5 117h-10q-109 -90 -180 -123.5t-152 -33.5 q-99 0 -162 51.5t-63 148.5zM408 1143l292 352h97l174 -352q-33 -23 -76 -23l-178 193l-236 -193q-40 0 -73 23z" />
<glyph unicode="&#xfc;" horiz-adv-x="1187" d="M162 180q0 30 6 60l115 598l-35 26q-58 44 -70 86l6 39l308 29l-158 -830q46 -43 137 -43q120 0 260 86l133 762q44 15 90 15q43 0 84 -13l-149 -856q114 0 211 23l10 -25q-71 -93 -128.5 -125t-121.5 -32q-62 0 -96.5 40t-34.5 117h-10q-109 -90 -180 -123.5t-152 -33.5 q-99 0 -162 51.5t-63 148.5zM436 1235q0 56 33.5 90.5t91.5 34.5q40 0 64 -25.5t24 -66.5q0 -56 -33.5 -90.5t-91.5 -34.5q-42 0 -65 26.5t-23 65.5zM780 1235q0 56 33.5 90.5t91.5 34.5q40 0 64 -25.5t24 -66.5q0 -56 -33.5 -90.5t-91.5 -34.5q-42 0 -65 26.5t-23 65.5z " />
<glyph unicode="&#xfd;" horiz-adv-x="1019" d="M49 844q64 101 108.5 137.5t102.5 36.5q43 0 68 -19.5t45 -62.5l116 -756h13l311 656l-139 84l2 8q11 39 41 69h297v-71l-602 -1145l-72 -232q-95 0 -152 48v49q15 53 53.5 116t170.5 238h-66l-151 858q-34 0 -136 -39zM520 1141l174 354h250l-342 -375q-50 0 -82 21z " />
<glyph unicode="&#xfe;" horiz-adv-x="1091" d="M47 -430l307 1745l-37 26q-56 43 -69 86l6 39l307 29l-110 -614h14q73 76 131.5 106.5t128.5 30.5q126 0 205.5 -89t79.5 -261q0 -152 -40 -283t-105.5 -218.5t-150 -137t-173.5 -49.5q-129 0 -232 106l-88 -514q-38 -14 -90 -14q-43 0 -84 12zM328 170q152 -47 247 -47 q59 0 115 81t89.5 203.5t33.5 243.5q0 120 -45.5 169.5t-128.5 49.5q-97 0 -209 -112z" />
<glyph unicode="&#xff;" horiz-adv-x="1019" d="M49 844q64 101 108.5 137.5t102.5 36.5q43 0 68 -19.5t45 -62.5l116 -756h13l311 656l-139 84l2 8q11 39 41 69h297v-71l-602 -1145l-72 -232q-95 0 -152 48v49q15 53 53.5 116t170.5 238h-66l-151 858q-34 0 -136 -39zM340 1235q0 56 33.5 90.5t91.5 34.5q40 0 64 -25.5 t24 -66.5q0 -56 -33.5 -90.5t-91.5 -34.5q-42 0 -65 26.5t-23 65.5zM684 1235q0 56 33.5 90.5t91.5 34.5q40 0 64 -25.5t24 -66.5q0 -56 -33.5 -90.5t-91.5 -34.5q-42 0 -65 26.5t-23 65.5z" />
<glyph unicode="&#x152;" horiz-adv-x="2052" d="M109 561q0 161 39.5 300t107.5 239.5t158 173t192.5 108t208.5 35.5q133 0 236 -55.5t149 -149.5l33 185h526l240 20l-35 -385q-38 -24 -88 -24h-14l-54 262h-413l-90 -498h442q0 -73 -25 -137l-170 10h-268l-94 -528l483 18l99 262h14q54 0 88 -24l-35 -373h-854l25 141 q-71 -80 -174.5 -120.5t-214.5 -40.5q-243 0 -377.5 155.5t-134.5 425.5zM330 563q0 -220 93 -339.5t249 -119.5q78 0 143 21q50 16 103 83t97.5 168.5t72.5 243.5t28 293q0 186 -96 282.5t-252 96.5q-54 0 -104 -8q-20 -3 -50.5 -24t-69 -59t-75.5 -99.5t-68.5 -136.5 t-51 -180t-19.5 -222z" />
<glyph unicode="&#x153;" horiz-adv-x="1599" d="M82 397q0 169 58.5 309.5t172.5 226t262 85.5q223 0 314 -184q138 184 319 184q150 0 230 -78t80 -219q0 -51 -21 -119l-563 -94q-10 -68 -10 -129q0 -122 59 -182t166 -60q30 0 84 20t180 87l29 -37q-99 -118 -187 -172.5t-182 -54.5q-209 0 -295 163 q-135 -163 -334 -163q-182 0 -272 108t-90 309zM279 375q0 -148 54.5 -211.5t158.5 -63.5q37 0 71 11q14 5 35 24t48.5 61.5t50.5 98t39 143t16 187.5q0 147 -54.5 209.5t-158.5 62.5q-41 0 -72 -10q-14 -5 -34.5 -24t-48 -61.5t-50.5 -98t-39 -142t-16 -186.5zM950 598 l393 80q5 25 5 55q0 78 -50.5 124t-132.5 46q-39 0 -59 -8t-39 -31q-75 -90 -117 -266z" />
<glyph unicode="&#x178;" horiz-adv-x="1034" d="M51 1290l4 21q11 56 41 86h506l-41 -107l-155 -22l169 -545h17l369 545l-205 22l4 21q11 56 41 86h434l-41 -107l-74 -22l-497 -688l-80 -451l196 -23l-4 -20q-11 -56 -41 -86h-549l41 106l156 23l80 451l-238 688zM412 1542q0 52 30.5 83.5t83.5 31.5q35 0 56.5 -23.5 t21.5 -58.5q0 -52 -31 -83.5t-84 -31.5q-36 0 -56.5 24.5t-20.5 57.5zM748 1542q0 52 30.5 83.5t83.5 31.5q35 0 56.5 -23.5t21.5 -58.5q0 -52 -31 -83.5t-84 -31.5q-36 0 -56.5 24.5t-20.5 57.5z" />
<glyph unicode="&#x2c6;" d="M231 1143l293 352h97l174 -352q-33 -23 -76 -23l-178 193l-236 -193q-41 0 -74 23z" />
<glyph unicode="&#x2dc;" d="M152 1149q42 81 74 129.5t61 74t53 33t59 7.5q43 0 139.5 -50.5t120.5 -50.5q30 0 56.5 22t95.5 105l59 -30q-88 -147 -137.5 -196.5t-109.5 -49.5q-46 0 -143.5 50t-121.5 50q-32 0 -57.5 -21t-91.5 -104z" />
<glyph unicode="&#x2000;" horiz-adv-x="934" />
<glyph unicode="&#x2001;" horiz-adv-x="1868" />
<glyph unicode="&#x2002;" horiz-adv-x="934" />
<glyph unicode="&#x2003;" horiz-adv-x="1868" />
<glyph unicode="&#x2004;" horiz-adv-x="622" />
<glyph unicode="&#x2005;" horiz-adv-x="467" />
<glyph unicode="&#x2006;" horiz-adv-x="311" />
<glyph unicode="&#x2007;" horiz-adv-x="311" />
<glyph unicode="&#x2008;" horiz-adv-x="233" />
<glyph unicode="&#x2009;" horiz-adv-x="373" />
<glyph unicode="&#x200a;" horiz-adv-x="103" />
<glyph unicode="&#x2010;" horiz-adv-x="512" d="M43 420l27 158h397l-27 -158h-397z" />
<glyph unicode="&#x2011;" horiz-adv-x="512" d="M43 420l27 158h397l-27 -158h-397z" />
<glyph unicode="&#x2012;" horiz-adv-x="512" d="M43 420l27 158h397l-27 -158h-397z" />
<glyph unicode="&#x2013;" d="M53 420l27 158h889l-27 -158h-889z" />
<glyph unicode="&#x2014;" horiz-adv-x="2048" d="M53 420l27 158h1913l-27 -158h-1913z" />
<glyph unicode="&#x2018;" horiz-adv-x="409" d="M147 1092q0 30 5 53l315 350q56 -9 70 -51l-201 -277l80 -43q0 -76 -34 -128t-103 -52q-57 0 -94.5 38t-37.5 110z" />
<glyph unicode="&#x2019;" horiz-adv-x="409" d="M88 995l201 277l-80 43q0 76 34 128t103 52q57 0 94 -37.5t37 -109.5q0 -36 -4 -54l-315 -350q-56 9 -70 51z" />
<glyph unicode="&#x201a;" horiz-adv-x="409" d="M-55 31l200 276l-79 43q0 76 34 128t103 52q57 0 94 -37.5t37 -109.5q0 -35 -4 -53l-316 -350q-54 9 -69 51z" />
<glyph unicode="&#x201c;" horiz-adv-x="737" d="M147 1092q0 30 5 53l315 350q56 -9 70 -51l-201 -277l80 -43q0 -76 -34 -128t-103 -52q-57 0 -94.5 38t-37.5 110zM475 1092q0 35 4 53l316 350q54 -9 69 -51l-200 -277l79 -43q0 -76 -34 -128t-103 -52q-57 0 -94 38t-37 110z" />
<glyph unicode="&#x201d;" horiz-adv-x="737" d="M88 995l201 277l-80 43q0 76 34 128t103 52q57 0 94 -37.5t37 -109.5q0 -36 -4 -54l-315 -350q-56 9 -70 51zM416 995l200 277l-79 43q0 76 34 128t103 52q57 0 94 -37.5t37 -109.5q0 -36 -4 -54l-316 -350q-54 9 -69 51z" />
<glyph unicode="&#x201e;" horiz-adv-x="737" d="M-55 31l200 276l-79 43q0 76 34 128t103 52q57 0 94 -37.5t37 -109.5q0 -35 -4 -53l-316 -350q-54 9 -69 51zM272 31l201 276l-80 43q0 76 34 128t103 52q57 0 94.5 -37.5t37.5 -109.5q0 -31 -5 -53l-315 -350q-56 9 -70 51z" />
<glyph unicode="&#x2022;" horiz-adv-x="759" d="M96 463q0 153 88 247.5t228 94.5q123 0 189.5 -68.5t66.5 -193.5q0 -152 -88 -246t-228 -94q-122 0 -189 69t-67 191z" />
<glyph unicode="&#x2026;" horiz-adv-x="1394" d="M23 100q0 71 43.5 114.5t113.5 43.5q54 0 86.5 -33.5t32.5 -87.5q0 -70 -43.5 -113.5t-114.5 -43.5q-55 0 -86.5 33.5t-31.5 86.5zM489 100q0 70 43.5 114t114.5 44q54 0 86.5 -33.5t32.5 -87.5q0 -70 -43.5 -113.5t-114.5 -43.5q-56 0 -87.5 33.5t-31.5 86.5zM956 100 q0 70 44 114t114 44q54 0 86.5 -33.5t32.5 -87.5q0 -70 -43.5 -113.5t-114.5 -43.5q-56 0 -87.5 33.5t-31.5 86.5z" />
<glyph unicode="&#x202f;" horiz-adv-x="373" />
<glyph unicode="&#x2039;" horiz-adv-x="448" d="M31 498l2 18l370 383l62 -12l-225 -387l90 -381l-68 -13z" />
<glyph unicode="&#x203a;" horiz-adv-x="448" d="M-16 121l225 387l-90 381l67 12l232 -391l-2 -18l-371 -383z" />
<glyph unicode="&#x205f;" horiz-adv-x="467" />
<glyph unicode="&#x20ac;" horiz-adv-x="1085" d="M70 516q0 45 16 78h117q8 92 35 207h-121q0 45 16 78h127q80 241 243.5 389.5t377.5 148.5q162 0 272 -35q0 -30 -8 -73.5t-19 -69.5q-55 15 -159 28t-179 13q-47 0 -76 -5.5t-38.5 -11t-26.5 -18.5q-55 -49 -107.5 -143.5t-88.5 -222.5h456q0 -47 -16 -78h-459 q-22 -101 -31 -207h459q0 -47 -16 -78h-447v-59q0 -166 64.5 -249t200.5 -83q97 0 177.5 38.5t133.5 104.5q0 -96 -21 -176q-106 -112 -307 -112q-221 0 -333.5 131t-112.5 368v37h-129z" />
<glyph unicode="&#x2122;" horiz-adv-x="1763" d="M197 1225l28 172h445l143 10l-47 -182q-27 -15 -68 -15h-10l-8 111l-111 -4l-96 -541l82 -10l-2 -12q-8 -38 -25 -58h-288l20 70l78 10l94 537l-113 -4l-47 -99h-14q-40 0 -61 15zM748 696l22 70l76 12l127 537l-82 12l2 12q8 38 25 58h221l102 -494l281 494h235l-22 -70 l-80 -12l-78 -537l82 -12l-2 -12q-8 -38 -25 -58h-280l22 70l80 12l66 430h-11l-305 -512l-51 -10l-104 522h-11l-96 -430l88 -12l-2 -12q-8 -39 -24 -58h-256z" />
<glyph unicode="&#xe000;" horiz-adv-x="1013" d="M0 0v1014h1014v-1014h-1014z" />
</font>
</defs>
</svg>
