<?xml version="1.0" standalone="no"?>
<!DOCTYPE svg PUBLIC "-//W3C//DTD SVG 1.1//EN" "http://www.w3.org/Graphics/SVG/1.1/DTD/svg11.dtd" >
<svg xmlns="http://www.w3.org/2000/svg">
<metadata></metadata>
<defs>
<font id="malaga_ot_regbold" horiz-adv-x="1024" >
<font-face units-per-em="2048" ascent="1638" descent="-410" />
<missing-glyph horiz-adv-x="532" />
<glyph unicode="&#xfb01;" horiz-adv-x="1363" d="M41 0l20 156l115 22v629l-39 12q-64 18 -84 47v131h123v23q0 42 10.5 91t31.5 103t56.5 103.5t80.5 89.5t109 64t138 24q97 0 162 -35l-23 -229q-49 8 -135 8q-76 0 -121 -10q-12 -3 -12 -31q0 -19 10 -88t13 -113h407l311 27v-846l132 -22v-11q0 -89 -37 -145h-559 l20 156l107 22v629h-363v-629l129 -22v-11q0 -93 -37 -145h-565zM856 1315q0 76 50 120t134 44q85 0 135 -44t50 -120q0 -74 -48 -119t-137 -45q-86 0 -135 45t-49 119z" />
<glyph unicode="&#xfb02;" horiz-adv-x="1353" d="M41 0l20 156l115 22v629l-39 12q-64 18 -84 47v131h123v11q0 63 16 125.5t57 126.5t101.5 112.5t158 79.5t218.5 31q104 0 246 -23l231 35v-1317l123 -22v-11q0 -89 -37 -145h-545l21 156l98 22v1047q-98 10 -186 10q-112 0 -174 -12q-25 -6 -25 -66q0 -24 7.5 -79 t9.5 -81h202q11 -61 11 -94q0 -32 -11 -96h-184v-629l127 -22v-11q0 -92 -35 -145h-565z" />
<glyph horiz-adv-x="2048" />
<glyph horiz-adv-x="2048" />
<glyph unicode="&#xd;" horiz-adv-x="2048" />
<glyph unicode=" "  horiz-adv-x="532" />
<glyph unicode="&#x09;" horiz-adv-x="532" />
<glyph unicode="&#xa0;" horiz-adv-x="532" />
<glyph unicode="!" horiz-adv-x="679" d="M131 1397q143 20 416 20l-105 -956h-206zM158 156q0 85 48 132.5t134 47.5q83 0 132.5 -48t49.5 -132q0 -79 -48.5 -127.5t-133.5 -48.5q-90 0 -136 47.5t-46 128.5z" />
<glyph unicode="&#x22;" horiz-adv-x="784" d="M23 1475h346l-84 -521q-42 -10 -90 -10t-93 10zM416 1475h346l-84 -521q-42 -10 -90 -10q-47 0 -92 10z" />
<glyph unicode="#" horiz-adv-x="1140" d="M59 313q0 52 13.5 138.5t31.5 128.5l201 22l29 150l-207 -21q0 54 13 139.5t32 126.5l211 25l68 375q27 6 69 6q46 0 70 -6l-66 -361l207 23l64 338q27 6 69 6q46 0 70 -6l-60 -322l205 21q0 -47 -14.5 -137t-30.5 -130l-209 -24l-26 -150l213 23q0 -49 -14 -137.5 t-31 -128.5l-215 -25l-72 -387q-24 -6 -70 -6q-45 0 -69 6l65 373l-207 -25l-61 -348q-24 -6 -70 -6q-47 0 -71 6l61 334zM449 618l206 21l29 152l-207 -23z" />
<glyph unicode="$" horiz-adv-x="1140" d="M139 930q0 134 95.5 236t263.5 132l53 254q24 7 43 7q38 0 61 -17l-49 -233q14 2 35 2q44 0 84 -4l51 245q21 7 41 7q39 0 62 -17l-52 -248q49 -4 109 -18v-299q-71 -31 -170 -31h-27l-47 160q-50 12 -104 12t-84 -10q-14 -5 -30.5 -34t-16.5 -62q0 -41 30 -73t78 -55 t106 -46.5t116 -54.5t106 -70.5t78 -103t30 -144.5q0 -148 -112.5 -250.5t-300.5 -122.5l-51 -250q-24 -4 -41 -4q-38 0 -62 15l47 235q-56 0 -114 8l-54 -254q-28 -4 -43 -4q-37 0 -61 15l53 260q-53 9 -104 24v299q64 31 170 31h28l45 -168q63 -18 144 -18q58 0 88 10 q16 6 32.5 34t16.5 68q0 42 -30 75t-78 57t-105.5 48t-115.5 54.5t-106 68.5t-78 98t-30 136z" />
<glyph unicode="%" horiz-adv-x="1597" d="M63 1057q0 160 90.5 260t247.5 100q156 0 245 -98t89 -262q0 -165 -91.5 -264t-244.5 -99q-157 0 -246.5 98.5t-89.5 264.5zM293 1055q0 -113 27 -163t86 -50q32 0 51 8q11 2 21.5 20.5t20 67.5t9.5 119q0 113 -28 163t-87 50q-30 0 -51 -8q-10 -2 -20 -20.5t-19.5 -67.5 t-9.5 -119zM358 8l744 1409q32 0 71 -10.5t60 -26.5l-744 -1409q-79 0 -131 37zM862 342q0 160 91 260t247 100t245 -98t89 -262q0 -165 -92.5 -263.5t-243.5 -98.5q-156 0 -246 98.5t-90 263.5zM1092 340q0 -113 26.5 -163t85.5 -50q30 0 51 8q11 2 21.5 20.5t19.5 67.5 t9 119q0 114 -26.5 163.5t-86.5 49.5q-30 0 -51 -8q-10 -2 -20 -20.5t-19.5 -67.5t-9.5 -119z" />
<glyph unicode="&#x26;" horiz-adv-x="1484" d="M39 326q0 113 69 211t228 200q-68 103 -68 228q0 208 129.5 330t333.5 122q148 0 235 -66.5t87 -189.5q0 -54 -23 -104t-71.5 -98.5t-99.5 -87.5t-132 -93q88 -125 268 -334q72 100 131 205l-139 23v14q0 85 37 145h428l-20 -159l-72 -23q-107 -207 -232 -352 q92 -102 222 -238q-39 -39 -98.5 -65t-110.5 -29l-199 158q-190 -143 -420 -143q-234 0 -358.5 91t-124.5 255zM399 360q0 -89 52.5 -141.5t146.5 -52.5q103 0 201 74q-202 172 -328 311q-72 -84 -72 -191zM610 1075q0 -87 37 -157q108 67 163.5 123.5t55.5 109.5 q0 45 -35 68.5t-98 23.5q-39 0 -69 -10q-17 -6 -35.5 -51t-18.5 -107z" />
<glyph unicode="'" horiz-adv-x="389" d="M23 1475h346l-84 -521q-42 -10 -90 -10t-93 10z" />
<glyph unicode="(" horiz-adv-x="610" d="M61 563q0 409 131 635t390 254q39 -65 49 -152q-51 -13 -85.5 -34.5t-67 -70t-51.5 -126.5t-30.5 -204t-11.5 -302t11.5 -302t30.5 -204t51.5 -126.5t67 -70t85.5 -34.5q-10 -87 -49 -152q-259 28 -390 254t-131 635z" />
<glyph unicode=")" horiz-adv-x="610" d="M-20 -174q51 13 85.5 34.5t67 70t51 126.5t30 204t11.5 302t-11.5 302t-30 204t-51 126.5t-67 70t-85.5 34.5q10 87 49 152q259 -28 389.5 -254t130.5 -635t-130.5 -635t-389.5 -254q-39 65 -49 152z" />
<glyph unicode="*" horiz-adv-x="798" d="M27 1098q0 69 23 142t61 120l204 -125l-49 238q51 22 133 22q85 0 136 -22l-54 -236l207 123q38 -47 61 -118t23 -142l-240 -23l183 -162q-33 -51 -96.5 -97.5t-120.5 -63.5l-99 225l-94 -225q-58 18 -122 63.5t-97 95.5l178 162z" />
<glyph unicode="+" horiz-adv-x="1193" d="M162 354v285h291v326h286v-326h293v-285h-293v-323h-286v323h-291z" />
<glyph unicode="," horiz-adv-x="487" d="M-4 -328l162 365l-97 45q0 242 181 242q89 0 143.5 -72.5t54.5 -210.5l-307 -410q-96 0 -137 41z" />
<glyph unicode="-" horiz-adv-x="628" d="M76 381v283h477v-283h-477z" />
<glyph unicode="." horiz-adv-x="487" d="M61 172q0 93 49 145t136 52q84 0 133 -52.5t49 -144.5q0 -86 -48.5 -139t-133.5 -53q-90 0 -137.5 52.5t-47.5 139.5z" />
<glyph unicode="/" horiz-adv-x="770" d="M14 -45l535 1554q45 0 112 -21t95 -46l-535 -1555q-44 0 -111 21t-96 47z" />
<glyph unicode="0" horiz-adv-x="1208" d="M74 557q0 165 67.5 296.5t190 205.5t278.5 74q237 0 381 -157.5t144 -418.5q0 -255 -150.5 -416t-388.5 -161q-237 0 -379.5 156.5t-142.5 420.5zM348 555q0 -144 69.5 -217.5t188.5 -73.5q80 0 144 21q37 12 72.5 82t35.5 190q0 146 -69.5 218.5t-188.5 72.5 q-78 0 -143 -21q-37 -12 -73 -81.5t-36 -190.5z" />
<glyph unicode="1" horiz-adv-x="757" d="M18 0l19 166l184 22v719l-69 19q-78 24 -97 57v129h518v-924l170 -22v-23q0 -90 -38 -143h-687z" />
<glyph unicode="2" horiz-adv-x="1021" d="M70 0v244q178 98 276 171.5t137 135.5t39 135q0 87 -53.5 141t-142.5 54q-108 0 -176 -68l-68 68q52 119 154.5 185.5t246.5 66.5q175 0 288.5 -100t113.5 -267q0 -67 -17.5 -122t-60.5 -111t-119.5 -109.5t-189.5 -106.5v-18q205 25 321 25q70 0 101.5 -37t31.5 -115 q0 -86 -28 -172h-854z" />
<glyph unicode="3" horiz-adv-x="980" d="M47 -121q181 26 287 63.5t148 84t42 112.5q0 91 -57.5 131.5t-179.5 40.5h-150v209h154q221 0 221 174q0 87 -49.5 132.5t-145.5 45.5q-114 0 -182 -77l-80 71q126 267 418 267q186 0 301 -100.5t115 -260.5q0 -226 -223 -317v-19q114 -34 179.5 -110.5t65.5 -194.5 q0 -397 -839 -436q-25 60 -25 184z" />
<glyph unicode="4" horiz-adv-x="1050" d="M41 10v330l367 793q68 0 142.5 -12t117.5 -34l-379 -825h295v367h331v-344h111v-56q0 -54 -8.5 -119.5t-22.5 -99.5h-80v-295h-352v295h-522z" />
<glyph unicode="5" horiz-adv-x="980" d="M57 -121q254 34 367 92t113 158q0 84 -61.5 123t-188.5 39q-94 0 -156 -10v831h770q0 -200 -31 -269t-120 -69q-108 0 -377 35l-37 -277q98 5 102 5q227 0 355.5 -101t128.5 -282q0 -215 -219.5 -332.5t-618.5 -126.5q-27 69 -27 184z" />
<glyph unicode="6" horiz-adv-x="1062" d="M61 500q0 291 206 532.5t601 384.5q30 -29 58.5 -82t34.5 -92q-238 -130 -354.5 -239t-153.5 -232h14q78 62 184 62q69 0 131 -24.5t112.5 -72.5t80 -127t29.5 -180q0 -137 -64.5 -241t-170.5 -156.5t-234 -52.5q-215 0 -344.5 142t-129.5 378zM406 416q0 -234 131 -234 q44 0 71 8q13 4 26.5 24t24.5 73t11 129q0 105 -38.5 161t-105.5 56q-51 0 -100 -35q-7 -24 -13.5 -82t-6.5 -100z" />
<glyph unicode="7" horiz-adv-x="989" d="M18 913q0 95 19 199h924v-309l-549 -1108q-187 0 -277 22l549 1094q-349 -37 -516 -37q-150 0 -150 139z" />
<glyph unicode="8" horiz-adv-x="1038" d="M66 293q0 173 153 280l90 66q-239 155 -239 379q0 171 127.5 285t330.5 114q197 0 317 -89.5t120 -227.5q0 -81 -36.5 -142t-109.5 -116l-94 -68q133 -98 189.5 -187.5t56.5 -219.5q0 -163 -132.5 -275t-330.5 -112q-207 0 -324.5 87.5t-117.5 225.5zM365 340 q0 -160 145 -160q50 0 94 15q16 4 31.5 40t15.5 93q0 76 -40.5 123.5t-143.5 103.5q-58 -54 -80 -102.5t-22 -112.5zM393 1065q0 -66 42.5 -112.5t133.5 -98.5q57 48 79 94.5t22 108.5q0 79 -38.5 118t-103.5 39q-39 0 -84 -10q-20 -7 -35.5 -42.5t-15.5 -96.5z" />
<glyph unicode="9" horiz-adv-x="1062" d="M59 682q0 103 37.5 189t102 143t149.5 88t180 31q215 0 344 -142.5t129 -378.5q0 -292 -205.5 -533t-600.5 -384q-30 29 -58.5 82t-34.5 92q238 130 354.5 239t153.5 232h-14q-77 -61 -184 -61q-69 0 -131 24.5t-112.5 72t-80 126.5t-29.5 180zM393 696q0 -105 38.5 -161 t105.5 -56q51 0 100 35q7 24 13.5 82t6.5 100q0 234 -131 234q-44 0 -71 -8q-14 -5 -26.5 -25t-24 -72.5t-11.5 -128.5z" />
<glyph unicode=":" horiz-adv-x="552" d="M90 172q0 93 48.5 145t135.5 52q84 0 133.5 -52.5t49.5 -144.5q0 -86 -49 -139t-134 -53q-90 0 -137 52t-47 140zM90 821q0 93 48.5 145t135.5 52q84 0 133.5 -52.5t49.5 -144.5q0 -86 -49 -139t-134 -53q-90 0 -137 52t-47 140z" />
<glyph unicode=";" horiz-adv-x="552" d="M27 -328l161 365l-96 45q0 242 180 242q89 0 144 -73t55 -210l-307 -410q-96 0 -137 41zM88 821q0 93 48.5 145t135.5 52q84 0 133.5 -52.5t49.5 -144.5q0 -86 -49 -139t-134 -53q-90 0 -137 52t-47 140z" />
<glyph unicode="&#x3c;" horiz-adv-x="1193" d="M133 502l526 463h400l-524 -463l522 -471h-400z" />
<glyph unicode="=" horiz-adv-x="1193" d="M172 129v285h850v-285h-850zM172 584v284h850v-284h-850z" />
<glyph unicode="&#x3e;" horiz-adv-x="1193" d="M135 31l524 463l-522 471h400l524 -471l-526 -463h-400z" />
<glyph unicode="?" horiz-adv-x="976" d="M86 1167q112 250 412 250q184 0 295.5 -98.5t111.5 -259.5q0 -149 -99 -241t-288 -128l-35 -231h-135l-168 194q2 26 16 61.5t33 57.5q150 19 224.5 73.5t74.5 149.5q0 79 -49 126.5t-135 47.5q-107 0 -172 -65zM225 158q0 85 48.5 132.5t134.5 47.5q84 0 133 -48 t49 -132q0 -80 -48.5 -129t-133.5 -49q-89 0 -136 48.5t-47 129.5z" />
<glyph unicode="@" horiz-adv-x="1736" d="M57 311q0 196 52 363.5t140 285t205.5 200.5t248.5 123t268 40q156 0 287.5 -49t224 -138t144.5 -217.5t52 -283.5q0 -145 -39.5 -267t-105.5 -201t-150.5 -123t-175.5 -44q-189 0 -262 121h-20q-65 -69 -121 -95t-119 -26q-109 0 -183.5 82.5t-74.5 230.5 q0 140 37.5 258.5t98 194t134 118t148.5 42.5q138 0 201 -107l106 101q20 4 37 4q57 0 106 -27l-141 -666q25 -28 86 -28q94 0 165 111.5t71 312.5q0 222 -144.5 353.5t-378.5 131.5q-142 0 -266.5 -52t-218.5 -149.5t-148.5 -247.5t-54.5 -335q0 -131 39 -231.5t109.5 -161 t161.5 -91t200 -30.5q75 0 149.5 15t118.5 38l-26 -189q-100 -77 -266 -77q-117 0 -221.5 29t-191 87.5t-149.5 142.5t-98 199t-35 252zM711 326q0 -127 88 -127q43 0 92 34l98 472q-75 22 -133 22q-29 0 -63 -60t-58 -155.5t-24 -185.5z" />
<glyph unicode="A" horiz-adv-x="1347" d="M-47 0l18 170l84 23l451 1204l342 20l426 -1224l98 -23v-23q0 -94 -35 -147h-618l16 170l152 23l-101 301l-380 -25l-93 -276l162 -23v-23q0 -91 -37 -147h-485zM465 653h272l-125 387h-18z" />
<glyph unicode="B" horiz-adv-x="1304" d="M47 0l19 170l127 23v1011l-144 23v22q0 92 37 148h596q502 0 502 -369q0 -116 -63 -192t-167 -107v-18q126 -28 205.5 -110.5t79.5 -215.5q0 -186 -146 -285.5t-411 -99.5h-635zM559 195l162 -13q64 15 102.5 74.5t38.5 146.5q0 213 -207 213h-96v-421zM559 782l174 17 q42 30 67 85t25 120q0 202 -174 202h-92v-424z" />
<glyph unicode="C" horiz-adv-x="1282" d="M59 680q0 158 47.5 291.5t138.5 233.5t233 156t321 56q83 0 188 -12t180 -31v-416q-62 -36 -184 -36h-29l-53 258q-84 24 -182 24q-62 0 -98 -8q-13 -2 -31.5 -23.5t-40.5 -66t-40.5 -102.5t-31 -144t-12.5 -180q0 -479 330 -479q71 0 129 14l51 248h29q48 0 100.5 -10.5 t81.5 -28.5v-342q-74 -47 -192.5 -74.5t-241.5 -27.5q-146 0 -272.5 47.5t-220 135t-147 221t-53.5 296.5z" />
<glyph unicode="D" horiz-adv-x="1462" d="M47 0l19 170l127 23v1011l-144 23v22q0 92 37 148h623q317 0 505.5 -181.5t188.5 -506.5q0 -213 -92 -374.5t-256 -248t-377 -86.5h-631zM563 203l195 -13q237 104 237 519q0 141 -22.5 239t-65.5 151.5t-96 76t-123 22.5h-125v-995z" />
<glyph unicode="E" horiz-adv-x="1239" d="M47 0l19 170l127 23v1011l-144 23v22q0 92 37 148h750l282 20v-399q-29 -18 -82 -28.5t-100 -10.5h-29l-53 221h-291v-401h420q12 -46 12 -103q0 -52 -12 -104l-180 16h-240v-424l322 23l51 221h29q121 0 182 -37v-391h-1100z" />
<glyph unicode="F" horiz-adv-x="1159" d="M47 0l19 170l127 23v1011l-144 23v22q0 92 37 148h737l283 20v-405q-61 -37 -182 -37h-29l-53 225h-279v-426h436q13 -54 13 -104q0 -48 -13 -105l-180 17h-256v-389l156 -23v-23q0 -95 -37 -147h-635z" />
<glyph unicode="G" horiz-adv-x="1415" d="M59 690q0 162 51.5 296t147.5 229.5t241.5 148.5t325.5 53q215 0 418 -55v-391q-31 -18 -83.5 -28.5t-100.5 -10.5h-29l-53 235q-45 15 -119 26t-127 11q-65 0 -106 -6q-13 -3 -32.5 -23.5t-41.5 -63.5t-41.5 -99.5t-32 -141.5t-12.5 -180q0 -493 317 -493q62 0 111 12 v293l-135 22v23q0 94 35 147h550l-18 -170l-80 -22v-502l-41 -20l-160 57q-134 -57 -294 -57q-312 0 -501.5 192.5t-189.5 517.5z" />
<glyph unicode="H" horiz-adv-x="1556" d="M47 0l19 170l127 23v1011l-144 23v22q0 92 37 148h610l-18 -170l-115 -23v-393h430v393l-131 23v22q0 96 37 148h610l-18 -170l-127 -23v-1011l141 -23v-23q0 -94 -35 -147h-610l17 170l116 23v411h-430v-411l131 -23v-23q0 -91 -37 -147h-610z" />
<glyph unicode="I" horiz-adv-x="755" d="M47 0l19 170l127 23v1011l-144 23v22q0 92 37 148h623l-19 -170l-127 -23v-1011l142 -23v-23q0 -94 -35 -147h-623z" />
<glyph unicode="J" horiz-adv-x="733" d="M43 1227v22q0 87 35 148h624l-18 -170l-125 -23v-1061q0 -100 -27 -171.5t-94 -149.5l-233 -273q-102 10 -139 68l124 365v1222z" />
<glyph unicode="K" horiz-adv-x="1400" d="M47 0l19 170l127 23v1011l-144 23v22q0 92 37 148h610l-18 -170l-115 -23v-495h17l411 495l-141 23v22q0 93 39 148h512l-19 -170l-98 -23l-326 -342l414 -788q-44 -43 -116 -73t-144 -36l-434 606l-115 -122v-256l121 -23v-23q0 -94 -35 -147h-602z" />
<glyph unicode="L" horiz-adv-x="1165" d="M47 0l19 168l129 22v1014l-144 23v22q0 95 35 148h635l-16 -170l-142 -23v-1020q138 12 283 21q48 231 53 256h29q47 0 100 -10.5t82 -28.5v-422h-1063z" />
<glyph unicode="M" horiz-adv-x="1896" d="M20 0l17 170l129 23l55 1011l-143 23v22q0 95 35 148h520l328 -867l311 867h559l-19 -170l-126 -23l36 -1011l144 -23v-23q0 -95 -37 -147h-615l19 170l143 23l-26 753h-19l-360 -946l-166 -20l-361 966h-16l-35 -753l160 -23v-23q0 -92 -39 -147h-494z" />
<glyph unicode="N" horiz-adv-x="1513" d="M47 0l19 170l124 23q13 674 21 1011l-143 23v22q0 98 36 148h463l525 -815h16v622l-166 23v22q0 95 35 148h506l-19 -170l-112 -23l-19 -1204l-225 -20l-653 956h-17v-743l162 -23v-23q0 -94 -37 -147h-516z" />
<glyph unicode="O" horiz-adv-x="1466" d="M59 698q0 163 53 299t144.5 227.5t215.5 142t265 50.5q140 0 262 -50t213 -140.5t143 -227t52 -301.5q0 -164 -53.5 -301t-145.5 -227.5t-215.5 -140t-263.5 -49.5q-139 0 -261 50t-213 141t-143.5 227.5t-52.5 299.5zM465 698q0 -148 19.5 -248.5t57.5 -154t85 -75 t112 -21.5q61 0 106.5 23t82 77.5t55 154.5t18.5 244q0 121 -14 210.5t-37 144.5t-59.5 88t-75 45t-88.5 12q-48 0 -85.5 -13t-71.5 -46.5t-56.5 -89t-35.5 -144t-13 -207.5z" />
<glyph unicode="P" horiz-adv-x="1253" d="M47 0l19 170l127 23v1011l-144 23v22q0 92 37 148h598q254 0 385 -103.5t131 -302.5q0 -182 -121.5 -299t-376.5 -145l-139 -15v-339l150 -23v-23q0 -95 -37 -147h-629zM563 715l176 10q40 34 63 102.5t23 153.5q0 225 -166 225h-96v-491z" />
<glyph unicode="Q" horiz-adv-x="1466" d="M59 698q0 163 53 299t144.5 227.5t215.5 142t265 50.5q139 0 261 -50t213 -140.5t143.5 -227.5t52.5 -301q0 -229 -102.5 -398t-276.5 -251v-14l295 -301q-35 -43 -104.5 -76.5t-131.5 -38.5l-460 371q-117 16 -219 70.5t-180.5 142t-123.5 215.5t-45 280zM465 698 q0 -148 19.5 -248.5t57.5 -154t85 -75t112 -21.5q61 0 106.5 23t82 77.5t55 154.5t18.5 244q0 121 -14 210.5t-37 144.5t-59.5 88t-75 45t-88.5 12q-48 0 -85.5 -13t-71.5 -46.5t-56.5 -89t-35.5 -144t-13 -207.5z" />
<glyph unicode="R" horiz-adv-x="1316" d="M47 0l19 170l127 23v1011l-144 23v22q0 92 37 148h616q252 0 382 -102.5t130 -297.5q0 -111 -56 -200t-157 -133l308 -590q-49 -45 -119 -74t-141 -35l-408 584l-82 -10v-346l123 -23v-23q0 -94 -37 -147h-598zM559 717l178 8q49 33 77 101.5t28 152.5q0 227 -164 227 h-119v-489z" />
<glyph unicode="S" horiz-adv-x="1120" d="M82 969q0 192 149.5 320t411.5 128q185 0 350 -43v-344q-61 -37 -182 -37h-29l-51 191q-58 22 -151 22q-69 0 -107 -12q-15 -5 -30 -35.5t-15 -68.5q0 -39 21 -71.5t56 -57t80.5 -48t96 -47t101 -50.5t96 -63.5t80.5 -80.5t56 -106t21 -136q0 -200 -149 -325t-393 -125 q-211 0 -398 71v342q31 18 84 28.5t101 10.5h26l51 -207q68 -35 174 -35q79 0 117 13q13 6 28 37.5t15 72.5q0 56 -33.5 100t-87.5 74.5t-119 60.5t-130 66t-119 80.5t-87.5 115t-33.5 159.5z" />
<glyph unicode="T" horiz-adv-x="1275" d="M43 1036v361h899l311 20l-45 -381q-67 -39 -168 -39h-26l-45 213q-17 -1 -53.5 -2t-61.5 -2t-33 -2v-1014l144 -22v-23q0 -96 -37 -145h-621l17 168l129 22v998q-148 -6 -150 -6l-55 -185h-39q-102 0 -166 39z" />
<glyph unicode="U" horiz-adv-x="1474" d="M57 1227v22q0 92 37 148h598l-16 -170l-133 -23v-782q0 -109 62 -156t196 -47q126 0 191 48t65 155v782l-152 23v22q0 92 37 148h475l-18 -170l-99 -23v-739q0 -232 -145.5 -358.5t-419.5 -126.5q-273 0 -417 128.5t-144 356.5v739z" />
<glyph unicode="V" horiz-adv-x="1384" d="M14 1227v22q0 95 37 148h606l-18 -170l-137 -23l252 -780h18l252 780l-139 23v22q0 98 37 148h452l-16 -170l-72 -23l-434 -1204l-322 -20l-430 1224z" />
<glyph unicode="W" horiz-adv-x="2160" d="M37 1227v22q0 95 35 148h598l-17 -170l-133 -23l209 -786h16l213 786l-131 23v22q0 96 37 148h621l-19 -170l-118 -23l211 -786h18l209 786l-137 23v22q0 96 34 148h453l-18 -170l-80 -23l-383 -1204l-322 -20l-243 870h-19l-242 -850l-321 -20l-375 1224z" />
<glyph unicode="X" horiz-adv-x="1409" d="M29 0l16 170l82 23l354 507l-338 504l-96 23v22q0 95 35 148h637l-17 -170l-120 -23l204 -340l199 340l-131 23v22q0 96 37 148h473l-16 -170l-82 -23l-340 -499l360 -512l96 -23v-23q0 -92 -36 -147h-644l17 170l125 23l-223 350l-213 -350l135 -23v-23q0 -94 -35 -147 h-479z" />
<glyph unicode="Y" horiz-adv-x="1243" d="M6 1227v22q0 95 37 148h596l-18 -170l-136 -23l197 -450h18l199 450l-135 23v22q0 95 35 148h440l-18 -170l-70 -23l-344 -649v-362l143 -23v-23q0 -91 -37 -147h-622l18 170l127 23v360l-344 651z" />
<glyph unicode="Z" horiz-adv-x="1296" d="M88 0v166l649 1034h-354l-51 -258h-27q-48 0 -100.5 10.5t-83.5 28.5v436l282 -20h783v-166l-694 -1047l440 23l53 260h29q47 0 100 -10.5t82 -28.5v-428h-1108z" />
<glyph unicode="[" horiz-adv-x="700" d="M141 -291v1708h529l-29 -186l-178 -10v-1315l207 -10l-29 -187h-500z" />
<glyph unicode="\" horiz-adv-x="770" d="M12 1440q29 26 96 47.5t111 21.5q223 -641 537 -1552q-29 -26 -97 -48t-110 -22q-224 642 -537 1553z" />
<glyph unicode="]" horiz-adv-x="700" d="M31 -291l28 187l179 10v1315l-207 10l28 186h500v-1708h-528z" />
<glyph unicode="^" horiz-adv-x="1009" d="M39 498l326 745h278l328 -745q-16 -13 -63.5 -22t-86.5 -9l-325 467l-314 -467q-40 0 -81.5 9t-61.5 22z" />
<glyph unicode="_" d="M0 -98h1024v-283h-1024v283z" />
<glyph unicode="`" d="M285 1495h381l69 -354q-75 -33 -141 -33z" />
<glyph unicode="a" horiz-adv-x="1042" d="M45 233q0 121 66.5 187t224.5 90l235 35v182q-219 -37 -299 -37q-90 0 -129 34.5t-39 113.5q0 72 35 159h654q63 -53 87.5 -123.5t24.5 -173.5l-10 -489q27 -21 70 -21q14 0 39 5v-52q-18 -79 -67 -121t-140 -42q-121 0 -199 90q-91 -51 -151 -70.5t-119 -19.5 q-130 0 -206.5 64.5t-76.5 188.5zM362 272q0 -110 105 -110q50 0 104 16v236l-186 -47q-23 -44 -23 -95z" />
<glyph unicode="b" horiz-adv-x="1185" d="M37 1315v112l452 68v-575h13q90 98 231 98q174 0 284.5 -124.5t110.5 -352.5q0 -252 -156.5 -406.5t-400.5 -154.5q-249 0 -419 94v1173l-37 15q-60 23 -78 53zM489 209q62 -16 144 -16q18 0 40 21t43 59t35.5 101t14.5 136q0 266 -166 266q-54 0 -111 -31v-536z" />
<glyph unicode="c" horiz-adv-x="894" d="M57 479q0 128 41.5 231.5t114 170t169 102t208.5 35.5q111 0 229 -27q0 -136 -20 -266q-141 31 -281 31q-33 0 -66.5 -72.5t-33.5 -183.5q0 -127 58.5 -194.5t162.5 -67.5q113 0 188 57l17 -133q-38 -85 -119 -133.5t-199 -48.5q-99 0 -184 33t-148.5 95t-100 157.5 t-36.5 213.5z" />
<glyph unicode="d" horiz-adv-x="1181" d="M57 469q0 124 41 228t112 174t166.5 108.5t203.5 38.5q73 0 114 -8v237l-35 15q-63 26 -77 53v112l452 68v-1317l123 -22v-11q0 -89 -37 -145l-397 -20l14 135h-12q-61 -74 -121 -104.5t-141 -30.5q-177 0 -291.5 130.5t-114.5 358.5zM418 487q0 -266 166 -266 q53 0 110 31v539q-72 14 -143 14q-16 0 -37.5 -20.5t-43.5 -57.5t-37 -100.5t-15 -139.5z" />
<glyph unicode="e" horiz-adv-x="1034" d="M57 485q0 230 144 381.5t352 151.5q194 0 308 -103t114 -297q0 -59 -12 -137h-551q0 -117 71 -185.5t211 -68.5q153 0 246 74l16 -133q-112 -188 -395 -188q-220 0 -362 139.5t-142 365.5zM412 608l266 19v47q0 85 -40 127.5t-110 42.5q-30 0 -45 -6q-13 -3 -27.5 -28.5 t-27.5 -80t-16 -121.5z" />
<glyph unicode="f" horiz-adv-x="755" d="M41 0l20 156l115 22v629l-39 12q-64 18 -84 47v131h123v23q0 42 10.5 91t31.5 103t56.5 103.5t80.5 89.5t109 64t138 24q103 0 168 -35l-22 -229q-63 8 -142 8q-76 0 -121 -10q-12 -3 -12 -31q0 -19 10 -88t13 -113h233q8 -44 8 -96q0 -47 -8 -94h-215v-629l150 -22v-11 q0 -89 -37 -145h-586z" />
<glyph unicode="g" horiz-adv-x="1040" d="M27 -270q0 46 27 84.5t116 105.5v14q-109 59 -109 181q0 69 38 127t128 116q-75 42 -116 115.5t-41 171.5q0 165 112.5 269t294.5 104q98 0 176 -21h344v-172q-38 -30 -118 -30v-13q45 -55 45 -149q0 -151 -113.5 -248.5t-300.5 -97.5q-81 0 -148 18q-23 -12 -36 -31.5 t-13 -40.5q0 -20 15 -38h321q348 0 348 -269q0 -102 -74 -188t-210 -137.5t-305 -51.5q-199 0 -290 45.5t-91 135.5zM295 -182q0 -40 40.5 -59t151.5 -19q63 0 133.5 13t104.5 30q8 16 8 43q0 34 -33.5 51.5t-115.5 20.5l-258 10q-31 -53 -31 -90zM385 655q0 -196 123 -196 q21 0 45 6q53 14 53 184q0 195 -123 195q-29 0 -45 -6q-12 -4 -23 -19t-20.5 -58t-9.5 -106z" />
<glyph unicode="h" horiz-adv-x="1239" d="M29 0l20 156l115 22v1069l-37 15q-53 17 -78 53v112l453 68v-602h12q77 71 141.5 98t145.5 27q143 0 219 -73.5t76 -219.5v-547l121 -22v-11q0 -90 -39 -145h-512l14 156l78 22v547q-49 35 -119 35t-137 -31v-551l86 -22v-11q0 -89 -37 -145h-522z" />
<glyph unicode="i" horiz-adv-x="663" d="M41 0l20 156l115 22v598l-37 15q-35 13 -51 24.5t-27 30.5v110l453 68v-846l131 -22v-11q0 -89 -37 -145h-567zM156 1311q0 78 50.5 123t135.5 45q84 0 133 -45t49 -123q0 -73 -48 -119.5t-134 -46.5q-87 0 -136.5 46.5t-49.5 119.5z" />
<glyph unicode="j" horiz-adv-x="616" d="M35 846v110l452 68v-879q0 -118 -21 -186t-83 -147l-211 -263q-79 0 -127 48l105 383v796l-37 15q-59 23 -78 55zM129 1311q0 78 50.5 123t135.5 45q82 0 131.5 -45.5t49.5 -122.5q0 -73 -48 -119.5t-133 -46.5q-88 0 -137 46.5t-49 119.5z" />
<glyph unicode="k" horiz-adv-x="1161" d="M29 0l20 156l115 22v1067l-35 15q-38 15 -54 25.5t-26 29.5v112l455 68v-1006h12l248 328l-127 23v10q0 91 37 147h473l-19 -157l-98 -23l-184 -213l270 -553q-37 -34 -99.5 -58.5t-117.5 -29.5l-311 369l-84 -86v-246h-475z" />
<glyph unicode="l" horiz-adv-x="651" d="M29 0l20 156l115 22v1069l-37 15q-55 20 -78 53v112l453 68v-1317l123 -22v-11q0 -89 -37 -145h-559z" />
<glyph unicode="m" horiz-adv-x="1806" d="M41 0l20 156l115 22v598l-37 15q-35 13 -51 24.5t-27 30.5v110l418 68l23 -133h12q141 127 299 127q187 0 248 -135q82 76 156 105.5t159 29.5q134 0 210.5 -73t76.5 -220v-547l119 -22v-11q0 -84 -35 -145h-510l16 156l72 22v547q-41 35 -111 35q-67 0 -127 -31v-551 l80 -22v-11q0 -93 -34 -145h-471l14 156l74 22v547q-41 35 -109 35q-67 0 -127 -31v-551l82 -22v-11q0 -90 -39 -145h-516z" />
<glyph unicode="n" horiz-adv-x="1255" d="M41 0l20 156l115 22v598l-37 15q-35 13 -51 24.5t-27 30.5v110l418 68l23 -133h12q85 72 152.5 99.5t148.5 27.5q144 0 220.5 -74t76.5 -219v-547l117 -22v-11q0 -89 -37 -145h-512l14 156l78 22v547q-49 35 -119 35q-68 0 -139 -31v-551l88 -22v-11q0 -90 -39 -145h-522 z" />
<glyph unicode="o" horiz-adv-x="1163" d="M57 498q0 224 150 372t379 148q230 0 375 -139.5t145 -376.5q0 -227 -151 -374.5t-377 -147.5q-232 0 -376.5 141t-144.5 377zM420 500q0 -171 41.5 -243.5t130.5 -72.5q78 0 114.5 71t36.5 245q0 171 -43 242t-129 71q-79 0 -115 -71t-36 -242z" />
<glyph unicode="p" horiz-adv-x="1196" d="M35 -430l16 156l109 22v1028l-35 15q-61 22 -78 55v110l418 68l20 -117h13q57 62 115.5 86.5t131.5 24.5q80 0 149.5 -28.5t125 -85t87.5 -150t32 -213.5q0 -250 -152.5 -405.5t-384.5 -155.5q-38 0 -102 12v-244l139 -22v-11q0 -84 -35 -145h-569zM500 209 q66 -16 145 -16q16 0 37.5 21t43 58.5t36 100.5t14.5 137q0 266 -164 266q-55 0 -112 -31v-536z" />
<glyph unicode="q" horiz-adv-x="1175" d="M57 469q0 124 41.5 228.5t113 174t166 108t200.5 38.5q115 0 188 -33l213 96l55 -12v-1321l115 -22v-11q0 -92 -35 -145h-569l20 156l129 22v324h-12q-52 -54 -102.5 -73t-116.5 -19q-179 0 -292.5 131.5t-113.5 357.5zM418 487q0 -266 166 -266q53 0 110 31v539 q-65 14 -143 14q-15 0 -36.5 -20t-43.5 -56.5t-37.5 -101t-15.5 -140.5z" />
<glyph unicode="r" horiz-adv-x="845" d="M41 0l20 156l115 22v598l-37 15q-35 13 -51 24.5t-27 30.5v110l418 68l23 -188h12q86 116 125 149t96 33q41 0 76 -14l14 -312q-111 -25 -311 -35v-479l150 -22v-11q0 -89 -37 -145h-586z" />
<glyph unicode="s" horiz-adv-x="882" d="M68 678q0 142 117.5 241t318.5 99q71 0 151 -12t129 -31v-246q-21 -13 -65.5 -21t-83.5 -8h-23l-24 115q-44 21 -109 21q-28 0 -53 -5q-11 -2 -22 -21t-11 -46q0 -29 23.5 -52t61.5 -41.5t84 -38t92 -46t84 -60.5t61.5 -87t23.5 -120q0 -148 -123.5 -243.5t-312.5 -95.5 q-162 0 -301 49v241q22 12 67 19.5t83 7.5h24l23 -113q49 -22 118 -22q40 0 64 4q11 4 23 23t12 47q0 32 -24 57.5t-62 44.5t-84 38t-92 44.5t-84 58t-62 83.5t-24 116z" />
<glyph unicode="t" horiz-adv-x="743" d="M41 840v43q52 99 166.5 187.5t243.5 117.5h24v-191h213q12 -49 12 -96q0 -41 -12 -94h-213v-524q0 -32 19 -46t63 -14q77 0 133 35l19 -108q-45 -82 -122.5 -126t-172.5 -44q-139 0 -209 71t-70 205v551z" />
<glyph unicode="u" horiz-adv-x="1243" d="M39 846v110l455 68v-752q42 -34 118 -34q65 0 133 30v551l-118 23v10q0 84 35 145h454l-31 -190v-629l125 -22v-11q0 -90 -39 -145l-403 -20l12 141h-12q-87 -75 -157.5 -108t-159.5 -33q-141 0 -219 73t-78 219v504l-35 15q-37 15 -53 26t-27 29z" />
<glyph unicode="v" horiz-adv-x="1026" d="M-10 842v10q0 89 37 145h505l-14 -155l-86 -23l137 -459h13l141 459l-96 23v10q0 89 37 145h391l-19 -155l-65 -23l-307 -819l-291 -20l-307 839z" />
<glyph unicode="w" horiz-adv-x="1570" d="M-6 842v10q0 90 39 145h491l-14 -155l-82 -23l123 -440h12l131 440l-88 23v10q0 90 39 145h459l-21 -155l-75 -23l127 -440h12l125 440l-88 23v10q0 89 37 145h368l-20 -155l-64 -23l-286 -819l-267 -20l-164 544h-12l-158 -524l-264 -20l-284 839z" />
<glyph unicode="x" horiz-adv-x="1079" d="M12 0l21 156l63 22l223 307l-233 334l-74 23v10q0 90 39 145h520l-20 -155l-74 -23l129 -201l121 201l-84 23v10q0 89 37 145h383l-21 -155l-65 -23l-219 -303l239 -338l74 -22v-11q0 -89 -37 -145h-518l14 156l76 22l-131 207l-127 -207l82 -22v-11q0 -89 -37 -145h-381 z" />
<glyph unicode="y" horiz-adv-x="1034" d="M-2 842v10q0 89 37 145h504l-17 -155l-86 -23l127 -487h12l154 487l-96 23v10q0 89 37 145h393l-19 -155l-65 -23l-414 -1085l97 -29v-10q0 -82 -41 -146q-277 0 -484 45l49 150l136 8l122 260l-98 11l-274 796z" />
<glyph unicode="z" horiz-adv-x="931" d="M43 0v117l461 596h-262l-25 -129h-24q-85 0 -130 28v385h822v-116l-488 -596h305l25 129h23q81 0 131 -29v-385h-838z" />
<glyph unicode="{" horiz-adv-x="679" d="M82 469v190q99 0 137.5 21.5t38.5 75.5q0 34 -25 80.5t-55 88t-55 101.5t-25 117q0 145 136 220t378 75q0 -98 -24 -183l-166 -20q-16 -29 -16 -70q0 -35 25 -88t55.5 -100.5t55.5 -106.5t25 -104q0 -72 -58.5 -123.5t-166.5 -71.5v-18q225 -48 225 -195 q0 -45 -25 -103.5t-55.5 -105t-55.5 -99.5t-25 -89q0 -35 14 -70l192 -20q0 -101 -24 -182q-223 0 -356.5 76t-133.5 217q0 59 25 120.5t55 103.5t55 87t25 76q0 58 -37.5 79t-138.5 21z" />
<glyph unicode="|" horiz-adv-x="614" d="M152 -451v1946q82 16 155 16q78 0 156 -16v-1946q-78 -16 -156 -16q-73 0 -155 16z" />
<glyph unicode="}" horiz-adv-x="679" d="M68 -311q0 97 24 182l166 20q16 29 16 70q0 35 -25 88t-55.5 100.5t-55.5 106.5t-25 104q0 72 58.5 123.5t166.5 71.5v18q-225 48 -225 195q0 45 25 103.5t55.5 105t55.5 99.5t25 89q0 35 -14 70l-192 20q0 102 24 183q223 0 356.5 -76t133.5 -217q0 -59 -25 -120.5 t-55 -103.5t-55 -87.5t-25 -75.5q0 -58 38 -79.5t138 -21.5v-190q-100 0 -138 -21t-38 -75q0 -34 25 -80.5t55 -88t55 -101.5t25 -117q0 -145 -136 -220t-378 -75z" />
<glyph unicode="~" horiz-adv-x="1009" d="M59 350q53 154 95.5 235t81.5 110.5t94 29.5q56 0 183.5 -55.5t166.5 -55.5q38 0 65 25t86 115l119 -41q-55 -154 -97 -234.5t-80.5 -110.5t-90.5 -30q-55 0 -185.5 55.5t-168.5 55.5q-36 0 -65.5 -28t-84.5 -112z" />
<glyph unicode="&#xa1;" horiz-adv-x="679" d="M131 -420l105 955h206l105 -934q-151 -21 -416 -21zM158 840q0 80 48 129t134 49q88 0 135 -48.5t47 -129.5q0 -85 -48.5 -133t-133.5 -48q-84 0 -133 48.5t-49 132.5z" />
<glyph unicode="&#xa2;" horiz-adv-x="1140" d="M162 473q0 235 143 376.5t367 141.5l76 365q18 6 47 6q41 0 67 -16l-76 -361q91 -10 142 -22q0 -71 -19 -252q-61 14 -157 25.5t-152 11.5q-8 0 -19.5 -8.5t-26 -28.5t-27 -47.5t-21 -71.5t-8.5 -94q0 -125 62.5 -189.5t170.5 -64.5q51 0 110.5 19t94.5 44l16 -131 q-42 -79 -130 -124.5t-201 -45.5h-35l-74 -356q-18 -6 -47 -6q-47 0 -68 16l76 365q-141 43 -226 160.5t-85 287.5z" />
<glyph unicode="&#xa3;" horiz-adv-x="1140" d="M98 557q0 38 8 59h216q-3 8 -25 61.5t-31 82.5h-160q-8 24 -8 59q0 39 8 60h119q-20 82 -20 141q0 77 30 147.5t85 126.5t142.5 89.5t194.5 33.5q172 0 267.5 -70t95.5 -184q0 -85 -49.5 -142.5t-124.5 -66.5q-63 11 -102 44.5t-39 86.5q0 48 31 77.5t91 29.5 q-8 32 -51.5 53t-120.5 21q-39 0 -80 -9q-18 -4 -34.5 -39.5t-16.5 -95.5q0 -74 62 -243h276q10 -27 10 -58q0 -28 -10 -61h-231q31 -85 47 -144h184q10 -27 10 -57q0 -28 -10 -61h-164v-9q0 -65 -30 -116.5t-105 -112.5v-10l258 -12l45 147h29q39 0 86.5 -10.5t69.5 -22.5 l-27 -372l-696 53l-183 -53q-28 65 -28 157q70 76 221 113q43 55 43 127q0 46 -21 121h-254q-8 24 -8 59z" />
<glyph unicode="&#xa4;" horiz-adv-x="1136" d="M57 158l138 141q-74 104 -74 252q0 150 74 260l-138 141q53 95 146 150l149 -156q91 49 217 49q119 0 217 -49l150 156q90 -53 147 -150l-139 -141q74 -107 74 -252q0 -151 -72 -260l137 -141q-57 -97 -147 -150l-150 154q-96 -47 -217 -47q-130 0 -217 47l-149 -154 q-93 55 -146 150zM393 557q0 -113 46.5 -158t131.5 -45q86 0 131.5 46.5t45.5 154.5q0 60 -14.5 101.5t-41.5 62.5t-55.5 29t-65.5 8q-82 0 -130 -43t-48 -156z" />
<glyph unicode="&#xa5;" horiz-adv-x="1140" d="M2 1227v22q0 93 39 148h541l-19 -170l-104 -23l170 -448h16l184 448l-110 23v22q0 92 37 148h397l-18 -170l-72 -23l-236 -481h179q10 -27 10 -59q0 -30 -10 -60h-236l-22 -49v-94h258q10 -27 10 -60q0 -29 -10 -59h-258v-149l145 -23v-23q0 -92 -39 -147h-604l16 170 l127 23v149h-256q-8 21 -8 59q0 36 8 60h256v94l-24 49h-232q-8 21 -8 60q0 35 8 59h174l-231 481z" />
<glyph unicode="&#xa6;" horiz-adv-x="614" d="M152 356q87 17 155 17q73 0 156 -17v-807q-78 -16 -156 -16q-73 0 -155 16v807zM152 688v807q82 16 155 16q78 0 156 -16v-807q-78 -16 -156 -16q-73 0 -155 16z" />
<glyph unicode="&#xa7;" horiz-adv-x="1038" d="M106 309q0 137 23 234l207 186q-164 132 -164 324q0 68 27.5 132.5t77.5 116.5t129 83.5t174 31.5q160 0 254 -68.5t94 -177.5q0 -84 -49 -140.5t-123 -65.5q-62 11 -101 44t-39 85q0 48 30.5 78t90.5 30q-6 26 -53 46t-104 20q-46 0 -70 -8q-15 -4 -34 -47t-19 -95 q0 -69 40 -122t144 -109.5t293 -122.5q0 -121 -23 -234l-209 -188q166 -131 166 -322q0 -68 -27.5 -132.5t-77.5 -116.5t-128.5 -83.5t-173.5 -31.5q-162 0 -256 68.5t-94 177.5q0 84 49 141t123 66q62 -11 100.5 -44t38.5 -85q0 -49 -30.5 -79t-90.5 -30q8 -27 55 -46.5 t105 -19.5q42 0 69 9q14 4 34 47t20 94q0 69 -41 122.5t-145 109.5t-292 122zM346 526q139 -54 229 -104l117 125q-151 59 -229 102z" />
<glyph unicode="&#xa8;" d="M158 1278q0 75 41 118.5t110 43.5q68 0 108 -43.5t40 -118.5q0 -73 -39 -117.5t-109 -44.5q-72 0 -111.5 44.5t-39.5 117.5zM567 1278q0 75 41.5 118.5t110.5 43.5q68 0 107.5 -43.5t39.5 -118.5q0 -73 -38.5 -117.5t-108.5 -44.5q-72 0 -112 45t-40 117z" />
<glyph unicode="&#xa9;" horiz-adv-x="1519" d="M55 698q0 211 89 374.5t250 254t368 90.5q206 0 365.5 -89.5t248 -253.5t88.5 -376q0 -210 -89.5 -373.5t-250 -254t-366.5 -90.5q-314 0 -508.5 197.5t-194.5 520.5zM182 696q0 -275 154 -436.5t422 -161.5q269 0 424 162.5t155 437.5q0 276 -153.5 438t-421.5 162 q-269 0 -424.5 -162t-155.5 -440zM436 690q0 164 107.5 264.5t277.5 100.5q94 0 191 -23v-209q-34 -18 -99 -18h-20l-23 115q-34 12 -73 12q-33 0 -49 -4q-9 -2 -21.5 -18.5t-25 -44t-21 -73t-8.5 -96.5q0 -113 42.5 -170t119.5 -57q25 0 49 6l22 143h21q65 0 98 -20v-207 q-87 -49 -221 -49q-159 0 -263 93.5t-104 254.5z" />
<glyph unicode="&#xaa;" horiz-adv-x="788" d="M45 858q0 86 50 133t169 64l174 24v123q-159 -24 -221 -24q-69 0 -98 24t-29 80q0 60 25 115h491q46 -38 65 -88.5t19 -120.5l-8 -346q29 -15 80 -15v-36q-26 -115 -154 -115q-94 0 -147 61q-112 -61 -203 -61q-98 0 -155.5 46.5t-57.5 135.5zM285 885q0 -78 75 -78 q38 0 78 12v166l-137 -35q-16 -29 -16 -65z" />
<glyph unicode="&#xab;" horiz-adv-x="946" d="M23 479v51l307 373l176 -18l-144 -375l144 -389l-176 -17zM440 479v51l308 373l174 -18l-144 -375l144 -389l-174 -17z" />
<glyph unicode="&#xac;" d="M66 520v301h892v-633h-299v332h-593z" />
<glyph unicode="&#xad;" horiz-adv-x="628" d="M76 381v283h477v-283h-477z" />
<glyph unicode="&#xae;" horiz-adv-x="821" d="M55 1057q0 160 99.5 260t257.5 100t256 -99.5t98 -260.5q0 -160 -99.5 -260.5t-258.5 -100.5q-157 0 -255 99.5t-98 261.5zM127 1055q0 -135 73.5 -213t207.5 -78q135 0 210.5 78.5t75.5 214.5t-74 214.5t-208 78.5q-135 0 -210 -78.5t-75 -216.5zM250 879l4 51l31 6v242 l-33 6v8q0 30 10 43h168q66 0 101.5 -26.5t35.5 -78.5q0 -61 -49 -83l68 -144q-26 -26 -74 -26l-96 135l-23 -2v-74l29 -6v-8q0 -26 -10 -43h-162zM393 1063l45 2q23 20 23 57q0 56 -43 56h-25v-115z" />
<glyph unicode="&#xaf;" d="M258 1149v242h508v-242h-508z" />
<glyph unicode="&#xb0;" horiz-adv-x="751" d="M45 1102q0 145 91 230t245 85q146 0 236 -85t90 -226q0 -148 -93.5 -233t-244.5 -85q-144 0 -234 86.5t-90 227.5zM250 1104q0 -152 125 -152t125 150q0 151 -123 151q-127 0 -127 -149z" />
<glyph unicode="&#xb1;" horiz-adv-x="1193" d="M182 0v256h828v-256h-828zM182 594v280h271v267h286v-267h271v-280h-271v-266h-286v266h-271z" />
<glyph unicode="&#xb2;" horiz-adv-x="845" d="M68 946v217q117 73 187.5 125t109 95.5t51 77t12.5 77.5q0 68 -42 103.5t-114 35.5q-84 0 -133 -49l-57 68q100 172 315 172q156 0 247 -76.5t91 -204.5q0 -117 -73 -200t-277 -181v-14q200 16 272 16q121 0 121 -114q0 -80 -22 -148h-688z" />
<glyph unicode="&#xb3;" horiz-adv-x="845" d="M96 1079q205 28 274.5 58t69.5 92q0 52 -37.5 72t-123.5 20h-115v162h115q77 0 114 22t37 76q0 51 -35 75.5t-96 24.5q-90 0 -141 -51l-56 68q97 170 316 170q148 0 233.5 -66t85.5 -174q0 -74 -39.5 -126.5t-109.5 -74.5v-16q166 -37 166 -194q0 -274 -633 -291 q-9 25 -17 72.5t-8 80.5z" />
<glyph unicode="&#xb4;" d="M287 1141l69 354h383l-311 -387q-66 0 -141 33z" />
<glyph unicode="&#xb6;" horiz-adv-x="1077" d="M96 950q0 205 125 326t365 121h465l-19 -160l-117 -23v-1040q0 -261 -114.5 -389.5t-315.5 -128.5q-149 0 -238 70t-89 184q0 80 48 139t124 68q67 -10 103 -44.5t36 -80.5q0 -51 -32 -79.5t-89 -31.5q28 -57 127 -57q184 0 184 264v449l-161 10q-195 12 -298.5 113 t-103.5 290z" />
<glyph unicode="&#xb7;" horiz-adv-x="487" d="M61 496q0 92 48.5 144t136.5 52q84 0 133 -52t49 -144q0 -86 -48.5 -139.5t-133.5 -53.5q-90 0 -137.5 52.5t-47.5 140.5z" />
<glyph unicode="&#xb8;" d="M330 -334q151 9 151 70q0 33 -26 47t-88 14v37l79 100h95l-13 -36q78 -6 121 -45.5t43 -110.5q0 -90 -89 -141.5t-253 -51.5q-20 53 -20 117z" />
<glyph unicode="&#xb9;" horiz-adv-x="845" d="M96 946l13 139l196 15v581l-82 15q-63 12 -80 35v116h441v-747l170 -15v-14q0 -31 -8 -70t-21 -55h-629z" />
<glyph unicode="&#xba;" horiz-adv-x="808" d="M29 1044q0 160 105 263.5t272 103.5q166 0 270 -96t104 -273q0 -166 -107 -266t-270 -100q-171 0 -272.5 98.5t-101.5 269.5zM301 1044q0 -117 25.5 -167t85.5 -50q49 0 72.5 50.5t23.5 166.5q0 117 -27 166.5t-84 49.5q-50 0 -73 -50t-23 -166z" />
<glyph unicode="&#xbb;" horiz-adv-x="946" d="M23 123l143 375l-143 389l176 16l307 -375v-51l-307 -373zM440 123l144 375l-144 389l176 16l306 -375v-51l-306 -373z" />
<glyph unicode="&#xbc;" horiz-adv-x="2062" d="M96 496l13 139l196 14v582l-82 14q-63 12 -80 35v117h441v-748l170 -14v-14q0 -31 -8 -70t-21 -55h-629zM641 -82l573 1577q44 0 109 -21.5t96 -48.5l-573 -1577q-42 0 -109.5 22.5t-95.5 47.5zM1268 166v250l268 506q130 0 203 -31l-279 -526h201v223h264v-209h80v-35 q0 -44 -6.5 -100.5t-18.5 -77.5h-55v-166h-283v166h-374z" />
<glyph unicode="&#xbd;" horiz-adv-x="2062" d="M96 496l13 139l196 14v582l-82 14q-63 12 -80 35v117h441v-748l170 -14v-14q0 -31 -8 -70t-21 -55h-629zM641 -82l573 1577q44 0 109 -21.5t96 -48.5l-573 -1577q-42 0 -109.5 22.5t-95.5 47.5zM1282 0v217q117 73 187.5 125t109 95.5t51 77t12.5 77.5q0 68 -41.5 103.5 t-113.5 35.5q-84 0 -133 -49l-58 68q100 172 316 172q156 0 247 -76.5t91 -204.5q0 -117 -73.5 -200t-277.5 -181v-14q200 16 273 16q121 0 121 -115q0 -76 -23 -147h-688z" />
<glyph unicode="&#xbe;" horiz-adv-x="2062" d="M96 629q141 19 212.5 37.5t101.5 44t30 67.5q0 52 -37.5 72t-123.5 20h-115v162h115q77 0 114 22t37 76q0 51 -35 76t-96 25q-90 0 -141 -51l-56 67q97 170 316 170q148 0 233.5 -65.5t85.5 -173.5q0 -74 -39.5 -126.5t-109.5 -74.5v-16q166 -37 166 -195 q0 -274 -633 -291q-9 25 -17 73t-8 81zM641 -82l573 1577q44 0 109 -21.5t96 -48.5l-573 -1577q-42 0 -109.5 22.5t-95.5 47.5zM1268 166v250l268 506q130 0 203 -31l-279 -526h201v223h264v-209h80v-35q0 -44 -6.5 -100.5t-18.5 -77.5h-55v-166h-283v166h-374z" />
<glyph unicode="&#xbf;" horiz-adv-x="976" d="M74 -61q0 295 385 368l35 232h137l166 -195q-2 -26 -16 -61.5t-33 -57.5q-299 -38 -299 -223q0 -79 49.5 -126.5t134.5 -47.5q106 0 172 66l86 -64q-112 -250 -412 -250q-184 0 -294.5 98.5t-110.5 260.5zM387 840q0 80 48.5 129t133.5 49q89 0 136 -48.5t47 -129.5 q0 -85 -48.5 -133t-134.5 -48q-83 0 -132.5 48.5t-49.5 132.5z" />
<glyph unicode="&#xc0;" horiz-adv-x="1347" d="M-47 0l18 170l84 23l451 1204l342 20l426 -1224l98 -23v-23q0 -94 -35 -147h-618l16 170l152 23l-101 301l-380 -25l-93 -276l162 -23v-23q0 -91 -37 -147h-485zM338 1720h377l84 -235q-77 -39 -174 -39zM465 653h272l-125 387h-18z" />
<glyph unicode="&#xc1;" horiz-adv-x="1347" d="M-47 0l18 170l84 23l451 1204l342 20l426 -1224l98 -23v-23q0 -94 -35 -147h-618l16 170l152 23l-101 301l-380 -25l-93 -276l162 -23v-23q0 -91 -37 -147h-485zM465 653h272l-125 387h-18zM557 1485l84 235h379l-289 -274q-97 0 -174 39z" />
<glyph unicode="&#xc2;" horiz-adv-x="1347" d="M-47 0l18 170l84 23l451 1204l342 20l426 -1224l98 -23v-23q0 -94 -35 -147h-618l16 170l152 23l-101 301l-380 -25l-93 -276l162 -23v-23q0 -91 -37 -147h-485zM375 1495l172 227h258l172 -227q-19 -21 -47 -35t-53 -14l-211 115l-193 -115q-52 3 -98 49zM465 653h272 l-125 387h-18z" />
<glyph unicode="&#xc3;" horiz-adv-x="1347" d="M-47 0l18 170l84 23l451 1204l342 20l426 -1224l98 -23v-23q0 -94 -35 -147h-618l16 170l152 23l-101 301l-380 -25l-93 -276l162 -23v-23q0 -91 -37 -147h-485zM330 1489q44 110 78 164t61.5 69t71.5 15q41 0 145 -41t129 -41q26 0 47.5 18.5t63.5 79.5l96 -51 q-44 -108 -77 -162.5t-62 -72t-72 -17.5q-41 0 -147.5 42t-128.5 42q-26 0 -46.5 -17t-62.5 -77zM465 653h272l-125 387h-18z" />
<glyph unicode="&#xc4;" horiz-adv-x="1347" d="M-47 0l18 170l84 23l451 1204l342 20l426 -1224l98 -23v-23q0 -94 -35 -147h-618l16 170l152 23l-101 301l-380 -25l-93 -276l162 -23v-23q0 -91 -37 -147h-485zM350 1585q0 60 37.5 95.5t95.5 35.5q59 0 97 -35.5t38 -95.5q0 -57 -38 -94t-97 -37q-58 0 -95.5 37 t-37.5 94zM465 653h272l-125 387h-18zM731 1585q0 60 37.5 95.5t97.5 35.5q59 0 97 -35.5t38 -95.5q0 -57 -39 -94t-96 -37q-60 0 -97.5 37t-37.5 94z" />
<glyph unicode="&#xc5;" horiz-adv-x="1347" d="M-47 0l18 170l84 23l449 1200q-80 52 -80 151q0 91 65.5 144t190.5 53q122 0 188 -53.5t66 -143.5q0 -98 -78 -151l418 -1200l98 -23v-23q0 -94 -35 -147h-618l16 170l152 23l-101 301l-380 -25l-93 -276l162 -23v-23q0 -91 -37 -147h-485zM465 653h272l-125 387h-18z M590 1544q0 -36 23 -56t65 -20q90 0 90 78q0 74 -88 74q-90 0 -90 -76z" />
<glyph unicode="&#xc6;" horiz-adv-x="1875" d="M-47 0l18 170l105 23l352 1011l-143 23v22q0 93 39 148h1149l282 20v-399q-29 -18 -82 -28.5t-100 -10.5h-29l-53 221h-293v-401h422q12 -46 12 -103q0 -52 -12 -104l-180 16h-242v-424l322 23l53 221h29q118 0 182 -37v-391h-1092l19 170l127 23v415h-367l-135 -415 l160 -23v-23q0 -91 -37 -147h-506zM530 799h308v401h-176z" />
<glyph unicode="&#xc7;" horiz-adv-x="1282" d="M59 680q0 158 47.5 291.5t138.5 233.5t233 156t321 56q83 0 188 -12t180 -31v-416q-62 -36 -184 -36h-29l-53 258q-84 24 -182 24q-62 0 -98 -8q-13 -2 -31.5 -23.5t-40.5 -66t-40.5 -102.5t-31 -144t-12.5 -180q0 -479 330 -479q71 0 129 14l51 248h29q48 0 100.5 -10.5 t81.5 -28.5v-342q-74 -47 -192.5 -74.5t-241.5 -27.5q-146 0 -272.5 47.5t-220 135t-147 221t-53.5 296.5zM541 -334q151 9 151 70q0 33 -26 47t-88 14v37l79 100h95l-13 -36q78 -6 121 -45.5t43 -110.5q0 -90 -89 -141.5t-253 -51.5q-20 53 -20 117z" />
<glyph unicode="&#xc8;" horiz-adv-x="1239" d="M47 0l19 170l127 23v1011l-144 23v22q0 92 37 148h750l282 20v-399q-29 -18 -82 -28.5t-100 -10.5h-29l-53 221h-291v-401h420q12 -46 12 -103q0 -52 -12 -104l-180 16h-240v-424l322 23l51 221h29q121 0 182 -37v-391h-1100zM274 1720h377l84 -235q-77 -39 -174 -39z " />
<glyph unicode="&#xc9;" horiz-adv-x="1239" d="M47 0l19 170l127 23v1011l-144 23v22q0 92 37 148h750l282 20v-399q-29 -18 -82 -28.5t-100 -10.5h-29l-53 221h-291v-401h420q12 -46 12 -103q0 -52 -12 -104l-180 16h-240v-424l322 23l51 221h29q121 0 182 -37v-391h-1100zM442 1485l84 235h379l-289 -274 q-97 0 -174 39z" />
<glyph unicode="&#xca;" horiz-adv-x="1239" d="M47 0l19 170l127 23v1011l-144 23v22q0 92 37 148h750l282 20v-399q-29 -18 -82 -28.5t-100 -10.5h-29l-53 221h-291v-401h420q12 -46 12 -103q0 -52 -12 -104l-180 16h-240v-424l322 23l51 221h29q121 0 182 -37v-391h-1100zM305 1495l172 227h258l172 -227 q-19 -21 -47 -35t-53 -14l-211 115l-193 -115q-52 3 -98 49z" />
<glyph unicode="&#xcb;" horiz-adv-x="1239" d="M47 0l19 170l127 23v1011l-144 23v22q0 92 37 148h750l282 20v-399q-29 -18 -82 -28.5t-100 -10.5h-29l-53 221h-291v-401h420q12 -46 12 -103q0 -52 -12 -104l-180 16h-240v-424l322 23l51 221h29q121 0 182 -37v-391h-1100zM276 1585q0 60 38 95.5t96 35.5 q59 0 97 -35.5t38 -95.5q0 -57 -38 -94t-97 -37q-58 0 -96 37t-38 94zM657 1585q0 60 38 95.5t98 35.5q59 0 97 -35.5t38 -95.5q0 -57 -39 -94t-96 -37q-60 0 -98 37t-38 94z" />
<glyph unicode="&#xcc;" horiz-adv-x="755" d="M47 0l19 170l127 23v1011l-144 23v22q0 92 37 148h623l-19 -170l-127 -23v-1011l142 -23v-23q0 -94 -35 -147h-623zM57 1720h377l84 -235q-77 -39 -174 -39z" />
<glyph unicode="&#xcd;" horiz-adv-x="755" d="M47 0l19 170l127 23v1011l-144 23v22q0 92 37 148h623l-19 -170l-127 -23v-1011l142 -23v-23q0 -94 -35 -147h-623zM244 1485l84 235h379l-289 -274q-97 0 -174 39z" />
<glyph unicode="&#xce;" horiz-adv-x="755" d="M47 0l19 170l127 23v1011l-144 23v22q0 92 37 148h623l-19 -170l-127 -23v-1011l142 -23v-23q0 -94 -35 -147h-623zM80 1495l172 227h258l172 -227q-19 -21 -47 -35t-53 -14l-211 115l-193 -115q-52 3 -98 49z" />
<glyph unicode="&#xcf;" horiz-adv-x="755" d="M47 0l19 170l127 23v1011l-144 23v22q0 92 37 148h623l-19 -170l-127 -23v-1011l142 -23v-23q0 -94 -35 -147h-623zM84 1585q0 60 33.5 95.5t87.5 35.5q53 0 88 -35.5t35 -95.5q0 -57 -35 -94t-88 -37q-54 0 -87.5 37t-33.5 94zM430 1585q0 60 33.5 95.5t87.5 35.5 t88.5 -35.5t34.5 -95.5q0 -57 -35 -94t-88 -37q-54 0 -87.5 37t-33.5 94z" />
<glyph unicode="&#xd0;" horiz-adv-x="1462" d="M47 0l19 170l127 23v419h-99q-12 46 -12 97q0 45 12 94h99v401l-144 23v22q0 92 37 148h623q317 0 505.5 -181.5t188.5 -506.5q0 -213 -92 -374.5t-256 -248t-377 -86.5h-631zM563 203l195 -13q237 104 237 519q0 141 -22.5 239t-65.5 151.5t-96 76t-123 22.5h-125v-395 h150q10 -52 10 -94t-10 -97h-150v-409z" />
<glyph unicode="&#xd1;" horiz-adv-x="1513" d="M47 0l19 170l124 23q13 674 21 1011l-143 23v22q0 98 36 148h463l525 -815h16v622l-166 23v22q0 95 35 148h506l-19 -170l-112 -23l-19 -1204l-225 -20l-653 956h-17v-743l162 -23v-23q0 -94 -37 -147h-516zM440 1489q44 110 78 164t61.5 69t71.5 15q41 0 145.5 -41 t129.5 -41q26 0 46.5 18.5t63.5 79.5l97 -51q-44 -108 -77 -162.5t-62 -72t-72 -17.5q-41 0 -148 42t-129 42q-26 0 -45.5 -17t-62.5 -77z" />
<glyph unicode="&#xd2;" horiz-adv-x="1466" d="M59 698q0 163 53 299t144.5 227.5t215.5 142t265 50.5q140 0 262 -50t213 -140.5t143 -227t52 -301.5q0 -164 -53.5 -301t-145.5 -227.5t-215.5 -140t-263.5 -49.5q-139 0 -261 50t-213 141t-143.5 227.5t-52.5 299.5zM381 1720h377l84 -235q-77 -39 -174 -39zM465 698 q0 -148 19.5 -248.5t57.5 -154t85 -75t112 -21.5q61 0 106.5 23t82 77.5t55 154.5t18.5 244q0 121 -14 210.5t-37 144.5t-59.5 88t-75 45t-88.5 12q-48 0 -85.5 -13t-71.5 -46.5t-56.5 -89t-35.5 -144t-13 -207.5z" />
<glyph unicode="&#xd3;" horiz-adv-x="1466" d="M59 698q0 163 53 299t144.5 227.5t215.5 142t265 50.5q140 0 262 -50t213 -140.5t143 -227t52 -301.5q0 -164 -53.5 -301t-145.5 -227.5t-215.5 -140t-263.5 -49.5q-139 0 -261 50t-213 141t-143.5 227.5t-52.5 299.5zM465 698q0 -148 19.5 -248.5t57.5 -154t85 -75 t112 -21.5q61 0 106.5 23t82 77.5t55 154.5t18.5 244q0 121 -14 210.5t-37 144.5t-59.5 88t-75 45t-88.5 12q-48 0 -85.5 -13t-71.5 -46.5t-56.5 -89t-35.5 -144t-13 -207.5zM608 1485l84 235h379l-289 -274q-97 0 -174 39z" />
<glyph unicode="&#xd4;" horiz-adv-x="1466" d="M59 698q0 163 53 299t144.5 227.5t215.5 142t265 50.5q140 0 262 -50t213 -140.5t143 -227t52 -301.5q0 -164 -53.5 -301t-145.5 -227.5t-215.5 -140t-263.5 -49.5q-139 0 -261 50t-213 141t-143.5 227.5t-52.5 299.5zM430 1495l172 227h258l172 -227q-19 -21 -47 -35 t-53 -14l-211 115l-193 -115q-52 3 -98 49zM465 698q0 -148 19.5 -248.5t57.5 -154t85 -75t112 -21.5q61 0 106.5 23t82 77.5t55 154.5t18.5 244q0 121 -14 210.5t-37 144.5t-59.5 88t-75 45t-88.5 12q-48 0 -85.5 -13t-71.5 -46.5t-56.5 -89t-35.5 -144t-13 -207.5z" />
<glyph unicode="&#xd5;" horiz-adv-x="1466" d="M59 698q0 163 53 299t144.5 227.5t215.5 142t265 50.5q140 0 262 -50t213 -140.5t143 -227t52 -301.5q0 -164 -53.5 -301t-145.5 -227.5t-215.5 -140t-263.5 -49.5q-139 0 -261 50t-213 141t-143.5 227.5t-52.5 299.5zM393 1489q44 110 78 164t61.5 69t71.5 15 q41 0 145.5 -41t129.5 -41q26 0 46.5 18.5t63.5 79.5l96 -51q-44 -108 -77 -162.5t-62 -72t-72 -17.5q-41 0 -147.5 42t-128.5 42q-26 0 -46.5 -17t-62.5 -77zM465 698q0 -148 19.5 -248.5t57.5 -154t85 -75t112 -21.5q61 0 106.5 23t82 77.5t55 154.5t18.5 244 q0 121 -14 210.5t-37 144.5t-59.5 88t-75 45t-88.5 12q-48 0 -85.5 -13t-71.5 -46.5t-56.5 -89t-35.5 -144t-13 -207.5z" />
<glyph unicode="&#xd6;" horiz-adv-x="1466" d="M59 698q0 163 53 299t144.5 227.5t215.5 142t265 50.5q140 0 262 -50t213 -140.5t143 -227t52 -301.5q0 -164 -53.5 -301t-145.5 -227.5t-215.5 -140t-263.5 -49.5q-139 0 -261 50t-213 141t-143.5 227.5t-52.5 299.5zM408 1585q0 60 37.5 95.5t95.5 35.5q59 0 97 -35.5 t38 -95.5q0 -57 -38 -94t-97 -37q-58 0 -95.5 37t-37.5 94zM465 698q0 -148 19.5 -248.5t57.5 -154t85 -75t112 -21.5q61 0 106.5 23t82 77.5t55 154.5t18.5 244q0 121 -14 210.5t-37 144.5t-59.5 88t-75 45t-88.5 12q-48 0 -85.5 -13t-71.5 -46.5t-56.5 -89t-35.5 -144 t-13 -207.5zM788 1585q0 60 38 95.5t98 35.5q59 0 97 -35.5t38 -95.5q0 -57 -39 -94t-96 -37q-60 0 -98 37t-38 94z" />
<glyph unicode="&#xd7;" horiz-adv-x="1193" d="M160 264l239 240l-239 244l196 196l242 -242l240 242l198 -196l-241 -244l241 -240l-198 -198l-240 241l-242 -241z" />
<glyph unicode="&#xd8;" horiz-adv-x="1466" d="M59 698q0 163 53 299t144.5 227.5t215.5 142t265 50.5q182 0 332 -84l131 213q26 -2 51 -14.5t37 -32.5l-137 -219q120 -95 188 -244t68 -338q0 -164 -53.5 -301t-145.5 -227.5t-215.5 -140t-263.5 -49.5q-182 0 -332 81l-131 -213q-26 2 -52 15.5t-36 32.5l137 221 q-121 94 -188.5 243t-67.5 338zM465 698q0 -174 29 -290l430 692q-63 98 -197 98q-48 0 -85.5 -13t-71.5 -46.5t-56.5 -89t-35.5 -144t-13 -207.5zM543 295q61 -96 196 -96q61 0 106.5 23t82 77.5t55 154.5t18.5 244q0 183 -30 291z" />
<glyph unicode="&#xd9;" horiz-adv-x="1474" d="M57 1227v22q0 92 37 148h598l-16 -170l-133 -23v-782q0 -109 62 -156t196 -47q126 0 191 48t65 155v782l-152 23v22q0 92 37 148h475l-18 -170l-99 -23v-739q0 -232 -145.5 -358.5t-419.5 -126.5q-273 0 -417 128.5t-144 356.5v739zM451 1720h376l84 -235 q-77 -39 -174 -39z" />
<glyph unicode="&#xda;" horiz-adv-x="1474" d="M57 1227v22q0 92 37 148h598l-16 -170l-133 -23v-782q0 -109 62 -156t196 -47q126 0 191 48t65 155v782l-152 23v22q0 92 37 148h475l-18 -170l-99 -23v-739q0 -232 -145.5 -358.5t-419.5 -126.5q-273 0 -417 128.5t-144 356.5v739zM649 1485l84 235h379l-289 -274 q-97 0 -174 39z" />
<glyph unicode="&#xdb;" horiz-adv-x="1474" d="M57 1227v22q0 92 37 148h598l-16 -170l-133 -23v-782q0 -109 62 -156t196 -47q126 0 191 48t65 155v782l-152 23v22q0 92 37 148h475l-18 -170l-99 -23v-739q0 -232 -145.5 -358.5t-419.5 -126.5q-273 0 -417 128.5t-144 356.5v739zM469 1495l172 227h258l172 -227 q-19 -21 -47 -35t-53 -14l-211 115l-193 -115q-52 3 -98 49z" />
<glyph unicode="&#xdc;" horiz-adv-x="1474" d="M57 1227v22q0 92 37 148h598l-16 -170l-133 -23v-782q0 -109 62 -156t196 -47q126 0 191 48t65 155v782l-152 23v22q0 92 37 148h475l-18 -170l-99 -23v-739q0 -232 -145.5 -358.5t-419.5 -126.5q-273 0 -417 128.5t-144 356.5v739zM436 1585q0 60 37.5 95.5t95.5 35.5 q59 0 97.5 -35.5t38.5 -95.5q0 -57 -38.5 -94t-97.5 -37q-58 0 -95.5 37t-37.5 94zM817 1585q0 60 37.5 95.5t97.5 35.5q59 0 97 -35.5t38 -95.5q0 -57 -39 -94t-96 -37q-60 0 -97.5 37t-37.5 94z" />
<glyph unicode="&#xdd;" horiz-adv-x="1243" d="M6 1227v22q0 95 37 148h596l-18 -170l-136 -23l197 -450h18l199 450l-135 23v22q0 95 35 148h440l-18 -170l-70 -23l-344 -649v-362l143 -23v-23q0 -91 -37 -147h-622l18 170l127 23v360l-344 651zM549 1485l84 235h379l-289 -274q-97 0 -174 39z" />
<glyph unicode="&#xde;" horiz-adv-x="1236" d="M47 0l16 170l127 23v1011l-141 23v22q0 95 35 148h475v-262h109q246 0 381 -104.5t135 -301.5q0 -181 -121 -297t-377 -147l-127 -15v-270h-512zM559 453l164 10q98 72 98 256q0 109 -44 167t-128 58h-90v-491z" />
<glyph unicode="&#xdf;" horiz-adv-x="1187" d="M39 0l20 156l107 22v653q-79 35 -105 115l105 72v10q0 64 20 129t63.5 126t103.5 108t147.5 75.5t189.5 28.5q194 0 300 -76.5t106 -218.5q0 -51 -25.5 -103.5t-56.5 -87t-72.5 -79t-58.5 -68.5q-2 -8 -2 -26q0 -46 27 -100t66 -105t78 -104t66 -114.5t27 -119.5 q0 -134 -107.5 -223.5t-257.5 -89.5q-63 0 -102.5 8t-99.5 32q0 96 24 197q81 -49 154 -49q23 0 35 2q9 2 19.5 22t10.5 48q0 33 -23.5 73t-56.5 80t-66.5 83.5t-57 99t-23.5 112.5q0 47 23.5 99t57 97t66.5 88.5t56.5 86t23.5 76.5q0 56 -44.5 84t-149.5 28q-74 0 -133 -16 q-19 -6 -19 -57q0 -34 14.5 -156t14.5 -199v-819h-465z" />
<glyph unicode="&#xe0;" horiz-adv-x="1042" d="M45 233q0 121 66.5 187t224.5 90l235 35v182q-219 -37 -299 -37q-90 0 -129 34.5t-39 113.5q0 72 35 159h654q63 -53 87.5 -123.5t24.5 -173.5l-10 -489q27 -21 70 -21q14 0 39 5v-52q-18 -79 -67 -121t-140 -42q-121 0 -199 90q-91 -51 -151 -70.5t-119 -19.5 q-130 0 -206.5 64.5t-76.5 188.5zM158 1495h381l69 -354q-75 -33 -141 -33zM362 272q0 -110 105 -110q50 0 104 16v236l-186 -47q-23 -44 -23 -95z" />
<glyph unicode="&#xe1;" horiz-adv-x="1042" d="M45 233q0 121 66.5 187t224.5 90l235 35v182q-219 -37 -299 -37q-90 0 -129 34.5t-39 113.5q0 72 35 159h654q63 -53 87.5 -123.5t24.5 -173.5l-10 -489q27 -21 70 -21q14 0 39 5v-52q-18 -79 -67 -121t-140 -42q-121 0 -199 90q-91 -51 -151 -70.5t-119 -19.5 q-130 0 -206.5 64.5t-76.5 188.5zM362 272q0 -110 105 -110q50 0 104 16v236l-186 -47q-23 -44 -23 -95zM389 1141l70 354h383l-312 -387q-66 0 -141 33z" />
<glyph unicode="&#xe2;" horiz-adv-x="1042" d="M45 233q0 121 66.5 187t224.5 90l235 35v182q-219 -37 -299 -37q-90 0 -129 34.5t-39 113.5q0 72 35 159h654q63 -53 87.5 -123.5t24.5 -173.5l-10 -489q27 -21 70 -21q14 0 39 5v-52q-18 -79 -67 -121t-140 -42q-121 0 -199 90q-91 -51 -151 -70.5t-119 -19.5 q-130 0 -206.5 64.5t-76.5 188.5zM186 1165l187 330h272l182 -330q-22 -21 -54 -33t-60 -12l-215 180l-195 -180q-56 0 -117 45zM362 272q0 -110 105 -110q50 0 104 16v236l-186 -47q-23 -44 -23 -95z" />
<glyph unicode="&#xe3;" horiz-adv-x="1042" d="M45 233q0 121 66.5 187t224.5 90l235 35v182q-219 -37 -299 -37q-90 0 -129 34.5t-39 113.5q0 72 35 159h654q63 -53 87.5 -123.5t24.5 -173.5l-10 -489q27 -21 70 -21q14 0 39 5v-52q-18 -79 -67 -121t-140 -42q-121 0 -199 90q-91 -51 -151 -70.5t-119 -19.5 q-130 0 -206.5 64.5t-76.5 188.5zM160 1149q69 171 110.5 224.5t104.5 53.5q40 0 147 -42t133 -42t46 18.5t65 82.5l98 -53q-67 -165 -110 -219t-105 -54q-41 0 -149.5 42t-130.5 42q-27 0 -46.5 -17t-64.5 -79zM362 272q0 -110 105 -110q50 0 104 16v236l-186 -47 q-23 -44 -23 -95z" />
<glyph unicode="&#xe4;" horiz-adv-x="1042" d="M45 233q0 121 66.5 187t224.5 90l235 35v182q-219 -37 -299 -37q-90 0 -129 34.5t-39 113.5q0 72 35 159h654q63 -53 87.5 -123.5t24.5 -173.5l-10 -489q27 -21 70 -21q14 0 39 5v-52q-18 -79 -67 -121t-140 -42q-121 0 -199 90q-91 -51 -151 -70.5t-119 -19.5 q-130 0 -206.5 64.5t-76.5 188.5zM145 1278q0 75 41.5 118.5t110.5 43.5q68 0 107.5 -43.5t39.5 -118.5q0 -73 -38.5 -117.5t-108.5 -44.5q-72 0 -112 45t-40 117zM362 272q0 -110 105 -110q50 0 104 16v236l-186 -47q-23 -44 -23 -95zM555 1278q0 75 41.5 118.5t110.5 43.5 q68 0 107.5 -43.5t39.5 -118.5q0 -73 -38.5 -117.5t-108.5 -44.5q-72 0 -112 45t-40 117z" />
<glyph unicode="&#xe5;" horiz-adv-x="1042" d="M45 233q0 121 66.5 187t224.5 90l235 35v182q-219 -37 -299 -37q-90 0 -129 34.5t-39 113.5q0 72 35 159h654q63 -53 87.5 -123.5t24.5 -173.5l-10 -489q27 -21 70 -21q14 0 39 5v-52q-18 -79 -67 -121t-140 -42q-121 0 -199 90q-91 -51 -151 -70.5t-119 -19.5 q-130 0 -206.5 64.5t-76.5 188.5zM266 1311q0 99 61 152t179 53q114 0 176.5 -54t62.5 -151q0 -99 -64 -151t-179 -52q-110 0 -173 53t-63 150zM362 272q0 -110 105 -110q50 0 104 16v236l-186 -47q-23 -44 -23 -95zM416 1311q0 -82 88 -82q90 0 90 84q0 82 -88 82 q-90 0 -90 -84z" />
<glyph unicode="&#xe6;" horiz-adv-x="1521" d="M45 233q0 121 66.5 187t224.5 90l231 35v182q-204 -37 -295 -37q-90 0 -129 34.5t-39 113.5q0 72 35 159h588q28 -28 49 -63q114 84 264 84q193 0 307.5 -103.5t114.5 -296.5q0 -46 -14 -137h-551q0 -115 71.5 -184.5t211.5 -69.5q154 0 247 74l15 -133 q-110 -188 -393 -188q-214 0 -340 129q-117 -74 -203.5 -101.5t-177.5 -27.5q-130 0 -206.5 64.5t-76.5 188.5zM362 274q0 -112 105 -112q67 0 172 37q-59 93 -68 213l-186 -45q-23 -44 -23 -93zM899 608l264 19v47q0 86 -39 128t-110 42q-30 0 -45 -6q-11 -3 -26 -28.5 t-28.5 -80t-15.5 -121.5z" />
<glyph unicode="&#xe7;" horiz-adv-x="894" d="M57 479q0 128 41.5 231.5t114 170t169 102t208.5 35.5q111 0 229 -27q0 -136 -20 -266q-141 31 -281 31q-33 0 -66.5 -72.5t-33.5 -183.5q0 -127 58.5 -194.5t162.5 -67.5q113 0 188 57l17 -133q-38 -85 -119 -133.5t-199 -48.5q-99 0 -184 33t-148.5 95t-100 157.5 t-36.5 213.5zM319 -334q152 9 152 70q0 33 -26.5 47t-88.5 14v37l80 100h94l-12 -36q78 -6 121 -45.5t43 -110.5q0 -90 -89 -141.5t-253 -51.5q-21 56 -21 117z" />
<glyph unicode="&#xe8;" horiz-adv-x="1034" d="M57 485q0 230 144 381.5t352 151.5q194 0 308 -103t114 -297q0 -59 -12 -137h-551q0 -117 71 -185.5t211 -68.5q153 0 246 74l16 -133q-112 -188 -395 -188q-220 0 -362 139.5t-142 365.5zM184 1495h381l70 -354q-75 -33 -141 -33zM412 608l266 19v47q0 85 -40 127.5 t-110 42.5q-30 0 -45 -6q-13 -3 -27.5 -28.5t-27.5 -80t-16 -121.5z" />
<glyph unicode="&#xe9;" horiz-adv-x="1034" d="M57 485q0 230 144 381.5t352 151.5q194 0 308 -103t114 -297q0 -59 -12 -137h-551q0 -117 71 -185.5t211 -68.5q153 0 246 74l16 -133q-112 -188 -395 -188q-220 0 -362 139.5t-142 365.5zM412 608l266 19v47q0 85 -40 127.5t-110 42.5q-30 0 -45 -6q-13 -3 -27.5 -28.5 t-27.5 -80t-16 -121.5zM461 1141l69 354h383l-311 -387q-66 0 -141 33z" />
<glyph unicode="&#xea;" horiz-adv-x="1034" d="M57 485q0 230 144 381.5t352 151.5q194 0 308 -103t114 -297q0 -59 -12 -137h-551q0 -117 71 -185.5t211 -68.5q153 0 246 74l16 -133q-112 -188 -395 -188q-220 0 -362 139.5t-142 365.5zM225 1165l187 330h272l182 -330q-22 -21 -54 -33t-60 -12l-215 180l-195 -180 q-56 0 -117 45zM412 608l266 19v47q0 85 -40 127.5t-110 42.5q-30 0 -45 -6q-13 -3 -27.5 -28.5t-27.5 -80t-16 -121.5z" />
<glyph unicode="&#xeb;" horiz-adv-x="1034" d="M57 485q0 230 144 381.5t352 151.5q194 0 308 -103t114 -297q0 -59 -12 -137h-551q0 -117 71 -185.5t211 -68.5q153 0 246 74l16 -133q-112 -188 -395 -188q-220 0 -362 139.5t-142 365.5zM193 1278q0 75 41 118.5t110 43.5q68 0 108 -43.5t40 -118.5q0 -73 -39 -117.5 t-109 -44.5q-72 0 -111.5 44.5t-39.5 117.5zM412 608l266 19v47q0 85 -40 127.5t-110 42.5q-30 0 -45 -6q-13 -3 -27.5 -28.5t-27.5 -80t-16 -121.5zM602 1278q0 75 41.5 118.5t110.5 43.5q68 0 107.5 -43.5t39.5 -118.5q0 -73 -38.5 -117.5t-108.5 -44.5q-72 0 -112 45 t-40 117z" />
<glyph unicode="&#xec;" horiz-adv-x="663" d="M31 1495h381l69 -354q-75 -33 -141 -33zM41 0l20 156l115 22v598l-37 15q-35 13 -51 24.5t-27 30.5v110l453 68v-846l131 -22v-11q0 -89 -37 -145h-567z" />
<glyph unicode="&#xed;" horiz-adv-x="663" d="M41 0l20 156l115 22v598l-37 15q-35 13 -51 24.5t-27 30.5v110l453 68v-846l131 -22v-11q0 -89 -37 -145h-567zM203 1141l69 354h383l-311 -387q-66 0 -141 33z" />
<glyph unicode="&#xee;" horiz-adv-x="663" d="M41 0l20 156l115 22v598l-37 15q-35 13 -51 24.5t-27 30.5v110l453 68v-846l131 -22v-11q0 -89 -37 -145h-567zM47 1167l168 328h244l162 -328q-19 -21 -48.5 -33t-54.5 -12l-192 181l-174 -181q-51 0 -105 45z" />
<glyph unicode="&#xef;" horiz-adv-x="663" d="M27 1278q0 75 37 118.5t100 43.5t100 -43.5t37 -118.5q0 -73 -35.5 -117.5t-101.5 -44.5q-65 0 -101 45t-36 117zM41 0l20 156l115 22v598l-37 15q-35 13 -51 24.5t-27 30.5v110l453 68v-846l131 -22v-11q0 -89 -37 -145h-567zM365 1278q0 75 38 118.5t101 43.5 q62 0 98.5 -43.5t36.5 -118.5q0 -73 -35 -117.5t-100 -44.5q-66 0 -102.5 44.5t-36.5 117.5z" />
<glyph unicode="&#xf0;" horiz-adv-x="1122" d="M57 473q0 124 37.5 228t101.5 172.5t149.5 106.5t180.5 38h31q-55 88 -113 158l-176 -109q-49 25 -71 98l170 105q-13 15 -28.5 33t-35 39t-31.5 34l168 119l135 -96l160 98q24 -13 43.5 -40t28.5 -58l-133 -82q207 -180 299 -368t92 -412q0 -131 -40.5 -238t-110 -176 t-160.5 -106t-195 -37q-231 0 -366.5 130t-135.5 363zM418 487q0 -163 36 -233t109 -70q49 0 78 29.5t44 104.5t15 208q0 158 -43 277q-74 8 -120 8q-18 0 -37 -15.5t-38.5 -49t-31.5 -101t-12 -158.5z" />
<glyph unicode="&#xf1;" horiz-adv-x="1255" d="M41 0l20 156l115 22v598l-37 15q-35 13 -51 24.5t-27 30.5v110l418 68l23 -133h12q85 72 152.5 99.5t148.5 27.5q144 0 220.5 -74t76.5 -219v-547l117 -22v-11q0 -89 -37 -145h-512l14 156l78 22v547q-49 35 -119 35q-68 0 -139 -31v-551l88 -22v-11q0 -90 -39 -145h-522 zM295 1149q69 171 110.5 224.5t104.5 53.5q40 0 147.5 -42t133.5 -42t45.5 18.5t64.5 82.5l98 -53q-67 -165 -110 -219t-105 -54q-41 0 -149.5 42t-130.5 42q-27 0 -46.5 -17t-64.5 -79z" />
<glyph unicode="&#xf2;" horiz-adv-x="1163" d="M57 498q0 224 150 372t379 148q230 0 375 -139.5t145 -376.5q0 -227 -151 -374.5t-377 -147.5q-232 0 -376.5 141t-144.5 377zM217 1495h381l70 -354q-75 -33 -142 -33zM420 500q0 -171 41.5 -243.5t130.5 -72.5q78 0 114.5 71t36.5 245q0 171 -43 242t-129 71 q-79 0 -115 -71t-36 -242z" />
<glyph unicode="&#xf3;" horiz-adv-x="1163" d="M57 498q0 224 150 372t379 148q230 0 375 -139.5t145 -376.5q0 -227 -151 -374.5t-377 -147.5q-232 0 -376.5 141t-144.5 377zM420 500q0 -171 41.5 -243.5t130.5 -72.5q78 0 114.5 71t36.5 245q0 171 -43 242t-129 71q-79 0 -115 -71t-36 -242zM504 1141l69 354h383 l-311 -387q-66 0 -141 33z" />
<glyph unicode="&#xf4;" horiz-adv-x="1163" d="M57 498q0 224 150 372t379 148q230 0 375 -139.5t145 -376.5q0 -227 -151 -374.5t-377 -147.5q-232 0 -376.5 141t-144.5 377zM260 1165l186 330h273l182 -330q-22 -21 -54.5 -33t-60.5 -12l-215 180l-194 -180q-56 0 -117 45zM420 500q0 -171 41.5 -243.5t130.5 -72.5 q78 0 114.5 71t36.5 245q0 171 -43 242t-129 71q-79 0 -115 -71t-36 -242z" />
<glyph unicode="&#xf5;" horiz-adv-x="1163" d="M57 498q0 224 150 372t379 148q230 0 375 -139.5t145 -376.5q0 -227 -151 -374.5t-377 -147.5q-232 0 -376.5 141t-144.5 377zM229 1149q69 171 110.5 224.5t104.5 53.5q40 0 147.5 -42t133.5 -42t46 18.5t65 82.5l98 -53q-67 -165 -110 -219t-105 -54q-41 0 -150 42 t-131 42q-27 0 -46 -16.5t-64 -79.5zM420 500q0 -171 41.5 -243.5t130.5 -72.5q78 0 114.5 71t36.5 245q0 171 -43 242t-129 71q-79 0 -115 -71t-36 -242z" />
<glyph unicode="&#xf6;" horiz-adv-x="1163" d="M57 498q0 224 150 372t379 148q230 0 375 -139.5t145 -376.5q0 -227 -151 -374.5t-377 -147.5q-232 0 -376.5 141t-144.5 377zM225 1278q0 75 41.5 118.5t110.5 43.5q68 0 107.5 -43.5t39.5 -118.5q0 -73 -38.5 -117.5t-108.5 -44.5q-72 0 -112 45t-40 117zM420 500 q0 -171 41.5 -243.5t130.5 -72.5q78 0 114.5 71t36.5 245q0 171 -43 242t-129 71q-79 0 -115 -71t-36 -242zM635 1278q0 75 41 118.5t110 43.5q68 0 108 -43.5t40 -118.5q0 -73 -39 -117.5t-109 -44.5q-72 0 -111.5 44.5t-39.5 117.5z" />
<glyph unicode="&#xf7;" horiz-adv-x="1177" d="M158 418v160h860v-160h-860zM424 147q0 79 43.5 124.5t120.5 45.5q74 0 118 -45.5t44 -124.5q0 -76 -43 -121.5t-119 -45.5q-80 0 -122 45t-42 122zM424 848q0 79 43.5 124.5t120.5 45.5q74 0 118 -45.5t44 -124.5q0 -76 -43 -122t-119 -46q-80 0 -122 45.5t-42 122.5z " />
<glyph unicode="&#xf8;" horiz-adv-x="1163" d="M57 498q0 224 150 372t379 148q130 0 241 -51l138 217q50 -4 73 -41l-137 -217q97 -66 151 -175t54 -249q0 -227 -151 -374.5t-377 -147.5q-137 0 -244 49l-135 -215q-21 2 -42.5 13t-31.5 28l135 215q-97 67 -150 176.5t-53 251.5zM420 500q0 -96 12 -158l260 412 q-42 59 -121 59t-115 -71t-36 -242zM469 242q41 -58 123 -58q78 0 114.5 71t36.5 245q0 90 -12 155z" />
<glyph unicode="&#xf9;" horiz-adv-x="1243" d="M39 846v110l455 68v-752q42 -34 118 -34q65 0 133 30v551l-118 23v10q0 84 35 145h454l-31 -190v-629l125 -22v-11q0 -90 -39 -145l-403 -20l12 141h-12q-87 -75 -157.5 -108t-159.5 -33q-141 0 -219 73t-78 219v504l-35 15q-37 15 -53 26t-27 29zM260 1495h381l70 -354 q-75 -33 -142 -33z" />
<glyph unicode="&#xfa;" horiz-adv-x="1243" d="M39 846v110l455 68v-752q42 -34 118 -34q65 0 133 30v551l-118 23v10q0 84 35 145h454l-31 -190v-629l125 -22v-11q0 -90 -39 -145l-403 -20l12 141h-12q-87 -75 -157.5 -108t-159.5 -33q-141 0 -219 73t-78 219v504l-35 15q-37 15 -53 26t-27 29zM510 1141l70 354h383 l-312 -387q-66 0 -141 33z" />
<glyph unicode="&#xfb;" horiz-adv-x="1243" d="M39 846v110l455 68v-752q42 -34 118 -34q65 0 133 30v551l-118 23v10q0 84 35 145h454l-31 -190v-629l125 -22v-11q0 -90 -39 -145l-403 -20l12 141h-12q-87 -75 -157.5 -108t-159.5 -33q-141 0 -219 73t-78 219v504l-35 15q-37 15 -53 26t-27 29zM299 1165l186 330h273 l182 -330q-22 -21 -54.5 -33t-60.5 -12l-215 180l-194 -180q-56 0 -117 45z" />
<glyph unicode="&#xfc;" horiz-adv-x="1243" d="M39 846v110l455 68v-752q42 -34 118 -34q65 0 133 30v551l-118 23v10q0 84 35 145h454l-31 -190v-629l125 -22v-11q0 -90 -39 -145l-403 -20l12 141h-12q-87 -75 -157.5 -108t-159.5 -33q-141 0 -219 73t-78 219v504l-35 15q-37 15 -53 26t-27 29zM262 1278 q0 75 41.5 118.5t110.5 43.5q68 0 107.5 -43.5t39.5 -118.5q0 -73 -38.5 -117.5t-108.5 -44.5q-72 0 -112 45t-40 117zM672 1278q0 75 41 118.5t110 43.5q68 0 108 -43.5t40 -118.5q0 -73 -39 -117.5t-109 -44.5q-72 0 -111.5 44.5t-39.5 117.5z" />
<glyph unicode="&#xfd;" horiz-adv-x="1034" d="M-2 842v10q0 89 37 145h504l-17 -155l-86 -23l127 -487h12l154 487l-96 23v10q0 89 37 145h393l-19 -155l-65 -23l-414 -1085l97 -29v-10q0 -82 -41 -146q-277 0 -484 45l49 150l136 8l122 260l-98 11l-274 796zM475 1141l70 354h383l-312 -387q-66 0 -141 33z" />
<glyph unicode="&#xfe;" horiz-adv-x="1198" d="M37 -430l18 156l109 22v1499l-37 15q-55 20 -78 53v112l453 68v-577h10q92 100 233 100q81 0 150.5 -28.5t125.5 -85t88 -150.5t32 -215q0 -250 -152.5 -404.5t-384.5 -154.5q-45 0 -102 14v-244l139 -22v-11q0 -86 -35 -147h-569zM502 207q70 -17 147 -17q49 13 89 101 t40 217q0 266 -164 266q-61 0 -112 -31v-536z" />
<glyph unicode="&#xff;" horiz-adv-x="1034" d="M-2 842v10q0 89 37 145h504l-17 -155l-86 -23l127 -487h12l154 487l-96 23v10q0 89 37 145h393l-19 -155l-65 -23l-414 -1085l97 -29v-10q0 -82 -41 -146q-277 0 -484 45l49 150l136 8l122 260l-98 11l-274 796zM205 1278q0 75 41 118.5t110 43.5q68 0 108 -43.5 t40 -118.5q0 -73 -39 -117.5t-109 -44.5q-72 0 -111.5 44.5t-39.5 117.5zM614 1278q0 75 41.5 118.5t110.5 43.5q68 0 107.5 -43.5t39.5 -118.5q0 -73 -38.5 -117.5t-108.5 -44.5q-72 0 -112 45t-40 117z" />
<glyph unicode="&#x152;" horiz-adv-x="2039" d="M59 698q0 169 51 307t139.5 227t206 137t251.5 48q214 0 348 -119v99h583l283 20v-399q-31 -18 -83.5 -28.5t-100.5 -10.5h-29l-53 221h-291v-401h420q12 -46 12 -103q0 -52 -12 -104l-180 16h-240v-424l322 23l51 221h28q122 0 183 -37v-391h-893v104 q-139 -124 -350 -124q-137 0 -254 47t-204.5 136t-137.5 226.5t-50 308.5zM465 698q0 -117 12 -203.5t33.5 -143t55 -90.5t74 -48t93.5 -14q61 0 104 23t75.5 78.5t48.5 154t16 243.5t-17.5 244t-53.5 154.5t-83 78.5t-112 23q-61 0 -104 -23t-76 -78.5t-49.5 -154.5 t-16.5 -244z" />
<glyph unicode="&#x153;" horiz-adv-x="1710" d="M57 500q0 225 141.5 371.5t368.5 146.5q222 0 351 -135q125 135 309 135q194 0 309 -103.5t115 -296.5q0 -40 -15 -137h-551q0 -117 71 -185.5t212 -68.5q153 0 246 74l16 -133q-112 -188 -395 -188q-202 0 -330 137q-131 -137 -346 -137q-229 0 -365.5 141t-136.5 379z M418 500q0 -167 41.5 -238.5t128.5 -71.5q78 0 113.5 69t35.5 241q0 170 -42 238.5t-128 68.5q-79 0 -114 -69t-35 -238zM1085 608l267 19v47q0 85 -40 127.5t-110 42.5q-30 0 -45 -6q-11 -3 -26 -28.5t-29 -80t-17 -121.5z" />
<glyph unicode="&#x178;" horiz-adv-x="1243" d="M6 1227v22q0 95 37 148h596l-18 -170l-136 -23l197 -450h18l199 450l-135 23v22q0 95 35 148h440l-18 -170l-70 -23l-344 -649v-362l143 -23v-23q0 -91 -37 -147h-622l18 170l127 23v360l-344 651zM324 1585q0 60 37.5 95.5t95.5 35.5q59 0 97 -35.5t38 -95.5 q0 -57 -38 -94t-97 -37q-58 0 -95.5 37t-37.5 94zM705 1585q0 60 37.5 95.5t97.5 35.5q59 0 97 -35.5t38 -95.5q0 -57 -39 -94t-96 -37q-60 0 -97.5 37t-37.5 94z" />
<glyph unicode="&#x2c6;" d="M190 1165l187 330h272l182 -330q-22 -21 -54 -33t-60 -12l-215 180l-195 -180q-56 0 -117 45z" />
<glyph unicode="&#x2dc;" d="M160 1149q69 171 110.5 224.5t104.5 53.5q40 0 147 -42t133 -42t46 18.5t65 82.5l98 -53q-67 -165 -110 -219t-105 -54q-41 0 -149.5 42t-130.5 42q-27 0 -46.5 -17t-64.5 -79z" />
<glyph unicode="&#x2000;" horiz-adv-x="934" />
<glyph unicode="&#x2001;" horiz-adv-x="1868" />
<glyph unicode="&#x2002;" horiz-adv-x="934" />
<glyph unicode="&#x2003;" horiz-adv-x="1868" />
<glyph unicode="&#x2004;" horiz-adv-x="622" />
<glyph unicode="&#x2005;" horiz-adv-x="467" />
<glyph unicode="&#x2006;" horiz-adv-x="311" />
<glyph unicode="&#x2007;" horiz-adv-x="311" />
<glyph unicode="&#x2008;" horiz-adv-x="233" />
<glyph unicode="&#x2009;" horiz-adv-x="373" />
<glyph unicode="&#x200a;" horiz-adv-x="103" />
<glyph unicode="&#x2010;" horiz-adv-x="628" d="M76 381v283h477v-283h-477z" />
<glyph unicode="&#x2011;" horiz-adv-x="628" d="M76 381v283h477v-283h-477z" />
<glyph unicode="&#x2012;" horiz-adv-x="628" d="M76 381v283h477v-283h-477z" />
<glyph unicode="&#x2013;" d="M68 381v283h888v-283h-888z" />
<glyph unicode="&#x2014;" horiz-adv-x="2048" d="M63 381v283h1922v-283h-1922z" />
<glyph unicode="&#x2018;" horiz-adv-x="495" d="M57 1171l291 328q95 -6 139 -65l-143 -252l86 -52q0 -233 -176 -233q-88 0 -142.5 70.5t-54.5 203.5z" />
<glyph unicode="&#x2019;" horiz-adv-x="495" d="M8 958l144 250l-86 54q0 233 174 233q90 0 144 -70.5t54 -205.5l-293 -326q-95 6 -137 65z" />
<glyph unicode="&#x201a;" horiz-adv-x="495" d="M8 45l144 252l-86 51q0 234 174 234q90 0 144 -70.5t54 -204.5l-293 -327q-93 6 -137 65z" />
<glyph unicode="&#x201c;" horiz-adv-x="921" d="M57 1171l291 328q95 -6 139 -65l-143 -252l86 -52q0 -233 -176 -233q-88 0 -142.5 70.5t-54.5 203.5zM483 1171l291 328q95 -6 139 -65l-143 -252l86 -52q0 -233 -176 -233q-88 0 -142.5 70.5t-54.5 203.5z" />
<glyph unicode="&#x201d;" horiz-adv-x="921" d="M8 958l144 250l-86 54q0 233 174 233q90 0 144 -70.5t54 -205.5l-293 -326q-95 6 -137 65zM434 958l144 250l-86 54q0 233 174 233q90 0 144 -70.5t54 -205.5l-293 -326q-95 6 -137 65z" />
<glyph unicode="&#x201e;" horiz-adv-x="923" d="M8 45l144 252l-86 51q0 234 174 234q90 0 144 -70.5t54 -204.5l-293 -327q-93 6 -137 65zM436 47l144 250l-84 53q0 234 174 234q88 0 142 -71t54 -206l-291 -325q-97 6 -139 65z" />
<glyph unicode="&#x2022;" horiz-adv-x="716" d="M57 498q0 149 80 234t221 85q139 0 221.5 -85.5t82.5 -233.5q0 -142 -81 -229t-223 -87q-147 0 -224 86t-77 230z" />
<glyph unicode="&#x2026;" horiz-adv-x="1421" d="M61 172q0 93 49 145t136 52q84 0 133 -52.5t49 -144.5q0 -86 -48.5 -139t-133.5 -53q-90 0 -137.5 52.5t-47.5 139.5zM528 172q0 93 49 145t136 52q84 0 133 -52.5t49 -144.5q0 -86 -48.5 -139t-133.5 -53q-90 0 -137.5 52.5t-47.5 139.5zM995 172q0 93 49 145t136 52 q84 0 133 -52.5t49 -144.5q0 -86 -48.5 -139t-133.5 -53q-90 0 -137.5 52.5t-47.5 139.5z" />
<glyph unicode="&#x202f;" horiz-adv-x="373" />
<glyph unicode="&#x2039;" horiz-adv-x="526" d="M23 479v51l307 373l176 -18l-144 -375l144 -389l-176 -17z" />
<glyph unicode="&#x203a;" horiz-adv-x="526" d="M23 123l143 375l-143 389l176 16l307 -375v-51l-307 -373z" />
<glyph unicode="&#x205f;" horiz-adv-x="467" />
<glyph unicode="&#x20ac;" horiz-adv-x="1140" d="M41 549q0 38 8 59h107q-2 25 -2 76q0 63 2 94h-107q-8 21 -8 60q0 35 8 59h123q45 246 195.5 383t390.5 137q169 0 303 -41q0 -46 -11 -115.5t-26 -113.5q-69 20 -169.5 33.5t-168.5 13.5q-43 0 -60.5 -8.5t-29.5 -32.5q-48 -90 -66 -256h371q10 -27 10 -59 q0 -30 -10 -60h-379q-2 -31 -2 -94q0 -51 2 -76h379q10 -27 10 -57q0 -29 -10 -62h-371q20 -147 82.5 -213.5t180.5 -66.5q153 0 258 100q20 -97 20 -223q-130 -106 -358 -106q-235 0 -372.5 129.5t-174.5 379.5h-117q-8 24 -8 60z" />
<glyph unicode="&#x2122;" horiz-adv-x="1822" d="M61 1198v199h490l174 12l-23 -211q-39 -20 -98 -20h-16l-27 104l-61 -2v-469l73 -10v-13q0 -56 -20 -92h-352l8 105l67 10v461l-65 -4l-29 -90h-26q-62 0 -95 20zM756 696l10 105l65 10l29 471l-72 10v13q0 23 6 51t15 41h289l157 -404l160 404h311l-10 -105l-65 -10 l20 -471l74 -10v-13q0 -54 -21 -92h-335l8 105l67 10q-8 227 -12 342h-10l-182 -457l-91 -10l-180 467h-10l-21 -342l74 -10v-13q0 -62 -20 -92h-256z" />
<glyph unicode="&#xe000;" horiz-adv-x="993" d="M0 0v993h993v-993h-993z" />
</font>
</defs>
</svg>
