<?xml version="1.0" standalone="no"?>
<!DOCTYPE svg PUBLIC "-//W3C//DTD SVG 1.1//EN" "http://www.w3.org/Graphics/SVG/1.1/DTD/svg11.dtd" >
<svg xmlns="http://www.w3.org/2000/svg">
<metadata></metadata>
<defs>
<font id="malaga_narrow_otreg_italic" horiz-adv-x="798" >
<font-face units-per-em="2048" ascent="1638" descent="-410" />
<missing-glyph horiz-adv-x="368" />
<glyph unicode="&#xfb01;" horiz-adv-x="978" d="M-158 -315l25 118q40 -8 76 -8q29 0 57 8q12 3 23 31q24 62 49 176q18 83 28 144l121 731l-33 8q-35 10 -50 19.5t-23 23.5l14 61h111l8 50q36 202 134.5 325t219.5 123q50 0 82 -29l-25 -118q-36 8 -84 8q-45 0 -73 -8q-11 -4 -27 -45q-38 -105 -72 -306h314l190 21 l-168 -889q82 0 162 25l6 -23q-38 -62 -78.5 -97.5t-68.5 -44.5t-62 -9q-47 0 -82.5 23t-52.5 65l154 817h-332l-129 -781q-33 -201 -127 -324.5t-205 -123.5q-56 0 -82 29zM754 1313q0 58 33.5 94.5t89.5 36.5q41 0 65.5 -27.5t24.5 -70.5q0 -58 -33.5 -95t-89.5 -37 q-41 0 -65.5 28t-24.5 71z" />
<glyph unicode="&#xfb02;" horiz-adv-x="978" d="M-158 -315l25 118q40 -8 76 -8q29 0 57 8q12 3 23 31q24 62 49 176q18 83 28 144l121 731l-33 8q-35 10 -50 19.5t-23 23.5l14 61h111l8 50q37 207 139 321.5t258 114.5q100 0 191 -25l161 37l-258 -1366q82 0 162 25l6 -23q-38 -62 -78.5 -97.5t-68.5 -44.5t-62 -9 q-47 0 -82.5 23t-52.5 65l236 1255q-27 9 -89 18t-106 9q-62 0 -100 -11q-11 -4 -27 -47q-45 -125 -74 -295h172q0 -59 -22 -112h-168l-129 -781q-33 -201 -127 -324.5t-205 -123.5q-56 0 -82 29z" />
<glyph horiz-adv-x="2048" />
<glyph horiz-adv-x="2048" />
<glyph unicode="&#xd;" horiz-adv-x="2048" />
<glyph unicode=" "  horiz-adv-x="368" />
<glyph unicode="&#x09;" horiz-adv-x="368" />
<glyph unicode="&#xa0;" horiz-adv-x="368" />
<glyph unicode="!" horiz-adv-x="497" d="M72 92q0 67 35 108.5t92 41.5q44 0 72 -31t28 -82q0 -67 -35 -108t-92 -41q-45 0 -72.5 30.5t-27.5 81.5zM180 416l115 981q79 20 217 20l-238 -1001h-94z" />
<glyph unicode="&#x22;" horiz-adv-x="509" d="M147 954l39 521h199l-147 -521q-24 -8 -45 -8q-18 0 -46 8zM418 954l39 521h198l-147 -521q-24 -8 -45 -8q-17 0 -45 8z" />
<glyph unicode="#" d="M4 426q13 75 51 145l150 21l63 194l-168 -22q13 73 52 145l165 23l158 475q59 0 96 -16l-147 -445l166 23l145 438q59 0 96 -16l-135 -406l166 23q-9 -55 -49 -146l-164 -22l-65 -197l182 27q-9 -55 -49 -146l-180 -24l-170 -510q-60 0 -97 16l160 479l-168 -24 l-156 -471q-59 0 -96 16l146 440zM311 606l166 23l66 196l-168 -24z" />
<glyph unicode="$" horiz-adv-x="860" d="M55 -147l92 262q-37 12 -63 28l33 275q28 22 71 22h11l18 -202q71 -29 174 -29q62 0 82 8q11 4 27.5 23t32.5 61t16 92q0 51 -18 93t-47.5 72.5t-64.5 59t-70 59t-64.5 66t-47.5 87t-18 114.5q0 134 78 230t205 124l90 256q44 0 67 -18l-79 -225h20q38 0 70 -4l88 247 q44 0 67 -18l-86 -244q34 -7 64 -18l-31 -270q-30 -23 -70 -23h-12l-18 190q-66 19 -133 19q-60 0 -84 -8q-26 -10 -52 -60t-26 -125q0 -45 18 -83t47.5 -66t64.5 -55t70 -58.5t64.5 -68.5t47.5 -93t18 -124q0 -144 -92 -243t-236 -116l-90 -256q-44 0 -68 19l84 235 q-42 0 -90 10l-92 -264q-44 0 -68 19z" />
<glyph unicode="%" horiz-adv-x="1230" d="M117 952q0 59 9.5 119.5t32.5 123.5t57 111.5t89 79.5t123 31q104 0 163.5 -65t59.5 -193q0 -59 -9.5 -119.5t-32.5 -123.5t-57 -111.5t-89 -79.5t-123 -31q-104 0 -163.5 65t-59.5 193zM164 20l846 1397q22 0 47 -14.5t37 -34.5l-846 -1397q-22 0 -47 14.5t-37 34.5z M262 911q0 -129 86 -129q29 0 53 9q16 5 40 60.5t44.5 153.5t20.5 195q0 129 -86 129q-32 0 -53 -8q-16 -5 -40 -61t-44.5 -154t-20.5 -195zM612 238q0 59 9.5 119.5t32.5 123.5t57.5 111t89.5 79t123 31q104 0 163.5 -65t59.5 -193q0 -59 -9.5 -119.5t-32.5 -123.5 t-57 -111t-89 -79t-123 -31q-105 0 -164.5 65t-59.5 193zM758 197q0 -129 86 -129q32 0 53 8q16 5 39.5 61t44 153.5t20.5 194.5q0 129 -86 129q-32 0 -53 -8q-16 -5 -39.5 -61t-44 -153.5t-20.5 -194.5z" />
<glyph unicode="&#x26;" horiz-adv-x="1138" d="M35 299q0 139 64 260.5t214 239.5q-24 70 -24 176q0 184 105.5 313t254.5 129q106 0 167 -60.5t61 -162.5q0 -65 -40.5 -116t-95.5 -70q-79 18 -79 88q0 41 25.5 69t74.5 35v8q0 41 -36 70t-99 29q-36 0 -60 -9q-13 -3 -32.5 -33.5t-36.5 -90t-17 -125.5q0 -87 31.5 -188 t126.5 -273l115 -203q67 101 151 274l-121 23l2 14q6 48 35 84h318l-33 -98l-57 -23q-114 -232 -230 -387l144 -260q-16 -17 -54 -30t-65 -15l-133 178q-165 -165 -359 -165q-145 0 -231 89t-86 230zM221 352q0 -117 52 -176t145 -59q107 0 225 127q-229 335 -285 446 q-137 -143 -137 -338z" />
<glyph unicode="'" horiz-adv-x="239" d="M147 954l39 521h199l-147 -521q-24 -8 -45 -8q-18 0 -46 8z" />
<glyph unicode="(" horiz-adv-x="475" d="M35 182q0 224 37.5 438t107.5 392t183 292.5t251 127.5q11 -37 11 -97q-94 -11 -175.5 -132.5t-133.5 -304t-81.5 -395.5t-29.5 -417q0 -141 36.5 -211.5t110.5 -91.5q-13 -51 -39 -88q-278 47 -278 487z" />
<glyph unicode=")" horiz-adv-x="475" d="M-135 -209q94 11 175.5 132.5t133.5 304t81.5 395.5t29.5 417q0 140 -36.5 211t-111.5 92q14 52 39 89q279 -47 279 -488q0 -224 -37.5 -437.5t-108 -392t-183.5 -292.5t-251 -127q-10 34 -10 96z" />
<glyph unicode="*" horiz-adv-x="618" d="M125 883l225 217l-221 49q14 98 74 164l184 -135q4 203 6 305q27 12 86 12q60 0 84 -12l-98 -305l227 135q31 -60 31 -133q0 -25 -2 -35l-248 -45l152 -219q-20 -32 -63 -60.5t-89 -38.5l-70 265l-151 -269q-94 28 -127 105z" />
<glyph unicode="+" d="M82 428v139h250v398h135v-398h250v-139h-250v-397h-135v397h-250z" />
<glyph unicode="," horiz-adv-x="368" d="M-166 -330l223 389l-65 62q8 77 40 120.5t87 43.5q47 0 76.5 -33.5t29.5 -99.5q0 -45 -10 -86l-311 -435q-20 0 -40 10.5t-30 28.5z" />
<glyph unicode="-" horiz-adv-x="382" d="M31 424l24 149h297l-24 -149h-297z" />
<glyph unicode="." horiz-adv-x="368" d="M0 100q0 71 35.5 114.5t95.5 43.5q44 0 72 -33.5t28 -87.5q0 -71 -35.5 -114t-93.5 -43q-46 0 -74 34t-28 86z" />
<glyph unicode="/" horiz-adv-x="526" d="M-133 -55l668 1554q34 0 71 -12.5t56 -34.5l-668 -1554q-36 0 -72 11.5t-55 35.5z" />
<glyph unicode="0" horiz-adv-x="831" d="M23 365q0 63 6.5 130t22 143t39 145.5t61 134t84.5 111.5t112 75.5t141 28.5q148 0 234 -93.5t86 -294.5q0 -73 -9.5 -152t-29.5 -167.5t-57 -166t-86.5 -141.5t-123 -101t-161.5 -37q-148 0 -233.5 92.5t-85.5 292.5zM176 362q0 -237 174 -237q70 0 127 22q30 12 71 101 t74 230.5t33 271.5q0 237 -174 237q-70 0 -127 -22q-30 -12 -71 -101t-74 -230.5t-33 -271.5z" />
<glyph unicode="1" horiz-adv-x="575" d="M-37 0l35 94l133 23l152 862l-56 20q-48 18 -61 66l8 47h311l-174 -995l152 -23l-2 -10q-10 -50 -37 -84h-461z" />
<glyph unicode="2" horiz-adv-x="755" d="M-33 100q157 128 258 226t156.5 177t76.5 140t21 129q0 102 -46.5 157.5t-129.5 55.5q-105 0 -164 -92l-57 29q43 103 114 157t179 54q132 0 219.5 -91t87.5 -245q0 -158 -102 -294t-361 -319v-12h424q0 -104 -20.5 -148t-71.5 -44q-31 0 -109 12l-350 47l-65 -53 q-24 18 -41.5 50t-18.5 64z" />
<glyph unicode="3" horiz-adv-x="724" d="M-123 -205q502 67 502 357q0 107 -52.5 158.5t-164.5 51.5h-99l21 115h98q132 0 210.5 75.5t78.5 207.5q0 110 -49.5 166.5t-134.5 56.5q-56 0 -93.5 -23t-68.5 -67l-57 29q44 105 116.5 158t182.5 53q133 0 219 -91t86 -239q0 -136 -64 -228.5t-182 -136.5v-16 q74 -39 118 -109t44 -166q0 -93 -39 -168.5t-105 -126.5t-156.5 -86t-189.5 -52t-209 -19q-12 43 -12 100z" />
<glyph unicode="4" horiz-adv-x="782" d="M-35 31l35 205l514 897q29 0 69.5 -14.5t53.5 -31.5l-526 -911h321l82 467h180l-84 -467h97l-2 -12q-5 -31 -19 -70t-31 -63h-69l-56 -316h-180l56 316h-441z" />
<glyph unicode="5" horiz-adv-x="706" d="M-90 -205q236 24 355.5 119t119.5 238q0 113 -73.5 182.5t-233.5 114.5l117 663h548q-10 -107 -41.5 -147.5t-87.5 -40.5q-63 0 -315 37l-84 -377q379 -122 379 -416q0 -113 -56.5 -203t-153 -145.5t-213.5 -87t-249 -37.5q-12 40 -12 100z" />
<glyph unicode="6" horiz-adv-x="792" d="M29 350q0 296 201 579.5t556 487.5q40 -24 60 -78q-216 -161 -340 -302.5t-191 -286.5h11q61 51 157 51q103 0 176.5 -82t73.5 -238q0 -71 -15 -141.5t-47 -135.5t-77 -114.5t-111.5 -79.5t-144.5 -30q-152 0 -230.5 98.5t-78.5 271.5zM213 268q0 -93 35 -135.5 t104 -42.5q49 0 74 10q32 14 73.5 127.5t41.5 259.5q0 94 -39 143.5t-105 49.5q-65 0 -114 -33q-30 -75 -50 -181.5t-20 -197.5z" />
<glyph unicode="7" horiz-adv-x="733" d="M-55 -287l669 1250q-345 -39 -471 -39q-39 0 -60.5 23.5t-21.5 62.5t29 102h696l-30 -164l-668 -1253q-103 0 -143 18z" />
<glyph unicode="8" horiz-adv-x="761" d="M0 252q0 101 47 183.5t146 164.5l100 84q-74 68 -113 140.5t-39 170.5q0 80 24.5 154.5t70.5 134.5t120 96.5t164 36.5q125 0 203 -74t78 -196q0 -96 -41.5 -169.5t-134.5 -150.5l-101 -84q73 -68 112.5 -143t39.5 -180q0 -81 -24.5 -158t-71 -141t-122 -102.5 t-169.5 -38.5q-130 0 -209.5 75t-79.5 197zM156 262q0 -82 42 -127t115 -45q55 0 109 25q26 12 53 79.5t27 147.5q0 82 -33 147.5t-111 135.5q-109 -100 -155.5 -181t-46.5 -182zM315 1073q0 -73 33.5 -136.5t110.5 -133.5q96 88 141 164.5t45 169.5q0 83 -40.5 126.5 t-108.5 43.5q-52 0 -99 -21q-31 -13 -56.5 -72.5t-25.5 -140.5z" />
<glyph unicode="9" horiz-adv-x="792" d="M-53 -227q215 161 339 302.5t191 286.5h-10q-61 -51 -158 -51q-103 0 -176.5 82t-73.5 238q0 71 15 141.5t47 136t77.5 115t112 79.5t144.5 30q152 0 230.5 -99t78.5 -272q0 -296 -201.5 -579.5t-556.5 -487.5q-39 23 -59 78zM252 625q0 -94 38.5 -143.5t104.5 -49.5 q65 0 115 33q30 75 50 181.5t20 197.5q0 93 -35.5 135.5t-104.5 42.5q-48 0 -73 -10q-32 -14 -73.5 -127.5t-41.5 -259.5z" />
<glyph unicode=":" horiz-adv-x="409" d="M16 100q0 71 35.5 114.5t95.5 43.5q44 0 72.5 -33.5t28.5 -87.5q0 -71 -35.5 -114t-93.5 -43q-46 0 -74.5 34t-28.5 86zM133 860q0 71 35.5 114.5t95.5 43.5q44 0 72.5 -33.5t28.5 -87.5q0 -71 -35.5 -114.5t-93.5 -43.5q-46 0 -74.5 34.5t-28.5 86.5z" />
<glyph unicode=";" horiz-adv-x="409" d="M-145 -330l223 389l-66 62q8 77 40 120.5t87 43.5q47 0 77 -33.5t30 -99.5q0 -45 -10 -86l-312 -435q-20 0 -39.5 10.5t-29.5 28.5zM133 860q0 71 35.5 114.5t95.5 43.5q44 0 72.5 -33.5t28.5 -87.5q0 -71 -35.5 -114.5t-93.5 -43.5q-46 0 -74.5 34.5t-28.5 86.5z" />
<glyph unicode="&#x3c;" d="M100 498l420 467h178l-419 -461l419 -473h-182z" />
<glyph unicode="=" d="M82 231v140h635v-140h-635zM82 627v139h635v-139h-635z" />
<glyph unicode="&#x3e;" d="M100 31l420 461l-420 473h183l415 -467l-419 -467h-179z" />
<glyph unicode="?" horiz-adv-x="696" d="M94 92q0 67 35 108.5t92 41.5q45 0 73 -31t28 -82q0 -67 -35 -108t-92 -41q-45 0 -73 30.5t-28 81.5zM174 627q11 52 39 88q315 140 315 381q0 88 -39 136t-106 48q-87 0 -139 -86l-39 20q64 203 258 203q108 0 186 -78t78 -206q0 -148 -89.5 -253.5t-279.5 -195.5 l-59 -268h-74z" />
<glyph unicode="@" horiz-adv-x="1449" d="M41 133q0 189 49.5 371.5t137 328t199 257t242.5 172.5t261 61q214 0 346.5 -126t132.5 -368q0 -145 -45 -297t-114.5 -268t-158.5 -190t-173 -74q-147 0 -191 111h-8q-65 -65 -108.5 -88t-100.5 -23q-71 0 -117.5 64t-46.5 176q0 123 44 250t110.5 221.5t146 154.5 t148.5 60q63 0 99 -29t69 -96l88 123q67 0 112 -25l-293 -743q12 -39 66 -39q47 0 107.5 63t113.5 160.5t90 230.5t37 258q0 184 -96 277.5t-258 93.5q-91 0 -184.5 -38t-177.5 -105.5t-157.5 -166t-127 -214.5t-84.5 -256.5t-31 -286.5q0 -212 95 -309.5t253 -97.5 q57 0 119.5 15t97.5 38l-35 -115q-40 -28 -99.5 -45.5t-117.5 -17.5q-92 0 -170 31.5t-139.5 94t-96 166.5t-34.5 240zM514 236q0 -113 78 -113q29 0 56.5 13t76.5 52l225 576q-90 43 -153 43q-30 0 -78 -53t-93.5 -132.5t-78.5 -186t-33 -199.5z" />
<glyph unicode="A" horiz-adv-x="954" d="M-129 0l33 98l67 23l598 1276l125 20l135 -1296l101 -23l-4 -20q-9 -48 -33 -78h-406l33 98l117 23l-35 405l-319 -20l-168 -385l153 -23l-4 -20q-9 -48 -33 -78h-360zM334 618h260l-41 465h-16z" />
<glyph unicode="B" horiz-adv-x="976" d="M-29 0l33 98l117 23l207 1155l-148 22l4 21q9 48 33 78h428q151 0 242.5 -82t91.5 -234q0 -146 -68.5 -241.5t-177.5 -124.5v-17q77 -34 124.5 -106.5t47.5 -185.5q0 -184 -122 -295t-330 -111h-482zM305 121l170 -23q99 6 167.5 98.5t68.5 233.5q0 122 -55.5 174.5 t-163.5 52.5h-91zM418 750l211 14q67 32 111 117t44 200t-45.5 162t-136.5 47h-88z" />
<glyph unicode="C" horiz-adv-x="1005" d="M72 510q0 253 77 459t221 327t328 121q181 0 308 -45l-45 -379q-38 -24 -87 -24h-12l-39 288q-82 29 -172 29q-77 0 -121 -10q-29 -7 -70 -73t-81 -167t-68 -243.5t-28 -282.5q0 -201 69 -298t211 -97q83 0 133 28l88 258h13q51 0 86 -24l-33 -299q-56 -48 -142.5 -73 t-175.5 -25q-209 0 -334.5 138t-125.5 392z" />
<glyph unicode="D" horiz-adv-x="1112" d="M-29 0l33 98l117 23l207 1155l-148 22l4 21q9 48 33 78h408q217 0 345 -134t128 -393q0 -238 -90 -439t-241 -316t-327 -115h-469zM309 127l164 -23q80 13 154 71.5t133 154.5t94 236.5t35 303.5q0 116 -22.5 198.5t-64 128.5t-93.5 66.5t-119 20.5h-72z" />
<glyph unicode="E" horiz-adv-x="960" d="M-29 0l33 98l117 23l207 1155l-148 22l4 21q9 48 33 78h545l199 20l-43 -368q-39 -25 -87 -25h-12l-35 254h-268l-92 -510h297q0 -66 -25 -131l-127 12h-166l-96 -540l299 18l94 270h13q51 0 86 -24l-41 -373h-787z" />
<glyph unicode="F" horiz-adv-x="915" d="M-29 0l33 98l117 23l207 1155l-148 22l4 21q9 48 33 78h559l199 20l-43 -385q-38 -24 -86 -24h-12l-35 270h-283l-96 -543h371q0 -66 -25 -131l-127 12h-242l-88 -495l160 -23l-4 -20q-9 -48 -33 -78h-461z" />
<glyph unicode="G" horiz-adv-x="1087" d="M72 510q0 191 46 356t130.5 287.5t212 193t282.5 70.5q75 0 165.5 -13t148.5 -34l-45 -364q-39 -25 -86 -25h-13l-39 274q-37 13 -99 22t-105 9q-79 0 -133 -10q-17 -4 -47.5 -41.5t-66 -108.5t-67 -160.5t-52.5 -210.5t-21 -245q0 -201 69 -298t211 -97q66 0 115 22 l70 387l-162 23l4 20q9 48 33 78h401l-33 -98l-59 -23l-94 -524l-33 -20l-113 45q-76 -45 -160 -45q-209 0 -334.5 138t-125.5 392z" />
<glyph unicode="H" horiz-adv-x="1189" d="M-29 0l33 98l117 23l207 1155l-148 22l4 21q9 48 33 78h438l-32 -99l-107 -22l-92 -508h422l92 508l-137 22l4 21q9 48 33 78h438l-33 -99l-117 -22l-206 -1155l147 -23l-4 -20q-9 -48 -33 -78h-438l33 98l106 23l94 526h-422l-94 -526l137 -23l-4 -20q-10 -50 -32 -78 h-439z" />
<glyph unicode="I" horiz-adv-x="579" d="M-29 0l33 98l117 23l207 1155l-148 22l4 21q9 48 33 78h449l-33 -99l-117 -22l-207 -1155l148 -23l-4 -20q-9 -48 -33 -78h-449z" />
<glyph unicode="J" horiz-adv-x="555" d="M-94 -412l178 392l231 1296l-141 22l4 21q9 48 33 78h438l-33 -99l-112 -22l-201 -1133q-18 -99 -45 -165t-80 -154l-194 -275q-20 0 -43.5 12t-34.5 27z" />
<glyph unicode="K" horiz-adv-x="1091" d="M-29 0l33 98l117 23l207 1155l-148 22l4 21q9 48 33 78h438l-32 -99l-107 -22l-110 -612h16l485 612l-125 22l4 21q9 48 33 78h389l-34 -99l-93 -22l-372 -442l241 -809q-21 -21 -60 -36.5t-63 -15.5l-276 674l-186 -221l-56 -305l135 -23l-4 -20q-10 -50 -32 -78h-437z " />
<glyph unicode="L" horiz-adv-x="876" d="M-29 0l33 98l117 23l207 1155l-148 22l4 21q9 48 33 78h459l-33 -99l-127 -22l-209 -1167l299 18l94 285h13q50 0 86 -25l-41 -387h-787z" />
<glyph unicode="M" horiz-adv-x="1456" d="M-45 0l33 98l110 23l250 1155l-155 22l4 21q10 50 32 78h377l84 -1051l475 1051h373l-33 -99l-131 -22l-172 -1155l146 -23l-5 -20q-10 -50 -32 -78h-447l33 98l121 23l156 983h-17l-500 -1104l-102 -20l-94 1124h-17l-204 -983l145 -23l-4 -20q-9 -48 -33 -78h-393z" />
<glyph unicode="N" horiz-adv-x="1193" d="M-29 0l33 98l117 23l215 1155l-148 22l5 21q10 50 32 78h340l273 -979h16l152 858l-170 22l4 21q10 50 32 78h414l-33 -99l-104 -22l-238 -1276l-118 -20l-340 1122h-17l-172 -981l160 -23l-4 -20q-9 -48 -33 -78h-416z" />
<glyph unicode="O" horiz-adv-x="1093" d="M72 510q0 195 44.5 364.5t122 288.5t185.5 186.5t231 67.5q198 0 311 -133t113 -397q0 -195 -44.5 -364.5t-122 -288.5t-185.5 -186.5t-231 -67.5q-198 0 -311 133t-113 397zM281 504q0 -115 17 -195t51.5 -126t80 -66.5t107.5 -20.5q54 0 86 8q9 2 26 19.5t40 52 t47.5 81.5t48.5 114t43 143t30.5 175t11.5 204q0 115 -17 194.5t-51.5 126t-80 66.5t-107.5 20q-54 0 -86 -8q-9 -2 -26 -19.5t-40 -52t-47.5 -81t-48.5 -113.5t-43 -143t-30.5 -175t-11.5 -204z" />
<glyph unicode="P" horiz-adv-x="960" d="M-29 0l33 98l117 23l207 1155l-148 22l4 21q9 48 33 78h420q167 0 259.5 -84t92.5 -262q0 -195 -119.5 -316t-306.5 -145l-174 -23l-80 -446l148 -23l-4 -20q-9 -48 -33 -78h-449zM412 686l219 16q67 37 115.5 135.5t48.5 217.5q0 113 -44.5 174t-134.5 61h-98z" />
<glyph unicode="Q" horiz-adv-x="1064" d="M61 20q3 48 21 105q49 49 139 49q79 0 182 -57q213 109 327 318t114 478q0 204 -65 295.5t-193 91.5q-56 0 -84 -8q-18 -5 -52.5 -48t-74.5 -115t-69.5 -188.5t-29.5 -244.5q0 -217 138 -217q80 0 137 76q33 -42 37 -80q-80 -127 -221 -127q-122 0 -203.5 91.5 t-81.5 262.5q0 187 72 351.5t198.5 264t274.5 99.5q88 0 162.5 -30t134 -90t93.5 -160.5t34 -231.5q0 -267 -149 -499t-388 -343v-10l324 -215q-9 -28 -28 -53.5t-38 -36.5l-459 242q-64 -15 -116 -15q-45 0 -83.5 12t-52.5 33z" />
<glyph unicode="R" horiz-adv-x="1013" d="M-29 0l33 98l117 23l207 1155l-148 22l4 21q9 48 33 78h420q161 0 253.5 -81t92.5 -251q0 -157 -74.5 -270.5t-201.5 -161.5l204 -608q-19 -22 -57 -37t-63 -15l-283 623l-117 -14l-82 -461l135 -23l-4 -20q-10 -50 -32 -78h-437zM414 700l215 17q62 34 110.5 134 t48.5 218q0 221 -180 221h-90z" />
<glyph unicode="S" horiz-adv-x="835" d="M37 57l41 322q38 24 86 24h12l33 -258q23 -19 73 -31t93 -12q40 0 86 11q30 8 59 73t29 142q0 60 -21 112t-54 92t-73 78.5t-80.5 78t-73.5 83t-54 102.5t-21 127q0 109 52.5 203.5t149.5 153.5t216 59q125 0 241 -39l-40 -342q-37 -24 -86 -24h-13l-33 258 q-57 24 -131 24q-57 0 -90 -10q-29 -8 -58.5 -76.5t-29.5 -136.5q0 -57 21 -106t54 -87t73 -75t80.5 -78t73.5 -87t54 -111t21 -142q0 -104 -52.5 -196.5t-150 -150.5t-217.5 -58q-74 0 -147.5 20t-122.5 57z" />
<glyph unicode="T" horiz-adv-x="989" d="M143 1083l56 314h686l196 20l-41 -334q-38 -24 -86 -24h-12l-37 227l-184 -6l-207 -1159l148 -23l-5 -20q-10 -50 -32 -78h-449l33 98l117 23l206 1153l-202 -6l-90 -209h-13q-47 0 -84 24z" />
<glyph unicode="U" horiz-adv-x="1153" d="M145 317q0 49 9 111l149 848l-121 22l4 21q9 48 33 78h432l-33 -99l-126 -22l-148 -836q-8 -52 -8 -112q0 -99 50.5 -151t168.5 -52t179.5 77t90.5 240l148 834l-166 22l4 21q9 48 33 78h397l-33 -99l-92 -22l-158 -850q-43 -237 -149 -341.5t-287 -104.5q-187 0 -282 88 t-95 249z" />
<glyph unicode="V" horiz-adv-x="929" d="M86 1298l4 21q9 48 33 78h397l-33 -99l-116 -22l78 -946h16l412 946l-154 22l4 21q9 48 33 78h352l-33 -99l-57 -22l-592 -1276l-125 -20l-129 1296z" />
<glyph unicode="W" horiz-adv-x="1544" d="M96 1298l2 15q10 50 37 84h418l-33 -99l-127 -22l37 -928h16l377 928l-135 22l2 15q10 50 37 84h434l-33 -99l-96 -22q35 -620 51 -928h17l360 928l-149 22l2 15q10 53 35 84h368l-33 -99l-77 -22l-539 -1276l-125 -20l-74 1056h-16l-449 -1036l-124 -20l-78 1296z" />
<glyph unicode="X" horiz-adv-x="970" d="M-109 0l35 98l80 23l404 575l-197 580l-100 22l2 15q10 50 37 84h426l-35 -99l-121 -22l137 -453l293 453l-135 22l2 15q10 53 35 84h372l-32 -99l-80 -22l-396 -551l201 -604l103 -23l-2 -14q-10 -50 -37 -84h-428l34 98l121 23l-141 477l-303 -477l135 -23l-2 -14 q-10 -50 -37 -84h-371z" />
<glyph unicode="Y" horiz-adv-x="854" d="M92 1298l2 15q10 50 37 84h412l-35 -99l-115 -22l99 -528h16l287 528l-131 22l2 15q10 51 36 84h324l-35 -99l-53 -22l-410 -696l-82 -459l148 -23l-4 -20q-9 -48 -33 -78h-448l32 98l117 23l82 459l-158 696z" />
<glyph unicode="Z" horiz-adv-x="962" d="M-37 0l12 70l775 1208h-379l-88 -297h-13q-50 0 -86 25l41 411l191 -20h602l-12 -70l-803 -1218l452 18l95 338h12q50 0 86 -25l-41 -440h-844z" />
<glyph unicode="[" horiz-adv-x="600" d="M43 -291l301 1708h336l-39 -112l-149 -11l-256 -1462l167 -10l-38 -113h-322z" />
<glyph unicode="\" horiz-adv-x="526" d="M127 1460q21 19 65 29t80 10l125 -1562q-21 -19 -65 -29t-80 -10z" />
<glyph unicode="]" horiz-adv-x="600" d="M-72 -291l39 113l150 10l256 1462l-168 11l39 112h321l-301 -1708h-336z" />
<glyph unicode="^" d="M39 492l418 751h147l154 -751q-34 -23 -92 -23l-177 559l-362 -559q-58 0 -88 23z" />
<glyph unicode="_" horiz-adv-x="768" d="M-109 -129h768v-150h-768v150z" />
<glyph unicode="`" d="M291 1495h203q10 -235 16 -354q-11 -8 -35 -14.5t-39 -6.5z" />
<glyph unicode="a" horiz-adv-x="882" d="M41 330q0 150 35 282t90.5 219t124 137t137.5 50q54 0 94.5 -28t91.5 -101l54 115q16 4 45 4q57 0 88 -21l-164 -858q82 0 162 25l6 -23q-54 -87 -101 -119t-96 -32q-116 0 -116 151h-11q-65 -87 -114 -119t-107 -32q-105 0 -162 91t-57 259zM225 336q0 -118 28 -167.5 t81 -49.5q36 0 71.5 26t88.5 95l114 596q-38 17 -100.5 30t-95.5 13q-23 0 -54.5 -41.5t-61 -110t-50.5 -174t-21 -217.5z" />
<glyph unicode="b" horiz-adv-x="854" d="M55 10l230 1315l-31 25q-40 32 -47 80l6 36l266 29l-108 -608h10q65 80 110.5 105.5t98.5 25.5q109 0 166 -90.5t57 -259.5q0 -121 -22.5 -230.5t-60.5 -191.5t-88 -143t-106.5 -92t-113.5 -31q-56 0 -98.5 23.5t-98.5 92.5l-45 -102q-12 -4 -37 -4q-61 0 -88 20z M246 170q123 -55 190 -55q42 0 88 81.5t76.5 212.5t30.5 259q0 112 -27 161.5t-86 49.5q-34 0 -72 -27t-98 -94z" />
<glyph unicode="c" horiz-adv-x="641" d="M41 342q0 178 59.5 333.5t163.5 249t225 93.5q94 0 162 -35q-3 -67 -35 -162q-32 0 -108 30t-100 30q-14 0 -36.5 -23.5t-47.5 -70.5t-47.5 -107.5t-37 -143.5t-14.5 -169q0 -238 142 -238q15 0 30 4t57 28t107 70l21 -30q-78 -118 -142.5 -169.5t-140.5 -51.5 q-117 0 -187.5 93t-70.5 269z" />
<glyph unicode="d" horiz-adv-x="890" d="M41 330q0 150 35 282t91.5 219t126.5 137t142 50q52 0 95.5 -26.5t99.5 -98.5l82 432l-31 25q-40 32 -47 80l6 36l268 29l-258 -1366q82 0 162 25l6 -23q-55 -86 -103.5 -118.5t-97.5 -32.5q-50 0 -82.5 38t-35.5 113h-11q-76 -93 -124 -122t-101 -29q-109 0 -166 90.5 t-57 259.5zM225 336q0 -116 27 -166.5t86 -50.5q34 0 72 27t98 94l113 596q-42 17 -106.5 30t-94.5 13q-26 0 -59 -41.5t-63.5 -110.5t-51.5 -173.5t-21 -217.5z" />
<glyph unicode="e" horiz-adv-x="739" d="M41 348q0 177 56 332t151.5 246.5t204.5 91.5q121 0 183 -75t62 -216q0 -62 -18 -121l-444 -94q-11 -72 -11 -141q0 -126 39.5 -184t118.5 -58q25 0 61 17.5t154 89.5l20 -29q-151 -227 -299 -227q-121 0 -199.5 92.5t-78.5 275.5zM250 596l285 80q4 40 4 72 q0 163 -113 163q-33 0 -47.5 -7.5t-28.5 -31.5q-72 -119 -100 -276z" />
<glyph unicode="f" horiz-adv-x="569" d="M-158 -315l25 118q40 -8 76 -8q29 0 57 8q12 3 23 31q24 62 49 176q18 83 28 144l121 731l-33 8q-35 10 -50 19.5t-23 23.5l14 61h111l8 50q37 203 137 325.5t227 122.5q53 0 93 -29l-25 -118q-50 8 -102 8q-48 0 -76 -8q-11 -4 -27 -45q-38 -105 -72 -306h193 q0 -56 -23 -112h-188l-129 -781q-33 -201 -127 -324.5t-205 -123.5q-56 0 -82 29z" />
<glyph unicode="g" horiz-adv-x="759" d="M-94 -268q0 57 48.5 112t203.5 170v9q-49 41 -49 100q0 46 31.5 90t121.5 104q-84 29 -131 100.5t-47 182.5q0 190 88.5 304t210.5 114q76 0 127 -21h256l-12 -63q-40 -37 -121 -37v-12q41 -73 41 -162q0 -189 -88 -303.5t-217 -114.5q-23 0 -33 2q-80 -72 -80 -123 q0 -26 12 -41l197 -41q94 -20 146.5 -65.5t52.5 -140.5q0 -97 -70 -178t-179.5 -125t-228.5 -44q-139 0 -209.5 50t-70.5 133zM70 -227q0 -50 46.5 -76.5t157.5 -26.5q64 0 126.5 16.5t101.5 41.5q24 40 24 88q0 51 -32 81.5t-105 49.5l-162 41q-94 -88 -125.5 -131.5 t-31.5 -83.5zM254 575q0 -101 24 -138.5t80 -37.5q27 0 48 7q7 2 18 14.5t25 40.5t26 65t20.5 96t8.5 126q0 100 -23.5 138t-79.5 38q-29 0 -47 -6q-7 -2 -18 -15t-25.5 -41t-27 -65.5t-21 -96t-8.5 -125.5z" />
<glyph unicode="h" horiz-adv-x="933" d="M53 2l232 1323l-31 25q-40 32 -47 80l6 36l266 29l-110 -625h10q71 85 129.5 116.5t126.5 31.5q77 0 133.5 -53t56.5 -148q0 -29 -6 -59l-121 -629q85 0 162 25l6 -23q-38 -62 -78.5 -97.5t-68.5 -44.5t-62 -9q-47 0 -82.5 22t-52.5 61l144 754q-34 43 -105 43 q-97 0 -209 -88l-135 -768q-32 -14 -84 -14q-56 0 -80 12z" />
<glyph unicode="i" horiz-adv-x="485" d="M70 68l147 780l-29 24q-40 32 -47 80l6 37l267 29l-168 -889q82 0 162 25l6 -23q-38 -62 -78.5 -97.5t-68.5 -44.5t-62 -9q-47 0 -82.5 23t-52.5 65zM260 1313q0 58 33.5 94.5t89.5 36.5q41 0 65.5 -27.5t24.5 -70.5q0 -58 -33.5 -95t-89.5 -37q-41 0 -65.5 28t-24.5 71z " />
<glyph unicode="j" horiz-adv-x="462" d="M-102 -412l170 389l151 871l-31 24q-40 32 -47 80l6 37l267 29l-154 -875q-25 -141 -47 -206.5t-68 -129.5l-182 -258q-46 5 -65 39zM260 1313q0 58 33.5 94.5t89.5 36.5q41 0 65.5 -27.5t24.5 -70.5q0 -58 -33.5 -95t-89.5 -37q-41 0 -65.5 28t-24.5 71z" />
<glyph unicode="k" horiz-adv-x="839" d="M53 2l232 1323l-31 25q-40 32 -47 80l6 36l264 29l-176 -1012h8q193 159 249 214.5t75 105.5q-38 89 -47 160v30q39 25 96 25q61 0 98 -40t37 -108q0 -42 -14 -77.5t-51.5 -76.5t-80.5 -78t-124 -99l80 -410q64 0 135 23l6 -23q-82 -149 -190 -149q-69 0 -103 67l-69 395 q-13 -9 -37.5 -26.5t-46.5 -32.5t-43 -29l-62 -350q-35 -14 -84 -14q-56 0 -80 12z" />
<glyph unicode="l" horiz-adv-x="473" d="M57 68l238 1257l-31 25q-40 32 -47 80l6 36l269 29l-259 -1366q82 0 162 25l6 -23q-56 -90 -105.5 -120.5t-102.5 -30.5q-47 0 -83 23.5t-53 64.5z" />
<glyph unicode="m" horiz-adv-x="1363" d="M70 2l147 846l-29 24q-40 32 -47 80l6 37l252 29l-22 -158h10q73 93 127.5 125.5t120.5 32.5q65 0 112.5 -41t59.5 -117q80 92 140.5 125t127.5 33q76 0 128 -52.5t52 -148.5q0 -29 -6 -59l-121 -629q82 0 162 25l6 -23q-38 -62 -78.5 -97.5t-68.5 -44.5t-62 -9 q-47 0 -82.5 22t-52.5 61l144 754q-34 43 -92 43q-46 0 -90.5 -19.5t-106.5 -68.5l-135 -768q-38 -14 -84 -14q-56 0 -80 12l143 819q-35 39 -88 39q-46 0 -88.5 -19.5t-105.5 -68.5l-136 -768q-38 -14 -83 -14q-56 0 -80 12z" />
<glyph unicode="n" horiz-adv-x="944" d="M70 2l147 846l-29 24q-40 32 -47 80l6 37l252 29l-22 -158h10q72 91 131 124.5t127 33.5q77 0 134 -53t57 -148q0 -24 -7 -59l-120 -629q81 0 161 25l7 -23q-38 -62 -78.5 -97.5t-68.5 -44.5t-62 -9q-47 0 -83 22t-53 61l144 754q-34 43 -103 43q-92 0 -204 -88 l-136 -768q-38 -14 -83 -14q-56 0 -80 12z" />
<glyph unicode="o" horiz-adv-x="819" d="M41 352q0 119 29.5 235.5t83.5 213.5t140.5 157t190.5 60q145 0 219 -98t74 -275q0 -119 -29.5 -235.5t-83.5 -213t-140.5 -156.5t-190.5 -60q-145 0 -219 97.5t-74 274.5zM225 338q0 -135 37.5 -190.5t110.5 -55.5q43 0 65 10q10 4 27.5 29t40 74t42 112t33 154 t13.5 188q0 135 -37.5 190.5t-110.5 55.5q-42 0 -65 -10q-10 -4 -27.5 -29t-40 -74t-42 -112t-33 -154t-13.5 -188z" />
<glyph unicode="p" horiz-adv-x="870" d="M-6 -430l223 1278l-29 24q-40 32 -47 80l6 37l252 29l-20 -139h10q66 84 113.5 111.5t103.5 27.5q109 0 166 -90.5t57 -259.5q0 -121 -22.5 -230.5t-60.5 -191.5t-88 -143t-106.5 -92t-113.5 -31q-54 0 -94.5 21.5t-95.5 84.5l-92 -514q-32 -14 -78 -14q-54 0 -84 12z M262 170q123 -55 191 -55q42 0 87.5 81.5t76 210.5t30.5 255q0 116 -26.5 166.5t-85.5 50.5q-67 0 -170 -121z" />
<glyph unicode="q" horiz-adv-x="860" d="M41 330q0 150 35 282t91.5 219t126.5 137t142 50q51 0 92.5 -26t98.5 -99l45 111q20 4 49 4q53 0 84 -21l-248 -1415q-32 -14 -84 -14q-56 0 -80 12l96 545h-10q-64 -80 -114 -107.5t-101 -27.5q-109 0 -166 90.5t-57 259.5zM225 336q0 -116 27 -166.5t86 -50.5 q34 0 73.5 27.5t98.5 93.5l104 596q-43 17 -104 30t-90 13q-26 0 -59 -41.5t-63.5 -110.5t-51.5 -173.5t-21 -217.5z" />
<glyph unicode="r" horiz-adv-x="602" d="M70 2l147 846l-29 24q-40 32 -47 80l6 37l252 29l-22 -162h10q77 100 117.5 131t77.5 31q26 0 43 -14v-148q-69 -43 -256 -80l-136 -772q-38 -14 -83 -14q-56 0 -80 12z" />
<glyph unicode="s" horiz-adv-x="661" d="M33 18q0 29 9 76t21 74q46 -26 110 -41.5t118 -15.5q25 0 41 4q13 3 27 38t14 76q0 48 -25 92t-61 81.5t-72 77.5t-61 96.5t-25 121.5q0 134 95.5 227t228.5 93q84 0 163 -21q-6 -73 -34 -149q-39 16 -102 27.5t-105 11.5q-13 0 -33 -4q-13 -3 -28 -39.5t-15 -77.5 q0 -47 25 -92.5t61 -84t72 -79.5t61 -96t25 -117q0 -132 -94 -224.5t-220 -92.5q-107 0 -196 38z" />
<glyph unicode="t" horiz-adv-x="600" d="M96 156q0 26 8 80l113 647l-78 41l6 26q37 68 107.5 129t140.5 86h37l-29 -168h205q0 -59 -22 -112h-203l-111 -639q-6 -37 -6 -58q0 -31 15 -47t38 -16q33 0 150 55l22 -39q-71 -90 -125 -125.5t-112 -35.5q-75 0 -115.5 45t-40.5 131z" />
<glyph unicode="u" horiz-adv-x="937" d="M96 180q0 30 6 60l117 608l-31 24q-40 32 -47 80l6 37l269 29l-160 -838q31 -43 102 -43q84 0 197 88l135 768q34 15 84 15q51 0 80 -13l-152 -866q84 0 164 25l6 -23q-56 -90 -105.5 -120.5t-102.5 -30.5q-50 0 -79.5 38t-29.5 119h-10q-71 -91 -131 -124t-127 -33 q-77 0 -134 52.5t-57 147.5z" />
<glyph unicode="v" horiz-adv-x="776" d="M39 854q47 94 92.5 129t95.5 35q34 0 59.5 -22t37.5 -60l55 -670h12l244 578l-98 84l2 8q12 40 30 61h250v-63l-436 -934l-127 -20l-102 886q-40 0 -105 -35z" />
<glyph unicode="w" horiz-adv-x="1204" d="M49 854q47 94 93 129t96 35q34 0 59 -21.5t37 -60.5l20 -655h13l254 610l-9 92q64 25 168 25l37 -727h12l226 563l-99 84l2 8q11 38 31 61h246v-63l-422 -934l-127 -20l-37 688h-12l-279 -668l-127 -20l-67 886q-40 0 -105 -35z" />
<glyph unicode="x" horiz-adv-x="835" d="M-4 0v63l330 441l-115 362q-49 0 -115 -35l-10 23q47 95 90 129.5t92 34.5q82 0 107 -94l92 -326l156 256l-80 74l2 8q12 40 30 61h250v-63l-313 -432l117 -371q48 0 114 35l11 -23q-47 -95 -90.5 -129t-92.5 -34q-39 0 -64.5 19.5t-41.5 74.5l-94 334l-172 -265l80 -73 l-3 -9q-12 -40 -30 -61h-250z" />
<glyph unicode="y" horiz-adv-x="776" d="M35 854q47 94 92.5 129t95.5 35q34 0 59 -21.5t37 -60.5l52 -723h12l248 631l-99 84l3 8q12 40 30 61h250v-63l-508 -1153l-63 -232q-32 0 -79.5 14t-64.5 34v49q9 52 45 117.5t150 236.5h-55l-90 866q-40 0 -105 -35z" />
<glyph unicode="z" horiz-adv-x="763" d="M12 53l529 797h-373q0 88 29 168l129 -21h426v-71l-496 -719l365 -88q-3 -75 -25 -139l-440 73l-56 -73q-28 8 -53 28t-35 45z" />
<glyph unicode="{" horiz-adv-x="481" d="M-37 -74q0 51 24.5 108.5t60 107t71 95.5t60 89.5t24.5 74.5q0 54 -38 77.5t-120 23.5l23 123q97 0 146.5 26.5t49.5 93.5q0 45 -42 178t-42 214q0 101 54 170.5t139.5 100t195.5 30.5q0 -60 -32 -113l-158 -20q-35 -61 -35 -129q0 -77 40 -207.5t40 -194.5 q0 -85 -55 -135.5t-148 -69.5v-12q141 -28 141 -158q0 -48 -25.5 -102t-62 -103t-72.5 -99t-61.5 -108t-25.5 -112q0 -21 4 -53l168 -21q-9 -57 -37 -112q-136 0 -211.5 64t-75.5 173z" />
<glyph unicode="|" horiz-adv-x="481" d="M164 -451v1946q27 12 78 12q48 0 75 -12v-1946q-27 -12 -75 -12q-51 0 -78 12z" />
<glyph unicode="}" horiz-adv-x="481" d="M-74 -311q0 58 33 112l158 21q35 61 35 129q0 77 -40 207t-40 194q0 85 55 136t147 69v12q-141 28 -141 158q0 48 25.5 102t62 103t73 99t62 108t25.5 112q0 22 -4 54l-168 20q9 59 37 113q136 0 211 -64.5t75 -173.5q0 -51 -24.5 -108.5t-59.5 -107t-70.5 -95.5 t-60 -89.5t-24.5 -74.5q0 -53 37.5 -76.5t120.5 -23.5l-23 -123q-97 0 -147 -27t-50 -94q0 -45 42 -177.5t42 -213.5q0 -101 -54 -170.5t-139.5 -100t-195.5 -30.5z" />
<glyph unicode="~" d="M37 395q75 114 122 171t75 74t61 17q40 0 135 -45t115 -45q26 0 57.5 24.5t102.5 108.5l57 -34q-73 -111 -122.5 -170t-76 -74.5t-55.5 -15.5q-41 0 -136 45t-116 45q-28 0 -60 -25.5t-102 -110.5z" />
<glyph unicode="&#xa1;" horiz-adv-x="497" d="M-12 -420l237 1002h94l-114 -981q-82 -21 -217 -21zM201 868q0 67 35 108.5t92 41.5q44 0 72 -31t28 -82q0 -67 -35 -108t-92 -41q-45 0 -72.5 30.5t-27.5 81.5z" />
<glyph unicode="&#xa2;" horiz-adv-x="860" d="M104 362q0 92 19 181.5t58.5 170.5t95 142.5t134.5 98t171 36.5h12l135 365q43 0 70 -27l-129 -348q47 -8 92 -23q-9 -74 -31 -137q-54 19 -141 35t-129 16q-22 0 -53.5 -44.5t-61.5 -113t-51 -165t-21 -187.5q0 -229 183 -229q105 0 190 94l19 -37q-93 -184 -279 -184 q-23 0 -33 2l-131 -356q-43 0 -69 26l127 347q-85 34 -131 121.5t-46 215.5z" />
<glyph unicode="&#xa3;" horiz-adv-x="860" d="M-23 66q82 76 203 116q36 48 51 100.5t15 133.5q0 69 -2 110h-189q0 43 15 78h170q-10 132 -11 172h-129q0 44 15 78h112v49q0 245 104 379.5t269 134.5q105 0 172.5 -56.5t67.5 -154.5q0 -72 -43 -130.5t-111 -71.5q-78 19 -78 90q0 45 36 76.5t95 37.5q-5 47 -46 76 t-111 29q-44 0 -76 -8q-8 -2 -19 -13.5t-25.5 -38.5t-26 -65t-19.5 -100.5t-8 -137.5v-96h229q0 -46 -14 -78h-211l8 -172h172q0 -46 -14 -78h-156q2 -31 2 -86q0 -79 -28.5 -135t-106.5 -115v-10l237 -35l76 166h10q44 0 70 -20l-43 -311l-483 67l-158 -67q-8 12 -14.5 39 t-6.5 47z" />
<glyph unicode="&#xa4;" d="M12 109l123 172q-61 109 -61 270q0 162 61 278l-123 172q30 55 97 86l112 -153q77 61 178 61t181 -61l112 153q66 -30 96 -86l-122 -172q61 -113 61 -270q0 -165 -61 -278l122 -172q-30 -56 -96 -86l-112 153q-73 -61 -181 -61q-105 0 -178 61l-112 -153q-67 31 -97 86z M219 555q0 -295 182 -295q181 0 181 295t-181 295q-182 0 -182 -295z" />
<glyph unicode="&#xa5;" horiz-adv-x="860" d="M90 0l35 98l129 23l43 252h-195q0 43 17 78h192l25 135l-8 37h-181q0 42 17 77h149l-112 576l-72 22l2 15q10 50 37 84h371l-35 -99l-109 -22l84 -528h13l284 528l-121 22l2 15q10 50 37 84h320l-35 -99l-68 -22l-327 -576h151q0 -46 -16 -77h-178l-21 -37l-24 -135h194 q0 -47 -16 -78h-193l-43 -252l137 -23l-2 -14q-10 -51 -36 -84h-447z" />
<glyph unicode="&#xa6;" horiz-adv-x="481" d="M164 356q29 13 78 13q46 0 75 -13v-807q-27 -12 -75 -12q-51 0 -78 12v807zM164 688v807q27 12 78 12q48 0 75 -12v-807q-27 -12 -75 -12q-51 0 -78 12z" />
<glyph unicode="&#xa7;" d="M-20 -133q0 72 43 131t110 72q78 -19 78 -90q0 -45 -36 -77t-95 -38q5 -46 48 -75.5t108 -29.5q33 0 69 9q8 2 23 19t30.5 45t27 71t11.5 88q0 109 -70.5 204.5t-258.5 215.5q8 47 28 88l250 262q-100 118 -100 264q0 162 94.5 276.5t245.5 114.5q99 0 165 -57t66 -154 q0 -72 -42.5 -130.5t-110.5 -71.5q-78 19 -78 90q0 45 36 76.5t95 37.5q-5 46 -48 75.5t-108 29.5q-37 0 -69 -8q-8 -2 -23 -19.5t-31 -45.5t-27.5 -71t-11.5 -88q0 -108 71 -203t259 -216q-8 -45 -29 -89l-251 -264q102 -117 102 -262q0 -162 -94.5 -276.5t-245.5 -114.5 q-99 0 -165 57t-66 154zM233 498q114 -87 154 -125l176 202q-89 65 -153 123z" />
<glyph unicode="&#xa8;" d="M168 1235q0 57 27.5 91t78.5 34q38 0 61 -26t23 -66q0 -57 -27.5 -91t-78.5 -34q-38 0 -61 26t-23 66zM438 1235q0 57 28 91t79 34q38 0 61 -26t23 -66q0 -57 -28 -91t-79 -34q-38 0 -61 26t-23 66z" />
<glyph unicode="&#xa9;" horiz-adv-x="1187" d="M94 504q0 114 17 224t49.5 213t85 189t119.5 150.5t157 100.5t193 36q203 0 327.5 -138t124.5 -386q0 -114 -17 -224t-50 -213t-85.5 -189t-119.5 -150.5t-157 -100.5t-193 -36q-203 0 -327 138t-124 386zM184 518q0 -215 100.5 -332.5t270.5 -117.5q109 0 198.5 51 t148.5 133.5t99.5 190t58 217.5t17.5 219q0 214 -101 332t-271 118q-109 0 -198.5 -51t-148 -133.5t-99 -190t-58 -217.5t-17.5 -219zM371 604q0 188 95 319.5t236 131.5q91 0 168 -25l-28 -203q-24 -12 -56 -12h-10l-12 148q-37 16 -86 16q-29 0 -49 -4q-15 -3 -36.5 -32.5 t-43.5 -76.5t-37.5 -117.5t-15.5 -144.5q0 -88 36 -134t99 -46q33 0 67 12l47 154h11q33 0 51 -12l-21 -181q-67 -55 -172 -55q-106 0 -174.5 70t-68.5 192z" />
<glyph unicode="&#xaa;" horiz-adv-x="634" d="M125 918q0 208 87.5 348.5t193.5 140.5q72 0 139 -90l45 86q74 0 102 -17l-114 -598q43 0 106 17l6 -23q-43 -61 -75.5 -83.5t-67.5 -22.5q-38 0 -64 25.5t-26 78.5h-8q-50 -61 -84 -82.5t-72 -21.5q-75 0 -121.5 63.5t-46.5 178.5zM270 918q0 -134 76 -134q46 0 107 56 l84 432q-93 28 -136 28q-27 0 -57 -47.5t-52 -138.5t-22 -196z" />
<glyph unicode="&#xab;" horiz-adv-x="686" d="M39 494l2 18l305 387l62 -12l-172 -383l34 -385l-61 -13zM324 494l2 18l305 387l61 -12l-172 -383l35 -385l-61 -13z" />
<glyph unicode="&#xac;" d="M51 653v150h678v-594h-151v444h-527z" />
<glyph unicode="&#xad;" horiz-adv-x="382" d="M31 424l24 149h297l-24 -149h-297z" />
<glyph unicode="&#xae;" horiz-adv-x="626" d="M133 961q0 69 12 134t38 123.5t62.5 102.5t90 70t117.5 26q103 0 168 -70t65 -194q0 -87 -19.5 -167t-57.5 -145.5t-100.5 -105t-141.5 -39.5q-103 0 -168.5 70.5t-65.5 194.5zM186 967q0 -106 50 -161.5t137 -55.5q54 0 99 24.5t74 64.5t49.5 92.5t29 106.5t8.5 109 q0 106 -50 161.5t-137 55.5q-54 0 -99 -24.5t-74 -64.5t-49.5 -92.5t-29 -106.5t-8.5 -109zM266 879l8 30l29 4l51 287l-30 4l2 8q4 14 10 23h104q43 0 65.5 -22.5t22.5 -63.5q0 -35 -16.5 -62.5t-46.5 -39.5l43 -156q-14 -17 -37 -17l-65 154l-27 -6l-21 -109l31 -4l-2 -8 q-4 -16 -10 -22h-111zM385 1057l51 6q35 28 35 86q0 51 -37 51h-24z" />
<glyph unicode="&#xaf;" d="M205 1184l26 149h359l-27 -149h-358z" />
<glyph unicode="&#xb0;" horiz-adv-x="514" d="M127 1059q0 94 25.5 172.5t85.5 132t147 53.5q84 0 137 -58t53 -161q0 -94 -25.5 -172.5t-85.5 -132t-147 -53.5q-84 0 -137 58t-53 161zM238 1063q0 -119 92 -119q68 0 101.5 72.5t33.5 177.5q0 119 -92 119q-68 0 -101.5 -72.5t-33.5 -177.5z" />
<glyph unicode="&#xb1;" d="M80 0v139h637v-139h-637zM82 608v140h250v364h135v-364h250v-140h-250v-366h-135v366h-250z" />
<glyph unicode="&#xb2;" horiz-adv-x="696" d="M119 946l22 133q241 200 327.5 308.5t86.5 216.5q0 71 -36 109t-97 38q-82 0 -127 -63l-39 24q63 156 236 156q102 0 169.5 -65t67.5 -177q0 -135 -98 -249t-348 -290v-10q217 25 315 25q59 0 59 -55q0 -47 -24 -101h-514z" />
<glyph unicode="&#xb3;" horiz-adv-x="696" d="M166 1016q180 27 268 79.5t88 137.5q0 62 -34 90.5t-109 28.5h-82l18 104h82q87 0 138 41.5t51 126.5q0 62 -36 94.5t-99 32.5q-76 0 -125 -63l-39 24q28 71 86 113.5t143 42.5q107 0 173.5 -65.5t66.5 -166.5q0 -78 -46 -138.5t-128 -84.5v-10q46 -17 78 -59.5 t32 -104.5q0 -278 -510 -313q-16 32 -16 90z" />
<glyph unicode="&#xb4;" d="M223 1141l135 354h222l-285 -375q-15 0 -39.5 6.5t-32.5 14.5z" />
<glyph unicode="&#xb6;" horiz-adv-x="835" d="M2 -152q0 80 39 140.5t113 74.5q40 -7 62 -32t22 -62q0 -54 -39 -82t-97 -28q0 -42 30.5 -67t86.5 -25q55 0 96 20q21 10 47 81t48 195l92 531l-119 10q-128 11 -194 86.5t-66 214.5q0 141 52.5 251.5t157 175.5t247.5 65h352l-33 -99l-125 -22l-209 -1180 q-78 -440 -348 -440q-91 0 -153 49t-62 143z" />
<glyph unicode="&#xb7;" horiz-adv-x="368" d="M61 481q0 71 36 114.5t96 43.5q44 0 72 -33.5t28 -87.5q0 -71 -35.5 -114.5t-93.5 -43.5q-46 0 -74.5 34.5t-28.5 86.5z" />
<glyph unicode="&#xb8;" d="M262 -381q78 21 112 44t34 58q0 56 -82 78l4 25l94 110h51l-31 -67q48 -27 69.5 -58.5t21.5 -78.5q0 -70 -71 -123.5t-190 -57.5q-12 27 -12 70z" />
<glyph unicode="&#xb9;" horiz-adv-x="696" d="M180 946l27 96l180 15l119 667l-82 17q-43 10 -53 33l12 73h307l-139 -790l149 -15l-2 -10q-11 -63 -26 -86h-492z" />
<glyph unicode="&#xba;" horiz-adv-x="634" d="M129 940q0 113 40.5 219.5t121 179t182.5 72.5q108 0 165.5 -70t57.5 -194q0 -113 -40.5 -219.5t-121 -179t-182.5 -72.5q-108 0 -165.5 70t-57.5 194zM274 930q0 -94 27.5 -130t81.5 -36q33 0 49 8q7 4 20 20t30.5 50t32.5 76.5t25.5 106t10.5 132.5q0 94 -27.5 130 t-81.5 36q-33 0 -49 -8q-7 -4 -20 -20t-30.5 -50t-32.5 -76.5t-25.5 -106t-10.5 -132.5z" />
<glyph unicode="&#xbb;" horiz-adv-x="686" d="M-8 121l172 383l-35 385l61 12l170 -387l-2 -18l-305 -387zM276 121l173 383l-35 385l61 12l170 -387l-2 -18l-305 -387z" />
<glyph unicode="&#xbc;" horiz-adv-x="1761" d="M109 496l26 96l180 14l119 668l-82 16q-43 10 -53 33l12 74h307l-139 -791l150 -14l-2 -10q-11 -60 -27 -86h-491zM461 -111l721 1606q74 0 121 -41l-721 -1606q-74 0 -121 41zM1092 186l26 148l330 588q23 0 59.5 -10t46.5 -21l-335 -586h219l53 297h162l-51 -297h75 l-2 -12q-9 -64 -37 -107h-57l-33 -186h-164l33 186h-325z" />
<glyph unicode="&#xbd;" horiz-adv-x="1761" d="M109 496l26 96l180 14l119 668l-82 16q-43 10 -53 33l12 74h307l-139 -791l150 -14l-2 -10q-11 -60 -27 -86h-491zM461 -111l721 1606q74 0 121 -41l-721 -1606q-74 0 -121 41zM1051 0l22 133q242 200 328 308t86 216q0 71 -36 109.5t-97 38.5q-81 0 -127 -64l-39 25 q63 156 235 156q102 0 170 -65t68 -177q0 -92 -47.5 -174.5t-139 -164t-260.5 -200.5v-10q217 25 316 25q59 0 59 -56q0 -46 -24 -100h-514z" />
<glyph unicode="&#xbe;" horiz-adv-x="1761" d="M94 565q180 27 268.5 79.5t88.5 137.5q0 62 -34.5 90.5t-109.5 28.5h-82l19 105h82q87 0 137.5 41.5t50.5 126.5q0 62 -36 94t-99 32q-76 0 -125 -63l-39 25q28 71 85.5 113t143.5 42q108 0 174 -65t66 -166q0 -78 -46 -138.5t-128 -84.5v-11q46 -17 78.5 -59.5 t32.5 -104.5q0 -278 -510 -313q-17 34 -17 90zM461 -111l721 1606q74 0 121 -41l-721 -1606q-74 0 -121 41zM1092 186l26 148l330 588q23 0 59.5 -10t46.5 -21l-335 -586h219l53 297h162l-51 -297h75l-2 -12q-9 -64 -37 -107h-57l-33 -186h-164l33 186h-325z" />
<glyph unicode="&#xbf;" horiz-adv-x="696" d="M-35 -135q0 148 89.5 253t279.5 195l59 269h74l51 -211q-11 -52 -39 -88q-315 -140 -315 -381q0 -88 39 -136.5t106 -48.5q88 0 140 86l38 -20q-64 -203 -258 -203q-108 0 -186 78.5t-78 206.5zM371 868q0 67 35 108.5t92 41.5q44 0 72 -31t28 -82q0 -67 -35 -108 t-92 -41q-45 0 -72.5 30.5t-27.5 81.5z" />
<glyph unicode="&#xc0;" horiz-adv-x="954" d="M-129 0l33 98l67 23l598 1276l125 20l135 -1296l101 -23l-4 -20q-9 -48 -33 -78h-406l33 98l117 23l-35 405l-319 -20l-168 -385l153 -23l-4 -20q-9 -48 -33 -78h-360zM334 618h260l-41 465h-16zM401 1720h199l62 -239q-12 -12 -32.5 -23t-33.5 -12z" />
<glyph unicode="&#xc1;" horiz-adv-x="954" d="M-129 0l33 98l67 23l598 1276l125 20l135 -1296l101 -23l-4 -20q-9 -48 -33 -78h-406l33 98l117 23l-35 405l-319 -20l-168 -385l153 -23l-4 -20q-9 -48 -33 -78h-360zM334 618h260l-41 465h-16zM598 1481l139 239h215l-293 -274q-15 2 -35 13t-26 22z" />
<glyph unicode="&#xc2;" horiz-adv-x="954" d="M-129 0l33 98l67 23l598 1276l125 20l135 -1296l101 -23l-4 -20q-9 -48 -33 -78h-406l33 98l117 23l-35 405l-319 -20l-168 -385l153 -23l-4 -20q-9 -48 -33 -78h-360zM334 618h260l-41 465h-16zM418 1485l200 235h127l119 -235q-9 -12 -30 -24.5t-33 -14.5l-144 137 l-184 -137q-14 3 -31.5 15t-23.5 24z" />
<glyph unicode="&#xc3;" horiz-adv-x="954" d="M-129 0l33 98l67 23l598 1276l125 20l135 -1296l101 -23l-4 -20q-9 -48 -33 -78h-406l33 98l117 23l-35 405l-319 -20l-168 -385l153 -23l-4 -20q-9 -48 -33 -78h-360zM334 618h260l-41 465h-16zM389 1489q54 99 84 142t51 56t54 13q26 0 96 -38t90 -38q22 0 41 15.5 t76 84.5l49 -36q-74 -135 -109.5 -173t-75.5 -38q-29 0 -99 37.5t-89 37.5q-23 0 -42.5 -16.5t-76.5 -83.5z" />
<glyph unicode="&#xc4;" horiz-adv-x="954" d="M-129 0l33 98l67 23l598 1276l125 20l135 -1296l101 -23l-4 -20q-9 -48 -33 -78h-406l33 98l117 23l-35 405l-319 -20l-168 -385l153 -23l-4 -20q-9 -48 -33 -78h-360zM334 618h260l-41 465h-16zM424 1544q0 51 26 82t74 31q35 0 56.5 -24t21.5 -60q0 -49 -26 -81 t-74 -32q-35 0 -56.5 24t-21.5 60zM680 1544q0 51 26 82t74 31q35 0 56.5 -24t21.5 -60q0 -49 -26 -81t-74 -32q-35 0 -56.5 24t-21.5 60z" />
<glyph unicode="&#xc5;" horiz-adv-x="954" d="M-129 0l33 98l67 23l596 1272q-80 33 -80 137q0 88 50.5 144.5t138.5 56.5q63 0 102 -40.5t39 -109.5t-31.5 -119.5t-89.5 -70.5l133 -1270l101 -23l-4 -20q-9 -48 -33 -78h-406l33 98l117 23l-35 405l-319 -20l-168 -385l153 -23l-4 -20q-9 -48 -33 -78h-360zM334 618 h260l-41 465h-16zM567 1532q0 -39 19.5 -58.5t54.5 -19.5q47 0 71.5 34.5t24.5 90.5q0 78 -73 78q-47 0 -72 -35t-25 -90z" />
<glyph unicode="&#xc6;" horiz-adv-x="1425" d="M-129 0l33 98l104 23l494 1155l-129 22l4 21q9 48 33 78h817l198 20l-43 -368q-39 -25 -86 -25h-12l-35 254h-268l-92 -510h297q0 -66 -25 -131l-127 12h-166l-96 -540l299 18l94 270h13q52 0 86 -24l-41 -373h-787l33 98l119 23l94 528h-309l-217 -528l123 -23l-5 -20 q-10 -50 -32 -78h-371zM424 768h278l93 510h-162z" />
<glyph unicode="&#xc7;" horiz-adv-x="1005" d="M72 510q0 253 77 459t221 327t328 121q181 0 308 -45l-45 -379q-38 -24 -87 -24h-12l-39 288q-82 29 -172 29q-77 0 -121 -10q-29 -7 -70 -73t-81 -167t-68 -243.5t-28 -282.5q0 -201 69 -298t211 -97q83 0 133 28l88 258h13q51 0 86 -24l-33 -299q-56 -48 -142.5 -73 t-175.5 -25q-209 0 -334.5 138t-125.5 392zM311 -381q78 21 112 44t34 58q0 56 -82 78l4 25l94 110h51l-30 -67q48 -26 69 -58t21 -79q0 -70 -70.5 -123.5t-189.5 -57.5q-13 29 -13 70z" />
<glyph unicode="&#xc8;" horiz-adv-x="960" d="M-29 0l33 98l117 23l207 1155l-148 22l4 21q9 48 33 78h545l199 20l-43 -368q-39 -25 -87 -25h-12l-35 254h-268l-92 -510h297q0 -66 -25 -131l-127 12h-166l-96 -540l299 18l94 270h13q51 0 86 -24l-41 -373h-787zM385 1720h199l61 -239q-12 -12 -32 -23t-33 -12z" />
<glyph unicode="&#xc9;" horiz-adv-x="960" d="M-29 0l33 98l117 23l207 1155l-148 22l4 21q9 48 33 78h545l199 20l-43 -368q-39 -25 -87 -25h-12l-35 254h-268l-92 -510h297q0 -66 -25 -131l-127 12h-166l-96 -540l299 18l94 270h13q51 0 86 -24l-41 -373h-787zM555 1481l139 239h215l-293 -274q-15 2 -35 13t-26 22z " />
<glyph unicode="&#xca;" horiz-adv-x="960" d="M-29 0l33 98l117 23l207 1155l-148 22l4 21q9 48 33 78h545l199 20l-43 -368q-39 -25 -87 -25h-12l-35 254h-268l-92 -510h297q0 -66 -25 -131l-127 12h-166l-96 -540l299 18l94 270h13q51 0 86 -24l-41 -373h-787zM371 1485l200 235h127l119 -235q-9 -12 -30 -24.5 t-33 -14.5l-144 137l-184 -137q-14 3 -31.5 15t-23.5 24z" />
<glyph unicode="&#xcb;" horiz-adv-x="960" d="M-29 0l33 98l117 23l207 1155l-148 22l4 21q9 48 33 78h545l199 20l-43 -368q-39 -25 -87 -25h-12l-35 254h-268l-92 -510h297q0 -66 -25 -131l-127 12h-166l-96 -540l299 18l94 270h13q51 0 86 -24l-41 -373h-787zM395 1544q0 51 26.5 82t74.5 31q35 0 56 -24t21 -60 q0 -49 -26 -81t-74 -32q-35 0 -56.5 24t-21.5 60zM651 1544q0 51 26.5 82t74.5 31q35 0 56 -24t21 -60q0 -49 -26 -81t-74 -32q-35 0 -56.5 24t-21.5 60z" />
<glyph unicode="&#xcc;" horiz-adv-x="579" d="M-29 0l33 98l117 23l207 1155l-148 22l4 21q9 48 33 78h449l-33 -99l-117 -22l-207 -1155l148 -23l-4 -20q-9 -48 -33 -78h-449zM229 1720h199l61 -239q-12 -12 -32 -23t-33 -12z" />
<glyph unicode="&#xcd;" horiz-adv-x="579" d="M-29 0l33 98l117 23l207 1155l-148 22l4 21q9 48 33 78h449l-33 -99l-117 -22l-207 -1155l148 -23l-4 -20q-9 -48 -33 -78h-449zM397 1481l140 239h215l-293 -274q-15 2 -35.5 13t-26.5 22z" />
<glyph unicode="&#xce;" horiz-adv-x="579" d="M-29 0l33 98l117 23l207 1155l-148 22l4 21q9 48 33 78h449l-33 -99l-117 -22l-207 -1155l148 -23l-4 -20q-9 -48 -33 -78h-449zM229 1485l201 235h127l119 -235q-9 -12 -30.5 -24.5t-33.5 -14.5l-143 137l-184 -137q-14 4 -32.5 15.5t-23.5 23.5z" />
<glyph unicode="&#xcf;" horiz-adv-x="579" d="M-29 0l33 98l117 23l207 1155l-148 22l4 21q9 48 33 78h449l-33 -99l-117 -22l-207 -1155l148 -23l-4 -20q-9 -48 -33 -78h-449zM236 1544q0 51 26 82t74 31q35 0 56.5 -24t21.5 -60q0 -49 -26.5 -81t-74.5 -32q-35 0 -56 24t-21 60zM492 1544q0 51 26 82t74 31 q35 0 56.5 -24t21.5 -60q0 -49 -26.5 -81t-74.5 -32q-35 0 -56 24t-21 60z" />
<glyph unicode="&#xd0;" horiz-adv-x="1112" d="M-29 0l33 98l117 23l92 516h-86q0 69 25 139h86l90 500l-148 22l4 21q9 48 33 78h408q217 0 345 -134t128 -393q0 -238 -90 -439t-241 -316t-327 -115h-469zM309 127l164 -23q80 13 154 71.5t133 154.5t94 236.5t35 303.5q0 116 -22.5 198.5t-64 128.5t-93.5 66.5 t-119 20.5h-72l-92 -508h125q0 -69 -25 -139h-125z" />
<glyph unicode="&#xd1;" horiz-adv-x="1193" d="M-29 0l33 98l117 23l215 1155l-148 22l5 21q10 50 32 78h340l273 -979h16l152 858l-170 22l4 21q10 50 32 78h414l-33 -99l-104 -22l-238 -1276l-118 -20l-340 1122h-17l-172 -981l160 -23l-4 -20q-9 -48 -33 -78h-416zM512 1489q55 99 84 141.5t50 56t54 13.5 q26 0 97 -38t90 -38q22 0 41 15.5t76 84.5l49 -36q-74 -135 -109.5 -173t-75.5 -38q-29 0 -99 37.5t-89 37.5q-23 0 -42.5 -16.5t-76.5 -83.5z" />
<glyph unicode="&#xd2;" horiz-adv-x="1093" d="M72 510q0 195 44.5 364.5t122 288.5t185.5 186.5t231 67.5q198 0 311 -133t113 -397q0 -195 -44.5 -364.5t-122 -288.5t-185.5 -186.5t-231 -67.5q-198 0 -311 133t-113 397zM281 504q0 -115 17 -195t51.5 -126t80 -66.5t107.5 -20.5q54 0 86 8q9 2 26 19.5t40 52 t47.5 81.5t48.5 114t43 143t30.5 175t11.5 204q0 115 -17 194.5t-51.5 126t-80 66.5t-107.5 20q-54 0 -86 -8q-9 -2 -26 -19.5t-40 -52t-47.5 -81t-48.5 -113.5t-43 -143t-30.5 -175t-11.5 -204zM467 1720h199l61 -239q-12 -12 -32 -23t-33 -12z" />
<glyph unicode="&#xd3;" horiz-adv-x="1093" d="M72 510q0 195 44.5 364.5t122 288.5t185.5 186.5t231 67.5q198 0 311 -133t113 -397q0 -195 -44.5 -364.5t-122 -288.5t-185.5 -186.5t-231 -67.5q-198 0 -311 133t-113 397zM281 504q0 -115 17 -195t51.5 -126t80 -66.5t107.5 -20.5q54 0 86 8q9 2 26 19.5t40 52 t47.5 81.5t48.5 114t43 143t30.5 175t11.5 204q0 115 -17 194.5t-51.5 126t-80 66.5t-107.5 20q-54 0 -86 -8q-9 -2 -26 -19.5t-40 -52t-47.5 -81t-48.5 -113.5t-43 -143t-30.5 -175t-11.5 -204zM623 1481l139 239h215l-293 -274q-15 2 -35 13t-26 22z" />
<glyph unicode="&#xd4;" horiz-adv-x="1093" d="M72 510q0 195 44.5 364.5t122 288.5t185.5 186.5t231 67.5q198 0 311 -133t113 -397q0 -195 -44.5 -364.5t-122 -288.5t-185.5 -186.5t-231 -67.5q-198 0 -311 133t-113 397zM281 504q0 -115 17 -195t51.5 -126t80 -66.5t107.5 -20.5q54 0 86 8q9 2 26 19.5t40 52 t47.5 81.5t48.5 114t43 143t30.5 175t11.5 204q0 115 -17 194.5t-51.5 126t-80 66.5t-107.5 20q-54 0 -86 -8q-9 -2 -26 -19.5t-40 -52t-47.5 -81t-48.5 -113.5t-43 -143t-30.5 -175t-11.5 -204zM451 1485l200 235h127l119 -235q-9 -12 -30 -24.5t-33 -14.5l-144 137 l-184 -137q-14 3 -31.5 15t-23.5 24z" />
<glyph unicode="&#xd5;" horiz-adv-x="1093" d="M72 510q0 195 44.5 364.5t122 288.5t185.5 186.5t231 67.5q198 0 311 -133t113 -397q0 -195 -44.5 -364.5t-122 -288.5t-185.5 -186.5t-231 -67.5q-198 0 -311 133t-113 397zM281 504q0 -115 17 -195t51.5 -126t80 -66.5t107.5 -20.5q54 0 86 8q9 2 26 19.5t40 52 t47.5 81.5t48.5 114t43 143t30.5 175t11.5 204q0 115 -17 194.5t-51.5 126t-80 66.5t-107.5 20q-54 0 -86 -8q-9 -2 -26 -19.5t-40 -52t-47.5 -81t-48.5 -113.5t-43 -143t-30.5 -175t-11.5 -204zM420 1489q55 99 84 141.5t50 56t54 13.5q26 0 97 -38t90 -38q22 0 40.5 15.5 t75.5 84.5l50 -36q-74 -135 -109.5 -173t-75.5 -38q-29 0 -99 37.5t-89 37.5q-23 0 -42.5 -16.5t-76.5 -83.5z" />
<glyph unicode="&#xd6;" horiz-adv-x="1093" d="M72 510q0 195 44.5 364.5t122 288.5t185.5 186.5t231 67.5q198 0 311 -133t113 -397q0 -195 -44.5 -364.5t-122 -288.5t-185.5 -186.5t-231 -67.5q-198 0 -311 133t-113 397zM281 504q0 -115 17 -195t51.5 -126t80 -66.5t107.5 -20.5q54 0 86 8q9 2 26 19.5t40 52 t47.5 81.5t48.5 114t43 143t30.5 175t11.5 204q0 115 -17 194.5t-51.5 126t-80 66.5t-107.5 20q-54 0 -86 -8q-9 -2 -26 -19.5t-40 -52t-47.5 -81t-48.5 -113.5t-43 -143t-30.5 -175t-11.5 -204zM463 1544q0 51 26 82t74 31q35 0 56.5 -24t21.5 -60q0 -49 -26 -81t-74 -32 q-35 0 -56.5 24t-21.5 60zM719 1544q0 51 26 82t74 31q35 0 56.5 -24t21.5 -60q0 -49 -26 -81t-74 -32q-35 0 -56.5 24t-21.5 60z" />
<glyph unicode="&#xd7;" d="M84 190l238 316l-238 315l102 82l213 -293l215 293l101 -82l-238 -315l238 -316l-105 -81l-213 292l-215 -292z" />
<glyph unicode="&#xd8;" horiz-adv-x="1093" d="M39 -109l139 230q-106 134 -106 389q0 195 44.5 364.5t122 288.5t185.5 186.5t231 67.5q157 0 258 -82l129 211q18 -2 39 -13.5t31 -27.5l-139 -229q106 -137 106 -389q0 -195 -44.5 -364.5t-122 -288.5t-185.5 -186.5t-231 -67.5q-157 0 -260 81l-127 -211 q-18 2 -39 13.5t-31 27.5zM281 504q0 -107 16 -189l524 867q-62 118 -207 118q-54 0 -86 -8q-9 -2 -26 -19.5t-40 -52t-47.5 -81t-48.5 -113.5t-43 -143t-30.5 -175t-11.5 -204zM330 215q58 -119 207 -119q54 0 86 8q9 2 26 19.5t40 52t47.5 81.5t48.5 114t43 143t30.5 175 t11.5 204q0 104 -16 186z" />
<glyph unicode="&#xd9;" horiz-adv-x="1153" d="M145 317q0 49 9 111l149 848l-121 22l4 21q9 48 33 78h432l-33 -99l-126 -22l-148 -836q-8 -52 -8 -112q0 -99 50.5 -151t168.5 -52t179.5 77t90.5 240l148 834l-166 22l4 21q9 48 33 78h397l-33 -99l-92 -22l-158 -850q-43 -237 -149 -341.5t-287 -104.5q-187 0 -282 88 t-95 249zM535 1720h198l62 -239q-12 -12 -32.5 -23t-33.5 -12z" />
<glyph unicode="&#xda;" horiz-adv-x="1153" d="M145 317q0 49 9 111l149 848l-121 22l4 21q9 48 33 78h432l-33 -99l-126 -22l-148 -836q-8 -52 -8 -112q0 -99 50.5 -151t168.5 -52t179.5 77t90.5 240l148 834l-166 22l4 21q9 48 33 78h397l-33 -99l-92 -22l-158 -850q-43 -237 -149 -341.5t-287 -104.5q-187 0 -282 88 t-95 249zM672 1481l139 239h215l-293 -274q-15 2 -35 13t-26 22z" />
<glyph unicode="&#xdb;" horiz-adv-x="1153" d="M145 317q0 49 9 111l149 848l-121 22l4 21q9 48 33 78h432l-33 -99l-126 -22l-148 -836q-8 -52 -8 -112q0 -99 50.5 -151t168.5 -52t179.5 77t90.5 240l148 834l-166 22l4 21q9 48 33 78h397l-33 -99l-92 -22l-158 -850q-43 -237 -149 -341.5t-287 -104.5q-187 0 -282 88 t-95 249zM510 1485l201 235h127l118 -235q-9 -12 -30 -24.5t-33 -14.5l-143 137l-185 -137q-14 3 -31.5 15t-23.5 24z" />
<glyph unicode="&#xdc;" horiz-adv-x="1153" d="M145 317q0 49 9 111l149 848l-121 22l4 21q9 48 33 78h432l-33 -99l-126 -22l-148 -836q-8 -52 -8 -112q0 -99 50.5 -151t168.5 -52t179.5 77t90.5 240l148 834l-166 22l4 21q9 48 33 78h397l-33 -99l-92 -22l-158 -850q-43 -237 -149 -341.5t-287 -104.5q-187 0 -282 88 t-95 249zM518 1544q0 51 26 82t74 31q35 0 56.5 -24t21.5 -60q0 -49 -26 -81t-74 -32q-35 0 -56.5 24t-21.5 60zM774 1544q0 51 26 82t74 31q35 0 56.5 -24t21.5 -60q0 -49 -26 -81t-74 -32q-35 0 -56.5 24t-21.5 60z" />
<glyph unicode="&#xdd;" horiz-adv-x="854" d="M92 1298l2 15q10 50 37 84h412l-35 -99l-115 -22l99 -528h16l287 528l-131 22l2 15q10 51 36 84h324l-35 -99l-53 -22l-410 -696l-82 -459l148 -23l-4 -20q-9 -48 -33 -78h-448l32 98l117 23l82 459l-158 696zM553 1481l139 239h215l-293 -274q-15 2 -35 13t-26 22z" />
<glyph unicode="&#xde;" horiz-adv-x="960" d="M-29 0l33 98l117 23l207 1155l-148 22l4 21q9 48 33 78h320l-48 -275h97q167 0 259.5 -84t92.5 -262q0 -195 -119.5 -316t-306.5 -145l-172 -22l-51 -293h-318zM360 412l220 16q67 37 115 135t48 217q0 236 -178 236h-96z" />
<glyph unicode="&#xdf;" horiz-adv-x="892" d="M18 -313l197 1187q-53 26 -65 91l88 47l2 12q20 115 64 206.5t103 148.5t126.5 86.5t138.5 29.5q105 0 168 -57.5t63 -161.5q0 -61 -28 -121t-62 -99t-88 -97t-82 -95q-18 -56 -18 -119q0 -45 24 -100.5t52.5 -102t52.5 -117t24 -140.5q0 -84 -45 -156t-112.5 -110.5 t-137.5 -38.5q-107 0 -170 40q3 60 35 138q56 -34 105 -47t110 -13q7 0 18 15t21 44t10 60q0 56 -23.5 114.5t-51 102.5t-51 111t-23.5 137q0 55 28.5 117t69.5 118t82 110t69.5 110.5t28.5 103.5q0 60 -34.5 92.5t-98.5 32.5q-48 0 -94 -16q-15 -6 -35 -58 q-28 -76 -53 -172q-23 -92 -35 -168l-213 -1288q-21 -6 -49 -6q-69 0 -111 29z" />
<glyph unicode="&#xe0;" horiz-adv-x="882" d="M41 330q0 150 35 282t90.5 219t124 137t137.5 50q54 0 94.5 -28t91.5 -101l54 115q16 4 45 4q57 0 88 -21l-164 -858q82 0 162 25l6 -23q-54 -87 -101 -119t-96 -32q-116 0 -116 151h-11q-65 -87 -114 -119t-107 -32q-105 0 -162 91t-57 259zM225 336q0 -118 28 -167.5 t81 -49.5q36 0 71.5 26t88.5 95l114 596q-38 17 -100.5 30t-95.5 13q-23 0 -54.5 -41.5t-61 -110t-50.5 -174t-21 -217.5zM301 1495h203q10 -235 16 -354q-11 -8 -35 -14.5t-39 -6.5z" />
<glyph unicode="&#xe1;" horiz-adv-x="882" d="M41 330q0 150 35 282t90.5 219t124 137t137.5 50q54 0 94.5 -28t91.5 -101l54 115q16 4 45 4q57 0 88 -21l-164 -858q82 0 162 25l6 -23q-54 -87 -101 -119t-96 -32q-116 0 -116 151h-11q-65 -87 -114 -119t-107 -32q-105 0 -162 91t-57 259zM225 336q0 -118 28 -167.5 t81 -49.5q36 0 71.5 26t88.5 95l114 596q-38 17 -100.5 30t-95.5 13q-23 0 -54.5 -41.5t-61 -110t-50.5 -174t-21 -217.5zM461 1141l135 354h221l-285 -375q-15 0 -39 6.5t-32 14.5z" />
<glyph unicode="&#xe2;" horiz-adv-x="882" d="M41 330q0 150 35 282t90.5 219t124 137t137.5 50q54 0 94.5 -28t91.5 -101l54 115q16 4 45 4q57 0 88 -21l-164 -858q82 0 162 25l6 -23q-54 -87 -101 -119t-96 -32q-116 0 -116 151h-11q-65 -87 -114 -119t-107 -32q-105 0 -162 91t-57 259zM225 336q0 -118 28 -167.5 t81 -49.5q36 0 71.5 26t88.5 95l114 596q-38 17 -100.5 30t-95.5 13q-23 0 -54.5 -41.5t-61 -110t-50.5 -174t-21 -217.5zM305 1143l217 352h127l90 -352q-11 -10 -34.5 -16.5t-38.5 -6.5l-115 193l-176 -193q-17 0 -38.5 6.5t-31.5 16.5z" />
<glyph unicode="&#xe3;" horiz-adv-x="882" d="M41 330q0 150 35 282t90.5 219t124 137t137.5 50q54 0 94.5 -28t91.5 -101l54 115q16 4 45 4q57 0 88 -21l-164 -858q82 0 162 25l6 -23q-54 -87 -101 -119t-96 -32q-116 0 -116 151h-11q-65 -87 -114 -119t-107 -32q-105 0 -162 91t-57 259zM225 336q0 -118 28 -167.5 t81 -49.5q36 0 71.5 26t88.5 95l114 596q-38 17 -100.5 30t-95.5 13q-23 0 -54.5 -41.5t-61 -110t-50.5 -174t-21 -217.5zM258 1169q84 143 113 176t75 33q26 0 97 -36.5t90 -36.5q22 0 41 15.5t76 84.5l49 -37q-84 -139 -116 -175t-69 -36q-29 0 -99 37t-89 37 q-24 0 -43.5 -16t-75.5 -82z" />
<glyph unicode="&#xe4;" horiz-adv-x="882" d="M41 330q0 150 35 282t90.5 219t124 137t137.5 50q54 0 94.5 -28t91.5 -101l54 115q16 4 45 4q57 0 88 -21l-164 -858q82 0 162 25l6 -23q-54 -87 -101 -119t-96 -32q-116 0 -116 151h-11q-65 -87 -114 -119t-107 -32q-105 0 -162 91t-57 259zM225 336q0 -118 28 -167.5 t81 -49.5q36 0 71.5 26t88.5 95l114 596q-38 17 -100.5 30t-95.5 13q-23 0 -54.5 -41.5t-61 -110t-50.5 -174t-21 -217.5zM295 1235q0 57 27.5 91t78.5 34q38 0 61 -26t23 -66q0 -57 -27.5 -91t-78.5 -34q-38 0 -61 26t-23 66zM565 1235q0 57 28 91t79 34q38 0 61 -26 t23 -66q0 -57 -28 -91t-79 -34q-38 0 -61 26t-23 66z" />
<glyph unicode="&#xe5;" horiz-adv-x="882" d="M41 330q0 150 35 282t90.5 219t124 137t137.5 50q54 0 94.5 -28t91.5 -101l54 115q16 4 45 4q57 0 88 -21l-164 -858q82 0 162 25l6 -23q-54 -87 -101 -119t-96 -32q-116 0 -116 151h-11q-65 -87 -114 -119t-107 -32q-105 0 -162 91t-57 259zM225 336q0 -118 28 -167.5 t81 -49.5q36 0 71.5 26t88.5 95l114 596q-38 17 -100.5 30t-95.5 13q-23 0 -54.5 -41.5t-61 -110t-50.5 -174t-21 -217.5zM362 1284q0 96 53 164t150 68q66 0 108 -42.5t42 -121.5q0 -96 -53 -164t-150 -68q-66 0 -108 42.5t-42 121.5zM449 1286q0 -43 20.5 -65.5 t56.5 -22.5q53 0 78 45t25 107q0 43 -21 65.5t-57 22.5q-52 0 -77 -45t-25 -107z" />
<glyph unicode="&#xe6;" horiz-adv-x="1177" d="M41 213q0 118 68 188t204 103l193 47q28 157 115 295l-5 12l-335 -29q-88 0 -88 76q0 48 26 92h443q19 -34 24 -71q95 92 205 92q121 0 183.5 -75t62.5 -216q0 -58 -19 -121l-444 -112q-10 -65 -10 -123q0 -126 39 -184t118 -58q25 0 61 17.5t154 89.5l21 -29 q-151 -227 -299 -227q-67 0 -116.5 25.5t-92.5 86.5q-119 -71 -175.5 -91.5t-111.5 -20.5q-102 0 -161.5 60.5t-59.5 172.5zM211 244q0 -64 29.5 -101t87.5 -37q69 0 186 52q-31 73 -31 190q0 48 6 101l-231 -60q-19 -22 -33 -62.5t-14 -82.5zM688 596l285 72q4 40 4 80 q0 163 -113 163q-33 0 -47.5 -7.5t-28.5 -31.5q-72 -119 -100 -276z" />
<glyph unicode="&#xe7;" horiz-adv-x="641" d="M41 342q0 178 59.5 333.5t163.5 249t225 93.5q94 0 162 -35q-3 -67 -35 -162q-32 0 -108 30t-100 30q-14 0 -36.5 -23.5t-47.5 -70.5t-47.5 -107.5t-37 -143.5t-14.5 -169q0 -238 142 -238q15 0 30 4t57 28t107 70l21 -30q-78 -118 -142.5 -169.5t-140.5 -51.5 q-117 0 -187.5 93t-70.5 269zM92 -381q78 21 112 44t34 58q0 56 -82 78l4 25l94 110h51l-31 -67q48 -27 69.5 -58.5t21.5 -78.5q0 -70 -71 -123.5t-190 -57.5q-12 27 -12 70z" />
<glyph unicode="&#xe8;" horiz-adv-x="739" d="M41 348q0 177 56 332t151.5 246.5t204.5 91.5q121 0 183 -75t62 -216q0 -62 -18 -121l-444 -94q-11 -72 -11 -141q0 -126 39.5 -184t118.5 -58q25 0 61 17.5t154 89.5l20 -29q-151 -227 -299 -227q-121 0 -199.5 92.5t-78.5 275.5zM250 596l285 80q4 40 4 72 q0 163 -113 163q-33 0 -47.5 -7.5t-28.5 -31.5q-72 -119 -100 -276zM287 1495h202q11 -235 17 -354q-11 -8 -35 -14.5t-39 -6.5z" />
<glyph unicode="&#xe9;" horiz-adv-x="739" d="M41 348q0 177 56 332t151.5 246.5t204.5 91.5q121 0 183 -75t62 -216q0 -62 -18 -121l-444 -94q-11 -72 -11 -141q0 -126 39.5 -184t118.5 -58q25 0 61 17.5t154 89.5l20 -29q-151 -227 -299 -227q-121 0 -199.5 92.5t-78.5 275.5zM250 596l285 80q4 40 4 72 q0 163 -113 163q-33 0 -47.5 -7.5t-28.5 -31.5q-72 -119 -100 -276zM432 1141l135 354h221l-284 -375q-15 0 -39.5 6.5t-32.5 14.5z" />
<glyph unicode="&#xea;" horiz-adv-x="739" d="M41 348q0 177 56 332t151.5 246.5t204.5 91.5q121 0 183 -75t62 -216q0 -62 -18 -121l-444 -94q-11 -72 -11 -141q0 -126 39.5 -184t118.5 -58q25 0 61 17.5t154 89.5l20 -29q-151 -227 -299 -227q-121 0 -199.5 92.5t-78.5 275.5zM250 596l285 80q4 40 4 72 q0 163 -113 163q-33 0 -47.5 -7.5t-28.5 -31.5q-72 -119 -100 -276zM252 1143l217 352h127l90 -352q-11 -10 -35 -16.5t-39 -6.5l-114 193l-176 -193q-17 0 -38.5 6.5t-31.5 16.5z" />
<glyph unicode="&#xeb;" horiz-adv-x="739" d="M41 348q0 177 56 332t151.5 246.5t204.5 91.5q121 0 183 -75t62 -216q0 -62 -18 -121l-444 -94q-11 -72 -11 -141q0 -126 39.5 -184t118.5 -58q25 0 61 17.5t154 89.5l20 -29q-151 -227 -299 -227q-121 0 -199.5 92.5t-78.5 275.5zM250 596l285 80q4 40 4 72 q0 163 -113 163q-33 0 -47.5 -7.5t-28.5 -31.5q-72 -119 -100 -276zM254 1235q0 57 27.5 91t78.5 34q38 0 61 -26t23 -66q0 -57 -27.5 -91t-78.5 -34q-38 0 -61 26t-23 66zM524 1235q0 57 28 91t79 34q38 0 61 -26t23 -66q0 -57 -28 -91t-79 -34q-38 0 -61 26t-23 66z" />
<glyph unicode="&#xec;" horiz-adv-x="485" d="M70 68l147 780l-29 24q-40 32 -47 80l6 37l267 29l-168 -889q82 0 162 25l6 -23q-38 -62 -78.5 -97.5t-68.5 -44.5t-62 -9q-47 0 -82.5 23t-52.5 65zM176 1495h203q10 -235 16 -354q-11 -8 -34.5 -14.5t-38.5 -6.5z" />
<glyph unicode="&#xed;" horiz-adv-x="485" d="M70 68l147 780l-29 24q-40 32 -47 80l6 37l267 29l-168 -889q82 0 162 25l6 -23q-38 -62 -78.5 -97.5t-68.5 -44.5t-62 -9q-47 0 -82.5 23t-52.5 65zM274 1141l136 354h221l-285 -375q-15 0 -39.5 6.5t-32.5 14.5z" />
<glyph unicode="&#xee;" horiz-adv-x="485" d="M70 68l147 780l-29 24q-40 32 -47 80l6 37l267 29l-168 -889q82 0 162 25l6 -23q-38 -62 -78.5 -97.5t-68.5 -44.5t-62 -9q-47 0 -82.5 23t-52.5 65zM119 1143l194 352h113l80 -352q-10 -10 -31 -16.5t-35 -6.5l-102 193l-156 -193q-40 0 -63 23z" />
<glyph unicode="&#xef;" horiz-adv-x="485" d="M70 68l147 780l-29 24q-40 32 -47 80l6 37l267 29l-168 -889q82 0 162 25l6 -23q-38 -62 -78.5 -97.5t-68.5 -44.5t-62 -9q-47 0 -82.5 23t-52.5 65zM133 1235q0 57 25 91t73 34q35 0 56.5 -26t21.5 -66q0 -57 -26 -91t-72 -34q-35 0 -56.5 26t-21.5 66zM350 1235 q0 57 25.5 91t73.5 34q35 0 56 -26t21 -66q0 -57 -26 -91t-72 -34q-35 0 -56.5 26t-21.5 66z" />
<glyph unicode="&#xf0;" horiz-adv-x="862" d="M41 346q0 89 20 181.5t63 180.5t102 157t144.5 111t184.5 42h43q-25 108 -76 215l-162 -100q-44 24 -53 75l174 109q-38 68 -73 121l71 57q59 -49 111 -111l178 111q44 -24 53 -76l-174 -108q174 -259 174 -582q0 -102 -17.5 -205t-55.5 -201.5t-92 -174t-133 -122 t-173 -46.5q-133 0 -221 95t-88 271zM227 328q0 -125 39.5 -180.5t118.5 -55.5q23 0 64 12q17 5 46.5 57.5t61.5 134.5t55 205t23 247q0 66 -10 133q-110 20 -166 20q-23 0 -60.5 -44t-76.5 -116t-67 -184t-28 -229z" />
<glyph unicode="&#xf1;" horiz-adv-x="944" d="M70 2l147 846l-29 24q-40 32 -47 80l6 37l252 29l-22 -158h10q72 91 131 124.5t127 33.5q77 0 134 -53t57 -148q0 -24 -7 -59l-120 -629q81 0 161 25l7 -23q-38 -62 -78.5 -97.5t-68.5 -44.5t-62 -9q-47 0 -83 22t-53 61l144 754q-34 43 -103 43q-92 0 -204 -88 l-136 -768q-38 -14 -83 -14q-56 0 -80 12zM301 1169q46 78 68 114t44 60.5t36.5 29.5t39.5 5t96 -36.5t91 -36.5q22 0 41 15.5t76 84.5l49 -37q-84 -139 -116 -175t-69 -36q-29 0 -99 37t-89 37q-24 0 -43.5 -16t-75.5 -82z" />
<glyph unicode="&#xf2;" horiz-adv-x="819" d="M41 352q0 119 29.5 235.5t83.5 213.5t140.5 157t190.5 60q145 0 219 -98t74 -275q0 -119 -29.5 -235.5t-83.5 -213t-140.5 -156.5t-190.5 -60q-145 0 -219 97.5t-74 274.5zM225 338q0 -135 37.5 -190.5t110.5 -55.5q43 0 65 10q10 4 27.5 29t40 74t42 112t33 154 t13.5 188q0 135 -37.5 190.5t-110.5 55.5q-42 0 -65 -10q-10 -4 -27.5 -29t-40 -74t-42 -112t-33 -154t-13.5 -188zM309 1495h203q10 -235 16 -354q-11 -8 -34.5 -14.5t-38.5 -6.5z" />
<glyph unicode="&#xf3;" horiz-adv-x="819" d="M41 352q0 119 29.5 235.5t83.5 213.5t140.5 157t190.5 60q145 0 219 -98t74 -275q0 -119 -29.5 -235.5t-83.5 -213t-140.5 -156.5t-190.5 -60q-145 0 -219 97.5t-74 274.5zM225 338q0 -135 37.5 -190.5t110.5 -55.5q43 0 65 10q10 4 27.5 29t40 74t42 112t33 154 t13.5 188q0 135 -37.5 190.5t-110.5 55.5q-42 0 -65 -10q-10 -4 -27.5 -29t-40 -74t-42 -112t-33 -154t-13.5 -188zM440 1141l135 354h222l-285 -375q-15 0 -39.5 6.5t-32.5 14.5z" />
<glyph unicode="&#xf4;" horiz-adv-x="819" d="M41 352q0 119 29.5 235.5t83.5 213.5t140.5 157t190.5 60q145 0 219 -98t74 -275q0 -119 -29.5 -235.5t-83.5 -213t-140.5 -156.5t-190.5 -60q-145 0 -219 97.5t-74 274.5zM225 338q0 -135 37.5 -190.5t110.5 -55.5q43 0 65 10q10 4 27.5 29t40 74t42 112t33 154 t13.5 188q0 135 -37.5 190.5t-110.5 55.5q-42 0 -65 -10q-10 -4 -27.5 -29t-40 -74t-42 -112t-33 -154t-13.5 -188zM268 1143l217 352h127l90 -352q-11 -10 -34.5 -16.5t-38.5 -6.5l-115 193l-176 -193q-17 0 -38.5 6.5t-31.5 16.5z" />
<glyph unicode="&#xf5;" horiz-adv-x="819" d="M41 352q0 119 29.5 235.5t83.5 213.5t140.5 157t190.5 60q145 0 219 -98t74 -275q0 -119 -29.5 -235.5t-83.5 -213t-140.5 -156.5t-190.5 -60q-145 0 -219 97.5t-74 274.5zM225 338q0 -135 37.5 -190.5t110.5 -55.5q43 0 65 10q10 4 27.5 29t40 74t42 112t33 154 t13.5 188q0 135 -37.5 190.5t-110.5 55.5q-42 0 -65 -10q-10 -4 -27.5 -29t-40 -74t-42 -112t-33 -154t-13.5 -188zM242 1169q84 143 113 176t75 33q25 0 95.5 -36.5t90.5 -36.5q22 0 41 15.5t76 84.5l49 -37q-85 -139 -116 -175t-68 -36q-29 0 -99 37t-89 37 q-24 0 -43.5 -16t-75.5 -82z" />
<glyph unicode="&#xf6;" horiz-adv-x="819" d="M41 352q0 119 29.5 235.5t83.5 213.5t140.5 157t190.5 60q145 0 219 -98t74 -275q0 -119 -29.5 -235.5t-83.5 -213t-140.5 -156.5t-190.5 -60q-145 0 -219 97.5t-74 274.5zM225 338q0 -135 37.5 -190.5t110.5 -55.5q43 0 65 10q10 4 27.5 29t40 74t42 112t33 154 t13.5 188q0 135 -37.5 190.5t-110.5 55.5q-42 0 -65 -10q-10 -4 -27.5 -29t-40 -74t-42 -112t-33 -154t-13.5 -188zM268 1235q0 57 28 91t79 34q38 0 61 -26t23 -66q0 -57 -28 -91t-79 -34q-38 0 -61 26t-23 66zM539 1235q0 57 27.5 91t78.5 34q38 0 61 -26t23 -66 q0 -57 -27.5 -91t-78.5 -34q-38 0 -61 26t-23 66z" />
<glyph unicode="&#xf7;" d="M82 428v139h635v-139h-635zM299 119q0 64 27 101.5t73 37.5t74.5 -37.5t28.5 -101.5q0 -63 -27 -101t-76 -38t-74.5 37.5t-25.5 101.5zM299 879q0 64 27 101.5t73 37.5t74.5 -37.5t28.5 -101.5q0 -63 -27.5 -101.5t-75.5 -38.5q-49 0 -74.5 38t-25.5 102z" />
<glyph unicode="&#xf8;" horiz-adv-x="819" d="M-47 -145l151 235q-63 92 -63 262q0 119 29.5 235.5t83.5 213.5t140.5 157t190.5 60q107 0 179 -57l143 223q16 -2 34 -13.5t25 -27.5l-153 -238q65 -95 65 -260q0 -119 -29.5 -235.5t-83.5 -213t-140.5 -156.5t-190.5 -60q-107 0 -178 55l-144 -221q-16 2 -34 13.5 t-25 27.5zM225 338q0 -41 2 -57l344 536q-33 88 -125 88q-42 0 -65 -10q-10 -4 -27.5 -29t-40 -74t-42 -112t-33 -154t-13.5 -188zM246 178q34 -86 127 -86q43 0 65 10q10 4 27.5 29t40 74t42 112t33 154t13.5 188q0 11 -1 30t-1 26z" />
<glyph unicode="&#xf9;" horiz-adv-x="937" d="M96 180q0 30 6 60l117 608l-31 24q-40 32 -47 80l6 37l269 29l-160 -838q31 -43 102 -43q84 0 197 88l135 768q34 15 84 15q51 0 80 -13l-152 -866q84 0 164 25l6 -23q-56 -90 -105.5 -120.5t-102.5 -30.5q-50 0 -79.5 38t-29.5 119h-10q-71 -91 -131 -124t-127 -33 q-77 0 -134 52.5t-57 147.5zM391 1495h203q10 -235 16 -354q-11 -8 -34.5 -14.5t-38.5 -6.5z" />
<glyph unicode="&#xfa;" horiz-adv-x="937" d="M96 180q0 30 6 60l117 608l-31 24q-40 32 -47 80l6 37l269 29l-160 -838q31 -43 102 -43q84 0 197 88l135 768q34 15 84 15q51 0 80 -13l-152 -866q84 0 164 25l6 -23q-56 -90 -105.5 -120.5t-102.5 -30.5q-50 0 -79.5 38t-29.5 119h-10q-71 -91 -131 -124t-127 -33 q-77 0 -134 52.5t-57 147.5zM514 1141l135 354h221l-284 -375q-15 0 -39.5 6.5t-32.5 14.5z" />
<glyph unicode="&#xfb;" horiz-adv-x="937" d="M96 180q0 30 6 60l117 608l-31 24q-40 32 -47 80l6 37l269 29l-160 -838q31 -43 102 -43q84 0 197 88l135 768q34 15 84 15q51 0 80 -13l-152 -866q84 0 164 25l6 -23q-56 -90 -105.5 -120.5t-102.5 -30.5q-50 0 -79.5 38t-29.5 119h-10q-71 -91 -131 -124t-127 -33 q-77 0 -134 52.5t-57 147.5zM360 1143l218 352h127l90 -352q-11 -10 -35 -16.5t-39 -6.5l-115 193l-176 -193q-17 0 -38.5 6.5t-31.5 16.5z" />
<glyph unicode="&#xfc;" horiz-adv-x="937" d="M96 180q0 30 6 60l117 608l-31 24q-40 32 -47 80l6 37l269 29l-160 -838q31 -43 102 -43q84 0 197 88l135 768q34 15 84 15q51 0 80 -13l-152 -866q84 0 164 25l6 -23q-56 -90 -105.5 -120.5t-102.5 -30.5q-50 0 -79.5 38t-29.5 119h-10q-71 -91 -131 -124t-127 -33 q-77 0 -134 52.5t-57 147.5zM348 1235q0 57 28 91t79 34q38 0 61 -26t23 -66q0 -57 -28 -91t-79 -34q-38 0 -61 26t-23 66zM618 1235q0 57 28 91t79 34q38 0 61 -26t23 -66q0 -57 -28 -91t-79 -34q-38 0 -61 26t-23 66z" />
<glyph unicode="&#xfd;" horiz-adv-x="776" d="M35 854q47 94 92.5 129t95.5 35q34 0 59 -21.5t37 -60.5l52 -723h12l248 631l-99 84l3 8q12 40 30 61h250v-63l-508 -1153l-63 -232q-32 0 -79.5 14t-64.5 34v49q9 52 45 117.5t150 236.5h-55l-90 866q-40 0 -105 -35zM428 1141l135 354h221l-284 -375q-15 0 -39.5 6.5 t-32.5 14.5z" />
<glyph unicode="&#xfe;" horiz-adv-x="854" d="M-23 -430l308 1755l-31 25q-40 32 -47 80l6 36l264 29l-106 -608h10q65 80 109.5 105.5t99.5 25.5q109 0 166 -90.5t57 -259.5q0 -121 -22.5 -230.5t-60.5 -191.5t-88 -143t-106.5 -92t-113.5 -31q-54 0 -95 21.5t-96 84.5l-92 -514q-32 -14 -78 -14q-54 0 -84 12z M246 170q123 -55 190 -55q42 0 88 81.5t76.5 210.5t30.5 255q0 116 -27 166.5t-86 50.5q-67 0 -170 -121z" />
<glyph unicode="&#xff;" horiz-adv-x="776" d="M35 854q47 94 92.5 129t95.5 35q34 0 59 -21.5t37 -60.5l52 -723h12l248 631l-99 84l3 8q12 40 30 61h250v-63l-508 -1153l-63 -232q-32 0 -79.5 14t-64.5 34v49q9 52 45 117.5t150 236.5h-55l-90 866q-40 0 -105 -35zM246 1235q0 57 27.5 91t78.5 34q38 0 61 -26t23 -66 q0 -57 -27.5 -91t-78.5 -34q-38 0 -61 26t-23 66zM516 1235q0 57 28 91t79 34q38 0 61 -26t23 -66q0 -57 -28 -91t-79 -34q-38 0 -61 26t-23 66z" />
<glyph unicode="&#x152;" horiz-adv-x="1556" d="M72 510q0 74 8 153.5t27 169.5t47.5 172t73.5 158t100.5 132t132.5 89t166 33q104 0 182 -38.5t121 -108.5l22 127h406l198 20l-43 -368q-39 -25 -86 -25h-12l-35 254h-268l-92 -510h297q0 -66 -25 -131l-127 12h-166l-96 -540l299 18l94 270h13q51 0 86 -24l-41 -373 h-652l13 70q-90 -90 -248 -90q-183 0 -289 133.5t-106 396.5zM281 504q0 -224 61 -316t186 -92q62 0 115 29q75 42 141 286.5t66 540.5q0 184 -62 266t-184 82q-52 0 -92 -10q-13 -3 -39 -35t-59.5 -99t-62.5 -155t-49.5 -220t-20.5 -277z" />
<glyph unicode="&#x153;" horiz-adv-x="1263" d="M41 352q0 119 29.5 235.5t83.5 213.5t140.5 157t190.5 60q174 0 236 -162q110 162 256 162q121 0 183.5 -75t62.5 -216q0 -58 -19 -121l-444 -94q-10 -65 -10 -141q0 -126 39 -184t118 -58q25 0 61 17.5t154 89.5l21 -29q-151 -227 -299 -227q-79 0 -137.5 41t-88.5 124 q-116 -165 -284 -165q-145 0 -219 97.5t-74 274.5zM225 338q0 -135 37.5 -190.5t110.5 -55.5q43 0 65 10q10 4 27.5 29t40 74t42 112t33 154t13.5 188q0 135 -37.5 190.5t-110.5 55.5q-42 0 -65 -10q-10 -4 -27.5 -29t-40 -74t-42 -112t-33 -154t-13.5 -188zM774 596l285 80 q4 40 4 72q0 163 -113 163q-33 0 -47.5 -7.5t-28.5 -31.5q-72 -119 -100 -276z" />
<glyph unicode="&#x178;" horiz-adv-x="854" d="M92 1298l2 15q10 50 37 84h412l-35 -99l-115 -22l99 -528h16l287 528l-131 22l2 15q10 51 36 84h324l-35 -99l-53 -22l-410 -696l-82 -459l148 -23l-4 -20q-9 -48 -33 -78h-448l32 98l117 23l82 459l-158 696zM369 1544q0 51 26 82t74 31q35 0 56.5 -24t21.5 -60 q0 -49 -26.5 -81t-74.5 -32q-35 0 -56 24t-21 60zM625 1544q0 51 26 82t74 31q35 0 56.5 -24t21.5 -60q0 -49 -26.5 -81t-74.5 -32q-35 0 -56 24t-21 60z" />
<glyph unicode="&#x2c6;" d="M182 1143l217 352h127l90 -352q-11 -10 -34.5 -16.5t-38.5 -6.5l-115 193l-176 -193q-17 0 -38.5 6.5t-31.5 16.5z" />
<glyph unicode="&#x2dc;" d="M129 1169q46 78 68 114t44 60.5t36.5 29.5t39.5 5t96 -36.5t91 -36.5q22 0 41 15.5t76 84.5l49 -37q-84 -139 -116 -175t-69 -36q-29 0 -99 37t-89 37q-24 0 -43.5 -16t-75.5 -82z" />
<glyph unicode="&#x2000;" horiz-adv-x="934" />
<glyph unicode="&#x2001;" horiz-adv-x="1868" />
<glyph unicode="&#x2002;" horiz-adv-x="934" />
<glyph unicode="&#x2003;" horiz-adv-x="1868" />
<glyph unicode="&#x2004;" horiz-adv-x="622" />
<glyph unicode="&#x2005;" horiz-adv-x="467" />
<glyph unicode="&#x2006;" horiz-adv-x="311" />
<glyph unicode="&#x2007;" horiz-adv-x="311" />
<glyph unicode="&#x2008;" horiz-adv-x="233" />
<glyph unicode="&#x2009;" horiz-adv-x="373" />
<glyph unicode="&#x200a;" horiz-adv-x="103" />
<glyph unicode="&#x2010;" horiz-adv-x="382" d="M31 424l24 149h297l-24 -149h-297z" />
<glyph unicode="&#x2011;" horiz-adv-x="382" d="M31 424l24 149h297l-24 -149h-297z" />
<glyph unicode="&#x2012;" horiz-adv-x="382" d="M31 424l24 149h297l-24 -149h-297z" />
<glyph unicode="&#x2013;" horiz-adv-x="768" d="M37 424l26 149h666l-27 -149h-665z" />
<glyph unicode="&#x2014;" horiz-adv-x="1536" d="M37 424l26 149h1434l-27 -149h-1433z" />
<glyph unicode="&#x2018;" horiz-adv-x="346" d="M133 1075q0 36 10 74l250 346q21 0 41 -10.5t27 -28.5l-160 -285l55 -43q0 -79 -31 -129.5t-92 -50.5q-43 0 -71.5 33t-28.5 94z" />
<glyph unicode="&#x2019;" horiz-adv-x="346" d="M115 987l159 285l-55 43q0 79 31 129.5t92 50.5q43 0 71.5 -33t28.5 -94q0 -36 -10 -74l-250 -346q-21 0 -40.5 10.5t-26.5 28.5z" />
<glyph unicode="&#x201a;" horiz-adv-x="346" d="M-59 18l159 285l-55 43q0 79 31 129.5t92 50.5q43 0 71.5 -33t28.5 -94q0 -25 -10 -73l-250 -346q-22 0 -41 10t-26 28z" />
<glyph unicode="&#x201c;" horiz-adv-x="630" d="M133 1075q0 36 10 74l250 346q21 0 41 -10.5t27 -28.5l-160 -285l55 -43q0 -79 -31 -129.5t-92 -50.5q-43 0 -71.5 33t-28.5 94zM418 1075q0 36 10 74l250 346q21 0 40.5 -10.5t26.5 -28.5l-159 -285l55 -43q0 -79 -31 -129.5t-92 -50.5q-43 0 -71.5 33t-28.5 94z" />
<glyph unicode="&#x201d;" horiz-adv-x="630" d="M115 987l159 285l-55 43q0 79 31 129.5t92 50.5q43 0 71.5 -33t28.5 -94q0 -36 -10 -74l-250 -346q-21 0 -40.5 10.5t-26.5 28.5zM399 987l160 285l-55 43q0 79 31 129.5t92 50.5q43 0 71.5 -33t28.5 -94q0 -36 -10 -74l-250 -346q-21 0 -41 10.5t-27 28.5z" />
<glyph unicode="&#x201e;" horiz-adv-x="630" d="M-59 18l159 285l-55 43q0 79 31 129.5t92 50.5q43 0 71.5 -33t28.5 -94q0 -25 -10 -73l-250 -346q-22 0 -41 10t-26 28zM225 18l160 285l-55 43q0 79 31 129.5t92 50.5q43 0 71.5 -33t28.5 -94q0 -25 -10 -73l-250 -346q-22 0 -41.5 10t-26.5 28z" />
<glyph unicode="&#x2022;" horiz-adv-x="618" d="M63 469q0 150 75 241t196 91q108 0 164.5 -69.5t56.5 -192.5q0 -150 -74.5 -241t-195.5 -91q-108 0 -165 69.5t-57 192.5z" />
<glyph unicode="&#x2026;" horiz-adv-x="1167" d="M0 100q0 71 35.5 114.5t95.5 43.5q44 0 72 -33.5t28 -87.5q0 -71 -35.5 -114t-93.5 -43q-46 0 -74 34t-28 86zM399 100q0 71 35.5 114.5t95.5 43.5q44 0 72.5 -33.5t28.5 -87.5q0 -71 -35.5 -114t-93.5 -43q-46 0 -74.5 34t-28.5 86zM799 100q0 71 35.5 114.5t95.5 43.5 q44 0 72 -33.5t28 -87.5q0 -71 -35.5 -114t-93.5 -43q-46 0 -74 34t-28 86z" />
<glyph unicode="&#x202f;" horiz-adv-x="373" />
<glyph unicode="&#x2039;" horiz-adv-x="401" d="M39 494l2 18l305 387l62 -12l-172 -383l34 -385l-61 -13z" />
<glyph unicode="&#x203a;" horiz-adv-x="401" d="M-8 117l172 383l-35 385l61 12l170 -387l-2 -18l-305 -388z" />
<glyph unicode="&#x205f;" horiz-adv-x="467" />
<glyph unicode="&#x20ac;" horiz-adv-x="860" d="M57 516q0 43 17 78h69q7 85 33 207h-67q0 45 16 78h70q66 246 197 392t302 146q51 0 112.5 -9.5t96.5 -21.5q-6 -73 -31 -141q-50 17 -124 29t-132 12q-45 0 -65.5 -8.5t-46.5 -44.5q-70 -96 -129 -354h325q0 -47 -16 -78h-326q-24 -134 -32 -207h323q0 -47 -16 -78h-314 q-6 -76 -6 -147q0 -254 172 -254q125 0 224 102q0 -69 -13 -141q-99 -96 -237 -96q-160 0 -241 112.5t-81 327.5q0 63 2 96h-82z" />
<glyph unicode="&#x2122;" horiz-adv-x="1312" d="M164 1225l31 172h350l123 10l-39 -182q-21 -15 -54 -15h-14l-6 117l-86 -4l-96 -555l61 -10l-2 -10q-9 -36 -22 -52h-230l21 62l57 10l96 549l-80 -4l-45 -103h-18q-32 0 -47 15zM575 696l21 62l57 10l121 557l-63 10l2 11q9 34 22 51h185l51 -494l231 494h197l-21 -62 l-59 -10l-82 -557l61 -10l-2 -10q-9 -36 -22 -52h-223l20 62l59 10q48 305 68 440h-10l-248 -512l-53 -10l-53 522h-11l-90 -440l66 -10l-2 -10q-8 -34 -23 -52h-199z" />
<glyph unicode="&#xe000;" horiz-adv-x="1013" d="M0 0v1014h1014v-1014h-1014z" />
</font>
</defs>
</svg>
